<svg xmlns="http://www.w3.org/2000/svg" width="96" height="96" viewBox="0 0 96 96">
  <g id="noun_take_photo_1560838" data-name="noun_take photo_1560838" transform="translate(-2 -2)">
    <path id="Path_388" data-name="Path 388" d="M18,86H54a4,4,0,0,0,0-8H18a8,8,0,0,1-8-8V34a8,8,0,0,1,8-8h8a4,4,0,0,0,3.58-2.21l5.79-11.58A4,4,0,0,1,38.94,10H53.06a4,4,0,0,1,3.57,2.21l5.79,11.58A4,4,0,0,0,66,26h8a8,8,0,0,1,8,8V54a4,4,0,0,0,8,0V34A16,16,0,0,0,74,18H68.47L63.79,8.63A11.94,11.94,0,0,0,53.06,2H38.94A11.94,11.94,0,0,0,28.21,8.63L23.53,18H18A16,16,0,0,0,2,34V70A16,16,0,0,0,18,86Z" fill="#fff"/>
    <path id="Path_389" data-name="Path 389" d="M46,30A20,20,0,1,0,66,50,20,20,0,0,0,46,30Zm0,32A12,12,0,1,1,58,50,12,12,0,0,1,46,62Z" fill="#fff"/>
    <path id="Path_390" data-name="Path 390" d="M94,78H86V70a4,4,0,0,0-8,0v8H70a4,4,0,0,0,0,8h8v8a4,4,0,0,0,8,0V86h8a4,4,0,0,0,0-8Z" fill="#fff"/>
  </g>
</svg>
