<svg xmlns="http://www.w3.org/2000/svg" width="79.65" height="91.3" viewBox="0 0 79.65 91.3">
  <g id="noun_Add_File_2694050" data-name="noun_Add File_2694050" transform="translate(-8.11 -4.35)">
    <path id="Path_910" data-name="Path 910" d="M81.93,80.11H79a2.91,2.91,0,0,1-2.9-2.91h0A2.91,2.91,0,0,1,79,74.28h0a2.91,2.91,0,0,0,2.92-2.91V13.09A2.91,2.91,0,0,0,79,10.18H38.22a2.91,2.91,0,0,0-2.91,2.91v.28A2.64,2.64,0,0,1,32.67,16h-.56a2.64,2.64,0,0,1-2.63-2.64V10.18a5.83,5.83,0,0,1,5.83-5.83H81.93a5.83,5.83,0,0,1,5.83,5.83v64.1A5.83,5.83,0,0,1,81.93,80.11Zm-9.71-54.4V89.82a5.83,5.83,0,0,1-5.83,5.83H13.94a5.83,5.83,0,0,1-5.83-5.83V25.71a5.83,5.83,0,0,1,5.83-5.83H66.39a5.83,5.83,0,0,1,5.83,5.83Zm-8.74,0H16.85a2.91,2.91,0,0,0-2.91,2.92V86.91a2.91,2.91,0,0,0,2.91,2.91H63.48a2.91,2.91,0,0,0,2.91-2.91V28.63a2.91,2.91,0,0,0-2.91-2.92ZM40.34,72.34H40a2.75,2.75,0,0,1-2.74-2.75V60.68H28.34a2.74,2.74,0,0,1-2.74-2.74V57.6a2.74,2.74,0,0,1,2.74-2.75h8.91V45.94A2.74,2.74,0,0,1,40,43.2h.35a2.74,2.74,0,0,1,2.74,2.74v8.91H52a2.75,2.75,0,0,1,2.75,2.75v.34A2.75,2.75,0,0,1,52,60.68H43.08v8.91a2.75,2.75,0,0,1-2.74,2.75Z" fill="#13a0f0" fill-rule="evenodd"/>
  </g>
</svg>
