<svg xmlns="http://www.w3.org/2000/svg" width="121.005" height="78" viewBox="0 0 121.005 78">
  <g id="noun_Add_Video_3015959" data-name="noun_Add Video_3015959" transform="translate(0 -18)">
    <g id="Group_77" data-name="Group 77" transform="translate(0 18)">
      <path id="Path_470" data-name="Path 470" d="M85.313,46.507V32.625a9.75,9.75,0,0,0-9.75-9.75H14.625a9.75,9.75,0,0,0-9.75,9.75v48.75a9.75,9.75,0,0,0,9.75,9.75H75.563a9.75,9.75,0,0,0,9.75-9.75V67.493l24.753,21.671a3.656,3.656,0,0,0,6.065-2.751V27.587a3.656,3.656,0,0,0-6.065-2.751ZM90.188,35.76l16.667-14.592a8.531,8.531,0,0,1,14.151,6.419V86.413a8.531,8.531,0,0,1-14.151,6.419L90.188,78.24v3.135A14.625,14.625,0,0,1,75.563,96H14.625A14.625,14.625,0,0,1,0,81.375V32.625A14.625,14.625,0,0,1,14.625,18H75.563A14.625,14.625,0,0,1,90.188,32.625Z" transform="translate(0 -18)" fill="#13a0f0"/>
      <path id="Path_471" data-name="Path 471" d="M39.063,51.271V36.646a2.438,2.438,0,0,1,4.875,0V51.271H58.563a2.438,2.438,0,0,1,0,4.875H43.938V70.771a2.438,2.438,0,0,1-4.875,0V56.146H24.438a2.438,2.438,0,0,1,0-4.875Z" transform="translate(4.813 -14.454)" fill="#13a0f0"/>
    </g>
  </g>
</svg>
