<svg xmlns="http://www.w3.org/2000/svg" width="108.094" height="118" viewBox="0 0 108.094 118">
  <g id="iconfinder_alarm__alert__light__emergency_2542103" transform="translate(-9.055 -7.502)">
    <g id="Group_211" data-name="Group 211" transform="translate(9.055 7.502)">
      <path id="Path_2214" data-name="Path 2214" d="M113.959,52.155H100.277A38.221,38.221,0,0,0,91.02,35.443l7.289-10.131a3.189,3.189,0,1,0-5.177-3.725l-6.9,9.588A38,38,0,0,0,66.466,23.6V10.691a3.189,3.189,0,1,0-6.379,0V23.6a38.014,38.014,0,0,0-20,7.738l-7.015-9.75a3.189,3.189,0,0,0-5.177,3.725L35.33,35.646a38.224,38.224,0,0,0-9.082,16.509h-14a3.189,3.189,0,1,0,0,6.379h12.9c-.087,1.051-.161,2.105-.161,3.178V93.9a19.112,19.112,0,0,1,3.189-.288H98.345a19.107,19.107,0,0,1,3.19.288V61.712c0-1.072-.074-2.127-.161-3.178h12.585a3.19,3.19,0,0,0,0-6.379ZM56.9,45.776a9.579,9.579,0,0,0-9.569,9.569,3.189,3.189,0,1,1-6.379,0A15.966,15.966,0,0,1,56.9,39.4a3.189,3.189,0,1,1,0,6.379Z" transform="translate(-9.055 -7.502)" fill="#f93e2b"/>
    </g>
    <g id="Group_212" data-name="Group 212" transform="translate(15.419 99.986)">
      <path id="Path_2215" data-name="Path 2215" d="M93.977,36.5H23.808a12.758,12.758,0,1,0,0,25.516H93.977a12.758,12.758,0,0,0,0-25.516Z" transform="translate(-11.05 -36.498)"/>
    </g>
  </g>
</svg>
