<svg xmlns="http://www.w3.org/2000/svg" width="15.361" height="9.01" viewBox="0 0 15.361 9.01">
  <g id="noun_down_1137391" transform="translate(-27.9 -37)">
    <g id="Group_83" data-name="Group 83" transform="translate(27.9 37)">
      <g id="Group_82" data-name="Group 82">
        <path id="Path_637" data-name="Path 637" d="M27.9,38.043A1.046,1.046,0,0,1,28.943,37a.947.947,0,0,1,.73.313l5.911,6.155L41.5,37.313a1.008,1.008,0,0,1,1.46,0,1.029,1.029,0,0,1,.035,1.426L36.35,45.693a1.039,1.039,0,0,1-1.46.035l-.035-.035-6.676-6.954A.971.971,0,0,1,27.9,38.043Z" transform="translate(-27.9 -37)" fill="#a3a6a8"/>
      </g>
    </g>
  </g>
</svg>
