<svg xmlns="http://www.w3.org/2000/svg" width="33.955" height="33.955" viewBox="0 0 33.955 33.955">
  <g id="noun_next_arrow_1776684" data-name="noun_next arrow_1776684" transform="translate(-57.973 -58.345)">
    <g id="Group_58" data-name="Group 58" transform="translate(57.973 58.345)">
      <g id="Group_50" data-name="Group 50" transform="translate(0 0)">
        <g id="Group_49" data-name="Group 49">
          <path id="Path_392" data-name="Path 392" d="M89.684,75.324a16.239,16.239,0,0,1-.142,2.131c.015-.1.026-.2.041-.3a15.87,15.87,0,0,1-1.1,4.031l.112-.269a15.7,15.7,0,0,1-1.1,2.131c-.209.34-.434.677-.669,1-.049.067-.1.131-.146.2-.03.041-.06.079-.09.116-.12.161.179-.228.056-.071s-.265.333-.4.494A15.856,15.856,0,0,1,84.6,86.464c-.135.12-.273.236-.411.348-.075.064-.153.123-.228.183s-.224.168.071-.056c-.052.037-.1.079-.157.12-.314.236-.639.46-.969.669a16.13,16.13,0,0,1-2.36,1.241l.269-.112a15.87,15.87,0,0,1-4.031,1.1c.1-.015.2-.026.3-.041a16.24,16.24,0,0,1-4.259,0c.1.015.2.026.3.041a15.87,15.87,0,0,1-4.031-1.1l.269.112a15.705,15.705,0,0,1-2.131-1.1c-.34-.209-.677-.434-1-.669l-.2-.146c-.041-.03-.079-.06-.116-.09-.161-.12.228.179.071.056s-.333-.266-.494-.4a15.854,15.854,0,0,1-1.675-1.649c-.12-.135-.236-.273-.348-.411-.064-.075-.123-.153-.183-.228s-.168-.224.056.071c-.037-.052-.079-.1-.12-.157-.236-.314-.46-.639-.669-.969a16.129,16.129,0,0,1-1.241-2.36l.112.269a15.869,15.869,0,0,1-1.1-4.031c.015.1.026.2.041.3a16.241,16.241,0,0,1,0-4.259c-.015.1-.026.2-.041.3a15.869,15.869,0,0,1,1.1-4.031l-.112.269A15.7,15.7,0,0,1,62.4,67.6c.209-.34.434-.677.669-1,.049-.067.1-.131.146-.2.03-.041.06-.079.09-.116.12-.161-.179.228-.056.071s.265-.333.4-.494a15.854,15.854,0,0,1,1.649-1.675c.135-.12.273-.236.411-.348.075-.064.153-.123.228-.183s.224-.168-.071.056c.052-.037.1-.079.157-.12.314-.236.639-.46.969-.669a16.129,16.129,0,0,1,2.36-1.241l-.269.112a15.869,15.869,0,0,1,4.031-1.1c-.1.015-.2.026-.3.041a16.241,16.241,0,0,1,4.259,0c-.1-.015-.2-.026-.3-.041a15.869,15.869,0,0,1,4.031,1.1l-.269-.112a15.7,15.7,0,0,1,2.131,1.1c.34.209.677.434,1,.669l.2.146c.041.03.079.06.116.09.161.12-.228-.179-.071-.056s.333.266.494.4A15.854,15.854,0,0,1,86.09,65.68c.12.135.236.273.348.411.064.075.123.153.183.228s.168.224-.056-.071c.037.052.079.1.12.157.236.314.46.639.669.969a16.128,16.128,0,0,1,1.241,2.36l-.112-.269a15.87,15.87,0,0,1,1.1,4.031c-.015-.1-.026-.2-.041-.3a16.225,16.225,0,0,1,.142,2.128,1.122,1.122,0,0,0,2.244,0,16.952,16.952,0,0,0-3.1-9.779,17.3,17.3,0,0,0-8.111-6.192,16.944,16.944,0,0,0-18.805,5.108A17.546,17.546,0,0,0,59.2,69a16.965,16.965,0,0,0,8.664,21.745,17.466,17.466,0,0,0,5.216,1.443A16.958,16.958,0,0,0,91.7,78.061a18.09,18.09,0,0,0,.224-2.733,1.122,1.122,0,0,0-2.244,0Z" transform="translate(-57.973 -58.345)" fill="#fff"/>
        </g>
      </g>
      <g id="Group_57" data-name="Group 57" transform="translate(9.625 10.866)">
        <g id="Group_52" data-name="Group 52" transform="translate(0 4.991)">
          <g id="Group_51" data-name="Group 51">
            <path id="Path_393" data-name="Path 393" d="M316.5,484.644h12.46a1.122,1.122,0,1,0,0-2.244H316.5a1.122,1.122,0,0,0,0,2.244Z" transform="translate(-315.376 -482.4)" fill="#fff"/>
          </g>
        </g>
        <g id="Group_54" data-name="Group 54" transform="translate(7.42)">
          <g id="Group_53" data-name="Group 53">
            <path id="Path_394" data-name="Path 394" d="M514.13,350.844c.568.561,1.137,1.126,1.705,1.686q1.357,1.346,2.719,2.692c.209.206.419.415.628.621a1.121,1.121,0,0,0,1.586-1.586c-.568-.561-1.137-1.126-1.705-1.686q-1.357-1.346-2.719-2.692c-.209-.206-.419-.415-.628-.621a1.121,1.121,0,1,0-1.585,1.586Z" transform="translate(-513.809 -348.934)" fill="#fff"/>
          </g>
        </g>
        <g id="Group_56" data-name="Group 56" transform="translate(7.417 5.004)">
          <g id="Group_55" data-name="Group 55">
            <path id="Path_395" data-name="Path 395" d="M515.645,489.652c.568-.561,1.137-1.126,1.705-1.686q1.357-1.346,2.719-2.692c.209-.206.419-.415.628-.621a1.121,1.121,0,1,0-1.586-1.585c-.568.561-1.137,1.126-1.705,1.686q-1.357,1.346-2.719,2.692c-.209.206-.419.415-.628.621a1.121,1.121,0,0,0,1.586,1.586Z" transform="translate(-513.735 -482.747)" fill="#fff"/>
          </g>
        </g>
      </g>
    </g>
  </g>
</svg>
