<svg xmlns="http://www.w3.org/2000/svg" width="52.373" height="51.737" viewBox="0 0 52.373 51.737">
  <g id="noun_finance_2261767" transform="translate(-10.993 -8.242)">
    <path id="Path_3584" data-name="Path 3584" d="M20.485,83.661a1.128,1.128,0,0,1,1.125-1.125h3.349a1.128,1.128,0,0,1,1.125,1.125V99.988a1.128,1.128,0,0,1-1.125,1.125H21.61a1.128,1.128,0,0,1-1.125-1.125Z" transform="translate(-7.356 -57.579)" fill="#13a0f0"/>
    <path id="Path_3585" data-name="Path 3585" d="M162.608,83.661a1.128,1.128,0,0,1,1.125-1.125h3.348a1.128,1.128,0,0,1,1.125,1.125v4.822a1.128,1.128,0,0,1-1.125,1.125h-3.348a1.128,1.128,0,0,1-1.125-1.125Z" transform="translate(-117.504 -57.579)" fill="#13a0f0"/>
    <path id="Path_3586" data-name="Path 3586" d="M114.495,83.661a1.128,1.128,0,0,1,1.125-1.125h3.349a1.128,1.128,0,0,1,1.125,1.125v4.822a1.128,1.128,0,0,1-1.125,1.125H115.62a1.128,1.128,0,0,1-1.125-1.125Z" transform="translate(-80.216 -57.579)" fill="#13a0f0"/>
    <path id="Path_3587" data-name="Path 3587" d="M66.385,83.661a1.128,1.128,0,0,1,1.125-1.125h3.349a1.128,1.128,0,0,1,1.125,1.125V99.988a1.128,1.128,0,0,1-1.125,1.125H67.51a1.128,1.128,0,0,1-1.125-1.125Z" transform="translate(-42.93 -57.579)" fill="#13a0f0"/>
    <path id="Path_3588" data-name="Path 3588" d="M11,184.1a1.128,1.128,0,0,1,1.125-1.125H27.978A1.128,1.128,0,0,1,29.1,184.1v3.7a1.128,1.128,0,0,1-1.125,1.125H12.125A1.128,1.128,0,0,1,11,187.807Z" transform="translate(-0.005 -135.424)" fill="#13a0f0"/>
    <path id="Path_3589" data-name="Path 3589" d="M36.277,9.176a7.531,7.531,0,0,0-2.008-.934l-4.888.03a7.526,7.526,0,0,0-2,.958l-16.07,11.6c-.5.362-.406.659.213.659l41.188.041c.619,0,.711-.29.2-.646Z" fill="#13a0f0"/>
    <path id="Path_3590" data-name="Path 3590" d="M103.4,133.492h31.577v-1.974a3.354,3.354,0,0,0-3.345-3.342l-24.89.008a3.354,3.354,0,0,0-3.343,3.345m31.579,7.252H103.4l0,10.807a3.353,3.353,0,0,0,3.345,3.343l24.889-.008a3.354,3.354,0,0,0,3.343-3.345" transform="translate(-71.616 -92.951)" fill="#13a0f0"/>
  </g>
</svg>
