<svg xmlns="http://www.w3.org/2000/svg" xmlns:xlink="http://www.w3.org/1999/xlink" width="471.46" height="310.771" viewBox="0 0 471.46 310.771">
  <defs>
    <linearGradient id="linear-gradient" x1="0.5" y1="-0.011" x2="0.5" y2="0.996" gradientUnits="objectBoundingBox">
      <stop offset="0" stop-color="#fff"/>
      <stop offset="1" stop-color="#fff" stop-opacity="0"/>
    </linearGradient>
  </defs>
  <g id="become-coach-graphics" transform="translate(-0.025 -0.01)">
    <g id="OBJECTS" transform="translate(0.025 0.01)">
      <path id="Path_1073" data-name="Path 1073" d="M87.622,345.66s-49.366-57.529,6.249-120.139c44.82-50.5,30.513-69.989,28.44-104.023-1.749-28.8,30.905-71.4,79.8-73.524,80.128-3.482,100.05,22.267,142.594,20.443S406.489,51.683,455.9,57.562c91.7,10.892,79.306,97.8,65.971,162.75s26.79,87.138-2.1,125.392" transform="translate(-64.115 -47.65)" fill="#eee"/>
      <path id="Path_1074" data-name="Path 1074" d="M338.057,364.8H260.62l8.412-33.076,1.907-7.5,3.7-14.518h49.4l3.7,14.518,1.907,7.5Z" transform="translate(-64.187 -76.262)"/>
      <path id="Path_1075" data-name="Path 1075" d="M332.392,336.47H271.78l1.907-7.5h56.8Z" transform="translate(-66.935 -81.004)" fill="#565656"/>
      <path id="Path_1076" data-name="Path 1076" d="M419.13,438.675H282.257a5.947,5.947,0,0,1-5.947-5.947h0a5.947,5.947,0,0,1,5.947-5.947H419.13a5.947,5.947,0,0,1,5.947,5.947h0A5.947,5.947,0,0,1,419.13,438.675Z" transform="translate(-115.546 -140.997)" fill="#3b3b3b"/>
      <path id="Path_1077" data-name="Path 1077" d="M460.08,168.952V314.485a6.279,6.279,0,0,1-6.279,6.271H213.659a6.272,6.272,0,0,1-6.279-6.271V168.952a6.272,6.272,0,0,1,6.279-6.272H453.8A6.279,6.279,0,0,1,460.08,168.952Z" transform="translate(-98.575 -75.972)"/>
      <rect id="Rectangle_342" data-name="Rectangle 342" width="242.983" height="128.325" transform="translate(113.434 91.276)" fill="#0093e9"/>
      <g id="Group_152" data-name="Group 152" transform="translate(118.461 91.276)" opacity="0.3">
        <rect id="Rectangle_343" data-name="Rectangle 343" width="6.814" height="109.133" transform="translate(207.088)" fill="#eefaff"/>
        <rect id="Rectangle_344" data-name="Rectangle 344" width="6.814" height="109.133" transform="translate(224.35)" fill="#eefaff"/>
        <rect id="Rectangle_345" data-name="Rectangle 345" width="6.814" height="109.133" fill="#eefaff"/>
        <rect id="Rectangle_346" data-name="Rectangle 346" width="6.814" height="109.133" transform="translate(17.254)" fill="#eefaff"/>
        <rect id="Rectangle_347" data-name="Rectangle 347" width="6.814" height="109.133" transform="translate(34.516)" fill="#eefaff"/>
        <rect id="Rectangle_348" data-name="Rectangle 348" width="6.814" height="109.133" transform="translate(51.77)" fill="#eefaff"/>
        <rect id="Rectangle_349" data-name="Rectangle 349" width="6.814" height="109.133" transform="translate(69.032)" fill="#eefaff"/>
        <rect id="Rectangle_350" data-name="Rectangle 350" width="6.814" height="109.133" transform="translate(86.286)" fill="#eefaff"/>
        <rect id="Rectangle_351" data-name="Rectangle 351" width="6.814" height="109.133" transform="translate(103.548)" fill="#eefaff"/>
        <rect id="Rectangle_352" data-name="Rectangle 352" width="6.814" height="109.133" transform="translate(120.802)" fill="#eefaff"/>
        <rect id="Rectangle_353" data-name="Rectangle 353" width="6.814" height="109.133" transform="translate(138.064)" fill="#eefaff"/>
        <rect id="Rectangle_354" data-name="Rectangle 354" width="6.814" height="109.133" transform="translate(155.318)" fill="#eefaff"/>
        <rect id="Rectangle_355" data-name="Rectangle 355" width="6.814" height="109.133" transform="translate(172.58)" fill="#eefaff"/>
        <rect id="Rectangle_356" data-name="Rectangle 356" width="6.814" height="109.133" transform="translate(189.834)" fill="#eefaff"/>
      </g>
      <rect id="Rectangle_357" data-name="Rectangle 357" width="242.983" height="19.191" transform="translate(113.434 200.41)" fill="#0093e9"/>
      <path id="Path_1078" data-name="Path 1078" d="M373.1,359.066h0a5.842,5.842,0,0,1-5.827-5.827h0a5.842,5.842,0,0,1,5.827-5.819h0a5.842,5.842,0,0,1,5.827,5.819h0A5.842,5.842,0,0,1,373.1,359.066Z" transform="translate(-137.942 -121.457)" fill="#fff"/>
      <path id="Path_1079" data-name="Path 1079" d="M330.1,272.991H313.03l44.888-158h17.073Z" transform="translate(-77.091 -28.319)" opacity="0.2" fill="url(#linear-gradient)"/>
      <path id="Path_1080" data-name="Path 1080" d="M380.734,272.991h-36.2l44.888-158h36.2Z" transform="translate(-84.847 -28.319)" opacity="0.2" fill="url(#linear-gradient)"/>
      <path id="Path_1081" data-name="Path 1081" d="M457.761,327.509H258.384a1.884,1.884,0,1,1,0-3.769H457.761a1.884,1.884,0,1,1,0,3.769Z" transform="translate(-110.669 -115.627)" fill="#fff"/>
      <path id="Path_1082" data-name="Path 1082" d="M358.088,323.75v3.769h-99.7a1.884,1.884,0,1,1,0-3.769Z" transform="translate(-110.669 -115.629)"/>
      <circle id="Ellipse_96" data-name="Ellipse 96" cx="3.392" cy="3.392" r="3.392" transform="translate(244.072 206.613)" fill="#fff"/>
      <circle id="Ellipse_97" data-name="Ellipse 97" cx="7.568" cy="7.568" r="7.568" transform="translate(120.578 215.624) rotate(-76.72)" fill="#fff"/>
      <path id="Path_1083" data-name="Path 1083" d="M233.437,321.724l4.146,3.2a.249.249,0,0,1,0,.4l-4.146,3.2a.249.249,0,0,1-.407-.2v-6.4a.256.256,0,0,1,.407-.2Z" transform="translate(-104.89 -115.118)" fill="#0093e9"/>
      <path id="Path_1084" data-name="Path 1084" d="M90.273,400.868s-36.483-49.29-25-59.813S93.416,367.6,90.273,400.868Z" transform="translate(-63.035 -119.441)" fill="#48b2ef"/>
      <path id="Path_1085" data-name="Path 1085" d="M70.475,349.257a141.131,141.131,0,0,1,15.551,32.119q2.487,7.387,4.244,14.97c1.093,4.749,1.809,9.558,2.8,14.322a.226.226,0,0,0,.445-.06c-.754-10.033-3.543-20.254-6.784-29.752a126.283,126.283,0,0,0-15.792-31.893c-.2-.271-.648,0-.46.271Z" transform="translate(-64.856 -121.809)" fill="#fff"/>
      <path id="Path_1086" data-name="Path 1086" d="M69.2,358.2c3.083,2.186,6.03,4.681,9.128,6.784.2.128.377-.151.241-.309a29.542,29.542,0,0,0-9.143-6.867.226.226,0,0,0-.226.392Z" transform="translate(-64.526 -124.008)" fill="#fff"/>
      <path id="Path_1087" data-name="Path 1087" d="M70.693,362.122c3.083,2.186,6.03,4.673,9.128,6.784.2.136.377-.143.241-.309a29.609,29.609,0,0,0-9.174-6.867.226.226,0,0,0-.226.392Z" transform="translate(-64.885 -124.973)" fill="#fff"/>
      <path id="Path_1088" data-name="Path 1088" d="M108.841,393.2s35.172-50.225,23.45-60.446S104.823,360.038,108.841,393.2Z" transform="translate(-74.155 -117.424)" fill="#48b2ef"/>
      <path id="Path_1089" data-name="Path 1089" d="M128.242,340.8a128,128,0,0,0-15.694,34.674c-2.947,10.108-5.314,20.955-5.668,31.516,0,.249.407.317.445.06.754-5,1.281-10.018,2.186-14.993A162.691,162.691,0,0,1,113.28,376,141.54,141.54,0,0,1,128.7,341.093c.181-.294-.271-.55-.46-.264Z" transform="translate(-73.83 -119.804)" fill="#fff"/>
      <path id="Path_1090" data-name="Path 1090" d="M110.376,381.516a47.7,47.7,0,0,0,.822,12.513.2.2,0,0,0,.384-.053,56.444,56.444,0,0,0-.3-5.857c-.143-2.193-.219-4.41-.452-6.6a.226.226,0,0,0-.452,0Z" transform="translate(-74.665 -129.796)" fill="#0e7c74"/>
      <path id="Path_1091" data-name="Path 1091" d="M96.877,369.61s-35.428-50.059-23.722-60.3S100.744,336.436,96.877,369.61Z" transform="translate(-64.943 -111.649)" fill="#0093e9"/>
      <path id="Path_1092" data-name="Path 1092" d="M78.286,317.554C90.565,337.22,97.395,359.705,99.724,382.7c.467,4.613.671,9.234,1.018,13.862a.234.234,0,0,0,.46,0,138.959,138.959,0,0,0-2.427-26.677,148.353,148.353,0,0,0-9.611-33.167,122.24,122.24,0,0,0-10.425-19.433C78.558,317,78.105,317.282,78.286,317.554Z" transform="translate(-66.78 -114.008)" fill="#fff"/>
      <path id="Path_1093" data-name="Path 1093" d="M102.5,397.062s21.784-29.94,14.819-36.235S100.434,377,102.5,397.062Z" transform="translate(-72.683 -124.493)" fill="#0093e9"/>
      <path id="Path_1094" data-name="Path 1094" d="M114.405,365.563a79.148,79.148,0,0,0-11.42,26.134c-1.7,6.89-3.091,14.465-2.789,21.6a.234.234,0,0,0,.46,0c.874-7.2,1.387-14.322,3.143-21.37a88.947,88.947,0,0,1,11.066-26.051c.181-.294-.271-.55-.46-.271Z" transform="translate(-72.175 -125.904)" fill="#fff"/>
      <path id="Path_1095" data-name="Path 1095" d="M49.55,359.69l-.173,1.146-.362,2.435-3.475,23.352H24.78L21.3,363.27l-.354-2.435-.173-1.146Z" transform="translate(-5.133 -88.568)"/>
      <path id="Path_1096" data-name="Path 1096" d="M49.433,361.21l-.362,2.435H21.354L21,361.21Z" transform="translate(-5.189 -88.942)" fill="#535353"/>
      <path id="Path_1097" data-name="Path 1097" d="M112.275,409.127H82.688A1.711,1.711,0,0,1,81,407.439h0a1.719,1.719,0,0,1,1.719-1.719H112.3a1.719,1.719,0,0,1,1.719,1.719h0a1.711,1.711,0,0,1-1.749,1.688Z" transform="translate(-67.458 -135.811)"/>
      <path id="Path_1098" data-name="Path 1098" d="M131.188,294.575V310.02a1.1,1.1,0,0,1-.2.626,1.07,1.07,0,0,1-.889.46H107.414a1.086,1.086,0,0,1-.754-.294V296.489a.95.95,0,0,1,.95-.942h15.943a.95.95,0,0,0,.942-.957.95.95,0,0,1,.95-.95h4.787A.957.957,0,0,1,131.188,294.575Z" transform="translate(-73.776 -108.216)" fill="#515151"/>
      <path id="Path_1099" data-name="Path 1099" d="M129.232,311.945a1.07,1.07,0,0,1-.889.46H105.654a1.085,1.085,0,0,1-.754-.294.913.913,0,0,1-.226-.317.234.234,0,0,1-.038-.075l-5.05-11.525a.912.912,0,0,1,.837-1.274h22.493a.912.912,0,0,1,.837.535l4.771,10.832Z" transform="translate(-72.016 -109.516)"/>
      <line id="Line_7" data-name="Line 7" x2="455.197" transform="translate(7.557 298.394)" fill="none" stroke="#000" stroke-linecap="round" stroke-linejoin="round" stroke-width="2"/>
      <path id="Path_1100" data-name="Path 1100" d="M73.737,29.64h104.3a5.013,5.013,0,0,1,5.013,5.013v80.58a1.078,1.078,0,0,1-1.078,1.078H71.438a1.078,1.078,0,0,1-1.078-1.078V33.017A3.377,3.377,0,0,1,73.737,29.64Z" transform="translate(-17.342 -7.305)"/>
      <rect id="Rectangle_358" data-name="Rectangle 358" width="103.94" height="18.664" rx="2.83" transform="translate(57.45 86.135)" fill="#fff"/>
      <rect id="Rectangle_359" data-name="Rectangle 359" width="103.94" height="7.568" rx="1.8" transform="translate(57.45 75.484)" fill="#fff"/>
      <path id="Path_1101" data-name="Path 1101" d="M199.614,95.6h-59.3a1.666,1.666,0,0,1-1.673-1.673h0a1.666,1.666,0,0,1,1.673-1.666h59.3a1.666,1.666,0,0,1,1.673,1.666h0a1.666,1.666,0,0,1-1.673,1.673Z" transform="translate(-81.65 -58.633)" fill="#fff" opacity="0.31"/>
      <path id="Path_1102" data-name="Path 1102" d="M199.614,104.759h-59.3a1.666,1.666,0,0,1-1.673-1.673h0a1.666,1.666,0,0,1,1.673-1.666h59.3a1.666,1.666,0,0,1,1.673,1.666h0a1.666,1.666,0,0,1-1.673,1.673Z" transform="translate(-81.65 -60.889)" fill="#fff" opacity="0.31"/>
      <path id="Path_1103" data-name="Path 1103" d="M199.614,113.907h-59.3a1.673,1.673,0,0,1-1.673-1.673h0a1.673,1.673,0,0,1,1.673-1.673h59.3a1.673,1.673,0,0,1,1.673,1.673h0A1.673,1.673,0,0,1,199.614,113.907Z" transform="translate(-81.65 -63.139)" fill="#fff" opacity="0.31"/>
      <path id="Path_1104" data-name="Path 1104" d="M199.614,123.077h-59.3a1.673,1.673,0,0,1-1.673-1.673h0a1.673,1.673,0,0,1,1.673-1.673h59.3a1.673,1.673,0,0,1,1.673,1.673h0A1.673,1.673,0,0,1,199.614,123.077Z" transform="translate(-81.65 -65.397)" fill="#fff" opacity="0.31"/>
      <path id="Path_1105" data-name="Path 1105" d="M199.614,132.237h-59.3a1.673,1.673,0,0,1-1.673-1.673h0a1.673,1.673,0,0,1,1.673-1.673h59.3a1.673,1.673,0,0,1,1.673,1.673h0A1.673,1.673,0,0,1,199.614,132.237Z" transform="translate(-81.65 -67.652)" fill="#fff" opacity="0.31"/>
      <path id="Path_1106" data-name="Path 1106" d="M185.684,141.4h-45.37a1.666,1.666,0,0,1-1.673-1.673h0a1.666,1.666,0,0,1,1.673-1.666h45.37a1.673,1.673,0,0,1,1.673,1.666h0A1.673,1.673,0,0,1,185.684,141.4Z" transform="translate(-81.65 -69.91)" fill="#fff" opacity="0.31"/>
      <path id="Path_1107" data-name="Path 1107" d="M244.913,73.48H134.506a1.138,1.138,0,0,0-1.146,1.146v8.45H246.051v-8.45a1.131,1.131,0,0,0-1.138-1.146Z" transform="translate(-80.35 -54.009)" fill="#0093e9"/>
      <path id="Path_1108" data-name="Path 1108" d="M260,79.5a1.04,1.04,0,1,1-1.04-1.04A1.04,1.04,0,0,1,260,79.5Z" transform="translate(-111.018 -55.236)" fill="#fff"/>
      <path id="Path_1109" data-name="Path 1109" d="M266.86,79.5a1.04,1.04,0,1,1-1.04-1.04A1.04,1.04,0,0,1,266.86,79.5Z" transform="translate(-112.707 -55.236)" fill="#fff"/>
      <path id="Path_1110" data-name="Path 1110" d="M273.73,79.5a1.04,1.04,0,1,1-.313-.744,1.04,1.04,0,0,1,.313.744Z" transform="translate(-114.399 -55.236)" fill="#fff"/>
      <path id="Path_1111" data-name="Path 1111" d="M264.9,93.338V129a1.093,1.093,0,0,1-1.093,1.093h-35.3A1.093,1.093,0,0,1,227.42,129V93.338a1.085,1.085,0,0,1,1.085-1.078h35.3a1.093,1.093,0,0,1,1.093,1.078Z" transform="translate(-103.509 -58.633)" fill="#fff"/>
      <path id="Path_1112" data-name="Path 1112" d="M271.063,129.181v6.656a1.093,1.093,0,0,1-1.093,1.093H252.46l.754-7.779,8.239-9.121Z" transform="translate(-109.674 -65.471)" fill="#45b7f9"/>
      <path id="Path_1113" data-name="Path 1113" d="M260,135.722H228.505a1.093,1.093,0,0,1-1.085-1.093v-6.686L239.752,115Z" transform="translate(-103.509 -64.232)" fill="#0093e9"/>
      <path id="Path_1114" data-name="Path 1114" d="M267.729,104.429a4.342,4.342,0,1,1-1.272-3.078,4.349,4.349,0,0,1,1.272,3.078Z" transform="translate(-111.292 -60.559)" fill="#0093e9"/>
      <path id="Path_1115" data-name="Path 1115" d="M316.871,278.282l-11.782-20.217-18.732,1.508-5.111,4.658c-.656-.754-.513-.588-1.025-1.168-3.95-4.425-13.2-11.782-20.533-19.357a178.48,178.48,0,0,1-14.563-17.2l-1.508.754v-1.3l-6.6-8.812-7.99-.52-5.932,7.206.309,3.859s.1,5.947,4.741,6.543c1.395.181,4.915.852,6.03,1.613a23.013,23.013,0,0,1,7.447,8.631c5.239,10.259,12.867,24.875,20.036,37.448a15.23,15.23,0,0,0,.822,1.349c2.5,3.972,10.221,15.46,16.538,16C286.7,299.893,316.871,278.282,316.871,278.282Z" transform="translate(-102.445 -89.255)" fill="#f7b59c"/>
      <path id="Path_1116" data-name="Path 1116" d="M383.084,155.458s2.518-3.769,5.978-4.658-3.769,8.05-3.769,8.05a8.493,8.493,0,0,1-2.178.716C382.888,159.423,383.084,155.458,383.084,155.458Z" transform="translate(-141.816 -73.031)" fill="#01263a"/>
      <path id="Path_1117" data-name="Path 1117" d="M465.658,121.38s24.679,8.865-4.7,34.327l-4.425-1.349Z" transform="translate(-159.919 -65.803)"/>
      <path id="Path_1118" data-name="Path 1118" d="M385.84,207.2a48.047,48.047,0,0,0,27.513,16.644c27.34-.52,32-15.581,32-15.581l-15.272-3.369s-.46-19.938,8.013-32.232c6.339,1.221,9.317-8.789,7.538-11.473-1.892-2.917-4.018-2.533-4.018-2.533-1.8,1.952-3.437,6.55-4.244,8.819l-38.089,19.7a22.518,22.518,0,0,1,1.025,2.736,44.654,44.654,0,0,1,1.734,8.2,55.831,55.831,0,0,1,.332,7.485Zm48.853-35.428c.807-1.379,1.681-2.774,2.653-4.176a23.352,23.352,0,0,0-.754,2.563c-1.1.942-1.877,1.613-1.9,1.643Z" transform="translate(-142.514 -74.976)" fill="#f7b59c"/>
      <path id="Path_1119" data-name="Path 1119" d="M405.08,194.9a44.651,44.651,0,0,1,1.7,8.224C438.5,196.171,439.407,179,439.407,179l-16.3,6.626Z" transform="translate(-147.251 -79.99)" fill="#ed9780"/>
      <path id="Path_1120" data-name="Path 1120" d="M397.17,107.18s-6.912,12.814-2.156,21.3l11-14.247" transform="translate(-144.361 -62.307)"/>
      <path id="Path_1121" data-name="Path 1121" d="M381.216,173.009c7.3,11.54,34.094,11.307,46.659-5.277s14.623-35.511,8.337-47.172c-3.49-6.483-11.85-10.229-20.066-10.839a22.3,22.3,0,0,0-6.535.49,23.812,23.812,0,0,0-12.95,7.877c-.309.369-.6.754-.882,1.108l-1.93,2.54c-.256.332-.49.663-.716,1.018a21.858,21.858,0,0,0-2.789,5.857,20.8,20.8,0,0,0-.754,3.317,22.063,22.063,0,0,1-4.523,10.553C379.55,149.28,373.919,161.476,381.216,173.009Z" transform="translate(-140.521 -62.918)" fill="#f7b59c"/>
      <path id="Path_1122" data-name="Path 1122" d="M402.83,118.285a32.24,32.24,0,0,0,8.518,2.216c6.392.754,19.274,2.05,23.594,6.784a11.971,11.971,0,0,1,2.887,5.329c1.063,3.694-2.4-12.551-2.4-12.551L415.773,110.4a23.88,23.88,0,0,0-12.943,7.885Z" transform="translate(-146.697 -63.1)" fill="#ed9780"/>
      <path id="Path_1123" data-name="Path 1123" d="M442.288,146.64s-.06,16.727-8.91,21.151-14.9-1.033-18.943-3.92c-2.322-1.658-3.136,2.593-3.136,2.593s4.613,7.666,6.92,7.666,11.6-.121,12.309-.573,6.03-3.015,6.03-3.015,3.656-6.241,3.912-6.9,4.417-7.772,4.229-8.669-.128-6.784-.128-6.784Z" transform="translate(-148.782 -72.022)" fill="#ed9780"/>
      <path id="Path_1124" data-name="Path 1124" d="M392.71,78.049c-2.08.407-3.972,4.689-4.824,6.611a16.018,16.018,0,0,0,1.756,16.689c6.03,8.352,19.041,8.367,28.749,10.862,8.631,2.261,12.935,7.787,12.362,14.126a6.437,6.437,0,0,0,1.606,4.764l.188.219a5.2,5.2,0,0,1,1.176,4.455c-1.018,5.02-4.184,15.324-11.97,17.586-6.724,1.99-9.49-.535-10.6-1.387-3.912-2.977-6.128-6.279-13.772-10-3.972-1.937-8.246-1.673-13.824-2.487-1.033-.151-2.472-.286-2.631-1.96,0,0-12.166,14.269-3.656,29.111a15.588,15.588,0,0,0,9.852,7.425,40.332,40.332,0,0,0,26.269-2.812c18.091-8.171,24.031-26.827,26.435-32.692s8.653-21.664,4-36.182c-2.879-8.978-11.985-16.583-26.872-17.239C406.58,84.645,398.891,76.851,392.71,78.049Z" transform="translate(-139.66 -55.104)"/>
      <path id="Path_1125" data-name="Path 1125" d="M408.435,172.422a9.348,9.348,0,0,1-.754,1.153c-1.636,2.126-5.917,6.151-13.221,2.6a7.327,7.327,0,0,1-4-4.138,9.035,9.035,0,0,1,.55-6.407,58.042,58.042,0,0,0,6.392,3.505,32.51,32.51,0,0,0,10.628,3.256Z" transform="translate(-143.558 -76.698)" fill="#8d1612"/>
      <path id="Path_1126" data-name="Path 1126" d="M408.329,172.888l-.188.648-.354,1.183c-1.636,2.126-5.917,6.151-13.221,2.6a7.327,7.327,0,0,1-4-4.138,9.564,9.564,0,0,1,6.03-2.9h4.907Z" transform="translate(-143.678 -77.843)" fill="#ff4c2f"/>
      <path id="Path_1127" data-name="Path 1127" d="M391.11,165.63s-2.043,2.54-2.05,3.271c0,1.131,13.463,7.455,14.186,7.5s1.967-2.548,1.967-2.548l-5.45-3.249" transform="translate(-143.307 -76.698)" fill="#fafff7"/>
      <path id="Path_1130" data-name="Path 1130" d="M387.66,165.6s4.244,5.4,10.138,3.769c0,0,.053,4.417,9.957,5.864l.859-3.46s-6.37-3.392-6.784-3.136-6.475-1.621-7.628-1.839-5.1-3.294-5.1-3.294Z" transform="translate(-142.962 -76.174)"/>
      <path id="Path_1131" data-name="Path 1131" d="M460.114,163.183s-3.6,5.118-3.015,7.349c0,0,.136-1.3,3.445-1.274,0,0,2.133-2.977,1.063-5.2a1.334,1.334,0,0,0-1.492-.874Z" transform="translate(-160.043 -76.091)" fill="#ed9780"/>
      <path id="Path_1136" data-name="Path 1136" d="M238.577,222.056s-9.452-20.3-16.048-25.056a2.653,2.653,0,0,0-2.043,3.181c.271,2.819,4.266,6.287,4.447,8.925s-1.59,2.261-3.769,1.771-18.332-9.49-19.923-8.7.045,2.48,1.183,3.385,9.754,6.332,9.754,6.332-15.528-8.518-16.689-5.555c-.754,1.915,13.681,9.332,13.681,9.332s-12.4-6.95-12.965-4.372c-.49,2.2,10.025,7.131,10.025,7.131s-6.5-3.4-6.988-1.907c-.618,1.892,8.4,6.784,11.02,8.5s8.97,4.395,11.5,4.395,4.395-.317,5.782,1.093" transform="translate(-95.64 -84.422)" fill="#f7b59c"/>
      <path id="Path_1137" data-name="Path 1137" d="M438.988,269.417l5.216,19.3H349.461c0-4.99-.264-10.945-.656-16.825L328.452,284.38c-6.663-13.206-21.189-25.772-21.392-25.78,14.149-13.885,31.5-29.609,40.953-36.182,4.523-3.143,26.247-4.4,29.066-4.681a7.478,7.478,0,0,0,5.812-3.867s3.015,7.025,7.952,9.566c1.342.55,1.462,8.518,3.136,8.473.5,0,4.161-8.337,4.636-8.412,0,0,5.834-.987,12.279-10.7l1.153,1.575a7.432,7.432,0,0,0,4.266,2.872,107.929,107.929,0,0,1,14.955,4.673c8.126,3.279,17.073,18.845,17.073,18.845l2.013,28.644-11.94-.543Z" transform="translate(-123.117 -88.312)" fill="#fff"/>
      <path id="Path_1138" data-name="Path 1138" d="M407.5,233.76l2.254,24.212h11.684l-2.073-15.777Z" transform="translate(-100.351 -57.562)" fill="#f4f4f4"/>
      <path id="Path_1139" data-name="Path 1139" d="M445.2,228.7l10.553,28.026H424.286l-5.216-11.382" transform="translate(-103.199 -56.316)" fill="#f7b59c"/>
      <path id="Path_1140" data-name="Path 1140" d="M455.61,219.6s24.121,3.49,31.327,10.666c3.6,3.58,6.543,10.44,11.051,20.729C505.375,267.835,508.85,277,508.85,277s-18.272,12.694-36.551,8.925l-8.963-25.817Z" transform="translate(-159.692 -89.986)" fill="#fff"/>
      <ellipse id="Ellipse_98" data-name="Ellipse 98" cx="7.628" cy="6.867" rx="7.628" ry="6.867" transform="matrix(0.375, -0.927, 0.927, 0.375, 244.605, 77.235)" fill="none" stroke="#fff" stroke-miterlimit="10" stroke-width="1"/>
      <ellipse id="Ellipse_99" data-name="Ellipse 99" cx="7.628" cy="6.867" rx="7.628" ry="6.867" transform="matrix(0.375, -0.927, 0.927, 0.375, 263.193, 84.785)" fill="none" stroke="#fff" stroke-miterlimit="10" stroke-width="1"/>
      <path id="Path_1141" data-name="Path 1141" d="M408.47,146.864s4.116-.437,5.676,2.925" transform="translate(-148.086 -72.073)" fill="none" stroke="#fff" stroke-miterlimit="10" stroke-width="1"/>
      <line id="Line_8" data-name="Line 8" x2="21.121" y2="1.327" transform="translate(279.048 82.133)" fill="none" stroke="#fff" stroke-linecap="round" stroke-miterlimit="10" stroke-width="1"/>
      <path id="Path_1142" data-name="Path 1142" d="M368.267,307.259H363.1c0-4.99-.264-10.945-.656-16.825l4.191-2.344S368.387,301.937,368.267,307.259Z" transform="translate(-136.752 -106.849)" fill="#f4f4f4"/>
      <path id="Path_1144" data-name="Path 1144" d="M205.868,344.951s2.261,7.877-6.211,7.87a6.881,6.881,0,0,1-3.075-.754c-3.128-1.508-3.852-6.784-3.852-6.784,2.646-.678,1.719-4.523,1.719-4.523l9.407.219s-.467,2.457.219,3.158C205.273,345.464,205.868,344.951,205.868,344.951Z" transform="translate(-94.968 -119.817)" fill="#f7b59c"/>
      <path id="Path_1145" data-name="Path 1145" d="M185.206,345.936s-.535,6.98,6.03,6.98c5.955,0,6.03-4.628,5.586-7.176,6.784.611,14.216,3.354,18.015,6.467,4.523,5.819,7.621,14.721,7.621,14.721a35.861,35.861,0,0,1-4.221,1.621,17.456,17.456,0,0,0-3.852,1.681l-2.653,36.008h-41.6l-.709-35.971s-2.736-.656-4.945-1.379a14.322,14.322,0,0,1-4.447-2.1,75.5,75.5,0,0,1,6.264-13.433C170.116,349.8,177.269,346.886,185.206,345.936Z" transform="translate(-86.916 -121.043)" fill="#0093e9"/>
      <path id="Path_1146" data-name="Path 1146" d="M159.815,374.18s-3.965,14.028-3.6,20.729,16.221,16.071,16.221,16.071l2.073-7.071s-6.588-2.8-7.538-7.922,4.523-17.963,4.523-17.963-2.442-.716-5.782-1.628a35.013,35.013,0,0,1-5.895-2.216Z" transform="translate(-85.971 -128.046)" fill="#f7b59c"/>
      <path id="Path_1147" data-name="Path 1147" d="M237.424,374.18s3.965,14.028,3.6,20.729-16.214,16.071-16.214,16.071l-2.073-7.071s6.581-2.8,7.538-7.922-4.749-18.272-4.749-18.272,2.638-.588,5.978-1.508A48.452,48.452,0,0,0,237.424,374.18Z" transform="translate(-102.357 -128.046)" fill="#f7b59c"/>
      <path id="Path_1148" data-name="Path 1148" d="M218.179,415.717h-51.4l-1.168-32.209A1.508,1.508,0,0,1,167.118,382h50.8a1.508,1.508,0,0,1,1.508,1.508Z" transform="translate(-88.29 -129.971)" fill="#eee"/>
      <path id="Path_1149" data-name="Path 1149" d="M229.755,436.063A5.028,5.028,0,0,1,233.4,434.7c1.651-.045,6.324,1.018,8.555.98s4.523-.528,5.827,1.372c2.171,3.234,1.229,6.143-2.427,6.581-1.982.241-3.626-1.07-6.784-.754s-7.839-.754-9.226-2.9" transform="translate(-103.982 -142.945)" fill="#0093e9"/>
      <path id="Path_1150" data-name="Path 1150" d="M223.2,434.51a23.816,23.816,0,0,0,4.1.8c1.636.083,5.276-.324,6.965.754,1.794,1.123,1.131,4.183,0,4.907-1.839,1.168-3.324.565-6.686-.5a21.1,21.1,0,0,0-7.3-.656" transform="translate(-101.751 -142.9)" fill="#f7b59c"/>
      <path id="Path_1151" data-name="Path 1151" d="M209.719,436.954s-38.119-.686-48.242-2.02a48.077,48.077,0,0,1-11.623-2.849c-4.523-2.721-6.234-9.2-3.128-15.166,1.447-2.789,5.917-2.261,6.535-2.261h.241c12.362.482,23.616,3.641,36.348,8.721a146.754,146.754,0,0,0,20.895,6.694C211.37,434.919,209.719,436.954,209.719,436.954Z" transform="translate(-83.252 -138.002)" fill="#373737"/>
      <path id="Path_1152" data-name="Path 1152" d="M242.429,438.632s-1.01-.565-1.349.045a8.835,8.835,0,0,0-.347,3.573c.317.716,1.8.46,1.8.46l1.206-3.264Z" transform="translate(-106.774 -143.856)" fill="#4c4051"/>
      <path id="Path_1153" data-name="Path 1153" d="M167.1,436.114a5.276,5.276,0,0,0-3.769-1.425c-1.719-.053-6.573,1.025-8.887.98s-4.591-.55-6.068,1c-2.781,2.932-.2,6.611,3.6,7.078,2.058.256,2.668-.935,5.947-.6s8.141-.716,9.6-3.015" transform="translate(-83.76 -142.943)" fill="#0093e9"/>
      <path id="Path_1154" data-name="Path 1154" d="M175.416,434.53a24.542,24.542,0,0,1-4.259.807c-1.7.083-5.51-.347-7.236.754-1.869,1.168-1.191,4.349,0,5.1,1.9,1.221,3.445.6,6.942-.49a21.808,21.808,0,0,1,7.591-.648" transform="translate(-87.588 -142.905)" fill="#f7b59c"/>
      <path id="Path_1155" data-name="Path 1155" d="M232.265,432.006h0a47.035,47.035,0,0,1-12.287,3.083c-10.161,1.3-48.28,1.847-48.28,1.847s-1.658-2.058-.972-6.912a146.4,146.4,0,0,0,20.925-6.6c12.46-4.915,23.511-8.02,35.534-8.571,2.352.234,5.073,1.274,7,5.277C236.735,425.516,234.752,431.071,232.265,432.006Z" transform="translate(-89.509 -138.059)"/>
      <path id="Path_1156" data-name="Path 1156" d="M162.306,437s1.289-.754,1.711.06a11.231,11.231,0,0,1,.422,4.56c-.4.9-2.261.573-2.261.573l-1.508-4.161Z" transform="translate(-87.074 -143.434)" fill="#594a5f"/>
      <path id="Path_1157" data-name="Path 1157" d="M214.637,316.569s3.528-.354-.475,8.789c-1.508,3.445-2.043,3.219-2.073,3.384a3.316,3.316,0,0,1-1.349-1.726c0-.58.053-5.1.113-5.337S214.637,316.569,214.637,316.569Z" transform="translate(-99.402 -113.861)" fill="#2c1e56"/>
      <path id="Path_1158" data-name="Path 1158" d="M187.672,319.338s-2.736-.754-1.628,4.689a10.621,10.621,0,0,0,2.714,5.39,3.317,3.317,0,0,0,1.349-1.726c0-.58-.06-5.1-.113-5.337S187.672,319.338,187.672,319.338Z" transform="translate(-93.256 -114.534)" fill="#2c1e56"/>
      <path id="Path_1159" data-name="Path 1159" d="M188.768,328.268s-1.161-1.123-1.508.377.889,5.367,2.427,3.874" transform="translate(-93.607 -116.642)" fill="#e5a18c"/>
      <path id="Path_1160" data-name="Path 1160" d="M212.7,328.268s1.161-1.123,1.508.377-.882,5.367-2.427,3.874" transform="translate(-99.658 -116.642)" fill="#e5a18c"/>
      <path id="Path_1161" data-name="Path 1161" d="M198.484,338.539h-.09c-1.07.068-10.643.158-9.437-17.239H207.2S209.406,337.5,198.484,338.539Z" transform="translate(-94.013 -115.026)" fill="#f7b59c"/>
      <path id="Path_1162" data-name="Path 1162" d="M203.154,308.263a6.535,6.535,0,0,1,3.957,8.8c-1.7,3.437-7.161,5.435-13.267,4.131-3.588-.754-4.749-2.209-6.9-2.1a3.769,3.769,0,0,1-3.769-2.487c-.754-2.111-1.251-4.967.942-6.671C190.1,311.655,198,306.74,203.154,308.263Z" transform="translate(-92.456 -111.743)" fill="#2c1e56"/>
      <path id="Path_1163" data-name="Path 1163" d="M203,401.919a3.309,3.309,0,1,1-3.309-3.309A3.309,3.309,0,0,1,203,401.919Z" transform="translate(-95.866 -134.061)" fill="#0093e9"/>
      <path id="Path_1164" data-name="Path 1164" d="M195.2,342.238a7.6,7.6,0,0,0,1.364.671,8.006,8.006,0,0,0,3.2.528,9.153,9.153,0,0,0,1.734-.249,11.055,11.055,0,0,0,1.47-.445,10.542,10.542,0,0,0,1.387-.633,6.287,6.287,0,0,1-1.274.867,8.562,8.562,0,0,1-1.508.611,7.9,7.9,0,0,1-1.809.309,6.716,6.716,0,0,1-1.847-.181,6.919,6.919,0,0,1-1.508-.573,5.073,5.073,0,0,1-1.214-.9Z" transform="translate(-95.576 -120.15)" fill="#eaa18b"/>
      <path id="Path_1173" data-name="Path 1173" d="M457.4,417.75V349.909a.287.287,0,0,0-.279-.279h-1.643a.286.286,0,0,0-.279.279V417.75a.957.957,0,0,0-.754.927.98.98,0,0,0,.972.98h1.764a.98.98,0,0,0,.972-.98.957.957,0,0,0-.754-.927Z" transform="translate(-159.407 -122.001)" fill="#fff"/>
      <path id="Path_1174" data-name="Path 1174" d="M636.108,417.737h-.075V349.58h-2.193v68.157h-.068a.7.7,0,0,0-.7.7v.55a.7.7,0,0,0,.7.7h2.307a.7.7,0,0,0,.693-.7v-.55A.7.7,0,0,0,636.108,417.737Z" transform="translate(-203.385 -121.989)" fill="#fff"/>
      <path id="Path_1175" data-name="Path 1175" d="M602.53,349.146h-173.2a2.043,2.043,0,0,1-2.043-2.043h0a2.043,2.043,0,0,1,2.043-2.043h173.2a2.043,2.043,0,0,1,2.043,2.043h0A2.043,2.043,0,0,1,602.53,349.146Z" transform="translate(-152.719 -120.876)" fill="#0093e9"/>
      <path id="Path_1176" data-name="Path 1176" d="M532.9,330.855H482.91l-9.9-31.109a2.427,2.427,0,0,1,2.314-3.166h44.9a2.427,2.427,0,0,1,2.314,1.688Z" transform="translate(-163.948 -108.94)"/>
      <path id="Path_1177" data-name="Path 1177" d="M532.441,331.34H485.1l-9.95-31.6a.912.912,0,0,1,.859-1.191H521.36a1.025,1.025,0,0,1,.98.754Z" transform="translate(-164.491 -109.425)" fill="#fff"/>
      <path id="Path_1178" data-name="Path 1178" d="M504.275,304.7H482.468a.588.588,0,0,1-.588-.588h0a.588.588,0,0,1,.588-.588h21.807a.588.588,0,0,1,.588.588h0A.588.588,0,0,1,504.275,304.7Z" transform="translate(-166.16 -110.648)" fill="#c2e0f2"/>
      <path id="Path_1179" data-name="Path 1179" d="M507.935,308.3H483.618a.58.58,0,0,1-.588-.588h0a.588.588,0,0,1,.588-.588h24.317a.588.588,0,0,1,.588.588h0a.58.58,0,0,1-.588.588Z" transform="translate(-166.443 -111.535)" fill="#c2e0f2"/>
      <path id="Path_1180" data-name="Path 1180" d="M505.974,311.906H484.808a.58.58,0,0,1-.588-.588h0a.581.581,0,0,1,.588-.588h21.174a.588.588,0,0,1,.588.588h0a.588.588,0,0,1-.6.588Z" transform="translate(-166.736 -112.423)" fill="#c2e0f2"/>
      <path id="Path_1181" data-name="Path 1181" d="M502.725,315.516H485.938a.588.588,0,0,1-.588-.588h0a.588.588,0,0,1,.588-.588h16.787a.588.588,0,0,1,.588.588h0A.588.588,0,0,1,502.725,315.516Z" transform="translate(-167.015 -113.312)" fill="#c2e0f2"/>
      <path id="Path_1182" data-name="Path 1182" d="M511.435,319.126H487.118a.588.588,0,0,1-.588-.588h0a.588.588,0,0,1,.588-.588h24.317a.588.588,0,0,1,.588.588h0A.588.588,0,0,1,511.435,319.126Z" transform="translate(-167.305 -114.201)" fill="#c2e0f2"/>
      <path id="Path_1183" data-name="Path 1183" d="M509.449,322.733H488.268a.588.588,0,0,1-.588-.6h0a.588.588,0,0,1,.588-.588h21.181a.588.588,0,0,1,.588.588h0a.588.588,0,0,1-.588.6Z" transform="translate(-167.588 -115.088)" fill="#c2e0f2"/>
      <path id="Path_1184" data-name="Path 1184" d="M514.872,329.946H490.578a.588.588,0,0,1-.588-.588h0a.588.588,0,0,1,.588-.588h24.295a.588.588,0,0,1,.588.588h0A.588.588,0,0,1,514.872,329.946Z" transform="translate(-168.157 -116.865)" fill="#c2e0f2"/>
      <path id="Path_1185" data-name="Path 1185" d="M516.065,333.556H491.748a.588.588,0,0,1-.588-.588h0a.588.588,0,0,1,.588-.588h24.317a.588.588,0,0,1,.588.588h0A.588.588,0,0,1,516.065,333.556Z" transform="translate(-168.445 -117.754)" fill="#c2e0f2"/>
      <path id="Path_1186" data-name="Path 1186" d="M536.1,326.073h-7.854a1.673,1.673,0,0,1-1.6-1.176l-6.55-20.721a1.681,1.681,0,0,1,1.605-2.186h7.854a1.674,1.674,0,0,1,1.6,1.176l6.55,20.691a1.681,1.681,0,0,1-1.606,2.216Z" transform="translate(-175.55 -110.272)" fill="#c2e0f2"/>
      <path id="Path_1187" data-name="Path 1187" d="M539.779,344.009H485.416a1.606,1.606,0,0,1-1.606-1.606h0a1.605,1.605,0,0,1,1.606-1.613h54.363a1.606,1.606,0,0,1,1.606,1.613h0A1.605,1.605,0,0,1,539.779,344.009Z" transform="translate(-166.635 -119.825)"/>
      <path id="Path_1188" data-name="Path 1188" d="M564.318,287.472a1.206,1.206,0,0,1-1.033-.6L561.71,284.1a1.183,1.183,0,0,1-.106-.92,1.168,1.168,0,0,1,.581-.754l4.387-2.314a1.191,1.191,0,0,1,1.6.482l1.508,2.744a1.154,1.154,0,0,1,.1.9,1.191,1.191,0,0,1-.573.709l-4.3,2.337a1.169,1.169,0,0,1-.58.181Zm2.8-6.912a.611.611,0,0,0-.294.075l-4.387,2.314a.633.633,0,0,0-.256.882h0l1.575,2.774a.641.641,0,0,0,.859.241l4.312-2.337a.656.656,0,0,0,.309-.384.671.671,0,0,0-.053-.482l-1.508-2.751A.641.641,0,0,0,567.122,280.56Z" transform="translate(-185.777 -104.852)" fill="#1a1a47"/>
      <path id="Path_1189" data-name="Path 1189" d="M550.059,319.883c-.354.445-.633.754-.633.754a21.828,21.828,0,0,0-3.377-2.186,9.958,9.958,0,0,0-3.181.445c-1.44.294-.844-.874-.844-.874s-.965.339-1.809.678c-.965.392-1.975,1.2-2.261,1.274-.558.128-1.093-.143-.58-.92a27.069,27.069,0,0,1,5.043-4.681c1.1-.52,2.593-1.281,3.769-.837a44.072,44.072,0,0,1,5.1,3.369A4.72,4.72,0,0,1,550.059,319.883Z" transform="translate(-179.772 -113.081)" fill="#f7b59c"/>
      <path id="Path_1190" data-name="Path 1190" d="M552.89,318.6s12.935,11.307,22.614,12.46,25.991-17.209,25.991-17.209-1.025-9.8-7.055-8.623-14.133,15.634-17.631,16.342-21.724-7.04-21.724-7.04a4.676,4.676,0,0,0-1.131,1.387A12.341,12.341,0,0,0,552.89,318.6Z" transform="translate(-183.644 -111.045)" fill="#0093e9"/>
      <path id="Path_1191" data-name="Path 1191" d="M583.959,263.17c-3.083-3.528-7.643-3.912-11.164-3.52a11.654,11.654,0,0,0-9.943,8.081,10.335,10.335,0,0,0,.211,6.648c2.872,7.93,5.917,12.3,8.292,14.45,1.033.942,3.211-.339,5.4-1.108a.6.6,0,0,1,.754.286l1.244,2.3,9.045-1.839a31.332,31.332,0,0,1-1.9-5.224C587.012,281.743,589.628,269.63,583.959,263.17Z" transform="translate(-185.986 -99.817)" fill="#f7b59c"/>
      <path id="Path_1192" data-name="Path 1192" d="M566.683,273.691a2.322,2.322,0,0,1,2.359,1.379c.663,1.59,1.7,3.814,2.5,4.523a.806.806,0,0,0,.889,0,.679.679,0,0,0,.407-.686,18.591,18.591,0,0,0-.935-3.166,2.126,2.126,0,0,1,1.6-2.947,3.656,3.656,0,0,1,1.319.083c2.4.754.754,4.523.7,6.452,0,1.387,1.621,4.6,2.359,4.885a7.544,7.544,0,0,0,8-2.3c1.967-2.389,2.359-10.395,1.3-15.181s-4.885-7.485-6.151-7.794a4.478,4.478,0,0,0-1.508-.113,1.4,1.4,0,0,1-1.055-.347c-1.274-1.108-5.088-3.641-11.111-1.04a13.953,13.953,0,0,0-8.646,13.327c.083,2.05,1.688,1.9,2.8,1.508a1.862,1.862,0,0,1,1.764.384A4.523,4.523,0,0,0,566.683,273.691Z" transform="translate(-185.075 -99.023)" fill="#0b0b3a"/>
      <path id="Path_1193" data-name="Path 1193" d="M581.815,300.3s-.8-.889-.5-1.44c.377-.678,4.462-3.9,9.234-3.769.754,0,1.643,0,2.533,1.96a14.091,14.091,0,0,1,1.093,3.249Z" transform="translate(-190.626 -108.571)" fill="#0093e9"/>
      <path id="Path_1194" data-name="Path 1194" d="M597.872,358.863c-.294.075-.6.143-.935.2a80.653,80.653,0,0,1-10.628.844c-12.973-.234-18.739-7.229-20.842-10.839a13.067,13.067,0,0,1-1.04-2.118,11.9,11.9,0,0,0,4.312-5.962c.98-3.219-.045-10.892-1.726-13.817-.92-1.606-3.648-4.862-5.367-8.292-1.4-2.827-2.133-5.766-.6-8.013a28.894,28.894,0,0,1,9.8-8.586s11.043-4.425,20.45-3.422c5.97.626,11.307,3.437,12.7,10.953C607.694,329.156,597.872,358.863,597.872,358.863Z" transform="translate(-185.441 -109.465)"/>
      <path id="Path_1195" data-name="Path 1195" d="M572.257,428.572a4.281,4.281,0,0,1-2.329,1.319,4.146,4.146,0,0,1-2.714-.505l-.754-2.08,4.982-1.085Z" transform="translate(-186.985 -140.859)" fill="#f7b59c"/>
      <path id="Path_1196" data-name="Path 1196" d="M537.738,432.053a4.259,4.259,0,0,1-2.51.935,4.138,4.138,0,0,1-2.6-.935l-.377-2.163h5.088Z" transform="translate(-178.562 -141.762)" fill="#f7b59c"/>
      <path id="Path_1197" data-name="Path 1197" d="M568.383,414.253c-.324.151-1.319.558-1.681.686a46.117,46.117,0,0,1-4.523,1.176c-4.281-9.256-11.262-32.541-11.262-32.541-.972-4.116,1.952-5.782,4.523-5.94a5.375,5.375,0,0,1,2.367.347c2.465,1.04,6.075,8,6.075,8a43.439,43.439,0,0,1,2.261,7.38C567.245,398.318,568.383,414.253,568.383,414.253Z" transform="translate(-183.111 -128.892)" fill="#0093e9"/>
      <path id="Path_1198" data-name="Path 1198" d="M571.345,375c0,2.337-.648,6.076-4.153,7.131-5.276,1.568-9.106.671-15.174-.377-5.081-.867-13.108-3.844-15.566-4.779-.324-.121-.264.038-.2.377,1.161,5.668-.754,36.325-.754,36.325a14.252,14.252,0,0,1-1.726.4,6.689,6.689,0,0,1-1,.09c-1.319,0-3.769-.249-3.769-.249s-4.621-21.619-5.352-33.679,0-13.945,5.729-15.935c6.377-2.224,25.991-1.628,25.991-1.628h0a18.641,18.641,0,0,0,5.525,7.4A23.367,23.367,0,0,0,571.345,375Z" transform="translate(-176.387 -125.196)" fill="#0093e9"/>
      <path id="Path_1199" data-name="Path 1199" d="M593.54,395.34v31.018a2.005,2.005,0,0,1-2.005,2.005,1.96,1.96,0,0,1-1.183-.392,1.99,1.99,0,0,1-.822-1.613V395.34Z" transform="translate(-192.665 -133.256)" fill="#cbcbcb"/>
      <path id="Path_1200" data-name="Path 1200" d="M593.8,397.13v29.586a2.141,2.141,0,0,1-1.726,2.065,1.982,1.982,0,0,1-1.281-.249c-.06-.121-.136-.256-.2-.377v-30.2a.822.822,0,0,1,.822-.822Z" transform="translate(-192.926 -133.696)" fill="#e5e5e5"/>
      <path id="Path_1201" data-name="Path 1201" d="M595.132,393.436a1.506,1.506,0,0,1-.06.422,1.682,1.682,0,0,1-.445.792,1.711,1.711,0,0,1-1.221.513h-5.97a1.726,1.726,0,0,1,0-3.452H593.4a1.718,1.718,0,0,1,1.734,1.726Z" transform="translate(-191.724 -132.362)" fill="#cbcbcb"/>
      <path id="Path_1202" data-name="Path 1202" d="M595.722,394.52a1.681,1.681,0,0,1-.445.791,1.711,1.711,0,0,1-1.221.513H588.35a1.711,1.711,0,0,1,.445-.8,1.749,1.749,0,0,1,1.229-.505Z" transform="translate(-192.374 -133.054)" fill="#e6e6e6"/>
      <path id="Path_1203" data-name="Path 1203" d="M607.256,321.013v.045a3.209,3.209,0,0,1-.106.6c-.49,2.02-2.2,5.985-2.442,11.925-.166,3.648,0,13.334-.181,19.191h0c0,.874-.06,1.658-.1,2.329-.317,5.186-2.081,12.867-7.493,16.749-5.5,4.131-16.583,3.415-23.254,3.264s-23.367-3.189-24.671-5.653a2.186,2.186,0,0,1-.317-1.432h0a1.726,1.726,0,0,1,.513-.95,2.585,2.585,0,0,1,2.45-.611c2.714.678,10.772,2.261,14.4-2.367,4.387-5.57,3.837-12.008,5.721-25.568,1.779-12.814,5.782-16.772,12.407-19.327,7.078-2.729,18.453-1.56,21.3-.7A2.427,2.427,0,0,1,607.256,321.013Z" transform="translate(-182.607 -114.091)" fill="#fff"/>
      <path id="Path_1204" data-name="Path 1204" d="M607.823,440.127a.754.754,0,0,1-.754.754H562.114a.761.761,0,0,1-.143-1.508l22.614-3.663,5.684.92,16.915,2.744A.754.754,0,0,1,607.823,440.127Z" transform="translate(-185.729 -143.195)" fill="#e5e5e5"/>
      <path id="Path_1205" data-name="Path 1205" d="M528.8,432.76a8.2,8.2,0,0,0,2.586.543,6.143,6.143,0,0,0,2.54-.543s2.616,3.339,1.229,7.055a.505.505,0,0,1-.475.324H517.112a.392.392,0,0,1-.392-.384,1.462,1.462,0,0,1,1.229-1.447c1.628-.5,3.3-.754,4.523-1.214s3.06-2.261,4.063-2.631A5.472,5.472,0,0,0,528.8,432.76Z" transform="translate(-174.738 -142.469)" fill="#1a1a47"/>
      <path id="Path_1206" data-name="Path 1206" d="M563.911,430.154a8.229,8.229,0,0,0,2.638.121,6.2,6.2,0,0,0,2.427-.935s3.113,2.879,2.329,6.784a.5.5,0,0,1-.415.392s-9.272,2.08-12.407,2.525a43.847,43.847,0,0,1-4.937.279.422.422,0,0,1-.452-.332,1.462,1.462,0,0,1,.987-1.621c1.508-.754,3.128-1.289,4.3-1.922s2.653-2.751,3.6-3.241a5.48,5.48,0,0,0,1.937-2.05Z" transform="translate(-183.689 -141.627)" fill="#1a1a47"/>
      <path id="Path_1207" data-name="Path 1207" d="M515.522,340.564s-1.8-.754-2.744-1.078a8.847,8.847,0,0,0-1.018-.294,5.227,5.227,0,0,0-1.236-.136H500.288a.535.535,0,0,1-.528-.543,1.153,1.153,0,0,1,.528-.98l1.1-.709,3.279-2.126a6.47,6.47,0,0,1,4.741-.942,16.505,16.505,0,0,1,2.013.709c1.922.633,2.337.92,3.611,1.372a8.158,8.158,0,0,0,1.07.324,1.093,1.093,0,0,0,.445.045,6.173,6.173,0,0,1-1.025,4.357Z" transform="translate(-170.562 -118.076)" fill="#f7b59c"/>
      <path id="Path_1208" data-name="Path 1208" d="M560.589,310.073c-1.342-.814-5.4-3.068-10.628,5.088s-6.837,11.631-8.344,14.164c-1.832,1.1-20.262.633-20.262.633a16.678,16.678,0,0,0-1.334,4.568,67.154,67.154,0,0,0,22.779,5.782c10.063,0,20.428-19.659,20.895-22.116S563.792,312.055,560.589,310.073Z" transform="translate(-175.551 -112.037)"/>
      <path id="Path_1209" data-name="Path 1209" d="M562.5,285.292a.279.279,0,0,1-.249-.143.271.271,0,0,1,.121-.369l10.191-5.224c1.153-.588,3.513-1.8,5.277.754a.279.279,0,0,1-.075.384.271.271,0,0,1-.377-.075c-1.372-2.005-3.015-1.395-4.523-.6l-10.214,5.231A.241.241,0,0,1,562.5,285.292Z" transform="translate(-185.941 -104.549)" fill="#1a1a47"/>
      <path id="Path_1210" data-name="Path 1210" d="M575.91,279.9l1.342,4.3a1.372,1.372,0,0,0,2.058-.151c1.01-1.161,1.885-5.194.038-5.864A2.431,2.431,0,0,0,575.91,279.9Z" transform="translate(-189.312 -104.355)" fill="#f7b59c"/>
      <path id="Path_1211" data-name="Path 1211" d="M606.852,319.5a2.5,2.5,0,0,0-1.334-.965c-2.849-.859-14.224-2.028-21.3.7-6.626,2.555-10.628,6.49-12.407,19.327-1.884,13.568-1.334,20-5.721,25.568-3.633,4.6-11.691,3.015-14.4,2.367a2.585,2.585,0,0,0-2.45.611,1.764,1.764,0,0,0-.528.965,2.187,2.187,0,0,0,.317,1.432c1.334,2.465,17.955,5.488,24.671,5.653s17.759.867,23.254-3.264c5.412-3.882,7.176-11.563,7.493-16.749,0-.671.068-1.455.1-2.329-.121.475-3.829,10.945-16.915,8.533-12.6-2.322-13.742-16.146-13.289-20.8.06-.505.113-.995.173-1.447.113-.867.807-4.523,1.666-7.7a15.438,15.438,0,0,1,4.952-7.7,8.1,8.1,0,0,1,1.206-.754c.12-.075.264-.151.407-.226s.392-.2.618-.3l.656-.286c.158-.068.332-.136.5-.188,10.236-4.055,21.242-1.417,21.965-1.3S606.9,319.686,606.852,319.5Z" transform="translate(-182.609 -114.098)" fill="#cbcbcb" opacity="0.5"/>
      <path id="Path_1212" data-name="Path 1212" d="M255.76,451.2l1.123-3.015s17.82.844,26.269,6.106l-16.078.3Z" transform="translate(-110.486 -146.265)" fill="#e1efff"/>
      <path id="Path_1213" data-name="Path 1213" d="M319.485,451.2l-1.123-3.015s-17.82.844-26.262,6.106l16.071.3Z" transform="translate(-119.434 -146.265)" fill="#e1efff"/>
      <path id="Path_1214" data-name="Path 1214" d="M282.852,455c-9.656-3.769-28.312-4.01-28.312-4.01v6.354h56.617V451S292.5,451.246,282.852,455Z" transform="translate(-110.186 -146.957)" fill="#cce1ff"/>
      <rect id="Rectangle_360" data-name="Rectangle 360" width="60.989" height="2.156" transform="translate(142.168 308.616)" fill="#7878ff"/>
      <path id="Path_1215" data-name="Path 1215" d="M496.92,143.133l5.367-3.528a7.161,7.161,0,0,0,3.867,1.138h25.885a7.191,7.191,0,0,0,7.191-7.191v-8.141a7.191,7.191,0,0,0-7.191-7.191H506.154a7.191,7.191,0,0,0-7.191,7.191v8.141a7.2,7.2,0,0,0,1.236,4.032Zm9.219-6.988a.641.641,0,0,1,.641-.641h24.875a.648.648,0,1,1,0,1.289H506.78a.641.641,0,0,1-.641-.648Zm25.523-2.714H518.516a.648.648,0,0,1-.641-.648.641.641,0,0,1,.641-.641h13.139a.648.648,0,1,1,0,1.289Zm-25.523-4.07a.648.648,0,0,1,.641-.648h24.875a.648.648,0,1,1,0,1.289H506.78a.641.641,0,0,1-.641-.641Zm25.516-2.7H513.307a.648.648,0,0,1,0-1.289h18.347a.648.648,0,1,1,0,1.289Zm-25.523-4.01a.641.641,0,0,1,.641-.641h24.875a.648.648,0,1,1,0,1.289H506.78a.648.648,0,0,1-.641-.648Z" transform="translate(-169.863 -65.025)" fill="#0093e9"/>
      <line id="Line_9" data-name="Line 9" x1="4.523" transform="translate(99.3 143.348)" fill="none" stroke="#000" stroke-linecap="round" stroke-miterlimit="10" stroke-width="1"/>
      <path id="Path_1216" data-name="Path 1216" d="M179.339,237.82h-29.1a3.015,3.015,0,0,0-3.015,3.015V355.984a3.075,3.075,0,0,0,.188,1.055" transform="translate(-83.762 -94.472)" fill="none" stroke="#000" stroke-linecap="round" stroke-miterlimit="10" stroke-width="1" stroke-dasharray="11.86 4.94"/>
      <path id="Path_1217" data-name="Path 1217" d="M149,397.9a3.016,3.016,0,0,0,1.711.528h2.706" transform="translate(-84.201 -133.886)" fill="none" stroke="#9acee2" stroke-linecap="round" stroke-miterlimit="10" stroke-width="1"/>
      <line id="Line_10" data-name="Line 10" x2="4.523" transform="translate(366.389 104.799)" fill="none" stroke="#000" stroke-linecap="round" stroke-miterlimit="10" stroke-width="1"/>
      <path id="Path_1218" data-name="Path 1218" d="M560,186.68h63.243a5.329,5.329,0,0,1,5.329,5.329v93.341a5.337,5.337,0,0,1-5.329,5.337h-1.779" transform="translate(-185.394 -81.881)" fill="none" stroke="#000" stroke-linecap="round" stroke-miterlimit="10" stroke-width="1" stroke-dasharray="11.84 4.93"/>
      <line id="Line_11" data-name="Line 11" x1="4.523" transform="translate(429.715 208.807)" fill="none" stroke="#9acee2" stroke-linecap="round" stroke-miterlimit="10" stroke-width="1"/>
      <path id="Path_1219" data-name="Path 1219" d="M288.87,92.26h43.064a8.721,8.721,0,0,1,8.714,8.714v41.119" transform="translate(-118.639 -58.633)" fill="none" stroke="#000" stroke-linecap="round" stroke-miterlimit="10" stroke-width="1" stroke-dasharray="12 5"/>
      <path id="Path_1220" data-name="Path 1220" d="M461.541,331.679a13.894,13.894,0,0,1-6.091-8.669s4.711.972,7.071,8.669" transform="translate(-159.653 -115.447)" fill="#fff"/>
      <path id="Path_1221" data-name="Path 1221" d="M465.818,331.679a13.867,13.867,0,0,0,6.083-8.669s-4.7.972-7.07,8.669" transform="translate(-161.962 -115.447)" fill="#fff"/>
      <path id="Path_1222" data-name="Path 1222" d="M463.246,330.532a13.879,13.879,0,0,1-2.54-10.282s4.04,2.608,3.46,10.636" transform="translate(-160.899 -114.767)" fill="#fff"/>
      <path id="Path_1223" data-name="Path 1223" d="M465.352,330.542a13.906,13.906,0,0,0,2.3-10.342s-3.972,2.7-3.2,10.719" transform="translate(-161.844 -114.755)" fill="#fff"/>
      <rect id="Rectangle_361" data-name="Rectangle 361" width="10.892" height="9.113" transform="translate(297.305 215.071)" fill="#cfe3ff"/>
      <rect id="Rectangle_362" data-name="Rectangle 362" width="3.241" height="9.113" transform="translate(297.305 215.071)" fill="#94c1f7" opacity="0.5"/>
      <g id="Group_153" data-name="Group 153" transform="translate(403.038 141.893)">
        <path id="Path_1224" data-name="Path 1224" d="M540.46,211.7l-4.93,2.631,2.465-6.407" transform="translate(-534.912 -193.093)" fill="#0093e9"/>
        <path id="Path_1225" data-name="Path 1225" d="M618.555,246.3a10.417,10.417,0,1,1-10.415-10.41,10.417,10.417,0,0,1,10.415,10.41Z" transform="translate(-597.72 -235.89)" fill="#0093e9"/>
      </g>
      <path id="Path_1226" data-name="Path 1226" d="M542.72,200.112l3.158,3.935,5.608-5.887" transform="translate(-133.644 -48.797)" fill="none" stroke="#fff" stroke-linecap="round" stroke-linejoin="round" stroke-width="1.38"/>
      <g id="Group_154" data-name="Group 154" transform="translate(70.144 176.122)" opacity="0.5">
        <path id="Path_1227" data-name="Path 1227" d="M113.36,257.106l4.93,2.631-2.465-6.407" transform="translate(-98.073 -238.503)" fill="#389fe5"/>
        <path id="Path_1228" data-name="Path 1228" d="M156.09,291.71A10.417,10.417,0,1,0,166.5,281.3a10.417,10.417,0,0,0-10.412,10.41Z" transform="translate(-156.09 -281.3)" fill="#389fe5"/>
      </g>
      <path id="Path_1229" data-name="Path 1229" d="M101.08,245.522l3.158,3.935,5.608-5.887" transform="translate(-24.906 -59.977)" fill="none" stroke="#fff" stroke-linecap="round" stroke-linejoin="round" stroke-width="1.38"/>
      <rect id="Rectangle_363" data-name="Rectangle 363" width="43.124" height="43.644" rx="1.77" transform="translate(375.525 53.7)"/>
      <g id="Group_158" data-name="Group 158" transform="translate(383.46 57.85)">
        <path id="Path_1230" data-name="Path 1230" d="M596.594,140.745a12.345,12.345,0,0,1-1.123,5.171,12.055,12.055,0,0,1-1.266,2.178,12.341,12.341,0,0,1-1.116,1.312h0a11.832,11.832,0,0,1-1.07.98,12.348,12.348,0,0,1-1.779,1.214,10.835,10.835,0,0,1-1.508.754,12.015,12.015,0,0,1-3.769.837h-.754a12.453,12.453,0,0,1-2.864-24.573h.113a10.327,10.327,0,0,1,1.206-.219,12.984,12.984,0,0,1,1.545-.1,12.445,12.445,0,0,1,10.9,6.558c.136.256.271.528.392.807A12.392,12.392,0,0,1,596.594,140.745Z" transform="translate(-571.746 -125.356)" fill="#d5d5d5"/>
        <g id="Group_155" data-name="Group 155" transform="translate(1.035 3.207)" opacity="0.5">
          <path id="Path_1231" data-name="Path 1231" d="M587.615,151.859c.09.626-.671,1-1.281,1.146-.362.083-.754.173-1.093.249h-.754a12.377,12.377,0,0,1-7.839-2.781,2.393,2.393,0,0,1,0-.324,5.69,5.69,0,0,1,.271-1.41,7.065,7.065,0,0,0,.166-1.191.6.6,0,0,0-.09-.415.843.843,0,0,0-.332-.188,1.613,1.613,0,0,1-.935-1.847c.6-1.508,2.729-1,1.327-4.719-.3-.791.339-1,.286-1.221-.121-.49-1.96-.354-2.465-.437a1.711,1.711,0,0,1-.935-.309,1.265,1.265,0,0,1-.324-.513,6.785,6.785,0,0,1-.5-2.1,12.453,12.453,0,0,1,8.653-7.153l.038.407c-.128,1.417-.219,2.827-.271,4.244a2.217,2.217,0,0,1-.106.754,1.312,1.312,0,0,1-1.364.7,1,1,0,0,0-.6,0c-.286.166-.219.588-.256.92-.083.558-.588.95-.927,1.41s-.482,1.229,0,1.508c.121.068.286.1.354.226a.413.413,0,0,1-.2.49,1.905,1.905,0,0,0-.482.317c-.249.294-.068.754.211,1.018a8.212,8.212,0,0,1,.889.754c.3.377.369.912.709,1.251.814.844,2.5-.038,3.324.8.43.422.43,1.138.807,1.606a3.913,3.913,0,0,0,.912.686,2.954,2.954,0,0,1,1.229,2.224c.06.935-.294,2.028.354,2.714C586.786,151.1,587.532,151.271,587.615,151.859Z" transform="translate(-573.12 -128.65)" fill="#81a8cc"/>
        </g>
        <g id="Group_156" data-name="Group 156" transform="translate(10.465 2.913)" opacity="0.5">
          <path id="Path_1232" data-name="Path 1232" d="M598.52,134.848a4.2,4.2,0,0,0-.626.053.324.324,0,0,0-.211.1c-.09.09-.068.234-.06.354a1.394,1.394,0,0,1-.467,1.093.5.5,0,0,1-.211.121c-.234.038-.392-.234-.475-.46-.234-.6-.46-1.191-.686-1.794a1.032,1.032,0,0,0-.3-.49c-.271-.211-.693-.121-.987-.309s-.535-.837-.942-.754-.339.55-.234.874.234.754,0,.957-.709,0-.92-.294-.377-.663-.754-.791c-.482-.181-.98.256-1.251.709s-.505.972-.995,1.146a4.652,4.652,0,0,0-.754.2c-.46.256-.445.92-.286,1.425a2.088,2.088,0,0,1,.158,1.508.384.384,0,0,1-.2.219c-.2.075-.407-.121-.543-.286a18.677,18.677,0,0,1-1.952-3.083,1.281,1.281,0,0,1-.188-.678,2.87,2.87,0,0,1,.143-.43,8.294,8.294,0,0,0,.083-1.56c.106-.882.829-1.711.543-2.548a5.638,5.638,0,0,0-.475-.859.754.754,0,0,1,.053-.9,12.957,12.957,0,0,1,1.508-.1A12.43,12.43,0,0,1,598.52,134.848Z" transform="translate(-585.63 -128.26)" fill="#fff"/>
        </g>
        <g id="Group_157" data-name="Group 157" transform="translate(17.106 10.255)" opacity="0.5">
          <path id="Path_1233" data-name="Path 1233" d="M602.181,143.133a12.317,12.317,0,0,1-2.4,7.349h0a.526.526,0,0,1,0-.241,2.26,2.26,0,0,1,.166-.889c.09-.166.219-.309.317-.475a2.481,2.481,0,0,0,.136-1.41,1.161,1.161,0,0,0-.241-.754c-.113-.113-.271-.181-.384-.3-.271-.279-.188-.754-.128-1.116s0-.874-.332-1.018a12.983,12.983,0,0,1-1.462,1.688.656.656,0,0,0-.829-.663.942.942,0,0,0-.588,1c-.362,0-.437-.505-.392-.859.09-.611.173-1.214.256-1.824-.4-.173-.686.46-1.108.55a.671.671,0,0,1-.754-.633,1.96,1.96,0,0,1,.286-1.033c.188-.384.377-.754.558-1.146a2.577,2.577,0,0,1,1.01-1.266,2.819,2.819,0,0,1,1.952.068,1.982,1.982,0,0,0,1.892-.241,2.072,2.072,0,0,0,.452-1.07c.068-.332.166-.716.475-.852h0a12.248,12.248,0,0,1,1.116,5.133Z" transform="translate(-594.44 -138)" fill="#fff"/>
        </g>
        <path id="Path_1234" data-name="Path 1234" d="M593.639,148.843c-.173.2-.362.407-.55.6h0a11.847,11.847,0,0,1-1.07.98,12.348,12.348,0,0,1-1.779,1.214,10.836,10.836,0,0,1-1.508.754,12.016,12.016,0,0,1-3.769.837h-.754a12.453,12.453,0,0,1-2.864-24.573h.113a10.335,10.335,0,0,1,1.206-.219h.06a11.95,11.95,0,0,0,8,20.782h.754a11.692,11.692,0,0,0,2.163-.369Z" transform="translate(-571.746 -125.388)" fill="#fff" opacity="0.76"/>
        <path id="Path_1235" data-name="Path 1235" d="M599.51,139.731A15.332,15.332,0,0,0,584.186,124.4a.807.807,0,1,0,0,1.606,13.726,13.726,0,1,1-10.651,22.418.8.8,0,0,0-1.131-.113.8.8,0,0,0-.113,1.123A15.287,15.287,0,0,0,583.244,155v2.676h-4.636a1.018,1.018,0,1,0,0,2.028h11.254a1.018,1.018,0,0,0,0-2.028h-4.636V155A15.332,15.332,0,0,0,599.51,139.731Z" transform="translate(-571.836 -124.395)" fill="#fff"/>
      </g>
      <path id="Path_1236" data-name="Path 1236" d="M297.269,399.726a4.191,4.191,0,1,1-1.6-2.785,4.2,4.2,0,0,1,1.6,2.785Z" transform="translate(-118.648 -133.436)" fill="#9999f1"/>
      <path id="Path_1237" data-name="Path 1237" d="M229.03,353.962l1.847,1.379,1.809-3.241" transform="translate(-56.409 -86.699)" fill="none" stroke="#fff" stroke-linecap="round" stroke-linejoin="round" stroke-width="1.06"/>
      <path id="Path_1238" data-name="Path 1238" d="M312.326,107.056a4.2,4.2,0,1,1-5.277-2.683A4.2,4.2,0,0,1,312.326,107.056Z" transform="translate(-122.398 -61.565)"/>
      <path id="Path_1239" data-name="Path 1239" d="M244.41,62.23l2.065,1.01,1.168-3.52" transform="translate(-60.196 -14.711)" fill="none" stroke="#fff" stroke-linecap="round" stroke-linejoin="round" stroke-width="1.06"/>
      <path id="Path_1240" data-name="Path 1240" d="M610.276,208.891a6.407,6.407,0,1,1-1.527-4.682A6.415,6.415,0,0,1,610.276,208.891Z" transform="translate(-194.619 -85.647)"/>
      <path id="Path_1241" data-name="Path 1241" d="M539.2,162.466l2.337,2.631,3.7-4.3" transform="translate(-132.777 -39.598)" fill="none" stroke="#fff" stroke-linecap="round" stroke-linejoin="round" stroke-width="1.62"/>
      <path id="Path_1242" data-name="Path 1242" d="M587.331,209.737a1.545,1.545,0,1,1-1.545-1.508,1.508,1.508,0,0,1,1.545,1.508Z" transform="translate(-191.363 -87.187)"/>
      <path id="Path_1243" data-name="Path 1243" d="M518.381,68.9a1.545,1.545,0,1,1-1.508-1.508A1.508,1.508,0,0,1,518.381,68.9Z" transform="translate(-174.386 -52.51)" fill="#0093e9" opacity="0.3"/>
      <path id="Path_1244" data-name="Path 1244" d="M184.21,255.3a2.457,2.457,0,1,1-.72-1.745A2.465,2.465,0,0,1,184.21,255.3Z" transform="translate(-91.656 -98.17)"/>
      <path id="Path_1245" data-name="Path 1245" d="M680.118,287.959a3.769,3.769,0,1,1-3.769-3.769A3.769,3.769,0,0,1,680.118,287.959Z" transform="translate(-213.113 -105.889)" fill="#0093e9" opacity="0.3"/>
      <path id="Path_1246" data-name="Path 1246" d="M130.538,218.539a3.769,3.769,0,1,1-3.769-3.769,3.769,3.769,0,0,1,3.769,3.769Z" transform="translate(-77.799 -88.797)" fill="#0093e9"/>
      <path id="Path_1247" data-name="Path 1247" d="M639.68,333.707a2.457,2.457,0,1,1-.722-1.74A2.465,2.465,0,0,1,639.68,333.707Z" transform="translate(-203.799 -117.476)" fill="#48b2ef" opacity="0.3"/>
      <path id="Path_1248" data-name="Path 1248" d="M384.64,80.427A2.465,2.465,0,1,1,382.19,78,2.465,2.465,0,0,1,384.64,80.427Z" transform="translate(-141.005 -55.122)" fill="#0093e9" opacity="0.3"/>
      <path id="Path_1249" data-name="Path 1249" d="M445.47,64.017a2.457,2.457,0,1,1-.722-1.74,2.465,2.465,0,0,1,.722,1.74Z" transform="translate(-155.982 -51.075)" opacity="0.2"/>
      <path id="Path_1250" data-name="Path 1250" d="M123.837,174.075a.5.5,0,0,1-.5-.49V170.11a.5.5,0,0,1,.5-.49.49.49,0,0,1,.49.49v3.475a.49.49,0,0,1-.49.49Z" transform="translate(-77.883 -77.68)" fill="#0093e9"/>
      <path id="Path_1251" data-name="Path 1251" d="M124.975,172.907H121.5a.49.49,0,0,1-.49-.49.5.5,0,0,1,.49-.5h3.475a.505.505,0,0,1,.5.5.5.5,0,0,1-.5.49Z" transform="translate(-77.309 -78.247)" fill="#0093e9"/>
      <g id="Group_159" data-name="Group 159" transform="translate(70.95 4.666)" opacity="0.3">
        <path id="Path_1252" data-name="Path 1252" d="M159.957,58.295a.5.5,0,0,1-.5-.49V54.33a.5.5,0,0,1,.5-.49.49.49,0,0,1,.49.49V57.8A.49.49,0,0,1,159.957,58.295Z" transform="translate(-157.726 -53.84)" fill="#9999f1"/>
        <path id="Path_1253" data-name="Path 1253" d="M161.125,57.127H157.65a.5.5,0,0,1-.49-.5.49.49,0,0,1,.49-.49h3.475a.49.49,0,0,1,.49.49.5.5,0,0,1-.49.5Z" transform="translate(-157.16 -54.406)" fill="#9999f1"/>
      </g>
      <path id="Path_1254" data-name="Path 1254" d="M543.268,113.435a.5.5,0,0,1-.5-.49V109.47a.5.5,0,0,1,.5-.49.49.49,0,0,1,.49.49v3.475A.49.49,0,0,1,543.268,113.435Z" transform="translate(-181.152 -62.75)" fill="#0093e9"/>
      <path id="Path_1255" data-name="Path 1255" d="M544.435,112.267H540.96a.5.5,0,0,1-.49-.5.49.49,0,0,1,.49-.49h3.475a.49.49,0,0,1,.49.49.5.5,0,0,1-.49.5Z" transform="translate(-180.586 -63.316)" fill="#0093e9"/>
      <path id="Path_1256" data-name="Path 1256" d="M685.37,356.645a.49.49,0,0,1-.49-.49V352.68a.49.49,0,0,1,.49-.49.5.5,0,0,1,.5.49v3.475a.5.5,0,0,1-.5.49Z" transform="translate(-216.141 -122.632)" fill="#9999f1"/>
      <path id="Path_1257" data-name="Path 1257" d="M686.545,355.477H683.07a.5.5,0,0,1-.49-.5.49.49,0,0,1,.49-.49h3.475a.49.49,0,0,1,.49.49.5.5,0,0,1-.49.5Z" transform="translate(-215.575 -123.198)" fill="#9999f1"/>
      <path id="Path_1258" data-name="Path 1258" d="M522.737,173.569V200.08a.814.814,0,0,1-.814.814H495.737a.807.807,0,0,1-.807-.814V173.569a.806.806,0,0,1,.807-.8h26.194a.807.807,0,0,1,.807.8Z" transform="translate(-169.373 -78.456)" fill="#fff"/>
      <path id="Path_1259" data-name="Path 1259" d="M527.309,200.181v4.983a.814.814,0,0,1-.814.814h-13l.558-5.774,6.113-6.784Z" transform="translate(-173.945 -83.54)" fill="#45b7f9"/>
      <path id="Path_1260" data-name="Path 1260" d="M519.1,205.027H495.737a.807.807,0,0,1-.807-.814v-4.96l9.151-9.6Z" transform="translate(-169.373 -82.612)" fill="#0093e9"/>
      <path id="Path_1261" data-name="Path 1261" d="M524.832,181.806a3.226,3.226,0,1,1-3.226-3.226A3.226,3.226,0,0,1,524.832,181.806Z" transform="translate(-175.147 -79.886)" fill="#0093e9"/>
      <rect id="Rectangle_364" data-name="Rectangle 364" width="27.807" height="2.457" rx="0.79" transform="translate(325.549 124.503)" fill="#fff"/>
      <rect id="Rectangle_365" data-name="Rectangle 365" width="27.807" height="2.457" rx="0.79" transform="translate(325.549 128.883)" fill="#fff"/>
    </g>
  </g>
</svg>
