<svg xmlns="http://www.w3.org/2000/svg" xmlns:xlink="http://www.w3.org/1999/xlink" width="484.654" height="484.654" viewBox="0 0 484.654 484.654">
  <defs>
    <clipPath id="clip-path">
      <circle id="Ellipse_43" data-name="Ellipse 43" cx="52.52" cy="52.52" r="52.52" fill="#13a0f0"/>
    </clipPath>
    <clipPath id="clip-path-2">
      <path id="Path_469" data-name="Path 469" d="M-499.748-40.719-484.9-51.57c1.29-1.067,2.29-.8,2.29,1.134V-17.35c0,2.2-1.223,1.934-2.29,1.134l-14.853-10.829ZM-550-50.347v24.681a10.1,10.1,0,0,0,10.139,10.05h35.977a1.836,1.836,0,0,0,1.846-1.823V-42.12a10.1,10.1,0,0,0-10.139-10.05h-35.977A1.836,1.836,0,0,0-550-50.347Z" transform="translate(550 52.191)"/>
    </clipPath>
  </defs>
  <g id="Group_84" data-name="Group 84" transform="translate(-1337.347 -410.346)">
    <g id="_2" data-name="2" transform="translate(1369.06 444.519)">
      <circle id="Ellipse_34" data-name="Ellipse 34" cx="171.35" cy="171.35" r="171.35" transform="translate(-31.713 208.154) rotate(-45)" fill="#eee"/>
      <path id="Path_406" data-name="Path 406" d="M80.015,46.1a1.059,1.059,0,0,1-.706-.291,1.018,1.018,0,0,1,0-1.454c1.184-1.288,2.389-2.534,3.635-3.759a1.043,1.043,0,1,1,1.475,1.475c-1.2,1.2-2.409,2.43-3.572,3.7A1.08,1.08,0,0,1,80.015,46.1Z" transform="translate(104.907 68.628)"/>
      <path id="Path_407" data-name="Path 407" d="M246.761,234.537a1.038,1.038,0,0,1-.706-1.786c2.534-2.43,5.006-4.985,7.311-7.622a1.044,1.044,0,0,1,1.558,1.392c-2.347,2.659-4.839,5.255-7.436,7.726a.976.976,0,0,1-.727.291Zm14.061-15.972a.935.935,0,0,1-.6-.208,1.018,1.018,0,0,1-.228-1.433c2.077-2.845,4.05-5.795,5.878-8.786a1.038,1.038,0,0,1,1.433-.332,1.018,1.018,0,0,1,.332,1.412c-1.849,3.053-3.863,6.044-5.982,8.931a1.018,1.018,0,0,1-.831.415Zm11.07-18.174a1.121,1.121,0,0,1-.457-.1,1.039,1.039,0,0,1-.478-1.392,95.911,95.911,0,0,0,4.154-9.658,1.018,1.018,0,0,1,1.516-.519,1.039,1.039,0,0,1,.6,1.35c-1.288,3.323-2.742,6.626-4.341,9.824a1,1,0,0,1-1,.5Zm7.685-19.835h-.291a1.059,1.059,0,0,1-.706-1.288c.976-3.365,1.828-6.812,2.492-10.26a1.057,1.057,0,1,1,2.077.395c-.685,3.51-1.537,7.02-2.534,10.385a1.018,1.018,0,0,1-1.039.768Zm4.154-20.894h-.125a1.038,1.038,0,0,1-.914-1.142c.374-3.469.582-7.02.644-10.53a1.038,1.038,0,0,1,1.038-1.018h0a1.018,1.018,0,0,1,1.018,1.059,102.361,102.361,0,0,1-.665,10.717,1.018,1.018,0,0,1-1.039.893Zm.374-21.268a1.018,1.018,0,0,1-1.018-.955c-.249-3.51-.644-7.041-1.184-10.385a1.018,1.018,0,0,1,.872-1.184,1.038,1.038,0,0,1,1.184.852c.54,3.531.955,7.1,1.184,10.676a1.038,1.038,0,0,1-.955,1.1Zm-3.323-21a1.059,1.059,0,0,1-1.018-.789c-.831-3.406-1.848-6.792-2.991-10.115a1.094,1.094,0,0,1,2.077-.685c1.163,3.385,2.077,6.854,3.032,10.385a1.018,1.018,0,0,1-.748,1.246Zm-6.937-20.064a1.018,1.018,0,0,1-.935-.623c-1.433-3.2-3.032-6.356-4.736-9.429a1.038,1.038,0,1,1,1.807-1.018c1.745,3.115,3.365,6.356,4.819,9.6a1.038,1.038,0,0,1-.519,1.371A1.121,1.121,0,0,1,273.844,97.333ZM263.46,78.744a1.059,1.059,0,0,1-.872-.436c-1.973-2.908-4.154-5.753-6.231-8.474a1.038,1.038,0,0,1,1.6-1.308c2.264,2.762,4.4,5.649,6.418,8.6a1.059,1.059,0,0,1-.27,1.454,1.038,1.038,0,0,1-.6.062Zm-13.438-16.47a1,1,0,0,1-.748-.332c-2.451-2.513-5.026-4.943-7.685-7.228a1.059,1.059,0,0,1-.1-1.475,1.018,1.018,0,0,1,1.454,0c2.7,2.326,5.338,4.819,7.83,7.373a1.059,1.059,0,0,1-.748,1.765ZM85.546,53.4a1.038,1.038,0,0,1-.665-1.849c2.742-2.264,5.629-4.465,8.557-6.48a1.038,1.038,0,0,1,1.433.249,1.059,1.059,0,0,1-.249,1.454c-2.887,2.077-5.712,4.154-8.412,6.376A1.059,1.059,0,0,1,85.546,53.4ZM233.9,48.316a1.1,1.1,0,0,1-.623-.187c-2.845-2.077-5.816-4.009-8.827-5.795A1.059,1.059,0,0,1,224.1,40.9a1.039,1.039,0,0,1,1.433-.353c3.053,1.828,6.086,3.8,8.973,5.9a1.039,1.039,0,0,1,.228,1.433,1.018,1.018,0,0,1-.768.436ZM103.1,41.254a1.046,1.046,0,0,1-.519-1.952c3.115-1.765,6.231-3.406,9.554-4.9a1.038,1.038,0,0,1,1.371.519,1.018,1.018,0,0,1-.5,1.371c-3.178,1.454-6.231,3.074-9.388,4.819A.976.976,0,0,1,103.1,41.254Zm112.572-3.863a1.122,1.122,0,0,1-.436-.1c-3.157-1.516-6.418-2.929-9.7-4.154a1.08,1.08,0,0,1-.623-1.35,1.038,1.038,0,0,1,1.35-.6c3.344,1.267,6.667,2.679,9.866,4.154a1.038,1.038,0,0,1-.457,1.973Zm-93.235-5.006a1.053,1.053,0,1,1-.353-2.077c3.365-1.2,6.812-2.264,10.385-3.157a1.04,1.04,0,1,1,.519,2.015c-3.406.872-6.792,1.932-10.094,3.095a1.059,1.059,0,0,1-.457.166Zm73.338-2.513a.623.623,0,0,1-.27,0c-3.385-.935-6.833-1.745-10.281-2.389a1.055,1.055,0,0,1,.374-2.077c3.51.644,7.041,1.475,10.385,2.43a1.049,1.049,0,0,1-.291,2.077Zm-52.734-2.8a1.046,1.046,0,0,1-.187-2.077c3.531-.582,7.1-1.018,10.676-1.288a1.059,1.059,0,0,1,1.1.955,1.038,1.038,0,0,1-.955,1.122c-3.489.27-7.02.685-10.385,1.267Zm31.819-1.038h0c-3.489-.332-7.041-.519-10.551-.54a1.059,1.059,0,0,1-1.018-1.059.935.935,0,0,1,1.039-1.018c3.572,0,7.186.208,10.717.561a1.018,1.018,0,0,1,.935,1.122A1.038,1.038,0,0,1,174.856,26.03Z" transform="translate(110.819 50.443)"/>
      <path id="Path_408" data-name="Path 408" d="M157.261,132.715a1.018,1.018,0,0,1-.852-.436,1.059,1.059,0,0,1,.228-1.454c1.392-1,2.762-2.077,4.154-3.115a1.041,1.041,0,1,1,1.309,1.62c-1.371,1.1-2.762,2.077-4.154,3.178A.955.955,0,0,1,157.261,132.715Z" transform="translate(188.064 162.526)"/>
      <path id="Path_409" data-name="Path 409" d="M296.427,149.077H9.908a1.038,1.038,0,1,1,0-2.077H296.531a1.059,1.059,0,0,1,1.038,1.038,1.039,1.039,0,0,1-1.142,1.038Z" transform="translate(29.375 183.55)"/>
      <path id="Path_461" data-name="Path 461" d="M10.51,0,206.822.236c5.8,0,19.25,14.445,19.25,20.25v146.25c0,5.8-10.945,19.5-16.75,19.5l-191.25-.25c-5.8,0-18.25-11.7-18.25-17.5L0,10.51A10.51,10.51,0,0,1,10.51,0Z" transform="translate(86.369 144.494)"/>
      <path id="Path_410" data-name="Path 410" d="M236.644,156.588H53.871A21.808,21.808,0,0,1,32,134.78v4.362a21.829,21.829,0,0,0,21.808,21.829H236.582a21.85,21.85,0,0,0,21.808-21.829V134.78A21.829,21.829,0,0,1,236.644,156.588Z" transform="translate(54.286 170.389)" fill="#fff"/>
      <path id="Path_411" data-name="Path 411" d="M50.817,161.788C104.694,135.6,114.539,82.7,116.117,57.42H53.808A21.829,21.829,0,0,0,32,79.249v71.136a114.9,114.9,0,0,0,18.817,11.4Z" transform="translate(54.286 87.074)" fill="#5d5d5d"/>
      <path id="Path_412" data-name="Path 412" d="M236.644,57.42H53.871A21.829,21.829,0,0,0,32,79.249v4.3A21.829,21.829,0,0,1,53.808,61.719H236.582A21.85,21.85,0,0,1,258.39,83.548V79.187A21.85,21.85,0,0,0,236.644,57.42Z" transform="translate(54.286 87.074)" fill="#fff"/>
      <path id="Path_413" data-name="Path 413" d="M169.044,95.44H128.273a13.334,13.334,0,0,0-13.313,13.334v10.987A13.334,13.334,0,0,0,128.273,133.1h40.771Z" transform="translate(143.631 128.021)" fill="#5d5d5d"/>
      <path id="Path_414" data-name="Path 414" d="M237.15,245.851H54.377A22.847,22.847,0,0,1,31.53,223V79.777A22.847,22.847,0,0,1,54.377,56.93h80.877a1.038,1.038,0,0,1,0,2.077H54.4a20.77,20.77,0,0,0-20.77,20.77V222.984a20.77,20.77,0,0,0,20.77,20.77H237.171a20.77,20.77,0,0,0,20.77-20.77V79.777a20.77,20.77,0,0,0-20.77-20.77H153.614a1.038,1.038,0,0,1,0-2.077H237.15A22.847,22.847,0,0,1,260,79.777V222.984a22.847,22.847,0,0,1-22.847,22.867Z" transform="translate(53.78 86.547)" fill="#5d5d5d"/>
      <path id="Path_415" data-name="Path 415" d="M231.539,229.283h-4.632a1.038,1.038,0,0,1-1.038-1.038,1.059,1.059,0,0,1,1.038-1.038h4.632a12.08,12.08,0,0,0,1.5,0,1.038,1.038,0,0,1,1.184.872,1.059,1.059,0,0,1-.872,1.184A13.215,13.215,0,0,1,231.539,229.283Zm-15.1,0h-6.231a1.038,1.038,0,0,1,0-2.077h6.231a1.038,1.038,0,1,1,0,2.077Zm-16.761,0h-6.231a1.038,1.038,0,0,1,0-2.077h6.231a1.038,1.038,0,1,1,0,2.077Zm-16.74,0h-6.231a1.038,1.038,0,0,1-1.038-1.038,1.059,1.059,0,0,1,1.038-1.038h6.231a1.038,1.038,0,0,1,0,2.077Zm-16.761,0h-6.356a1.038,1.038,0,0,1,0-2.077h6.231a1.042,1.042,0,0,1,.125,2.077Zm-16.74,0h-6.231a1.038,1.038,0,0,1-1.038-1.038,1.059,1.059,0,0,1,1.038-1.038h6.231a1.059,1.059,0,0,1,1.038,1.038,1.038,1.038,0,0,1-1.039,1.039Zm-16.761,0h-6.231a1.038,1.038,0,0,1,0-2.077h6.231a1.038,1.038,0,0,1,0,2.077Zm-16.74,0H109.7a1.039,1.039,0,0,1-1.038-1.038,1.059,1.059,0,0,1,1.038-1.038h6.231a1.059,1.059,0,0,1,1.038,1.038,1.038,1.038,0,0,1-1.039,1.039Zm-16.761,0H92.943a1.038,1.038,0,1,1,0-2.077h6.231a1.038,1.038,0,1,1,0,2.077Zm-16.74,0H76.2a1.038,1.038,0,1,1,0-2.077h6.231a1.059,1.059,0,0,1,1.038,1.038,1.038,1.038,0,0,1-1.039,1.039Zm-16.761,0H59.441a1.039,1.039,0,0,1-1.038-1.038,1.059,1.059,0,0,1,1.038-1.038h6.231a1.038,1.038,0,1,1,0,2.077Zm-16.761,0h-.125a11.86,11.86,0,0,1-6.5-1.932,1.018,1.018,0,0,1-.291-1.433,1.038,1.038,0,0,1,1.433-.291,9.8,9.8,0,0,0,5.359,1.579,1.1,1.1,0,0,1,1.1,1.038.976.976,0,0,1-.976,1.038Zm192.411-6.065a1.33,1.33,0,0,1-.478-.1,1.059,1.059,0,0,1-.457-1.392,9.7,9.7,0,0,0,1.018-4.382v-1.267a1.038,1.038,0,0,1,2.077,0v1.267a11.756,11.756,0,0,1-1.246,5.3A1,1,0,0,1,241.322,223.218ZM37.778,218.774a1.038,1.038,0,0,1-1.038-1v-6.418a1.038,1.038,0,0,1,2.077,0v6.231a1.038,1.038,0,0,1-1,1.08Zm204.561-12.13a1.038,1.038,0,0,1-1.038-1.038v-6.231a1.038,1.038,0,1,1,2.077,0v6.231a1.039,1.039,0,0,1-.935,1.038ZM37.882,202.012a1.038,1.038,0,0,1-1.038-1.038v-6.231a1.038,1.038,0,1,1,2.077,0v6.231A1.038,1.038,0,0,1,37.882,202.012Zm204.561-12.129a1.038,1.038,0,0,1-1.038-1.038v-6.231a1.038,1.038,0,0,1,2.077,0v6.231A1.038,1.038,0,0,1,242.443,189.883ZM37.882,185.272a1.039,1.039,0,0,1-1.038-1.038V178a1.038,1.038,0,0,1,2.077,0v6.231A1.038,1.038,0,0,1,37.882,185.272Zm204.561-12.13A1.038,1.038,0,0,1,241.4,172.1v-6.231a1.038,1.038,0,1,1,2.077,0V172.1A1.038,1.038,0,0,1,242.443,173.143ZM37.882,168.511a1.038,1.038,0,0,1-1.038-1.038v-6.231a1.038,1.038,0,0,1,2.077,0v6.231A1.038,1.038,0,0,1,37.882,168.511Zm204.561-12.13a1.038,1.038,0,0,1-1.038-1.038v-6.231a1.038,1.038,0,1,1,2.077,0v6.231A1.038,1.038,0,0,1,242.443,156.381ZM37.882,151.75a1.038,1.038,0,0,1-1.038-1.038V144.48a1.038,1.038,0,1,1,2.077,0v6.231A1.038,1.038,0,0,1,37.882,151.75ZM242.443,139.62a1.038,1.038,0,0,1-1.038-1.039v-6.231a1.038,1.038,0,1,1,2.077,0v6.231A1.039,1.039,0,0,1,242.443,139.62ZM37.882,135.009a1.038,1.038,0,0,1-1.038-1.038V127.74a1.038,1.038,0,1,1,2.077,0v6.231A1.038,1.038,0,0,1,37.882,135.009Zm204.561-12.13a1.038,1.038,0,0,1-1.038-1.038V115.61a1.038,1.038,0,0,1,2.077,0v6.231A1.039,1.039,0,0,1,242.443,122.88ZM37.882,118.248a1.038,1.038,0,0,1-1.038-1.038v-6.231a1.038,1.038,0,0,1,2.077,0v6.231A1.038,1.038,0,0,1,37.882,118.248Zm204.561-12.13a1.038,1.038,0,0,1-1.038-1.038V98.849a1.038,1.038,0,0,1,2.077,0v6.231A1.038,1.038,0,0,1,242.443,106.119ZM37.882,101.508a1.038,1.038,0,0,1-1.038-1.038V94.238a1.038,1.038,0,0,1,2.077,0v6.231A1.038,1.038,0,0,1,37.882,101.508Zm204.561-12.13A1.038,1.038,0,0,1,241.4,88.34V82.109a1.038,1.038,0,0,1,2.077,0V88.34A1.038,1.038,0,0,1,242.443,89.378ZM37.882,84.664a1.038,1.038,0,0,1-1.038-1.038V77.394a1.038,1.038,0,0,1,2.077,0v6.231A1.038,1.038,0,0,1,37.882,84.664Zm204.27-12.109a1.038,1.038,0,0,1-1.018-.789,9.99,9.99,0,0,0-2.783-4.86,1.038,1.038,0,1,1,1.433-1.5,11.755,11.755,0,0,1,3.365,5.878,1.018,1.018,0,0,1-.768,1.246ZM40.146,68.4a1.018,1.018,0,0,1-.623-.208,1.039,1.039,0,0,1-.187-1.454,11.922,11.922,0,0,1,5.483-3.988,1.038,1.038,0,0,1,1.329.644,1.018,1.018,0,0,1-.623,1.309,10.032,10.032,0,0,0-4.549,3.344,1.1,1.1,0,0,1-.831.457Zm189.233-4.154h-6.231a1.038,1.038,0,0,1-1.038-1.038,1.059,1.059,0,0,1,1.038-1.038h6.231a1.038,1.038,0,0,1,0,2.077Zm-16.761,0h-6.231a1.038,1.038,0,1,1,0-2.077h6.231a1.038,1.038,0,0,1,0,2.077Zm-16.74,0h-6.231a1.039,1.039,0,0,1-1.039-1.038,1.059,1.059,0,0,1,1.039-1.038h6.231a1.059,1.059,0,0,1,1.038,1.038A1.038,1.038,0,0,1,195.878,64.247Zm-16.761,0h-6.231a1.038,1.038,0,1,1,0-2.077h6.231a1.038,1.038,0,0,1,0,2.077Zm-16.74,0h-6.231a1.038,1.038,0,0,1-1.038-1.038,1.059,1.059,0,0,1,1.038-1.038h6.231a1.059,1.059,0,0,1,1.038,1.038A1.038,1.038,0,0,1,162.376,64.247Zm-16.761,0h-6.231a1.038,1.038,0,1,1,0-2.077h6.231a1.038,1.038,0,0,1,0,2.077Zm-16.74,0h-6.231a1.038,1.038,0,1,1,0-2.077h6.231a1.059,1.059,0,0,1,1.038,1.038,1.039,1.039,0,0,1-1.039,1.038Zm-16.761,0H105.82a1.038,1.038,0,0,1-1.038-1.038,1.059,1.059,0,0,1,1.038-1.038h6.231a1.038,1.038,0,1,1,0,2.077Zm-16.761,0H89.121a1.038,1.038,0,0,1,0-2.077h6.231a1.04,1.04,0,0,1,.083,2.077Zm-16.74,0H72.381a1.038,1.038,0,0,1-1.038-1.038,1.059,1.059,0,0,1,1.038-1.038h6.231a1.059,1.059,0,0,1,1.038,1.038A1.038,1.038,0,0,1,78.612,64.247Zm-16.761,0H55.62a1.038,1.038,0,0,1,0-2.077h6.231a1.038,1.038,0,0,1,0,2.077Z" transform="translate(59.391 92.19)" fill="#fff"/>
      <path id="Path_416" data-name="Path 416" d="M176.293,130.975h-48.02a13.313,13.313,0,0,1-13.313-13.313V106.674A13.313,13.313,0,0,1,128.273,93.34h48.02v37.635Z" transform="translate(143.631 125.759)"/>
      <path id="Path_417" data-name="Path 417" d="M176.831,132.635h-48.02a14.373,14.373,0,0,1-14.352-14.352v-11.07A14.373,14.373,0,0,1,128.812,92.84h48.02a1.059,1.059,0,0,1,1.039,1.038v37.635a1.038,1.038,0,0,1-1.038,1.122Zm-48.02-37.718a12.3,12.3,0,0,0-12.275,12.3V118.2a12.3,12.3,0,0,0,12.275,12.275h47V94.917Z" transform="translate(143.093 125.221)" fill="#fff"/>
      <path id="Path_418" data-name="Path 418" d="M138.323,62.606C89.618,64.455,73,35.46,73,35.46S56.386,64.538,7.6,62.606c0,0-6.792,83.307,65.4,118.387C145.094,145.913,138.323,62.606,138.323,62.606Z" transform="translate(27.822 63.424)" fill="#fff"/>
      <path id="Path_419" data-name="Path 419" d="M138.323,62.606C89.618,64.455,73,35.46,73,35.46S56.386,64.538,7.6,62.606c0,0-6.792,83.307,65.4,118.387C145.094,145.913,138.323,62.606,138.323,62.606Z" transform="translate(27.822 63.424)" fill="#fff"/>
      <path id="Path_420" data-name="Path 420" d="M73.55,182.622a1.122,1.122,0,0,1-.457,0C1,147.439,6.962,63.882,7.087,63.03A1.038,1.038,0,0,1,8.1,62.013C55.646,63.8,72.49,35.656,72.49,35.386a1.08,1.08,0,0,1,1.059-.374h0a1.038,1.038,0,0,1,.893.519c.145.27,15.93,26.71,60.066,26.71h4.4a1.018,1.018,0,0,1,1.059.955c0,.852,6.023,84.408-65.965,119.488a1.225,1.225,0,0,1-.457-.062ZM9.164,64.235c-.436,9.45-1.6,83.723,64.386,116.31,66.027-32.5,64.843-106.777,64.386-116.31C95.919,65.46,77.7,43.611,73.55,37.878,69.4,43.569,50.973,65.419,9.039,64.193Z" transform="translate(27.275 62.917)"/>
      <path id="Path_421" data-name="Path 421" d="M67.324,160.164C20.9,134.68,13.614,85.767,12.7,64.79c27.79-1.537,45.029-12.5,54.624-21.31,9.409,8.827,26.689,19.773,54.521,21.33C121.076,85.788,114.015,134.493,67.324,160.164Z" transform="translate(33.5 72.061)"/>
      <path id="Path_422" data-name="Path 422" d="M67.324,45.661c9.471,8.806,26.731,19.814,54.5,21.31V64.894c-27.811-1.641-45.091-12.586-54.5-21.414C57.729,52.286,40.49,63.253,12.7,64.79a13.508,13.508,0,0,0,.1,2.077C40.531,65.454,57.75,54.467,67.324,45.661Z" transform="translate(33.5 72.061)" fill="#fff"/>
      <path id="Path_423" data-name="Path 423" d="M67.864,161.745a1,1,0,0,1-.5-.145C20.239,135.72,13.073,85.686,12.2,65.394a1.038,1.038,0,0,1,.976-1.1c27.4-1.454,44.426-12.254,53.9-21.04a1.038,1.038,0,0,1,1.412,0c9.471,8.806,26.523,19.607,54,21.06a1.018,1.018,0,0,1,.976,1.059c-.748,20.25-7.622,70.139-55.144,96.226a1.143,1.143,0,0,1-.457.145ZM14.32,66.308c1.059,20.5,8.536,68.1,53.544,93.194,45.361-25.214,52.61-72.694,53.524-93.173-26.793-1.662-43.8-12.109-53.524-20.894C58.061,54.22,41.071,64.646,14.32,66.308Z" transform="translate(32.961 71.519)"/>
      <circle id="Ellipse_35" data-name="Ellipse 35" cx="29.535" cy="29.535" r="29.535" transform="translate(184.88 62.683)" fill="#adadad" opacity="0.5"/>
      <path id="Path_463" data-name="Path 463" d="M29.535,0A29.535,29.535,0,1,1,0,29.535,29.535,29.535,0,0,1,29.535,0Z" transform="translate(182.969 58.861)" fill="#13a0f0"/>
      <path id="Path_424" data-name="Path 424" d="M108.074,18.371a29.535,29.535,0,0,1,29.555,28.455v-1.1a29.535,29.535,0,1,0-59.069,0c0,.374,0,.727,0,1.1a29.535,29.535,0,0,1,29.514-28.455Z" transform="translate(104.43 42.671)" fill="#fff"/>
      <path id="Path_425" data-name="Path 425" d="M108.623,76.836A30.573,30.573,0,1,1,139.2,46.263a30.573,30.573,0,0,1-30.573,30.573Zm0-59.069a28.5,28.5,0,1,0,28.5,28.5,28.5,28.5,0,0,0-28.5-28.5Z" transform="translate(103.88 42.132)"/>
      <path id="Path_426" data-name="Path 426" d="M105.446,67.5a24.425,24.425,0,1,1,24.4-24.425A24.425,24.425,0,0,1,105.446,67.5Zm0-47.77a23.373,23.373,0,1,0,0-.021Z" transform="translate(107.057 45.32)" fill="#fff"/>
      <path id="Path_427" data-name="Path 427" d="M139.264,108.307a9.346,9.346,0,1,1-2.767-6.659A9.367,9.367,0,0,1,139.264,108.307Z" transform="translate(149.63 131.79)" fill="#5d5d5d"/>
      <circle id="Ellipse_37" data-name="Ellipse 37" cx="9.367" cy="9.367" r="9.367" transform="translate(267.979 228.549)"/>
      <path id="Path_428" data-name="Path 428" d="M129.385,118.18a10.385,10.385,0,1,1,10.385-10.385,10.385,10.385,0,0,1-10.385,10.385Zm0-18.693a3.445,3.445,0,1,0,0-.042Z" transform="translate(147.982 130.143)" fill="#fff"/>
      <path id="Path_429" data-name="Path 429" d="M39,47.92A90.93,90.93,0,0,0,84.693,64.058C83.26,84.246,75.575,123.875,39,147.656Z" transform="translate(61.825 76.843)" fill="#fff"/>
      <rect id="Rectangle_135" data-name="Rectangle 135" width="70.389" height="29.763" transform="translate(123.505 263.276)" fill="#5d5d5d"/>
      <rect id="Rectangle_136" data-name="Rectangle 136" width="70.389" height="29.763" transform="translate(121.324 261.096)" fill="#fff"/>
      <path id="Path_430" data-name="Path 430" d="M91.342,91.82a1.059,1.059,0,0,1-.748-.312,1.038,1.038,0,0,1,0-1.454l13.5-13.5a1.035,1.035,0,0,1,1.454,1.475l-13.48,13.48A1.038,1.038,0,0,1,91.342,91.82Z" transform="translate(117.07 107.361)" fill="#fff"/>
      <path id="Path_431" data-name="Path 431" d="M97.821,85.937a1.038,1.038,0,0,1-.727-1.765l6.542-6.563a1.043,1.043,0,0,1,1.475,1.475l-6.563,6.542A.976.976,0,0,1,97.821,85.937Z" transform="translate(124.07 108.488)" fill="#fff"/>
      <path id="Path_432" data-name="Path 432" d="M109.538,46.648a8.308,8.308,0,0,1-2.659,6.231A11.278,11.278,0,0,1,100,55.724L99.8,60.9H95.643l.208-5.255a11.61,11.61,0,0,1-5.546-2.077,8.308,8.308,0,0,1-2.845-3.739V46.9h5.172a5.172,5.172,0,0,0,1.246,2.077,5.068,5.068,0,0,0,2.181,1.308l.332-7.539h-.374a12.462,12.462,0,0,1-6.231-2.908,7.477,7.477,0,0,1-2.077-5.67,8.183,8.183,0,0,1,2.6-6.231,11.112,11.112,0,0,1,6.9-2.679l.208-4.445h4.154l-.208,4.632a10.53,10.53,0,0,1,4.881,2.077,6.522,6.522,0,0,1,2.43,3.718v3.012h-5.338a6.438,6.438,0,0,0-.789-1.807,3.365,3.365,0,0,0-1.516-1.246l-.27,6.626h0a13.438,13.438,0,0,1,6.522,2.991,7.56,7.56,0,0,1,2.264,5.836ZM93.753,33.666a2.97,2.97,0,0,0,.623,1.848,4.549,4.549,0,0,0,2.243,1.329l.27-6.4a4.154,4.154,0,0,0-2.326,1.1,2.929,2.929,0,0,0-.81,2.119Zm9.575,13.376a3.282,3.282,0,0,0-.623-2.077,4.943,4.943,0,0,0-2.2-1.433l-.27,6.75a4.029,4.029,0,0,0,2.305-1.122,3.1,3.1,0,0,0,.789-2.16Z" transform="translate(114.015 47.646)" fill="#fff"/>
      <circle id="Ellipse_38" data-name="Ellipse 38" cx="24.674" cy="24.674" r="24.674" transform="translate(366.199 210.251)" fill="#5d5d5d" opacity="0.5"/>
      <path id="Path_464" data-name="Path 464" d="M24.674,0A24.674,24.674,0,1,1,0,24.674,24.674,24.674,0,0,1,24.674,0Z" transform="translate(364.6 207.053)" fill="#13a0f0"/>
      <path id="Path_433" data-name="Path 433" d="M190.7,89.656a24.674,24.674,0,0,1,24.633,23.7c0-.374,0-.727,0-1.08a24.674,24.674,0,0,0-49.349,0c0,.353,0,.706,0,1.08A24.674,24.674,0,0,1,190.7,89.656Z" transform="translate(198.578 119.577)" fill="#fff"/>
      <path id="Path_434" data-name="Path 434" d="M191.234,138.5a25.734,25.734,0,1,1,25.713-25.734A25.734,25.734,0,0,1,191.234,138.5Zm0-49.37a9.8,9.8,0,1,0,0-.083Z" transform="translate(198.04 118.964)"/>
      <path id="Path_435" data-name="Path 435" d="M188.521,130.549A20.5,20.5,0,1,1,209,110.05a20.5,20.5,0,0,1-20.479,20.5Zm0-39.94a19.461,19.461,0,1,0,19.44,19.44A19.461,19.461,0,0,0,188.521,90.609Z" transform="translate(200.754 121.678)" fill="#fff"/>
      <path id="Path_633" data-name="Path 633" d="M53.378,0A53.378,53.378,0,1,1,0,53.378,53.378,53.378,0,0,1,53.378,0Z" transform="matrix(0.159, -0.987, 0.987, 0.159, 290.97, 154.824)" fill="#d4d4d4" opacity="0.5"/>
      <path id="Path_462" data-name="Path 462" d="M53.378,0A53.378,53.378,0,1,1,0,53.378,53.378,53.378,0,0,1,53.378,0Z" transform="matrix(0.159, -0.987, 0.987, 0.159, 286.811, 150.664)"/>
      <path id="Path_436" data-name="Path 436" d="M185.689,15.487a53.376,53.376,0,0,1,53.357,52.329c0-.342,0-.7,0-1.028a53.378,53.378,0,0,0-106.756,0c0,.332,0,.685,0,1.038A53.378,53.378,0,0,1,185.689,15.487Z" transform="translate(162.295 39.677)" fill="#fff"/>
      <path id="Path_437" data-name="Path 437" d="M186.217,121.733a54.417,54.417,0,1,1,54.417-54.4,54.417,54.417,0,0,1-54.417,54.4Zm0-106.736a52.34,52.34,0,1,0,52.34,52.34A52.34,52.34,0,0,0,186.217,15Z" transform="translate(161.768 39.128)" fill="#616161"/>
      <path id="Path_438" data-name="Path 438" d="M66.206,51.076a1.038,1.038,0,0,1-1.038-1.038,10.385,10.385,0,0,0-.81-4.05,10.655,10.655,0,0,0-2.243-3.323,10.177,10.177,0,0,0-3.3-2.222,10.489,10.489,0,0,0-4.154-.831,1.038,1.038,0,0,1-1.038-1.038,1.059,1.059,0,0,1,1.038-1.038,10.385,10.385,0,0,0,4.154-.81,9.907,9.907,0,0,0,3.3-2.243,10.572,10.572,0,0,0,2.243-3.3,10.385,10.385,0,0,0,.81-4.05,1.038,1.038,0,1,1,2.077,0,10.032,10.032,0,0,0,.831,4.05,10.177,10.177,0,0,0,2.222,3.3,9.99,9.99,0,0,0,3.323,2.243,10.385,10.385,0,0,0,4.154.81,1.059,1.059,0,0,1,1.038,1.038,1.038,1.038,0,0,1-1.038,1.038A10.385,10.385,0,0,0,70.4,42.664a10.26,10.26,0,0,0-2.222,3.323,10.032,10.032,0,0,0-.831,4.05,1.038,1.038,0,0,1-1.142,1.038ZM59.747,38.614a12.815,12.815,0,0,1,3.842,2.638,12.254,12.254,0,0,1,2.617,3.842,12.254,12.254,0,0,1,2.617-3.842,12.815,12.815,0,0,1,3.842-2.638,12.462,12.462,0,0,1-6.459-6.48,12.462,12.462,0,0,1-6.459,6.459Z" transform="translate(77.57 53.333)"/>
      <path id="Path_439" data-name="Path 439" d="M21.922,50.988h0V49.95l.1,1.1Zm0,0a8.64,8.64,0,0,1-2.368-.312l.561-2.077a7.435,7.435,0,0,0,1.807.228Zm2.368-.312L23.729,48.6a6.231,6.231,0,0,0,1.682-.706l1.1,1.89a8.7,8.7,0,0,1-2.222.893Zm-6.979-.893a9.948,9.948,0,0,1-1.89-1.454l1.537-1.558a6.231,6.231,0,0,0,1.454,1.1Zm11.091-1.5-1.537-1.537a6.708,6.708,0,0,0,1.1-1.454l1.89,1.08A8.765,8.765,0,0,1,28.4,48.288ZM13.863,46.419a9.367,9.367,0,0,1-.935-2.2l2.077-.582a6.023,6.023,0,0,0,.706,1.682Zm16.844-2.264-2.077-.561a6.542,6.542,0,0,0,.228-1.807H31.04a9.99,9.99,0,0,1-.249,2.368ZM12.7,41.829h0a8.7,8.7,0,0,1,.291-2.264l2.077.561a6.231,6.231,0,0,0-.228,1.765ZM28.651,39.9a6.356,6.356,0,0,0-.727-1.682l1.89-1.1a8.578,8.578,0,0,1,.935,2.2ZM15.795,38.319l-1.911-1.08A10.8,10.8,0,0,1,15.4,35.411l1.558,1.537a6.231,6.231,0,0,0-1.163,1.371ZM26.8,36.782a6.709,6.709,0,0,0-1.454-1.1l1.059-1.911a9.43,9.43,0,0,1,1.932,1.454Zm-8.474-1.038-1.1-1.89a8.578,8.578,0,0,1,2.2-.935L20.011,35a7.5,7.5,0,0,0-1.682.748ZM23.708,35a7.061,7.061,0,0,0-1.745-.228V32.69h0a9.43,9.43,0,0,1,2.285.291Z" transform="translate(33.5 60.441)"/>
      <path id="Path_440" data-name="Path 440" d="M35.971,18.3a1.038,1.038,0,0,1-.727-1.765l2.949-2.97a1.043,1.043,0,0,1,1.475,1.475L36.7,17.992A.976.976,0,0,1,35.971,18.3Z" transform="translate(57.46 39.519)"/>
      <path id="Path_441" data-name="Path 441" d="M35.531,18.325a.976.976,0,0,1-.727-.312l-2.97-2.97a1.035,1.035,0,0,1,1.475-1.454l2.949,2.949a1.038,1.038,0,0,1,0,1.475.976.976,0,0,1-.727.312Z" transform="translate(53.787 39.539)"/>
      <path id="Path_442" data-name="Path 442" d="M32.59,21.681a.976.976,0,0,1-.727-.228,1,1,0,0,1,0-1.454l2.949-2.97A1.043,1.043,0,0,1,36.287,18.5l-2.97,2.949a.976.976,0,0,1-.727.228Z" transform="translate(53.8 43.245)"/>
      <path id="Path_443" data-name="Path 443" d="M38.952,21.715a.976.976,0,0,1-.727-.312l-2.97-2.949a1.059,1.059,0,0,1,0-1.475,1.038,1.038,0,0,1,1.475,0l2.949,2.949a1.038,1.038,0,0,1,0,1.475.976.976,0,0,1-.727.312Z" transform="translate(57.47 43.19)"/>
      <rect id="Rectangle_137" data-name="Rectangle 137" width="52.776" height="43.243" rx="2.56" transform="translate(325.802 101.667)" fill="#5d5d5d"/>
      <path id="Path_444" data-name="Path 444" d="M167.893,23.3H167.6A15.141,15.141,0,0,0,152.44,38.441V51.36h5.317V38.441a9.824,9.824,0,0,1,9.824-9.824h.291a9.845,9.845,0,0,1,9.845,9.824V51.36h5.317V38.441A15.141,15.141,0,0,0,167.893,23.3Z" transform="translate(183.996 50.328)" fill="#5d5d5d"/>
      <rect id="Rectangle_138" data-name="Rectangle 138" width="52.776" height="43.243" rx="2.56" transform="translate(321.607 97.493)"/>
      <path id="Path_445" data-name="Path 445" d="M193.3,79.61H151.156a6.376,6.376,0,0,1-6.355-6.356V40.646a6.376,6.376,0,0,1,6.356-6.356H193.3a6.376,6.376,0,0,1,6.356,6.356V73.254A6.356,6.356,0,0,1,193.3,79.61ZM151.156,36.367a4.3,4.3,0,0,0-4.279,4.279V73.254a4.279,4.279,0,0,0,4.279,4.279H193.3a4.279,4.279,0,0,0,4.279-4.279V40.646a4.279,4.279,0,0,0-4.279-4.279Z" transform="translate(175.768 62.164)" fill="#fff"/>
      <path id="Path_446" data-name="Path 446" d="M167.312,46.783a6.086,6.086,0,1,0-8.744,5.442V62.609h5.338V52.224A6.044,6.044,0,0,0,167.312,46.783Z" transform="translate(186.904 69.029)" fill="#fff"/>
      <path id="Path_447" data-name="Path 447" d="M164.383,63.97h-5.317a1.038,1.038,0,0,1-1.038-1.038V53.149A7.041,7.041,0,0,1,154.6,47.1a7.124,7.124,0,0,1,14.227,0,7.041,7.041,0,0,1-3.406,6.044v9.783A1.039,1.039,0,0,1,164.383,63.97ZM160.1,61.893h3.24V52.546a1.038,1.038,0,0,1,.582-.935A4.985,4.985,0,0,0,166.75,47.1a5.047,5.047,0,1,0-7.166,4.507,1.038,1.038,0,0,1,.582.935Z" transform="translate(186.323 68.707)" fill="#5d5d5d"/>
      <path id="Path_448" data-name="Path 448" d="M165.883,21.28h-.312A15.141,15.141,0,0,0,150.43,36.421V49.34h5.338V36.421a9.824,9.824,0,0,1,9.824-9.824h.312a9.824,9.824,0,0,1,9.824,9.824V49.34h5.317V36.421A15.141,15.141,0,0,0,165.883,21.28Z" transform="translate(181.832 48.153)"/>
      <path id="Path_449" data-name="Path 449" d="M181.562,50.917h-5.317a1.038,1.038,0,0,1-1.038-1.038V36.96a8.806,8.806,0,0,0-8.786-8.786h-.312a8.806,8.806,0,0,0-8.786,8.786V49.878a1.038,1.038,0,0,1-1.038,1.038h-5.317a1.038,1.038,0,0,1-1.038-1.038V36.96a16.2,16.2,0,0,1,16.18-16.18h.312A16.2,16.2,0,0,1,182.6,36.96V49.878A1.038,1.038,0,0,1,181.562,50.917Zm-4.279-2.077h3.24V36.96a14.123,14.123,0,0,0-14.1-14.1h-.311a14.123,14.123,0,0,0-14.1,14.1V48.84h3.24V36.96A10.883,10.883,0,0,1,166.11,26.1h.312A10.883,10.883,0,0,1,177.284,36.96Z" transform="translate(181.293 47.614)" fill="#fff"/>
      <path id="Path_450" data-name="Path 450" d="M173.661,43.857h-4.652a1.059,1.059,0,0,1-1.039-1.038,1.039,1.039,0,0,1,1.039-1.038h4.652a1.038,1.038,0,1,1,0,2.077Z" transform="translate(200.722 70.231)" fill="#fff"/>
      <path id="Path_451" data-name="Path 451" d="M173.661,46.077h-4.652a1.059,1.059,0,0,1-1.039-1.038A1.039,1.039,0,0,1,169.008,44h4.652a1.038,1.038,0,0,1,0,2.077Z" transform="translate(200.722 72.621)" fill="#fff"/>
      <path id="Path_452" data-name="Path 452" d="M173.661,48.317h-4.652a1.059,1.059,0,0,1-1.039-1.038,1.039,1.039,0,0,1,1.039-1.038h4.652a1.038,1.038,0,0,1,0,2.077Z" transform="translate(200.722 75.034)" fill="#fff"/>
      <path id="Path_453" data-name="Path 453" d="M85.916,62.237H80.848a1.038,1.038,0,0,1,0-2.077h5.068a1.038,1.038,0,0,1,0,2.077Z" transform="translate(105.776 90.025)" fill="#fff"/>
      <path id="Path_454" data-name="Path 454" d="M110.461,62.237H86.1a1.038,1.038,0,0,1,0-2.077h24.363a1.038,1.038,0,0,1,0,2.077Z" transform="translate(111.43 90.025)" fill="#fff"/>
      <path id="Path_455" data-name="Path 455" d="M125.451,97.017h-4.382a1.038,1.038,0,0,1,0-2.077h4.382a1.038,1.038,0,1,1,0,2.077Z" transform="translate(149.092 127.482)" fill="#fff"/>
      <path id="Path_456" data-name="Path 456" d="M146.6,97.017H125.538a1.038,1.038,0,1,1,0-2.077h20.977a1.04,1.04,0,0,1,.083,2.077Z" transform="translate(153.906 127.482)" fill="#fff"/>
      <path id="Path_457" data-name="Path 457" d="M174.562,148.967H157.468a1.038,1.038,0,0,1,0-2.077h17.093a1.038,1.038,0,0,1,0,2.077Z" transform="translate(188.293 183.431)"/>
      <path id="Path_458" data-name="Path 458" d="M157.694,129.4l-10.094.415,4.694-8.952Z" transform="translate(193.115 166.966)"/>
      <path id="Path_459" data-name="Path 459" d="M153.654,131.876l-10.094.395,4.694-8.931Z" transform="translate(188.764 169.637)"/>
      <path id="Path_460" data-name="Path 460" d="M191.883,113.108a6.9,6.9,0,0,1-2.2,5.3,9.616,9.616,0,0,1-5.753,2.368l-.166,4.32h-3.489l.166-4.382a9.7,9.7,0,0,1-4.632-1.807,6.75,6.75,0,0,1-2.368-3.115V113.3h4.3a4.029,4.029,0,0,0,2.908,2.762l.249-6.231h-.291a10.385,10.385,0,0,1-5.255-2.534,6.231,6.231,0,0,1-1.807-4.735,6.813,6.813,0,0,1,2.077-5.3,9.409,9.409,0,0,1,5.753-2.243l.166-3.718h3.489l-.042,3.842a8.806,8.806,0,0,1,4.154,1.641,5.421,5.421,0,0,1,2.077,3.115v2.513h-4.341a5.13,5.13,0,0,0-.665-1.5,2.783,2.783,0,0,0-1.267-1.059l-.228,5.836h0a11.34,11.34,0,0,1,5.338,2.534,6.231,6.231,0,0,1,1.828,4.881Zm-13.126-10.883a2.451,2.451,0,0,0,.519,1.537,3.469,3.469,0,0,0,1.869,1.1l.187-5.3a3.261,3.261,0,0,0-1.932.935A2.409,2.409,0,0,0,178.757,102.225Zm8,11.174a2.679,2.679,0,0,0-.54-1.682,3.946,3.946,0,0,0-1.828-1.2l-.228,5.67a3.261,3.261,0,0,0,1.932-.935,2.658,2.658,0,0,0,.623-1.849Z" transform="translate(206.613 123.562)" fill="#fff"/>
    </g>
    <g id="zoom-icon-seeklogo.com-1" transform="translate(1990.5 889.5)">
      <g id="Group_74" data-name="Group 74" transform="translate(-648.12 -222.12)">
        <g id="Group_73" data-name="Group 73" transform="translate(0 0)" clip-path="url(#clip-path)">
          <path id="Path_467" data-name="Path 467" d="M-645-219h110.776v110.776H-645Z" transform="translate(642.132 216.132)" fill="#13a0f0"/>
        </g>
      </g>
      <g id="Group_76" data-name="Group 76" transform="translate(-629.864 -187.897)">
        <g id="Group_75" data-name="Group 75" transform="translate(0 0)" clip-path="url(#clip-path-2)">
          <path id="Path_468" data-name="Path 468" d="M-562.8-64.9h73.087v42.247H-562.8Z" transform="translate(559.954 62.074)" fill="#fff"/>
        </g>
      </g>
    </g>
  </g>
</svg>
