<svg xmlns="http://www.w3.org/2000/svg" xmlns:xlink="http://www.w3.org/1999/xlink" width="484.204" height="361.845" viewBox="0 0 484.204 361.845">
  <defs>
    <clipPath id="clip-path">
      <path id="Path_541" data-name="Path 541" d="M1960.053,1289.2v12.915c0-.5-11.493,2.373-11.493,2.9v-12.915a.969.969,0,0,1,.967-.967h.127l9.541-2.9A.969.969,0,0,1,1960.053,1289.2Z" transform="translate(-1948.56 -1288.24)" fill="none"/>
    </clipPath>
    <clipPath id="clip-path-2">
      <rect id="Rectangle_187" data-name="Rectangle 187" width="22.001" height="16.4" fill="#5d5d91"/>
    </clipPath>
  </defs>
  <g id="video" transform="translate(0 0.004)">
    <rect id="Rectangle_139" data-name="Rectangle 139" width="94.103" height="1.167" transform="translate(0 309.26)" fill="#8a8a8a"/>
    <rect id="Rectangle_140" data-name="Rectangle 140" width="228.62" height="1.167" transform="translate(255.585 315.116)"/>
    <rect id="Rectangle_141" data-name="Rectangle 141" width="136.668" height="1.167" transform="translate(68.752 360.674)" fill="#f0dcc1"/>
    <path id="Path_472" data-name="Path 472" d="M831.414,559.661V756.993a10.956,10.956,0,0,1-10.955,10.956H501.96A10.953,10.953,0,0,1,491,756.993V559.661a10.95,10.95,0,0,1,10.955-10.951h318.5a10.953,10.953,0,0,1,10.955,10.953Z" transform="translate(-431.88 -486.617)"/>
    <path id="Path_473" data-name="Path 473" d="M831.414,1598.61v33.226a10.956,10.956,0,0,1-10.955,10.956H501.96A10.953,10.953,0,0,1,491,1631.836V1598.61Z" transform="translate(-431.88 -1361.46)" fill="#5d5d5d"/>
    <rect id="Rectangle_142" data-name="Rectangle 142" width="340.407" height="6.166" transform="translate(59.127 255.316)" fill="#fff"/>
    <path id="Path_474" data-name="Path 474" d="M878.72,1713.726H569.673a3.083,3.083,0,0,1-3.083-3.083h0a3.083,3.083,0,0,1,3.083-3.083H878.72a3.083,3.083,0,0,1,3.083,3.083h0A3.083,3.083,0,0,1,878.72,1713.726Z" transform="translate(-494.866 -1452.244)" fill="#fff"/>
    <path id="Path_475" data-name="Path 475" d="M1797.559,1707.56H1669.29v6.169h128.269a3.085,3.085,0,1,0,0-6.169Z" transform="translate(-1413.705 -1452.244)"/>
    <circle id="Ellipse_44" data-name="Ellipse 44" cx="6.878" cy="6.878" r="6.878" transform="translate(248.707 251.523)" fill="#fff"/>
    <path id="Path_476" data-name="Path 476" d="M1305.4,892.7a41.3,41.3,0,1,1,29.207-12.1A41.3,41.3,0,0,1,1305.4,892.7Zm0-76.107a34.8,34.8,0,1,0,34.8,34.8A34.842,34.842,0,0,0,1305.4,816.59Z" transform="translate(-1076.074 -704.411)" fill="#fff"/>
    <path id="Path_477" data-name="Path 477" d="M1457.972,948.19a4.305,4.305,0,0,1,0,7.458l-14.625,8.444-14.628,8.444a4.307,4.307,0,0,1-6.459-3.73V935.031a4.305,4.305,0,0,1,6.459-3.728l14.624,8.444Z" transform="translate(-1207.865 -804.936)" fill="#fff"/>
    <path id="Path_478" data-name="Path 478" d="M2527,1698.4h-2.711l-20.252-38.074,6.059-.945Z" transform="translate(-2086.524 -1382.703)" fill="#444"/>
    <path id="Path_479" data-name="Path 479" d="M2431.523,1698.4h-2.709l-20.253-38.074,6.059-.945Z" transform="translate(-2006.964 -1382.703)" fill="#444"/>
    <path id="Path_480" data-name="Path 480" d="M2269.18,1698.4h2.711l20.252-38.074-6.059-.945Z" transform="translate(-1890.824 -1382.703)" fill="#444"/>
    <path id="Path_481" data-name="Path 481" d="M2364.65,1698.4h2.711l20.253-38.074-6.059-.945Z" transform="translate(-1970.375 -1382.703)" fill="#444"/>
    <path id="Path_482" data-name="Path 482" d="M2442.965,1545.158h0a28.594,28.594,0,0,1-16.827-36.772l2.029-5.459a28.6,28.6,0,0,1,36.772-16.827h0a28.6,28.6,0,0,1,16.829,36.772l-2.031,5.457a28.6,28.6,0,0,1-36.772,16.829Z" transform="translate(-2042.855 -1266.207)" fill="#444"/>
    <path id="Path_483" data-name="Path 483" d="M2447.949,1540.027h0a26.708,26.708,0,0,1-15.718-34.348l1.9-5.1a26.71,26.71,0,0,1,34.348-15.718h0a26.708,26.708,0,0,1,15.718,34.348l-1.9,5.1A26.71,26.71,0,0,1,2447.949,1540.027Z" transform="translate(-2048.032 -1265.276)"/>
    <path id="Path_484" data-name="Path 484" d="M2451.056,1555.838h0a24.857,24.857,0,0,1-14.63-31.967l1.766-4.745a24.859,24.859,0,0,1,31.968-14.629h0a24.86,24.86,0,0,1,14.63,31.968l-1.766,4.744A24.859,24.859,0,0,1,2451.056,1555.838Z" transform="translate(-2051.625 -1281.732)" fill="#444"/>
    <path id="Path_485" data-name="Path 485" d="M2295.289,1608.275a14.7,14.7,0,0,0-5.1-.737c-2.374.2-8.729,6.249-7.121,6.249s6.738-3.835,7.16-3.138-2.183,2.143-1.531,2.641,6.6-1.11,6.6-1.11Z" transform="translate(-1924.926 -1368.876)" fill="#ff9b77"/>
    <path id="Path_486" data-name="Path 486" d="M2214.463,1432.276l-2.093-.885v5.256l1.531-.537Z" transform="translate(-1843.486 -1192.728)" fill="#fff"/>
    <path id="Path_487" data-name="Path 487" d="M2501.658,1224.27s-7.893,7.023-3.236,23.542c9.546,0,13.381-.92,13.381-.92l-4.405-22.621Z" transform="translate(-2103.365 -1049.536)" fill="#3c3c5e"/>
    <path id="Path_488" data-name="Path 488" d="M2354.753,1434l16.117-.692,7.948-25.859a9.67,9.67,0,0,1,1.037-2.249,9.283,9.283,0,0,1,15.673,9.951l-16.1,25.356-.532.834a4.713,4.713,0,0,1-4.18,2.167l-19.954-.855A16.174,16.174,0,0,1,2354.753,1434Z" transform="translate(-1984.39 -1196.708)" fill="#13a0f0"/>
    <path id="Path_489" data-name="Path 489" d="M2342.892,1957.207l-2.978,8.654s-2.806,2.064-5.169.817-1.734-5.025-1.734-5.025l2.318-8.972Z" transform="translate(-1966.696 -1656.493)" fill="#f9a17b"/>
    <path id="Path_490" data-name="Path 490" d="M2268.854,2008.363l-2.132,6.2-19.362-6.669s1.5-4.6,6.154-3a11.776,11.776,0,0,0,8.19-.02,3.826,3.826,0,0,0,2.448,4.21C2267.12,2010.1,2267.777,2007.993,2268.854,2008.363Z" transform="translate(-1895.39 -1699.714)" fill="#30212b"/>
    <rect id="Rectangle_143" data-name="Rectangle 143" width="0.659" height="20.374" transform="translate(352.275 307.597) rotate(-71.01)" fill="#fff"/>
    <path id="Path_491" data-name="Path 491" d="M2270.766,2006.626l-.645-.124c.027-.142.629-3.5-1.76-3.977l.13-.645C2270.911,2002.365,2271.038,2005.2,2270.766,2006.626Z" transform="translate(-1912.888 -1697.49)" fill="#fff"/>
    <rect id="Rectangle_144" data-name="Rectangle 144" width="1.751" height="0.659" transform="translate(361.46 307.21) rotate(-84.29)" fill="#fff"/>
    <rect id="Rectangle_145" data-name="Rectangle 145" width="1.751" height="0.659" transform="translate(360.797 307.245) rotate(-84.29)" fill="#fff"/>
    <rect id="Rectangle_146" data-name="Rectangle 146" width="1.751" height="0.659" transform="translate(360.134 307.282) rotate(-84.29)" fill="#fff"/>
    <rect id="Rectangle_147" data-name="Rectangle 147" width="1.751" height="0.659" transform="translate(359.472 307.321) rotate(-84.29)" fill="#fff"/>
    <path id="Path_492" data-name="Path 492" d="M2479.427,1973.06l4.444,8s-.333,3.468-2.846,4.39-4.9-2.069-4.9-2.069l-5.125-7.727Z" transform="translate(-2081.741 -1673.476)" fill="#f9a17b"/>
    <path id="Path_493" data-name="Path 493" d="M2469.073,2017.06l3.183,5.728-17.9,9.944s-2.416-4.2,1.881-6.584a11.79,11.79,0,0,0,5.459-6.1,3.836,3.836,0,0,0,4.771,1C2469.214,2019.525,2468.073,2017.614,2469.073,2017.06Z" transform="translate(-2067.309 -1710.139)" fill="#30212b"/>
    <rect id="Rectangle_148" data-name="Rectangle 148" width="20.374" height="0.659" transform="translate(386.501 321.422) rotate(-29.05)" fill="#fff"/>
    <path id="Path_494" data-name="Path 494" d="M2459.9,2078.748c-.088-.117-2.181-2.808-4.133-1.35l-.394-.529c1.979-1.475,4.168.322,5.051,1.479Z" transform="translate(-2068.717 -1759.512)" fill="#fff"/>
    <rect id="Rectangle_149" data-name="Rectangle 149" width="0.659" height="1.751" transform="translate(391.469 313.59) rotate(-42.35)" fill="#fff"/>
    <rect id="Rectangle_150" data-name="Rectangle 150" width="0.659" height="1.751" transform="translate(391.055 314.113) rotate(-42.35)" fill="#fff"/>
    <rect id="Rectangle_151" data-name="Rectangle 151" width="0.659" height="1.751" transform="translate(390.64 314.623) rotate(-42.35)" fill="#fff"/>
    <rect id="Rectangle_152" data-name="Rectangle 152" width="0.659" height="1.751" transform="translate(390.224 315.147) rotate(-42.35)" fill="#fff"/>
    <path id="Path_495" data-name="Path 495" d="M2312.665,1674.968l1.906-.435,34.915-8a14.377,14.377,0,0,1,4.095-.317,13.934,13.934,0,1,1-1.964,27.8l-21.662-1.531,16,29.711c-2.079,3.438-4.639,4.063-9.337,3.668l-28.536-38.248a8.161,8.161,0,0,1-1.424-3.048A8,8,0,0,1,2312.665,1674.968Z" transform="translate(-1944.625 -1417.765)"/>
    <path id="Path_496" data-name="Path 496" d="M2334.27,1716.867l10.281-39.418a5.82,5.82,0,0,1,2.843-3.168l2.891-1.449,20.312-10.171a14.382,14.382,0,0,1,6.415-1.5,14.173,14.173,0,0,1-.138,28.345l-19.717-.1-14.55,30.126C2339.166,1719.693,2337.271,1718.991,2334.27,1716.867Z" transform="translate(-1967.809 -1413.581)"/>
    <path id="Path_497" data-name="Path 497" d="M2498.89,1444.932c17.756-6.126,26.086,17.007,30.765,11.637-4.36-15.992-2.635-28.52,0-47.02,1.254-8.79-7.2-16.078-16.078-16.078l-11.933,4.449c-.47,1.707-2.286,7.019-1.781,11.885Z" transform="translate(-2104.98 -1190.525)" fill="#13a0f0"/>
    <path id="Path_498" data-name="Path 498" d="M2545.905,1338.7V1323.72l-9.162,3.668-3.063,11.306S2535.318,1349.292,2545.905,1338.7Z" transform="translate(-2133.97 -1132.405)" fill="#ff9b77"/>
    <ellipse id="Ellipse_45" data-name="Ellipse 45" cx="9.544" cy="10.928" rx="9.544" ry="10.928" transform="translate(395.059 176.421)" fill="#ff9b77"/>
    <path id="Path_499" data-name="Path 499" d="M2520.184,1217.177l-9.087,2.834s-1.217-9.536,8.043-10.131S2520.184,1217.177,2520.184,1217.177Z" transform="translate(-2115.107 -1037.519)" fill="#3c3c5e"/>
    <path id="Path_500" data-name="Path 500" d="M2560.649,1216.848s2.473,3,4.932,3.368,1.442,15.34,1.442,15.34,6.2-.7,9.409-4.117.742-23.3-12.432-21.916C2556.76,1211.609,2560.649,1216.848,2560.649,1216.848Z" transform="translate(-2155.573 -1037.191)" fill="#3c3c5e"/>
    <path id="Path_501" data-name="Path 501" d="M2349.611,1430.322h0a5.5,5.5,0,0,0,5.809-5.2l.167-2.943-11-.612-.167,2.943a5.5,5.5,0,0,0,5.2,5.809Z" transform="translate(-1976.255 -1213.939)" fill="#fff"/>
    <path id="Path_502" data-name="Path 502" d="M2329.646,1427.119h-.067a3.246,3.246,0,0,1-3.08-3.443h0a2.263,2.263,0,0,1,3.945-1.382,2.237,2.237,0,0,1,.572,1.634c0,.1-.01.214-.015.333-.04.929-.092,2.083-.667,2.6A1.015,1.015,0,0,1,2329.646,1427.119Zm-2.488-3.408a2.607,2.607,0,0,0,2.459,2.749.364.364,0,0,0,.28-.093c.368-.334.417-1.421.448-2.141,0-.118.01-.232.015-.334a1.6,1.6,0,1,0-3.2-.178Z" transform="translate(-1961.329 -1213.914)" fill="#fff"/>
    <path id="Path_503" data-name="Path 503" d="M2362.143,1435.1l-1.961-5.5s-.915,1.911-2,1.866-2.3-7.12-3.618-7.148,1.421,6.244,1.105,6.254c-.667.022-1.4-6.054-2.691-5.708s1.636,6.089,1.132,6.018-1.351-5.456-2.3-5.229,1.232,5.574.969,5.586-1.051-4.282-1.707-4.027-.205,5.8,4.325,6.791,4.574,5.669,4.574,5.669Z" transform="translate(-1981.61 -1216.23)" fill="#ff9b77"/>
    <path id="Path_504" data-name="Path 504" d="M2262.764,1306.267l-.7-1.827-3.872,3.526,1.479,2.244Z" transform="translate(-1881.666 -1086.945)" fill="#fff"/>
    <rect id="Rectangle_153" data-name="Rectangle 153" width="0.659" height="20.072" transform="translate(390.456 227.709) rotate(-6.64)" fill="#fff"/>
    <path id="Path_505" data-name="Path 505" d="M2393.573,1418.264a2.591,2.591,0,0,1,.205.167L2407.6,1430.5c18.63-24.972,17.549-23.69,18.73-24.677.57-.472,1.611-.053,2.844.9a13.23,13.23,0,0,1,.225,20.615l-17.256,14.294-.685.569a4.912,4.912,0,0,1-6.654-.385l-16.969-17.754C2391.143,1423.549,2392.561,1421.909,2393.573,1418.264Z" transform="translate(-2012.438 -1200.659)" fill="#13a0f0"/>
    <path id="Path_506" data-name="Path 506" d="M2299.856,1273.387l-14.086-12.307.433-.5,13.549,11.838,15.4-20.644.529.394Z" transform="translate(-1904.648 -1043.065)" fill="#fff"/>
    <path id="Path_507" data-name="Path 507" d="M2404.532,1506.434a5.235,5.235,0,0,1-3.778-1.6l-17.494-18.3h.759c4.06-.045,5.412-5.5,5.426-5.556l.64.153c-.055.232-1.334,5.4-5.347,6l16.487,17.247a4.6,4.6,0,0,0,6.206.359l.685-.569,23.76-19.675.42.5-24.445,20.25A5.215,5.215,0,0,1,2404.532,1506.434Z" transform="translate(-2008.63 -1263.443)" fill="#fff"/>
    <path id="Path_508" data-name="Path 508" d="M2279.4,1640.161h9.035a1,1,0,0,0,1-1H2278.41A1,1,0,0,0,2279.4,1640.161Z" transform="translate(-1921.263 -1395.249)" fill="#30212b"/>
    <path id="Path_509" data-name="Path 509" d="M2549.278,1362.252a6.776,6.776,0,0,1-2.708-.517l.28-.6a7.035,7.035,0,0,0,4.985-.01l.227.617A8.016,8.016,0,0,1,2549.278,1362.252Z" transform="translate(-2144.711 -1163.577)" fill="#bf7459"/>
    <rect id="Rectangle_154" data-name="Rectangle 154" width="128.291" height="4.792" transform="translate(285.145 245.188)" fill="#8a8a8a"/>
    <rect id="Rectangle_155" data-name="Rectangle 155" width="119.412" height="2.088" transform="translate(289.584 249.982)"/>
    <path id="Path_510" data-name="Path 510" d="M1867.9,1575.43h2.991l-10.218-63.63h-7.583Z" transform="translate(-1544.111 -1259.731)" fill="#8a8a8a"/>
    <path id="Path_511" data-name="Path 511" d="M1695.1,1575.43h-2.99l9.007-63.63h7.582Z" transform="translate(-1409.973 -1259.731)" fill="#8a8a8a"/>
    <path id="Path_512" data-name="Path 512" d="M2410.43,1575.43h2.991L2403.2,1511.8h-7.583Z" transform="translate(-1996.182 -1259.731)" fill="#8a8a8a"/>
    <path id="Path_513" data-name="Path 513" d="M2237.63,1575.43h-2.99l9.007-63.63h7.582Z" transform="translate(-1862.043 -1259.731)" fill="#8a8a8a"/>
    <rect id="Rectangle_156" data-name="Rectangle 156" width="5.259" height="4.315" transform="translate(306.234 211.911)" fill="#8a8a8a"/>
    <rect id="Rectangle_157" data-name="Rectangle 157" width="2.076" height="11.318" transform="translate(313.052 193.512)" fill="#757575"/>
    <path id="Path_514" data-name="Path 514" d="M1954.795,1310.543l-9.559,2.9a1.834,1.834,0,0,1-1.826-1.826v-23.833a1.834,1.834,0,0,1,1.826-1.834l9.559-2.9a1.834,1.834,0,0,1,1.834,1.834v23.844A1.834,1.834,0,0,1,1954.795,1310.543Z" transform="translate(-1642.12 -1098.516)" fill="#5d5d5d"/>
    <path id="Path_515" data-name="Path 515" d="M1949.419,1316.94a.967.967,0,0,1-.859-.96v-23.833a.967.967,0,0,1,.967-.967h.127l9.541-2.9a.967.967,0,0,1,.859.96v23.843a.967.967,0,0,1-.967.967h-.127Z" transform="translate(-1646.411 -1102.874)" fill="#8a8a8a"/>
    <g id="Group_78" data-name="Group 78" transform="translate(302.149 185.4)" clip-path="url(#clip-path)">
      <path id="Path_516" data-name="Path 516" d="M2033.527,1398.155a3.471,3.471,0,0,1,1.2-.167c.559.047,2.051,1.469,1.667,1.469s-1.584-.9-1.682-.739.512.5.36.62a5.75,5.75,0,0,1-1.551-.26Z" transform="translate(-2019.354 -1379.687)" fill="#ff9b77"/>
      <path id="Path_517" data-name="Path 517" d="M1896.27,1221.908l.492-.208v1.235l-.36-.127Z" transform="translate(-1882.241 -1203.401)" fill="#fff"/>
      <path id="Path_518" data-name="Path 518" d="M1982.313,1307.94s1.854,1.649.76,5.529a15.409,15.409,0,0,1-3.143-.217l1.035-5.312Z" transform="translate(-1974.7 -1304.655)"/>
      <path id="Path_519" data-name="Path 519" d="M1984.017,1357.17l-3.785-.167-1.866-6.074a2.222,2.222,0,0,0-.244-.528,2.179,2.179,0,1,0-3.68,2.334l3.782,5.956.125.2a1.108,1.108,0,0,0,.982.512l4.685-.2A3.779,3.779,0,0,0,1984.017,1357.17Z" transform="translate(-1969.844 -1339.193)" fill="#13a0f0"/>
      <path id="Path_520" data-name="Path 520" d="M2025.35,1480.067l.7,2.032a1.3,1.3,0,0,0,1.214.192c.547-.294.408-1.181.408-1.181l-.545-2.111Z" transform="translate(-2012.546 -1447.193)" fill="#f9a17b"/>
      <path id="Path_521" data-name="Path 521" d="M2029.2,1492.11l.5,1.456,4.547-1.566a1.1,1.1,0,0,0-1.446-.705,2.762,2.762,0,0,1-1.923,0,.9.9,0,0,1-.575.989C2029.607,1492.522,2029.452,1492.023,2029.2,1492.11Z" transform="translate(-2015.754 -1457.372)" fill="#30212b"/>
      <rect id="Rectangle_158" data-name="Rectangle 158" width="4.797" height="0.155" transform="matrix(0.948, -0.319, 0.319, 0.948, 14.118, 38.441)" fill="#fff"/>
      <path id="Path_522" data-name="Path 522" d="M2051.032,1491.694c-.063-.334-.033-1,.535-1.114l.03.152c-.562.113-.415.925-.414.934Z" transform="translate(-2033.927 -1456.842)" fill="#fff"/>
      <rect id="Rectangle_159" data-name="Rectangle 159" width="0.155" height="0.412" transform="matrix(0.995, -0.099, 0.099, 0.995, 16.062, 34.021)" fill="#fff"/>
      <rect id="Rectangle_160" data-name="Rectangle 160" width="0.155" height="0.412" transform="translate(16.245 33.986) rotate(-5.71)" fill="#fff"/>
      <rect id="Rectangle_161" data-name="Rectangle 161" width="0.156" height="0.414" transform="translate(18.305 34.909) rotate(-5.711)" fill="#fff"/>
      <rect id="Rectangle_162" data-name="Rectangle 162" width="0.155" height="0.412" transform="translate(16.557 34.005) rotate(-5.71)" fill="#fff"/>
      <path id="Path_523" data-name="Path 523" d="M1989.864,1483.81l-1.044,1.879s.08.814.667,1.031,1.15-.485,1.15-.485l1.2-1.814Z" transform="translate(-1982.107 -1451.201)" fill="#f9a17b"/>
      <path id="Path_524" data-name="Path 524" d="M1985.6,1494.15l-.747,1.344,4.205,2.334a1.1,1.1,0,0,0-.442-1.546,2.768,2.768,0,0,1-1.282-1.434.9.9,0,0,1-1.12.233C1985.567,1494.724,1985.832,1494.279,1985.6,1494.15Z" transform="translate(-1978.799 -1459.817)" fill="#30212b"/>
      <rect id="Rectangle_163" data-name="Rectangle 163" width="0.155" height="4.785" transform="translate(6.134 35.566) rotate(-60.94)" fill="#fff"/>
      <path id="Path_525" data-name="Path 525" d="M2003.624,1508.636l-.124-.094c.207-.272.722-.693,1.187-.347l-.094.123C2004.135,1507.978,2003.645,1508.609,2003.624,1508.636Z" transform="translate(-1994.34 -1471.412)" fill="#fff"/>
      <rect id="Rectangle_164" data-name="Rectangle 164" width="0.412" height="0.155" transform="translate(8.821 36.082) rotate(-47.65)" fill="#fff"/>
      <rect id="Rectangle_165" data-name="Rectangle 165" width="0.411" height="0.155" transform="translate(7.932 34.936) rotate(-47.842)" fill="#fff"/>
      <rect id="Rectangle_166" data-name="Rectangle 166" width="0.412" height="0.155" transform="translate(9.017 36.326) rotate(-47.65)" fill="#fff"/>
      <rect id="Rectangle_167" data-name="Rectangle 167" width="0.412" height="0.155" transform="translate(9.125 36.487) rotate(-47.64)" fill="#fff"/>
      <path id="Path_526" data-name="Path 526" d="M1973.632,1413.792l-.449-.1-8.2-1.881a3.4,3.4,0,0,0-.962-.075,3.273,3.273,0,1,0,.462,6.53l5.087-.359-3.753,6.978c.489.807,1.089.954,2.193.86l6.7-8.984a1.928,1.928,0,0,0,.333-.715,1.881,1.881,0,0,0-1.419-2.253Z" transform="translate(-1958.913 -1391.138)" fill="#30212b"/>
      <path id="Path_527" data-name="Path 527" d="M1971.3,1423.627l-2.414-9.257a1.37,1.37,0,0,0-.667-.743l-.678-.333-4.771-2.389a3.382,3.382,0,0,0-1.5-.352,3.335,3.335,0,1,0,.033,6.656l4.63-.022,3.418,7.075A2.706,2.706,0,0,0,1971.3,1423.627Z" transform="translate(-1956.21 -1390.153)" fill="#382632"/>
      <path id="Path_528" data-name="Path 528" d="M1964.138,1359.775c-4.168-1.439-6.126,4-7.224,2.733,1.024-3.755.619-6.7,0-11.041-.3-2.064,1.691-3.777,3.776-3.777l2.8,1.045a7.69,7.69,0,0,1,.419,2.791Z" transform="translate(-1955.497 -1337.777)" fill="#13a0f0"/>
      <path id="Path_529" data-name="Path 529" d="M1975,1334.818V1331.3l2.151.862.72,2.656S1977.488,1337.306,1975,1334.818Z" transform="translate(-1970.591 -1324.12)" fill="#ff9b77"/>
      <ellipse id="Ellipse_46" data-name="Ellipse 46" cx="2.243" cy="2.566" rx="2.243" ry="2.566" transform="translate(3.89 3.682)" fill="#ff9b77"/>
      <path id="Path_530" data-name="Path 530" d="M1980.726,1306.275l2.135.667a2.035,2.035,0,0,0-1.889-2.379C1978.8,1304.422,1980.726,1306.275,1980.726,1306.275Z" transform="translate(-1974.706 -1301.834)"/>
      <path id="Path_531" data-name="Path 531" d="M1964.643,1306.2a2.442,2.442,0,0,1-1.167.792c-.585.088-.333,3.6-.333,3.6a4.155,4.155,0,0,1-2.211-.967c-.754-.8-.167-5.474,2.92-5.147C1965.555,1304.967,1964.643,1306.2,1964.643,1306.2Z" transform="translate(-1958.622 -1301.757)"/>
      <path id="Path_532" data-name="Path 532" d="M2022.342,1356.336h0a1.294,1.294,0,0,1-1.364-1.222l-.038-.69,2.584-.143.038.69a1.294,1.294,0,0,1-1.22,1.366Z" transform="translate(-2008.872 -1343.269)" fill="#30212b"/>
      <path id="Path_533" data-name="Path 533" d="M2034.83,1355.616a.237.237,0,0,1-.167-.062.936.936,0,0,1-.157-.61v-.077a.538.538,0,0,1,.135-.385.536.536,0,0,1,.927.333h0a.719.719,0,0,1-.249.61.833.833,0,0,1-.475.2Zm.208-1.156h-.022a.377.377,0,0,0-.355.4v.08c0,.167.019.423.105.5a.083.083,0,0,0,.067.022.668.668,0,0,0,.384-.167.564.564,0,0,0,.193-.485h0A.377.377,0,0,0,2035.038,1354.461Z" transform="translate(-2020.175 -1343.298)" fill="#30212b"/>
      <path id="Path_534" data-name="Path 534" d="M2019.24,1357.454l.46-1.294s.215.448.469.439.542-1.667.85-1.679-.333,1.467-.26,1.469c.156,0,.333-1.422.632-1.334s-.384,1.431-.267,1.414.319-1.282.54-1.229-.29,1.309-.228,1.312.247-1,.4-.946.049,1.364-1.015,1.6a1.4,1.4,0,0,0-1.076,1.334Z" transform="translate(-2007.455 -1343.802)" fill="#ff9b77"/>
      <path id="Path_535" data-name="Path 535" d="M1882.02,1192.319l.163-.428.91.827-.347.529Z" transform="translate(-1870.367 -1178.561)" fill="#fff"/>
      <rect id="Rectangle_168" data-name="Rectangle 168" width="4.714" height="0.155" transform="translate(8.757 20.392) rotate(-83.34)" fill="#fff"/>
      <path id="Path_536" data-name="Path 536" d="M1970.686,1353.505c-.015.012-.032.023-.049.038l-3.245,2.834c-4.375-5.864-4.122-5.564-4.4-5.794-.135-.11-.379-.012-.667.212a3.108,3.108,0,0,0-.053,4.844l4.053,3.356.167.133a1.154,1.154,0,0,0,1.564-.09l3.985-4.168C1971.258,1354.747,1970.925,1354.361,1970.686,1353.505Z" transform="translate(-1959.043 -1340.151)" fill="#13a0f0"/>
      <path id="Path_537" data-name="Path 537" d="M1843.567,1184.6l-3.717-4.984.123-.092,3.617,4.849,3.183-2.781.1.117Z" transform="translate(-1835.228 -1168.254)" fill="#fff"/>
      <path id="Path_538" data-name="Path 538" d="M1964.993,1374.2a1.223,1.223,0,0,1-.78-.278l-5.742-4.757.1-.118,5.741,4.755a1.079,1.079,0,0,0,1.457-.083l3.873-4.053c-.942-.14-1.242-1.356-1.256-1.409l.15-.037c0,.013.322,1.294,1.276,1.306h.177l-4.108,4.3A1.23,1.23,0,0,1,1964.993,1374.2Z" transform="translate(-1956.818 -1354.884)" fill="#fff"/>
      <path id="Path_539" data-name="Path 539" d="M2039.016,1405.625h-2.123a.233.233,0,0,1-.233-.235h2.589A.235.235,0,0,1,2039.016,1405.625Z" transform="translate(-2021.971 -1385.857)" fill="#30212b"/>
      <path id="Path_540" data-name="Path 540" d="M1982.114,1340.344a1.892,1.892,0,0,1-.654-.118l.053-.145a1.641,1.641,0,0,0,1.167,0l.067.14A1.626,1.626,0,0,1,1982.114,1340.344Z" transform="translate(-1975.975 -1331.436)" fill="#bf7459"/>
    </g>
    <path id="Path_542" data-name="Path 542" d="M1828.133,1214.773l-9.882,2.578v-7.143l9.882-2.578Z" transform="translate(-1515.08 -1006.277)" fill="#fff"/>
    <circle id="Ellipse_47" data-name="Ellipse 47" cx="1.302" cy="1.302" r="1.302" transform="translate(306.272 206.211) rotate(-45)" fill="#fff"/>
    <path id="Path_543" data-name="Path 543" d="M1844.79,1233.68l.14,1.229,1.129-.615Z" transform="translate(-1537.195 -1027.983)"/>
    <rect id="Rectangle_169" data-name="Rectangle 169" width="2.076" height="11.318" transform="translate(300.073 195.606)" fill="#757575"/>
    <rect id="Rectangle_170" data-name="Rectangle 170" width="2.166" height="13.574" transform="translate(307.897 216.226)" fill="#8a8a8a"/>
    <path id="Path_544" data-name="Path 544" d="M1846.6,1389.07h2.168v14.424a.955.955,0,0,1-.955.955h-.255a.955.955,0,0,1-.956-.955V1389.07Z" transform="translate(-1538.703 -1157.464)" fill="#8a8a8a"/>
    <path id="Path_545" data-name="Path 545" d="M1932.83,1571.707h0a.955.955,0,0,1-.844-1.406l8.417-15.782h2.168l-8.9,16.674A.954.954,0,0,1,1932.83,1571.707Z" transform="translate(-1632.507 -1324.722)" fill="#8a8a8a"/>
    <path id="Path_546" data-name="Path 546" d="M1992.744,1571.707h0a.955.955,0,0,0,.844-1.406l-8.42-15.782H1983l8.9,16.674A.957.957,0,0,0,1992.744,1571.707Z" transform="translate(-1675.108 -1324.722)" fill="#8a8a8a"/>
    <path id="Path_547" data-name="Path 547" d="M192.52,242.91H293.063v63.41a6.706,6.706,0,0,1-6.706,6.706h-87.13a6.706,6.706,0,0,1-6.706-6.706Z" transform="translate(-160.42 -202.411)" fill="#5d5d5d"/>
    <rect id="Rectangle_171" data-name="Rectangle 171" width="100.541" height="16.32" transform="translate(32.1 40.499)" fill="#5d5d5d"/>
    <path id="Path_548" data-name="Path 548" d="M702.226,247.4v7.346l-7.07,4.083-.7.407H683.56l.7-.407,13.427-7.758-13.427-7.752-.7-.405h10.895l.7.405Z" transform="translate(-569.585 -202.411)" fill="#fff"/>
    <path id="Path_549" data-name="Path 549" d="M579.037,251.067l-13.429,7.758-.7.407h-10.9l.7-.407,13.429-7.758-13.429-7.752-.7-.405h10.9l.7.405Z" transform="translate(-461.636 -202.411)" fill="#fff"/>
    <path id="Path_550" data-name="Path 550" d="M449.489,251.067l-13.431,7.758-.7.407h-10.9l.7-.407,13.427-7.758-13.427-7.752-.7-.405h10.895l.7.405Z" transform="translate(-353.687 -202.411)" fill="#fff"/>
    <path id="Path_551" data-name="Path 551" d="M319.947,251.067l-13.431,7.758-.7.407H294.92l.7-.407,13.427-7.758-13.427-7.752-.7-.405h10.895l.7.405Z" transform="translate(-245.746 -202.411)" fill="#fff"/>
    <path id="Path_552" data-name="Path 552" d="M213.029,251.067,199.6,258.825l-.7.407H192.53v-2.618l9.6-5.547-9.6-5.544V242.91H198.9l.7.405Z" transform="translate(-160.428 -202.411)" fill="#fff"/>
    <circle id="Ellipse_48" data-name="Ellipse 48" cx="1.647" cy="1.647" r="1.647" transform="translate(34.106 42.406)" fill="#f0dcc1"/>
    <circle id="Ellipse_49" data-name="Ellipse 49" cx="1.164" cy="1.164" r="1.164" transform="translate(34.59 42.89)" fill="#3c3c5e"/>
    <circle id="Ellipse_50" data-name="Ellipse 50" cx="1.647" cy="1.647" r="1.647" transform="translate(33.793 54.335) rotate(-77.78)" fill="#f0dcc1"/>
    <path id="Path_553" data-name="Path 553" d="M346.174,488.8a1.167,1.167,0,1,1-1.167-1.167A1.167,1.167,0,0,1,346.174,488.8Z" transform="translate(-309.257 -435.722)" fill="#3c3c5e"/>
    <rect id="Rectangle_172" data-name="Rectangle 172" width="89.279" height="0.43" transform="translate(37.733 63.853)" fill="#fff"/>
    <rect id="Rectangle_173" data-name="Rectangle 173" width="89.279" height="0.43" transform="translate(37.733 73.199)" fill="#fff"/>
    <rect id="Rectangle_174" data-name="Rectangle 174" width="89.279" height="0.43" transform="translate(37.733 82.545)" fill="#fff"/>
    <rect id="Rectangle_175" data-name="Rectangle 175" width="89.279" height="0.43" transform="translate(37.733 91.889)" fill="#fff"/>
    <rect id="Rectangle_176" data-name="Rectangle 176" width="89.279" height="0.43" transform="translate(37.733 101.234)" fill="#fff"/>
    <path id="Path_554" data-name="Path 554" d="M638.68,1746.2s2.86,4.335,8.575.79A7.792,7.792,0,0,0,638.68,1746.2Z" transform="translate(-554.936 -1483.666)" fill="#21546f"/>
    <path id="Path_555" data-name="Path 555" d="M647.255,1402.344l-8.575-.79,7.733-60.416a12.089,12.089,0,0,1,2.724-6.291c3.043-3.6,6.469-3.288,8.8-3.073a13.18,13.18,0,0,1,1.426,6.234Z" transform="translate(-554.936 -1139.018)" fill="#13a0f0"/>
    <path id="Path_556" data-name="Path 556" d="M656.21,1092.62h12.824v10.2a6.411,6.411,0,0,1-6.411,6.411h0a6.411,6.411,0,0,1-6.411-6.411v-10.2Z" transform="translate(-546.796 -910.443)" fill="#f9a17b"/>
    <ellipse id="Ellipse_51" data-name="Ellipse 51" cx="10.808" cy="13.056" rx="10.808" ry="13.056" transform="translate(106.98 161.856)" fill="#f9a17b"/>
    <path id="Path_557" data-name="Path 557" d="M808.537,1120.571s13.441,4.79,13.307-1.864-5.722-13.839-15.173-7.852S808.537,1120.571,808.537,1120.571Z" transform="translate(-691.779 -953.165)" fill="#5d5d5d"/>
    <path id="Path_558" data-name="Path 558" d="M764.5,1139.3s-9.429-2.149-10.228,6.9,6.346,15.506,6.346,15.506c5.812,4.669,13.487,4.485,15.593-14.093Z" transform="translate(-651.2 -978.545)" fill="#5d5d5d"/>
    <ellipse id="Ellipse_52" data-name="Ellipse 52" cx="2.108" cy="2.861" rx="2.108" ry="2.861" transform="translate(120.598 174.333)" fill="#f9a17b"/>
    <path id="Path_559" data-name="Path 559" d="M1019.72,1336.161s-2.1-3.295-7.4-1.407A7.584,7.584,0,0,0,1019.72,1336.161Z" transform="translate(-866.277 -1141.112)" fill="#21546f"/>
    <path id="Path_560" data-name="Path 560" d="M1046.2,1294.143h0a.72.72,0,0,0,.905-.467l.667-2.093a.72.72,0,0,0-.469-.905h0a.72.72,0,0,0-.905.467l-.667,2.093A.722.722,0,0,0,1046.2,1294.143Z" transform="translate(-894.089 -1104.843)" fill="#f9a17b"/>
    <path id="Path_561" data-name="Path 561" d="M1046.072,1293.907a.779.779,0,0,1-.238-.037h0a.787.787,0,0,1-.51-.989l.667-2.093a.788.788,0,1,1,1.5.479l-.667,2.093A.788.788,0,0,1,1046.072,1293.907Zm-.2-.167a.654.654,0,0,0,.822-.424l.667-2.093a.654.654,0,1,0-1.245-.4l-.667,2.093a.655.655,0,0,0,.425.822Z" transform="translate(-893.746 -1104.507)" fill="#bf7c5e"/>
    <path id="Path_562" data-name="Path 562" d="M1037.489,1291.363h0a.72.72,0,0,0,.905-.467l.667-2.093a.722.722,0,0,0-.469-.905h0a.72.72,0,0,0-.905.467l-.667,2.093a.72.72,0,0,0,.469.905Z" transform="translate(-886.83 -1102.527)" fill="#f9a17b"/>
    <path id="Path_563" data-name="Path 563" d="M1037.391,1291.129a.783.783,0,0,1-.238-.038h0a.787.787,0,0,1-.51-.989l.667-2.093a.788.788,0,0,1,1.5.479l-.667,2.093A.79.79,0,0,1,1037.391,1291.129Zm-.2-.167a.654.654,0,0,0,.822-.424l.667-2.093a.654.654,0,1,0-1.245-.4l-.667,2.093a.655.655,0,0,0,.425.822Z" transform="translate(-886.513 -1102.191)" fill="#bf7c5e"/>
    <path id="Path_564" data-name="Path 564" d="M1028.677,1288.507h0a.72.72,0,0,0,.905-.468l.667-2.091a.722.722,0,0,0-.469-.907h0a.722.722,0,0,0-.905.468l-.667,2.091A.722.722,0,0,0,1028.677,1288.507Z" transform="translate(-879.487 -1100.147)" fill="#f9a17b"/>
    <path id="Path_565" data-name="Path 565" d="M1028.568,1288.316a.79.79,0,0,1-.238-.037h0a.792.792,0,0,1-.512-.99l.667-2.091a.772.772,0,0,1,.389-.46.787.787,0,0,1,1.112.939l-.667,2.091A.789.789,0,0,1,1028.568,1288.316Zm-.2-.167a.657.657,0,0,0,.822-.425l.667-2.091a.655.655,0,1,0-1.247-.4l-.667,2.091A.659.659,0,0,0,1028.37,1288.149Z" transform="translate(-879.16 -1099.848)" fill="#bf7c5e"/>
    <path id="Path_566" data-name="Path 566" d="M997.846,1245.338a.55.55,0,0,1,.764-.707,6.039,6.039,0,0,1,2.621,2.319.215.215,0,0,0,.405-.073c.333-2.516,1.764-7.863,2.538-7.837.979.032-1.3,7.783-.709,8.023a.309.309,0,0,0,.137.025.466.466,0,0,0,.208.13c1.286.4,3.12,1.206,4.058,1.141a51.469,51.469,0,0,1-1.23,5.988,47.282,47.282,0,0,0,.153,8.427l-7.67-1.784s3.476-4.787,2.683-6.653C1001.206,1252.926,998.928,1247.78,997.846,1245.338Z" transform="translate(-854.177 -1061.844)" fill="#f9a17b"/>
    <path id="Path_567" data-name="Path 567" d="M932.9,1340.22s14.106,18.675,7.453,41.684c-8.519,2.768-8.519-3.5-8.519-3.5Z" transform="translate(-799.207 -1146.153)" fill="#066fab"/>
    <path id="Path_568" data-name="Path 568" d="M652.939,2241.824l-2.129,9.119s1.877,2.714,4.378,2.326,3.1-3.969,3.1-3.969l2.2-9.071Z" transform="translate(-565.044 -1896.098)" fill="#f9a17b"/>
    <path id="Path_569" data-name="Path 569" d="M641.578,2295.554l-1.847,6.669,21.3.462s.018-5.512-4.639-5.51a11.191,11.191,0,0,1-7.336-2.544,3.629,3.629,0,0,1-3.5,3.018C642.568,2297.648,642.658,2295.554,641.578,2295.554Z" transform="translate(-555.811 -1941.428)" fill="#775843"/>
    <path id="Path_570" data-name="Path 570" d="M661.309,2333.74h0l-20.916-.56a.215.215,0,0,1,.012-.43l20.916.562a.215.215,0,0,1,0,.429Z" transform="translate(-556.19 -1973.191)" fill="#fff"/>
    <path id="Path_571" data-name="Path 571" d="M735.167,2316.609l-.167-.028c0-.035.6-3.383,3.276-3.025l-.023.167C735.742,2313.383,735.193,2316.47,735.167,2316.609Z" transform="translate(-635.196 -1957.176)" fill="#fff"/>
    <rect id="Rectangle_177" data-name="Rectangle 177" width="1.289" height="0.172" transform="matrix(0.23, -0.973, 0.973, 0.23, 96.595, 356.466)" fill="#fff"/>
    <rect id="Rectangle_178" data-name="Rectangle 178" width="1.359" height="0.172" transform="matrix(0.23, -0.973, 0.973, 0.23, 97.178, 356.712)" fill="#fff"/>
    <rect id="Rectangle_179" data-name="Rectangle 179" width="1.416" height="0.172" transform="matrix(0.23, -0.973, 0.973, 0.23, 97.76, 356.949)" fill="#fff"/>
    <rect id="Rectangle_180" data-name="Rectangle 180" width="1.659" height="0.172" transform="matrix(0.23, -0.973, 0.973, 0.23, 98.341, 357.178)" fill="#fff"/>
    <path id="Path_572" data-name="Path 572" d="M950.22,2246.959v8.67s1.877,2.714,4.377,2.326,3.1-3.969,3.1-3.969l-1.747-8.237Z" transform="translate(-814.531 -1900.698)" fill="#f9a17b"/>
    <path id="Path_573" data-name="Path 573" d="M940.979,2296.145l-1.849,6.67,21.3.462s.02-5.512-4.637-5.5a11.14,11.14,0,0,1-7.336-2.544,3.626,3.626,0,0,1-3.491,3.018C941.99,2298.248,942.058,2296.145,940.979,2296.145Z" transform="translate(-805.29 -1941.928)" fill="#775843"/>
    <path id="Path_574" data-name="Path 574" d="M960.7,2334.29h0l-20.917-.56a.219.219,0,0,1-.21-.222.215.215,0,0,1,.222-.208l20.915.562a.215.215,0,0,1,0,.429Z" transform="translate(-805.657 -1973.65)" fill="#fff"/>
    <path id="Path_575" data-name="Path 575" d="M1034.587,2317.118l-.167-.029c0-.033.6-3.38,3.276-3.023l-.023.167C1035.157,2313.9,1034.594,2317.087,1034.587,2317.118Z" transform="translate(-884.692 -1957.602)" fill="#fff"/>
    <rect id="Rectangle_181" data-name="Rectangle 181" width="1.289" height="0.172" transform="translate(146.513 356.525) rotate(-76.69)" fill="#fff"/>
    <rect id="Rectangle_182" data-name="Rectangle 182" width="1.359" height="0.172" transform="matrix(0.23, -0.973, 0.973, 0.23, 147.101, 356.796)" fill="#fff"/>
    <rect id="Rectangle_183" data-name="Rectangle 183" width="1.416" height="0.172" transform="matrix(0.23, -0.973, 0.973, 0.23, 147.683, 357.033)" fill="#fff"/>
    <rect id="Rectangle_184" data-name="Rectangle 184" width="1.659" height="0.172" transform="translate(148.259 357.234) rotate(-76.69)" fill="#fff"/>
    <path id="Path_576" data-name="Path 576" d="M520.933,1561.081H508.69l13.219-107.68h26.973Z" transform="translate(-423.873 -1211.068)"/>
    <path id="Path_577" data-name="Path 577" d="M690.768,1561.081h12.244L690.678,1453.4H668.32Z" transform="translate(-556.886 -1211.068)"/>
    <path id="Path_578" data-name="Path 578" d="M809.719,1750.051a.21.21,0,0,1-.185-.108l-6.046-10.551a.215.215,0,0,1,.373-.213l6.046,10.554a.213.213,0,0,1-.08.293A.2.2,0,0,1,809.719,1750.051Z" transform="translate(-692.241 -1478.5)" fill="#fff"/>
    <path id="Path_579" data-name="Path 579" d="M944.451,1383.364h0c3.875.737,7.74-2.479,8.635-7.185l5.434-37.1a9.465,9.465,0,0,1-7.4-1.407l-12.058,35.84C938.163,1378.216,940.577,1382.627,944.451,1383.364Z" transform="translate(-805.077 -1144.029)" fill="#13a0f0"/>
    <path id="Path_580" data-name="Path 580" d="M942.568,1459.628a.2.2,0,0,1-.068-.012c-3.545-1.2-5.582-5.451-4.739-9.888a.183.183,0,0,1,0-.028l6.853-20.365a.215.215,0,1,1,.409.137l-6.841,20.36c-.8,4.222,1.117,8.255,4.457,9.386a.215.215,0,0,1-.07.419Z" transform="translate(-803.992 -1220.287)" fill="#fff"/>
    <rect id="Rectangle_185" data-name="Rectangle 185" width="0.143" height="14.151" transform="translate(134.964 209.388) rotate(-3.66)" fill="#21546f"/>
    <path id="Path_581" data-name="Path 581" d="M746.817,1387.417H703.6l1.167-47.065a9.182,9.182,0,0,1,9.182-9.182h23.683a9.184,9.184,0,0,1,9.184,9.182Z" transform="translate(-609.032 -1138.612)" fill="#13a0f0"/>
    <path id="Path_582" data-name="Path 582" d="M702.522,1470.6H702.5a.215.215,0,0,1-.2-.232l3.316-39.432a.214.214,0,1,1,.427.037l-3.315,39.432A.213.213,0,0,1,702.522,1470.6Z" transform="translate(-607.953 -1221.584)" fill="#fff"/>
    <path id="Path_583" data-name="Path 583" d="M643.612,1752l-.767,2.066a12.824,12.824,0,0,0-.29,8.083c.634,2.157,1.4,4.325,1.911,4.325,1.019,0,1.019-8.443,1.019-8.443s.437,4.222,1.167,4.222,1.819-3.437.727-9.906Z" transform="translate(-557.734 -1489.274)" fill="#f9a17b"/>
    <path id="Path_584" data-name="Path 584" d="M2536.081,796.29h44a6.451,6.451,0,0,1,6.451,6.454v15.248a6.451,6.451,0,0,1-6.451,6.451H2529.63v-21.7A6.451,6.451,0,0,1,2536.081,796.29Z" transform="translate(-2107.847 -663.522)"/>
    <path id="Path_585" data-name="Path 585" d="M2530.834,974.817l9.7-9.7h-10.9Z" transform="translate(-2107.847 -804.202)"/>
    <path id="Path_586" data-name="Path 586" d="M2559.332,825.17l2.334,4.729,5.217.759-3.775,3.682.89,5.2-4.667-2.454-4.667,2.454.89-5.2-3.775-3.682L2557,829.9Z" transform="translate(-2126.304 -687.587)" fill="#fff"/>
    <path id="Path_587" data-name="Path 587" d="M2662.5,825.17l2.333,4.729,5.219.759-3.777,3.682.892,5.2-4.667-2.454-4.669,2.454.892-5.2-3.777-3.682,5.219-.759Z" transform="translate(-2212.271 -687.587)" fill="#fff"/>
    <path id="Path_588" data-name="Path 588" d="M2765.683,825.17l2.333,4.729,5.219.759-3.777,3.682.892,5.2-4.667-2.454-4.669,2.454.892-5.2-3.777-3.682,5.219-.759Z" transform="translate(-2298.248 -687.587)" fill="#fff"/>
    <ellipse id="Ellipse_53" data-name="Ellipse 53" cx="27.608" cy="7.908" rx="27.608" ry="7.908" transform="translate(37.699 243.289) rotate(-84.96)" fill="#5d5d5d"/>
    <path id="Path_589" data-name="Path 589" d="M429.4,1650.506c-5.836,5.281-9.721,10.269-11.233,8.6s.415-9.241,6.246-14.521,13.357-6.268,14.87-4.6S435.231,1645.227,429.4,1650.506Z" transform="translate(-370.775 -1395.319)" fill="#757575"/>
    <path id="Path_590" data-name="Path 590" d="M247.932,1558.657c5.562,5.561,6.486,12.505,4.892,14.1s-5.739-3.278-11.3-8.837-10.74-7.825-9.146-9.417S242.369,1553.094,247.932,1558.657Z" transform="translate(-216.135 -1323.986)" fill="#5d5d5d"/>
    <path id="Path_591" data-name="Path 591" d="M299.24,1627.924h-.017a.215.215,0,0,1-.2-.23,115.812,115.812,0,0,0-.68-21.5,58.581,58.581,0,0,0-4.353-16.5c-2.516-5.492-5.906-9.229-10.076-11.1a.215.215,0,0,1,.177-.392c4.268,1.919,7.732,5.729,10.293,11.321a58.99,58.99,0,0,1,4.387,16.622,116.284,116.284,0,0,1,.682,21.582A.215.215,0,0,1,299.24,1627.924Z" transform="translate(-259.225 -1344.442)" fill="#a1a1a1"/>
    <path id="Path_592" data-name="Path 592" d="M390.522,1452.588h-.017a.215.215,0,0,1-.2-.23l6.4-82.255a.212.212,0,0,1,.23-.2.215.215,0,0,1,.2.23l-6.4,82.253A.215.215,0,0,1,390.522,1452.588Z" transform="translate(-347.976 -1170.889)" fill="#a1a1a1"/>
    <path id="Path_593" data-name="Path 593" d="M403.925,1702.036a.215.215,0,0,1-.215-.21,53.459,53.459,0,0,1,1.737-12.929c1.689-6.433,5.4-15.1,13.506-19.87a.215.215,0,1,1,.218.37c-7.978,4.692-11.64,13.247-13.309,19.6a52.908,52.908,0,0,0-1.726,12.822.214.214,0,0,1-.21.219Z" transform="translate(-359.145 -1420.107)" fill="#a1a1a1"/>
    <path id="Path_594" data-name="Path 594" d="M269.779,1722.718c4.3,3.89,7.161,7.567,8.277,6.336s-.307-6.809-4.6-10.7-9.837-4.619-10.958-3.388S265.482,1718.827,269.779,1722.718Z" transform="translate(-241.321 -1457.96)" fill="#5d5d5d"/>
    <path id="Path_595" data-name="Path 595" d="M311.413,1760.447h0a.217.217,0,0,1-.21-.22,38.95,38.95,0,0,0-1.271-9.436c-1.227-4.669-3.92-10.958-9.781-14.4a.215.215,0,1,1,.218-.37c5.991,3.523,8.734,9.926,9.981,14.673a39.493,39.493,0,0,1,1.282,9.542.217.217,0,0,1-.22.215Z" transform="translate(-272.759 -1475.927)" fill="#a1a1a1"/>
    <rect id="Rectangle_186" data-name="Rectangle 186" width="22.001" height="16.4" transform="translate(30.965 282.496)"/>
    <g id="Group_79" data-name="Group 79" transform="translate(30.965 282.494)" clip-path="url(#clip-path-2)">
      <path id="Path_596" data-name="Path 596" d="M303.285,1900.73a.236.236,0,0,1-.068-.01l-2.518-.834-2.518.834a.215.215,0,0,1-.137,0l-2.516-.834-2.519.834a.21.21,0,0,1-.135,0l-2.518-.834-2.518.834a.21.21,0,0,1-.135,0l-2.518-.834-2.518.834a.215.215,0,0,1-.137,0l-2.584-.86a.215.215,0,1,1,.135-.407l2.518.834,2.518-.834a.208.208,0,0,1,.135,0l2.518.834,2.518-.834a.213.213,0,0,1,.137,0l2.518.834,2.518-.834a.208.208,0,0,1,.135,0l2.518.834,2.518-.834a.208.208,0,0,1,.135,0l2.519.834,2.518-.834a.208.208,0,0,1,.135,0l2.519.834,2.521-.834a.215.215,0,1,1,.135.407l-2.588.86a.21.21,0,0,1-.135,0l-2.519-.834-2.518.834A.245.245,0,0,1,303.285,1900.73Z" transform="translate(-286.844 -1894.621)" fill="#3c3c5e"/>
      <path id="Path_597" data-name="Path 597" d="M308.458,1914.531a.188.188,0,0,1-.067-.012l-2.519-.834-2.518.834a.214.214,0,0,1-.137,0l-2.518-.834-2.518.834a.214.214,0,0,1-.137,0l-2.516-.834-2.519.834a.21.21,0,0,1-.135,0l-2.518-.834-2.518.834a.21.21,0,0,1-.135,0l-2.518-.834-2.518.834a.214.214,0,0,1-.137,0l-2.584-.859a.215.215,0,1,1,.135-.407l2.518.834,2.518-.834a.211.211,0,0,1,.135,0l2.518.834,2.518-.834a.215.215,0,0,1,.137,0l2.518.834,2.518-.834a.211.211,0,0,1,.135,0l2.518.834,2.518-.834a.211.211,0,0,1,.135,0l2.519.834,2.518-.834a.211.211,0,0,1,.135,0l2.519.834,2.521-.834a.215.215,0,1,1,.135.407l-2.588.87A.2.2,0,0,1,308.458,1914.531Z" transform="translate(-286.845 -1906.12)" fill="#3c3c5e"/>
      <path id="Path_598" data-name="Path 598" d="M303.37,1928.414a.189.189,0,0,1-.068-.012l-2.518-.834-2.518.834a.213.213,0,0,1-.137,0l-2.516-.834-2.519.834a.208.208,0,0,1-.135,0l-2.518-.834-2.518.834a.208.208,0,0,1-.135,0l-2.518-.834-2.518.834a.213.213,0,0,1-.137,0l-2.584-.859a.215.215,0,1,1,.135-.408l2.518.834,2.518-.834a.234.234,0,0,1,.135,0l2.518.834,2.518-.834a.237.237,0,0,1,.137,0l2.518.834,2.518-.834a.234.234,0,0,1,.135,0l2.518.834,2.518-.834a.234.234,0,0,1,.135,0l2.519.834,2.518-.834a.233.233,0,0,1,.135,0l2.519.834,2.521-.834a.215.215,0,1,1,.135.408l-2.588.859a.208.208,0,0,1-.135,0l-2.519-.834-2.518.834A.2.2,0,0,1,303.37,1928.414Z" transform="translate(-286.93 -1917.693)" fill="#3c3c5e"/>
      <path id="Path_599" data-name="Path 599" d="M303.37,1942.243a.237.237,0,0,1-.068-.012l-2.518-.834-2.518.834a.213.213,0,0,1-.137,0l-2.516-.834-2.519.834a.208.208,0,0,1-.135,0l-2.518-.834-2.518.834a.208.208,0,0,1-.135,0l-2.518-.834-2.518.834a.213.213,0,0,1-.137,0l-2.584-.859a.215.215,0,0,1,.135-.409l2.518.834,2.518-.834a.208.208,0,0,1,.135,0l2.518.834,2.518-.834a.213.213,0,0,1,.137,0l2.518.834,2.518-.834a.208.208,0,0,1,.135,0l2.518.834,2.518-.834a.208.208,0,0,1,.135,0l2.519.834,2.518-.834a.208.208,0,0,1,.135,0l2.519.834,2.521-.834a.215.215,0,0,1,.135.409l-2.588.859a.208.208,0,0,1-.135,0l-2.519-.834-2.518.834A.251.251,0,0,1,303.37,1942.243Z" transform="translate(-286.93 -1929.215)" fill="#3c3c5e"/>
    </g>
    <path id="Path_600" data-name="Path 600" d="M197.932,1680.056H173.49l-.98-2.856h26.4Z" transform="translate(-143.746 -1397.552)"/>
    <rect id="Rectangle_188" data-name="Rectangle 188" width="26.104" height="1.082" transform="translate(28.912 282.519)" fill="#888"/>
    <rect id="Rectangle_189" data-name="Rectangle 189" width="1.162" height="26.821" transform="translate(41.382 283.061)" fill="#8a8a8a"/>
    <path id="Path_601" data-name="Path 601" d="M306,1721.783l-11.356-27.363-1.075.447,11.173,26.916Z" transform="translate(-244.621 -1411.901)" fill="#8a8a8a"/>
    <path id="Path_602" data-name="Path 602" d="M136.489,1721.783l11.173-26.916-1.074-.447-11.358,27.363Z" transform="translate(-112.682 -1411.901)" fill="#8a8a8a"/>
    <path id="Path_603" data-name="Path 603" d="M2039.452,426.56l-2.709,8.59-11.928,37.811a.334.334,0,0,1-.322.237h-69.771a.322.322,0,0,1-.272-.138.334.334,0,0,1-.05-.3l11.863-37.6,2.775-8.792a.333.333,0,0,1,.322-.237h69.771a.333.333,0,0,1,.322.439Z" transform="translate(-1651.263 -384.476)"/>
    <path id="Path_604" data-name="Path 604" d="M2036.743,480.23l-11.928,37.811a.334.334,0,0,1-.322.237h-69.771a.322.322,0,0,1-.272-.138.334.334,0,0,1-.05-.3l11.863-37.6Z" transform="translate(-1651.263 -429.556)" fill="#5d5d5d"/>
    <path id="Path_605" data-name="Path 605" d="M1855.64,360.757l9.037-28.647h60.632l-9.039,28.647Z" transform="translate(-1546.236 -276.739)"/>
    <path id="Path_606" data-name="Path 606" d="M2073.1,506.469l4.085,10.2,8.4-11.488Z" transform="translate(-1727.438 -420.951)" fill="#5d5d5d"/>
    <circle id="Ellipse_54" data-name="Ellipse 54" cx="1.277" cy="1.277" r="1.277" transform="translate(319.861 46.32) rotate(-45)" fill="#fff"/>
    <circle id="Ellipse_55" data-name="Ellipse 55" cx="1.277" cy="1.277" r="1.277" transform="translate(324.393 46.318) rotate(-45)" fill="#fff"/>
    <circle id="Ellipse_56" data-name="Ellipse 56" cx="1.277" cy="1.277" r="1.277" transform="translate(329.061 45.631) rotate(-22.5)" fill="#fff"/>
    <circle id="Ellipse_57" data-name="Ellipse 57" cx="6.203" cy="6.203" r="6.203" transform="translate(338.036 60.89)" fill="#fff"/>
    <path id="Path_607" data-name="Path 607" d="M2197.2,562.8c-1.452,1.15-2.561,2.029-4.011,3.181V559.62Z" transform="translate(-1850.252 -495.708)" fill="#b8cacf"/>
    <path id="Path_608" data-name="Path 608" d="M2032.007,639.6l-1.587,1.259V638.34Z" transform="translate(-1714.622 -561.303)" fill="#b8cacf"/>
    <rect id="Rectangle_190" data-name="Rectangle 190" width="48.027" height="0.812" transform="translate(319.787 77.889)" fill="#787878"/>
    <path id="Path_609" data-name="Path 609" d="M2058.274,643.479c-2.219,0-4.479-.01-6.855-.03a.61.61,0,0,1,0-1.219h13.464a.61.61,0,0,1,0,1.219C2062.674,643.469,2060.493,643.479,2058.274,643.479Z" transform="translate(-1731.638 -564.544)" fill="#b8cacf"/>
    <path id="Path_610" data-name="Path 610" d="M1899.572,371.155l-2.709,8.59-11.928,37.8a.333.333,0,0,1-.318.23h-69.775a.339.339,0,0,1-.322-.44l11.863-37.6,2.776-8.792a.333.333,0,0,1,.32-.237h69.771a.333.333,0,0,1,.273.138A.323.323,0,0,1,1899.572,371.155Z" transform="translate(-1534.706 -338.297)"/>
    <path id="Path_611" data-name="Path 611" d="M1826.383,424.9l-11.863,37.6a.339.339,0,0,0,.322.44h43.485l2.8,7,5.122-7h18.363a.333.333,0,0,0,.322-.237l11.928-37.8Z" transform="translate(-1534.706 -383.451)" fill="#5d5d5d"/>
    <path id="Path_612" data-name="Path 612" d="M1859,468.234a.3.3,0,0,1-.053,0,.426.426,0,0,1-.344-.265l-2.7-6.736h-43.2a.751.751,0,0,1-.615-.312.761.761,0,0,1-.113-.682l11.863-37.6a.43.43,0,0,1,.407-.3h70.48a.427.427,0,0,1,.407.555l-11.927,37.8a.764.764,0,0,1-.73.535h-18.143l-5,6.826A.427.427,0,0,1,1859,468.234Zm-46.166-7.855H1856.2a.427.427,0,0,1,.4.267l2.518,6.288,4.669-6.381a.424.424,0,0,1,.344-.167h18.295L1894.15,423.2h-69.584Z" transform="translate(-1532.576 -381.318)"/>
    <path id="Path_613" data-name="Path 613" d="M1715.76,305.427l9.039-28.647h60.632l-9.041,28.647Z" transform="translate(-1429.679 -230.634)"/>
    <circle id="Ellipse_58" data-name="Ellipse 58" cx="1.277" cy="1.277" r="1.277" transform="translate(296.794 38.036) rotate(-76.72)" fill="#fff"/>
    <circle id="Ellipse_59" data-name="Ellipse 59" cx="1.277" cy="1.277" r="1.277" transform="translate(301.326 38.038) rotate(-76.72)" fill="#fff"/>
    <circle id="Ellipse_60" data-name="Ellipse 60" cx="1.277" cy="1.277" r="1.277" transform="translate(305.857 38.037) rotate(-76.72)" fill="#fff"/>
    <circle id="Ellipse_61" data-name="Ellipse 61" cx="6.203" cy="6.203" r="6.203" transform="translate(314.713 51.663)" fill="#fff"/>
    <path id="Path_614" data-name="Path 614" d="M2057.323,507.47l-4.013,3.18V504.29Z" transform="translate(-1733.695 -449.604)"/>
    <path id="Path_615" data-name="Path 615" d="M1892.129,584.259l-1.589,1.259V583Z" transform="translate(-1598.065 -515.19)" fill="#fff"/>
    <rect id="Rectangle_191" data-name="Rectangle 191" width="48.027" height="0.812" transform="translate(296.465 68.664)" fill="#787878"/>
    <path id="Path_616" data-name="Path 616" d="M1918.4,588.149c-2.219,0-4.477-.01-6.853-.03a.61.61,0,0,1,0-1.219h13.464a.61.61,0,0,1,0,1.219C1922.8,588.139,1920.622,588.149,1918.4,588.149Z" transform="translate(-1615.09 -518.44)" fill="#fff"/>
    <path id="Path_617" data-name="Path 617" d="M1068.231,333.194a4.322,4.322,0,1,1-3.058-1.268A4.324,4.324,0,0,1,1068.231,333.194Z" transform="translate(-906.715 -305.98)" fill="#ffeacd"/>
    <path id="Path_618" data-name="Path 618" d="M1050.123,283.848l-3.056,3.058h0a8.642,8.642,0,0,0-12.229,0l-3.058-3.058a12.962,12.962,0,0,1,18.343,0Z" transform="translate(-882.492 -262.75)" fill="#ffeacd"/>
    <path id="Path_619" data-name="Path 619" d="M1025.666,234.5l-3.058,3.056a17.287,17.287,0,0,0-24.46,0L995.09,234.5a21.607,21.607,0,0,1,30.575,0Z" transform="translate(-851.92 -219.517)" fill="#ffeacd"/>
    <path id="Path_620" data-name="Path 620" d="M1001.226,185.159l-3.058,3.058a25.928,25.928,0,0,0-36.682,0h0l-3.066-3.058a30.251,30.251,0,0,1,42.806,0Z" transform="translate(-821.364 -176.29)" fill="#13a0f0"/>
    <path id="Path_621" data-name="Path 621" d="M1068.231,333.194a4.322,4.322,0,1,1-3.058-1.268A4.324,4.324,0,0,1,1068.231,333.194Z" transform="translate(-906.715 -305.98)" fill="#ffeacd"/>
    <path id="Path_622" data-name="Path 622" d="M1050.123,283.848l-3.056,3.058h0a8.642,8.642,0,0,0-12.229,0l-3.058-3.058a12.962,12.962,0,0,1,18.343,0Z" transform="translate(-882.492 -262.75)" fill="#ffeacd"/>
    <path id="Path_623" data-name="Path 623" d="M1025.666,234.5l-3.058,3.056a17.287,17.287,0,0,0-24.46,0L995.09,234.5a21.607,21.607,0,0,1,30.575,0Z" transform="translate(-851.92 -219.517)" fill="#ffeacd"/>
    <path id="Path_624" data-name="Path 624" d="M1068.231,333.194a4.322,4.322,0,1,1-3.058-1.268A4.324,4.324,0,0,1,1068.231,333.194Z" transform="translate(-906.715 -305.98)" fill="#ffeacd"/>
    <path id="Path_625" data-name="Path 625" d="M1050.123,283.848l-3.056,3.058h0a8.642,8.642,0,0,0-12.229,0l-3.058-3.058a12.962,12.962,0,0,1,18.343,0Z" transform="translate(-882.492 -262.75)" fill="#ffeacd"/>
    <path id="Path_626" data-name="Path 626" d="M1025.666,234.5l-3.058,3.056a17.287,17.287,0,0,0-24.46,0L995.09,234.5a21.607,21.607,0,0,1,30.575,0Z" transform="translate(-851.92 -219.517)" fill="#13a0f0"/>
    <path id="Path_627" data-name="Path 627" d="M1068.231,333.194a4.322,4.322,0,1,1-3.058-1.268A4.324,4.324,0,0,1,1068.231,333.194Z" transform="translate(-906.715 -305.98)" fill="#ffeacd"/>
    <path id="Path_628" data-name="Path 628" d="M1050.123,283.848l-3.056,3.058h0a8.642,8.642,0,0,0-12.229,0l-3.058-3.058a12.962,12.962,0,0,1,18.343,0Z" transform="translate(-882.492 -262.75)" fill="#ffeacd"/>
    <path id="Path_629" data-name="Path 629" d="M1068.231,333.194a4.322,4.322,0,1,1-3.058-1.268A4.324,4.324,0,0,1,1068.231,333.194Z" transform="translate(-906.715 -305.98)" fill="#ffeacd"/>
    <path id="Path_630" data-name="Path 630" d="M1050.123,283.848l-3.056,3.058h0a8.642,8.642,0,0,0-12.229,0l-3.058-3.058a12.962,12.962,0,0,1,18.343,0Z" transform="translate(-882.492 -262.75)" fill="#13a0f0"/>
    <path id="Path_631" data-name="Path 631" d="M1068.215,339.307a4.319,4.319,0,1,1,1.268-3.057A4.325,4.325,0,0,1,1068.215,339.307Z" transform="translate(-906.699 -305.978)" fill="#ffeacd"/>
    <path id="Path_632" data-name="Path 632" d="M1068.215,339.307a4.319,4.319,0,1,1,1.268-3.057A4.325,4.325,0,0,1,1068.215,339.307Z" transform="translate(-906.699 -305.978)" fill="#13a0f0"/>
  </g>
</svg>
