<svg xmlns="http://www.w3.org/2000/svg" width="314.261" height="302.536" viewBox="0 0 314.261 302.536">
  <g id="busy-graphics" transform="translate(-0.008)">
    <g id="Floor" transform="translate(0.007 120.502)">
      <path id="Path_2664" data-name="Path 2664" d="M280.24,235.571c-61.56-35.548-161.049-35.548-222.213,0s-60.833,93.174.721,128.715,161.056,35.548,222.219,0S341.807,271.125,280.24,235.571Z" transform="translate(-12.367 -208.91)" fill="#e5f6ff"/>
    </g>
    <g id="Shadows" transform="translate(18.865 135.957)">
      <path id="Path_2665" data-name="Path 2665" d="M74.135,302.6l85.781-49.91a1.514,1.514,0,0,0,0-2.645l-30.2-17.556a1.534,1.534,0,0,0-1.527,0L41.656,282.852a1.521,1.521,0,0,0,0,2.645L71.1,302.6a3.028,3.028,0,0,0,3.035-.007Z" transform="translate(-40.886 -232.282)" fill="#e6e6e6"/>
      <path id="Path_2666" data-name="Path 2666" d="M94.505,339.626l54.141-31.276,43.238,24.9a28.433,28.433,0,0,1,7.7-6.275c15.413-8.9,40.335-8.9,55.636,0s15.208,23.328-.179,32.228a46.287,46.287,0,0,1-10.58,4.358l4.344,2.5a1.984,1.984,0,0,1,0,3.405l-50.253,29a7.849,7.849,0,0,1-7.849,0l-96.2-55.431a1.984,1.984,0,0,1,0-3.405Z" transform="translate(-58.723 -258.052)" fill="#e6e6e6"/>
      <path id="Path_2667" data-name="Path 2667" d="M415.661,392.329c-5.23-3.022-13.681-3.022-18.878,0s-5.164,7.935.06,10.93,13.681,3.022,18.878,0S420.885,395.351,415.661,392.329Z" transform="translate(-160.14 -285.733)" fill="#e6e6e6"/>
    </g>
    <g id="Plant" transform="translate(237.47 171.159)">
      <path id="Path_2668" data-name="Path 2668" d="M419.212,367.22l-12.663.37-12.663-.37c-.542,8.55,1.124,17.265,3.425,21.516h0a5.759,5.759,0,0,0,2.506,2.552,14.863,14.863,0,0,0,13.482,0,5.634,5.634,0,0,0,2.506-2.645C418.1,384.392,419.755,375.723,419.212,367.22Z" transform="translate(-379.043 -313.197)" fill="#fff"/>
      <path id="Path_2669" data-name="Path 2669" d="M415.521,358.28c4.966,2.863,4.986,7.5.06,10.368s-12.94,2.863-17.906,0-4.986-7.5-.053-10.368S410.562,355.417,415.521,358.28Z" transform="translate(-379.094 -309.441)" fill="#ebebeb"/>
      <path id="Path_2670" data-name="Path 2670" d="M414.992,360.241c3.868,2.235,3.888,5.858.046,8.093a15.4,15.4,0,0,1-13.972,0c-3.868-2.235-3.888-5.858-.046-8.093A15.4,15.4,0,0,1,414.992,360.241Z" transform="translate(-380.522 -310.265)" fill="#e0e0e0"/>
      <g id="Group_282" data-name="Group 282" transform="translate(17.63 48.3)" opacity="0.15">
        <path id="Path_2671" data-name="Path 2671" d="M414.992,360.241c3.868,2.235,3.888,5.858.046,8.093a15.4,15.4,0,0,1-13.972,0c-3.868-2.235-3.888-5.858-.046-8.093A15.4,15.4,0,0,1,414.992,360.241Z" transform="translate(-398.152 -358.565)"/>
      </g>
      <path id="Path_2672" data-name="Path 2672" d="M431.367,285.52c-28.532,9.337-28.79,28.433-22.356,42.021,1.62,2.751,6.533,4.225,10.8-12.676l-7.5.959,8.755-4.424,2.268-6.784-7.274.542,9.257-3.888a136.586,136.586,0,0,1,6.044-15.751Z" transform="translate(-383.045 -285.52)" fill="#ba68c8"/>
      <path id="Path_2673" data-name="Path 2673" d="M431.367,285.52c-28.532,9.337-28.79,28.433-22.356,42.021,1.62,2.751,6.533,4.225,10.8-12.676l-7.5.959,8.755-4.424,2.268-6.784-7.274.542,9.257-3.888a136.586,136.586,0,0,1,6.044-15.751Z" transform="translate(-383.045 -285.52)" opacity="0.2"/>
      <path id="Path_2674" data-name="Path 2674" d="M431.367,285.52c-28.532,9.337-28.79,28.433-22.356,42.021,1.62,2.751,6.533,4.225,10.8-12.676l-7.5.959,8.755-4.424,2.268-6.784-7.274.542,9.257-3.888a136.586,136.586,0,0,1,6.044-15.751Z" transform="translate(-383.045 -285.52)" fill="#0085d1"/>
      <path id="Path_2675" data-name="Path 2675" d="M425.07,292.73c-15.05,11.419-16.405,24.512-12.147,38.179C411.409,318.875,409.783,306.708,425.07,292.73Z" transform="translate(-384.815 -287.962)" fill="#fff"/>
      <path id="Path_2676" data-name="Path 2676" d="M371.49,314.84c28.122,3.967,31.534,21.695,27.8,35.422-1.058,2.83-5.382,5.019-12.173-10.011l7.141-.35-8.867-2.645-3.24-5.951,6.864-.721-9.257-2.083A129.385,129.385,0,0,0,371.49,314.84Z" transform="translate(-371.49 -295.453)" fill="#ba68c8"/>
      <path id="Path_2677" data-name="Path 2677" d="M371.49,314.84c28.122,3.967,31.534,21.695,27.8,35.422-1.058,2.83-5.382,5.019-12.173-10.011l7.141-.35-8.867-2.645-3.24-5.951,6.864-.721-9.257-2.083A129.385,129.385,0,0,0,371.49,314.84Z" transform="translate(-371.49 -295.453)" fill="#fff" opacity="0.2"/>
      <path id="Path_2678" data-name="Path 2678" d="M371.49,314.84c28.122,3.967,31.534,21.695,27.8,35.422-1.058,2.83-5.382,5.019-12.173-10.011l7.141-.35-8.867-2.645-3.24-5.951,6.864-.721-9.257-2.083A129.385,129.385,0,0,0,371.49,314.84Z" transform="translate(-371.49 -295.453)" fill="#13a0f0"/>
      <path id="Path_2679" data-name="Path 2679" d="M384.05,319.53c15.909,8.14,19.354,20.1,17.661,33.538C401.116,341.608,400.607,330.01,384.05,319.53Z" transform="translate(-375.745 -297.042)" fill="#fff"/>
      <path id="Path_2680" data-name="Path 2680" d="M441.956,324.89c-25.788.423-30.853,16.022-29.028,28.81.661,2.645,4.291,5.131,12.087-7.657l-6.394-1.117,8.292-1.415,3.584-4.986-6.11-1.408,8.6-.84A117.879,117.879,0,0,1,441.956,324.89Z" transform="translate(-385.414 -298.857)" fill="#ba68c8"/>
      <path id="Path_2681" data-name="Path 2681" d="M435.092,327.71c-15.255,5.554-19.691,15.955-19.672,28.254C417.238,345.7,419,335.3,435.092,327.71Z" transform="translate(-386.372 -299.813)" fill="#fff"/>
      <path id="Path_2682" data-name="Path 2682" d="M441.956,324.89c-25.788.423-30.853,16.022-29.028,28.81.661,2.645,4.291,5.131,12.087-7.657l-6.394-1.117,8.292-1.415,3.584-4.986-6.11-1.408,8.6-.84A117.879,117.879,0,0,1,441.956,324.89Z" transform="translate(-385.414 -298.857)" fill="#13a0f0"/>
    </g>
    <g id="Windows" transform="translate(213.17)">
      <path id="Path_2683" data-name="Path 2683" d="M326.837,2.394,322.645,0l-.264,91.593.013.007,33.776,19.288.013-4.8.251-86.793Z" transform="translate(-322.38)" fill="#f0f0f0"/>
      <path id="Path_2684" data-name="Path 2684" d="M326.585,89.193l.251-86.8L322.645,0l-.264,91.593.013.007,4.205-2.4Z" transform="translate(-322.38)" opacity="0.1"/>
      <path id="Path_2685" data-name="Path 2685" d="M356.189,151.788,326.605,134.9l-4.205,2.4,33.776,19.288Z" transform="translate(-322.387 -45.7)" opacity="0.2"/>
      <path id="Path_2686" data-name="Path 2686" d="M396.737,42.3l-4.192-2.394L392.28,131.5l.013.007L426.069,150.8l.013-4.8.251-86.793Z" transform="translate(-346.06 -13.52)" fill="#f0f0f0"/>
      <path id="Path_2687" data-name="Path 2687" d="M396.485,129.1l.251-86.8-4.192-2.394L392.28,131.5l.013.007,4.205-2.4Z" transform="translate(-346.06 -13.52)" opacity="0.1"/>
      <path id="Path_2688" data-name="Path 2688" d="M426.089,191.7,396.505,174.81l-4.205,2.4L426.076,196.5Z" transform="translate(-346.067 -59.221)" opacity="0.2"/>
    </g>
    <g id="Pictures" transform="translate(25.619 13.549)">
      <path id="Path_2689" data-name="Path 2689" d="M66.4,66.3,45.3,78.48l.046,16.127,21.1-12.186Z" transform="translate(-40.962 -36.009)" fill="none"/>
      <path id="Path_2690" data-name="Path 2690" d="M77.21,65.721l.046,16.121,1.957,1.137L79.161,64.59Z" transform="translate(-51.773 -35.43)" fill="#f0f0f0"/>
      <path id="Path_2691" data-name="Path 2691" d="M45.37,102.866l.007,2.261,23.05-13.311L66.47,90.68Z" transform="translate(-40.986 -44.268)" fill="#f5f5f5"/>
      <path id="Path_2692" data-name="Path 2692" d="M81.852,85.1,54.08,101.135l.066,23.8L81.918,108.9ZM56.5,120.866V118.6l-.04-16.121,21.093-12.16L79.5,89.2l.053,18.389Z" transform="translate(-52.11 -60.013)" fill="#e0e0e0"/>
      <path id="Path_2693" data-name="Path 2693" d="M68.489,57.851,66.532,56.72,38.76,72.755l1.957,1.131Z" transform="translate(-38.747 -32.764)" fill="#f5f5f5"/>
      <path id="Path_2694" data-name="Path 2694" d="M38.76,80.97l.066,23.8,1.957,1.137L40.717,82.1Z" transform="translate(-38.747 -40.979)" fill="#f0f0f0"/>
      <g id="Group_283" data-name="Group 283" transform="translate(5.349 36.414)">
        <path id="Path_2695" data-name="Path 2695" d="M60.213,75.56l5.759,4.529.007,4.424L46.843,95.562l-.013-4.424,3.65-7.247,3.273,2.546-1.157,3.6,1.68-3.194Z" transform="translate(-46.83 -75.56)" fill="#e0e0e0"/>
        <path id="Path_2696" data-name="Path 2696" d="M69.114,105.485c.9-.522,1.633-.106,1.633.932a3.584,3.584,0,0,1-1.587,2.817c-.906.516-1.633.1-1.64-.932A3.584,3.584,0,0,1,69.114,105.485Z" transform="translate(-62.012 -103.256)" fill="#e0e0e0"/>
      </g>
      <path id="Path_2697" data-name="Path 2697" d="M66.38,121.03l-21.1,12.18.046,16.127,21.1-12.18Z" transform="translate(-40.956 -54.55)" fill="none"/>
      <path id="Path_2698" data-name="Path 2698" d="M77.19,120.454l.046,16.127,1.951,1.131-.046-18.382Z" transform="translate(-51.766 -53.974)" fill="#f0f0f0"/>
      <path id="Path_2699" data-name="Path 2699" d="M45.35,157.6l.007,2.261L68.4,146.551,66.45,145.42Z" transform="translate(-40.979 -62.813)" fill="#f5f5f5"/>
      <path id="Path_2700" data-name="Path 2700" d="M81.832,139.83,54.06,155.865l.066,23.8L81.9,163.634ZM56.48,175.6v-2.261l-.046-16.127,21.093-12.18,1.984-1.124.053,18.382Z" transform="translate(-52.103 -78.554)" fill="#e0e0e0"/>
      <path id="Path_2701" data-name="Path 2701" d="M68.462,112.587l-1.951-1.137L38.74,127.485l1.957,1.131Z" transform="translate(-38.74 -51.305)" fill="#f5f5f5"/>
      <path id="Path_2702" data-name="Path 2702" d="M38.74,135.7l.066,23.811,1.957,1.131L40.7,136.831Z" transform="translate(-38.74 -59.52)" fill="#f0f0f0"/>
      <g id="Group_284" data-name="Group 284" transform="translate(5.336 72.603)">
        <path id="Path_2703" data-name="Path 2703" d="M60.193,130.29l5.753,4.529.013,4.424L46.823,150.292l-.013-4.424,3.65-7.24,3.273,2.539-1.157,3.6,1.68-3.194Z" transform="translate(-46.81 -130.29)" fill="#e0e0e0"/>
        <path id="Path_2704" data-name="Path 2704" d="M69.077,160.215c.9-.522,1.633-.106,1.633.932a3.564,3.564,0,0,1-1.627,2.817c-.9.522-1.633.1-1.633-.932A3.577,3.577,0,0,1,69.077,160.215Z" transform="translate(-61.975 -157.986)" fill="#e0e0e0"/>
      </g>
      <path id="Path_2705" data-name="Path 2705" d="M138.88,107.81h0c.251-.119.5-.238.76-.37h0C139.383,107.572,139.131,107.691,138.88,107.81Z" transform="translate(-80.837 -67.581)" fill="none"/>
      <path id="Path_2706" data-name="Path 2706" d="M138.46,108.129h0l.278-.139h0Z" transform="translate(-80.695 -67.767)" fill="none"/>
      <path id="Path_2707" data-name="Path 2707" d="M133.571,33.82,127.8,37.153l-5.858,3.385,5.865-3.385Z" transform="translate(-66.926 -25.006)" fill="none"/>
      <path id="Path_2708" data-name="Path 2708" d="M139.6,57.332l-.013-5.349-.013-4.893.013,4.893Z" transform="translate(-72.898 -29.501)" fill="none"/>
      <path id="Path_2709" data-name="Path 2709" d="M140,107.4l.159-.079Z" transform="translate(-81.217 -67.54)" fill="none"/>
      <path id="Path_2710" data-name="Path 2710" d="M139.7,93.771l-.013-4.477-.007-3.914.007,3.914Z" transform="translate(-72.936 -42.473)" fill="none"/>
      <path id="Path_2711" data-name="Path 2711" d="M135.07,109.129c.741-.264,1.494-.575,2.242-.919h0C136.564,108.554,135.817,108.865,135.07,109.129Z" transform="translate(-79.547 -67.842)" fill="none"/>
      <path id="Path_2712" data-name="Path 2712" d="M113.62,58.8l.046,17.2.026,9.965L113.666,76Z" transform="translate(-64.107 -33.468)" fill="none"/>
      <path id="Path_2713" data-name="Path 2713" d="M143.282,115.994V112.08l-.179.1-.324.192a41.08,41.08,0,0,0-8.5,7.459c-.45.5-.893.992-1.322,1.488-2.281,2.645-4.51,5.376-6.8,7.935v6.328l2.757-1.594a60.754,60.754,0,0,1,14.375-17.992Z" transform="translate(-76.525 -69.153)" fill="#ebebeb"/>
      <path id="Path_2714" data-name="Path 2714" d="M149.092,129.977V124.74a33.061,33.061,0,0,0-5.872,8.6Z" transform="translate(-82.308 -73.442)" fill="#ebebeb"/>
      <path id="Path_2715" data-name="Path 2715" d="M138.847,131.092a33.061,33.061,0,0,1,5.872-8.6V118.02a60.754,60.754,0,0,0-14.368,18.018l8.51-4.913Z" transform="translate(-77.948 -71.165)" fill="#fafafa"/>
      <path id="Path_2716" data-name="Path 2716" d="M138.46,108.2h0" transform="translate(-80.695 -67.839)" fill="none" stroke="gray" stroke-linecap="round" stroke-linejoin="round" stroke-width="0"/>
      <path id="Path_2717" data-name="Path 2717" d="M138.88,108h0" transform="translate(-80.837 -67.771)" fill="none" stroke="gray" stroke-linecap="round" stroke-linejoin="round" stroke-width="0"/>
      <path id="Path_2718" data-name="Path 2718" d="M131.6,101.564l.4-.139c.747-.264,1.494-.575,2.242-.926l.278-.132c.251-.119.5-.238.76-.37.436-.218.873-.456,1.322-.7-.436.245-.873.483-1.322.7l.159-.079c.384-.2.767-.4,1.151-.622l.245-.139.2-.119a41.657,41.657,0,0,0,5.9-4.232l.258-.218V87.976c-4.2,2.149-8.331,2.817-11.664,1.779A10.236,10.236,0,0,1,126,85.47l.046,17.192A20.247,20.247,0,0,0,131.6,101.564Z" transform="translate(-76.474 -60.138)" fill="#fafafa"/>
      <path id="Path_2719" data-name="Path 2719" d="M134.25,117.855a41.081,41.081,0,0,1,8.5-7.459l.324-.192.179-.1v-3.8a82.177,82.177,0,0,0-15.473,11.776c-.555.536-1.118,1.078-1.673,1.6V127.3c2.294-2.585,4.523-5.349,6.8-7.935C133.357,118.847,133.8,118.351,134.25,117.855Z" transform="translate(-76.511 -67.198)" fill="#fafafa"/>
      <path id="Path_2720" data-name="Path 2720" d="M143.206,103.939V99.31l-.258.218a41.657,41.657,0,0,1-5.9,4.232l-.2.119-.245.139c-.384.218-.767.423-1.151.622l-.159.079-.106.06h0l.106-.06c-.258.132-.509.251-.76.37l-.278.139c-.747.344-1.5.661-2.242.919l.423-.159-.423.159-.4.139a20.247,20.247,0,0,1-5.568,1.1v9.965c.555-.522,1.117-1.065,1.673-1.6a82.177,82.177,0,0,1,15.493-11.81Z" transform="translate(-76.487 -64.827)" fill="#ebebeb"/>
      <path id="Path_2721" data-name="Path 2721" d="M146.027,75.855V70.969a8.246,8.246,0,0,1-5.792-5.449l-5.865,3.385a12.114,12.114,0,0,0,11.657,6.95Z" transform="translate(-79.309 -53.38)" fill="#fafafa"/>
      <path id="Path_2722" data-name="Path 2722" d="M131.515,84.724c3.306,1.038,7.465.37,11.664-1.779V77.59a12.114,12.114,0,0,1-11.691-6.95L126,73.827v6.612A10.236,10.236,0,0,0,131.515,84.724Z" transform="translate(-76.474 -55.114)" fill="#ebebeb"/>
      <path id="Path_2723" data-name="Path 2723" d="M143.57,58,124.48,69l.145,49.936,19.09-11.023Zm-17.979,59.286V93.376l-.046-17.192V69.572l5.521-3.187L136.931,63l5.773-3.306v47.681l-5.885,3.392h0l-8.51,4.913Z" transform="translate(-75.959 -50.832)" fill="#fff"/>
      <path id="Path_2724" data-name="Path 2724" d="M139.85,107.54h0" transform="translate(-81.166 -67.615)" fill="none" stroke="gray" stroke-linecap="round" stroke-linejoin="round" stroke-width="0"/>
      <path id="Path_2725" data-name="Path 2725" d="M139.87,107.5l.106-.06" transform="translate(-81.173 -67.581)" fill="none" stroke="gray" stroke-linecap="round" stroke-linejoin="round" stroke-width="0"/>
      <path id="Path_2726" data-name="Path 2726" d="M141.322,106.38c-.436.245-.873.483-1.322.7" transform="translate(-81.217 -67.222)" fill="none" stroke="gray" stroke-linecap="round" stroke-linejoin="round" stroke-width="0"/>
      <line id="Line_47" data-name="Line 47" transform="translate(58.796 39.859)" fill="none" stroke="gray" stroke-linecap="round" stroke-linejoin="round" stroke-width="0"/>
      <path id="Path_2727" data-name="Path 2727" d="M135.07,109.519l.423-.159" transform="translate(-79.547 -68.232)" fill="none" stroke="gray" stroke-linecap="round" stroke-linejoin="round" stroke-width="0"/>
      <path id="Path_2728" data-name="Path 2728" d="M148.973,69.265V60.49L143.2,63.8A8.163,8.163,0,0,0,148.973,69.265Z" transform="translate(-82.301 -51.676)" fill="#ebebeb"/>
      <path id="Path_2729" data-name="Path 2729" d="M131.42,106.82l-19.09,11.023.007,1.322,20.234-11.677Z" transform="translate(-63.67 -49.736)" fill="#cacaca"/>
      <path id="Path_2730" data-name="Path 2730" d="M140.99,30.961l.139,49.936,1.151.668L142.134,30.3Z" transform="translate(-73.379 -23.813)" fill="#f0f0f0"/>
      <path id="Path_2731" data-name="Path 2731" d="M146.2,48.93,119.81,64.185l.165,58.34,26.39-15.208Zm-23.143,68.259v-1.322l-.145-49.936,19.076-11,1.144-.661.145,51.265Z" transform="translate(-74.377 -47.76)" fill="#e0e0e0"/>
      <path id="Path_2732" data-name="Path 2732" d="M132.722,21.66l-2.182-1.17L104.15,35.731l2.175,1.164Z" transform="translate(-60.899 -20.49)" fill="#f5f5f5"/>
      <path id="Path_2733" data-name="Path 2733" d="M104.15,43.54l.165,58.334,2.175,1.17-.165-58.34Z" transform="translate(-60.899 -28.299)" fill="#f0f0f0"/>
    </g>
    <g id="Side_table" data-name="Side table" transform="translate(19.793 99.039)">
      <path id="Path_2734" data-name="Path 2734" d="M187.73,237.816l3,1.746-.007-3.471Z" transform="translate(-83.388 -179.019)" fill="#e6e6e6"/>
      <path id="Path_2735" data-name="Path 2735" d="M192.14,210.7v-.04h0Z" transform="translate(-84.882 -170.404)" fill="#787878"/>
      <rect id="Rectangle_976" data-name="Rectangle 976" height="84.373" transform="translate(70.712 19.149)" fill="#cfcfcf"/>
      <path id="Path_2736" data-name="Path 2736" d="M154.626,185.21,81.54,227.363h0Z" transform="translate(-47.414 -161.783)" fill="#cfcfcf"/>
      <path id="Path_2737" data-name="Path 2737" d="M165.5,242.739v3.471l3.121-1.805L168.5,203.66,89.15,249.45l.119,40.752,3.088-1.805v-3.465l70.15-40.467Zm-73.2,8.51h0l73.086-42.16.04,13.225L92.357,264.467Zm.066,16.835h0l73.066-42.16h0v.04l.04,13.178L92.357,281.295Z" transform="translate(-58.165 -185.668)" fill="#ebebeb"/>
      <path id="Path_2738" data-name="Path 2738" d="M154.729,223.878,154.7,210.7v-.04L81.61,252.82h0l.04,13.211Z" transform="translate(-47.438 -170.404)" fill="#f5f5f5"/>
      <path id="Path_2739" data-name="Path 2739" d="M154.659,198.421l-.033-13.211L81.54,227.363h0l.033,13.218Z" transform="translate(-47.414 -161.783)" fill="#f5f5f5"/>
      <path id="Path_2740" data-name="Path 2740" d="M60.9,237.022,29.93,219.03l.119,40.752,30.959,17.992Z" transform="translate(-29.93 -173.24)" fill="#f5f5f5"/>
      <path id="Path_2741" data-name="Path 2741" d="M60.9,213.562l79.381-45.79L109.317,149.78,29.93,195.57Z" transform="translate(-29.93 -149.78)" fill="#fafafa"/>
    </g>
    <g id="Character" transform="translate(57.344 44.576)">
      <path id="Path_2742" data-name="Path 2742" d="M273.22,346.14h0l1.785,1.144h0a1.984,1.984,0,0,0,1.984-.212,6.249,6.249,0,0,0,2.85-4.926,2.03,2.03,0,0,0-.8-1.805h0l-.529-.331,17.093-6.95a1.256,1.256,0,0,0,.661,1L294.724,347.5v1.818a6.381,6.381,0,0,0-2.354,4.589,1.984,1.984,0,0,0,.893,1.851h0l1.785,1.137h.033a2.03,2.03,0,0,0,1.984-.212,6.262,6.262,0,0,0,2.85-4.933,2.03,2.03,0,0,0-.8-1.805h0l-1.858-1.157h0a1.567,1.567,0,0,0-.952-.212l1.984-14h0a4.339,4.339,0,0,0,1.25-.2h0l16.187,8.748-.932.589h0a1.984,1.984,0,0,0-.8,1.805,6.262,6.262,0,0,0,2.843,4.926,1.984,1.984,0,0,0,1.984.212h0l1.785-1.137h0a1.984,1.984,0,0,0,.886-1.858,6.341,6.341,0,0,0-2.314-4.556v-2.824l-15.043-8.94,7.935-1.984a5.832,5.832,0,0,0-.846,2.823,1.984,1.984,0,0,0,.893,1.858h0l1.785,1.144h.033a1.984,1.984,0,0,0,1.984-.212,6.262,6.262,0,0,0,2.843-4.926,1.984,1.984,0,0,0-.8-1.805h0l-1.818-1.184h0a1.686,1.686,0,0,0-1.322-.132v-.45l-.965-.331-12.914.661v-2.281c.139-.066.278-.119.4-.192a2.188,2.188,0,0,0,1.283-1.772V307.65H293.95v14.937a2.149,2.149,0,0,0,1.263,1.772,4.176,4.176,0,0,0,.423.2v1.918l-9.33-2.017-.45.179v1.713h0l-1.825,1.151h0a1.984,1.984,0,0,0-.8,1.805,6.156,6.156,0,0,0,1.408,3.637l-9.019,4.06v2.136a3.761,3.761,0,0,0-.37.179,6.288,6.288,0,0,0-2.85,4.926A1.984,1.984,0,0,0,273.22,346.14Zm5.376-9.634,6.533-2.909h0l-8.834,3.928Zm11.552-7.346,1.322.708-.913.417a6.561,6.561,0,0,0-.41-1.124Zm5.468-.238-4.92,2.189h0Z" transform="translate(-157.79 -166.434)" fill="#e0e0e0"/>
      <path id="Path_2743" data-name="Path 2743" d="M336.468,340.522l1.428-2.447-1.858-1.184h0a1.984,1.984,0,0,0-2.063.172,6.308,6.308,0,0,0-2.85,4.926,1.984,1.984,0,0,0,.893,1.858h0l1.825,1.164,1.5-2.579A6.83,6.83,0,0,0,336.468,340.522Z" transform="translate(-177.687 -176.269)" fill="#37474f"/>
      <path id="Path_2744" data-name="Path 2744" d="M336.79,338.85c1.574-.906,2.857-.178,2.863,1.633a6.262,6.262,0,0,1-2.843,4.926c-1.58.913-2.863.185-2.87-1.633a6.288,6.288,0,0,1,2.85-4.926Z" transform="translate(-178.644 -176.872)" fill="#455a64"/>
      <path id="Path_2745" data-name="Path 2745" d="M291.318,339.489l-1.428-2.453,1.858-1.144h0a1.984,1.984,0,0,1,2.063.172,6.262,6.262,0,0,1,2.843,4.926,1.944,1.944,0,0,1-.886,1.851h0l-1.838,1.144-1.508-2.585A6.844,6.844,0,0,1,291.318,339.489Z" transform="translate(-163.721 -175.93)" fill="#37474f"/>
      <path id="Path_2746" data-name="Path 2746" d="M291.533,337.8c-1.574-.913-2.857-.185-2.863,1.627a6.282,6.282,0,0,0,2.843,4.933c1.58.906,2.863.179,2.87-1.633A6.288,6.288,0,0,0,291.533,337.8Z" transform="translate(-163.308 -176.514)" fill="#455a64"/>
      <path id="Path_2747" data-name="Path 2747" d="M307.517,332.26h5.29v9.125h0a1.322,1.322,0,0,1-.78,1.084,4.119,4.119,0,0,1-3.749,0,1.322,1.322,0,0,1-.767-1.084h0Z" transform="translate(-169.69 -174.771)" fill="#ebebeb"/>
      <path id="Path_2748" data-name="Path 2748" d="M317.046,309.46v2.175l-13.886,3.5v-4.609Z" transform="translate(-160.044 -149.412)" fill="#e0e0e0"/>
      <path id="Path_2749" data-name="Path 2749" d="M317.046,309.291l-.972-.331-12.914.681v.714Z" transform="translate(-160.044 -149.243)" fill="#f5f5f5"/>
      <path id="Path_2750" data-name="Path 2750" d="M337.888,364.035l-1.428-2.447,1.858-1.177h0a1.984,1.984,0,0,1,2.063.172,6.282,6.282,0,0,1,2.843,4.926,1.984,1.984,0,0,1-.886,1.858h0l-1.825,1.157-1.508-2.579A6.876,6.876,0,0,1,337.888,364.035Z" transform="translate(-179.497 -184.237)" fill="#37474f"/>
      <path id="Path_2751" data-name="Path 2751" d="M338.113,362.318c-1.574-.913-2.857-.185-2.863,1.627a6.262,6.262,0,0,0,2.843,4.926c1.58.912,2.863.185,2.87-1.627A6.288,6.288,0,0,0,338.113,362.318Z" transform="translate(-179.088 -184.821)" fill="#455a64"/>
      <path id="Path_2752" data-name="Path 2752" d="M307.921,373.392l1.435-2.453-1.878-1.177h0a1.984,1.984,0,0,0-2.063.172,6.268,6.268,0,0,0-2.85,4.926,1.984,1.984,0,0,0,.893,1.851h0l1.818,1.164,1.508-2.585A6.685,6.685,0,0,0,307.921,373.392Z" transform="translate(-168.012 -187.404)" fill="#37474f"/>
      <path id="Path_2753" data-name="Path 2753" d="M308.26,371.719c1.574-.913,2.857-.179,2.863,1.627a6.262,6.262,0,0,1-2.85,4.933c-1.574.906-2.857.179-2.863-1.633a6.262,6.262,0,0,1,2.85-4.926Z" transform="translate(-168.979 -188.006)" fill="#455a64"/>
      <path id="Path_2754" data-name="Path 2754" d="M277.631,358.855l1.435-2.447-1.858-1.177h0a1.984,1.984,0,0,0-2.063.172,6.288,6.288,0,0,0-2.85,4.926,1.984,1.984,0,0,0,.893,1.858h0l1.818,1.157,1.508-2.579A6.81,6.81,0,0,0,277.631,358.855Z" transform="translate(-157.757 -182.482)" fill="#37474f"/>
      <path id="Path_2755" data-name="Path 2755" d="M277.96,357.188c1.574-.913,2.857-.185,2.863,1.627a6.249,6.249,0,0,1-2.85,4.926c-1.574.912-2.857.185-2.863-1.627a6.249,6.249,0,0,1,2.85-4.926Z" transform="translate(-158.714 -183.083)" fill="#455a64"/>
      <path id="Path_2756" data-name="Path 2756" d="M319.677,325.44v3.524L301.09,318.92v-4.86Z" transform="translate(-159.342 -150.971)" fill="#e0e0e0"/>
      <path id="Path_2757" data-name="Path 2757" d="M320.748,324.693,302.161,313.65l-1.071.271,18.587,11.38Z" transform="translate(-159.342 -150.832)" fill="#f5f5f5"/>
      <path id="Path_2758" data-name="Path 2758" d="M330.271,333.874l-1.071.608v-3.524l1.071-.608Z" transform="translate(-168.865 -156.489)" fill="#f0f0f0"/>
      <path id="Path_2759" data-name="Path 2759" d="M298.048,314.06l-2.268,17.966v3.214l2.268-16.121Z" transform="translate(-157.543 -150.971)" fill="#e0e0e0"/>
      <rect id="Rectangle_977" data-name="Rectangle 977" width="1.309" height="3.214" transform="translate(136.927 181.055)" fill="#f0f0f0"/>
      <path id="Path_2760" data-name="Path 2760" d="M293.8,332.026l2.056-17.966h1.521l-2.268,17.966Z" transform="translate(-156.873 -150.971)" fill="#f5f5f5"/>
      <path id="Path_2761" data-name="Path 2761" d="M265.94,321.759v3.372l19.321-7.855V313.15Z" transform="translate(-147.435 -150.662)" fill="#e0e0e0"/>
      <path id="Path_2762" data-name="Path 2762" d="M264.81,328.789l.747.5v-3.372l-.747-.489Z" transform="translate(-147.052 -154.823)" fill="#f0f0f0"/>
      <path id="Path_2763" data-name="Path 2763" d="M267.852,320.263l-2.294,1.025-.747-.489,20.068-9.039v.919Z" transform="translate(-147.052 -150.192)" fill="#f5f5f5"/>
      <path id="Path_2764" data-name="Path 2764" d="M280.36,306.68v2.208l5.634,3.022,4.153-1.871v-.906Z" transform="translate(-152.32 -148.471)" fill="#e0e0e0"/>
      <path id="Path_2765" data-name="Path 2765" d="M280.36,306.589l.45-.179,9.337,2.017v.615Z" transform="translate(-152.32 -148.379)" fill="#f5f5f5"/>
      <path id="Path_2766" data-name="Path 2766" d="M305,307.65h8.669v14.937h0a2.189,2.189,0,0,1-1.283,1.772,6.751,6.751,0,0,1-6.123,0A2.149,2.149,0,0,1,305,322.587h0Z" transform="translate(-168.84 -166.434)" fill="#e0e0e0"/>
      <path id="Path_2767" data-name="Path 2767" d="M252.738,236.2a4.794,4.794,0,0,1,1.646-1.594l3.24-1.66c0-11.552-1.706-10.421-4.887-14.95s1.693-7.346,5.369-5.336h0s20.538,6.044,25.973.708c6.758-6.612,3.928-23.355,3.121-29.9s0-11.076,1.812-12.987,4.43-4.734,12.934-1.21c0,0,22.925,9.918,34.146,15.473a15.089,15.089,0,0,1,7.069,3.617,4.747,4.747,0,0,1,1.322,1.713,2.023,2.023,0,0,1-.251,2.037,1.984,1.984,0,0,1-1.322.608L328.747,245.04a12.563,12.563,0,0,1-6.427,7.9l-24.789,12.5a8.292,8.292,0,0,1-7.611-.073l-35.31-18.759C251.085,244.6,250.755,239.208,252.738,236.2Z" transform="translate(-150.724 -118.986)" fill="#37474f"/>
      <path id="Path_2768" data-name="Path 2768" d="M252.738,248.849a5.528,5.528,0,0,0,1.871,1.772l35.31,18.752a8.272,8.272,0,0,0,7.611.079l24.737-12.53a12.563,12.563,0,0,0,6.427-7.9l11.9-44.091.6.185a5.019,5.019,0,0,0,1.561.231h.066L328.661,257.67a12.563,12.563,0,0,1-6.427,7.9l-24.7,12.524a8.292,8.292,0,0,1-7.611-.073l-35.31-18.759C251.085,257.253,250.755,251.857,252.738,248.849Z" transform="translate(-150.724 -131.636)" fill="#37474f"/>
      <path id="Path_2769" data-name="Path 2769" d="M255.006,262.215l25.583-13.125,33.723,17.337c-1.1.264-2.208.483-3.306.708a25.236,25.236,0,0,0-8.371,2.771c-2.519,1.547-4.549,4.2-4.569,7.155l.9,6.95h0l-.78.4a8.272,8.272,0,0,1-7.611-.079l-35.343-18.772a5.528,5.528,0,0,1-1.871-1.772,4.794,4.794,0,0,1,1.646-1.574Z" transform="translate(-151.346 -146.596)" fill="#455a64"/>
      <path id="Path_2770" data-name="Path 2770" d="M255.006,262.215l25.583-13.125,33.723,17.337c-1.1.264-2.208.483-3.306.708a25.236,25.236,0,0,0-8.371,2.771c-2.519,1.547-4.549,4.2-4.569,7.155l.9,6.95h0l-.78.4a8.272,8.272,0,0,1-7.611-.079l-35.343-18.772a5.528,5.528,0,0,1-1.871-1.772,4.794,4.794,0,0,1,1.646-1.574Z" transform="translate(-151.346 -146.596)" opacity="0.1"/>
      <path id="Path_2771" data-name="Path 2771" d="M261.48,212.66s20.538,6.044,25.973.708c6.758-6.612,3.928-23.355,3.121-29.9s0-11.076,1.812-12.987,4.43-4.734,12.934-1.21c-8.6,4.43-9.713,25.484-7,33.934-6.745,6.943-6.282,17.694-6.414,22.687,0,0-17.542,4.285-26.707,9.323Z" transform="translate(-154.096 -118.986)" fill="#455a64"/>
      <path id="Path_2772" data-name="Path 2772" d="M261.48,212.66s20.538,6.044,25.973.708c6.758-6.612,3.928-23.355,3.121-29.9s0-11.076,1.812-12.987,4.43-4.734,12.934-1.21c-8.6,4.43-9.713,25.484-7,33.934-6.745,6.943-6.282,17.694-6.414,22.687,0,0-17.542,4.285-26.707,9.323Z" transform="translate(-154.096 -118.986)" fill="#fff" opacity="0.1"/>
      <path id="Path_2773" data-name="Path 2773" d="M261.925,257.967l-4.205-2.268c0-11.552-1.706-10.421-4.887-14.95s1.693-7.346,5.369-5.336S263.359,243.512,261.925,257.967Z" transform="translate(-150.818 -141.739)" fill="#455a64"/>
      <path id="Path_2774" data-name="Path 2774" d="M261.925,257.967l-4.205-2.268c0-11.552-1.706-10.421-4.887-14.95s1.693-7.346,5.369-5.336S263.359,243.512,261.925,257.967Z" transform="translate(-150.818 -141.739)" fill="#fff" opacity="0.2"/>
      <path id="Path_2775" data-name="Path 2775" d="M326.09,170.13s23.011,9.965,34.205,15.506l-.813,4.086L322.79,173.059a9.786,9.786,0,0,1,3.3-2.929Z" transform="translate(-174.866 -119.846)" fill="#455a64"/>
      <path id="Path_2776" data-name="Path 2776" d="M326.09,170.13s23.011,9.965,34.205,15.506l-.813,4.086L322.79,173.059a9.786,9.786,0,0,1,3.3-2.929Z" transform="translate(-174.866 -119.846)" fill="#fff" opacity="0.1"/>
      <path id="Path_2777" data-name="Path 2777" d="M313.914,205.565c-2.321-7.214-1.845-23.606,3.7-31.005L354.3,191.223l-8.384,42.034-13.291,7.935L307.5,228.265C307.632,223.26,307.169,212.541,313.914,205.565Z" transform="translate(-169.687 -121.347)" fill="#455a64"/>
      <path id="Path_2778" data-name="Path 2778" d="M350.971,234.12c-.622-.364-1.131-.073-1.131.661a2.46,2.46,0,0,0,1.124,1.944c.622.364,1.124.073,1.131-.661a2.48,2.48,0,0,0-1.124-1.944Z" transform="translate(-184.03 -141.471)" fill="#455a64"/>
      <path id="Path_2779" data-name="Path 2779" d="M342.421,229.071c-.622-.357-1.131-.073-1.131.661a2.493,2.493,0,0,0,1.124,1.951c.622.357,1.131.066,1.131-.661A2.48,2.48,0,0,0,342.421,229.071Z" transform="translate(-181.134 -139.762)" fill="#455a64"/>
      <path id="Path_2780" data-name="Path 2780" d="M333.791,224.022c-.622-.357-1.124-.066-1.131.661a2.48,2.48,0,0,0,1.124,1.944c.622.357,1.131.073,1.131-.661A2.473,2.473,0,0,0,333.791,224.022Z" transform="translate(-178.21 -138.052)" fill="#455a64"/>
      <path id="Path_2781" data-name="Path 2781" d="M325.207,218.98c-.661-.364-1.131-.073-1.137.661a2.48,2.48,0,0,0,1.124,1.944c.661.364,1.131.073,1.131-.661A2.453,2.453,0,0,0,325.207,218.98Z" transform="translate(-175.3 -136.342)" fill="#455a64"/>
      <g id="Group_285" data-name="Group 285" transform="translate(148.77 82.481)" opacity="0.2">
        <path id="Path_2782" data-name="Path 2782" d="M350.971,234.12c-.622-.364-1.131-.073-1.131.661a2.46,2.46,0,0,0,1.124,1.944c.622.364,1.124.073,1.131-.661a2.48,2.48,0,0,0-1.124-1.944Z" transform="translate(-332.8 -223.952)" fill="#fff"/>
        <path id="Path_2783" data-name="Path 2783" d="M342.421,229.071c-.622-.357-1.131-.073-1.131.661a2.493,2.493,0,0,0,1.124,1.951c.622.357,1.131.066,1.131-.661A2.48,2.48,0,0,0,342.421,229.071Z" transform="translate(-329.904 -222.243)" fill="#fff"/>
        <path id="Path_2784" data-name="Path 2784" d="M333.791,224.022c-.622-.357-1.124-.066-1.131.661a2.48,2.48,0,0,0,1.124,1.944c.622.357,1.131.073,1.131-.661A2.473,2.473,0,0,0,333.791,224.022Z" transform="translate(-326.98 -220.533)" fill="#fff"/>
        <path id="Path_2785" data-name="Path 2785" d="M325.207,218.98c-.661-.364-1.131-.073-1.137.661a2.48,2.48,0,0,0,1.124,1.944c.661.364,1.131.073,1.131-.661A2.453,2.453,0,0,0,325.207,218.98Z" transform="translate(-324.07 -218.823)" fill="#fff"/>
      </g>
      <path id="Path_2786" data-name="Path 2786" d="M325.489,252.959a25.236,25.236,0,0,1,8.371-2.771c1.1-.225,2.215-.443,3.306-.708a20.605,20.605,0,0,0,5.125-1.871c4.06-2.242,6.784-6.434,8.093-10.884s1.322-9.165,1.058-13.793-.846-9.257-.708-13.886c.079-2.7.489-5.587,2.314-7.571s4.92-2.685,7.67-2.314a15.871,15.871,0,0,1,2.645.628l1.223,1.422-.469,1.732-11.9,44.091a12.564,12.564,0,0,1-5.482,7.359c-.311.192-.622.377-.946.542l-23.97,12.127-.9-6.95A8.968,8.968,0,0,1,325.489,252.959Z" transform="translate(-174.233 -129.649)" fill="#37474f"/>
      <path id="Path_2787" data-name="Path 2787" d="M327.78,246.165c8.761-2.493,17.37-2.817,20.538-9.112s3.412-14.957,1.818-30.079a22.628,22.628,0,0,1,.139-5.845c.932-5.647,4.331-8.06,8.239-8.12a15.208,15.208,0,0,1,10.48,3.967,4.748,4.748,0,0,1,1.322,1.713,2.023,2.023,0,0,1-.251,2.037,1.984,1.984,0,0,1-1.322.608h-.066a5.019,5.019,0,0,1-1.56-.231l-.6-.185c-1.071-.337-2.123-.741-3.214-1.012a7.029,7.029,0,0,0-3.967,0,4.192,4.192,0,0,0-2.533,2.823c-3.69,12.067.992,25.034-3.161,35-3.4,9.059-15.142,12.821-23.427,15.506h0a5.032,5.032,0,0,0,2.063-1.5,3.478,3.478,0,0,0-.317-4.2,4.629,4.629,0,0,0-4.179-1.369Z" transform="translate(-176.557 -127.597)" fill="#455a64"/>
      <path id="Path_2788" data-name="Path 2788" d="M327.78,246.165c8.761-2.493,17.37-2.817,20.538-9.112s3.412-14.957,1.818-30.079a22.628,22.628,0,0,1,.139-5.845c.932-5.647,4.331-8.06,8.239-8.12a15.208,15.208,0,0,1,10.48,3.967,4.748,4.748,0,0,1,1.322,1.713,2.023,2.023,0,0,1-.251,2.037,1.984,1.984,0,0,1-1.322.608h-.066a5.019,5.019,0,0,1-1.56-.231l-.6-.185c-1.071-.337-2.123-.741-3.214-1.012a7.029,7.029,0,0,0-3.967,0,4.192,4.192,0,0,0-2.533,2.823c-3.69,12.067.992,25.034-3.161,35-3.4,9.059-15.142,12.821-23.427,15.506h0a5.032,5.032,0,0,0,2.063-1.5,3.478,3.478,0,0,0-.317-4.2,4.629,4.629,0,0,0-4.179-1.369Z" transform="translate(-176.557 -127.597)" fill="#fff" opacity="0.1"/>
      <path id="Path_2789" data-name="Path 2789" d="M317.723,279.564a13.086,13.086,0,0,1,2.242-3.928,6.738,6.738,0,0,1,3.835-2.275,4.629,4.629,0,0,1,4.146,1.322,3.478,3.478,0,0,1,.317,4.2,5.032,5.032,0,0,1-2.063,1.5,19.381,19.381,0,0,0-1.931.952,8.127,8.127,0,0,0-3.306,4.675,24.342,24.342,0,0,0-.767,5.792l-.033.377-4.1-2.275A25.127,25.127,0,0,1,317.723,279.564Z" transform="translate(-172.577 -154.793)" fill="#455a64"/>
      <path id="Path_2790" data-name="Path 2790" d="M317.723,279.564a13.086,13.086,0,0,1,2.242-3.928,6.738,6.738,0,0,1,3.835-2.275,4.629,4.629,0,0,1,4.146,1.322,3.478,3.478,0,0,1,.317,4.2,5.032,5.032,0,0,1-2.063,1.5,19.381,19.381,0,0,0-1.931.952,8.127,8.127,0,0,0-3.306,4.675,24.342,24.342,0,0,0-.767,5.792l-.033.377-4.1-2.275A25.127,25.127,0,0,1,317.723,279.564Z" transform="translate(-172.577 -154.793)" fill="#fff" opacity="0.2"/>
      <path id="Path_2791" data-name="Path 2791" d="M359.44,150.137v1.726c2.678.529,5.29,1.1,8.047-.258l-.152-2.989v-3.769l-2.81-.3Z" transform="translate(-187.282 -111.181)" fill="#ffa8a7"/>
      <path id="Path_2792" data-name="Path 2792" d="M359.23,149.755c3.055,1.263,5.217-1.58,5.217-1.58a1.666,1.666,0,0,0,2.3-.1l.529,3.147v-7.8l-3.6.159-4.853,4.794Z" transform="translate(-187.072 -110.798)" opacity="0.2"/>
      <path id="Path_2793" data-name="Path 2793" d="M367.81,140.15l4.906.245a1.468,1.468,0,0,1,1.323,1.1h0a21.2,21.2,0,0,1,.661,5.237v2.605a1.765,1.765,0,0,1-.516,1.25h0a1.765,1.765,0,0,1-1.428.509l-1.56-.159a.985.985,0,0,1-.893-.932l-.145-2.909v-5.065a1.435,1.435,0,0,0-.939-1.322Z" transform="translate(-190.118 -109.69)" fill="#ffa8a7"/>
      <path id="Path_2794" data-name="Path 2794" d="M357.4,143.937l4.238-3.729a2.136,2.136,0,0,1,2.136-.4l1.931.7a1.435,1.435,0,0,1,.939,1.322v3.59a1.323,1.323,0,0,1-1.488,1.322h0a1.322,1.322,0,0,1-1.21-1.283l-.112-2.645a5.111,5.111,0,0,1-5.085,5.574Z" transform="translate(-186.591 -109.53)" fill="#ffa8a7"/>
      <path id="Path_2795" data-name="Path 2795" d="M370.673,149.791l.139-7.855a1.27,1.27,0,0,0-.959-1.263l-2.043-.522,1.422.516a1.435,1.435,0,0,1,.939,1.322v5.085l.145,2.909a.985.985,0,0,0,.893.932l.39.04-.331-.179a1.1,1.1,0,0,1-.6-.985Z" transform="translate(-190.118 -109.69)" opacity="0.2"/>
      <path id="Path_2796" data-name="Path 2796" d="M339.052,146.12h0a9.045,9.045,0,0,0-3.511,3.048L319.85,172.311l-16.61,8.007,9.052,11.624,14.335-11.122a15.638,15.638,0,0,0,4.589-5.779l10.368-22.482Z" transform="translate(-168.243 -111.713)" fill="#ffa8a7"/>
      <path id="Path_2797" data-name="Path 2797" d="M341.062,156.376a6.09,6.09,0,0,0-6.229-5.607l-15.46,22.779-16.134,8.371,9.052,11.624L328.34,182.1a12.18,12.18,0,0,0,4.159-5.217Z" transform="translate(-168.243 -113.287)" fill="#ba68c8"/>
      <path id="Path_2798" data-name="Path 2798" d="M341.062,156.376a6.09,6.09,0,0,0-6.229-5.607l-15.46,22.779-16.134,8.371,9.052,11.624L328.34,182.1a12.18,12.18,0,0,0,4.159-5.217Z" transform="translate(-168.243 -113.287)" fill="#0892e1"/>
      <path id="Path_2799" data-name="Path 2799" d="M353.927,152.33a6.183,6.183,0,0,0-4.232-1.561l-2.585,3.8a6.335,6.335,0,0,1,6.93,6.315l1.885-4.51a6.189,6.189,0,0,0-2-4.047Z" transform="translate(-183.105 -113.287)" fill="#fff" opacity="0.3"/>
      <path id="Path_2800" data-name="Path 2800" d="M374.975,139.488a7.478,7.478,0,0,0,6.8,0,2.374,2.374,0,0,0,1.4-1.984,2.413,2.413,0,0,0-1.422-1.984,7.492,7.492,0,0,0-6.811,0,2.083,2.083,0,0,0,0,3.967Z" transform="translate(-192.046 -107.844)" fill="#e0e0e0"/>
      <path id="Path_2801" data-name="Path 2801" d="M375.8,142.615a6.487,6.487,0,0,0,5.878,0,2.043,2.043,0,0,0,1.2-1.7,2.083,2.083,0,0,0-1.223-1.706,6.487,6.487,0,0,0-5.878,0,1.8,1.8,0,0,0,0,3.405Z" transform="translate(-192.403 -109.133)" fill="#f28f8f"/>
      <path id="Path_2802" data-name="Path 2802" d="M375.8,142.615a6.487,6.487,0,0,0,5.878,0,2.043,2.043,0,0,0,1.2-1.7,2.083,2.083,0,0,0-1.223-1.706,6.487,6.487,0,0,0-5.878,0,1.8,1.8,0,0,0,0,3.405Z" transform="translate(-192.403 -109.133)" opacity="0.3"/>
      <path id="Path_2803" data-name="Path 2803" d="M375.8,142.615a6.487,6.487,0,0,0,5.878,0,2.043,2.043,0,0,0,1.2-1.7,2.083,2.083,0,0,0-1.223-1.706,6.487,6.487,0,0,0-5.878,0,1.8,1.8,0,0,0,0,3.405Z" transform="translate(-192.403 -109.133)" fill="#fff" opacity="0.3"/>
      <path id="Path_2804" data-name="Path 2804" d="M383.208,139a2.374,2.374,0,0,1-1.4,1.984,7.479,7.479,0,0,1-6.8,0A2.4,2.4,0,0,1,373.58,139h0v11.843h0A2.413,2.413,0,0,0,375,152.826a7.525,7.525,0,0,0,6.8,0,2.387,2.387,0,0,0,1.4-1.984h0Z" transform="translate(-192.073 -109.301)" fill="#455a64"/>
      <path id="Path_2805" data-name="Path 2805" d="M308.212,194c9.072,1.5,11.6,5.164,12.563,8.14l-8.5,6.07-9.052-11.624Z" transform="translate(-168.237 -127.933)" opacity="0.2"/>
      <path id="Path_2806" data-name="Path 2806" d="M197.03,116.628l11.115,32.2,22.978-12.748-10.99-31.851Z" transform="translate(-124.09 -79.886)" fill="#ba68c8"/>
      <path id="Path_2807" data-name="Path 2807" d="M197.03,116.628l11.115,32.2,22.978-12.748-10.99-31.851Z" transform="translate(-124.09 -79.886)" opacity="0.3"/>
      <path id="Path_2808" data-name="Path 2808" d="M197.03,116.628l11.115,32.2,22.978-12.748-10.99-31.851Z" transform="translate(-124.09 -79.886)"/>
      <path id="Path_2809" data-name="Path 2809" d="M229.466,136.835l-9.151-26.515-18.1,9.707,9.251,26.8Z" transform="translate(-125.845 -81.95)" fill="#fff"/>
      <path id="Path_2810" data-name="Path 2810" d="M219.384,112.768l-10.057,5.283-.436-1.342,1.951-1.726,5.515-2.764,2.506-.469Z" transform="translate(-128.108 -82.434)" fill="#455a64"/>
      <path id="Path_2811" data-name="Path 2811" d="M217.2,111.935l-.436-1.025-5.382,2.89.3.9Z" transform="translate(-128.951 -82.149)" fill="#37474f"/>
      <path id="Path_2812" data-name="Path 2812" d="M217.739,107.774l-12.16,6.526-.529-1.263,12.279-6.447Z" transform="translate(-126.807 -80.686)" fill="#455a64"/>
      <path id="Path_2813" data-name="Path 2813" d="M228.384,134.81c-1.058-3.346-7.419-.192-6.176,3.247Z" transform="translate(-140.738 -107.399)" fill="#37474f"/>
      <path id="Path_2814" data-name="Path 2814" d="M245.377,182.538l-9.456,8.874-14.739-14.5a5.125,5.125,0,0,1-1.494-3.022c-.7-5.5-2.228-9.429-4.186-8.735-1.23.43.344,5.786.344,5.786l-1.838-1.045-2.142-6.216H210.9a2.453,2.453,0,0,0-2.314,1.646l-.919,2.645a7.8,7.8,0,0,0,2.718,8.827l3.233,2.394a5.038,5.038,0,0,1,1.237,1.322,163.851,163.851,0,0,0,17.285,22.1,4.41,4.41,0,0,0,5.581.575c9.019-5.951,16.478-16.041,16.478-16.041Z" transform="translate(-135.719 -117.661)" fill="#ffa8a7"/>
      <path id="Path_2815" data-name="Path 2815" d="M217.77,186.875a5.806,5.806,0,0,1,2.857-3.538,6.83,6.83,0,0,1,4.88-.741l14.018,13.773,9.423-7.479,8.827,4.589a78.388,78.388,0,0,1-15.413,16.531,5.482,5.482,0,0,1-7.194-.4C222.762,197.434,217.77,186.875,217.77,186.875Z" transform="translate(-139.289 -124.014)" fill="#ba68c8"/>
      <path id="Path_2816" data-name="Path 2816" d="M217.77,186.875a5.806,5.806,0,0,1,2.857-3.538,6.83,6.83,0,0,1,4.88-.741l14.018,13.773,9.423-7.479,8.827,4.589a78.388,78.388,0,0,1-15.413,16.531,5.482,5.482,0,0,1-7.194-.4C222.762,197.434,217.77,186.875,217.77,186.875Z" transform="translate(-139.289 -124.014)" fill="#0892e1"/>
      <path id="Path_2817" data-name="Path 2817" d="M223.248,187.205a8.556,8.556,0,0,1,5.951-.985l-3.683-3.624a6.83,6.83,0,0,0-4.88.741,5.806,5.806,0,0,0-2.857,3.538,38.49,38.49,0,0,0,2.182,3.888,8.543,8.543,0,0,1,3.286-3.557Z" transform="translate(-139.292 -124.014)" fill="#fff" opacity="0.3"/>
      <path id="Path_2818" data-name="Path 2818" d="M248.339,202.792a18.336,18.336,0,0,0-4.549,4.437c.112-3.7,1.217-5.23,3.121-5.839Z" transform="translate(-148.104 -130.436)" opacity="0.2"/>
      <path id="Path_2819" data-name="Path 2819" d="M318.183,199.42l20.306,22.138,17.423-12.233a6.665,6.665,0,0,1,5.1-1.1l6.771,1.283a1.878,1.878,0,0,1,1.508,1.68l.218,2.486a1.184,1.184,0,0,1-.661,1.17l-2.129,1.065,1.587,1.984a1.408,1.408,0,0,1-.218,1.984h0a1.4,1.4,0,0,1-1.891-.112l-3.438-3.524-1.078.754a2.533,2.533,0,0,1-3.412-.443l-.985-1.184-14.17,14.752a6.268,6.268,0,0,1-8.4.569L315.73,215.673Z" transform="translate(-172.475 -129.769)" fill="#ffa8a7"/>
      <path id="Path_2820" data-name="Path 2820" d="M385.268,223.546,382.14,221h0a3.65,3.65,0,0,0,2.823,2.466Z" transform="translate(-194.973 -137.08)" opacity="0.2"/>
      <path id="Path_2821" data-name="Path 2821" d="M379.521,196.565l-1.911-2.2,4.04,1.131Z" transform="translate(-185.265 -110.423)" opacity="0.2"/>
      <path id="Path_2822" data-name="Path 2822" d="M354.29,210.2c-2.427,1.7.053,6.652,1.422,7.108l-12.305,13.826a7.022,7.022,0,0,1-9.568.86L314.61,216.923l.741-1.236L317.8,199.42l20.28,20.928S351.235,210.7,354.29,210.2Z" transform="translate(-172.095 -129.769)" fill="#ba68c8"/>
      <path id="Path_2823" data-name="Path 2823" d="M354.29,210.2c-2.427,1.7.053,6.652,1.422,7.108l-12.305,13.826a7.022,7.022,0,0,1-9.568.86L314.61,216.923l.741-1.236L317.8,199.42l20.28,20.928S351.235,210.7,354.29,210.2Z" transform="translate(-172.095 -129.769)" fill="#0892e1"/>
      <path id="Path_2824" data-name="Path 2824" d="M371.674,215.72a19.781,19.781,0,0,0-4.992,2.506,5.4,5.4,0,0,0-.489,4.437,5.488,5.488,0,0,0,4.007,3.425l2.9-3.26C371.727,222.372,369.281,217.419,371.674,215.72Z" transform="translate(-189.479 -135.291)" fill="#fff" opacity="0.6"/>
      <path id="Path_2825" data-name="Path 2825" d="M305.434,172.76l3.359,3.465,6.368,24.155-12.92-10.123.741-1.236Z" transform="translate(-159.732 -103.102)" opacity="0.2"/>
      <path id="Path_2826" data-name="Path 2826" d="M335.717,203.6l-3.967,2.7,2.44-4.265Z" transform="translate(-169.729 -113.018)" opacity="0.2"/>
      <path id="Path_2827" data-name="Path 2827" d="M377.4,254.689l6.963-28.433a3.353,3.353,0,0,1,1.587-2.109l17.384-10.011a.6.6,0,0,1,.331-.086h0a1.633,1.633,0,0,1,1.574,1.1h0a.661.661,0,0,1,.046.443l-7,28.433a3.372,3.372,0,0,1-1.587,2.109L379.316,256.15a.661.661,0,0,1-.456.073h0a1.984,1.984,0,0,1-1.448-1.1v-.053h0a.661.661,0,0,1-.013-.384Z" transform="translate(-193.359 -134.725)" fill="#9a9a9a"/>
      <path id="Path_2828" data-name="Path 2828" d="M378.822,255.76l6.969-28.433a3.352,3.352,0,0,1,1.587-2.109l17.384-10.011a.661.661,0,0,1,.992.741l-7,28.439a3.372,3.372,0,0,1-1.587,2.109l-17.384,10.011a.661.661,0,0,1-.992-.747Z" transform="translate(-193.83 -135.082)"/>
      <path id="Path_2829" data-name="Path 2829" d="M384.35,256.925c-1.851-.813-6.235,4.238-9.852,3.5l.906-3.65c-5.673.661-7.274,2.711-9.257,2.982a18.718,18.718,0,0,1-3.716-.152,17.371,17.371,0,0,1,.04,8.715c1.984,0,3.419.06,3.921.06,2.566,0,5.568,1.091,8.351.536,5.29-1.25,7.353-3.174,7.373-5.462a3.672,3.672,0,0,0,1.494-3.835C383.589,259.61,386.2,257.732,384.35,256.925Z" transform="translate(-188.295 -149.201)" fill="#ffa8a7"/>
      <path id="Path_2830" data-name="Path 2830" d="M338.066,240.524c-4.972-.879-7.155-1.732-13.225-2.043l-4.2-11.776h0c-1.9-5.911-6.421-18.977-10.328-22.945-11.241,2.4-12.081,7.538-1.984,31.739.741,1.792,3.571,7.479,5.554,11.419a7.273,7.273,0,0,0,6.48,4H337.61a21.636,21.636,0,0,0,.456-10.395Z" transform="translate(-167.581 -131.239)" fill="#ba68c8"/>
      <path id="Path_2831" data-name="Path 2831" d="M362.558,260.187c-2.394-.264-4.272-.549-5.872-.827a21.635,21.635,0,0,1-.436,10.368h5.673S364.681,264.359,362.558,260.187Z" transform="translate(-186.202 -150.075)" fill="#ba68c8"/>
      <path id="Path_2832" data-name="Path 2832" d="M338.066,240.524c-4.972-.879-7.155-1.732-13.225-2.043l-4.2-11.776h0c-1.9-5.911-6.421-18.977-10.328-22.945-11.241,2.4-12.081,7.538-1.984,31.739.741,1.792,3.571,7.479,5.554,11.419a7.273,7.273,0,0,0,6.48,4H337.61a21.636,21.636,0,0,0,.456-10.395Z" transform="translate(-167.581 -131.239)" fill="#0892e1"/>
      <path id="Path_2833" data-name="Path 2833" d="M362.558,260.187c-2.394-.264-4.272-.549-5.872-.827a21.635,21.635,0,0,1-.436,10.368h5.673S364.681,264.359,362.558,260.187Z" transform="translate(-186.202 -150.075)" fill="#fff" opacity="0.6"/>
      <path id="Path_2834" data-name="Path 2834" d="M333.227,254.485a30.18,30.18,0,0,0-7.227.853A16.247,16.247,0,0,1,331.984,251Z" transform="translate(-175.954 -147.243)" opacity="0.2"/>
      <path id="Path_2835" data-name="Path 2835" d="M280.821,291.239c4.047-1.746,9.555-4.662,11.638-8.55s1.878-11,1.084-15.334l-32.559-9.026c-.979,9.442-9.654,15.625-9.654,15.625Z" transform="translate(-150.658 -149.726)" fill="#263238"/>
      <path id="Path_2836" data-name="Path 2836" d="M215.78,210.193l-3.081-2.281a6.077,6.077,0,0,1-2.089-2.8l-.727-1.984a7.558,7.558,0,0,0-2.579-3.438,25.9,25.9,0,0,1-4.721-4.536h0a2.843,2.843,0,0,0-.2,3.59,19.694,19.694,0,0,0,1.885,2.156l-1.7.119a5.872,5.872,0,0,1-3.485-.853l-4.3-2.645a.813.813,0,0,0-1.243.661,18.574,18.574,0,0,0,1.243,6.229,7,7,0,0,0,4.106,4.153c2.281.873,4.5,1.633,5.773,2.056a7.274,7.274,0,0,1,2.023,1.051l4.516,3.366Z" transform="translate(-131.077 -128.322)" fill="#ffa8a7"/>
      <path id="Path_2837" data-name="Path 2837" d="M219.725,213.41l3.888,2.506a7.578,7.578,0,0,1-5,6.493l-3.564-3.372S218.482,218.508,219.725,213.41Z" transform="translate(-138.367 -134.508)" fill="#ba68c8"/>
      <path id="Path_2838" data-name="Path 2838" d="M219.725,213.41l3.888,2.506a7.578,7.578,0,0,1-5,6.493l-3.564-3.372S218.482,218.508,219.725,213.41Z" transform="translate(-138.367 -134.508)" fill="#fff" opacity="0.6"/>
      <path id="Path_2839" data-name="Path 2839" d="M223.987,212a7.756,7.756,0,0,0,1.448-3.835L237.589,216l7.168-20.062a7.564,7.564,0,0,1,6.156-4.959l3.5-.45-3.273,23.487-5.587,11.208a7.452,7.452,0,0,1-11.4,2.433L220.43,214.645A7.749,7.749,0,0,0,223.987,212Z" transform="translate(-140.19 -126.757)" fill="#ba68c8"/>
      <path id="Path_2840" data-name="Path 2840" d="M223.987,212a7.756,7.756,0,0,0,1.448-3.835L237.589,216l7.168-20.062a7.564,7.564,0,0,1,6.156-4.959l3.5-.45-3.273,23.487-5.587,11.208a7.452,7.452,0,0,1-11.4,2.433L220.43,214.645A7.749,7.749,0,0,0,223.987,212Z" transform="translate(-140.19 -126.757)" fill="#0892e1"/>
      <path id="Path_2841" data-name="Path 2841" d="M234,200.547l4.609,3.458-3.326-7.035Z" transform="translate(-136.614 -111.304)" opacity="0.2"/>
      <g id="Group_286" data-name="Group 286" transform="translate(101.392)">
        <path id="Path_2842" data-name="Path 2842" d="M247.633,95.409l-.833.02,6.407-2.162.84-.026Z" transform="translate(-242.342 -76.163)" fill="#1e272b"/>
        <path id="Path_2843" data-name="Path 2843" d="M259.546,124.409a.423.423,0,0,1-.066-.159A.423.423,0,0,0,259.546,124.409Z" transform="translate(-254.811 -104.304)" fill="none"/>
        <path id="Path_2844" data-name="Path 2844" d="M253.6,98.245h0a.522.522,0,0,1,.04-.145h0a.522.522,0,0,0-.04.145Z" transform="translate(-252.819 -95.445)" fill="none"/>
        <path id="Path_2845" data-name="Path 2845" d="M253.66,98.09Z" transform="translate(-252.839 -95.441)" fill="none"/>
        <path id="Path_2846" data-name="Path 2846" d="M259.879,124.75h0Z" transform="translate(-254.919 -104.473)" fill="none"/>
        <path id="Path_2847" data-name="Path 2847" d="M259.62,124.54a.43.43,0,0,0,.073.079A.428.428,0,0,1,259.62,124.54Z" transform="translate(-254.858 -104.402)" fill="none"/>
        <path id="Path_2848" data-name="Path 2848" d="M252.2,69Z" transform="translate(-244.172 -67.952)" fill="#1d262a"/>
        <path id="Path_2849" data-name="Path 2849" d="M242.51,71.169l3,13.112.668,2.916,6.414-2.169L248.917,69Z" transform="translate(-240.889 -67.952)" fill="#13a0f0"/>
        <path id="Path_2850" data-name="Path 2850" d="M265.378,111.366,261.5,94.425a.383.383,0,0,0-.469-.331l-7.148,2.413a.5.5,0,0,0-.126.079h0a.3.3,0,0,0-.066.086h0a.522.522,0,0,0-.04.145.086.086,0,0,1,0,.04.7.7,0,0,0,0,.165l3.881,16.941a.423.423,0,0,0,.066.159v.033a.43.43,0,0,0,.073.079h.179a.41.41,0,0,0,.126,0l7.148-2.288A.489.489,0,0,0,265.378,111.366Zm-4.51-16.233h0l3.67,16.028-6.407,2.169h0l-.661-2.923-3-13.112h0l6.407-2.162Z" transform="translate(-252.833 -94.084)" fill="#455a64"/>
        <path id="Path_2851" data-name="Path 2851" d="M257.3,114.379h-.046a.431.431,0,0,1-.073-.079v-.033a.423.423,0,0,1-.066-.159l-3.881-16.941a.7.7,0,0,1,0-.165.086.086,0,0,0,0-.04h0a.522.522,0,0,1,.04-.145h0a.3.3,0,0,1,.066-.086h0a.5.5,0,0,1,.126-.079l7.141-2.413h-.747a.205.205,0,0,0-.086,0l-7.148,2.413a.278.278,0,0,0-.119.073h0a.377.377,0,0,0-.079.119h0a.5.5,0,0,0,0,.106v.04a.086.086,0,0,0,0,.04.456.456,0,0,0,0,.165l3.875,16.941a.41.41,0,0,0,.383.35h.694Z" transform="translate(-252.419 -94.135)" fill="#37474f"/>
      </g>
      <path id="Path_2852" data-name="Path 2852" d="M267.9,108.38" transform="translate(-156.271 -98.927)" fill="#ffa8a7"/>
      <path id="Path_2853" data-name="Path 2853" d="M252.413,102.57l-1.117,2.678a6.434,6.434,0,0,0-.483,2.909l.661,9.918L260.85,149.8a17.807,17.807,0,0,0,2.929,5.779l9.475,12.411,7.776-8.424-9.092-11.942L257.756,117.4l2.764-3.187a4.906,4.906,0,0,0,1.164-2.685l.324-3.088a.985.985,0,0,0-.794-1.071h0a1.1,1.1,0,0,0-1.236.661l-.992,2.46a2.1,2.1,0,0,1-.661.86h0a2.063,2.063,0,0,1-2.942-.45l-1.587-2.261Z" transform="translate(-150.478 -96.959)" fill="#ffa8a7"/>
      <path id="Path_2854" data-name="Path 2854" d="M259.226,125.955a6.7,6.7,0,0,0-7,2.466l8.027,29.306a14.937,14.937,0,0,0,2.268,4.754l10.309,14.3.879-.912,7.776-8.424L272.4,155.5Z" transform="translate(-150.963 -104.812)" fill="#ba68c8"/>
      <path id="Path_2855" data-name="Path 2855" d="M259.226,125.955a6.7,6.7,0,0,0-7,2.466l8.027,29.306a14.937,14.937,0,0,0,2.268,4.754l10.309,14.3.879-.912,7.776-8.424L272.4,155.5Z" transform="translate(-150.963 -104.812)" fill="#0892e1"/>
      <path id="Path_2856" data-name="Path 2856" d="M256.779,130.22a6.083,6.083,0,0,1,4.41.159l-1.984-4.424a6.7,6.7,0,0,0-7,2.466l1.263,4.629a6.1,6.1,0,0,1,3.306-2.83Z" transform="translate(-150.956 -104.812)" fill="#fff" opacity="0.3"/>
      <path id="Path_2857" data-name="Path 2857" d="M274.623,189.49l-6.467.661c-5.29,4.675-8.034,14.474-6.9,25.3a193.075,193.075,0,0,1,.8,22.343c14.355,10.487,32.48,8.5,34.761,6.216l-1.065-18.924a9.192,9.192,0,0,1,.727-4.371c1.322-3.147,3.769-9.35,4.1-14.15a25.087,25.087,0,0,0-2.645-12.365l-9.4-4.106Z" transform="translate(-153.936 -126.405)" fill="#ba68c8"/>
      <g id="Group_287" data-name="Group 287" transform="translate(107.07 63.085)">
        <path id="Path_2858" data-name="Path 2858" d="M274.623,189.49l-6.467.661c-5.29,4.675-8.034,14.474-6.9,25.3a193.075,193.075,0,0,1,.8,22.343c14.355,10.487,32.48,8.5,34.761,6.216l-1.065-18.924a9.192,9.192,0,0,1,.727-4.371c1.322-3.147,3.769-9.35,4.1-14.15a25.087,25.087,0,0,0-2.645-12.365l-9.4-4.106Z" transform="translate(-261.005 -189.49)" fill="#13a0f0"/>
      </g>
      <path id="Path_2859" data-name="Path 2859" d="M276.153,203.76a70.073,70.073,0,0,0-5.323,25.272l2.645,5.726,4.179-5.468a214.894,214.894,0,0,1,.5-25.16Z" transform="translate(-157.264 -131.239)" fill="#fff"/>
      <path id="Path_2860" data-name="Path 2860" d="M278.514,196.65a19.644,19.644,0,0,0,.225,4.7,3.789,3.789,0,0,0,2.017.37,16.477,16.477,0,0,0,3.227-3.908l-3.227-1.164Z" transform="translate(-159.85 -128.831)" fill="#fff"/>
      <path id="Path_2861" data-name="Path 2861" d="M281.93,192.612c2.784,1.025,5.29,5.951,5.29,5.951,7.313-6.216,8.451-10.09,8.451-10.09a14.547,14.547,0,0,0-3.544-3.743Z" transform="translate(-161.024 -124.793)" fill="#ba68c8"/>
      <path id="Path_2862" data-name="Path 2862" d="M279.867,193.5c-2.129.053-4.007,3.022-4.007,3.022-.344-5.191,4.007-9.178,4.007-9.178Z" transform="translate(-158.961 -125.677)" fill="#ba68c8"/>
      <g id="Group_288" data-name="Group 288" transform="translate(116.879 59.938)">
        <path id="Path_2863" data-name="Path 2863" d="M281.93,192.612c2.784,1.025,5.29,5.951,5.29,5.951,7.313-6.216,8.451-10.09,8.451-10.09a14.547,14.547,0,0,0-3.544-3.743Z" transform="translate(-277.904 -184.73)" fill="#fff"/>
        <path id="Path_2864" data-name="Path 2864" d="M279.867,193.5c-2.129.053-4.007,3.022-4.007,3.022-.344-5.191,4.007-9.178,4.007-9.178Z" transform="translate(-275.841 -185.614)" fill="#fff"/>
      </g>
      <path id="Path_2865" data-name="Path 2865" d="M290.358,152.134a5.773,5.773,0,0,0-3.69-1.984l-19.242,1.818c-2.222,4.774-.45,7.935-.45,7.935-.3,7.274-.549,11.9,2.605,13.443a14.483,14.483,0,0,0,7.035.992,16.577,16.577,0,0,0,6.447-1.739l.1-.053a5.515,5.515,0,0,0,2.764-3.683,31.482,31.482,0,0,0,.661-4.3,17.933,17.933,0,0,1,.264-2.46,4.456,4.456,0,0,1,1.084-2.182,2.473,2.473,0,0,1,2.215-.747,1.7,1.7,0,0,1,.4.152C291.092,156.075,291.231,153.271,290.358,152.134Z" transform="translate(-155.732 -113.078)" fill="#37474f"/>
      <path id="Path_2866" data-name="Path 2866" d="M283.934,153.875a6.9,6.9,0,0,0,.258,4.093,30.273,30.273,0,0,1,1.223,3.967,6.612,6.612,0,0,1-.529,4.014,4.675,4.675,0,0,1-3.068,2.486c-2.07.443-4.093-.78-6.163-1.19a8.55,8.55,0,0,0-5.8,1.038,1,1,0,0,1-1.514-.807c-.245-4.192-.245-10.765.37-13.846Z" transform="translate(-156.369 -114.257)" fill="#ffa8a7"/>
      <path id="Path_2867" data-name="Path 2867" d="M295,182.32Z" transform="translate(-165.452 -123.976)" fill="#ffa8a7"/>
      <path id="Path_2868" data-name="Path 2868" d="M297.479,175.1s0,1.7-.079,3.729a5.812,5.812,0,0,0,1.792-2.823A2.645,2.645,0,0,1,297.479,175.1Z" transform="translate(-166.265 -121.53)" fill="#37474f"/>
      <path id="Path_2869" data-name="Path 2869" d="M268.137,145.387l-2.394-1.686a5.2,5.2,0,0,0,.919,4.781A7.564,7.564,0,0,0,270.881,151a15.975,15.975,0,0,0,4.959.231A36.552,36.552,0,0,0,283,149.91a5.7,5.7,0,0,0,2.817-1.5,3.809,3.809,0,0,0,.145-4.45A5.548,5.548,0,0,0,282,141.631a14.9,14.9,0,0,0-4.767.384,14.117,14.117,0,0,1-4.761.344,4.973,4.973,0,0,1-3.842-2.579C267.291,141.988,268.137,145.387,268.137,145.387Z" transform="translate(-155.464 -109.565)" fill="#37474f"/>
      <path id="Path_2870" data-name="Path 2870" d="M264.451,138.57l-3.511,4.318,3.22,1.151Z" transform="translate(-145.741 -91.52)" fill="#f28f8f"/>
      <path id="Path_2871" data-name="Path 2871" d="M281.248,176.75l-2.718.827a1.666,1.666,0,0,0,1.832.853,1.541,1.541,0,0,0,.886-1.68Z" transform="translate(-159.872 -122.089)" fill="#f28f8f"/>
      <path id="Path_2872" data-name="Path 2872" d="M281.248,176.75l-2.718.827a1.666,1.666,0,0,0,1.832.853,1.541,1.541,0,0,0,.886-1.68Z" transform="translate(-159.872 -122.089)" opacity="0.3"/>
      <path id="Path_2873" data-name="Path 2873" d="M280,178.62a1.462,1.462,0,0,0,.886.053,1.375,1.375,0,0,0,.879-1.243,1.561,1.561,0,0,0-1.045.2A1.58,1.58,0,0,0,280,178.62Z" transform="translate(-160.37 -122.313)" fill="#f28f8f"/>
      <path id="Path_2874" data-name="Path 2874" d="M284.852,166.141a.965.965,0,1,1-.24-.707A.965.965,0,0,1,284.852,166.141Z" transform="translate(-161.361 -118.145)" fill="#263238"/>
      <path id="Path_2875" data-name="Path 2875" d="M272.652,164.994a.965.965,0,1,1-.912-1.025.965.965,0,0,1,.912,1.025Z" transform="translate(-157.228 -117.759)" fill="#263238"/>
      <path id="Path_2876" data-name="Path 2876" d="M271.367,159.4l-2.215,1.382a1.408,1.408,0,0,1,.5-1.508A1.6,1.6,0,0,1,271.367,159.4Z" transform="translate(-156.677 -116.104)" fill="#263238"/>
      <path id="Path_2877" data-name="Path 2877" d="M285,159.956c.661.536,1.375,1.071,2.056,1.613a1.408,1.408,0,0,0-.337-1.561A1.613,1.613,0,0,0,285,159.956Z" transform="translate(-162.064 -116.324)" fill="#263238"/>
      <path id="Path_2878" data-name="Path 2878" d="M297.2,165.329a2.711,2.711,0,0,0-1.322-1.415,1.7,1.7,0,0,0-.4-.152,2.473,2.473,0,0,0-2.215.747,4.457,4.457,0,0,0-1.084,2.182,17.938,17.938,0,0,0-.264,2.46,30.131,30.131,0,0,1-.661,4.41,5.422,5.422,0,0,1-2.744,3.577l-.093.053a16.577,16.577,0,0,1-6.447,1.739V185.5l9.1-5.389a2.189,2.189,0,0,0,1.078-1.851c0-1.051.046-2.209.073-3.306.046-2.03.079-3.729.079-3.729a2.645,2.645,0,0,0,1.713.906,2.262,2.262,0,0,0,.9-.046,3.386,3.386,0,0,0,1.984-1.732,6.486,6.486,0,0,0,.661-2.645A5.462,5.462,0,0,0,297.2,165.329Z" transform="translate(-161.038 -117.678)" fill="#ffa8a7"/>
      <path id="Path_2879" data-name="Path 2879" d="M289.633,182.677a6.209,6.209,0,0,0,1.124-2.367,5.442,5.442,0,0,1-2.328,2.447l-.093.053a16.577,16.577,0,0,1-6.447,1.739v1.673a15.9,15.9,0,0,0,3.809-.813A8.55,8.55,0,0,0,289.633,182.677Z" transform="translate(-161.011 -123.295)" opacity="0.2"/>
      <path id="Path_2880" data-name="Path 2880" d="M171.552,377.589a9.827,9.827,0,0,0,7.366,2.711,22.363,22.363,0,0,0,7.8-1.984c2.493-1.025,5.62-3.888,8.312-3.835a65.209,65.209,0,0,0,7.882-.542,40.918,40.918,0,0,0-1.117-10.672l-12.563-.337c-3.392,4.629-10,8.523-15,9.978a4.384,4.384,0,0,0-3.1,3.306.325.325,0,0,0,0,.079,5.376,5.376,0,0,0,.423,1.3Z" transform="translate(-123.487 -185.161)"/>
      <path id="Path_2881" data-name="Path 2881" d="M194.974,380.139c-2.691-.053-5.819,2.81-8.312,3.835a22.363,22.363,0,0,1-7.8,1.984,9.827,9.827,0,0,1-7.366-2.711,5.376,5.376,0,0,1-.436-1.283.324.324,0,0,1,0-.079,3.967,3.967,0,0,0,0,1.68,5.384,5.384,0,0,0,.436,1.276,9.827,9.827,0,0,0,7.366,2.711,22.21,22.21,0,0,0,7.8-1.984c2.493-1.025,5.62-3.895,8.312-3.842a59.323,59.323,0,0,0,7.763-.45q.086-.84.119-1.686A65.213,65.213,0,0,1,194.974,380.139Z" transform="translate(-123.436 -190.805)" fill="#263238"/>
      <path id="Path_2882" data-name="Path 2882" d="M252.06,387.6a18.906,18.906,0,0,1-.377,3.815,8.854,8.854,0,0,1-3.491,5.568,11.266,11.266,0,0,1-5.541,1.475,12.358,12.358,0,0,1-5.072-.522,5.766,5.766,0,0,1-2.969-2.427v.066a5.29,5.29,0,0,0,3.412,3.557,12.272,12.272,0,0,0,5.072.522,11.2,11.2,0,0,0,5.541-1.475,8.827,8.827,0,0,0,3.491-5.568,18,18,0,0,0,.377-3.815,6.434,6.434,0,0,1,2.05-4.662c.311-.3.615-.6.893-.919a2.275,2.275,0,0,0,.542-1.666,5.877,5.877,0,0,0-.073-.694c-.463.536-1.547,1.825-1.825,2.083A6.427,6.427,0,0,0,252.06,387.6Z" transform="translate(-144.994 -191.236)" fill="#263238"/>
      <path id="Path_2883" data-name="Path 2883" d="M242.4,371a13.886,13.886,0,0,1-.979,7.736,29.372,29.372,0,0,1-4.093,6.731,18.979,18.979,0,0,0-2.142,3.128,5.587,5.587,0,0,0-.608,3.6,5.766,5.766,0,0,0,2.969,2.427,12.358,12.358,0,0,0,5.072.522,11.265,11.265,0,0,0,5.541-1.475,8.854,8.854,0,0,0,3.491-5.568,18.9,18.9,0,0,0,.377-3.815,6.427,6.427,0,0,1,2.043-4.695c.278-.258,1.362-1.547,1.825-2.083a14.2,14.2,0,0,0-1.885-5.4Z" transform="translate(-144.958 -187.895)"/>
      <path id="Path_2884" data-name="Path 2884" d="M217.805,333.744c-1.554,6.573-2.605,10.705-5.462,19.533,0,0-11.056,2.367-15.413-1.944l4.979-24.042Z" transform="translate(-132.229 -173.088)" fill="#13a0f0"/>
      <path id="Path_2885" data-name="Path 2885" d="M260.652,339.9c-.423,6.738-.172,12.815-1.494,22,0,0-9.416,3.128-14.441-.384l-.827-16.061Z" transform="translate(-148.137 -177.36)" fill="#13a0f0"/>
      <path id="Path_2886" data-name="Path 2886" d="M89.85,243.687V302.12l2.07-1.2V242.49Z" transform="translate(-87.78 -126.725)" fill="#455a64"/>
      <path id="Path_2887" data-name="Path 2887" d="M88.793,243.687V302.12l-2.063-1.2V242.49Z" transform="translate(-86.723 -126.725)" fill="#37474f"/>
      <path id="Path_2888" data-name="Path 2888" d="M92.98,252.419,141.336,224.5V222.28L92.98,250.2Z" transform="translate(-88.841 -119.878)" fill="#455a64"/>
      <path id="Path_2889" data-name="Path 2889" d="M92.98,247.243l46.293-26.773,2.063,1.2L92.98,249.584Z" transform="translate(-88.841 -119.265)" fill="#37474f"/>
      <path id="Path_2890" data-name="Path 2890" d="M310.6,283.16V341.6l2.063-1.2V281.97Z" transform="translate(-162.564 -140.1)" fill="#455a64"/>
      <path id="Path_2891" data-name="Path 2891" d="M309.54,283.16V341.6l-2.07-1.2V281.97Z" transform="translate(-161.504 -140.1)" fill="#37474f"/>
      <path id="Path_2892" data-name="Path 2892" d="M234.34,327.207V385.64l2.063-1.2V326.01Z" transform="translate(-136.729 -155.019)" fill="#455a64"/>
      <path id="Path_2893" data-name="Path 2893" d="M233.28,327.207V385.64l-2.07-1.2V326.01Z" transform="translate(-135.669 -155.019)" fill="#37474f"/>
      <path id="Path_2894" data-name="Path 2894" d="M237.46,335.939l48.362-27.917V305.8L237.46,333.724Z" transform="translate(-137.786 -148.173)" fill="#455a64"/>
      <path id="Path_2895" data-name="Path 2895" d="M237.46,330.767,283.753,304l2.07,1.19L237.46,333.114Z" transform="translate(-137.786 -147.563)" fill="#37474f"/>
      <g id="Group_289" data-name="Group 289" transform="translate(95.541 141.87)">
        <path id="Path_2896" data-name="Path 2896" d="M310.6,283.16V341.6l2.063-1.2V281.97Z" transform="translate(-258.105 -281.97)"/>
        <path id="Path_2897" data-name="Path 2897" d="M309.54,283.16V341.6l-2.07-1.2V281.97Z" transform="translate(-257.045 -281.97)"/>
        <path id="Path_2898" data-name="Path 2898" d="M234.34,327.207V385.64l2.063-1.2V326.01Z" transform="translate(-232.27 -296.889)"/>
        <path id="Path_2899" data-name="Path 2899" d="M233.28,327.207V385.64l-2.07-1.2V326.01Z" transform="translate(-231.21 -296.889)"/>
        <path id="Path_2900" data-name="Path 2900" d="M237.46,335.939l48.362-27.917V305.8L237.46,333.724Z" transform="translate(-233.327 -290.043)"/>
        <path id="Path_2901" data-name="Path 2901" d="M237.46,330.767,283.753,304l2.07,1.19L237.46,333.114Z" transform="translate(-233.327 -289.433)"/>
      </g>
      <g id="Group_290" data-name="Group 290" transform="translate(0.007 101.205)">
        <path id="Path_2902" data-name="Path 2902" d="M89.85,243.687V302.12l2.07-1.2V242.49Z" transform="translate(-87.787 -227.93)"/>
        <path id="Path_2903" data-name="Path 2903" d="M88.793,243.687V302.12l-2.063-1.2V242.49Z" transform="translate(-86.73 -227.93)"/>
        <path id="Path_2904" data-name="Path 2904" d="M92.98,252.419,141.336,224.5V222.28L92.98,250.2Z" transform="translate(-88.847 -221.083)"/>
        <path id="Path_2905" data-name="Path 2905" d="M92.98,247.243l46.293-26.773,2.063,1.2L92.98,249.584Z" transform="translate(-88.847 -220.47)"/>
      </g>
      <path id="Path_2906" data-name="Path 2906" d="M184.331,274.935,86.72,218.677l52.495-30.317,97.6,56.251Z" transform="translate(-86.72 -108.387)" fill="#ba68c8"/>
      <path id="Path_2907" data-name="Path 2907" d="M184.331,296.108,86.72,239.685V234.21l97.611,56.257Z" transform="translate(-86.72 -123.92)" fill="#ba68c8"/>
      <path id="Path_2908" data-name="Path 2908" d="M234.34,303.744l52.488-30.324v5.654L234.34,309.391Z" transform="translate(-136.729 -137.203)" fill="#ba68c8"/>
      <path id="Path_2909" data-name="Path 2909" d="M184.331,274.935,86.72,218.677l52.495-30.317,97.6,56.251Z" transform="translate(-86.72 -108.387)" fill="#fff" opacity="0.3"/>
      <path id="Path_2910" data-name="Path 2910" d="M234.34,303.744l52.488-30.324v5.654L234.34,309.391Z" transform="translate(-136.729 -137.203)" fill="#fff" opacity="0.1"/>
      <path id="Path_2911" data-name="Path 2911" d="M184.331,296.108,86.72,239.685V234.21l97.611,56.257Z" transform="translate(-86.72 -123.92)" fill="#fff" opacity="0.2"/>
      <path id="Path_2912" data-name="Path 2912" d="M139.215,188.36l97.6,56.251.007-.007v5.654l-52.488,30.317L86.72,224.152v-5.475Z" transform="translate(-86.72 -108.387)"/>
      <path id="Path_2913" data-name="Path 2913" d="M159.034,206.977,151.212,224.1l-20.432-3.167L138.6,203.81Z" transform="translate(-101.646 -113.621)" fill="#e6e6e6"/>
      <path id="Path_2914" data-name="Path 2914" d="M167.223,209.978,149.535,224.4l-17.245-7.108,17.681-14.421Z" transform="translate(-102.158 -113.303)" fill="#f0f0f0"/>
      <path id="Path_2915" data-name="Path 2915" d="M177.029,206.32l10.6,10.613-26.462,8.841L150.56,215.161Z" transform="translate(-108.347 -114.472)" fill="#fff"/>
      <path id="Path_2916" data-name="Path 2916" d="M178.693,270.055l21.417-12.444a4.847,4.847,0,0,1,4.391,0l35.336,20.406a1.593,1.593,0,0,1,.913,1.2h0v1.362h0a.992.992,0,0,1,0,.278h0a1.269,1.269,0,0,1-.152.3h0a2.146,2.146,0,0,1-.264.291h0a2.791,2.791,0,0,1-.4.284l-21.417,12.444a4.237,4.237,0,0,1-.608.271l-.238.073-.311.073a3.577,3.577,0,0,1-.384.066h-.093a2.812,2.812,0,0,0-.522.033h-.086a2.708,2.708,0,0,1-.516-.033h-.126a2.6,2.6,0,0,1-.5-.086h-.093l-.43-.132h-.079a3.415,3.415,0,0,1-.469-.225l-35.336-20.4a3.308,3.308,0,0,1-.4-.284l-.1-.112a1.323,1.323,0,0,1-.185-.2.847.847,0,0,1-.073-.132.4.4,0,0,1-.1-.344,1.016,1.016,0,0,1-.033-.2v-1.25a1.561,1.561,0,0,1,.853-1.23Z" transform="translate(-125.762 -149.304)" fill="#455a64"/>
      <path id="Path_2917" data-name="Path 2917" d="M240.773,286.518a1.123,1.123,0,0,1-.04.39,1.058,1.058,0,0,1-.152.3v.033a1.86,1.86,0,0,1-.265.3h0a2.33,2.33,0,0,1-.4.278L218.5,300.259a3.15,3.15,0,0,1-.608.271l-.238.073a2.673,2.673,0,0,1-.311.079l-.384.066h-1.3a4.323,4.323,0,0,1-.5-.086h-.093a3.227,3.227,0,0,1-.43-.132h-.079a3.417,3.417,0,0,1-.469-.225l-35.336-20.4a2.724,2.724,0,0,1-.4-.284,1.445,1.445,0,0,1-.1-.106,2.462,2.462,0,0,1-.185-.2c0-.046-.046-.093-.073-.132a1.909,1.909,0,0,1-.1-.2,1.126,1.126,0,0,1,0-.145,1.039,1.039,0,0,1-.033-.2v1.25a1.019,1.019,0,0,0,.033.2,1.369,1.369,0,0,0,0,.145,1.386,1.386,0,0,0,.1.2.845.845,0,0,0,.073.132,1.323,1.323,0,0,0,.185.2l.1.112a3.3,3.3,0,0,0,.4.284l35.336,20.4a3.421,3.421,0,0,0,.469.225h.079l.43.132h.093c.165.033.331.066.5.086h.079a2.7,2.7,0,0,1,.516.033h.046a2.738,2.738,0,0,0,.522-.033h.093a3.571,3.571,0,0,0,.384-.066l.311-.073.238-.073a4.243,4.243,0,0,0,.608-.271l21.417-12.444a2.792,2.792,0,0,0,.4-.284h0a2.148,2.148,0,0,0,.264-.291h0a1.269,1.269,0,0,0,.152-.3h0a.992.992,0,0,0,0-.278h0v-1.362Z" transform="translate(-125.772 -156.603)" opacity="0.3"/>
      <path id="Path_2918" data-name="Path 2918" d="M182.29,274.988l34.324,19.837.139.066h.073a1.825,1.825,0,0,0,.271.079l.185.04h.82l.225-.04.278-.073a1.975,1.975,0,0,0,.238-.1l11.042-6.421-35.455-20.5Z" transform="translate(-127.269 -152.961)" fill="#37474f"/>
      <path id="Path_2919" data-name="Path 2919" d="M236,309Z" transform="translate(-145.465 -166.892)" fill="#263238"/>
      <path id="Path_2920" data-name="Path 2920" d="M228.207,270.309l-6.46,3.8a.661.661,0,0,0,0,1.131l9.654,5.574a1.078,1.078,0,0,0,1.084,0l6.454-3.8a.661.661,0,0,0,0-1.131l-9.661-5.574A1.084,1.084,0,0,0,228.207,270.309Z" transform="translate(-140.528 -153.737)" fill="#37474f"/>
      <path id="Path_2921" data-name="Path 2921" d="M170.116,238.739h0l.846-.423h0a1.045,1.045,0,0,1,.946.06l35.581,20.683a4.325,4.325,0,0,1,2.083,3.048l3.657,23.262a1.051,1.051,0,0,1-.6,1.124h0l-.82.4h0a1.045,1.045,0,0,1-.913-.079L175.32,266.134a4.278,4.278,0,0,1-2.083-3.048l-3.663-23.255a1.065,1.065,0,0,1,.542-1.091Z" transform="translate(-122.957 -142.917)" fill="#13a0f0"/>
      <path id="Path_2922" data-name="Path 2922" d="M198.357,270.927a7.888,7.888,0,0,1,3.531,5.091c.231,1.812-.972,2.486-2.691,1.488a7.842,7.842,0,0,1-3.531-5.085C195.434,270.61,196.637,269.942,198.357,270.927Z" transform="translate(-131.791 -153.839)" fill="#fff"/>
      <path id="Path_2923" data-name="Path 2923" d="M212.788,285.687l-3.643-23.236a4.331,4.331,0,0,0-2.089-3.048l-35.6-20.663a1.038,1.038,0,0,0-1.065,0h0l.846-.423h0a1.045,1.045,0,0,1,.946.06l35.581,20.683a4.324,4.324,0,0,1,2.083,3.048l3.657,23.262a1.051,1.051,0,0,1-.6,1.124h0l-.82.4h0a1.071,1.071,0,0,0,.7-1.21Z" transform="translate(-123.238 -142.917)" opacity="0.3"/>
      <path id="Path_2924" data-name="Path 2924" d="M288.43,196.65l-13.575,36.368-22.33,8.669a7.776,7.776,0,0,1-3.6.562l-6-1.065a4.014,4.014,0,0,0-2.427.569l-4.139,2.506a4.29,4.29,0,0,0-1.1.946l-2.03,2.4a1.521,1.521,0,0,0,.278,2.215l1.276.913a4.536,4.536,0,0,0,4.681.357l3.2-1.613,1.475.35a14.957,14.957,0,0,0,9.621-.912h0l24.221-4.893a10.771,10.771,0,0,0,7.869-6.764s11.572-27.467,8.841-33.683C293.508,200.888,288.43,196.65,288.43,196.65Z" transform="translate(-144.408 -128.831)" fill="#ffa8a7"/>
      <path id="Path_2925" data-name="Path 2925" d="M298.275,196.65l-14.011,35.938-22.323,8.53c4.159,2.328,4.377,7.531,3.967,8.146l23.639-4.946a9.211,9.211,0,0,0,6.692-5.779l9.489-25.127a13.046,13.046,0,0,0-7.452-16.756Z" transform="translate(-154.252 -128.831)" fill="#ba68c8"/>
      <path id="Path_2926" data-name="Path 2926" d="M298.275,196.65l-14.011,35.938-22.323,8.53c4.159,2.328,4.377,7.531,3.967,8.146l23.639-4.946a9.211,9.211,0,0,0,6.692-5.779l9.489-25.127a13.046,13.046,0,0,0-7.452-16.756Z" transform="translate(-154.252 -128.831)" fill="#0892e1"/>
      <path id="Path_2927" data-name="Path 2927" d="M271.118,264.576A8.953,8.953,0,0,0,268,260.39l-6.063,2.321c4.159,2.328,4.377,7.531,3.967,8.146l5.429-1.137a8.914,8.914,0,0,0-.218-5.144Z" transform="translate(-154.252 -150.424)" fill="#fff" opacity="0.4"/>
      <path id="Path_2928" data-name="Path 2928" d="M295.7,249.972c4.113.06,6.976,1.838,7.412,3.141-.708-6.169-6.652-5.072-6.652-5.072Z" transform="translate(-165.689 -146.215)" opacity="0.2"/>
    </g>
    <g id="Speech_bubbles" data-name="Speech bubbles" transform="translate(75.277 25.466)">
      <path id="Path_2929" data-name="Path 2929" d="M149.185,145.245,128.29,157.24a4.113,4.113,0,0,0-2.05,3.538V178.79A4.033,4.033,0,0,0,132.4,182.1l3.63-2.076.324.536a.069.069,0,0,1,.06.046h.04c.6.4,1.646.959,1.885,1.078h0a.225.225,0,0,0,.278-.139l1.322-3.789h0l13.337-7.624a4.067,4.067,0,0,0,2.056-3.538V148.565C155.347,145.629,151.016,144.2,149.185,145.245Z" transform="translate(-126.214 -92.191)" fill="#13a0f0"/>
      <path id="Path_2930" data-name="Path 2930" d="M134.83,167.3Z" transform="translate(-129.124 -99.778)" fill="none"/>
      <path id="Path_2931" data-name="Path 2931" d="M141.36,198.22a.069.069,0,0,1,.06.046h.04c.6.4,1.646.959,1.885,1.078h0a.2.2,0,0,1-.132-.093l-1.322-2.1.258-.145h0l-1.137.661Z" transform="translate(-131.217 -109.843)" fill="#fff" opacity="0.2"/>
      <path id="Path_2932" data-name="Path 2932" d="M131.093,161.085a4.219,4.219,0,0,1,1.1-1.369h0a3.266,3.266,0,0,1,.5-.337l20.895-11.995a1.362,1.362,0,0,1,2.037,1.184c0-2.942-4.331-4.364-6.163-3.306l-20.895,11.995a4.047,4.047,0,0,0-1.521,1.541Z" transform="translate(-126.485 -92.194)" fill="#fff" opacity="0.4"/>
      <path id="Path_2933" data-name="Path 2933" d="M130.353,188.035V170.023a3.863,3.863,0,0,1,.033-.483,4.172,4.172,0,0,1,.423-1.322l-4.08-2.328a4.06,4.06,0,0,0-.529,1.984v18.012a4.033,4.033,0,0,0,6.163,3.306,1.362,1.362,0,0,1-2.01-1.157Z" transform="translate(-126.2 -99.3)" fill="#fff" opacity="0.2"/>
      <path id="Path_2934" data-name="Path 2934" d="M130.494,156.66l.02,4.939-3.921,2.261-.013-4.933Z" transform="translate(-118.156 -78.538)" fill="#fff"/>
      <path id="Path_2935" data-name="Path 2935" d="M139.994,145.7l.026,8.55-3.914,2.261-.026-8.55Z" transform="translate(-121.374 -74.825)" fill="#fff"/>
      <path id="Path_2936" data-name="Path 2936" d="M154.5,155.7c.126-.073.225-.073.278,0a.331.331,0,0,1,.046.317l-.846,3.055a.661.661,0,0,1-.291.4l-.112.04c-.159,0-.245-.139-.179-.364l.489-1.785-4.5,5.951a.549.549,0,0,1-.172.159.245.245,0,0,1-.159.04l-1.2-.165-3.6,4.966a.522.522,0,0,1-.179.165.218.218,0,0,1-.172.04l-.972-.192-3.253,4.728a.721.721,0,0,1-.192.185.218.218,0,0,1-.251,0,.469.469,0,0,1,.059-.542l3.438-4.992a.662.662,0,0,1,.192-.179.258.258,0,0,1,.179-.04l.972.2,3.59-4.953a.661.661,0,0,1,.179-.172.258.258,0,0,1,.165-.04l1.2.165,4.146-5.468-1.494,1c-.179.106-.317.04-.337-.139a.661.661,0,0,1,.291-.555Z" transform="translate(-130.594 -95.83)" fill="#fff"/>
      <path id="Path_2937" data-name="Path 2937" d="M149.5,137.19l.033,10.547L145.616,150l-.026-10.547Z" transform="translate(-124.596 -71.942)" fill="#fff"/>
      <path id="Path_2938" data-name="Path 2938" d="M189.878,65.525,168.95,77.52a4.153,4.153,0,0,0-2.05,3.538V96.266a4.034,4.034,0,0,0,6.163,3.306l3.63-2.076.331.529s.033,0,.053.053h.04c.6.4,1.653.959,1.885,1.078h0a.225.225,0,0,0,.278-.139l1.322-3.789h0L193.938,87.6a4.08,4.08,0,0,0,2.123-3.5V68.844C196.06,65.9,191.709,64.48,189.878,65.525Z" transform="translate(-139.988 -65.184)" fill="#13a0f0"/>
      <path id="Path_2939" data-name="Path 2939" d="M175.54,87.58Z" transform="translate(-142.915 -72.771)" fill="none"/>
      <path id="Path_2940" data-name="Path 2940" d="M182.064,114.243s.033,0,.053.053h.04c.6.4,1.653.959,1.885,1.078h0a.205.205,0,0,1-.132-.093l-1.322-2.1.258-.145h0l-1.144.661Z" transform="translate(-145.002 -81.396)" fill="#fff" opacity="0.2"/>
      <path id="Path_2941" data-name="Path 2941" d="M171.79,81.365A4.2,4.2,0,0,1,172.881,80h0a3.266,3.266,0,0,1,.5-.337l20.895-11.988a1.356,1.356,0,0,1,2.063,1.177c0-2.942-4.331-4.364-6.163-3.306L169.224,77.523a3.967,3.967,0,0,0-1.514,1.541Z" transform="translate(-140.262 -65.187)" fill="#fff" opacity="0.4"/>
      <path id="Path_2942" data-name="Path 2942" d="M171.059,105.515V90.306a3.869,3.869,0,0,1,0-.483,4.351,4.351,0,0,1,.43-1.322l-4.053-2.3a3.968,3.968,0,0,0-.536,1.984v15.208a4.033,4.033,0,0,0,6.163,3.306,1.356,1.356,0,0,1-2-1.184Z" transform="translate(-139.988 -72.303)" fill="#fff" opacity="0.2"/>
      <path id="Path_2943" data-name="Path 2943" d="M181.951,95.5c1.025-.588,1.858-.112,1.858,1.065a4.08,4.08,0,0,1-1.845,3.214c-1.032.589-1.865.112-1.865-1.065A4.086,4.086,0,0,1,181.951,95.5Z" transform="translate(-144.46 -75.369)" fill="#fff"/>
      <path id="Path_2944" data-name="Path 2944" d="M192.358,89.491c1.025-.588,1.865-.112,1.865,1.065a4.093,4.093,0,0,1-1.851,3.214c-1.032.588-1.865.112-1.871-1.065A4.106,4.106,0,0,1,192.358,89.491Z" transform="translate(-147.983 -73.333)" fill="#fff"/>
      <path id="Path_2945" data-name="Path 2945" d="M202.778,83.481c1.018-.588,1.858-.112,1.858,1.065a4.073,4.073,0,0,1-1.851,3.207c-1.025.6-1.858.119-1.865-1.065a4.08,4.08,0,0,1,1.858-3.207Z" transform="translate(-151.513 -71.297)" fill="#fff"/>
      <path id="Path_2946" data-name="Path 2946" d="M319.183,75.166l20.736,11.9a4.073,4.073,0,0,1,2.03,3.511v15.089a3.967,3.967,0,0,1-6.116,3.306l-3.6-2.063-.331.529a.178.178,0,0,1-.053.046h-.04c-.6.4-1.633.952-1.871,1.078h0a.225.225,0,0,1-.278-.132l-1.322-3.762h0l-13.225-7.564a4.053,4.053,0,0,1-2.037-3.511V78.459C313.067,75.536,317.365,74.128,319.183,75.166Z" transform="translate(-189.51 -68.45)" fill="#13a0f0"/>
      <path id="Path_2947" data-name="Path 2947" d="M348.22,97.05Z" transform="translate(-201.414 -75.979)" fill="none"/>
      <path id="Path_2948" data-name="Path 2948" d="M340.544,123.51a.178.178,0,0,1-.053.046h-.04c-.6.4-1.633.952-1.871,1.078h0a.205.205,0,0,0,.132-.093L340,122.465l-.251-.145h0l1.131.661Z" transform="translate(-198.148 -84.54)" fill="#fff" opacity="0.2"/>
      <path id="Path_2949" data-name="Path 2949" d="M337.393,90.887a4.219,4.219,0,0,0-1.084-1.322h0a3.636,3.636,0,0,0-.5-.337l-20.736-11.9a1.322,1.322,0,0,0-2.017,1.17c0-2.923,4.3-4.331,6.116-3.306l20.736,11.9a4.126,4.126,0,0,1,1.541,1.508Z" transform="translate(-189.502 -68.46)" fill="#fff" opacity="0.4"/>
      <path id="Path_2950" data-name="Path 2950" d="M349.53,114.835V99.746a3.869,3.869,0,0,0-.033-.483,4.259,4.259,0,0,0-.423-1.322l4.06-2.3a4.113,4.113,0,0,1,.522,1.984v15.089a3.967,3.967,0,0,1-6.116,3.306,1.322,1.322,0,0,0,1.99-1.184Z" transform="translate(-201.184 -75.501)" fill="#fff" opacity="0.2"/>
      <path id="Path_2951" data-name="Path 2951" d="M324.792,89.407a2.546,2.546,0,0,0-2.519-.251c-1.4.787-1.4,3.379,0,5.773l.807,1.408,5.012,8.682,5.045-2.876.813-.469c1.4-.787,1.408-3.379,0-5.773a7.273,7.273,0,0,0-2.513-2.645A2.532,2.532,0,0,0,328.925,93l-.82.456-.813-1.4a7.273,7.273,0,0,0-2.5-2.658Z" transform="translate(-192.268 -73.229)" fill="#fff"/>
    </g>
  </g>
</svg>
