<svg xmlns="http://www.w3.org/2000/svg" width="410" height="540" viewBox="0 0 410 540">
  <g id="Calendar" transform="translate(-1288 -864)">
    <g id="Rectangle_378" data-name="Rectangle 378" transform="translate(1288 864)" fill="#fff" stroke="#c7c7c7" stroke-width="1">
      <rect width="410" height="540" stroke="none"/>
      <rect x="0.5" y="0.5" width="409" height="539" fill="none"/>
    </g>
    <text id="November_2020" data-name="November 2020" transform="translate(1493 898)" font-size="20" font-family="OpenSans-Semibold, Open Sans" font-weight="600"><tspan x="-76.348" y="0">November 2020</tspan></text>
    <g id="noun_down_1137391" transform="translate(1637.195 926.534) rotate(-90)">
      <g id="Group_83" data-name="Group 83" transform="translate(27.9 37)">
        <g id="Group_82" data-name="Group 82">
          <path id="Path_637" data-name="Path 637" d="M27.9,38.043A1.046,1.046,0,0,1,28.943,37a.947.947,0,0,1,.73.313l5.911,6.155L41.5,37.313a1.008,1.008,0,0,1,1.46,0,1.029,1.029,0,0,1,.035,1.426L36.35,45.693a1.039,1.039,0,0,1-1.46.035l-.035-.035-6.676-6.954A.971.971,0,0,1,27.9,38.043Z" transform="translate(-27.9 -37)" fill="#13a0f0"/>
        </g>
      </g>
    </g>
    <g id="noun_down_1137391-2" data-name="noun_down_1137391" transform="translate(1303.195 898.634) rotate(-90)">
      <g id="Group_83-2" data-name="Group 83" transform="translate(0 0)">
        <g id="Group_82-2" data-name="Group 82">
          <path id="Path_637-2" data-name="Path 637" d="M0,7.967A1.046,1.046,0,0,0,1.043,9.01a.947.947,0,0,0,.73-.313L7.685,2.543,13.6,8.7a1.008,1.008,0,0,0,1.46,0,1.029,1.029,0,0,0,.035-1.426L8.45.317A1.039,1.039,0,0,0,6.989.283L6.954.317.278,7.272A.971.971,0,0,0,0,7.967Z" fill="#13a0f0"/>
        </g>
      </g>
    </g>
    <rect id="Rectangle_379" data-name="Rectangle 379" width="52" height="35" transform="translate(1302 923)" fill="#efefef"/>
    <rect id="Rectangle_386" data-name="Rectangle 386" width="52" height="52" transform="translate(1302 978)" fill="#fff"/>
    <rect id="Rectangle_407" data-name="Rectangle 407" width="52" height="52" transform="translate(1302 1122)" fill="#fff"/>
    <rect id="Rectangle_421" data-name="Rectangle 421" width="52" height="52" transform="translate(1302 1266)" fill="#fff"/>
    <rect id="Rectangle_393" data-name="Rectangle 393" width="52" height="52" transform="translate(1302 1050)" fill="#fff"/>
    <rect id="Rectangle_406" data-name="Rectangle 406" width="52" height="52" transform="translate(1302 1194)" fill="#fff"/>
    <rect id="Rectangle_420" data-name="Rectangle 420" width="52" height="52" transform="translate(1302 1338)" fill="#fff"/>
    <rect id="Rectangle_380" data-name="Rectangle 380" width="52" height="35" transform="translate(1357 923)" fill="#efefef"/>
    <rect id="Rectangle_387" data-name="Rectangle 387" width="52" height="52" transform="translate(1357 978)" fill="#fff"/>
    <rect id="Rectangle_408" data-name="Rectangle 408" width="52" height="52" transform="translate(1357 1122)" fill="#fff"/>
    <rect id="Rectangle_422" data-name="Rectangle 422" width="52" height="52" transform="translate(1357 1266)" fill="#fff"/>
    <rect id="Rectangle_394" data-name="Rectangle 394" width="52" height="52" transform="translate(1357 1050)" fill="#fff"/>
    <rect id="Rectangle_405" data-name="Rectangle 405" width="52" height="52" transform="translate(1357 1194)" fill="#13a0f0"/>
    <rect id="Rectangle_419" data-name="Rectangle 419" width="52" height="52" transform="translate(1357 1338)" fill="#fff"/>
    <rect id="Rectangle_381" data-name="Rectangle 381" width="52" height="35" transform="translate(1412 923)" fill="#efefef"/>
    <rect id="Rectangle_388" data-name="Rectangle 388" width="52" height="52" transform="translate(1412 978)" fill="#fff"/>
    <rect id="Rectangle_409" data-name="Rectangle 409" width="52" height="52" transform="translate(1412 1122)" fill="#fff"/>
    <rect id="Rectangle_423" data-name="Rectangle 423" width="52" height="52" transform="translate(1412 1266)" fill="#fff"/>
    <rect id="Rectangle_395" data-name="Rectangle 395" width="52" height="52" transform="translate(1412 1050)" fill="#fff"/>
    <rect id="Rectangle_400" data-name="Rectangle 400" width="52" height="52" transform="translate(1412 1194)" fill="#fff"/>
    <rect id="Rectangle_414" data-name="Rectangle 414" width="52" height="52" transform="translate(1412 1338)" fill="#fff"/>
    <rect id="Rectangle_382" data-name="Rectangle 382" width="52" height="35" transform="translate(1467 923)" fill="#efefef"/>
    <rect id="Rectangle_389" data-name="Rectangle 389" width="52" height="52" transform="translate(1467 978)" fill="#fff"/>
    <rect id="Rectangle_410" data-name="Rectangle 410" width="52" height="52" transform="translate(1467 1122)" fill="#fff"/>
    <rect id="Rectangle_424" data-name="Rectangle 424" width="52" height="52" transform="translate(1467 1266)" fill="#fff"/>
    <rect id="Rectangle_396" data-name="Rectangle 396" width="52" height="52" transform="translate(1467 1050)" fill="#eb5555"/>
    <rect id="Rectangle_401" data-name="Rectangle 401" width="52" height="52" transform="translate(1467 1194)" fill="#fff"/>
    <rect id="Rectangle_415" data-name="Rectangle 415" width="52" height="52" transform="translate(1467 1338)" fill="#fff"/>
    <rect id="Rectangle_383" data-name="Rectangle 383" width="52" height="35" transform="translate(1522 923)" fill="#efefef"/>
    <rect id="Rectangle_390" data-name="Rectangle 390" width="52" height="52" transform="translate(1522 978)" fill="#fff"/>
    <rect id="Rectangle_411" data-name="Rectangle 411" width="52" height="52" transform="translate(1522 1122)" fill="#fff"/>
    <rect id="Rectangle_425" data-name="Rectangle 425" width="52" height="52" transform="translate(1522 1266)" fill="#fff"/>
    <rect id="Rectangle_397" data-name="Rectangle 397" width="52" height="52" transform="translate(1522 1050)" fill="#fff"/>
    <rect id="Rectangle_402" data-name="Rectangle 402" width="52" height="52" transform="translate(1522 1194)" fill="#fff"/>
    <rect id="Rectangle_416" data-name="Rectangle 416" width="52" height="52" transform="translate(1522 1338)" fill="#fff"/>
    <rect id="Rectangle_384" data-name="Rectangle 384" width="52" height="35" transform="translate(1577 923)" fill="#efefef"/>
    <rect id="Rectangle_391" data-name="Rectangle 391" width="52" height="52" transform="translate(1577 978)" fill="#fff"/>
    <rect id="Rectangle_412" data-name="Rectangle 412" width="52" height="52" transform="translate(1577 1122)" fill="#fff"/>
    <rect id="Rectangle_426" data-name="Rectangle 426" width="52" height="52" transform="translate(1577 1266)" fill="#fff"/>
    <rect id="Rectangle_398" data-name="Rectangle 398" width="52" height="52" transform="translate(1577 1050)" fill="#fff"/>
    <rect id="Rectangle_403" data-name="Rectangle 403" width="52" height="52" transform="translate(1577 1194)" fill="#fff"/>
    <rect id="Rectangle_417" data-name="Rectangle 417" width="52" height="52" transform="translate(1577 1338)" fill="#fff"/>
    <rect id="Rectangle_385" data-name="Rectangle 385" width="52" height="35" transform="translate(1632 923)" fill="#efefef"/>
    <rect id="Rectangle_392" data-name="Rectangle 392" width="52" height="52" transform="translate(1632 978)" fill="#fff"/>
    <rect id="Rectangle_413" data-name="Rectangle 413" width="52" height="52" transform="translate(1632 1122)" fill="#fff"/>
    <rect id="Rectangle_427" data-name="Rectangle 427" width="52" height="52" transform="translate(1632 1266)" fill="#fff"/>
    <rect id="Rectangle_399" data-name="Rectangle 399" width="52" height="52" transform="translate(1632 1050)" fill="#fff"/>
    <rect id="Rectangle_404" data-name="Rectangle 404" width="52" height="52" transform="translate(1632 1194)" fill="#fff"/>
    <rect id="Rectangle_418" data-name="Rectangle 418" width="52" height="52" transform="translate(1632 1338)" fill="#fff"/>
    <text id="MON" transform="translate(1328 947)" font-size="15" font-family="OpenSans-Bold, Open Sans" font-weight="700"><tspan x="-19.138" y="0">MON</tspan></text>
    <text id="_27" data-name="27" transform="translate(1328 1010)" fill="#aaa" font-size="20" font-family="OpenSans, Open Sans"><tspan x="-11.436" y="0">27</tspan></text>
    <text id="_3" data-name="3" transform="translate(1328 1084)" font-size="20" font-family="OpenSans, Open Sans"><tspan x="-5.718" y="0">3</tspan></text>
    <text id="_10" data-name="10" transform="translate(1328 1156)" font-size="20" font-family="OpenSans, Open Sans"><tspan x="-11.436" y="0">10</tspan></text>
    <text id="_17" data-name="17" transform="translate(1328 1228)" font-size="20" font-family="OpenSans, Open Sans"><tspan x="-11.436" y="0">17</tspan></text>
    <text id="_24" data-name="24" transform="translate(1328 1300)" font-size="20" font-family="OpenSans, Open Sans"><tspan x="-11.436" y="0">24</tspan></text>
    <text id="_1" data-name="1" transform="translate(1328 1372)" fill="#aaa" font-size="20" font-family="OpenSans, Open Sans"><tspan x="-5.718" y="0">1</tspan></text>
    <text id="TUE" transform="translate(1383 947)" font-size="15" font-family="OpenSans-Bold, Open Sans" font-weight="700"><tspan x="-14.213" y="0">TUE</tspan></text>
    <text id="_28" data-name="28" transform="translate(1383 1010)" fill="#aaa" font-size="20" font-family="OpenSans, Open Sans"><tspan x="-11.436" y="0">28</tspan></text>
    <text id="_4" data-name="4" transform="translate(1383 1084)" font-size="20" font-family="OpenSans, Open Sans"><tspan x="-5.718" y="0">4</tspan></text>
    <text id="_11" data-name="11" transform="translate(1383 1156)" font-size="20" font-family="OpenSans, Open Sans"><tspan x="-11.436" y="0">11</tspan></text>
    <text id="_18" data-name="18" transform="translate(1383 1228)" fill="#fff" font-size="20" font-family="OpenSans, Open Sans"><tspan x="-11.436" y="0">18</tspan></text>
    <text id="_25" data-name="25" transform="translate(1383 1300)" font-size="20" font-family="OpenSans, Open Sans"><tspan x="-11.436" y="0">25</tspan></text>
    <text id="_2" data-name="2" transform="translate(1383 1372)" fill="#aaa" font-size="20" font-family="OpenSans, Open Sans"><tspan x="-5.718" y="0">2</tspan></text>
    <text id="WED" transform="translate(1438 947)" font-size="15" font-family="OpenSans-Bold, Open Sans" font-weight="700"><tspan x="-17.003" y="0">WED</tspan></text>
    <text id="_29" data-name="29" transform="translate(1438 1010)" fill="#aaa" font-size="20" font-family="OpenSans, Open Sans"><tspan x="-11.436" y="0">29</tspan></text>
    <text id="_5" data-name="5" transform="translate(1438 1084)" font-size="20" font-family="OpenSans, Open Sans"><tspan x="-5.718" y="0">5</tspan></text>
    <text id="_12" data-name="12" transform="translate(1438 1156)" font-size="20" font-family="OpenSans, Open Sans"><tspan x="-11.436" y="0">12</tspan></text>
    <text id="_19" data-name="19" transform="translate(1438 1228)" font-size="20" font-family="OpenSans, Open Sans"><tspan x="-11.436" y="0">19</tspan></text>
    <text id="_26" data-name="26" transform="translate(1438 1300)" font-size="20" font-family="OpenSans, Open Sans"><tspan x="-11.436" y="0">26</tspan></text>
    <text id="_3-2" data-name="3" transform="translate(1438 1372)" fill="#aaa" font-size="20" font-family="OpenSans, Open Sans"><tspan x="-5.718" y="0">3</tspan></text>
    <text id="THU" transform="translate(1493 947)" font-size="15" font-family="OpenSans-Bold, Open Sans" font-weight="700"><tspan x="-15.751" y="0">THU</tspan></text>
    <text id="_30" data-name="30" transform="translate(1493 1010)" fill="#aaa" font-size="20" font-family="OpenSans, Open Sans"><tspan x="-11.436" y="0">30</tspan></text>
    <text id="_6" data-name="6" transform="translate(1493 1084)" fill="#fff" font-size="20" font-family="OpenSans, Open Sans"><tspan x="-5.718" y="0">6</tspan></text>
    <text id="_13" data-name="13" transform="translate(1493 1156)" font-size="20" font-family="OpenSans, Open Sans"><tspan x="-11.436" y="0">13</tspan></text>
    <text id="_20" data-name="20" transform="translate(1493 1228)" font-size="20" font-family="OpenSans, Open Sans"><tspan x="-11.436" y="0">20</tspan></text>
    <text id="_27-2" data-name="27" transform="translate(1493 1300)" font-size="20" font-family="OpenSans, Open Sans"><tspan x="-11.436" y="0">27</tspan></text>
    <text id="_4-2" data-name="4" transform="translate(1493 1372)" fill="#aaa" font-size="20" font-family="OpenSans, Open Sans"><tspan x="-5.718" y="0">4</tspan></text>
    <text id="FRI" transform="translate(1548 947)" font-size="15" font-family="OpenSans-Bold, Open Sans" font-weight="700"><tspan x="-11.55" y="0">FRI</tspan></text>
    <text id="_31" data-name="31" transform="translate(1548 1010)" fill="#aaa" font-size="20" font-family="OpenSans, Open Sans"><tspan x="-11.436" y="0">31</tspan></text>
    <text id="_7" data-name="7" transform="translate(1548 1084)" font-size="20" font-family="OpenSans, Open Sans"><tspan x="-5.718" y="0">7</tspan></text>
    <text id="_14" data-name="14" transform="translate(1548 1156)" font-size="20" font-family="OpenSans, Open Sans"><tspan x="-11.436" y="0">14</tspan></text>
    <text id="_21" data-name="21" transform="translate(1548 1228)" font-size="20" font-family="OpenSans, Open Sans"><tspan x="-11.436" y="0">21</tspan></text>
    <text id="_28-2" data-name="28" transform="translate(1548 1300)" font-size="20" font-family="OpenSans, Open Sans"><tspan x="-11.436" y="0">28</tspan></text>
    <text id="_5-2" data-name="5" transform="translate(1548 1372)" fill="#aaa" font-size="20" font-family="OpenSans, Open Sans"><tspan x="-5.718" y="0">5</tspan></text>
    <text id="SAT" transform="translate(1603 947)" fill="#13a0f0" font-size="15" font-family="OpenSans-Bold, Open Sans" font-weight="700"><tspan x="-13.649" y="0">SAT</tspan></text>
    <text id="_1-2" data-name="1" transform="translate(1603 1010)" font-size="20" font-family="OpenSans, Open Sans"><tspan x="-5.718" y="0">1</tspan></text>
    <text id="_8" data-name="8" transform="translate(1603 1084)" font-size="20" font-family="OpenSans, Open Sans"><tspan x="-5.718" y="0">8</tspan></text>
    <text id="_15" data-name="15" transform="translate(1603 1156)" font-size="20" font-family="OpenSans, Open Sans"><tspan x="-11.436" y="0">15</tspan></text>
    <text id="_22" data-name="22" transform="translate(1603 1228)" font-size="20" font-family="OpenSans, Open Sans"><tspan x="-11.436" y="0">22</tspan></text>
    <text id="_29-2" data-name="29" transform="translate(1603 1300)" font-size="20" font-family="OpenSans, Open Sans"><tspan x="-11.436" y="0">29</tspan></text>
    <text id="_6-2" data-name="6" transform="translate(1603 1372)" fill="#aaa" font-size="20" font-family="OpenSans, Open Sans"><tspan x="-5.718" y="0">6</tspan></text>
    <text id="SUN" transform="translate(1658 947)" fill="#13a0f0" font-size="15" font-family="OpenSans-Bold, Open Sans" font-weight="700"><tspan x="-15.897" y="0">SUN</tspan></text>
    <text id="_2-2" data-name="2" transform="translate(1658 1010)" fill="#13a0f0" font-size="20" font-family="OpenSans, Open Sans"><tspan x="-5.718" y="0">2</tspan></text>
    <text id="_9" data-name="9" transform="translate(1658 1084)" fill="#13a0f0" font-size="20" font-family="OpenSans, Open Sans"><tspan x="-5.718" y="0">9</tspan></text>
    <text id="_16" data-name="16" transform="translate(1658 1156)" fill="#13a0f0" font-size="20" font-family="OpenSans, Open Sans"><tspan x="-11.436" y="0">16</tspan></text>
    <text id="_23" data-name="23" transform="translate(1658 1228)" fill="#13a0f0" font-size="20" font-family="OpenSans, Open Sans"><tspan x="-11.436" y="0">23</tspan></text>
    <text id="_30-2" data-name="30" transform="translate(1658 1300)" fill="#13a0f0" font-size="20" font-family="OpenSans, Open Sans"><tspan x="-11.436" y="0">30</tspan></text>
    <text id="_7-2" data-name="7" transform="translate(1658 1372)" fill="#aaa" font-size="20" font-family="OpenSans, Open Sans"><tspan x="-5.718" y="0">7</tspan></text>
  </g>
</svg>
