<svg xmlns="http://www.w3.org/2000/svg" width="43.667" height="43.667" viewBox="0 0 43.667 43.667">
  <g id="noun_check_document_132233" data-name="noun_check document_132233" transform="translate(0 3)">
    <g id="Group_136" data-name="Group 136" transform="translate(0 -3)">
      <path id="Path_922" data-name="Path 922" d="M33.4,20.032c.117,0,.231.015.347.018V.9a.9.9,0,0,0-.9-.9H.9A.9.9,0,0,0,0,.9V42.767a.9.9,0,0,0,.9.9H32.844a.9.9,0,0,0,.9-.9v-.553c-.116,0-.229.018-.347.018a11.1,11.1,0,1,1,0-22.2ZM20.334,6.881h7.389a.9.9,0,0,1,0,1.8H20.334a.9.9,0,1,1,0-1.8Zm0,5.62h7.389a.9.9,0,0,1,0,1.8H20.334a.9.9,0,0,1,0-1.8ZM5.119,7.782a.9.9,0,0,1,.9-.9h8.447a.9.9,0,0,1,.9.9v11.24a.9.9,0,0,1-.9.9H6.02a.9.9,0,0,1-.9-.9ZM19.833,36.787H6.02a.9.9,0,1,1,0-1.8H19.833a.9.9,0,1,1,0,1.8Zm0-5.619H6.02a.9.9,0,1,1,0-1.8H19.833a.9.9,0,1,1,0,1.8Zm0-5.625H6.02a.9.9,0,1,1,0-1.8H19.833a.9.9,0,1,1,0,1.8Zm.5-5.619a.9.9,0,0,1,0-1.8h7.389a.9.9,0,0,1,0,1.8Z" fill="#13a0f0"/>
      <path id="Path_923" data-name="Path 923" d="M35.692,23.009a10.2,10.2,0,1,0,10.27,10.2A10.246,10.246,0,0,0,35.692,23.009Zm6.389,7.4-7.848,6.951a.9.9,0,0,1-.6.227.75.75,0,0,1-.078,0,.9.9,0,0,1-.626-.335L29.2,32.566a.9.9,0,0,1,1.408-1.124l3.143,3.94,7.139-6.323a.9.9,0,1,1,1.193,1.349Z" transform="translate(-2.295 -2.077)" fill="#fff"/>
    </g>
  </g>
</svg>
