<svg xmlns="http://www.w3.org/2000/svg" width="46" height="46" viewBox="0 0 46 46">
  <g id="noun_done_1276366" transform="translate(-8 -7)">
    <g id="Group_165" data-name="Group 165" transform="translate(8 7)">
      <path id="Path_1405" data-name="Path 1405" d="M31,7A23,23,0,1,0,54,30,23.033,23.033,0,0,0,31,7ZM41.7,25.828,28.86,38.665a2.068,2.068,0,0,1-3,0L19.233,32.14a2.156,2.156,0,0,1,3.049-3.049l5.028,5.028,11.34-11.34a2.131,2.131,0,0,1,3.049,0A2.232,2.232,0,0,1,41.7,25.828Z" transform="translate(-8 -7)" fill="#fff"/>
    </g>
  </g>
</svg>
