<svg xmlns="http://www.w3.org/2000/svg" width="20.059" height="20.075" viewBox="0 0 20.059 20.075">
  <g id="noun_Close_1890910" transform="translate(-34.525 -34.325)">
    <g id="Group_134" data-name="Group 134" transform="translate(34.525 34.325)">
      <path id="Path_921" data-name="Path 921" d="M53.956,34.953a2.061,2.061,0,0,0-2.962,0l-6.439,6.439-6.439-6.439a2.095,2.095,0,0,0-2.962,2.962l6.439,6.439-6.439,6.439a2.061,2.061,0,0,0,0,2.962,2.219,2.219,0,0,0,1.481.644,1.957,1.957,0,0,0,1.481-.644l6.439-6.439,6.439,6.439a2.219,2.219,0,0,0,1.481.644,1.957,1.957,0,0,0,1.481-.644,2.061,2.061,0,0,0,0-2.962l-6.439-6.439,6.439-6.439A2.061,2.061,0,0,0,53.956,34.953Z" transform="translate(-34.525 -34.325)" fill="#a4a4a4"/>
    </g>
  </g>
</svg>
