<svg xmlns="http://www.w3.org/2000/svg" width="10.067" height="10.075" viewBox="0 0 10.067 10.075">
  <g id="noun_Close_1890910" transform="translate(-34.525 -34.325)">
    <g id="Group_134" data-name="Group 134" transform="translate(34.525 34.325)">
      <path id="Path_921" data-name="Path 921" d="M44.277,34.64a1.034,1.034,0,0,0-1.487,0l-3.232,3.232L36.327,34.64a1.051,1.051,0,0,0-1.487,1.487l3.232,3.232L34.84,42.59a1.034,1.034,0,0,0,0,1.487,1.113,1.113,0,0,0,.743.323.982.982,0,0,0,.743-.323l3.232-3.232,3.232,3.232a1.113,1.113,0,0,0,.743.323.982.982,0,0,0,.743-.323,1.034,1.034,0,0,0,0-1.487l-3.232-3.232,3.232-3.232A1.034,1.034,0,0,0,44.277,34.64Z" transform="translate(-34.525 -34.325)" fill="#a4a4a4"/>
    </g>
  </g>
</svg>
