<svg xmlns="http://www.w3.org/2000/svg" width="57.002" height="62.757" viewBox="0 0 57.002 62.757">
  <g id="noun_Communication_925237" transform="translate(-9.998 -6.95)">
    <g id="Group_356" data-name="Group 356" transform="translate(9.998 6.95)">
      <g id="Group_355" data-name="Group 355">
        <g id="Group_353" data-name="Group 353" transform="translate(6.378)">
          <path id="Path_3002" data-name="Path 3002" d="M22.866,32.1h1.289V17.36a6.042,6.042,0,0,1,6.035-6.035H52.317v-.457A3.924,3.924,0,0,0,48.4,6.95H22.866a3.924,3.924,0,0,0-3.919,3.919V28.179A3.924,3.924,0,0,0,22.866,32.1Z" transform="translate(-18.947 -6.95)" fill="#13a0f0"/>
          <path id="Path_3003" data-name="Path 3003" d="M56.2,42.184h3.457a3.924,3.924,0,0,0,3.919-3.919V20.955a3.924,3.924,0,0,0-3.919-3.919H34.12A3.924,3.924,0,0,0,30.2,20.955v17.31a3.923,3.923,0,0,0,3.919,3.919H46.3l.313.333c1.751,1.86,3.607,3.991,4.627,5.178Z" transform="translate(-22.18 -9.847)" fill="#13a0f0"/>
        </g>
        <g id="Group_354" data-name="Group 354" transform="translate(0 38.875)">
          <path id="Path_3004" data-name="Path 3004" d="M23.359,72.755a5.631,5.631,0,1,0-5.631-5.631A5.638,5.638,0,0,0,23.359,72.755Z" transform="translate(-12.218 -61.492)" fill="#13a0f0"/>
          <path id="Path_3005" data-name="Path 3005" d="M23.816,80.719H18.463A8.474,8.474,0,0,0,10,89.183V90.9H32.28V89.183A8.473,8.473,0,0,0,23.816,80.719Z" transform="translate(-9.998 -67.015)" fill="#13a0f0"/>
          <path id="Path_3006" data-name="Path 3006" d="M72.071,62.162A5.632,5.632,0,1,0,77.7,67.793,5.638,5.638,0,0,0,72.071,62.162Z" transform="translate(-26.211 -61.684)" fill="#13a0f0"/>
          <path id="Path_3007" data-name="Path 3007" d="M72.527,81.389H67.174a8.474,8.474,0,0,0-8.465,8.464V91.09H80.992V89.854A8.475,8.475,0,0,0,72.527,81.389Z" transform="translate(-23.99 -67.207)" fill="#13a0f0"/>
        </g>
      </g>
    </g>
  </g>
</svg>
