<svg xmlns="http://www.w3.org/2000/svg" width="48.856" height="47.304" viewBox="0 0 48.856 47.304">
  <g id="noun_Communication_3233542" transform="translate(-10.057 -130.113)">
    <g id="Group_142" data-name="Group 142" transform="translate(10.057 130.113)">
      <path id="Path_930" data-name="Path 930" d="M414.7,413.057c0-1.23.031-2.472,0-3.7V409.3a.377.377,0,0,0-.006-.086h0a2.082,2.082,0,0,0-2.054-1.956c-.307-.006-.615,0-.929,0h-4.557a.937.937,0,0,0-.922.922v6.377c0,.332.006.67-.018,1l-.018.2c.018-.123-.018.148,0,.006v.006q-.028.184-.074.369a5.535,5.535,0,0,1-.215.707.955.955,0,0,1-.049.117c.006-.012.012-.018.012-.025l-.018.037c0-.006,0-.006.006-.012l-.018.037c-.049.1-.092.2-.141.289a5.7,5.7,0,0,1-.381.615s-.055.074-.08.111c.012-.012.018-.025.025-.031s-.006.012-.018.018c-.031.037-.031.031-.012.012-.018.018-.037.043-.043.049-.08.092-.16.185-.24.271-.154.16-.32.307-.486.449-.006.006-.141.111-.178.135-.086.062-.178.123-.271.178s-.209.123-.314.178l-.148.074c-.018.006-.123.055-.16.074a.3.3,0,0,0,.043-.018c-.006,0-.012.006-.031.012a.046.046,0,0,1-.025.006l.006-.006a.3.3,0,0,1-.062.025l-.154.055q-.175.065-.351.111c-.1.031-.215.055-.32.08a1.568,1.568,0,0,1-.166.031,1.433,1.433,0,0,1-.16.025,5.394,5.394,0,0,1-.633.031c-1.587.006-3.167,0-4.754,0H388.46c-1.716,0-3.431-.037-5.141,0h-.08a.937.937,0,0,0-.922.922v5.522c0,.775-.012,1.55,0,2.318a2.082,2.082,0,0,0,1.439,1.986,2.483,2.483,0,0,0,.793.092H399.6c.394,0,.8.012,1.193.006q2.943,2.8,5.891,5.6c.3.283.59.566.892.849a.933.933,0,0,0,1.574-.652V430.62h3.124a2.661,2.661,0,0,0,1.47-.307,2.086,2.086,0,0,0,.965-1.771V413.057Z" transform="translate(-365.858 -390.028)" fill="#fff"/>
      <path id="Path_931" data-name="Path 931" d="M152.676,149.958v-20.65h0a2.29,2.29,0,0,0-2.251-2.189H117.778a6.228,6.228,0,0,0-1.267.055,2.27,2.27,0,0,0-1.753,2.214c-.006.16,0,.314,0,.474v21.917c0,.129-.006.258,0,.387a2.284,2.284,0,0,0,2.251,2.251c1.193.031,2.4,0,3.591,0h.264v7.023a.933.933,0,0,0,1.574.652c.941-.892,1.882-1.789,2.823-2.681q2.251-2.14,4.5-4.28l.75-.713h19.838a2.289,2.289,0,0,0,2.337-2.245C152.695,151.44,152.676,150.7,152.676,149.958Zm-18.768-4.6h-10.8a1.23,1.23,0,1,1,0-2.46h10.8a1.23,1.23,0,1,1-.006,2.46Zm10.417-7.484h-.037c-.855.025-1.716,0-2.57,0H123.109a1.23,1.23,0,1,1,0-2.46h.037c.855-.025,1.716,0,2.57,0h18.608a1.23,1.23,0,0,1,0,2.46Z" transform="translate(-114.756 -127.113)" fill="#13a0f0"/>
    </g>
  </g>
</svg>
