<svg xmlns="http://www.w3.org/2000/svg" width="42" height="48.97" viewBox="0 0 42 48.97">
  <g id="noun_content_1000817" transform="translate(-5 -1.515)">
    <g id="Group_360" data-name="Group 360">
      <g id="Group_357" data-name="Group 357">
        <path id="Path_3008" data-name="Path 3008" d="M37,5.535v-.52a3.5,3.5,0,0,0-3.5-3.5H8.5A3.5,3.5,0,0,0,5,5.015v36.47a2.527,2.527,0,0,0,2.53,2.53H9V10.535a5.006,5.006,0,0,1,5-5H37Z" fill="#13a0f0"/>
      </g>
      <g id="Group_358" data-name="Group 358">
        <path id="Path_3009" data-name="Path 3009" d="M39,16.535h8l-9-9v8A1,1,0,0,0,39,16.535Z" fill="#13a0f0"/>
      </g>
      <g id="Group_359" data-name="Group 359">
        <path id="Path_3010" data-name="Path 3010" d="M36,15.535v-8H14a3.009,3.009,0,0,0-3,3v36.95a3.009,3.009,0,0,0,3,3H44a3.009,3.009,0,0,0,3-3V18.535H39A3,3,0,0,1,36,15.535ZM17.75,22.512h17v2h-17Zm22.5,21h-22v-2h22Zm0-5h-22v-2h22Zm0-5h-22v-2h22Zm0-5h-22v-2h22Z" fill="#13a0f0"/>
      </g>
    </g>
  </g>
</svg>
