<svg xmlns="http://www.w3.org/2000/svg" xmlns:xlink="http://www.w3.org/1999/xlink" width="508.145" height="509.294" viewBox="0 0 508.145 509.294">
  <defs>
    <clipPath id="clip-path">
      <rect id="Rectangle_1115" data-name="Rectangle 1115" width="489.289" height="358.318" fill="none"/>
    </clipPath>
    <linearGradient id="linear-gradient" x1="-1.527" y1="-0.085" x2="6.097" y2="2.115" gradientUnits="objectBoundingBox">
      <stop offset="0" stop-color="#fdf53f"/>
      <stop offset="1" stop-color="#d93c65"/>
    </linearGradient>
    <linearGradient id="linear-gradient-2" x1="0.076" y1="-17.285" x2="0.978" y2="20.567" xlink:href="#linear-gradient"/>
    <linearGradient id="linear-gradient-3" x1="0.483" y1="0.311" x2="1.175" y2="7.927" xlink:href="#linear-gradient"/>
    <linearGradient id="linear-gradient-4" x1="0.424" y1="-0.411" x2="0.527" y2="0.535" gradientUnits="objectBoundingBox">
      <stop offset="0" stop-color="#09005d"/>
      <stop offset="1" stop-color="#1a0f91"/>
    </linearGradient>
    <linearGradient id="linear-gradient-5" x1="0.29" y1="-0.618" x2="0.45" y2="0.237" gradientUnits="objectBoundingBox">
      <stop offset="0" stop-color="#53d8ff"/>
      <stop offset="1" stop-color="#3840f7"/>
    </linearGradient>
    <linearGradient id="linear-gradient-6" x1="0.54" y1="0.039" x2="0.301" y2="1.932" xlink:href="#linear-gradient-4"/>
    <linearGradient id="linear-gradient-7" x1="0.568" y1="-0.021" x2="0.318" y2="1.862" xlink:href="#linear-gradient-5"/>
    <linearGradient id="linear-gradient-8" x1="-2.239" y1="-3.652" x2="0.741" y2="1.068" gradientUnits="objectBoundingBox">
      <stop offset="0" stop-color="#febbba"/>
      <stop offset="1" stop-color="#ff928e"/>
    </linearGradient>
    <linearGradient id="linear-gradient-9" x1="0.239" y1="-0.048" x2="0.575" y2="0.603" gradientUnits="objectBoundingBox">
      <stop offset="0" stop-color="#cb236d"/>
      <stop offset="1" stop-color="#4c246d"/>
    </linearGradient>
    <linearGradient id="linear-gradient-10" x1="-0.054" y1="0.367" x2="7.998" y2="2.474" xlink:href="#linear-gradient-8"/>
    <linearGradient id="linear-gradient-11" x1="0.064" y1="0.335" x2="0.74" y2="0.635" xlink:href="#linear-gradient-9"/>
    <linearGradient id="linear-gradient-12" x1="25.646" y1="4.948" x2="22.987" y2="2.395" xlink:href="#linear-gradient-8"/>
    <linearGradient id="linear-gradient-13" x1="1" y1="0.5" x2="0" y2="0.5" gradientUnits="objectBoundingBox">
      <stop offset="0" stop-color="#9cfffb"/>
      <stop offset="1" stop-color="#9bfffa"/>
    </linearGradient>
    <linearGradient id="linear-gradient-14" x1="1" y1="0.5" x2="0" y2="0.5" xlink:href="#linear-gradient-13"/>
    <linearGradient id="linear-gradient-15" x1="1.241" y1="16.467" x2="-2.652" y2="-68.031" gradientUnits="objectBoundingBox">
      <stop offset="0" stop-color="#4f52ff"/>
      <stop offset="1" stop-color="#4042e2"/>
    </linearGradient>
    <linearGradient id="linear-gradient-16" x1="1.184" y1="12.505" x2="-2.037" y2="-44.653" xlink:href="#linear-gradient-15"/>
    <linearGradient id="linear-gradient-17" x1="1.226" y1="13.469" x2="-1.936" y2="-43.69" xlink:href="#linear-gradient-15"/>
    <linearGradient id="linear-gradient-18" x1="1.328" y1="14.639" x2="-2.018" y2="-42.907" xlink:href="#linear-gradient-15"/>
  </defs>
  <g id="create-note01" transform="translate(0 0)">
    <path id="Path_3002" data-name="Path 3002" d="M189.532,522.267c10.214,10.752,19.881,17.692,27.512,23.164,89.737,64.385,195.939,45.622,218.507,41.038,33.329-6.769,97.75-19.854,144.326-74.619,70.464-82.872,59.491-213.423,4.841-299.6-10-15.762-62.809-103.254-170.145-117.279-64.959-8.5-140.687,8.627-195.522,54.568C103.944,245.974,112.137,440.788,189.532,522.267Z" transform="translate(-129.604 -84.703)" fill="#e9f7ff"/>
    <g id="Group_246" data-name="Group 246" transform="translate(336.603 113.308)" opacity="0.3">
      <path id="Path_3003" data-name="Path 3003" d="M492.421,669.411a2.149,2.149,0,0,0-2.6,1.226c-.939,2.236-1.8,4.547-2.553,6.869a2.149,2.149,0,0,0,1.384,2.7l.04.011a2.147,2.147,0,0,0,2.665-1.4c.711-2.205,1.525-4.4,2.419-6.526a2.149,2.149,0,0,0-1.149-2.812A2.116,2.116,0,0,0,492.421,669.411Zm-5.289,17.955a2.158,2.158,0,0,0-2.736,1.68c-.425,2.4-.751,4.843-.972,7.257a2.148,2.148,0,1,0,4.279.388c.209-2.294.52-4.615.924-6.894A2.149,2.149,0,0,0,487.131,687.366Zm-1.195,18.672a2.123,2.123,0,0,0-.73-.089,2.15,2.15,0,0,0-2.041,2.251c.119,2.43.345,4.883.673,7.3a2.149,2.149,0,0,0,4.257-.576c-.312-2.291-.525-4.62-.638-6.931a2.149,2.149,0,0,0-1.517-1.95Zm3.019,18.473a2.149,2.149,0,0,0-2.688,2.639c.66,2.342,1.428,4.684,2.285,6.96a2.148,2.148,0,1,0,4.022-1.512c-.814-2.163-1.545-4.377-2.171-6.614A2.143,2.143,0,0,0,488.955,724.51Zm7.053,17.344a2.149,2.149,0,0,0-2.51,3.082c1.16,2.132,2.428,4.246,3.768,6.28a2.15,2.15,0,0,0,3.588-2.371c-1.277-1.933-2.479-3.942-3.58-5.968a2.141,2.141,0,0,0-1.266-1.023ZM506.722,757.2a2.149,2.149,0,0,0-2.238,3.475c1.605,1.824,3.31,3.606,5.065,5.289a2.149,2.149,0,0,0,2.975-3.1c-1.669-1.6-3.283-3.292-4.812-5.027a2.143,2.143,0,0,0-.99-.644Zm73.869,27.658a2.151,2.151,0,0,0-.912-.071c-2.287.306-4.618.518-6.931.626a2.148,2.148,0,1,0,.2,4.292c2.435-.115,4.89-.336,7.3-.659a2.149,2.149,0,0,0,.336-4.2Zm-60.038-15.078a2.149,2.149,0,0,0-1.879,3.8c1.972,1.425,4.029,2.78,6.114,4.027A2.148,2.148,0,1,0,527,773.916c-1.981-1.185-3.934-2.471-5.806-3.83a2.19,2.19,0,0,0-.629-.317Zm41.328,15.456a2.162,2.162,0,0,0-.425-.082c-2.3-.213-4.62-.531-6.9-.939a2.149,2.149,0,1,0-.759,4.23c2.4.429,4.839.762,7.259.987a2.149,2.149,0,0,0,.823-4.2Zm-25.026-6.283a2.149,2.149,0,0,0-1.459,4.038c2.238.945,4.547,1.806,6.863,2.554l.042.015a2.149,2.149,0,1,0,1.286-4.1c-2.2-.715-4.394-1.532-6.519-2.431a1.307,1.307,0,0,0-.206-.082Z" transform="translate(-483.164 -669.32)" fill="#7d97f4"/>
      <path id="Path_3004" data-name="Path 3004" d="M408.536,1283.963a2.13,2.13,0,0,0-1.277.015c-1.052.343-2.13.668-3.2.97a2.147,2.147,0,1,0,1.16,4.135c1.129-.316,2.263-.658,3.372-1.02a2.149,2.149,0,0,0-.046-4.1Z" transform="translate(-296.392 -1171.782)" fill="#7d97f4"/>
    </g>
    <g id="Group_247" data-name="Group 247" transform="translate(390.609 62.203)" opacity="0.3">
      <path id="Path_3005" data-name="Path 3005" d="M135.831,1048.409a2.15,2.15,0,0,0-2.553,1.118c-.483,1-1,2.006-1.525,2.98a2.149,2.149,0,0,0,3.785,2.036c.547-1.032,1.094-2.088,1.605-3.137a2.145,2.145,0,0,0-1.313-3Z" transform="translate(-28.26 -928.087)" fill="#7d97f4"/>
      <path id="Path_3006" data-name="Path 3006" d="M127.4,392.769q-1.419-.429-2.865-.813a2.148,2.148,0,1,0-1.1,4.153c2.223.591,4.416,1.277,6.544,2.028a2.148,2.148,0,1,0,1.441-4.048C130.1,393.621,128.747,393.176,127.4,392.769Zm-14-2.969a2.279,2.279,0,0,0-.365-.077c-2.371-.3-4.8-.494-7.184-.591a2.148,2.148,0,0,0-.171,4.292c2.269.091,4.56.281,6.825.564a2.149,2.149,0,0,0,.89-4.2Zm28.375,8.815a2.149,2.149,0,0,0-1.609,3.963c2.006,1.047,4.013,2.189,5.933,3.411a2.148,2.148,0,1,0,2.3-3.632c-2.025-1.276-4.128-2.489-6.249-3.591A2.093,2.093,0,0,0,141.774,398.615Zm-46.8-9.069a2.167,2.167,0,0,0-.83-.08c-2.382.233-4.784.571-7.139,1a2.148,2.148,0,0,0,.777,4.224c2.236-.41,4.516-.73,6.78-.952a2.15,2.15,0,0,0,.412-4.2Zm62.087,19.314a2.149,2.149,0,0,0-2.006,3.7c1.733,1.459,3.429,3.022,5.038,4.633a2.149,2.149,0,0,0,3.039-3.039c-1.694-1.694-3.48-3.336-5.3-4.877a2.189,2.189,0,0,0-.766-.416Zm12.671,13.355a2.147,2.147,0,0,0-2.333,3.354c1.375,1.813,2.69,3.7,3.909,5.621a2.147,2.147,0,0,0,3.626-2.3c-1.277-2.019-2.665-4.013-4.113-5.917A2.13,2.13,0,0,0,169.735,422.215Zm9.459,15.8a2.149,2.149,0,0,0-2.572,2.953c.948,2.07,1.824,4.2,2.59,6.338a2.149,2.149,0,0,0,4.042-1.459c-.812-2.249-1.729-4.494-2.727-6.672A2.145,2.145,0,0,0,179.193,438.012Zm5.789,17.486a2.149,2.149,0,0,0-2.721,2.5c.474,2.227.857,4.5,1.138,6.749a2.149,2.149,0,1,0,4.264-.534c-.3-2.371-.7-4.766-1.2-7.113a2.145,2.145,0,0,0-1.481-1.6Zm1.809,18.332a2.156,2.156,0,0,0-2.771,2.03c-.029,2.269-.157,4.569-.378,6.832a2.149,2.149,0,1,0,4.275.418c.233-2.384.365-4.8.4-7.194A2.152,2.152,0,0,0,186.792,473.83Zm-2.26,18.272c-.042-.013-.086-.024-.129-.033a2.147,2.147,0,0,0-2.585,1.594c-.385,1.631-.826,3.267-1.31,4.868q-.263.866-.547,1.727a2.15,2.15,0,0,0,1.377,2.709,2.125,2.125,0,0,0,2.709-1.377q.3-.912.571-1.824c.509-1.683.972-3.407,1.377-5.12A2.15,2.15,0,0,0,184.532,492.1Z" transform="translate(-70.781 -389.13)" fill="#7d97f4"/>
      <path id="Path_3007" data-name="Path 3007" d="M693.821,411.986a2.132,2.132,0,0,0-1.293.016c-1.1.365-2.222.761-3.321,1.175a2.149,2.149,0,1,0,1.516,4.013c1.045-.392,2.107-.768,3.154-1.114a2.149,2.149,0,0,0-.055-4.1Z" transform="translate(-687.694 -407.742)" fill="#7d97f4"/>
    </g>
    <path id="Path_3008" data-name="Path 3008" d="M237.071,515.8a1,1,0,0,1,1.164.031l9.76,7.354a53.2,53.2,0,0,1,16.9-3.438l6.116-10.579a1,1,0,0,1,1.061-.482l14.387,2.8a1.009,1.009,0,0,1,.8.846l1.7,12.093a53.29,53.29,0,0,1,14.382,9.537l11.806-3.152a1,1,0,0,1,1.094.409l8.18,12.162a1,1,0,0,1-.031,1.165l-7.352,9.76a53.259,53.259,0,0,1,3.436,16.9l10.572,6.1a1,1,0,0,1,.482,1.062l-2.8,14.387a1,1,0,0,1-.846.8l-12.093,1.7a53.234,53.234,0,0,1-9.528,14.382l3.152,11.806a1.009,1.009,0,0,1-.41,1.094l-12.155,8.191a1.007,1.007,0,0,1-1.165-.031l-9.76-7.354a53.26,53.26,0,0,1-16.9,3.438l-6.114,10.579a1,1,0,0,1-1.062.483l-14.387-2.8a1,1,0,0,1-.8-.844l-1.7-12.094a53.191,53.191,0,0,1-14.374-9.53l-11.806,3.154a1,1,0,0,1-1.094-.409l-8.191-12.155a1.007,1.007,0,0,1,.031-1.166l7.354-9.76a53.259,53.259,0,0,1-3.438-16.9l-10.579-6.116a1,1,0,0,1-.483-1.062l2.8-14.387a1,1,0,0,1,.845-.8l12.105-1.713a53.207,53.207,0,0,1,9.521-14.373L224.5,525.083a1,1,0,0,1,.409-1.094Z" transform="translate(155.236 -424.661)" fill="#13a0f0"/>
    <path id="Path_3009" data-name="Path 3009" d="M494.745,782.629a14.749,14.749,0,1,0,2.019.777A14.748,14.748,0,0,0,494.745,782.629Zm-7.5,24.931a11.5,11.5,0,0,1-1.565-.6,11.27,11.27,0,1,1,1.565.6Z" transform="translate(-68.298 -648.134)" fill="#fff"/>
    <path id="Path_3010" data-name="Path 3010" d="M403.789,667.23a37.219,37.219,0,0,0-3.615-.9h0c-.385-.075-.773-.144-1.162-.206a36.46,36.46,0,0,0-5.784-.469h-.739a.857.857,0,0,0-.8.609.874.874,0,0,0-.036.268.857.857,0,0,0,.875.841,34.5,34.5,0,1,1-24.962,11.452.84.84,0,0,0,.182-.325.859.859,0,0,0-1.459-.824,36.231,36.231,0,1,0,61.623,34.753,36.908,36.908,0,0,0,.9-3.619,36.234,36.234,0,0,0-25.017-41.586Z" transform="translate(29.1 -553.02)" fill="#fff"/>
    <g id="Group_248" data-name="Group 248" transform="translate(281.245 37.952)" opacity="0.3">
      <path id="Path_3011" data-name="Path 3011" d="M1268.266,256.226a1.324,1.324,0,0,0-1.494.547c-.616.941-1.213,1.917-1.771,2.895a1.327,1.327,0,0,0,2.3,1.317c.533-.934,1.094-1.862,1.689-2.761a1.328,1.328,0,0,0-.385-1.837A1.3,1.3,0,0,0,1268.266,256.226Z" transform="translate(-1257.457 -256.169)" fill="#7d97f4"/>
      <path id="Path_3012" data-name="Path 3012" d="M1049.73,305.678a1.328,1.328,0,0,0-1.607.761,58.093,58.093,0,0,0-1.97,5.494c-.117.392-.232.784-.341,1.18a1.374,1.374,0,0,0,.912,1.642,1.326,1.326,0,0,0,1.641-.921c.106-.378.214-.753.327-1.127a55.154,55.154,0,0,1,1.879-5.24,1.328,1.328,0,0,0-.713-1.736A.748.748,0,0,0,1049.73,305.678Zm-3.7,13.269a1.309,1.309,0,0,0-.182-.042,1.328,1.328,0,0,0-1.512,1.113,57.667,57.667,0,0,0-.627,7.035,1.326,1.326,0,0,0,2.652.073,54.916,54.916,0,0,1,.6-6.71,1.33,1.33,0,0,0-.93-1.468Zm-.376,13.773a1.324,1.324,0,0,0-1.7,1.4,57.164,57.164,0,0,0,1.12,6.977,1.328,1.328,0,0,0,2.59-.582,54.4,54.4,0,0,1-1.069-6.654A1.326,1.326,0,0,0,1045.651,332.72Zm3.026,13.442a1.324,1.324,0,0,0-1.631,1.718,57.327,57.327,0,0,0,2.792,6.49,1.328,1.328,0,1,0,2.371-1.2,54.783,54.783,0,0,1-2.663-6.189A1.324,1.324,0,0,0,1048.677,346.162Zm6.2,12.3a1.328,1.328,0,0,0-1.487,2.006,58.2,58.2,0,0,0,4.284,5.612,1.326,1.326,0,1,0,2.006-1.735,55.259,55.259,0,0,1-4.086-5.357,1.318,1.318,0,0,0-.719-.527Zm9.008,10.415a1.326,1.326,0,0,0-1.277,2.254,57.1,57.1,0,0,0,5.521,4.4,1.328,1.328,0,0,0,1.523-2.176,54.361,54.361,0,0,1-5.266-4.2,1.3,1.3,0,0,0-.494-.283Zm11.279,7.894a1.328,1.328,0,0,0-1,2.444,57.545,57.545,0,0,0,6.433,2.9,1.327,1.327,0,1,0,.943-2.48,54.487,54.487,0,0,1-6.138-2.776,1.31,1.31,0,0,0-.228-.091Zm19.671,6.117a1.35,1.35,0,0,0-.23-.047,54.9,54.9,0,0,1-5.773-1c-.29-.064-.574-.131-.855-.2a1.328,1.328,0,0,0-.637,2.577c.3.073.6.144.912.212a57.9,57.9,0,0,0,6.046,1.047,1.328,1.328,0,0,0,.547-2.588Z" transform="translate(-1043.705 -296.602)" fill="#7d97f4"/>
    </g>
    <g id="Group_249" data-name="Group 249" transform="translate(317.466 12.678)" opacity="0.3">
      <path id="Path_3013" data-name="Path 3013" d="M733.973,120.2a1.328,1.328,0,0,0-.784,2.535,54.962,54.962,0,0,1,6.185,2.371,1.326,1.326,0,0,0,1.094-2.415,57.413,57.413,0,0,0-6.484-2.492Zm-6.584-1.654c-.046-.013-.091-.024-.139-.033a58.075,58.075,0,0,0-6.893-.877,1.328,1.328,0,0,0-.182,2.648,55.4,55.4,0,0,1,6.577.835,1.326,1.326,0,0,0,.631-2.574Zm18.911,7.274a1.326,1.326,0,0,0-1.076,2.4,55.126,55.126,0,0,1,5.428,3.8,1.328,1.328,0,0,0,1.641-2.079,57.817,57.817,0,0,0-5.691-3.985A1.314,1.314,0,0,0,746.3,125.817Zm-32.437-8.162a1.317,1.317,0,0,0-.458-.055,56.966,56.966,0,0,0-6.9.815,1.328,1.328,0,1,0,.471,2.612,54.312,54.312,0,0,1,6.583-.777,1.328,1.328,0,0,0,.308-2.6Zm43.045,16.6a1.328,1.328,0,0,0-1.331,2.2,54.745,54.745,0,0,1,4.354,4.994,1.328,1.328,0,0,0,2.1-1.62,57.667,57.667,0,0,0-4.56-5.237,1.329,1.329,0,0,0-.569-.345Zm8.27,10.73a1.326,1.326,0,0,0-1.525,1.946,55.477,55.477,0,0,1,3.035,5.893,1.326,1.326,0,0,0,2.428-1.069,57.918,57.918,0,0,0-3.185-6.176,1.319,1.319,0,0,0-.757-.6Zm5.463,12.4a1.326,1.326,0,0,0-1.653,1.654,53.95,53.95,0,0,1,1.532,6.449,1.328,1.328,0,1,0,2.616-.456,57.466,57.466,0,0,0-1.607-6.763,1.324,1.324,0,0,0-.892-.89Z" transform="translate(-695.585 -117.598)" fill="#7d97f4"/>
      <path id="Path_3014" data-name="Path 3014" d="M1103.62,130.939a1.321,1.321,0,0,0-.775,0c-1.094.337-2.165.708-3.208,1.094a1.328,1.328,0,1,0,.936,2.484c1-.376,2.026-.73,3.061-1.052a1.326,1.326,0,0,0-.013-2.537Z" transform="translate(-1098.742 -128.458)" fill="#7d97f4"/>
    </g>
    <path id="Path_3015" data-name="Path 3015" d="M801.906,201.556a.671.671,0,0,1,.779.02l6.531,4.925a35.619,35.619,0,0,1,11.308-2.3l4.093-7.073a.671.671,0,0,1,.71-.323l9.627,1.875a.673.673,0,0,1,.547.565l1.136,8.093a35.645,35.645,0,0,1,9.619,6.384l7.89-2.118a.669.669,0,0,1,.729.274l5.472,8.133a.675.675,0,0,1-.02.781l-4.925,6.53a35.62,35.62,0,0,1,2.3,11.308l7.088,4.091a.671.671,0,0,1,.323.71l-1.868,9.629a.673.673,0,0,1-.565.536l-8.093,1.138a35.579,35.579,0,0,1-6.384,9.618l2.11,7.9a.675.675,0,0,1-.274.73l-8.135,5.472a.669.669,0,0,1-.779-.02l-6.531-4.925a35.565,35.565,0,0,1-11.308,2.3l-4.093,7.073a.671.671,0,0,1-.71.325l-9.627-1.877a.671.671,0,0,1-.547-.565l-1.136-8.093a35.567,35.567,0,0,1-9.619-6.384l-7.9,2.11a.675.675,0,0,1-.729-.274l-5.472-8.135a.671.671,0,0,1,.02-.779l4.925-6.531a35.62,35.62,0,0,1-2.3-11.308l-7.073-4.093a.671.671,0,0,1-.323-.71l1.875-9.627a.671.671,0,0,1,.565-.536l8.087-1.122a35.588,35.588,0,0,1,6.384-9.619l-2.118-7.89a.675.675,0,0,1,.274-.73Z" transform="translate(-483.462 -169.67)"/>
    <path id="Path_3016" data-name="Path 3016" d="M973.547,379.076a10.059,10.059,0,1,0,1.388.533,10.359,10.359,0,0,0-1.388-.533Zm-5.014,16.684a7.383,7.383,0,1,1,5.273-13.75h0a7.383,7.383,0,0,1-5.273,13.749Z" transform="translate(-632.219 -318.355)" fill="#fff"/>
    <path id="Path_3017" data-name="Path 3017" d="M910.268,298.758a25.344,25.344,0,0,0-2.466-.611,25.086,25.086,0,0,0-5.072-.463H902.5a1.324,1.324,0,0,0-1.244.941,1.278,1.278,0,0,0-.057.412,1.328,1.328,0,0,0,1.353,1.3,22.492,22.492,0,0,1,4.742.412h0l.257.053a22.131,22.131,0,0,1,9.849,4.762,22.393,22.393,0,0,1,4.035,4.461c.011.013.02.027.029.04.027.044.057.084.086.126a22.2,22.2,0,0,1,3.4,16.758,22.745,22.745,0,0,1-.547,2.231A22.341,22.341,0,0,1,881.1,318.4a21.889,21.889,0,0,1,.547-2.2,22.265,22.265,0,0,1,4.755-8.452,1.277,1.277,0,0,0,.283-.5,1.326,1.326,0,0,0-2.256-1.277,24.988,24.988,0,1,0,42.5,23.985,25.548,25.548,0,0,0,.618-2.5A25.018,25.018,0,0,0,910.268,298.758Z" transform="translate(-564.476 -252.158)" fill="#fff"/>
    <g id="Group_250" data-name="Group 250" transform="translate(7.115 150.976)" clip-path="url(#clip-path)">
      <rect id="Rectangle_1113" data-name="Rectangle 1113" width="17.227" height="186.309" transform="translate(360.128 485.302)" fill="url(#linear-gradient)"/>
      <path id="Path_3018" data-name="Path 3018" d="M462.084,4468.18H312.108a.457.457,0,0,0-.458.458V4479.4H462.542v-10.761a.458.458,0,0,0-.458-.458Z" transform="translate(-18.355 -3804.191)" fill="url(#linear-gradient-2)"/>
      <rect id="Rectangle_1114" data-name="Rectangle 1114" width="189.716" height="53.806" rx="26.903" transform="translate(270.903 443.556)" fill="url(#linear-gradient-3)"/>
      <path id="Path_3019" data-name="Path 3019" d="M2679.889,4178.872c-7.726-3.751-66.917-24.82-81.7-47.331a5.243,5.243,0,0,1,2.554-1.03c16.724-2.016,50.127-4.013,79.718,6.532l15.686,13.438s5.289,12.676-5.04,28.147A11.917,11.917,0,0,1,2679.889,4178.872Z" transform="translate(-2654.81 -3535.567)" fill="url(#linear-gradient-4)"/>
      <path id="Path_3020" data-name="Path 3020" d="M2635.315,4143.37c14.787,22.511,73.977,43.579,81.7,47.331a11.938,11.938,0,0,0,11.225-.245c-.02.028-.033.055-.051.082a10.011,10.011,0,0,1-11.994,3.665c-16.649-6.566-59.106-24.329-81.1-42.53A5.3,5.3,0,0,1,2635.315,4143.37Z" transform="translate(-2691.939 -3547.396)" fill="url(#linear-gradient-5)"/>
      <path id="Path_3021" data-name="Path 3021" d="M2668.689,4286.8c-7.726-3.75-66.917-24.82-81.7-47.331a5.248,5.248,0,0,1,2.553-1.031c16.724-2.006,50.127-4.012,79.719,6.532l15.686,13.438s5.289,12.678-5.04,28.147A11.926,11.926,0,0,1,2668.689,4286.8Z" transform="translate(-2641.567 -3623.813)" fill="url(#linear-gradient-6)"/>
      <path id="Path_3022" data-name="Path 3022" d="M2624.116,4251.28c14.786,22.511,73.977,43.581,81.7,47.331a11.929,11.929,0,0,0,11.224-.244c-.018.027-.033.055-.051.082a10.011,10.011,0,0,1-11.994,3.664c-16.649-6.565-59.106-24.329-81.1-42.53A5.294,5.294,0,0,1,2624.116,4251.28Z" transform="translate(-2678.697 -3635.623)" fill="url(#linear-gradient-7)"/>
      <path id="Path_3023" data-name="Path 3023" d="M2538.993,4103.29c2.273,5.607,7.212,12.478,17.838,18.175l-15.467,10.761c-5.783.17-9.5-1.5-11.883-3.593a8.69,8.69,0,0,1-1.094-11.75Q2533.647,4109.951,2538.993,4103.29Z" transform="translate(-2501.086 -3514.626)" fill="url(#linear-gradient-8)"/>
      <path id="Path_3024" data-name="Path 3024" d="M1090.569,3202.23c125.463-154.744,280.322-195.04,280.322-195.04l-3.927,38.3-260.742,182.358c-8.718-4.675-13.679-13.231-16.443-19.25A6.087,6.087,0,0,1,1090.569,3202.23Z" transform="translate(-1052.978 -2618.447)" fill="url(#linear-gradient-9)"/>
      <path id="Path_3025" data-name="Path 3025" d="M2533.392,4180.12c.673,5.351,3.766,14.827,16.3,22.7q-7.1,5.472-13.67,11a7.477,7.477,0,0,1-6.322,1.642c-4.315-.881-10.918-3.6-12.879-11.95a6.95,6.95,0,0,1,1.445-6.032C2520.883,4194.356,2526.041,4188.286,2533.392,4180.12Z" transform="translate(-2492.129 -3577.443)" fill="url(#linear-gradient-10)"/>
      <path id="Path_3026" data-name="Path 3026" d="M410.337,3139.559c39.129-42.89,135.441-136.27,241.231-175.034a35.983,35.983,0,0,0,20.019-18.261l15.824-32.989s77.139-18.075,124.667,31.691c0,0-2.9,47.336-62.59,64.642-55.725,16.153-220.847,81.745-318.241,155.242a6.215,6.215,0,0,1-7.544.049,46.879,46.879,0,0,1-14.657-18.786A6.338,6.338,0,0,1,410.337,3139.559Z" transform="translate(-370.034 -2539.045)" fill="url(#linear-gradient-11)"/>
      <path id="Path_3027" data-name="Path 3027" d="M564.693,1841.885s-15.737,6.887-42.715-5.583-100.331-13.712-100.331-13.712,23.764-88.94-29.046-152.572c0,0-42.532,79.613-72.425,91.494l-13.389.615v-56.8s11.354-70.114,83.171-122.471l22.361-20.155s78.626-15.852,132.105,77.946S564.693,1841.885,564.693,1841.885Z" transform="translate(-114.263 -1436.599)" fill="#13a0f0"/>
      <path id="Path_3028" data-name="Path 3028" d="M1499.128,1602.117c-.75-3.942-1.031-13.161,8.479-24.4,12.722-15.035,29.044-7.369,29.044-7.369,14.462,8.1,20.57,34.542,20.57,34.542l-15.29-8.16c-2.316,6.727-24.9,13.98-24.9,13.98l-.126-.047c-.219,14.626.135,57.284,10.51,86.952,4.064,11.624,12.328,33.219-14.956,70.221l-15.036-.615S1463.726,1710.032,1499.128,1602.117Z" transform="translate(-1311.121 -1442.079)" fill="#ff9b77"/>
      <path id="Path_3029" data-name="Path 3029" d="M1158.12,1277.277l41.874,59.123a9.9,9.9,0,0,1-.868,12.492c-5.643,6.019-15.155,14.508-25.411,16.446a7.98,7.98,0,0,1-8.193-3.451l-22.27-34.182S1138.989,1274.009,1158.12,1277.277Z" transform="translate(-893.68 -1203.941)" fill="#ff9b77"/>
      <path id="Path_3030" data-name="Path 3030" d="M1280.346,1049.54c-.7.93-23.346,74.382-23.346,74.382l42.215,12.038,31.806-66.422S1292.029,1033.972,1280.346,1049.54Z" transform="translate(-1043.71 -1014.635)" fill="#ff9b77"/>
      <path id="Path_3031" data-name="Path 3031" d="M1202.132,951.315l-13.435,34.8a7.963,7.963,0,0,1-1.2,2.1c-2.256,2.831-8.815,9.5-16.08,2.362-5.5-5.406-10.69-10.375-15.631-12.859a7.872,7.872,0,0,0-11.017,4.87,236.439,236.439,0,0,0-7.069,30.485,7.91,7.91,0,0,0,6.2,8.914c8.593,1.8,23.589,4.423,36.727,4.115a7.842,7.842,0,0,0,6.82-4.4c4.863-9.829,17.074-34.226,21.668-40.725,4.226-5.975,13.765-5.941,18.628-5.483a7.861,7.861,0,0,0,6.139-2.1c3.877-3.648,9.074-10.978,1.674-20.1a7.974,7.974,0,0,1,.474-10.619c4.1-4.252,7.478-11.038,1.02-19.565-6.852-9.032-16.116-8.543-22.359-6.749a7.812,7.812,0,0,1-8.151-2.918,4.036,4.036,0,0,0-2.581-1.459,7.823,7.823,0,0,1-6.856-7.414c-.161-5.709-2.627-12.344-12.038-15.58-18.411-6.324-30.518,11.288-32.055,24.647s18.812,19.08,30.892,18.529c8.374-.383,14.548,7.3,17.55,12.038A7.925,7.925,0,0,1,1202.132,951.315Z" transform="translate(-931.574 -885.508)"/>
      <path id="Path_3032" data-name="Path 3032" d="M1193.46,1363.427s3.677-23.164,13.382-24.021,18.889,7.365,8.894,20.134C1203.3,1375.427,1193.46,1363.427,1193.46,1363.427Z" transform="translate(-921.158 -1254.805)" fill="url(#linear-gradient-12)"/>
      <path id="Path_3033" data-name="Path 3033" d="M240.074,1586.247s84.4,53.831,102.881,116.33-22.878,74.794-62.253,80.331l-2.964-47.723s27.583,0,9.988-26.082-64.881-43.482-64.881-43.482S103.04,1552.581,240.074,1586.247Z" transform="translate(137.283 -1451.554)" fill="#13a0f0"/>
      <path id="Path_3034" data-name="Path 3034" d="M519.789,2115.438c.483,0,11.883-.082,15.728-7.312,2.623-4.934,1-11.821-4.839-20.468-17.59-26.082-63.462-43.174-65.406-43.889a1.095,1.095,0,0,0-.751,2.041c.471.171,47.161,17.571,64.356,43.065,5.346,7.925,6.931,14.059,4.724,18.226-3.226,6.078-13.7,6.165-13.811,6.165a1.094,1.094,0,1,0,0,2.172Z" transform="translate(-104.769 -1830.72)" fill="#65c5fb"/>
      <path id="Path_3035" data-name="Path 3035" d="M720.138,2492.04s12.322-20.381-3.911-44.73l-109,18.046s-52.175-8.828-54.672-8.649S516,2477.865,516,2477.865s1.144,2.433,9.247,1.984,2.783.979,2.783.979l.3,4.093a11.272,11.272,0,0,0,10.165-3.52c4.525-4.813,17.1-7.145,17.1-7.145s26.735,19.755,53,10.2Z" transform="translate(-302.153 -2160.685)" fill="#ff9b77"/>
      <path id="Path_3036" data-name="Path 3036" d="M1516.89,3068.955a6.3,6.3,0,0,0,2.553-.547,6.692,6.692,0,0,0,3.389-8.711L1387.045,2736.38a6.411,6.411,0,0,0-8.505-3.466,6.69,6.69,0,0,0-3.389,8.713l135.79,323.315a6.473,6.473,0,0,0,5.95,4.013Z" transform="translate(-1257.504 -2393.753)" fill="url(#linear-gradient-13)"/>
      <path id="Path_3037" data-name="Path 3037" d="M1475.243,3068.937a6.469,6.469,0,0,0,5.95-4.013L1616.974,2741.6a6.693,6.693,0,0,0-3.389-8.713,6.417,6.417,0,0,0-8.5,3.466L1469.3,3059.68a6.691,6.691,0,0,0,3.389,8.711,6.3,6.3,0,0,0,2.555.546Z" transform="translate(-1368.817 -2393.734)" fill="url(#linear-gradient-14)"/>
      <path id="Path_3038" data-name="Path 3038" d="M829.783,2664.93a12.118,12.118,0,0,1,.729-5.654c.658-1.578,1.642-2.486,2.685-2.486h351.836c1.366,0,2.637,1.368,3.373,3.629a14.7,14.7,0,0,1,.263,7.542l-3.812,16.22c-.874,3.714-2.765,6.092-4.846,6.092H835.616c-1.937,0-3.6-2.7-3.969-6.437Z" transform="translate(-823.794 -2331.958)"/>
    </g>
    <path id="Path_3039" data-name="Path 3039" d="M1814.467,435.635c46.062,21.991,76.322,67.754,40.555,65.618-67.15-4.013-21.829,33.389-57.144,32.284s-89.984-8.633-125.753-45.7-1-45.923,13.5-44.489C1733.359,448.082,1670.191,366.756,1814.467,435.635Z" transform="translate(-1649.185 -342.208)" fill="#fff"/>
    <path id="Path_3040" data-name="Path 3040" d="M1910.7,1153.353c-.1,5.215-3.934,13.776-12.552,13.617s-18.754-8.977-18.657-14.194,7.161-9.315,15.779-9.156S1910.784,1148.129,1910.7,1153.353Z" transform="translate(-1729.807 -943.8)" fill="#88d4ff"/>
    <path id="Path_3041" data-name="Path 3041" d="M1821.493,1286.3a4.732,4.732,0,0,1-4.961,4.483c-2.694-.049-8.025-2.736-7.974-5.26s3.387-5.051,6.081-5S1821.541,1283.779,1821.493,1286.3Z" transform="translate(-1627.669 -1055.739)" fill="#88d4ff"/>
    <path id="Path_3042" data-name="Path 3042" d="M2134.5,747.448c.071-.875.965-1.642,2.477-2.24-1.642-.912-2.553-1.879-2.477-2.833.233-2.884,9.367-4.5,20.4-3.611s19.8,3.951,19.563,6.834c-.071.875-.965,1.632-2.479,2.24,1.642.912,2.553,1.879,2.479,2.833-.071.875-.965,1.642-2.479,2.24,1.642.912,2.553,1.879,2.479,2.833-.071.874-.965,1.632-2.479,2.238,1.642.912,2.553,1.88,2.479,2.833-.1,1.277-1.95,2.3-4.925,2.977a25.592,25.592,0,0,1-.075,3.117c-.432,5.315-6.411,9.484-14.32,9.484s-14.752-5.682-14.831-11.015a27.03,27.03,0,0,1,.155-3.48c-3.785-1.262-6.088-2.807-5.968-4.3.071-.875.965-1.641,2.477-2.24-1.642-.912-2.554-1.88-2.477-2.833.071-.876.965-1.632,2.477-2.24C2135.333,749.369,2134.423,748.4,2134.5,747.448Z" transform="translate(-2040.095 -612.591)" fill="#13a0f0"/>
    <path id="Path_3043" data-name="Path 3043" d="M2182.97,870.377a47.679,47.679,0,0,0,8.755-.715.266.266,0,1,0-.1-.522,56.922,56.922,0,0,1-14.592.461,62.37,62.37,0,0,1-12.22-2.11.265.265,0,1,0-.15.509A62.318,62.318,0,0,0,2177,870.129C2179.052,870.295,2181.059,870.377,2182.97,870.377Z" transform="translate(-2063.055 -718.03)" fill="url(#linear-gradient-15)"/>
    <path id="Path_3044" data-name="Path 3044" d="M2176.358,836.337a41.669,41.669,0,0,0,10.75-1.166.265.265,0,1,0-.146-.509c-3.83,1.094-9.984,1.426-16.477.9-6.422-.518-12.4-1.824-16.02-3.486a.265.265,0,0,0-.223.482c3.665,1.689,9.72,3.009,16.2,3.533C2172.466,836.257,2174.458,836.337,2176.358,836.337Z" transform="translate(-2056.497 -689.066)" fill="url(#linear-gradient-16)"/>
    <path id="Path_3045" data-name="Path 3045" d="M2172.985,808.547a38.756,38.756,0,0,0,11.33-1.362.265.265,0,0,0-.166-.5c-3.769,1.242-10.158,1.642-17.092,1.094-6.42-.516-12.4-1.824-16.02-3.486a.265.265,0,0,0-.223.482c3.665,1.691,9.72,3.011,16.2,3.533C2169.069,808.467,2171.078,808.547,2172.985,808.547Z" transform="translate(-2053.07 -666.345)" fill="url(#linear-gradient-17)"/>
    <path id="Path_3046" data-name="Path 3046" d="M2182.768,780.856a45.591,45.591,0,0,0,9.543-.868.264.264,0,1,0-.115-.516,55.3,55.3,0,0,1-15.321.613c-6.364-.514-12.322-1.8-15.937-3.449a.266.266,0,1,0-.221.483c3.67,1.669,9.694,2.977,16.116,3.493C2178.867,780.776,2180.866,780.856,2182.768,780.856Z" transform="translate(-2062.893 -643.728)" fill="url(#linear-gradient-18)"/>
    <path id="Path_3047" data-name="Path 3047" d="M2035.324,157.347a37.337,37.337,0,0,1,6.685-13.05c6.566-8.281,17.289-25.121,18.6-48.1,1.919-33.433-27.724-50.171-54.787-47.9s-53.753,22.418-50.831,53.52c1.8,19.137,12.51,33.651,20.485,41.989a44.3,44.3,0,0,1,10.634,18.836c2.393,8.642,8.087,19.41,21.626,20.063C2025.26,183.555,2032.536,167.227,2035.324,157.347Z" transform="translate(-1893.546 -48.09)" fill="#88d4ff"/>
    <path id="Path_3048" data-name="Path 3048" d="M2281.161,464.868l-9.466-61.574c-.2-1.277-.821-2.127-1.4-1.908s-.885,1.426-.689,2.7l.018.108,10.783,61c.082.46.313.75.52.647S2281.231,465.308,2281.161,464.868Z" transform="translate(-2171.44 -336.919)" fill="#13a0f0"/>
    <path id="Path_3049" data-name="Path 3049" d="M2152.136,467.55l9.468-61.574c.2-1.277.821-2.125,1.4-1.908s.886,1.426.689,2.7a.745.745,0,0,1-.017.108l-10.785,61c-.08.46-.314.75-.52.648S2152.069,467.993,2152.136,467.55Z" transform="translate(-2032.587 -339.113)" fill="#13a0f0"/>
    <path id="Path_3050" data-name="Path 3050" d="M2169.085,349.618a.994.994,0,0,1,1.244-.323l5.271,2.462,1.824-5.213a1.118,1.118,0,0,1,.64-.646,1.3,1.3,0,0,1,1.62.5l.011.016,4.333,7.9,4.024-11.252v-.02a1.277,1.277,0,0,1,.607-.686,1.584,1.584,0,0,1,1.992.392l6.059,8.343a.729.729,0,0,1-.213,1.052,1.014,1.014,0,0,1-1.288-.139l-5.337-5.953-4.8,10.7h0a.854.854,0,0,1-.423.416,1,1,0,0,1-1.257-.326l-4.636-7.44-1.746,3.763-.016.035a.558.558,0,0,1-.042.08.994.994,0,0,1-1.242.321l-6.258-2.918a.744.744,0,0,1-.363-1.074Z" transform="translate(-2068.762 -288.533)" fill="#fff" opacity="0.79"/>
    <path id="Path_3051" data-name="Path 3051" d="M2423.454,489.2a.923.923,0,0,0,.741-1.472,70.275,70.275,0,0,1-4.409-6.7.923.923,0,0,0-1.6.923,71.912,71.912,0,0,0,4.525,6.874A.912.912,0,0,0,2423.454,489.2Z" transform="translate(-2341.722 -401.705)" fill="#fff" opacity="0.79"/>
    <path id="Path_3052" data-name="Path 3052" d="M2466.609,251.042a.938.938,0,0,0,.365-.077.923.923,0,0,0,.478-1.213c-10.032-23.115-1.375-42.6-1.277-42.8a.922.922,0,1,0-1.676-.768c-.093.2-9.107,20.4,1.277,44.3A.923.923,0,0,0,2466.609,251.042Z" transform="translate(-2392.664 -176.912)" fill="#fff" opacity="0.79"/>
    <path id="Path_3053" data-name="Path 3053" d="M1973.059,1430.451c7.478-17.809,34.54-71.8,82.425-55.125a.73.73,0,0,1-.111,1.408c-10.559,1.957-49.682,11.839-81.058,54.422A.725.725,0,0,1,1973.059,1430.451Z" transform="translate(-1892.142 -1130.668)" fill="#13a0f0"/>
    <path id="Path_3054" data-name="Path 3054" d="M1955.895,1536.01c10.761-10.147,42.818-49.4,85.385-31.461a.491.491,0,0,1-.131.943c-10.52,1.113-62.743,7.728-85.05,31.372C1955.508,1537.506,1955.267,1536.594,1955.895,1536.01Z" transform="translate(-1874.568 -1235.115)" fill="#13a0f0"/>
    <path id="Path_3055" data-name="Path 3055" d="M2200.494,1339.117c1.021-13.424,7.02-64.1,39.658-74.555a.263.263,0,0,1,.3.4c-3.932,5.545-32.544,46.523-39.446,74.234a.259.259,0,0,1-.509-.078Z" transform="translate(-2118.156 -1042.675)" fill="#13a0f0"/>
    <path id="Path_3056" data-name="Path 3056" d="M2055.019,1669.227a.281.281,0,0,1-.336-.445c5.766-5.744,29.637-26.85,59.944-16.457C2148.961,1664.1,2088.844,1650.875,2055.019,1669.227Z" transform="translate(-1975.931 -1357.406)" fill="#13a0f0"/>
    <path id="Path_3057" data-name="Path 3057" d="M2420.183,1369.13a.872.872,0,0,0,1.72.14c3.621-15.917,11.292-59.825-11.038-70.982C2384.433,1285.072,2416.587,1317.075,2420.183,1369.13Z" transform="translate(-2340.303 -1067.824)" fill="#13a0f0"/>
    <path id="Path_3058" data-name="Path 3058" d="M2473.219,1571.679c-3.752-9.774-18.216-40.127-48.314-23.727a.58.58,0,0,0,.236,1.094,70.791,70.791,0,0,1,47.108,23.221.575.575,0,0,0,.97-.587Z" transform="translate(-2391.795 -1270.487)" fill="#13a0f0"/>
    <path id="Path_3059" data-name="Path 3059" d="M2474.525,1661.05c-1.382-6.037-8.583-18.145-45.22-7.055a.186.186,0,1,0,.068.365c7.2-.746,31.525-2.4,43.448,7.724a1.056,1.056,0,0,0,1.705-1.034Z" transform="translate(-2393.916 -1357.402)" fill="#13a0f0"/>
    <path id="Path_3060" data-name="Path 3060" d="M2421.1,1859.866l-.015-1.237V1857.3l.02-2.659.034-5.322.155-10.643q.142-10.643.387-21.28c.321-14.183.729-28.358,1.377-42.521s1.51-28.307,2.873-42.4c.7-7.044,1.541-14.073,2.676-21.05a121.321,121.321,0,0,1,4.881-20.587l-.633-.259a76.82,76.82,0,0,0-3.518,10.115l-.715,2.581c-.224.863-.418,1.733-.627,2.6l-.62,2.6-.547,2.617c-1.415,6.99-2.51,14.044-3.367,21.1s-1.53,14.154-2.11,21.245c-.547,7.091-.948,14.194-1.3,21.294q-.464,10.655-.7,21.314c-.111,7.113-.221,14.212-.182,21.32q.011,10.659.293,21.314l.381,10.65.233,5.326.159,2.663.089,1.332c.038.449.049.863.137,1.421Z" transform="translate(-2351.037 -1391.001)" fill="#13a0f0"/>
    <path id="Path_3061" data-name="Path 3061" d="M2610.345,1755.813c-5.007-11.93-23.138-48.1-55.216-36.927a.491.491,0,0,0,.073.943c7.073,1.311,33.283,7.931,54.3,36.457a.487.487,0,0,0,.843-.472Z" transform="translate(-2552.666 -1412.416)" fill="#13a0f0"/>
    <path id="Path_3062" data-name="Path 3062" d="M2612.55,1826.526c-7.212-6.8-28.683-33.094-57.2-21.076a.328.328,0,0,0,.089.631c7.048.744,42.038,5.176,56.974,21.021C2612.809,1827.522,2612.969,1826.922,2612.55,1826.526Z" transform="translate(-2555.144 -1482.383)" fill="#13a0f0"/>
    <path id="Path_3063" data-name="Path 3063" d="M2587,1694.643c-.686-8.992-4.7-42.939-26.567-49.943a.182.182,0,0,0-.2.268c2.634,3.715,21.8,31.166,26.425,49.729a.182.182,0,0,0,.341-.055Z" transform="translate(-2530.271 -1353.486)" fill="#13a0f0"/>
    <path id="Path_3064" data-name="Path 3064" d="M2593.439,1915.732a.187.187,0,0,0,.224-.3c-3.861-3.847-19.854-17.986-40.156-11.024C2530.508,1912.3,2570.78,1903.444,2593.439,1915.732Z" transform="translate(-2534.534 -1564.277)" fill="#13a0f0"/>
    <path id="Path_3065" data-name="Path 3065" d="M2482.985,1714.726a.584.584,0,0,1-1.151.095c-2.426-10.665-7.566-40.072,7.394-47.552C2506.935,1658.416,2485.391,1679.854,2482.985,1714.726Z" transform="translate(-2424.611 -1370.31)" fill="#13a0f0"/>
    <path id="Path_3066" data-name="Path 3066" d="M2378.322,1850.418c2.513-6.548,12.2-26.881,32.364-15.9a.388.388,0,0,1-.157.729,47.412,47.412,0,0,0-31.554,15.554.383.383,0,0,1-.653-.388Z" transform="translate(-2320.98 -1506.077)" fill="#13a0f0"/>
    <path id="Path_3067" data-name="Path 3067" d="M2387.292,1910.278c.927-4.044,5.751-12.153,30.294-4.726a.128.128,0,0,1-.046.25c-4.823-.5-21.117-1.607-29.106,5.174a.708.708,0,0,1-1.142-.7Z" transform="translate(-2329.406 -1564.295)" fill="#13a0f0"/>
    <path id="Path_3068" data-name="Path 3068" d="M2532.576,2051.427c.071-.447.075-.748.1-1.094l.064-1,.111-1.992c.075-1.328.122-2.656.183-3.983l.268-7.965c.183-5.311.183-10.624.223-15.939s.02-10.63-.082-15.945-.239-10.63-.469-15.943-.52-10.625-.894-15.934c-.409-5.306-.881-10.612-1.538-15.9l-.51-3.963-.6-3.954c-.427-2.634-.875-5.264-1.448-7.874q-.394-1.964-.89-3.909c-.164-.649-.317-1.3-.492-1.942l-.558-1.93a55.651,55.651,0,0,0-2.736-7.549l-.633.259a72.918,72.918,0,0,1,2.068,7.622l.41,1.934c.128.646.231,1.3.348,1.948l.354,1.946.308,1.955c.2,1.3.408,2.606.569,3.918s.378,2.614.518,3.929c.314,2.623.593,5.253.866,7.881,1.012,10.53,1.749,21.1,2.269,31.684s.87,21.185,1.142,31.789c.141,5.3.183,10.606.292,15.912l.1,7.958.024,3.978v1.988l-.011,1.893Z" transform="translate(-2469.972 -1582.346)" fill="#13a0f0"/>
    <path id="Path_3069" data-name="Path 3069" d="M2066.908,1916.383c6.395-10.438,28.271-41.606,53.242-25.832a.488.488,0,0,1-.235.877c-6.2.084-29.473,2.054-52.385,25.535C2067.156,1917.35,2066.622,1916.85,2066.908,1916.383Z" transform="translate(-1973.631 -1550.923)" fill="#13a0f0"/>
    <path id="Path_3070" data-name="Path 3070" d="M2073.769,1982.379c7.314-5.237,30.2-26.544,52.015-10.553a.326.326,0,0,1-.183.582c-6.07-.447-36.342-1.974-51.816,10.539C2073.368,1983.276,2073.343,1982.684,2073.769,1982.379Z" transform="translate(-1980.397 -1616.169)" fill="#13a0f0"/>
    <path id="Path_3071" data-name="Path 3071" d="M2179.588,1849.25c2.221-8.372,11.812-39.747,31.5-42.788.142-.022.224.172.118.285-2.9,3.075-24.056,25.849-31.341,42.611a.149.149,0,1,1-.279-.108Z" transform="translate(-2085.101 -1485.746)" fill="#13a0f0"/>
    <path id="Path_3072" data-name="Path 3072" d="M2149.479,2055.379c-.182.066-.294-.2-.135-.319,3.956-3,20-13.732,35.826-3.85C2203.1,2062.4,2170.8,2047.476,2149.479,2055.379Z" transform="translate(-2058.708 -1682.508)" fill="#13a0f0"/>
    <path id="Path_3073" data-name="Path 3073" d="M2318.982,1838.5a.5.5,0,0,0,.952.277c3.993-9.667,13.7-36.573,2.468-46.073C2309.111,1781.466,2323.332,1805.208,2318.982,1838.5Z" transform="translate(-2226.476 -1472.191)" fill="#13a0f0"/>
    <path id="Path_3074" data-name="Path 3074" d="M2383.773,1959.59c-.912-6.59-5.36-27.359-24.346-20.278a.384.384,0,0,0,0,.711c3.768,1.01,16.109,5.317,23.728,19.826C2383.337,1960.2,2383.828,1959.991,2383.773,1959.59Z" transform="translate(-2290.383 -1593.179)" fill="#13a0f0"/>
    <path id="Path_3075" data-name="Path 3075" d="M2388.116,2020.024c-.042-3.965-2.621-12.4-24.643-9.4-.131.018-.141.233-.009.242,4.153.314,18.077,1.928,23.562,9.63A.619.619,0,0,0,2388.116,2020.024Z" transform="translate(-2295.485 -1652.153)" fill="#13a0f0"/>
    <path id="Path_3076" data-name="Path 3076" d="M2355.081,2157.041l.622-3.274.662-3.356,1.361-6.707,2.809-13.393q1.436-6.69,2.96-13.357,1.485-6.677,3.073-13.327,3.194-13.3,6.964-26.421l.959-3.283,1-3.261c.667-2.174,1.344-4.344,2.1-6.486a94.884,94.884,0,0,1,5.173-12.563l-.585-.352a52.069,52.069,0,0,0-3.336,6.042c-.5,1.036-1,2.074-1.432,3.137s-.892,2.116-1.3,3.188c-1.683,4.27-3.179,8.607-4.518,12.986-2.689,8.755-4.883,17.643-6.964,26.544q-1.547,6.679-2.984,13.382-1.381,6.714-2.67,13.444c-.857,4.487-1.7,8.976-2.453,13.482l-1.118,6.761-.527,3.385-.246,1.7-.118.85c-.033.29-.082.547-.1.937Z" transform="translate(-2288.488 -1685.896)" fill="#13a0f0"/>
    <path id="Path_3077" data-name="Path 3077" d="M2432.261,2387.86H2403.1c-1.911,0-3.325,2.88-2.894,5.9,1.866,13.1,4.1,26.381,8.676,39.869.846,2.49,2.455,4.052,4.21,4.052h9.515c1.729,0,3.314-1.539,4.133-4a195.531,195.531,0,0,0,8.937-39.118C2436.076,2391.083,2434.444,2387.86,2432.261,2387.86Z" transform="translate(-2349.809 -1961.103)" fill="#5d5d5d"/>
  </g>
</svg>
