<svg xmlns="http://www.w3.org/2000/svg" width="683.333" height="401.801" viewBox="0 0 683.333 401.801">
  <g id="create-note02" transform="translate(0 0.004)">
    <path id="Path_3078" data-name="Path 3078" d="M75.274,417.3s-76.312-73.04,1.088-178.782C145.52,144.036,93.889,98.9,164.863,52.856,236.611,6.32,297.66,34.663,366.337,70.635s163.535-50.142,265.992-4.357S720.069,182.05,694.722,254.01c-21.385,60.744,43.668,104.636,8.177,163.4C702.9,417.4,73.092,415.12,75.274,417.3Z" transform="translate(-40.029 -28.55)" fill="#ebf3fa"/>
    <path id="Path_3079" data-name="Path 3079" d="M1639,353.414s10.8-45.3,46.894-50.2c0,0,7.02-.845,9.34,6.891s-11.639,7.752-20.273,10.845S1646.185,337.169,1639,353.414Z" transform="translate(-1210.371 -229.778)" fill="#13a0f0" opacity="0.4"/>
    <path id="Path_3080" data-name="Path 3080" d="M1641.49,417.429s20.69-41.722,56.958-38.4c0,0,7.03.751,7.557,8.821s-13.082,4.948-22.187,6.02S1652.132,403.211,1641.49,417.429Z" transform="translate(-1212.195 -285.21)" fill="#13a0f0" opacity="0.4"/>
    <path id="Path_3081" data-name="Path 3081" d="M2048.91,1035.554s10.8-45.3,46.892-50.2c0,0,7.022-.845,9.34,6.891s-11.636,7.752-20.273,10.845S2056.093,1019.309,2048.91,1035.554Z" transform="translate(-1510.708 -729.575)" fill="#cddff9"/>
    <path id="Path_3082" data-name="Path 3082" d="M2052.086,941.178s-5.924-46.194,26.1-63.54c0,0,6.268-3.274,11.174,3.138s-8.142,11.374-15.125,17.316S2053.056,923.445,2052.086,941.178Z" transform="translate(-1512.718 -650.059)" fill="#dfebfd"/>
    <path id="Path_3083" data-name="Path 3083" d="M2141.793,1116.612c-4.066-17.287-33.189-12.908-33.189-12.908s-20.66,29.313-26.4,29.834,12.764-28.514,12.764-28.514c-11.04-1.444-39.725,11.168-39.725,11.168s.61,35.018-5.079,34.125,1.048-31.048,1.048-31.048c-10.829,2.852-21.254,15-21.254,15-13.192,19.92,13.1,35.82,13.1,35.82s-.051,12.144-8.019,25.809h0a41.275,41.275,0,0,0-3.649,6.822l2.922.1c.267-.773.553-1.521.869-2.237l.016-.032c.214-.444.534-1.069.909-1.844h0c.952-1.713,1.6-2.983,2.013-3.9,2.86-5.389,6.95-12.4,9.575-13.809a5.537,5.537,0,0,1-.58-1.361l.58,1.361c4.64,10.874,29.591,13.5,43.622,11.115s8.089-6.514.8-13.138-23.066-5.474-27.626-8.129,2.312-4.924,11.577-3.9,13.6,10.463,28.557,12.4,27.343-25.873,27.343-25.873c-10.471,2.863-28.87-3.475-29.452-7.068s26.9-2.307,31.23-3.234S2145.862,1133.893,2141.793,1116.612Z" transform="translate(-1494.109 -815.944)" fill="#13a0f0"/>
    <path id="Path_3084" data-name="Path 3084" d="M452.038,547.652c4.068-17.287,33.189-12.908,33.189-12.908s20.66,29.313,26.4,29.834-12.764-28.509-12.764-28.509c11.04-1.443,39.722,11.168,39.722,11.168s-.607,35.018,5.079,34.125-1.045-31.048-1.045-31.048c10.826,2.852,21.251,15,21.251,15,13.192,19.92-13.1,35.82-13.1,35.82s.051,12.144,8.019,25.809h0a41.284,41.284,0,0,1,3.649,6.822l-2.924.1c-.267-.773-.553-1.521-.869-2.237a.165.165,0,0,1,0-.032c-.216-.444-.535-1.069-.911-1.844h0c-.952-1.714-1.6-2.983-2.01-3.9-2.86-5.389-6.95-12.4-9.575-13.809a5.677,5.677,0,0,0,.58-1.361c-.184.433-.38.887-.58,1.361-4.643,10.874-29.594,13.5-43.625,11.115s-8.089-6.514-.8-13.138,23.066-5.475,27.626-8.129-2.312-4.924-11.577-3.9-13.6,10.463-28.557,12.4-27.34-25.873-27.34-25.873c10.468,2.863,28.87-3.475,29.45-7.068s-26.9-2.307-31.227-3.234S447.969,564.936,452.038,547.652Z" transform="translate(-339.861 -399.073)" fill="#13a0f0"/>
    <path id="Path_3085" data-name="Path 3085" d="M1105.539,244.619c8.554-16.378,36.782-4.469,36.782-4.469s13.283,34.868,18.936,36.87S1155.726,245,1155.726,245c11.494,1.387,37.156,21.481,37.156,21.481s-9.623,35.159-3.657,35.71,6.95-31.567,6.95-31.567c10.182,5.659,17.562,20.583,17.562,20.583,8.172,23.478-22.425,32.729-22.425,32.729s-3.074,12.256,1.446,28.084h0a43.053,43.053,0,0,1,1.922,7.816l-2.97-.652c-.069-.85-.168-1.679-.3-2.481a.018.018,0,0,0,0-.016.165.165,0,0,0,0-.035c-.1-.5-.251-1.219-.441-2.093h0c-.519-1.975-.842-3.422-1.024-4.453h0c-1.5-6.17-3.82-14.29-6.1-16.386a5.911,5.911,0,0,0,.936-1.222l-.936,1.222c-7.485,9.768-33.307,5.993-46.838-.021s-6.477-8.65,2.577-13.451,24.659.417,29.939-1.085-1.069-5.557-10.668-6.907-16.4,7.046-31.978,5.143-20.9-33.117-20.9-33.117c9.818,5.579,29.984,3.924,31.508.457s-26.528-9.254-30.647-11.3S1096.99,261,1105.539,244.619Z" transform="translate(-816.261 -180.526)" fill="#13a0f0"/>
    <g id="Group_251" data-name="Group 251" transform="translate(507.363 84.643)">
      <path id="Path_3086" data-name="Path 3086" d="M2054.667,349.123l16.514,63.171a5.253,5.253,0,0,1-3.742,6.394l-110.824,28.968a5.25,5.25,0,0,1-6.391-3.742l-16.514-63.173a5.256,5.256,0,0,1,3.742-6.394l110.822-28.968A5.252,5.252,0,0,1,2054.667,349.123Z" transform="translate(-1933.541 -345.209)"/>
      <path id="Path_3087" data-name="Path 3087" d="M2125.547,613.607l-29.535,7.723a2.358,2.358,0,0,1-2.868-1.679l-.072-.283a2.352,2.352,0,0,1,1.676-2.866l29.538-7.707a2.358,2.358,0,0,1,2.865,1.679l.075.283A2.355,2.355,0,0,1,2125.547,613.607Z" transform="translate(-2050.372 -538.281)" fill="#cde0fb"/>
      <path id="Path_3088" data-name="Path 3088" d="M2141.307,510.123a5.692,5.692,0,0,1,.128,2.793,2.574,2.574,0,0,1-4.376,1.144,6.745,6.745,0,0,1-1.393-5.282,2.593,2.593,0,0,1,4.4-1.149A5.718,5.718,0,0,1,2141.307,510.123Zm-1.358.348a5.651,5.651,0,0,0-.674-1.641q-.625-.944-1.427-.732t-.9,1.337a5.4,5.4,0,0,0,.208,1.775q.717,2.759,2.125,2.39.8-.211.885-1.337a5.576,5.576,0,0,0-.23-1.791Z" transform="translate(-2081.574 -463.619)" fill="#cde0fb"/>
      <path id="Path_3089" data-name="Path 3089" d="M2163.955,504.193a5.663,5.663,0,0,1,.131,2.793,2.574,2.574,0,0,1-4.378,1.144,6.758,6.758,0,0,1-1.39-5.282,2.593,2.593,0,0,1,4.4-1.149A5.717,5.717,0,0,1,2163.955,504.193Zm-1.355.348a5.644,5.644,0,0,0-.674-1.641q-.625-.944-1.427-.732t-.9,1.337a5.477,5.477,0,0,0,.206,1.775q.721,2.759,2.138,2.39.8-.211.885-1.337A5.64,5.64,0,0,0,2162.6,504.54Z" transform="translate(-2098.17 -459.274)" fill="#cde0fb"/>
      <path id="Path_3090" data-name="Path 3090" d="M2198.308,495.2a5.7,5.7,0,0,1,.128,2.793,2.575,2.575,0,0,1-4.376,1.144,6.746,6.746,0,0,1-1.393-5.279,2.59,2.59,0,0,1,4.4-1.149,5.725,5.725,0,0,1,1.243,2.491Zm-1.358.347a5.65,5.65,0,0,0-.674-1.641q-.625-.944-1.427-.73c-.548.142-.847.585-.9,1.337a5.411,5.411,0,0,0,.209,1.775q.716,2.759,2.125,2.39.8-.211.885-1.336a5.561,5.561,0,0,0-.2-1.794Z" transform="translate(-2123.338 -452.687)" fill="#cde0fb"/>
      <path id="Path_3091" data-name="Path 3091" d="M2221.025,489.273a5.66,5.66,0,0,1,.131,2.793,2.577,2.577,0,0,1-4.378,1.144,6.755,6.755,0,0,1-1.39-5.279,2.59,2.59,0,0,1,4.4-1.149A5.688,5.688,0,0,1,2221.025,489.273Zm-1.355.347a5.651,5.651,0,0,0-.674-1.641q-.626-.944-1.427-.73c-.548.142-.847.585-.9,1.337a5.47,5.47,0,0,0,.206,1.775q.721,2.759,2.138,2.39.8-.214.885-1.337A5.635,5.635,0,0,0,2219.67,489.62Z" transform="translate(-2139.985 -448.342)" fill="#cde0fb"/>
      <path id="Path_3092" data-name="Path 3092" d="M2243.715,483.343a5.692,5.692,0,0,1,.128,2.793,2.574,2.574,0,0,1-4.376,1.144,6.759,6.759,0,0,1-1.39-5.282,2.593,2.593,0,0,1,4.4-1.149A5.718,5.718,0,0,1,2243.715,483.343Zm-1.355.348a5.651,5.651,0,0,0-.674-1.641q-.625-.944-1.427-.73c-.551.142-.85.585-.9,1.337a5.4,5.4,0,0,0,.208,1.775q.721,2.759,2.138,2.39.8-.214.882-1.337a5.627,5.627,0,0,0-.227-1.794Z" transform="translate(-2156.609 -443.997)" fill="#cde0fb"/>
      <path id="Path_3093" data-name="Path 3093" d="M2266.4,477.413a5.692,5.692,0,0,1,.128,2.793,2.574,2.574,0,0,1-4.376,1.144,6.747,6.747,0,0,1-1.393-5.282,2.593,2.593,0,0,1,4.4-1.149A5.691,5.691,0,0,1,2266.4,477.413Zm-1.355.347a5.718,5.718,0,0,0-.676-1.641q-.62-.944-1.425-.732t-.9,1.337a5.4,5.4,0,0,0,.208,1.775q.716,2.759,2.138,2.39.8-.211.882-1.337a5.634,5.634,0,0,0-.233-1.791Z" transform="translate(-2173.226 -439.653)" fill="#cde0fb"/>
      <path id="Path_3094" data-name="Path 3094" d="M2300.782,468.424a5.691,5.691,0,0,1,.128,2.793,2.574,2.574,0,0,1-4.376,1.144,6.771,6.771,0,0,1-1.393-5.279,2.593,2.593,0,0,1,4.4-1.149A5.688,5.688,0,0,1,2300.782,468.424Zm-1.355.347a5.646,5.646,0,0,0-.676-1.641c-.414-.626-.89-.871-1.425-.73s-.85.585-.9,1.337a5.424,5.424,0,0,0,.208,1.775q.722,2.756,2.139,2.387c.535-.142.836-.591.882-1.337A5.618,5.618,0,0,0,2299.426,468.772Z" transform="translate(-2198.421 -433.067)" fill="#cde0fb"/>
      <path id="Path_3095" data-name="Path 3095" d="M2323.468,462.493a5.689,5.689,0,0,1,.128,2.793,2.574,2.574,0,0,1-4.376,1.144,6.746,6.746,0,0,1-1.393-5.279,2.59,2.59,0,0,1,4.4-1.149A5.693,5.693,0,0,1,2323.468,462.493Zm-1.358.348a5.658,5.658,0,0,0-.674-1.641c-.417-.625-.89-.871-1.425-.73s-.85.585-.9,1.337a5.4,5.4,0,0,0,.208,1.772q.716,2.759,2.139,2.39.8-.211.885-1.337A5.564,5.564,0,0,0,2322.11,462.841Z" transform="translate(-2215.042 -428.721)" fill="#cde0fb"/>
      <path id="Path_3096" data-name="Path 3096" d="M2346.155,456.563a5.663,5.663,0,0,1,.131,2.793,2.574,2.574,0,0,1-4.376,1.144,6.743,6.743,0,0,1-1.393-5.279,2.59,2.59,0,0,1,4.4-1.149A5.691,5.691,0,0,1,2346.155,456.563Zm-1.355.348a5.65,5.65,0,0,0-.674-1.641q-.625-.941-1.427-.73c-.534.142-.847.585-.9,1.337a5.477,5.477,0,0,0,.206,1.775q.722,2.759,2.138,2.39.8-.211.885-1.337A5.559,5.559,0,0,0,2344.8,456.911Z" transform="translate(-2231.666 -424.376)" fill="#cde0fb"/>
      <path id="Path_3097" data-name="Path 3097" d="M2368.845,450.633a5.663,5.663,0,0,1,.131,2.793,2.577,2.577,0,0,1-4.378,1.144,6.758,6.758,0,0,1-1.39-5.282,2.593,2.593,0,0,1,4.4-1.149A5.718,5.718,0,0,1,2368.845,450.633Zm-1.355.347a5.657,5.657,0,0,0-.673-1.641q-.625-.944-1.427-.73c-.535.142-.847.585-.9,1.337a5.56,5.56,0,0,0,.208,1.775q.722,2.759,2.139,2.39.8-.214.885-1.337a5.719,5.719,0,0,0-.23-1.791Z" transform="translate(-2248.291 -420.031)" fill="#cde0fb"/>
      <path id="Path_3098" data-name="Path 3098" d="M1998.091,444.278l-28.9,7.557a2.355,2.355,0,0,1-2.865-1.679h0A2.352,2.352,0,0,1,1968,447.29l28.907-7.557a2.355,2.355,0,0,1,2.866,1.679h0A2.355,2.355,0,0,1,1998.091,444.278Z" transform="translate(-1957.503 -414.411)" fill="#cde0fb"/>
      <path id="Path_3099" data-name="Path 3099" d="M2341.377,402.248a3.609,3.609,0,0,0-1.337-1.983.388.388,0,0,0-.564.118l-.1.174a.38.38,0,0,0,.1.495,2.636,2.636,0,0,1,.829,3.173.382.382,0,0,0,.155.478l.171.1a.385.385,0,0,0,.551-.174A3.589,3.589,0,0,0,2341.377,402.248Z" transform="translate(-2230.855 -385.493)" fill="#cde0fb"/>
      <path id="Path_3100" data-name="Path 3100" d="M2346.033,397.153a5.511,5.511,0,0,0-2.267-3.192.385.385,0,0,0-.535.131l-.056.1a.388.388,0,0,0,.123.511,4.654,4.654,0,0,1,1.55,5.932.38.38,0,0,0,.145.5l.1.059a.382.382,0,0,0,.534-.152,5.526,5.526,0,0,0,.409-3.889Z" transform="translate(-2233.64 -380.887)" fill="#cde0fb"/>
      <path id="Path_3101" data-name="Path 3101" d="M2350.116,392.675a7.215,7.215,0,0,0-3.061-4.237.382.382,0,0,0-.534.131h0a.385.385,0,0,0,.123.513,6.458,6.458,0,0,1,2.2,8.431.382.382,0,0,0,.145.505h0a.379.379,0,0,0,.534-.147A7.2,7.2,0,0,0,2350.116,392.675Z" transform="translate(-2236.09 -376.839)" fill="#cde0fb"/>
      <path id="Path_3102" data-name="Path 3102" d="M2354.132,387.841a9.052,9.052,0,0,0-3.927-5.368.385.385,0,0,0-.534.134l-.1.171a.383.383,0,0,0,.128.513,8.105,8.105,0,0,1,2.794,10.692.385.385,0,0,0,.142.511l.168.1a.385.385,0,0,0,.534-.147A9.039,9.039,0,0,0,2354.132,387.841Z" transform="translate(-2238.326 -372.47)" fill="#cde0fb"/>
    </g>
    <rect id="Rectangle_1116" data-name="Rectangle 1116" width="365.488" height="248.131" rx="6" transform="translate(180.199 133.759)"/>
    <rect id="Rectangle_1117" data-name="Rectangle 1117" width="349" height="236.938" transform="translate(188.44 142.428)" fill="#dde7fe"/>
    <rect id="Rectangle_1118" data-name="Rectangle 1118" width="452.401" height="15.884" rx="7.942" transform="translate(136.74 372.248)"/>
    <rect id="Rectangle_1119" data-name="Rectangle 1119" width="349" height="230.643" transform="translate(188.44 142.428)" fill="#ebf3fa"/>
    <path id="Path_3103" data-name="Path 3103" d="M305,1456.652s0-3.416.513-4.544,2.406-5.758,2.406-5.758H315.3a41.2,41.2,0,0,1,1.46,5.6c.088,1.379,0,4.713,0,4.713Z" transform="translate(-232.963 -1067.361)" fill="#13a0f0"/>
    <path id="Path_3104" data-name="Path 3104" d="M448.044,1456.652s0-3.416-.513-4.544-2.406-5.758-2.406-5.758h-7.383a41.21,41.21,0,0,0-1.46,5.6c-.088,1.379,0,4.713,0,4.713Z" transform="translate(-329.123 -1067.361)" fill="#13a0f0"/>
    <path id="Path_3105" data-name="Path 3105" d="M343.854,756.994s-.267,7.6-1.291,11.011l-8.153,5.376,30.693,4.338-7.319-9.554s-2.211-10.2-1.053-13.967S343.854,756.994,343.854,756.994Z" transform="translate(-254.511 -559.372)" fill="#ffb27d"/>
    <path id="Path_3106" data-name="Path 3106" d="M369.57,771.79s2.427,5.52,7,5.4,5.614-5.007,5.614-5.007Z" transform="translate(-280.272 -573.117)" fill="#ed985f"/>
    <path id="Path_3107" data-name="Path 3107" d="M350.965,694.858s-1.478-6.95-2.507-9.07-1.89-11.518,9.53-12c0,0,4.379.487,6.782-.893,0,0,0,1.379-.6,1.871a7.886,7.886,0,0,1,7.041,2.352c3.09,3.245-2.061,14.6-1.8,17.276Z" transform="translate(-264.394 -500.654)" fill="#2c3a64"/>
    <path id="Path_3108" data-name="Path 3108" d="M368.009,726.828c-3.315-.056-9.409-4.223-9.409-9.383v-8.051a3.287,3.287,0,0,1,3.09-3.424h12.636a3.281,3.281,0,0,1,3.093,3.424v7.6C377.419,722.4,371.805,726.892,368.009,726.828Z" transform="translate(-272.235 -524.892)" fill="#ffb27d"/>
    <path id="Path_3109" data-name="Path 3109" d="M357.474,708.686s.016-4.838,4.074-5.584,13.133,2.36,14.435-1.168-17.549-3.475-18.5-1.216S357.474,708.686,357.474,708.686Z" transform="translate(-271.109 -519.883)" fill="#2c3a64"/>
    <path id="Path_3110" data-name="Path 3110" d="M304.388,1042.48s1.291,37.266-.639,58.541,0,50.856,0,50.856a15.408,15.408,0,0,0,12.874,0s7.343-41.078,7.3-50.856c-.051-10.409,7.993-56.905,7.993-56.905Z" transform="translate(-231.417 -771.449)"/>
    <path id="Path_3111" data-name="Path 3111" d="M402.2,1151.688a15.4,15.4,0,0,1-12.871,0s-7.343-41.078-7.3-50.856c.021-4.4-1.4-15.237-3.05-26.279-2.259-15.111-4.943-30.623-4.943-30.623l28.6-1.689s-2.358,37.33-.428,58.592S402.2,1151.688,402.2,1151.688Z" transform="translate(-283.548 -771.273)"/>
    <path id="Path_3112" data-name="Path 3112" d="M350.711,877.647a151.144,151.144,0,0,1-23.32,2.232,119.515,119.515,0,0,1-14.322-1.034c-4.641-.583-7.969-1.2-7.969-1.2s-2.473.2-1.013-11.313c1.109-8.765.762-16.677.516-24.82-.029-.9,0-1.975.051-3.168.473-9.492,3.512-26.581,5.827-27.5a44.669,44.669,0,0,1,9.527-1.8c0,.112,3.531,4.991,7.723,5.536a14.5,14.5,0,0,0,7.5-5.376,85.635,85.635,0,0,1,11.762,2.138s.438,1.81,2.09,33.219C349.727,857.011,354.22,877.687,350.711,877.647Z" transform="translate(-231.955 -600.418)" fill="#13a0f0"/>
    <path id="Path_3113" data-name="Path 3113" d="M395.58,1153.908c.021-4.4-1.4-15.237-3.05-26.279a50.661,50.661,0,0,1,5.881-12.949C403.693,1128.666,395.58,1153.908,395.58,1153.908Z" transform="translate(-297.095 -824.35)" fill="#444"/>
    <path id="Path_3114" data-name="Path 3114" d="M224.529,852.594c-.291.23.722,2.6,2.216,5.7,3.077,6.359,8.182,15.75,8.182,15.75a26.727,26.727,0,0,1-1.55,4.277,105.593,105.593,0,0,1-17.667-15.966c-4.972-5.852-5.99-9.206-5.99-9.206C228.849,816.366,242.313,815,242.313,815l-1.59,24.325S225.414,851.889,224.529,852.594Z" transform="translate(-163.152 -604.777)" fill="#13a0f0"/>
    <path id="Path_3115" data-name="Path 3115" d="M298.271,1030.824s4.635-4.055,6.525-1.786,2.232,5.841.773,5.6-4.464-1.542-4.894-.893-2.352,1.89-2.94.9S298.271,1030.824,298.271,1030.824Z" transform="translate(-227.514 -761.095)" fill="#ffb27d"/>
    <path id="Path_3116" data-name="Path 3116" d="M251.327,992.681a26.73,26.73,0,0,1-1.55,4.277,105.593,105.593,0,0,1-17.667-15.966,22.806,22.806,0,0,0,11.035-4.071C246.227,983.29,251.327,992.681,251.327,992.681Z" transform="translate(-179.557 -723.414)" fill="#ffb27d"/>
    <path id="Path_3117" data-name="Path 3117" d="M492.825,854.206s-1.021,3.355-6,9.206a105.591,105.591,0,0,1-17.667,15.966,26.729,26.729,0,0,1-1.55-4.277s5.108-9.391,8.182-15.75c1.494-3.1,2.507-5.469,2.219-5.7-.69-.535-10.04-8.217-14.213-11.639l-1.983-1.631-.954-23.954S473.694,817.414,492.825,854.206Z" transform="translate(-347.16 -605.825)" fill="#13a0f0"/>
    <path id="Path_3118" data-name="Path 3118" d="M467.459,1030.824s-4.635-4.055-6.525-1.786-2.232,5.841-.773,5.6,4.464-1.542,4.894-.893,2.352,1.89,2.94.9S467.459,1030.824,467.459,1030.824Z" transform="translate(-345.985 -761.095)" fill="#ffb27d"/>
    <path id="Path_3119" data-name="Path 3119" d="M486.13,992.681a26.734,26.734,0,0,0,1.55,4.277,105.7,105.7,0,0,0,17.667-15.966,22.806,22.806,0,0,1-11.035-4.071C491.236,983.29,486.13,992.681,486.13,992.681Z" transform="translate(-365.675 -723.414)" fill="#ffb27d"/>
    <path id="Path_3120" data-name="Path 3120" d="M361.718,802.12a3.152,3.152,0,0,0-1.748,2s5.466,5.311,9.043,5.392Z" transform="translate(-273.239 -595.34)" fill="#fff"/>
    <path id="Path_3121" data-name="Path 3121" d="M393.8,808.768l7.054-7.658a3.121,3.121,0,0,1,1.435,2.406C402.29,803.508,396.834,808.972,393.8,808.768Z" transform="translate(-298.025 -594.6)" fill="#fff"/>
    <path id="Path_3122" data-name="Path 3122" d="M378.319,827.562s-5.376,43.932-3.5,49.279a35.619,35.619,0,0,0,3.285,6.8,1.967,1.967,0,0,0,3.3,0c1.427-2.347,3.3-5.742,3.3-7.463,0-2.791-4.087-48.65-4.087-48.65Z" transform="translate(-283.828 -613.958)" fill="#fff"/>
    <path id="Path_3123" data-name="Path 3123" d="M382.571,819.108a35.95,35.95,0,0,1,5.237-.118.516.516,0,0,1,.42.77c-.556.944-1.689,2.582-2.874,2.582C383.7,822.343,381.093,819.215,382.571,819.108Z" transform="translate(-289.478 -607.655)" fill="#fff"/>
    <path id="Path_3124" data-name="Path 3124" d="M383.92,764.027a3.678,3.678,0,0,0,2.833,1.272,3.414,3.414,0,0,0,2.649-1.272A19.028,19.028,0,0,0,383.92,764.027Z" transform="translate(-290.786 -567.276)" fill="#fff"/>
    <rect id="Rectangle_1120" data-name="Rectangle 1120" width="225.709" height="240.36" transform="translate(270.662 115.547)" fill="#cfdeff"/>
    <rect id="Rectangle_1121" data-name="Rectangle 1121" width="43.139" height="2.791" rx="0.25" transform="translate(389.343 312.646)" fill="#2b478b"/>
    <rect id="Rectangle_1122" data-name="Rectangle 1122" width="53.826" height="2.791" rx="0.24" transform="translate(389.343 306.302)" fill="#2b478b"/>
    <rect id="Rectangle_1123" data-name="Rectangle 1123" width="186.55" height="131.252" transform="translate(290.24 156.136)" fill="#ebf3fa"/>
    <rect id="Rectangle_1124" data-name="Rectangle 1124" width="0.299" height="138.659" transform="translate(333.985 148.728)" fill="#1f1f89"/>
    <rect id="Rectangle_1125" data-name="Rectangle 1125" width="0.299" height="138.659" transform="translate(450.803 148.728)" fill="#1f1f89"/>
    <rect id="Rectangle_1126" data-name="Rectangle 1126" width="0.299" height="138.659" transform="translate(353.822 148.728)" fill="#1f1f89"/>
    <rect id="Rectangle_1127" data-name="Rectangle 1127" width="186.55" height="0.299" transform="translate(290.24 262.83)" fill="#1f1f89"/>
    <rect id="Rectangle_1128" data-name="Rectangle 1128" width="186.55" height="0.299" transform="translate(290.24 235.361)" fill="#1f1f89"/>
    <rect id="Rectangle_1129" data-name="Rectangle 1129" width="186.55" height="0.299" transform="translate(290.24 207.892)" fill="#1f1f89"/>
    <rect id="Rectangle_1130" data-name="Rectangle 1130" width="186.55" height="0.299" transform="translate(290.24 180.423)" fill="#1f1f89"/>
    <rect id="Rectangle_1131" data-name="Rectangle 1131" width="186.55" height="26.635" transform="translate(290.24 132.401)"/>
    <path id="Path_3125" data-name="Path 3125" d="M1700.3,1204.977a32.847,32.847,0,0,1-11.534,1.705c-4.919-.388-7.688-2.82-7.8-6.851a10.117,10.117,0,0,1,4.077-8.273c-.027-.219-.048-.436-.067-.655-.182-2.256.329-3.742,1.516-4.456,1.922-1.131,4.774.417,4.895.484l-.639,1.029c-.639-.35-2.537-1.123-3.587-.5-.906.535-1.016,2.013-.936,3.208a27.64,27.64,0,0,1,8.744-3.694,49.15,49.15,0,0,1,8.238-1.337,6.95,6.95,0,0,1,.069-.738c.088-.556.291-1.2.866-1.337a.97.97,0,0,1,1.021.5,2.741,2.741,0,0,1,.385,1.449c.917-.021,1.767,0,2.521.048a.23.23,0,0,1,.021-.045,12.9,12.9,0,0,1,.193-4.154c.321-1.382.844-2.08,1.58-2.139a.976.976,0,0,1,1,.585c.412.936-.361,3.475-1.478,5.881,1.048.166,1.759.441,1.984.823a.855.855,0,0,1-.267,1.117,1.546,1.546,0,0,1-1.847.374,1.763,1.763,0,0,1-.676-.73,12.275,12.275,0,0,1-2.489,3.5,1.264,1.264,0,0,1-1.788-.037,16.512,16.512,0,0,1-.962,1.871c-1.337,2.189-2.809,3.317-4.3,3.248a2.5,2.5,0,0,1-1.6-.674,21.873,21.873,0,0,1-2.9,4.5,3.5,3.5,0,0,1-3.772,1.261c-2.451-.722-4.667-4.068-5.5-8.035a8.694,8.694,0,0,0-3.042,6.849c.094,3.44,2.328,5.346,6.637,5.7,10.879.855,29.957-8.7,31.406-15.728h0C1719.1,1195.482,1710.048,1202,1700.3,1204.977Zm-13.916-12.943c.663,4.186,2.879,7.26,4.761,7.813a2.185,2.185,0,0,0,2.406-.874,20.294,20.294,0,0,0,3.042-4.911,6.89,6.89,0,0,1-.535-1.556,10.719,10.719,0,0,1,0-4.571,33.2,33.2,0,0,0-5.956,1.957A19.929,19.929,0,0,0,1686.386,1192.034ZM1698,1193.99a1.454,1.454,0,0,0,1.112.716c.954.037,2.107-.925,3.149-2.649a15.42,15.42,0,0,0,1.3-2.78,11.177,11.177,0,0,1-.355-2.427c-1.4.107-2.924.286-4.5.556C1699.529,1188.912,1699.056,1191.456,1698,1193.99Zm6.881-4.691c.195.559.371.668.374.668a11.108,11.108,0,0,0,2.245-3.227c-.6-.021-1.275-.024-2.01,0a13.905,13.905,0,0,1-.609,2.558Zm-7.413-1.534a8.661,8.661,0,0,0-.163,4.461c.634-1.978.778-3.686.163-4.461ZM1709.9,1187Zm-.187-6.121a6.968,6.968,0,0,0-.3,1.248A9.164,9.164,0,0,0,1709.716,1180.882Z" transform="translate(-1241.119 -871.636)"/>
    <path id="Path_3133" data-name="Path 3133" d="M712.431,1164.224l-95.344-.593a7.693,7.693,0,0,1-7.648-7.752l.623-100.212a7.693,7.693,0,0,1,7.752-7.648l95.344.591a7.7,7.7,0,0,1,7.648,7.752l-.623,100.212a7.7,7.7,0,0,1-7.752,7.65Z" transform="translate(-456.022 -775.508)"/>
    <path id="Path_3134" data-name="Path 3134" d="M729.716,1096.526l-91.345-.569a3.381,3.381,0,0,1-3.371-3.406l.072-11.6a3.384,3.384,0,0,1,3.4-3.365l91.345.569a3.384,3.384,0,0,1,3.363,3.406l-.072,11.6A3.387,3.387,0,0,1,729.716,1096.526Z" transform="translate(-474.75 -797.174)" fill="#fff"/>
    <path id="Path_3135" data-name="Path 3135" d="M730.857,1274.545l-7.819-.048a3.542,3.542,0,0,1-3.518-3.563l.051-7.822a3.534,3.534,0,0,1,3.553-3.512l7.822.048a3.536,3.536,0,0,1,3.515,3.56l-.048,7.819A3.539,3.539,0,0,1,730.857,1274.545Z" transform="translate(-536.677 -930.531)" fill="#ebf3fa"/>
    <path id="Path_3136" data-name="Path 3136" d="M730.436,1342.943l-7.822-.051a3.534,3.534,0,0,1-3.515-3.561l.048-7.819a3.542,3.542,0,0,1,3.561-3.512l7.819.051a3.539,3.539,0,0,1,3.515,3.555l-.048,7.819A3.542,3.542,0,0,1,730.436,1342.943Z" transform="translate(-536.369 -980.647)" fill="#ebf3fa"/>
    <path id="Path_3137" data-name="Path 3137" d="M730.007,1411.315l-7.819-.048a3.539,3.539,0,0,1-3.518-3.561l.048-7.819a3.542,3.542,0,0,1,3.561-3.518l7.822.048a3.537,3.537,0,0,1,3.515,3.561l-.048,7.822a3.537,3.537,0,0,1-3.561,3.515Z" transform="translate(-536.054 -1030.741)" fill="#ebf3fa"/>
    <path id="Path_3138" data-name="Path 3138" d="M804.506,1275.035l-7.821-.048a3.536,3.536,0,0,1-3.515-3.56l.048-7.822a3.537,3.537,0,0,1,3.561-3.515l7.822.048a3.537,3.537,0,0,1,3.515,3.561l-.048,7.819a3.542,3.542,0,0,1-3.561,3.518Z" transform="translate(-590.639 -930.889)" fill="#ebf3fa"/>
    <path id="Path_3139" data-name="Path 3139" d="M804.084,1343.385l-7.819-.048a3.537,3.537,0,0,1-3.515-3.561l.048-7.819a3.539,3.539,0,0,1,3.561-3.518l7.819.051a3.536,3.536,0,0,1,3.518,3.558l-.051,7.822a3.534,3.534,0,0,1-3.561,3.515Z" transform="translate(-590.332 -980.969)" fill="#ebf3fa"/>
    <path id="Path_3140" data-name="Path 3140" d="M803.656,1411.775l-7.821-.048a3.537,3.537,0,0,1-3.515-3.561l.048-7.822a3.537,3.537,0,0,1,3.561-3.515l7.822.048a3.537,3.537,0,0,1,3.515,3.561l-.048,7.822a3.536,3.536,0,0,1-3.561,3.515Z" transform="translate(-590.017 -1031.078)" fill="#ebf3fa"/>
    <path id="Path_3141" data-name="Path 3141" d="M875.1,1343.835l-7.819-.051a3.539,3.539,0,0,1-3.518-3.561l.048-7.819a3.537,3.537,0,0,1,3.561-3.515l7.822.048a3.534,3.534,0,0,1,3.515,3.561l-.048,7.819A3.542,3.542,0,0,1,875.1,1343.835Z" transform="translate(-642.36 -981.299)" fill="#2b478b"/>
    <path id="Path_3142" data-name="Path 3142" d="M874.676,1412.215l-7.822-.048a3.536,3.536,0,0,1-3.515-3.561l.048-7.819a3.539,3.539,0,0,1,3.561-3.518l7.819.048a3.542,3.542,0,0,1,3.518,3.561l-.051,7.822a3.534,3.534,0,0,1-3.558,3.515Z" transform="translate(-642.052 -1031.4)" fill="#ebf3fa"/>
    <path id="Path_3143" data-name="Path 3143" d="M661,1202.534l-7.819-.048a3.542,3.542,0,0,1-3.518-3.561l.029-4.638a3.542,3.542,0,0,1,3.561-3.518l7.821.051a3.536,3.536,0,0,1,3.515,3.561l-.029,4.638A3.536,3.536,0,0,1,661,1202.534Z" transform="translate(-485.491 -880.1)" fill="#13a0f0"/>
    <path id="Path_3144" data-name="Path 3144" d="M660.556,1274.259l-7.821-.051a3.534,3.534,0,0,1-3.515-3.555l.029-4.638a3.534,3.534,0,0,1,3.558-3.515l7.821.048a3.536,3.536,0,0,1,3.515,3.561l-.027,4.638A3.542,3.542,0,0,1,660.556,1274.259Z" transform="translate(-485.169 -932.655)" fill="#13a0f0"/>
    <path id="Path_3145" data-name="Path 3145" d="M660.107,1345.944l-7.819-.048a3.542,3.542,0,0,1-3.518-3.561l.029-4.638a3.542,3.542,0,0,1,3.561-3.518l7.819.051a3.537,3.537,0,0,1,3.518,3.558l-.029,4.63a3.537,3.537,0,0,1-3.561,3.526Z" transform="translate(-484.839 -985.175)" fill="#13a0f0"/>
    <path id="Path_3146" data-name="Path 3146" d="M659.666,1417.651l-7.821-.048a3.537,3.537,0,0,1-3.515-3.561l.027-4.638a3.537,3.537,0,0,1,3.561-3.515l7.821.048a3.536,3.536,0,0,1,3.515,3.561l-.029,4.638a3.534,3.534,0,0,1-3.558,3.515Z" transform="translate(-484.517 -1037.716)" fill="#13a0f0"/>
    <path id="Path_3147" data-name="Path 3147" d="M731.323,1206.155l-7.821-.048a3.537,3.537,0,0,1-3.5-3.561l.048-7.819a3.542,3.542,0,0,1,3.561-3.518l7.819.048a3.539,3.539,0,0,1,3.518,3.561l-.048,7.822a3.537,3.537,0,0,1-3.574,3.515Z" transform="translate(-537.029 -880.422)" fill="#13a0f0"/>
    <path id="Path_3148" data-name="Path 3148" d="M804.926,1206.615l-7.821-.048a3.536,3.536,0,0,1-3.515-3.561l.048-7.821a3.537,3.537,0,0,1,3.561-3.515l7.819.048a3.542,3.542,0,0,1,3.518,3.561l-.051,7.821a3.534,3.534,0,0,1-3.558,3.515Z" transform="translate(-590.947 -880.759)" fill="#13a0f0"/>
    <path id="Path_3149" data-name="Path 3149" d="M875.927,1207.035l-7.819-.048a3.539,3.539,0,0,1-3.518-3.561l.048-7.819a3.542,3.542,0,0,1,3.561-3.518l7.822.048a3.537,3.537,0,0,1,3.515,3.561l-.048,7.822A3.536,3.536,0,0,1,875.927,1207.035Z" transform="translate(-642.968 -881.067)" fill="#13a0f0"/>
    <path id="Path_3150" data-name="Path 3150" d="M942.266,1276.185l-7.822-.048a3.536,3.536,0,0,1-3.515-3.561l.048-7.819a3.542,3.542,0,0,1,3.561-3.518l7.819.048a3.542,3.542,0,0,1,3.518,3.561l-.048,7.821a3.537,3.537,0,0,1-3.561,3.515Z" transform="translate(-691.575 -931.732)" fill="#f99746"/>
    <path id="Path_3151" data-name="Path 3151" d="M942.687,1207.805l-7.819-.051a3.539,3.539,0,0,1-3.518-3.561l.051-7.819a3.534,3.534,0,0,1,3.558-3.515l7.822.048a3.537,3.537,0,0,1,3.515,3.561l-.048,7.819A3.539,3.539,0,0,1,942.687,1207.805Z" transform="translate(-691.883 -881.631)" fill="#13a0f0"/>
    <path id="Path_3152" data-name="Path 3152" d="M941.417,1362.856l-7.822-.051a3.537,3.537,0,0,1-3.515-3.558l.16-26.1a3.536,3.536,0,0,1,3.561-3.515l7.822.048a3.536,3.536,0,0,1,3.515,3.561l-.16,26.1A3.542,3.542,0,0,1,941.417,1362.856Z" transform="translate(-690.952 -981.841)" fill="#f99746"/>
    <path id="Path_3153" data-name="Path 3153" d="M754.827,1102.586l.016-2.5.364-.952a.764.764,0,0,1,.593.6l-.021,3.341-.241.238Zm.708.96.238.241-.021,3.339a.765.765,0,0,1-.6.593l-.353-.957.016-2.5Z" transform="translate(-562.527 -812.956)" fill="#2b478b"/>
    <path id="Path_3154" data-name="Path 3154" d="M767.837,1100.4l-.013,2.267-.722.711-.235-.24.019-3.1Zm-.994,6.555.019-3.1.241-.238.711.722-.013,2.267Zm4.17.861-3.579-.021a.765.765,0,0,1-.593-.6l.957-.353,2.863.019Zm-.31-7.637-2.852-.016-.952-.364a.764.764,0,0,1,.6-.593l3.566.021Zm.222,2.507.016-2.5.364-.952a.764.764,0,0,1,.593.6l-.021,3.341-.241.238Zm.711.96.235.241-.019,3.339a.77.77,0,0,1-.6.593l-.35-.957.013-2.5Z" transform="translate(-571.348 -813.015)" fill="#2b478b"/>
    <path id="Path_3155" data-name="Path 3155" d="M795.067,1100.56l-.016,2.267-.719.711-.238-.241.019-3.1Zm-1,6.554.019-3.1.241-.238.711.722-.013,2.267Zm4.17.861-3.579-.021a.765.765,0,0,1-.591-.6l.957-.35,2.863.016Zm-.31-7.642-2.849-.016-.954-.364a.77.77,0,0,1,.6-.593l3.566.021Zm.225,2.507v-2.5l.366-.952a.765.765,0,0,1,.591.6l-.019,3.341-.241.235Zm.708.968.238.241-.021,3.339a.765.765,0,0,1-.6.594l-.353-.957.016-2.5Z" transform="translate(-591.299 -813.125)" fill="#2b478b"/>
    <path id="Path_3156" data-name="Path 3156" d="M822.267,1100.725v2.267l-.722.711-.238-.24.021-3.1Zm-.994,6.555.019-3.1.241-.238.711.719-.016,2.267Zm4.17.861-3.579-.021a.765.765,0,0,1-.593-.6l.957-.35,2.863.016Zm-.31-7.637-2.852-.016-.952-.366a.764.764,0,0,1,.6-.591l3.569.021Zm.222,2.507.016-2.5.364-.952a.764.764,0,0,1,.593.6l-.021,3.341-.241.235Zm.711.96.235.238-.021,3.341a.764.764,0,0,1-.6.594l-.353-.957.016-2.5Z" transform="translate(-611.228 -813.249)" fill="#2b478b"/>
    <path id="Path_3157" data-name="Path 3157" d="M849.507,1100.915v2.267l-.719.711-.238-.241.019-3.1Zm-.994,6.555.019-3.1.241-.238.711.719v2.267Zm4.17.861-3.579-.021a.767.767,0,0,1-.593-.6l.957-.35,2.866.016Zm-.3-7.637-2.852-.019-.952-.364a.77.77,0,0,1,.6-.591l3.566.021Zm.222,2.507.016-2.5.363-.952a.765.765,0,0,1,.594.6l-.021,3.341-.238.235Zm.711.96.238.238-.021,3.341a.767.767,0,0,1-.6.593l-.35-.957.016-2.5Z" transform="translate(-631.187 -813.388)" fill="#2b478b"/>
    <path id="Path_3158" data-name="Path 3158" d="M876.737,1101.085l-.016,2.267-.719.711-.238-.241.019-3.1Zm-1,6.555.021-3.1.238-.238.714.719-.016,2.267Zm4.17.861-3.566-.027a.77.77,0,0,1-.593-.6l.957-.35,2.863.016Zm-.31-7.637-2.849-.019-.941-.364a.767.767,0,0,1,.6-.591l3.566.021Zm.225,2.507.016-2.5.364-.954a.767.767,0,0,1,.591.6l-.019,3.341-.241.235Zm.708.957.238.241-.021,3.341a.765.765,0,0,1-.6.594l-.353-.957.016-2.5Z" transform="translate(-651.138 -813.513)" fill="#2b478b"/>
    <path id="Path_3159" data-name="Path 3159" d="M903.979,1101.252l-.013,2.27-.722.711-.235-.241.019-3.1Zm-.986,6.557.019-3.1.241-.238.711.719-.013,2.267Zm4.17.861-3.579-.021a.77.77,0,0,1-.593-.6l.957-.35,2.863.016Zm-.31-7.637-2.852-.019-.952-.364a.759.759,0,0,1,.6-.591l3.569.021Zm.222,2.507.016-2.507.364-.952a.77.77,0,0,1,.593.6l-.021,3.341-.241.235Zm.711.957.235.24L908,1108.08a.77.77,0,0,1-.6.593l-.353-.957.016-2.507Z" transform="translate(-671.104 -813.638)" fill="#2b478b"/>
    <path id="Path_3160" data-name="Path 3160" d="M931.184,1101.415v2.267l-.719.714-.238-.24.019-3.1Zm-.994,6.557.019-3.1.241-.235.711.719-.013,2.267Zm4.17.861-3.579-.021a.767.767,0,0,1-.591-.6l.954-.35,2.866.016Zm-.31-7.637-2.841-.019-.952-.363a.77.77,0,0,1,.6-.594l3.566.024Zm.225,2.507V1101.2l.364-.952a.77.77,0,0,1,.593.6l-.021,3.339-.238.238Zm.708.957.238.241-.021,3.341a.767.767,0,0,1-.6.594l-.35-.957.016-2.507Z" transform="translate(-691.033 -813.755)" fill="#2b478b"/>
    <path id="Path_3161" data-name="Path 3161" d="M958.407,1101.556v2.267l-.722.711-.238-.238.021-3.1Zm-1,6.557.021-3.1.238-.235.714.719-.016,2.267Zm4.173.861-3.579-.021a.77.77,0,0,1-.593-.6l.96-.342,2.863.019Zm-.313-7.648-2.85-.019-.952-.364a.764.764,0,0,1,.6-.593l3.569.024Zm.224,2.507.016-2.507.364-.952a.77.77,0,0,1,.593.6l-.021,3.339-.241.238Zm.708.957.238.241-.021,3.341a.76.76,0,0,1-.6.591l-.353-.954.016-2.507Z" transform="translate(-710.977 -813.85)" fill="#2b478b"/>
    <path id="Path_3162" data-name="Path 3162" d="M1137.238,1457.064v3.879a1.317,1.317,0,0,1-.307.837,1.8,1.8,0,0,1-.834.559,1.881,1.881,0,0,1-.326.078,2.052,2.052,0,0,1-.316.021h-73.588a1.723,1.723,0,0,1-1.764-1.27c0-.048-.013-.1-.016-.147a.706.706,0,0,1,0-.078v-3.956a.528.528,0,0,1,.016-.147,1.723,1.723,0,0,1,1.764-1.27h73.577a2.036,2.036,0,0,1,.315.021,1.882,1.882,0,0,1,.326.08,1.757,1.757,0,0,1,.834.559A1.311,1.311,0,0,1,1137.238,1457.064Z" transform="translate(-786.206 -1074.116)" fill="#ffb93e"/>
    <path id="Path_3163" data-name="Path 3163" d="M1101.078,1462.437h-39.434a1.577,1.577,0,0,1-1.529-1.107,1.628,1.628,0,0,1-.043-.163c0-.048-.013-.1-.016-.147a.706.706,0,0,1,0-.078v-3.956a.533.533,0,0,1,.016-.147,1.643,1.643,0,0,1,.043-.163,1.577,1.577,0,0,1,1.529-1.107h34.584A12.029,12.029,0,0,0,1101.078,1462.437Z" transform="translate(-786.184 -1074.116)" fill="#ffa412"/>
    <rect id="Rectangle_1132" data-name="Rectangle 1132" width="0.837" height="6.87" transform="translate(341.24 381.454)" fill="#ffa412"/>
    <rect id="Rectangle_1133" data-name="Rectangle 1133" width="0.837" height="6.87" transform="translate(338.409 381.454)" fill="#ffa412"/>
    <rect id="Rectangle_1134" data-name="Rectangle 1134" width="0.837" height="6.87" transform="translate(335.014 381.454)" fill="#ffa412"/>
    <rect id="Rectangle_1135" data-name="Rectangle 1135" width="0.837" height="6.87" transform="translate(329.81 381.454)" fill="#ffa412"/>
    <rect id="Rectangle_1136" data-name="Rectangle 1136" width="0.837" height="6.87" transform="translate(324.306 381.454)" fill="#ffa412"/>
    <rect id="Rectangle_1137" data-name="Rectangle 1137" width="0.837" height="6.87" transform="translate(315.87 381.454)" fill="#ffa412"/>
    <rect id="Rectangle_1138" data-name="Rectangle 1138" width="0.837" height="6.87" transform="translate(307.971 381.454)" fill="#ffa412"/>
    <rect id="Rectangle_1139" data-name="Rectangle 1139" width="0.837" height="6.87" transform="translate(300.919 381.454)" fill="#ffa412"/>
    <rect id="Rectangle_1140" data-name="Rectangle 1140" width="0.837" height="6.87" transform="translate(343.935 381.454)" fill="#ffa412"/>
    <rect id="Rectangle_1141" data-name="Rectangle 1141" width="0.837" height="6.87" transform="translate(345.715 381.454)" fill="#ffa412"/>
    <rect id="Rectangle_1142" data-name="Rectangle 1142" width="0.837" height="6.87" transform="translate(347.434 381.454)" fill="#ffa412"/>
    <path id="Path_3164" data-name="Path 3164" d="M1340.89,1455.594v6.822a2.023,2.023,0,0,1-.316.024h-.535v-6.87h.535A2.009,2.009,0,0,1,1340.89,1455.594Z" transform="translate(-991.326 -1074.116)" fill="#ffa412"/>
    <path id="Path_3165" data-name="Path 3165" d="M1345.274,1456.425v5.549a1.765,1.765,0,0,1-.834.559v-6.683A1.768,1.768,0,0,1,1345.274,1456.425Z" transform="translate(-994.55 -1074.321)" fill="#ffa412"/>
    <path id="Path_3166" data-name="Path 3166" d="M1107.806,1431.373v3.887a1.336,1.336,0,0,1-.3.837,1.738,1.738,0,0,1-.166.176,1.839,1.839,0,0,1-.671.382,1.817,1.817,0,0,1-.326.075,2.017,2.017,0,0,1-.313.027h-73.591a1.723,1.723,0,0,1-1.761-1.275.442.442,0,0,0-.016-.144.684.684,0,0,1,0-.078v-3.879a.682.682,0,0,1,0-.077.442.442,0,0,1,.016-.144,1.723,1.723,0,0,1,1.761-1.275h73.591a1.245,1.245,0,0,1,.142,0h.171a1.817,1.817,0,0,1,.326.075,1.586,1.586,0,0,1,.179.07h0l.115.053.064.037.061.037a1.408,1.408,0,0,1,.216.158l.062.059.037.035.016.019.019.019a.587.587,0,0,1,.064.075A1.319,1.319,0,0,1,1107.806,1431.373Z" transform="translate(-764.643 -1055.295)" fill="#ffb93e"/>
    <path id="Path_3167" data-name="Path 3167" d="M1071.671,1436.732h-39.426a1.579,1.579,0,0,1-1.529-1.109,1.66,1.66,0,0,1-.043-.166.445.445,0,0,0-.016-.144.684.684,0,0,1,0-.078v-3.879a.684.684,0,0,1,0-.078.445.445,0,0,1,.016-.144,1.651,1.651,0,0,1,.043-.166,1.58,1.58,0,0,1,1.529-1.109h34.59a.589.589,0,0,0,.048.171A11.993,11.993,0,0,0,1071.671,1436.732Z" transform="translate(-764.643 -1055.278)" fill="#ffa412"/>
    <rect id="Rectangle_1143" data-name="Rectangle 1143" width="0.837" height="6.87" transform="translate(333.373 374.584)" fill="#ffa412"/>
    <rect id="Rectangle_1144" data-name="Rectangle 1144" width="0.837" height="6.87" transform="translate(330.54 374.584)" fill="#ffa412"/>
    <rect id="Rectangle_1145" data-name="Rectangle 1145" width="0.837" height="6.87" transform="translate(327.145 374.584)" fill="#ffa412"/>
    <rect id="Rectangle_1146" data-name="Rectangle 1146" width="0.837" height="6.87" transform="translate(321.943 374.584)" fill="#ffa412"/>
    <rect id="Rectangle_1147" data-name="Rectangle 1147" width="0.837" height="6.87" transform="translate(316.439 374.584)" fill="#ffa412"/>
    <rect id="Rectangle_1148" data-name="Rectangle 1148" width="0.837" height="6.87" transform="translate(308.003 374.584)" fill="#ffa412"/>
    <rect id="Rectangle_1149" data-name="Rectangle 1149" width="0.837" height="6.87" transform="translate(300.104 374.584)" fill="#ffa412"/>
    <rect id="Rectangle_1150" data-name="Rectangle 1150" width="0.837" height="6.87" transform="translate(293.049 374.584)" fill="#ffa412"/>
    <rect id="Rectangle_1151" data-name="Rectangle 1151" width="0.837" height="6.87" transform="translate(336.068 374.584)" fill="#ffa412"/>
    <rect id="Rectangle_1152" data-name="Rectangle 1152" width="0.837" height="6.87" transform="translate(337.848 374.584)" fill="#ffa412"/>
    <rect id="Rectangle_1153" data-name="Rectangle 1153" width="0.837" height="6.87" transform="translate(339.567 374.584)" fill="#ffa412"/>
    <path id="Path_3168" data-name="Path 3168" d="M1311.494,1429.934v6.822a2,2,0,0,1-.313.024h-.521v-6.87h.521a1.989,1.989,0,0,1,.313.024Z" transform="translate(-969.799 -1055.315)" fill="#ffa412"/>
    <path id="Path_3169" data-name="Path 3169" d="M1315.837,1430.765v5.547a1.789,1.789,0,0,1-.837.561v-6.683A1.77,1.77,0,0,1,1315.837,1430.765Z" transform="translate(-972.979 -1055.52)" fill="#ffa412"/>
    <path id="Path_3170" data-name="Path 3170" d="M1122.024,1406.294v3.881a1.336,1.336,0,0,1-.3.834,1.756,1.756,0,0,1-.834.559,2.133,2.133,0,0,1-.326.077,2.413,2.413,0,0,1-.313.024h-73.59a2.012,2.012,0,0,1-.821-.171,1.545,1.545,0,0,1-.938-1.085.2.2,0,0,0-.016-.1c-.016-.032,0-.043,0-.067a.729.729,0,0,1,0-.075v-3.881a.731.731,0,0,1,0-.075.843.843,0,0,1,.016-.144,1.721,1.721,0,0,1,1.762-1.275h73.59a2.03,2.03,0,0,1,.313.024,1.878,1.878,0,0,1,.326.075,1.779,1.779,0,0,1,.834.561A1.338,1.338,0,0,1,1122.024,1406.294Z" transform="translate(-775.06 -1036.917)" fill="#ffb93e"/>
    <path id="Path_3171" data-name="Path 3171" d="M1085.888,1411.669h-39.426a1.6,1.6,0,0,1-.73-.171,1.5,1.5,0,0,1-.837-1.085.2.2,0,0,0-.016-.1c-.016-.032,0-.043,0-.067a.7.7,0,0,1,0-.075v-3.881a.693.693,0,0,1,0-.075.845.845,0,0,1,.016-.145,1.011,1.011,0,0,1,.04-.16,1.574,1.574,0,0,1,1.529-1.115h34.582a12.053,12.053,0,0,0,4.6,6.7C1085.725,1411.557,1085.806,1411.613,1085.888,1411.669Z" transform="translate(-775.06 -1036.917)" fill="#ffa412"/>
    <rect id="Rectangle_1154" data-name="Rectangle 1154" width="0.837" height="6.87" transform="translate(337.174 367.883)" fill="#ffa412"/>
    <rect id="Rectangle_1155" data-name="Rectangle 1155" width="0.837" height="6.87" transform="translate(334.344 367.883)" fill="#ffa412"/>
    <rect id="Rectangle_1156" data-name="Rectangle 1156" width="0.837" height="6.87" transform="translate(330.949 367.883)" fill="#ffa412"/>
    <rect id="Rectangle_1157" data-name="Rectangle 1157" width="0.837" height="6.87" transform="translate(325.744 367.883)" fill="#ffa412"/>
    <rect id="Rectangle_1158" data-name="Rectangle 1158" width="0.837" height="6.87" transform="translate(320.24 367.883)" fill="#ffa412"/>
    <rect id="Rectangle_1159" data-name="Rectangle 1159" width="0.837" height="6.87" transform="translate(311.804 367.883)" fill="#ffa412"/>
    <rect id="Rectangle_1160" data-name="Rectangle 1160" width="0.837" height="6.87" transform="translate(303.905 367.883)" fill="#ffa412"/>
    <rect id="Rectangle_1161" data-name="Rectangle 1161" width="0.837" height="6.87" transform="translate(296.853 367.883)" fill="#ffa412"/>
    <rect id="Rectangle_1162" data-name="Rectangle 1162" width="0.837" height="6.87" transform="translate(339.869 367.883)" fill="#ffa412"/>
    <rect id="Rectangle_1163" data-name="Rectangle 1163" width="0.837" height="6.87" transform="translate(341.649 367.883)" fill="#ffa412"/>
    <rect id="Rectangle_1164" data-name="Rectangle 1164" width="0.837" height="6.87" transform="translate(343.368 367.883)" fill="#ffa412"/>
    <path id="Path_3172" data-name="Path 3172" d="M1325.707,1404.824v6.822a2.022,2.022,0,0,1-.316.024h-.521v-6.87h.521A2.022,2.022,0,0,1,1325.707,1404.824Z" transform="translate(-980.211 -1036.917)" fill="#ffa412"/>
    <path id="Path_3173" data-name="Path 3173" d="M1330.064,1405.717v5.541a1.744,1.744,0,0,1-.834.559v-6.667A1.746,1.746,0,0,1,1330.064,1405.717Z" transform="translate(-983.405 -1037.174)" fill="#ffa412"/>
    <path id="Path_3174" data-name="Path 3174" d="M1128.628,1380.6v3.879a1.318,1.318,0,0,1-.3.834.927.927,0,0,1-.083.094,1.656,1.656,0,0,1-.508.369,1.822,1.822,0,0,1-.246.1,1.871,1.871,0,0,1-.326.078l-.152.019h-73.751a1.722,1.722,0,0,1-1.762-1.272.869.869,0,0,1-.016-.144v-4.036a1.642,1.642,0,0,1,1.567-1.406,1.9,1.9,0,0,1,.211,0h73.751l.152.019a2.128,2.128,0,0,1,.326.075,1.8,1.8,0,0,1,.837.559A1.336,1.336,0,0,1,1128.628,1380.6Z" transform="translate(-779.901 -1018.094)" fill="#ffb93e"/>
    <path id="Path_3175" data-name="Path 3175" d="M1092.494,1385.991h-39.426a1.574,1.574,0,0,1-1.529-1.109.856.856,0,0,1-.043-.163.9.9,0,0,1-.016-.144v-4.036a1.542,1.542,0,0,1,1.4-1.406,1.492,1.492,0,0,1,.19,0h34.585A12.05,12.05,0,0,0,1092.494,1385.991Z" transform="translate(-779.901 -1018.108)" fill="#ffa412"/>
    <rect id="Rectangle_1165" data-name="Rectangle 1165" width="0.837" height="6.87" transform="translate(338.936 361.013)" fill="#ffa412"/>
    <rect id="Rectangle_1166" data-name="Rectangle 1166" width="0.837" height="6.87" transform="translate(336.105 361.013)" fill="#ffa412"/>
    <rect id="Rectangle_1167" data-name="Rectangle 1167" width="0.837" height="6.87" transform="translate(332.71 361.013)" fill="#ffa412"/>
    <rect id="Rectangle_1168" data-name="Rectangle 1168" width="0.837" height="6.87" transform="translate(327.506 361.013)" fill="#ffa412"/>
    <rect id="Rectangle_1169" data-name="Rectangle 1169" width="0.837" height="6.87" transform="translate(322.004 361.013)" fill="#ffa412"/>
    <rect id="Rectangle_1170" data-name="Rectangle 1170" width="0.837" height="6.87" transform="translate(313.568 361.013)" fill="#ffa412"/>
    <rect id="Rectangle_1171" data-name="Rectangle 1171" width="0.837" height="6.87" transform="translate(305.669 361.013)" fill="#ffa412"/>
    <rect id="Rectangle_1172" data-name="Rectangle 1172" width="0.837" height="6.87" transform="translate(298.615 361.013)" fill="#ffa412"/>
    <rect id="Rectangle_1173" data-name="Rectangle 1173" width="0.837" height="6.87" transform="translate(341.633 361.013)" fill="#ffa412"/>
    <rect id="Rectangle_1174" data-name="Rectangle 1174" width="0.837" height="6.87" transform="translate(343.413 361.013)" fill="#ffa412"/>
    <rect id="Rectangle_1175" data-name="Rectangle 1175" width="0.837" height="6.87" transform="translate(345.132 361.013)" fill="#ffa412"/>
    <path id="Path_3176" data-name="Path 3176" d="M1332.277,1379.124v6.822a1.989,1.989,0,0,1-.313.024h-.535v-6.87h.535A2,2,0,0,1,1332.277,1379.124Z" transform="translate(-985.017 -1018.087)" fill="#ffa412"/>
    <path id="Path_3177" data-name="Path 3177" d="M1336.707,1379.995v5.549a1.765,1.765,0,0,1-.837.559v-6.683a1.789,1.789,0,0,1,.837.575Z" transform="translate(-988.271 -1018.322)" fill="#ffa412"/>
    <path id="Path_3178" data-name="Path 3178" d="M1108.385,1354.921v3.879a1.318,1.318,0,0,1-.3.834,1.751,1.751,0,0,1-.837.562,2.184,2.184,0,0,1-.323.077h-73.9a1.682,1.682,0,0,1-1.78-1.419.682.682,0,0,1,0-.077v-3.932a.468.468,0,0,1,0-.061,1.6,1.6,0,0,1,1.336-1.31h.053a2.294,2.294,0,0,1,.388-.037H1106.6a1.478,1.478,0,0,1,.158,0h.067a.458.458,0,0,1,.083,0,1.893,1.893,0,0,1,.323.075,1.769,1.769,0,0,1,.837.561A1.337,1.337,0,0,1,1108.385,1354.921Z" transform="translate(-765.068 -999.281)" fill="#ffb93e"/>
    <path id="Path_3179" data-name="Path 3179" d="M1072.248,1360.317h-39.423a1.558,1.558,0,0,1-1.588-1.419q0-.039,0-.078v-3.964a.513.513,0,0,1,0-.061,1.532,1.532,0,0,1,1.232-1.318h.067a1.645,1.645,0,0,1,.283-.027H1067.4a.5.5,0,0,1,0,.051,12.049,12.049,0,0,0,4.812,6.811S1072.245,1360.312,1072.248,1360.317Z" transform="translate(-765.069 -999.294)" fill="#ffa412"/>
    <rect id="Rectangle_1176" data-name="Rectangle 1176" width="0.837" height="6.87" transform="translate(333.526 354.154)" fill="#ffa412"/>
    <rect id="Rectangle_1177" data-name="Rectangle 1177" width="0.837" height="6.87" transform="translate(330.695 354.154)" fill="#ffa412"/>
    <rect id="Rectangle_1178" data-name="Rectangle 1178" width="0.837" height="6.87" transform="translate(327.3 354.154)" fill="#ffa412"/>
    <rect id="Rectangle_1179" data-name="Rectangle 1179" width="0.837" height="6.87" transform="translate(322.098 354.154)" fill="#ffa412"/>
    <rect id="Rectangle_1180" data-name="Rectangle 1180" width="0.837" height="6.87" transform="translate(316.594 354.154)" fill="#ffa412"/>
    <rect id="Rectangle_1181" data-name="Rectangle 1181" width="0.837" height="6.87" transform="translate(308.158 354.154)" fill="#ffa412"/>
    <rect id="Rectangle_1182" data-name="Rectangle 1182" width="0.837" height="6.87" transform="translate(300.259 354.154)" fill="#ffa412"/>
    <rect id="Rectangle_1183" data-name="Rectangle 1183" width="0.837" height="6.87" transform="translate(293.204 354.154)" fill="#ffa412"/>
    <rect id="Rectangle_1184" data-name="Rectangle 1184" width="0.837" height="6.87" transform="translate(336.223 354.154)" fill="#ffa412"/>
    <rect id="Rectangle_1185" data-name="Rectangle 1185" width="0.837" height="6.87" transform="translate(338.003 354.154)" fill="#ffa412"/>
    <rect id="Rectangle_1186" data-name="Rectangle 1186" width="0.837" height="6.87" transform="translate(339.722 354.154)" fill="#ffa412"/>
    <path id="Path_3180" data-name="Path 3180" d="M1312.037,1353.464v6.822a1.988,1.988,0,0,1-.313.024h-.535v-6.87h.535A1.988,1.988,0,0,1,1312.037,1353.464Z" transform="translate(-970.188 -999.286)" fill="#ffa412"/>
    <path id="Path_3181" data-name="Path 3181" d="M1316.417,1354.335v5.549a1.763,1.763,0,0,1-.837.559v-6.683A1.788,1.788,0,0,1,1316.417,1354.335Z" transform="translate(-973.404 -999.521)" fill="#ffa412"/>
    <path id="Path_3182" data-name="Path 3182" d="M1107.864,1329.439v3.871a1.337,1.337,0,0,1-.3.837c-.051.062-.107.12-.166.179a1.835,1.835,0,0,1-.671.379,1.662,1.662,0,0,1-.251.067h-.067a2.034,2.034,0,0,1-.313.024H1032.5a1.719,1.719,0,0,1-.23,0h-.088a1.66,1.66,0,0,1-1.446-1.265c0-.042,0-.085,0-.128v-3.956a.735.735,0,0,1,0-.08.445.445,0,0,1,.016-.144,1.724,1.724,0,0,1,1.762-1.272h73.89a1.844,1.844,0,0,1,.326.077,1.225,1.225,0,0,1,.179.07h0a1.8,1.8,0,0,1,.591.412c.021.027.045.051.064.077a1.336,1.336,0,0,1,.3.853Z" transform="translate(-764.702 -980.61)" fill="#ffb93e"/>
    <path id="Path_3183" data-name="Path 3183" d="M1071.707,1334.819h-39.621a1.561,1.561,0,0,1-1.379-1.278v-4.084a.73.73,0,0,1,0-.08.444.444,0,0,1,.016-.144,1.65,1.65,0,0,1,.043-.163,1.577,1.577,0,0,1,1.529-1.109h34.577a.606.606,0,0,0,.048.171,12.013,12.013,0,0,0,4.721,6.648Z" transform="translate(-764.68 -980.617)" fill="#ffa412"/>
    <rect id="Rectangle_1187" data-name="Rectangle 1187" width="0.837" height="6.87" transform="translate(333.373 347.332)" fill="#ffa412"/>
    <rect id="Rectangle_1188" data-name="Rectangle 1188" width="0.837" height="6.87" transform="translate(330.54 347.332)" fill="#ffa412"/>
    <rect id="Rectangle_1189" data-name="Rectangle 1189" width="0.837" height="6.87" transform="translate(327.145 347.332)" fill="#ffa412"/>
    <rect id="Rectangle_1190" data-name="Rectangle 1190" width="0.837" height="6.87" transform="translate(321.943 347.332)" fill="#ffa412"/>
    <rect id="Rectangle_1191" data-name="Rectangle 1191" width="0.837" height="6.87" transform="translate(316.439 347.332)" fill="#ffa412"/>
    <rect id="Rectangle_1192" data-name="Rectangle 1192" width="0.837" height="6.87" transform="translate(308.003 347.332)" fill="#ffa412"/>
    <rect id="Rectangle_1193" data-name="Rectangle 1193" width="0.837" height="6.87" transform="translate(300.104 347.332)" fill="#ffa412"/>
    <rect id="Rectangle_1194" data-name="Rectangle 1194" width="0.837" height="6.87" transform="translate(293.049 347.332)" fill="#ffa412"/>
    <rect id="Rectangle_1195" data-name="Rectangle 1195" width="0.837" height="6.87" transform="translate(336.068 347.332)" fill="#ffa412"/>
    <rect id="Rectangle_1196" data-name="Rectangle 1196" width="0.837" height="6.87" transform="translate(337.848 347.332)" fill="#ffa412"/>
    <rect id="Rectangle_1197" data-name="Rectangle 1197" width="0.837" height="6.87" transform="translate(339.567 347.332)" fill="#ffa412"/>
    <path id="Path_3184" data-name="Path 3184" d="M1311.494,1327.934v6.822a2,2,0,0,1-.313.024h-.521v-6.87h.521a1.989,1.989,0,0,1,.313.024Z" transform="translate(-969.799 -980.581)" fill="#ffa412"/>
    <path id="Path_3185" data-name="Path 3185" d="M1315.837,1328.859v5.549a1.765,1.765,0,0,1-.837.559V1328.3A1.764,1.764,0,0,1,1315.837,1328.859Z" transform="translate(-972.979 -980.867)" fill="#ffa412"/>
    <path id="Path_3186" data-name="Path 3186" d="M1122.024,1304.376v3.889a1.337,1.337,0,0,1-.3.837,1.8,1.8,0,0,1-.834.559,1.868,1.868,0,0,1-.326.075,2,2,0,0,1-.313.027h-73.59a2.054,2.054,0,0,1-.82-.171,1.548,1.548,0,0,1-.939-1.085.2.2,0,0,0-.016-.1c-.016-.032,0-.045,0-.067s0-.052,0-.078v-3.879a.744.744,0,0,1,0-.077.886.886,0,0,1,.016-.147,1.724,1.724,0,0,1,1.762-1.272h73.59a2.015,2.015,0,0,1,.313.024,1.867,1.867,0,0,1,.326.078,1.743,1.743,0,0,1,.834.562A1.317,1.317,0,0,1,1122.024,1304.376Z" transform="translate(-775.06 -962.249)" fill="#ffb93e"/>
    <path id="Path_3187" data-name="Path 3187" d="M1085.888,1309.722h-39.426a1.646,1.646,0,0,1-.73-.171,1.5,1.5,0,0,1-.837-1.085.2.2,0,0,0-.016-.1c-.016-.032,0-.046,0-.067a.716.716,0,0,1,0-.078v-3.879a.684.684,0,0,1,0-.078.872.872,0,0,1,.016-.147,1.033,1.033,0,0,1,.04-.158,1.574,1.574,0,0,1,1.529-1.115h34.582a12.05,12.05,0,0,0,4.6,6.7Z" transform="translate(-775.06 -962.219)" fill="#ffa412"/>
    <rect id="Rectangle_1198" data-name="Rectangle 1198" width="0.837" height="6.87" transform="translate(337.174 340.633)" fill="#ffa412"/>
    <rect id="Rectangle_1199" data-name="Rectangle 1199" width="0.837" height="6.87" transform="translate(334.344 340.633)" fill="#ffa412"/>
    <rect id="Rectangle_1200" data-name="Rectangle 1200" width="0.837" height="6.87" transform="translate(330.949 340.633)" fill="#ffa412"/>
    <rect id="Rectangle_1201" data-name="Rectangle 1201" width="0.837" height="6.87" transform="translate(325.744 340.633)" fill="#ffa412"/>
    <rect id="Rectangle_1202" data-name="Rectangle 1202" width="0.837" height="6.87" transform="translate(320.24 340.633)" fill="#ffa412"/>
    <rect id="Rectangle_1203" data-name="Rectangle 1203" width="0.837" height="6.87" transform="translate(311.804 340.633)" fill="#ffa412"/>
    <rect id="Rectangle_1204" data-name="Rectangle 1204" width="0.837" height="6.87" transform="translate(303.905 340.633)" fill="#ffa412"/>
    <rect id="Rectangle_1205" data-name="Rectangle 1205" width="0.837" height="6.87" transform="translate(296.853 340.633)" fill="#ffa412"/>
    <rect id="Rectangle_1206" data-name="Rectangle 1206" width="0.837" height="6.87" transform="translate(339.869 340.633)" fill="#ffa412"/>
    <rect id="Rectangle_1207" data-name="Rectangle 1207" width="0.837" height="6.87" transform="translate(341.649 340.633)" fill="#ffa412"/>
    <rect id="Rectangle_1208" data-name="Rectangle 1208" width="0.837" height="6.87" transform="translate(343.368 340.633)" fill="#ffa412"/>
    <path id="Path_3188" data-name="Path 3188" d="M1325.707,1302.874v6.822a2.022,2.022,0,0,1-.316.024h-.521v-6.87h.521a2.037,2.037,0,0,1,.316.024Z" transform="translate(-980.211 -962.22)" fill="#ffa412"/>
    <path id="Path_3189" data-name="Path 3189" d="M1330.064,1303.752v5.549a1.766,1.766,0,0,1-.834.561v-6.683A1.744,1.744,0,0,1,1330.064,1303.752Z" transform="translate(-983.405 -962.461)" fill="#ffa412"/>
    <path id="Path_3190" data-name="Path 3190" d="M1144.514,1278.655v3.881a1.337,1.337,0,0,1-.3.831h0l-.08.091a1.664,1.664,0,0,1-.393.31,2.119,2.119,0,0,1-.235.112h0l-.123.045a1.839,1.839,0,0,1-.329.075,1.99,1.99,0,0,1-.313.024h-73.606a1.718,1.718,0,0,1-1.759-1.272.676.676,0,0,1-.016-.147c0-.025,0-.05,0-.075v-3.881c0-.025,0-.05,0-.075a1.623,1.623,0,0,1,1.566-1.406,1.353,1.353,0,0,1,.209,0h73.59a2.354,2.354,0,0,1,.313.024,2.11,2.11,0,0,1,.329.077,1.8,1.8,0,0,1,.754.468l.08.091h0a1.335,1.335,0,0,1,.316.826Z" transform="translate(-791.533 -943.401)" fill="#ffb93e"/>
    <path id="Path_3191" data-name="Path 3191" d="M1108.4,1284.046h-39.426a1.575,1.575,0,0,1-1.529-1.112,1.07,1.07,0,0,1-.04-.16.677.677,0,0,1-.016-.147.729.729,0,0,1,0-.075v-3.881a.729.729,0,0,1,0-.075,1.537,1.537,0,0,1,1.4-1.406,1.133,1.133,0,0,1,.19,0h34.585A12.029,12.029,0,0,0,1108.4,1284.046Z" transform="translate(-791.555 -943.415)" fill="#ffa412"/>
    <rect id="Rectangle_1209" data-name="Rectangle 1209" width="0.837" height="6.87" transform="translate(343.189 333.763)" fill="#ffa412"/>
    <rect id="Rectangle_1210" data-name="Rectangle 1210" width="0.837" height="6.87" transform="translate(340.358 333.763)" fill="#ffa412"/>
    <rect id="Rectangle_1211" data-name="Rectangle 1211" width="0.837" height="6.87" transform="translate(336.963 333.763)" fill="#ffa412"/>
    <rect id="Rectangle_1212" data-name="Rectangle 1212" width="0.837" height="6.87" transform="translate(331.759 333.763)" fill="#ffa412"/>
    <rect id="Rectangle_1213" data-name="Rectangle 1213" width="0.837" height="6.87" transform="translate(326.255 333.763)" fill="#ffa412"/>
    <rect id="Rectangle_1214" data-name="Rectangle 1214" width="0.837" height="6.87" transform="translate(317.818 333.763)" fill="#ffa412"/>
    <rect id="Rectangle_1215" data-name="Rectangle 1215" width="0.837" height="6.87" transform="translate(309.919 333.763)" fill="#ffa412"/>
    <rect id="Rectangle_1216" data-name="Rectangle 1216" width="0.837" height="6.87" transform="translate(302.868 333.763)" fill="#ffa412"/>
    <rect id="Rectangle_1217" data-name="Rectangle 1217" width="0.837" height="6.87" transform="translate(345.883 333.763)" fill="#ffa412"/>
    <rect id="Rectangle_1218" data-name="Rectangle 1218" width="0.837" height="6.87" transform="translate(347.664 333.763)" fill="#ffa412"/>
    <rect id="Rectangle_1219" data-name="Rectangle 1219" width="0.837" height="6.87" transform="translate(349.382 333.763)" fill="#ffa412"/>
    <path id="Path_3192" data-name="Path 3192" d="M1348.217,1277.174V1284a2.069,2.069,0,0,1-.316.024h-.521v-6.87h.521a2.066,2.066,0,0,1,.315.024Z" transform="translate(-996.704 -943.39)" fill="#ffa412"/>
    <path id="Path_3193" data-name="Path 3193" d="M1352.564,1278.089v5.549a1.769,1.769,0,0,1-.834.559v-6.667A1.769,1.769,0,0,1,1352.564,1278.089Z" transform="translate(-999.891 -943.668)" fill="#ffa412"/>
    <path id="Path_3194" data-name="Path 3194" d="M1108.378,1252.95v3.879a1.338,1.338,0,0,1-.3.834,1.791,1.791,0,0,1-.837.561,1.864,1.864,0,0,1-.323.075l-.1.013h-73.8a1.871,1.871,0,0,1-1.516-.714,1.308,1.308,0,0,1-.267-.706v-3.956a.682.682,0,0,1,0-.077,1.58,1.58,0,0,1,1.262-1.353,2.053,2.053,0,0,1,.519-.067h73.727a1.292,1.292,0,0,1,.176.016,1.933,1.933,0,0,1,.323.078,1.259,1.259,0,0,1,.152.056h0a1.72,1.72,0,0,1,.513.326h0s.013,0,.021.019a1.25,1.25,0,0,1,.139.15A1.337,1.337,0,0,1,1108.378,1252.95Z" transform="translate(-765.061 -924.552)" fill="#ffb93e"/>
    <path id="Path_3195" data-name="Path 3195" d="M1072.2,1258.362h-39.423a1.62,1.62,0,0,1-1.337-.679,1.407,1.407,0,0,1-.267-.74v-3.956a.686.686,0,0,1,0-.078,1.534,1.534,0,0,1,1.267-1.387,1.581,1.581,0,0,1,.321-.032h34.582a.562.562,0,0,0,.045.158,12.03,12.03,0,0,0,4.78,6.7A.04.04,0,0,1,1072.2,1258.362Z" transform="translate(-765.025 -924.589)" fill="#ffa412"/>
    <rect id="Rectangle_1220" data-name="Rectangle 1220" width="0.837" height="6.87" transform="translate(333.526 326.904)" fill="#ffa412"/>
    <rect id="Rectangle_1221" data-name="Rectangle 1221" width="0.837" height="6.87" transform="translate(330.695 326.904)" fill="#ffa412"/>
    <rect id="Rectangle_1222" data-name="Rectangle 1222" width="0.837" height="6.87" transform="translate(327.3 326.904)" fill="#ffa412"/>
    <rect id="Rectangle_1223" data-name="Rectangle 1223" width="0.837" height="6.87" transform="translate(322.098 326.904)" fill="#ffa412"/>
    <rect id="Rectangle_1224" data-name="Rectangle 1224" width="0.837" height="6.87" transform="translate(316.594 326.904)" fill="#ffa412"/>
    <rect id="Rectangle_1225" data-name="Rectangle 1225" width="0.837" height="6.87" transform="translate(308.158 326.904)" fill="#ffa412"/>
    <rect id="Rectangle_1226" data-name="Rectangle 1226" width="0.837" height="6.87" transform="translate(300.259 326.904)" fill="#ffa412"/>
    <rect id="Rectangle_1227" data-name="Rectangle 1227" width="0.837" height="6.87" transform="translate(293.204 326.904)" fill="#ffa412"/>
    <rect id="Rectangle_1228" data-name="Rectangle 1228" width="0.837" height="6.87" transform="translate(336.223 326.904)" fill="#ffa412"/>
    <rect id="Rectangle_1229" data-name="Rectangle 1229" width="0.837" height="6.87" transform="translate(338.003 326.904)" fill="#ffa412"/>
    <rect id="Rectangle_1230" data-name="Rectangle 1230" width="0.837" height="6.87" transform="translate(339.722 326.904)" fill="#ffa412"/>
    <path id="Path_3196" data-name="Path 3196" d="M1312.037,1251.514v6.822a2.032,2.032,0,0,1-.313.024h-.535v-6.87h.535A1.988,1.988,0,0,1,1312.037,1251.514Z" transform="translate(-970.188 -924.589)" fill="#ffa412"/>
    <path id="Path_3197" data-name="Path 3197" d="M1316.417,1252.469v5.549a1.764,1.764,0,0,1-.837.559v-6.667A1.765,1.765,0,0,1,1316.417,1252.469Z" transform="translate(-973.404 -924.896)" fill="#ffa412"/>
    <path id="Path_3198" data-name="Path 3198" d="M1128.618,1227.925v3.879a1.318,1.318,0,0,1-.3.834,1.77,1.77,0,0,1-.837.561,2.133,2.133,0,0,1-.326.077,2.371,2.371,0,0,1-.313.024h-73.59a2.022,2.022,0,0,1-.8-.161,1.521,1.521,0,0,1-.978-1.2.468.468,0,0,1,0-.061v-4.034a1.625,1.625,0,0,1,1.566-1.406,1.847,1.847,0,0,1,.211,0h73.59a2.394,2.394,0,0,1,.313.024,2.152,2.152,0,0,1,.326.078,1.805,1.805,0,0,1,.837.559,1.336,1.336,0,0,1,.307.823Z" transform="translate(-779.891 -906.234)" fill="#ffb93e"/>
    <path id="Path_3199" data-name="Path 3199" d="M1092.5,1233.3H1053.08a1.652,1.652,0,0,1-.711-.16,1.5,1.5,0,0,1-.871-1.2.515.515,0,0,1,0-.061v-4.028a1.54,1.54,0,0,1,1.4-1.406,1.492,1.492,0,0,1,.19,0h34.582a12.063,12.063,0,0,0,4.614,6.7Z" transform="translate(-779.913 -906.234)" fill="#ffa412"/>
    <rect id="Rectangle_1231" data-name="Rectangle 1231" width="0.837" height="6.87" transform="translate(338.936 320.192)" fill="#ffa412"/>
    <rect id="Rectangle_1232" data-name="Rectangle 1232" width="0.837" height="6.87" transform="translate(336.105 320.192)" fill="#ffa412"/>
    <rect id="Rectangle_1233" data-name="Rectangle 1233" width="0.837" height="6.87" transform="translate(332.71 320.192)" fill="#ffa412"/>
    <rect id="Rectangle_1234" data-name="Rectangle 1234" width="0.837" height="6.87" transform="translate(327.506 320.192)" fill="#ffa412"/>
    <rect id="Rectangle_1235" data-name="Rectangle 1235" width="0.837" height="6.87" transform="translate(322.004 320.192)" fill="#ffa412"/>
    <rect id="Rectangle_1236" data-name="Rectangle 1236" width="0.837" height="6.87" transform="translate(313.568 320.192)" fill="#ffa412"/>
    <rect id="Rectangle_1237" data-name="Rectangle 1237" width="0.837" height="6.87" transform="translate(305.669 320.192)" fill="#ffa412"/>
    <rect id="Rectangle_1238" data-name="Rectangle 1238" width="0.837" height="6.87" transform="translate(298.615 320.192)" fill="#ffa412"/>
    <rect id="Rectangle_1239" data-name="Rectangle 1239" width="0.837" height="6.87" transform="translate(341.633 320.192)" fill="#ffa412"/>
    <rect id="Rectangle_1240" data-name="Rectangle 1240" width="0.837" height="6.87" transform="translate(343.413 320.192)" fill="#ffa412"/>
    <rect id="Rectangle_1241" data-name="Rectangle 1241" width="0.837" height="6.87" transform="translate(345.132 320.192)" fill="#ffa412"/>
    <path id="Path_3200" data-name="Path 3200" d="M1332.277,1226.411v6.824a2.019,2.019,0,0,1-.313.024h-.535v-6.87h.535A2.018,2.018,0,0,1,1332.277,1226.411Z" transform="translate(-985.017 -906.198)" fill="#ffa412"/>
    <path id="Path_3201" data-name="Path 3201" d="M1336.707,1227.282v5.549a1.789,1.789,0,0,1-.837.562v-6.683A1.787,1.787,0,0,1,1336.707,1227.282Z" transform="translate(-988.271 -906.433)" fill="#ffa412"/>
    <path id="Path_3202" data-name="Path 3202" d="M1137.241,1202.195v3.879a1.3,1.3,0,0,1-.307.834,1.766,1.766,0,0,1-.834.561,2.13,2.13,0,0,1-.326.078h-73.9a1.685,1.685,0,0,1-1.78-1.419v-4.018a1.685,1.685,0,0,1,1.78-1.419h73.577a2.417,2.417,0,0,1,.316.024,2.154,2.154,0,0,1,.326.078,1.764,1.764,0,0,1,.834.559A1.317,1.317,0,0,1,1137.241,1202.195Z" transform="translate(-786.209 -887.368)" fill="#ffb93e"/>
    <path id="Path_3203" data-name="Path 3203" d="M1101.082,1207.57h-39.434a1.561,1.561,0,0,1-1.588-1.419v-4.042a1.561,1.561,0,0,1,1.588-1.419h34.584a12.029,12.029,0,0,0,4.812,6.859Z" transform="translate(-786.187 -887.367)" fill="#ffa412"/>
    <rect id="Rectangle_1242" data-name="Rectangle 1242" width="0.837" height="6.87" transform="translate(341.24 313.333)" fill="#ffa412"/>
    <rect id="Rectangle_1243" data-name="Rectangle 1243" width="0.837" height="6.87" transform="translate(338.409 313.333)" fill="#ffa412"/>
    <rect id="Rectangle_1244" data-name="Rectangle 1244" width="0.837" height="6.87" transform="translate(335.014 313.333)" fill="#ffa412"/>
    <rect id="Rectangle_1245" data-name="Rectangle 1245" width="0.837" height="6.87" transform="translate(329.81 313.333)" fill="#ffa412"/>
    <rect id="Rectangle_1246" data-name="Rectangle 1246" width="0.837" height="6.87" transform="translate(324.306 313.333)" fill="#ffa412"/>
    <rect id="Rectangle_1247" data-name="Rectangle 1247" width="0.837" height="6.87" transform="translate(315.87 313.333)" fill="#ffa412"/>
    <rect id="Rectangle_1248" data-name="Rectangle 1248" width="0.837" height="6.87" transform="translate(307.971 313.333)" fill="#ffa412"/>
    <rect id="Rectangle_1249" data-name="Rectangle 1249" width="0.837" height="6.87" transform="translate(300.919 313.333)" fill="#ffa412"/>
    <rect id="Rectangle_1250" data-name="Rectangle 1250" width="0.837" height="6.87" transform="translate(343.935 313.333)" fill="#ffa412"/>
    <rect id="Rectangle_1251" data-name="Rectangle 1251" width="0.837" height="6.87" transform="translate(345.715 313.333)" fill="#ffa412"/>
    <rect id="Rectangle_1252" data-name="Rectangle 1252" width="0.837" height="6.87" transform="translate(347.434 313.333)" fill="#ffa412"/>
    <path id="Path_3204" data-name="Path 3204" d="M1340.9,1200.744v6.822a2.017,2.017,0,0,1-.313.024h-.535v-6.87h.535A2,2,0,0,1,1340.9,1200.744Z" transform="translate(-991.333 -887.39)" fill="#ffa412"/>
    <path id="Path_3205" data-name="Path 3205" d="M1345.274,1201.659v5.563a1.767,1.767,0,0,1-.834.561V1201.1A1.746,1.746,0,0,1,1345.274,1201.659Z" transform="translate(-994.55 -887.669)" fill="#ffa412"/>
    <path id="Path_3206" data-name="Path 3206" d="M1211.672,1034.068s-3.865,5.442-7.407,5.517-8.936-2.521-8.936-2.521-3.253-7.252-1.045-10.088a4.739,4.739,0,0,1,4.526.743,6.891,6.891,0,0,1,1.2,1.147,3.784,3.784,0,0,0,1.871,1.262c2.529.77,5.531-1.04,6.653.706a11.886,11.886,0,0,0,1.954,2.315A9.009,9.009,0,0,0,1211.672,1034.068Z" transform="translate(-883.969 -759.888)" fill="#13a0f0"/>
    <path id="Path_3207" data-name="Path 3207" d="M1072.93,1108.635s13.652-33.1,38.244-33.734c0,0,22.7,2.523,23.962,33.734Z" transform="translate(-795.617 -795.203)" fill="#13a0f0"/>
    <path id="Path_3208" data-name="Path 3208" d="M1190.7,1066.944s9.858,2.192,12.9.9c0,0,.46-4.122-3.692-3.545a8.714,8.714,0,0,1-5.779-1.524C1192.586,1062,1190.289,1065.22,1190.7,1066.944Z" transform="translate(-881.87 -786.234)" fill="#cfdeff"/>
    <path id="Path_3209" data-name="Path 3209" d="M1215.886,1037.174c-.631.473-2.566-6.664-2.566-6.664a6.887,6.887,0,0,1,1.2,1.147,3.786,3.786,0,0,0,1.871,1.261C1216.386,1033.127,1216.5,1036.714,1215.886,1037.174Z" transform="translate(-898.479 -762.679)" fill="#0170af"/>
    <path id="Path_3210" data-name="Path 3210" d="M1242.256,1044.475c-.139.083-4.7,2.812-5.314,2.812s3.36-5.127,3.36-5.127A11.891,11.891,0,0,0,1242.256,1044.475Z" transform="translate(-915.739 -771.215)" fill="#0170af"/>
    <path id="Path_3211" data-name="Path 3211" d="M1122.847,1126.2c-.251-.214,9.669-14.606,12.4-14.7s8.872,3.152,13.317,3.571,8.752-.839,9.594,1.788,3.152,11.941,1.732,13.43S1128.3,1130.858,1122.847,1126.2Z" transform="translate(-832.188 -822.014)" fill="#0170af"/>
    <path id="Path_3212" data-name="Path 3212" d="M1064.646,1254.978a.321.321,0,0,1,0,.051,33.138,33.138,0,0,1-1.1,6.811h0c-.088.321-.179.644-.267.962a33.708,33.708,0,0,1-2.424,5.9,34.179,34.179,0,0,1-4.625,6.7c-.048.059-.1.115-.15.171a35.5,35.5,0,0,1-8.083,6.7c-.655.4-1.337.775-2.01,1.136-.465.246-.93.476-1.4.7a14.187,14.187,0,0,0-1.366.756,19.15,19.15,0,0,1-4.678,1.925v-3.1a.536.536,0,0,1,.016-.147,1.623,1.623,0,0,1,.043-.163,1.577,1.577,0,0,1,1.529-1.107h-7.88a1.58,1.58,0,0,1-1.529-1.109,1.643,1.643,0,0,1-.043-.166.446.446,0,0,0-.016-.144.684.684,0,0,1,0-.078v-3.879a.682.682,0,0,1,0-.077.445.445,0,0,1,.016-.144,1.651,1.651,0,0,1,.043-.166,1.579,1.579,0,0,1,1.529-1.109h3.071a1.5,1.5,0,0,1-.837-1.085.2.2,0,0,0-.016-.1c-.016-.032,0-.043,0-.067a.7.7,0,0,1,0-.075v-3.881a.7.7,0,0,1,0-.075.867.867,0,0,1,.016-.144,1.008,1.008,0,0,1,.04-.16,1.575,1.575,0,0,1,1.529-1.115h1.764a1.575,1.575,0,0,1-1.529-1.109.846.846,0,0,1-.043-.163.882.882,0,0,1-.016-.144v-4.036a1.543,1.543,0,0,1,1.4-1.406H1032.4a1.558,1.558,0,0,1-1.588-1.419.684.684,0,0,1,0-.078v-3.953a.468.468,0,0,1,0-.061,1.532,1.532,0,0,1,1.232-1.318,1.561,1.561,0,0,1-1.379-1.278q0-.064,0-.128v-3.956a.8.8,0,0,1,0-.08.442.442,0,0,1,.016-.144,1.651,1.651,0,0,1,.043-.163,1.577,1.577,0,0,1,1.529-1.109h3.071a1.505,1.505,0,0,1-.837-1.085.2.2,0,0,0-.016-.1c-.016-.032,0-.045,0-.067a.746.746,0,0,1,0-.078v-3.879a.746.746,0,0,1,0-.078.885.885,0,0,1,.016-.147,1.049,1.049,0,0,1,.04-.158,1.574,1.574,0,0,1,1.529-1.115h6.014a1.575,1.575,0,0,1-1.529-1.112,1.071,1.071,0,0,1-.04-.161.661.661,0,0,1-.016-.147.7.7,0,0,1,0-.075v-3.881a.7.7,0,0,1,0-.075,1.537,1.537,0,0,1,1.4-1.406h-9.471a1.62,1.62,0,0,1-1.336-.679v-.035l1-6.092v-.035l1.419-8.693a37.987,37.987,0,0,1,4.876.984l.267.075h.019q1.4.388,2.756.885h.027a36.464,36.464,0,0,1,11.425,6.7c.059.051.12.1.177.158a34.615,34.615,0,0,1,4.79,5.162q.433.564.837,1.152c.088.128.179.267.267.388.436.642.845,1.3,1.238,1.973a33.9,33.9,0,0,1,2.328,4.884,32.432,32.432,0,0,1,1.783,6.7.99.99,0,0,0,.029.171A32.858,32.858,0,0,1,1064.646,1254.978Z" transform="translate(-764.643 -900.827)" fill="#e2810e" opacity="0.5"/>
    <circle id="Ellipse_251" data-name="Ellipse 251" cx="36.196" cy="36.196" r="36.196" transform="translate(204.501 350.607) rotate(-45)" fill="#e2810e"/>
    <path id="Path_3213" data-name="Path 3213" d="M900.936,1277.522c-.444.267-.9.535-1.358.8l-.47.267c-.356.19-.714.372-1.069.551a36.2,36.2,0,0,1-37.105-61.9,37.354,37.354,0,0,1,3.694-2.333c.465-.267.933-.5,1.4-.733s.917-.444,1.379-.65a36.106,36.106,0,0,1,4.309-1.6,35.483,35.483,0,0,1,6.554-1.321,36.2,36.2,0,0,1,22.663,66.913Z" transform="translate(-629.18 -894.48)" fill="#ffb93e"/>
    <path id="Path_3214" data-name="Path 3214" d="M894.153,1291.868a32.61,32.61,0,0,1-9.059-1.291,32.248,32.248,0,1,1,9.059,1.291Zm-.1-64a31.543,31.543,0,1,0,27.691,16.306A31.543,31.543,0,0,0,894.054,1227.868Z" transform="translate(-640.978 -906.915)" fill="#ffa412"/>
    <path id="Path_3215" data-name="Path 3215" d="M956.852,1285.132c-.072-.179-.147-.35-.224-.535a9.524,9.524,0,0,0-2.195-3.135,9.816,9.816,0,0,0-3.456-2.034,16.484,16.484,0,0,0-4.392-.823q-2.427-.152-5.274-.069a25.239,25.239,0,0,1-3.013-.062,7.555,7.555,0,0,1-2.12-.462,3.713,3.713,0,0,1-1.414-.96,4.949,4.949,0,0,1-.9-1.484,5.456,5.456,0,0,1-.409-1.738,3.693,3.693,0,0,1,.267-1.639,4.01,4.01,0,0,1,1.008-1.43,5.9,5.9,0,0,1,1.847-1.123,4.64,4.64,0,0,1,3.953.037,6.718,6.718,0,0,1,2.991,3.742l7.372-2.994a13.784,13.784,0,0,0-2.406-4.01,10.353,10.353,0,0,0-7.217-3.566,13.665,13.665,0,0,0-4.451.454l-2.088-5.143-4.082,1.657,2.058,5.079a15.357,15.357,0,0,0-3.742,2.673,11.468,11.468,0,0,0-2.363,3.293,9.162,9.162,0,0,0-.866,3.721,10.883,10.883,0,0,0,3.208,7.642,9.668,9.668,0,0,0,3.451,2.021,16.34,16.34,0,0,0,4.395.8,52.108,52.108,0,0,0,5.287,0,19.484,19.484,0,0,1,2.876.019,7.524,7.524,0,0,1,2.106.468,3.959,3.959,0,0,1,1.476,1,5.451,5.451,0,0,1,.994,1.639,4.557,4.557,0,0,1,.353,1.748,3.743,3.743,0,0,1-.4,1.665,4.689,4.689,0,0,1-1.171,1.47,7,7,0,0,1-1.981,1.163,8.393,8.393,0,0,1-2.163.561,4.917,4.917,0,0,1-2.184-.219,5.054,5.054,0,0,1-1.994-1.288,7.8,7.8,0,0,1-1.6-2.617l-7.372,3a12.721,12.721,0,0,0,2.9,4.507,10.525,10.525,0,0,0,3.823,2.384,11.69,11.69,0,0,0,4.338.626,18.424,18.424,0,0,0,4.472-.74l1.9,4.694,4.058-1.647-1.914-4.715a16.493,16.493,0,0,0,3.785-2.644,11.2,11.2,0,0,0,2.285-2.983c.045-.086.088-.174.128-.267a9.1,9.1,0,0,0,.89-3.7A9.994,9.994,0,0,0,956.852,1285.132Z" transform="translate(-687.773 -929.476)" fill="#ffa412"/>
    <path id="Path_3216" data-name="Path 3216" d="M855.4,631.252a1.676,1.676,0,0,0-.286,1.8h0c.444,1.195,1.885,2.521,3.558,3.847.214.168.4.323.569.468l.128.112.1.088c1.561,1.419.978,1.751,3.785,4.632,3.208,3.283,5.389,3.328,6.009,3.021.535-.267-.556-2-1.756-3.967-.056-.1-.115-.192-.174-.286l-.478-.8c-1.4-2.363-1.069-3.475-.751-7.012.246-2.868,4.349-16.057,4.349-16.057l-6.1-1.005s-1.759,10.489-3.769,12.117c-1.069.869-2.283.887-3.317,1.532-.072.046-.144.091-.214.139A7.951,7.951,0,0,0,855.4,631.252Z" transform="translate(-635.922 -459.038)" fill="#ffb27d"/>
    <path id="Path_3217" data-name="Path 3217" d="M855.4,668.7a1.676,1.676,0,0,0-.286,1.8h0a12.892,12.892,0,0,0,3.563,3.833c.211.174.4.332.564.481l.128.112.1.088c1.561,1.419.978,1.751,3.785,4.632,3.208,3.283,5.389,3.328,6.009,3.021.535-.267-.556-2-1.756-3.967a13.581,13.581,0,0,1-5.694-4.135c-1.93-2.427-3.229-5.555-4.544-7.364-.072.045-.144.091-.214.139A7.954,7.954,0,0,0,855.4,668.7Z" transform="translate(-635.922 -496.485)" fill="#233862"/>
    <path id="Path_3218" data-name="Path 3218" d="M1026.571,621.293c.387,1.871,3.066,1.545,6.054.8s2.283.123,6.538-.38,5.539-2.1,5.664-2.745c.112-.561-1.994-.746-4.256-.989l-.855-.1c-2.55-.3-4.429-1.933-6.755-3.269-2.2-1.264-5.512-6.456-5.512-6.456l-5.841.505s3.1,4.635,4.3,6.651a7.071,7.071,0,0,1,.6,3.978A7.484,7.484,0,0,0,1026.571,621.293Z" transform="translate(-758.016 -453.227)" fill="#ffb27d"/>
    <path id="Path_3219" data-name="Path 3219" d="M1045.951,649c2.989-.751,2.283.123,6.538-.38s5.539-2.093,5.664-2.735c.112-.561-1.994-.746-4.256-.989l-.021.043a12,12,0,0,1-6.087,1.941c-2.89.091-5.958-.716-7.953-.671a7.489,7.489,0,0,0,.059,2C1040.284,650.088,1042.963,649.757,1045.951,649Z" transform="translate(-771.341 -480.146)" fill="#233862"/>
    <path id="Path_3220" data-name="Path 3220" d="M901.069,492.59l-5.346,14.734L888.73,526.57a11.568,11.568,0,0,1-3.812-.331,16.407,16.407,0,0,1-3.678-1.759s1.836-20.618,5.445-32.473a21.1,21.1,0,0,1,3.13-6.9C895.5,478.313,901.069,492.59,901.069,492.59Z" transform="translate(-655.168 -361.726)" fill="#0082cc"/>
    <path id="Path_3221" data-name="Path 3221" d="M789.511,423.886c-3.587-1.131-13.783.425-24.021,2.5l-2.171-3.526-22.155-1.574s-7.193,16.258-3.12,26.555c.6,1.513,4.277,2.251,4.277,2.251s12.981.142,17.26.112c11.011-.078,23.256-7.736,24.838-8.065,2.6-.535,3.678,4.659,6.319,10.107S815.4,476.278,815.4,476.278a19.251,19.251,0,0,0,4.745-.535,4.679,4.679,0,0,0,2.032-1.3S797.608,426.417,789.511,423.886Z" transform="translate(-549.336 -316.31)" fill="#13a0f0"/>
    <path id="Path_3222" data-name="Path 3222" d="M727.446,180.481a7.867,7.867,0,0,0-4.264-1.069,12.755,12.755,0,0,1-2.117-.123c-8.4-1.069-13.366,11.16-13.633,14.857-.5,6.814-4.1,7.878-9.137,12.176-10.107,8.623-7.054,18.541-1.47,22.187,3.352,2.192,9.217-.064,9.217-.064.083.056,16.015-9.056,23.871-13.454C741.723,213.232,732.215,183.275,727.446,180.481Z" transform="translate(-516.266 -138.95)" fill="#233862"/>
    <path id="Path_3223" data-name="Path 3223" d="M780.272,265.55c.035.021-3.871,1.387-6.5.246-2.47-1.069-4.365-5.108-4.328-5.111,1.12-.061,2.342-1.048,3.242-7.485l.479.168,8.041,2.831s-.564,2.577-.922,5.028C779.986,263.3,779.831,265.261,780.272,265.55Z" transform="translate(-573.259 -193.152)" fill="#ffb27d"/>
    <path id="Path_3224" data-name="Path 3224" d="M791.425,256.671s-.342,1.8-.818,4.387c-4.611-.8-6.554-4.731-7.217-7.217Z" transform="translate(-583.474 -193.621)" fill="#ed975d"/>
    <path id="Path_3225" data-name="Path 3225" d="M790.393,221.171s-10.984-1.4-10.011-8.222.214-11.6,7.268-11,8.041,3.4,8.271,5.758S793.272,221.345,790.393,221.171Z" transform="translate(-581.226 -155.563)" fill="#ffb27d"/>
    <path id="Path_3226" data-name="Path 3226" d="M786.764,202.242s-6.982,6.1-11.762,6.624-6.592-1-6.592-1a18.658,18.658,0,0,0,4.467-6.148,3.355,3.355,0,0,1,2.756-2C779.046,199.406,785.513,199.224,786.764,202.242Z" transform="translate(-572.498 -153.846)" fill="#233862"/>
    <path id="Path_3227" data-name="Path 3227" d="M820.63,204.052a17.239,17.239,0,0,1,3.117,3.935,13.283,13.283,0,0,1,.412,7.057s3.609-7.145,1.513-10.588C823.447,200.8,820.63,204.052,820.63,204.052Z" transform="translate(-610.759 -156.166)" fill="#233862"/>
    <path id="Path_3228" data-name="Path 3228" d="M764.182,301.438c-.176,22.214.032,17.57-2.382,19.7-.583.513-2.227.826-4.392.984-6.806.5-18.787-.535-19.246-1.791-1.6-4.344-.5-5.707-1.871-12.363-.142-.708-.315-1.476-.519-2.31-1.125-4.571-2.2-6.121,1.625-13.507,3.475-6.683,7.084-12.122,7.413-11.93,9.316,5.44,10.029.8,10.029.8S764.268,290.6,764.182,301.438Z" transform="translate(-547.816 -212.943)"/>
    <path id="Path_3229" data-name="Path 3229" d="M895.71,531.257,888.717,550.5a11.571,11.571,0,0,1-3.8-.331,16.409,16.409,0,0,1-3.678-1.759s1.836-20.618,5.445-32.473Z" transform="translate(-655.168 -385.659)" fill="#13a0f0"/>
    <path id="Path_3230" data-name="Path 3230" d="M810,283.24s9.556,1.55,10.692,5.654,7.918,28.215,7.918,28.215-4.846.906-7.105-1.321-7.944-20.741-7.944-20.741Z" transform="translate(-602.971 -215.162)"/>
    <path id="Path_3231" data-name="Path 3231" d="M761.708,372.787c-6.806.5-18.787-.535-19.246-1.791-1.6-4.344-.5-5.707-1.871-12.363l3.208-9.273s-.47,10.3,2.585,12.991,12.494,5.138,13.986,7.388a8.249,8.249,0,0,1,1.339,3.047Z" transform="translate(-552.115 -263.607)" fill="#444"/>
    <path id="Path_3232" data-name="Path 3232" d="M790.29,418.018s6.707-1.542,7.795-.954a16.055,16.055,0,0,1,4.092,3.494c.35.751-2.406-.556-3.315-.8a7.934,7.934,0,0,0-2.849.644,9.626,9.626,0,0,1-5.111.551Z" transform="translate(-588.53 -313.115)" fill="#ffb27d"/>
    <path id="Path_3233" data-name="Path 3233" d="M713.49,280.21s-9.019.62-12.112,5c-4.352,6.148-12.89,32.345-7.867,35.82,5.656,3.884,25.627.845,25.627.845s.642-3.112-.294-4.611-15.993-3.833-16.7-4.523,8.583-13.6,8.567-15.68S713.49,280.21,713.49,280.21Z" transform="translate(-516.496 -212.942)"/>
    <path id="Path_3234" data-name="Path 3234" d="M820.72,424.4a13.547,13.547,0,0,0,1.871,2.018,1.371,1.371,0,0,0,.759.158l-.952-1.7Z" transform="translate(-610.825 -318.588)" fill="#ffb27d"/>
    <path id="Path_3235" data-name="Path 3235" d="M819.45,417.41l4.109,1.959a.73.73,0,0,1-.676.267,9.872,9.872,0,0,1-1.778-.476Z" transform="translate(-609.895 -313.467)" fill="#ffb27d"/>
    <path id="Path_3236" data-name="Path 3236" d="M788.98,347.168l32.379-.227,9.57-24.29-32.328.227Z" transform="translate(-578.078 -236.405)" fill="#233862"/>
    <path id="Path_3237" data-name="Path 3237" d="M794.314,409.98l-42.754.3.005.941,42.377-.3Z" transform="translate(-550.66 -300.391)" fill="#233862"/>
    <path id="Path_3238" data-name="Path 3238" d="M906.111,392.8A1.123,1.123,0,0,0,905,391.27a2.2,2.2,0,0,0-1.973,1.556,1.123,1.123,0,0,0,1.109,1.532A2.2,2.2,0,0,0,906.111,392.8Z" transform="translate(-671.089 -294.314)" fill="#ebf3fa"/>
    <path id="Path_3239" data-name="Path 3239" d="M1866.839,730.972a8.781,8.781,0,0,0-6.95.356c-11.807.487-12.246,12.588-10.858,17.089,1.946,6.325-4.94,11.313,2.7,13.873,8.861,2.97,16.306-1.721,15.793-.193C1895.556,764.308,1876.163,734.07,1866.839,730.972Z" transform="translate(-1363.526 -542.826)"/>
    <path id="Path_3240" data-name="Path 3240" d="M1824.778,883.817a31.024,31.024,0,0,1-3.157,4.774c-2.451,3.071-15.322-4.221-14.216-4.774s7.378-18.348,10.032-21.5a11.289,11.289,0,0,1,5.881-3.585Z" transform="translate(-1333.71 -636.818)" fill="#13a0f0"/>
    <path id="Path_3241" data-name="Path 3241" d="M1999.8,1418.517s3.553,3.242,2.86,5.544-3.9,3.841-4.333,6.656-2.165,4.352-3.726,4.352h-7.434s-1.15-1.983,1.625-2.579,3.817-3.905,3.643-6.977a53.473,53.473,0,0,1,.267-7.167l5.881-1.366Z" transform="translate(-1465.293 -1045.842)" fill="#13a0f0"/>
    <path id="Path_3242" data-name="Path 3242" d="M1867.1,1427.88s1.278,13.734-.283,14.5l-19.96-.04s0-2.3,3.208-2.817,8.837-2.387,9.789-6.568S1867.1,1427.88,1867.1,1427.88Z" transform="translate(-1362.668 -1053.828)" fill="#13a0f0"/>
    <path id="Path_3243" data-name="Path 3243" d="M1881.151,871.569a79.693,79.693,0,0,1,0,9.228c-.2,3.336-3.574,7.8-4.052,8.907-1.2,2.775-2.556,3.224-2.556,3.224l-10.479,2.569-3.686.9-11.62-3.475s-5.293-14.772-3.167-23.088a63.923,63.923,0,0,1,5.373-14.093s7.9-1.775,21.829-.786Z" transform="translate(-1361.369 -633.834)" fill="#13a0f0"/>
    <path id="Path_3244" data-name="Path 3244" d="M1926.53,928.105c-.2,3.336-4.571,7.688-5.049,8.792-1.2,2.775-2.555,3.224-2.555,3.224l-10.479,2.569-2.8-3.943s16.966-4.718,13.753-19.677Z" transform="translate(-1405.743 -681.028)" fill="#0082cc"/>
    <path id="Path_3245" data-name="Path 3245" d="M1844.8,1006.181s-5.752,17.91-6.124,24.01,11,86.635,11.459,89.445c.431,2.649,3.719,4.339,3.719,4.339a4.978,4.978,0,0,0,3.673.283c3-.847,3.943-1.871,3.943-1.871s4.48-57.437,1.708-77.956a325.185,325.185,0,0,1-2.807-38.26Z" transform="translate(-1356.665 -744.845)"/>
    <path id="Path_3246" data-name="Path 3246" d="M1891.188,1004.21s8.778,11.778,9.6,19.741,1.286,35.929,3.029,43.689,8.15,22.7,8.15,46.908a4.884,4.884,0,0,1-2.724,2.138,22.44,22.44,0,0,1-2.392.66,3.764,3.764,0,0,1-4.21-2c-4.33-8.72-18.124-36.843-18.832-42.679-.5-4.133-4.857-31.473-14.357-47.517-2.28-3.852,1.4-19.169,1.4-19.169Z" transform="translate(-1378.672 -743.409)" fill="#444"/>
    <path id="Path_3247" data-name="Path 3247" d="M1857.285,995.87s2.309,1.826,6.9,1.919c5.48.11,19.065-1.4,19.065-1.4a11.229,11.229,0,0,1,.58,3.475s-16.592,4.183-26.2.612A6.055,6.055,0,0,1,1857.285,995.87Z" transform="translate(-1370.066 -737.299)" fill="#0082cc"/>
    <path id="Path_3248" data-name="Path 3248" d="M1872.212,1005.2a2.853,2.853,0,1,1,2.5-2.831A2.685,2.685,0,0,1,1872.212,1005.2Zm0-4.833a2.035,2.035,0,1,0,1.671,2A1.862,1.862,0,0,0,1872.212,1000.369Z" transform="translate(-1379.41 -739.987)" fill="#fff"/>
    <path id="Path_3249" data-name="Path 3249" d="M1786.417,932.4l-24.935.233L1749.21,903.8l24.935-.233Z" transform="translate(-1281.628 -662.04)"/>
    <path id="Path_3250" data-name="Path 3250" d="M1876.65,978.731l-1.826-2.245a6.413,6.413,0,0,0-2.138-1.291c-.9-.187-2.793-1.28-2.975-.973s1.454,2.5,1.454,2.5h.085c-1.871,1.414-6.637.166-7.217.743-.711.7.978,2.213,1.871,3.063s3.5,2.267,5.52,1.636c1.478-.46,3.8-.928,3.8-.928Z" transform="translate(-1375.126 -721.397)" fill="#ffb27d"/>
    <path id="Path_3251" data-name="Path 3251" d="M1791.3,948.828s1.567-1.78,2.564-.925-.267,5.057-1.211,4.63S1790.758,949.341,1791.3,948.828Z" transform="translate(-1321.845 -701.983)" fill="#ffb27d"/>
    <path id="Path_3252" data-name="Path 3252" d="M1914.382,855.79s8.313.583,11.494,8.329,9.046,20.5,7.787,25.844c-.5,2.138-6.56,9.506-31.823,4.812,0,0,.206-2.644,1.914-3.881,0,0,17.8-5.715,17.768-6.851-.059-2.138-2.406-4.01-12.347-13.954C1906.478,867.391,1914.382,855.79,1914.382,855.79Z" transform="translate(-1402.951 -634.663)" fill="#13a0f0"/>
    <path id="Path_3253" data-name="Path 3253" d="M1898.631,827.284c.243-.329-.072-1.379-.462-3.331a36.416,36.416,0,0,1-.946-7.584l-.535.088-8.848,1.489s.2,2.366.206,4.592a.391.391,0,0,0,0,.056c0,1.935-.535,4.86.128,5.242C1891.54,829.8,1897.688,828.551,1898.631,827.284Z" transform="translate(-1392.693 -605.781)" fill="#ffb27d"/>
    <path id="Path_3254" data-name="Path 3254" d="M1887.88,818.189s.177,3.333.182,5.563c4.951-.118,7.592-4.927,8.666-7.052Z" transform="translate(-1392.723 -606.023)" fill="#e8945b"/>
    <path id="Path_3255" data-name="Path 3255" d="M1869.238,781.074s11.6-1.644,10.457-8.861-.409-12.272-7.862-11.524-8.455,3.726-8.658,6.226S1866.193,781.317,1869.238,781.074Z" transform="translate(-1374.615 -564.93)" fill="#ffb27d"/>
    <path id="Path_3256" data-name="Path 3256" d="M1875.77,757.906s4.515,7.95,9.575,8.423,6.95-1.16,6.95-1.16a13.935,13.935,0,0,1-5.8-7.415S1877.518,753.5,1875.77,757.906Z" transform="translate(-1383.85 -561.482)"/>
    <path id="Path_3257" data-name="Path 3257" d="M1864.632,762.533a7.25,7.25,0,0,0-2.9,3.12,11.787,11.787,0,0,0-.51,6.862s-3.3-5.365-1.136-9.04C1862.376,759.574,1864.632,762.533,1864.632,762.533Z" transform="translate(-1371.817 -565.547)"/>
    <rect id="Rectangle_1253" data-name="Rectangle 1253" width="683.333" height="1.877" rx="0.938" transform="translate(0 388.054)"/>
    <text id="Note_Goals" data-name="Note Goals" transform="translate(297.333 151.338)" fill="#fff" font-size="16" font-family="Roboto-Bold, Roboto" font-weight="700"><tspan x="0" y="0">NOTE GOALS</tspan></text>
  </g>
</svg>
