<svg xmlns="http://www.w3.org/2000/svg" width="21.379" height="21.379" viewBox="0 0 21.379 21.379">
  <g id="noun_dashboard_3542587" transform="translate(-0.528 -0.528)">
    <g id="Group_258" data-name="Group 258" transform="translate(0.528 0.528)">
      <g id="Group_257" data-name="Group 257">
        <path id="Path_3557" data-name="Path 3557" d="M20.82,34.394a3.113,3.113,0,0,0-3.093,3.093v3.321H39.105V37.488a3.113,3.113,0,0,0-3.093-3.093Zm11.154,2.139h2.855a1.069,1.069,0,0,1,0,2.137H31.973a1.069,1.069,0,0,1,0-2.137ZM17.726,42.946V52.68a3.113,3.113,0,0,0,3.093,3.093H36.012a3.113,3.113,0,0,0,3.093-3.093V42.946ZM28.415,45.44a1.069,1.069,0,0,1,1.064,1.073V51.5a1.069,1.069,0,0,1-2.137,0V46.513a1.069,1.069,0,0,1,1.073-1.073ZM24.14,47.577a1.069,1.069,0,0,1,1.073,1.073V51.5a1.069,1.069,0,0,1-2.137,0V48.65A1.069,1.069,0,0,1,24.14,47.577Zm8.551,0a1.069,1.069,0,0,1,1.064,1.073V51.5a1.069,1.069,0,0,1-2.137,0V48.65a1.069,1.069,0,0,1,1.073-1.073Z" transform="translate(-17.726 -34.394)" fill="#a3a6a8"/>
      </g>
    </g>
  </g>
</svg>
