<svg xmlns="http://www.w3.org/2000/svg" width="36" height="40" viewBox="0 0 36 40">
  <g id="noun_Delete_2804314" transform="translate(-3.4 -2)">
    <g id="Layer_2" data-name="Layer 2" transform="translate(3.4 2)">
      <path id="Path_1406" data-name="Path 1406" d="M25.529,2H17.271A2.671,2.671,0,0,0,14.6,4.671V7.329H6.029A2.671,2.671,0,0,0,3.4,10v2.671a2.671,2.671,0,0,0,2.671,2.671h.671v24A2.671,2.671,0,0,0,9.4,42h24a2.671,2.671,0,0,0,2.671-2.671v-24h.671A2.671,2.671,0,0,0,39.4,12.671V10a2.671,2.671,0,0,0-2.671-2.671H28.157V4.671A2.672,2.672,0,0,0,25.528,2ZM17.271,4.671h8.271V7.329H17.271ZM33.4,39.329H9.4v-24h24Zm3.329-26.657H6.071V10H36.729Z" transform="translate(-3.4 -2)" fill="#fff"/>
      <path id="Path_1407" data-name="Path 1407" d="M16.4,27.058a1.329,1.329,0,0,0,1.329-1.329V16.4a1.336,1.336,0,1,0-2.671,0v9.329A1.329,1.329,0,0,0,16.4,27.058Z" transform="translate(1.597 3.599)" fill="#fff"/>
      <path id="Path_1408" data-name="Path 1408" d="M11.733,27.058a1.329,1.329,0,0,0,1.329-1.329V16.4a1.336,1.336,0,0,0-2.671,0v9.329a1.329,1.329,0,0,0,1.343,1.329Z" transform="translate(-0.404 3.599)" fill="#fff"/>
      <path id="Path_1409" data-name="Path 1409" d="M21.073,27.058A1.329,1.329,0,0,0,22.4,25.729V16.4a1.336,1.336,0,1,0-2.671,0v9.329a1.329,1.329,0,0,0,1.343,1.329Z" transform="translate(3.599 3.599)" fill="#fff"/>
    </g>
  </g>
</svg>
