<svg xmlns="http://www.w3.org/2000/svg" width="693.584" height="114.411" viewBox="0 0 693.584 114.411">
  <g id="disconnect" transform="translate(0 0.136)">
    <path id="Path_1415" data-name="Path 1415" d="M577,98.455A291.183,291.183,0,0,1,618.179,91.4a331.652,331.652,0,0,1,33.495-1.684,321.343,321.343,0,0,1,83.865,10.912c27.722,7.493,51.819,11.287,71.614,11.287,27.4,0,39.635-7.258,44.186-11.1h15.832V90.014H849.192l-2.625-.059-1.588,2.03c-.4.419-5.294,5.236-19.119,7.684a106.939,106.939,0,0,1-18.486,1.471c-18.979,0-42.179-3.677-68.975-10.92a332.41,332.41,0,0,0-86.7-11.28,342.345,342.345,0,0,0-34.561,1.735A305.379,305.379,0,0,0,577,87.286Z" transform="translate(-173.587 -31.12)"/>
    <path id="Path_1416" data-name="Path 1416" d="M577,96.614a296.449,296.449,0,0,1,40.936-6.964c27.8-2.831,70.9-3.515,118.338,9.309,83.527,22.582,109.043,4.824,114.065.1h14.148V93.636h-16.6l-.838,1.007c-.051.059-4.986,5.817-20.759,8.611-14.707,2.6-42.061,3.066-88.637-9.523a330.615,330.615,0,0,0-85.99-11.192,339.306,339.306,0,0,0-34.311,1.728A302.219,302.219,0,0,0,577,91.018Z" transform="translate(-173.587 -32.073)" fill="#fff"/>
    <path id="Path_1417" data-name="Path 1417" d="M736.244,100.3c83.527,22.582,109.043,4.824,114.065.1h14.148V98.7H850.31c-5.022,4.736-30.538,22.487-114.065-.088C688.808,85.784,645.71,86.468,617.907,89.3A295.325,295.325,0,0,0,577,96.263v1.691a296.449,296.449,0,0,1,40.936-6.964C645.71,88.159,688.808,87.476,736.244,100.3Z" transform="translate(-173.587 -33.413)" fill="#bfcedc"/>
    <path id="Path_1418" data-name="Path 1418" d="M318.561,98.455A291.189,291.189,0,0,0,277.382,91.4a331.637,331.637,0,0,0-33.495-1.684,321.339,321.339,0,0,0-83.828,10.912c-27.722,7.493-51.819,11.287-71.614,11.287-27.4,0-39.635-7.258-44.186-11.1H28.39V90.014H46.369l2.625-.059,1.588,2.03c.4.419,5.294,5.236,19.156,7.684a106.94,106.94,0,0,0,18.486,1.471c18.979,0,42.179-3.677,68.975-10.92a332.409,332.409,0,0,1,86.7-11.28,342.6,342.6,0,0,1,34.561,1.735,305.454,305.454,0,0,1,40.105,6.611Z" transform="translate(-28.39 -31.12)" fill="#0093e9"/>
    <path id="Path_1419" data-name="Path 1419" d="M319.535,96.614a296.51,296.51,0,0,0-40.929-6.964C250.8,86.819,207.7,86.136,160.261,98.96c-83.5,22.582-109.014,4.824-114.036.1H32.07V93.636h16.6l.809,1.007c.051.059,4.986,5.817,20.759,8.611,14.707,2.6,42.061,3.066,88.637-9.523a330.613,330.613,0,0,1,85.99-11.192,339.314,339.314,0,0,1,34.311,1.728,302.228,302.228,0,0,1,40.355,6.75Z" transform="translate(-29.364 -32.073)" fill="#fff"/>
    <path id="Path_1420" data-name="Path 1420" d="M160.291,100.3c-83.527,22.582-109.043,4.824-114.065.1H32.07V98.7H46.225c5.022,4.736,30.539,22.487,114.065-.088,47.473-12.824,90.535-12.14,118.345-9.309a295.385,295.385,0,0,1,40.9,6.964v1.691a296.51,296.51,0,0,0-40.929-6.964C250.825,88.159,207.764,87.476,160.291,100.3Z" transform="translate(-29.364 -33.413)" fill="#bfcedc"/>
    <path id="Path_1421" data-name="Path 1421" d="M525.858,107.851a2.838,2.838,0,0,0-2.831-2.831H499.371a2.831,2.831,0,0,0-2.831,2.831h0a2.831,2.831,0,0,0,2.831,2.831h23.656A2.831,2.831,0,0,0,525.858,107.851Z" transform="translate(-152.292 -38.023)" fill="#bcbec0"/>
    <path id="Path_1422" data-name="Path 1422" d="M499.371,108.362h23.656a2.809,2.809,0,0,0,2.434-1.412,2.72,2.72,0,0,1,.4,1.412,2.831,2.831,0,0,1-2.831,2.831H499.371a2.831,2.831,0,0,1-2.831-2.831,2.787,2.787,0,0,1,.4-1.412A2.809,2.809,0,0,0,499.371,108.362Z" transform="translate(-152.292 -38.534)" fill="#f1f2f2"/>
    <path id="Path_1423" data-name="Path 1423" d="M526.789,107.361a4.2,4.2,0,0,1-4.191,4.2H498.942a4.2,4.2,0,0,1,0-8.39H522.6A4.2,4.2,0,0,1,526.789,107.361Zm-4.191,1.471a1.471,1.471,0,0,0,0-2.941H498.942a1.471,1.471,0,1,0,0,2.941Z" transform="translate(-151.863 -37.533)"/>
    <path id="Path_1424" data-name="Path 1424" d="M525.858,73.411a2.838,2.838,0,0,0-2.831-2.831H499.371a2.831,2.831,0,0,0-2.831,2.831h0a2.831,2.831,0,0,0,2.831,2.831h23.656A2.831,2.831,0,0,0,525.858,73.411Z" transform="translate(-152.292 -28.908)" fill="#bcbec0"/>
    <path id="Path_1425" data-name="Path 1425" d="M499.37,73.922h23.656a2.809,2.809,0,0,0,2.434-1.412,2.743,2.743,0,0,1,.4,1.412,2.831,2.831,0,0,1-2.831,2.831H499.37a2.8,2.8,0,0,1-2.434-4.243A2.809,2.809,0,0,0,499.37,73.922Z" transform="translate(-152.292 -29.419)" fill="#f1f2f2"/>
    <path id="Path_1426" data-name="Path 1426" d="M526.789,72.921a4.2,4.2,0,0,1-4.191,4.2H498.942a4.2,4.2,0,0,1,0-8.39H522.6A4.2,4.2,0,0,1,526.789,72.921ZM522.6,74.392a1.471,1.471,0,1,0,0-2.941H498.942a1.471,1.471,0,1,0,0,2.941Z" transform="translate(-151.863 -28.418)"/>
    <path id="Path_1427" data-name="Path 1427" d="M595.415,95.484h-22.8V83.52h22.8a5.4,5.4,0,0,1,5.427,5.39v1.177a5.4,5.4,0,0,1-5.427,5.4Z" transform="translate(-172.428 -32.332)" fill="#f1f2f2"/>
    <path id="Path_1428" data-name="Path 1428" d="M595.415,95.735h-22.8V92.059h20.2a5.4,5.4,0,0,0,5.4-5.4V85.485a5.147,5.147,0,0,0-.1-1.015,5.383,5.383,0,0,1,2.728,4.691v1.177a5.4,5.4,0,0,1-5.427,5.4Z" transform="translate(-172.428 -32.584)" fill="#bfcedc"/>
    <path id="Path_1429" data-name="Path 1429" d="M601.681,88.418v1.177a6.765,6.765,0,0,1-6.758,6.758h-22.8a1.36,1.36,0,0,1-1.368-1.36V83.028a1.368,1.368,0,0,1,1.368-1.368h22.8A6.765,6.765,0,0,1,601.681,88.418Zm-28.222,5.206h21.464a4.03,4.03,0,0,0,4.03-4.03V88.418a4.03,4.03,0,0,0-4.03-4.03H573.459Z" transform="translate(-171.936 -31.84)"/>
    <path id="Path_1430" data-name="Path 1430" d="M548.673,107.394H525.393a5.625,5.625,0,0,1-5.633-5.633V63.833a5.625,5.625,0,0,1,5.633-5.633h23.281Z" transform="translate(-158.438 -25.631)" fill="#f1f2f2"/>
    <rect id="Rectangle_504" data-name="Rectangle 504" width="8.177" height="49.194" transform="translate(383.044 32.569)" fill="#bfcedc"/>
    <path id="Path_1431" data-name="Path 1431" d="M549.542,57.71V106.9a1.36,1.36,0,0,1-1.36,1.36H524.9a7.008,7.008,0,0,1-7-6.993V63.343a7.008,7.008,0,0,1,7-6.993h23.281a1.36,1.36,0,0,1,1.36,1.36Zm-2.728,47.834V59.078H524.9a4.272,4.272,0,0,0-4.272,4.265v37.929a4.272,4.272,0,0,0,4.272,4.272Z" transform="translate(-157.946 -25.142)"/>
    <path id="Path_1432" data-name="Path 1432" d="M563.043,60.241a4.25,4.25,0,0,0-4.111-4.361h0a4.243,4.243,0,0,0-4.1,4.361v43.892a4.235,4.235,0,0,0,4.1,4.353h0a4.243,4.243,0,0,0,4.11-4.353Z" transform="translate(-167.719 -25.017)" fill="#f1f2f2"/>
    <path id="Path_1433" data-name="Path 1433" d="M559.7,108.486a3.861,3.861,0,0,1-2.052-.588,4.412,4.412,0,0,0,2.052-3.765V60.241a4.412,4.412,0,0,0-2.052-3.772,3.927,3.927,0,0,1,2.052-.588,4.25,4.25,0,0,1,4.088,4.361v43.892A4.243,4.243,0,0,1,559.7,108.486Z" transform="translate(-168.466 -25.017)" fill="#bfcedc"/>
    <path id="Path_1434" data-name="Path 1434" d="M563.939,59.736v43.892a5.478,5.478,0,1,1-10.942,0V59.736a5.478,5.478,0,1,1,10.942,0Zm-2.728,43.892V59.736a2.75,2.75,0,1,0-5.486,0v43.892a2.75,2.75,0,1,0,5.486,0Z" transform="translate(-167.233 -24.513)"/>
    <path id="Path_1435" data-name="Path 1435" d="M574.089,101.353H566V71.05h8.089a4.456,4.456,0,0,1,4.464,4.456V96.9a4.464,4.464,0,0,1-4.464,4.456Z" transform="translate(-170.676 -29.032)" fill="#f1f2f2"/>
    <path id="Path_1436" data-name="Path 1436" d="M575.677,101.353H572a4.456,4.456,0,0,0,4.412-4.456V75.506A4.456,4.456,0,0,0,572,71.05h3.677a4.456,4.456,0,0,1,4.464,4.456V96.9a4.464,4.464,0,0,1-4.464,4.456Z" transform="translate(-172.264 -29.032)" fill="#bfcedc"/>
    <path id="Path_1437" data-name="Path 1437" d="M579.479,75.016V96.407a5.824,5.824,0,0,1-5.824,5.817h-8.148a1.36,1.36,0,0,1-1.368-1.36V70.56a1.36,1.36,0,0,1,1.368-1.36H573.6a5.824,5.824,0,0,1,5.883,5.817ZM566.89,99.5H573.6a3.1,3.1,0,0,0,3.1-3.088V75.016a3.1,3.1,0,0,0-3.1-3.1h-6.736Z" transform="translate(-170.184 -28.542)"/>
    <rect id="Rectangle_505" data-name="Rectangle 505" width="9.64" height="5.934" transform="translate(361.322 54.195)" fill="#bcbec0"/>
    <rect id="Rectangle_506" data-name="Rectangle 506" width="9.64" height="2.963" transform="translate(361.322 57.166)" fill="#f1f2f2"/>
    <path id="Path_1438" data-name="Path 1438" d="M530.268,87.128v5.934a1.36,1.36,0,0,1-1.368,1.36h-9.633a1.36,1.36,0,0,1-1.368-1.36V87.128a1.368,1.368,0,0,1,1.368-1.368H528.9a1.368,1.368,0,0,1,1.368,1.368Zm-9.64,4.566h6.9V88.488h-6.912Z" transform="translate(-157.946 -32.925)"/>
    <line id="Line_47" data-name="Line 47" y1="18.295" transform="translate(401.141 48.018)" fill="#fff"/>
    <path id="Path_1439" data-name="Path 1439" d="M573.419,77.36a1.36,1.36,0,0,0-1.36,1.36v18.3a1.368,1.368,0,1,0,2.728,0V78.72a1.36,1.36,0,0,0-1.368-1.36Z" transform="translate(-172.278 -30.702)"/>
    <path id="Path_1440" data-name="Path 1440" d="M470.863,137.676,460.3,148.243a1.362,1.362,0,0,0,1.927,1.927L472.789,139.6a1.362,1.362,0,1,0-1.927-1.927Z" transform="translate(-142.594 -46.56)" fill="#272727"/>
    <path id="Path_1441" data-name="Path 1441" d="M496.37,145.41a1.36,1.36,0,0,0-1.36,1.368V161.72a1.368,1.368,0,0,0,2.728,0V146.778A1.368,1.368,0,0,0,496.37,145.41Z" transform="translate(-151.887 -48.713)" fill="#272727"/>
    <path id="Path_1442" data-name="Path 1442" d="M517.763,136.856a1.362,1.362,0,0,0-1.927,1.927L526.4,149.357a1.365,1.365,0,1,0,1.934-1.927Z" transform="translate(-157.294 -46.343)" fill="#272727"/>
    <path id="Path_1443" data-name="Path 1443" d="M496.049,31.5a1.368,1.368,0,0,0,1.368-1.4V15.192a1.368,1.368,0,1,0-2.728,0V30.1a1.368,1.368,0,0,0,1.36,1.4Z" transform="translate(-151.801 -13.86)" fill="#272727"/>
    <path id="Path_1444" data-name="Path 1444" d="M470.863,41.622A1.36,1.36,0,0,0,472.79,39.7L462.223,29.136a1.362,1.362,0,0,0-1.927,1.927Z" transform="translate(-142.594 -17.834)" fill="#272727"/>
    <path id="Path_1445" data-name="Path 1445" d="M516.812,41.225a1.375,1.375,0,0,0,.963-.4l10.589-10.545a1.362,1.362,0,0,0-1.927-1.927L515.864,38.923a1.36,1.36,0,0,0,.949,2.3Z" transform="translate(-157.306 -17.627)" fill="#272727"/>
    <path id="Path_1446" data-name="Path 1446" d="M389.127,95.484h22.8V83.52h-22.8a5.39,5.39,0,0,0-5.4,5.39v1.177a5.4,5.4,0,0,0,5.4,5.4Z" transform="translate(-122.436 -32.333)" fill="#f1f2f2"/>
    <path id="Path_1447" data-name="Path 1447" d="M389.127,95.735h22.8V92.059h-20.17a5.4,5.4,0,0,1-5.4-5.4V85.485a5.147,5.147,0,0,1,.1-1.015,5.383,5.383,0,0,0-2.728,4.677v1.177a5.4,5.4,0,0,0,5.4,5.412Z" transform="translate(-122.436 -32.584)" fill="#bfcedc"/>
    <path id="Path_1448" data-name="Path 1448" d="M388.659,81.66h22.8a1.36,1.36,0,0,1,1.419,1.368V94.991a1.36,1.36,0,0,1-1.36,1.36h-22.8a6.765,6.765,0,0,1-6.758-6.758V88.417a6.765,6.765,0,0,1,6.7-6.758Zm21.464,2.728H388.659a4.03,4.03,0,0,0-4.03,4.03v1.177a4.03,4.03,0,0,0,4.03,4.03h21.464Z" transform="translate(-121.967 -31.84)" fill="#0093e9"/>
    <path id="Path_1449" data-name="Path 1449" d="M416.036,101.353h8.089V71.05h-8.089a4.456,4.456,0,0,0-4.456,4.456V96.9a4.464,4.464,0,0,0,4.456,4.456Z" transform="translate(-129.807 -29.032)" fill="#f1f2f2"/>
    <path id="Path_1450" data-name="Path 1450" d="M416.036,101.353h3.75A4.456,4.456,0,0,1,415.33,96.9V75.506a4.456,4.456,0,0,1,4.456-4.456h-3.75a4.456,4.456,0,0,0-4.456,4.456V96.9a4.464,4.464,0,0,0,4.456,4.456Z" transform="translate(-129.807 -29.032)" fill="#bfcedc"/>
    <path id="Path_1451" data-name="Path 1451" d="M415.547,69.2h8.089A1.36,1.36,0,0,1,425,70.56v30.3a1.36,1.36,0,0,1-1.368,1.36h-8.089a5.824,5.824,0,0,1-5.816-5.817V75.017a5.817,5.817,0,0,1,5.816-5.817Zm6.743,2.721h-6.743a3.1,3.1,0,0,0-3.088,3.1V96.407a3.1,3.1,0,0,0,3.088,3.088h6.743Z" transform="translate(-129.317 -28.543)" fill="#0093e9"/>
    <line id="Line_48" data-name="Line 48" y1="18.295" transform="translate(288.531 48.018)" fill="#fff"/>
    <path id="Path_1452" data-name="Path 1452" d="M420.286,77.36a1.36,1.36,0,0,1,1.36,1.36v18.3a1.368,1.368,0,1,1-2.728,0V78.72a1.36,1.36,0,0,1,1.368-1.36Z" transform="translate(-131.748 -30.702)" fill="#0093e9"/>
    <path id="Path_1453" data-name="Path 1453" d="M457.588,58.21h-23.3a5.625,5.625,0,0,0-5.633,5.633v37.921a5.633,5.633,0,0,0,5.633,5.633h23.3Z" transform="translate(-134.327 -25.634)" fill="#f1f2f2"/>
    <rect id="Rectangle_507" data-name="Rectangle 507" width="8.177" height="49.187" transform="translate(316.062 32.569)" fill="#bfcedc"/>
    <path id="Path_1454" data-name="Path 1454" d="M457.1,108.3H433.8a7,7,0,0,1-6.993-6.993V63.35a7.008,7.008,0,0,1,6.993-7h23.3a1.368,1.368,0,0,1,1.368,1.368V106.9a1.36,1.36,0,0,1-1.368,1.4ZM433.8,59.078a4.272,4.272,0,0,0-4.265,4.272v37.921a4.272,4.272,0,0,0,4.265,4.272h21.92V59.078Z" transform="translate(-133.837 -25.142)" fill="#13a0f0"/>
    <path id="Path_1455" data-name="Path 1455" d="M471.976,104.133a4.236,4.236,0,0,1-4.1,4.353h0a4.236,4.236,0,0,1-4.1-4.353V60.241a4.243,4.243,0,0,1,4.1-4.361h0a4.243,4.243,0,0,1,4.1,4.361Z" transform="translate(-143.619 -25.017)" fill="#f1f2f2"/>
    <path id="Path_1456" data-name="Path 1456" d="M468.612,55.88a3.927,3.927,0,0,0-2.052.588,4.412,4.412,0,0,1,2.052,3.772v43.892a4.412,4.412,0,0,1-2.052,3.765,3.861,3.861,0,0,0,2.052.588,4.236,4.236,0,0,0,4.1-4.353V60.241a4.243,4.243,0,0,0-4.1-4.361Z" transform="translate(-144.358 -25.017)" fill="#bfcedc"/>
    <path id="Path_1457" data-name="Path 1457" d="M467.378,109.342a5.6,5.6,0,0,1-5.471-5.714V59.736a5.478,5.478,0,1,1,10.942,0v43.892a5.6,5.6,0,0,1-5.471,5.714Zm0-52.6a2.875,2.875,0,0,0-2.743,2.993v43.892a2.75,2.75,0,1,0,5.486,0V59.736A2.875,2.875,0,0,0,467.378,56.743Z" transform="translate(-143.124 -24.513)" fill="#13a0f0"/>
    <path id="Path_1458" data-name="Path 1458" d="M449.2,102.16H439.76a1.36,1.36,0,1,0,0,2.721H449.2a1.36,1.36,0,1,0,0-2.721Z" transform="translate(-136.905 -37.266)" fill="#0093e9"/>
    <path id="Path_1459" data-name="Path 1459" d="M439.794,96.647h9.442a1.368,1.368,0,1,0,0-2.728h-9.442a1.368,1.368,0,0,0,0,2.728Z" transform="translate(-136.938 -35.084)" fill="#0093e9"/>
    <path id="Path_1460" data-name="Path 1460" d="M439.794,88.407h9.442a1.368,1.368,0,1,0,0-2.728h-9.442a1.368,1.368,0,0,0,0,2.728Z" transform="translate(-136.938 -32.903)" fill="#0093e9"/>
    <path id="Path_1461" data-name="Path 1461" d="M439.794,80.167h9.442a1.368,1.368,0,1,0,0-2.728h-9.442a1.368,1.368,0,0,0,0,2.728Z" transform="translate(-136.938 -30.722)" fill="#0093e9"/>
  </g>
</svg>
