<svg xmlns="http://www.w3.org/2000/svg" width="26.26" height="28" viewBox="0 0 26.26 28">
  <g id="noun_documents_778860" transform="translate(-7.7 -5)">
    <g id="Group_111" data-name="Group 111" transform="translate(7.7 5)">
      <g id="Group_110" data-name="Group 110" transform="translate(0 0)">
        <path id="Path_667" data-name="Path 667" d="M27.9,16.3H10.093A2.463,2.463,0,0,0,7.7,18.817V38.271a2.443,2.443,0,0,0,2.393,2.517H24.015a3.723,3.723,0,0,0,2.735-1.212L29.2,36.9a4.152,4.152,0,0,0,1.088-2.859V18.817A2.463,2.463,0,0,0,27.9,16.3ZM9.6,38.24V18.817a.567.567,0,0,1,.5-.622H27.9a.567.567,0,0,1,.5.622v15.2a1.513,1.513,0,0,1-.031.373H24.637a.935.935,0,0,0-.932.932v3.574H10.093A.621.621,0,0,1,9.6,38.24Zm15.973-.218V36.251h1.616Z" transform="translate(-7.7 -12.788)" fill="#a3a6a8"/>
        <path id="Path_668" data-name="Path 668" d="M20.232,32.765H33.782a.935.935,0,0,0,.932-.932.956.956,0,0,0-.932-.932H20.232a.932.932,0,1,0,0,1.865Z" transform="translate(-15.695 -22.851)" fill="#a3a6a8"/>
        <path id="Path_669" data-name="Path 669" d="M20.232,47.265H33.782a.935.935,0,0,0,.932-.932.956.956,0,0,0-.932-.932H20.232a.932.932,0,1,0,0,1.865Z" transform="translate(-15.695 -32.845)" fill="#a3a6a8"/>
        <path id="Path_670" data-name="Path 670" d="M33.751,61.765a.935.935,0,0,0,.932-.932.956.956,0,0,0-.932-.932H20.232a.935.935,0,0,0-.932.932.956.956,0,0,0,.932.932Z" transform="translate(-15.695 -42.839)" fill="#a3a6a8"/>
        <path id="Path_671" data-name="Path 671" d="M40.476,5H22.669a2.338,2.338,0,0,0-2.02,1.181.449.449,0,0,0,.4.684H40.476a.567.567,0,0,1,.5.622V25.262a.448.448,0,0,0,.777.311,4.152,4.152,0,0,0,1.088-2.859V7.517A2.418,2.418,0,0,0,40.476,5Z" transform="translate(-16.578 -5)" fill="#a3a6a8"/>
      </g>
    </g>
  </g>
</svg>
