<svg xmlns="http://www.w3.org/2000/svg" width="40" height="40" viewBox="0 0 40 40">
  <g id="noun_done_1543579" transform="translate(-8 -7)">
    <g id="Group_48" data-name="Group 48" transform="translate(8 7)">
      <path id="Path_391" data-name="Path 391" d="M28,47A20,20,0,1,0,8,27,20.029,20.029,0,0,0,28,47ZM17.767,26.209a1.853,1.853,0,0,1,2.651,0l4.372,4.372,9.86-9.86A1.875,1.875,0,1,1,37.3,23.372L26.14,34.535a1.8,1.8,0,0,1-2.6,0L17.767,28.86A1.941,1.941,0,0,1,17.767,26.209Z" transform="translate(-8 -7)" fill="#34c923"/>
    </g>
  </g>
</svg>
