<svg id="noun_Email_3457141" xmlns="http://www.w3.org/2000/svg" width="21.027" height="16.095" viewBox="0 0 21.027 16.095">
  <g id="Group_40" data-name="Group 40" transform="translate(0 0)">
    <path id="Path_371" data-name="Path 371" d="M0,3.231,8.439,7.813a4.259,4.259,0,0,0,4.149,0l8.439-4.582V1.369A1.374,1.374,0,0,0,19.657,0H1.369A1.374,1.374,0,0,0,0,1.369V3.231Z" transform="translate(0 0)" fill="#a3a6a8"/>
    <path id="Path_372" data-name="Path 372" d="M0,88.414l5.712-7.151L0,78.16V88.333Z" transform="translate(0 -73.608)" fill="#a3a6a8"/>
    <path id="Path_373" data-name="Path 373" d="M262.89,81.263l5.712,7.151,0-.081V78.16Z" transform="translate(-247.578 -73.608)" fill="#a3a6a8"/>
    <path id="Path_374" data-name="Path 374" d="M30.639,148.76l-6.119-7.66-1.131.614a5.4,5.4,0,0,1-5.261,0L17,141.1l-6.119,7.66a1.362,1.362,0,0,0,.736.216H29.9A1.362,1.362,0,0,0,30.639,148.76Z" transform="translate(-10.246 -132.882)" fill="#a3a6a8"/>
  </g>
</svg>
