<svg id="iconfinder_Email_4550857" xmlns="http://www.w3.org/2000/svg" width="61.734" height="61.734" viewBox="0 0 61.734 61.734">
  <path id="Path_967" data-name="Path 967" d="M30.867,61.734h0A30.867,30.867,0,0,0,61.734,30.867h0A30.867,30.867,0,0,0,30.867,0h0A30.867,30.867,0,0,0,0,30.867H0A30.867,30.867,0,0,0,30.867,61.734Z" fill-rule="evenodd"/>
  <path id="Path_968" data-name="Path 968" d="M18,25.854V43.333a1.661,1.661,0,0,0,1.655,1.722H46.933a1.667,1.667,0,0,0,1.655-1.722V25.854A1.68,1.68,0,0,0,46.933,24H19.655A1.668,1.668,0,0,0,18,25.854m2.515,1.522a.609.609,0,0,1,.662-.662c.252,0,10.164,6.281,10.765,6.649l1.551.965c.492-.33.986-.611,1.5-.953,1.041-.665,10.3-6.661,10.554-6.661a.608.608,0,0,1,.662.662c0,.446-.859.889-1.419,1.231-3.516,2.143-7.031,4.479-10.512,6.7-.2.137-.6.431-.891.386-.329-.051-10.415-6.531-12.25-7.61-.276-.162-.617-.311-.617-.708" transform="translate(-2.567 -3.422)" fill="#fff" fill-rule="evenodd"/>
</svg>
