<svg xmlns="http://www.w3.org/2000/svg" width="61.497" height="65.001" viewBox="0 0 61.497 65.001">
  <g id="noun_explain_1722621" transform="translate(-5.109 -2.6)">
    <g id="Group_361" data-name="Group 361" transform="translate(5.109 2.6)">
      <path id="Path_3011" data-name="Path 3011" d="M41.685,20.409h.822a8.121,8.121,0,0,1-.548,2.329,2.148,2.148,0,0,0,.616,2.4,2.175,2.175,0,0,0,1.37.548,1.933,1.933,0,0,0,1.027-.274,18.2,18.2,0,0,0,5.411-5h2.192a5.671,5.671,0,0,0,5.685-5.685V8.285A5.671,5.671,0,0,0,52.576,2.6H41.685A5.671,5.671,0,0,0,36,8.285v6.439A5.715,5.715,0,0,0,41.685,20.409ZM38.534,8.217a3.142,3.142,0,0,1,3.151-3.151H52.576a3.142,3.142,0,0,1,3.151,3.151v6.439a3.142,3.142,0,0,1-3.151,3.151H49.767a1.208,1.208,0,0,0-1.027.548,19.8,19.8,0,0,1-3.973,4.11,11.029,11.029,0,0,0,.342-3.425,1.288,1.288,0,0,0-1.3-1.233H41.685a3.142,3.142,0,0,1-3.151-3.151Z" transform="translate(-14.841 -2.6)" fill="#13a0f0"/>
      <path id="Path_3012" data-name="Path 3012" d="M45.3,12.9h8.767a1.3,1.3,0,0,0,1.3-1.3,1.259,1.259,0,0,0-1.3-1.3H45.3A1.3,1.3,0,0,0,44,11.6,1.259,1.259,0,0,0,45.3,12.9Z" transform="translate(-17.361 -5.026)" fill="#13a0f0"/>
      <path id="Path_3013" data-name="Path 3013" d="M45.3,19.3h8.767a1.3,1.3,0,1,0,0-2.6H45.3a1.3,1.3,0,1,0,0,2.6Z" transform="translate(-17.361 -7.042)" fill="#13a0f0"/>
      <circle id="Ellipse_167" data-name="Ellipse 167" cx="8.082" cy="8.082" r="8.082" transform="translate(37.118 20.617)" fill="#13a0f0"/>
      <path id="Path_3014" data-name="Path 3014" d="M47.919,85.1a24.667,24.667,0,0,1-.548,2.6,3.067,3.067,0,0,0,2.4,3.63,1.9,1.9,0,0,0,.616.068A3.078,3.078,0,0,0,53.4,88.936s.342-1.575.685-3.288H53.056A23.165,23.165,0,0,1,47.919,85.1Z" transform="translate(-18.404 -28.592)" fill="#13a0f0"/>
      <path id="Path_3015" data-name="Path 3015" d="M81.5,79.858c-.068-.274-1.164-6.1-1.712-8.082a32.722,32.722,0,0,0-3.219-7.055l-.342-.616a6.574,6.574,0,0,0-6.1-3.9H60.408c-2.6,0-4.658,1.3-6.1,3.9l-.342.616c-.479.89-.959,1.781-1.37,2.671a19.527,19.527,0,0,0,2.123.137,13.7,13.7,0,0,0,2.055-.137c.205,0,.411-.068.685-.068A5.163,5.163,0,0,1,58.217,77.6a1.205,1.205,0,0,0-.411.068l-.205,6.1a1.945,1.945,0,0,0,1.986,1.986H71.025a1.889,1.889,0,0,0,1.918-1.986l-.411-13.425a19.929,19.929,0,0,1,1.3,3.014c.479,1.849,1.644,7.671,1.644,7.74a3.018,3.018,0,0,0,3.63,2.4A3.067,3.067,0,0,0,81.5,79.858Z" transform="translate(-20.071 -20.747)" fill="#13a0f0"/>
      <circle id="Ellipse_168" data-name="Ellipse 168" cx="8.082" cy="8.082" r="8.082" transform="translate(8.214 20.617)" fill="#13a0f0"/>
      <path id="Path_3016" data-name="Path 3016" d="M42.912,75.511a3.11,3.11,0,0,0-.822-6.165c-1.37.205-4.726.274-6.507-.479-.959-.479-2.055-3.014-2.534-4.11a8.858,8.858,0,0,0-.616-1.37A5.98,5.98,0,0,0,26.679,60.1H16.541c-2.671,0-4.658,1.3-6.1,3.9l-.342.616a32.722,32.722,0,0,0-3.219,7.055c-.548,2.055-1.712,7.877-1.712,8.082a3.1,3.1,0,0,0,2.466,3.63,1.9,1.9,0,0,0,.616.068,3.078,3.078,0,0,0,3.014-2.466c0-.068,1.164-5.891,1.644-7.74a16.543,16.543,0,0,1,1.3-3.014L13.8,83.662a1.945,1.945,0,0,0,1.986,1.986H27.227a1.988,1.988,0,0,0,1.986-1.986L28.8,69.826a10.269,10.269,0,0,0,4.384,4.658C36.884,76.265,42.3,75.58,42.912,75.511Z" transform="translate(-5.109 -20.715)" fill="#13a0f0"/>
    </g>
  </g>
</svg>
