<svg xmlns="http://www.w3.org/2000/svg" width="24.512" height="22.295" viewBox="0 0 24.512 22.295">
  <g id="noun_FAQ_569373" transform="translate(-19.1 -21.8)">
    <g id="Group_41" data-name="Group 41" transform="translate(19.1 21.8)">
      <path id="Path_375" data-name="Path 375" d="M35.217,31.066V24.1a2.3,2.3,0,0,0-2.3-2.3H21.4a2.3,2.3,0,0,0-2.3,2.3v6.97a2.3,2.3,0,0,0,1.861,2.257v2.059a.934.934,0,0,0,.277.634.806.806,0,0,0,.594.238.971.971,0,0,0,.634-.238L25.08,33.4H33A2.319,2.319,0,0,0,35.217,31.066Zm-7.445-.238a.355.355,0,0,1-.356.356h-.911a.355.355,0,0,1-.356-.356v-.594a.355.355,0,0,1,.356-.356h.911a.355.355,0,0,1,.356.356Zm1.465-3.564a2.5,2.5,0,0,1-.911.792,1.145,1.145,0,0,0-.436.436,3.212,3.212,0,0,0-.119.436.256.256,0,0,1-.238.238H26.386a.223.223,0,0,1-.238-.277,1.872,1.872,0,0,1,.238-.752,3.541,3.541,0,0,1,.871-.792,1.287,1.287,0,0,0,.515-.515,1.368,1.368,0,0,0,.2-.713,1,1,0,0,0-.238-.673.836.836,0,0,0-.634-.238.735.735,0,0,0-.752.515A.38.38,0,0,1,25.99,26H24.921a.256.256,0,0,1-.238-.238,1.735,1.735,0,0,1,.634-1.307,2.685,2.685,0,0,1,1.742-.515,2.587,2.587,0,0,1,1.822.594,2.032,2.032,0,0,1,.673,1.584A1.7,1.7,0,0,1,29.238,27.265Z" transform="translate(-19.1 -21.8)" fill="#a3a6a8"/>
      <path id="Path_376" data-name="Path 376" d="M54.02,41.7h-4.4v1.386a3.972,3.972,0,0,1-3.96,3.96H40.2v3.92a2.3,2.3,0,0,0,2.3,2.3h7.92l2.614,2.614a.9.9,0,0,0,.634.238.806.806,0,0,0,.594-.238.934.934,0,0,0,.277-.634V53.184a2.182,2.182,0,0,0,1.822-2.178V44A2.307,2.307,0,0,0,54.02,41.7Z" transform="translate(-31.844 -33.82)" fill="#a3a6a8"/>
    </g>
  </g>
</svg>
