<svg xmlns="http://www.w3.org/2000/svg" width="371.181" height="245" viewBox="0 0 371.181 245">
  <g id="finish-graphics" transform="translate(0.027 0.003)">
    <rect id="Rectangle_325" data-name="Rectangle 325" width="6.358" height="70.272" transform="translate(31.363 173.763)" fill="#13a0f0"/>
    <rect id="Rectangle_326" data-name="Rectangle 326" width="6.358" height="70.272" transform="translate(310.5 173.763)" fill="#13a0f0"/>
    <rect id="Rectangle_327" data-name="Rectangle 327" width="7.513" height="135.477" transform="translate(247.271 48.639)" fill="#13a0f0"/>
    <path id="Path_926" data-name="Path 926" d="M373.409,556.213a.924.924,0,0,1-.2-.023.963.963,0,0,1-.74-1.156,28.778,28.778,0,1,0-56.921-6.227.963.963,0,0,1-1.8.47,21.577,21.577,0,0,0-26.482-9.428.963.963,0,0,1-1.306-.794,38.53,38.53,0,0,0-76.059-3.606.963.963,0,0,1-1.268.717A21.577,21.577,0,0,0,179.871,555.3a.963.963,0,0,1-.959.909H158.263a.963.963,0,0,1,0-1.927h19.755a23.5,23.5,0,0,1,30.223-20.279,40.457,40.457,0,0,1,79.484,3.633,23.5,23.5,0,0,1,26.058,8.2,30.709,30.709,0,1,1,60.566,9.633A.963.963,0,0,1,373.409,556.213Z" transform="translate(-101.47 -311.215)" fill="#231f20"/>
    <path id="Path_927" data-name="Path 927" d="M681.961,556.336a.944.944,0,0,1-.2-.023.96.96,0,0,1-.736-1.156c.062-.285.12-.574.173-.863a.963.963,0,1,1,1.892.347c-.054.312-.116.616-.185.925A.959.959,0,0,1,681.961,556.336Zm.655-5.487h-.027a.963.963,0,0,1-.936-.99v-.747a29.81,29.81,0,0,0-.235-3.714.971.971,0,1,1,1.927-.247,30.9,30.9,0,0,1,.254,3.961v.8a.96.96,0,0,1-.983.94Zm-59.475-.963a.967.967,0,0,1-.836-.485,21.4,21.4,0,0,0-1.611-2.416.963.963,0,0,1,1.541-1.156c.173.223.339.455.5.686a.951.951,0,0,1,.52-.119.967.967,0,0,1,.906,1.021c-.031.5-.046,1.021-.05,1.541a.963.963,0,0,1-.717.925A1.081,1.081,0,0,1,623.14,549.886ZM618.289,544a.967.967,0,0,1-.628-.231,21.607,21.607,0,0,0-3.622-2.535.963.963,0,1,1,.936-1.68,23.662,23.662,0,0,1,3.946,2.755.963.963,0,0,1-.632,1.692Zm5.533-.274a.967.967,0,0,1-.944-1.156,30.972,30.972,0,0,1,1.376-4.566.963.963,0,1,1,1.8.7,28.38,28.38,0,0,0-1.279,4.265.967.967,0,0,1-.948.759Zm57.611-2.011a.967.967,0,0,1-.925-.694,28.461,28.461,0,0,0-1.584-4.173.963.963,0,1,1,1.741-.821,30.216,30.216,0,0,1,1.692,4.458.963.963,0,0,1-.655,1.194.93.93,0,0,1-.27.035Zm-84.821-2.084a.963.963,0,0,1-.3-1.88,23.347,23.347,0,0,1,4.708-1.009.969.969,0,1,1,.2,1.927,21.428,21.428,0,0,0-4.315.925.911.911,0,0,1-.3.039Zm13.655-.093a.9.9,0,0,1-.285-.042,21.521,21.521,0,0,0-4.331-.867.968.968,0,0,1,.181-1.927,23.356,23.356,0,0,1,4.72.948.963.963,0,0,1-.285,1.88ZM501.473,536.7a.963.963,0,0,1-.362-1.853,23.507,23.507,0,0,1,4.624-1.349.964.964,0,1,1,.347,1.9,21.677,21.677,0,0,0-4.238,1.237.974.974,0,0,1-.37.069Zm93.49-.035a.963.963,0,0,1-.944-.771,38.632,38.632,0,0,0-1.125-4.366.963.963,0,0,1,1.834-.589,40.834,40.834,0,0,1,1.183,4.585.963.963,0,0,1-.771,1.129.769.769,0,0,1-.181.012Zm-79.877-1.036a.862.862,0,0,1-.22-.027,21.7,21.7,0,0,0-4.385-.551.963.963,0,0,1,.023-1.927h.023a23.634,23.634,0,0,1,4.774.6.963.963,0,0,1-.216,1.9Zm112.073-.493a.944.944,0,0,1-.482-.131.963.963,0,0,1-.351-1.318,31.414,31.414,0,0,1,2.7-3.922.964.964,0,1,1,1.5,1.214,28.673,28.673,0,0,0-2.543,3.68.963.963,0,0,1-.825.478ZM517.983,534.3a.881.881,0,0,1-.243-.035.96.96,0,0,1-.69-1.156,40.376,40.376,0,0,1,1.464-4.5.964.964,0,1,1,1.8.7,38.213,38.213,0,0,0-1.395,4.292.967.967,0,0,1-.936.7Zm159.516-.913a.963.963,0,0,1-.8-.424,28.919,28.919,0,0,0-2.79-3.491.964.964,0,1,1,1.41-1.314,30.98,30.98,0,0,1,2.971,3.722.963.963,0,0,1-.794,1.507Zm-44.537-5.4a.963.963,0,0,1-.647-1.676,30.946,30.946,0,0,1,3.772-2.913.963.963,0,0,1,1.056,1.611,29.232,29.232,0,0,0-3.537,2.732A.963.963,0,0,1,632.962,527.989Zm-40.842-.1a.96.96,0,0,1-.875-.562,38.893,38.893,0,0,0-2.092-3.961.963.963,0,1,1,1.645-1,40.142,40.142,0,0,1,2.215,4.181.96.96,0,0,1-.474,1.275.933.933,0,0,1-.4.069Zm79.087-1.229a.952.952,0,0,1-.586-.212,28.9,28.9,0,0,0-3.722-2.478.963.963,0,0,1,.94-1.68,31.018,31.018,0,0,1,3.969,2.643.963.963,0,0,1-.593,1.722Zm-149.883-.952a.959.959,0,0,1-.84-1.418,41.159,41.159,0,0,1,2.474-4.038.963.963,0,1,1,1.58,1.1,39.194,39.194,0,0,0-2.354,3.853.959.959,0,0,1-.84.5Zm119.321-2.759a.963.963,0,0,1-.385-1.842,29.931,29.931,0,0,1,4.493-1.6.963.963,0,0,1,.509,1.857,28.626,28.626,0,0,0-4.2,1.514.952.952,0,0,1-.393.065Zm22.521-.771a.917.917,0,0,1-.331-.062,29.121,29.121,0,0,0-4.3-1.214.963.963,0,1,1,.385-1.888,30.431,30.431,0,0,1,4.6,1.268.963.963,0,0,1-.335,1.869Zm-13.644-1.649a.965.965,0,0,1-.108-1.927,31.124,31.124,0,0,1,3.445-.193c.428,0,.878,0,1.318.027a.964.964,0,0,1-.081,1.927c-.408-.019-.825-.027-1.233-.027h0a29.029,29.029,0,0,0-3.229.181Zm-62.188-.5a.967.967,0,0,1-.771-.385,38.821,38.821,0,0,0-2.974-3.387.963.963,0,1,1,1.372-1.353,40.219,40.219,0,0,1,3.121,3.553.963.963,0,0,1-.771,1.541Zm-60.743-1.876a.952.952,0,0,1-.636-.243.963.963,0,0,1-.085-1.36,40.908,40.908,0,0,1,3.337-3.356.963.963,0,0,1,1.283,1.437,38.239,38.239,0,0,0-3.175,3.2.983.983,0,0,1-.705.308Zm54.258-4.685a.956.956,0,0,1-.6-.212,38.943,38.943,0,0,0-3.68-2.608.963.963,0,0,1,1.021-1.634,40.879,40.879,0,0,1,3.853,2.736.963.963,0,0,1-.6,1.719Zm-47.392-1.468a.963.963,0,0,1-.555-1.749,40.389,40.389,0,0,1,4.023-2.493.963.963,0,0,1,.917,1.691,38.409,38.409,0,0,0-3.83,2.377.955.955,0,0,1-.528.158Zm39.559-3.421a.987.987,0,0,1-.412-.093,38.064,38.064,0,0,0-4.157-1.684.963.963,0,1,1,.613-1.826,39.634,39.634,0,0,1,4.4,1.765.963.963,0,0,1-.412,1.834Zm-31.452-.971a.963.963,0,0,1-.358-1.857,40.338,40.338,0,0,1,4.493-1.487.963.963,0,1,1,.5,1.861,38.1,38.1,0,0,0-4.277,1.418.947.947,0,0,1-.328.05Zm22.714-1.961a.853.853,0,0,1-.2,0,39.446,39.446,0,0,0-4.427-.694.967.967,0,1,1,.166-1.927,40.624,40.624,0,0,1,4.685.694.97.97,0,1,1-.227,1.926Zm-13.794-.42a.966.966,0,1,1-.135-1.927,40.072,40.072,0,0,1,4.712-.385.964.964,0,0,1,.054,1.927,39.671,39.671,0,0,0-4.493.385.846.846,0,0,1-.123-.015Z" transform="translate(-312.444 -311.338)" fill="#231f20"/>
    <path id="Path_928" data-name="Path 928" d="M13.318,526.331a.963.963,0,0,1-.362-1.857,23.433,23.433,0,0,1,4.624-1.349.964.964,0,0,1,.347,1.9,21.58,21.58,0,0,0-4.238,1.237.937.937,0,0,1-.37.073Zm93.49-.039a.963.963,0,0,1-.944-.771,39.014,39.014,0,0,0-1.125-4.365.963.963,0,1,1,1.834-.586,39.748,39.748,0,0,1,1.2,4.574.963.963,0,0,1-.771,1.133,1,1,0,0,1-.193.015Zm-79.877-1.036a1.062,1.062,0,0,1-.22-.023,21.473,21.473,0,0,0-4.385-.555.964.964,0,0,1,.046-1.927,23.4,23.4,0,0,1,4.774.6.963.963,0,0,1-.216,1.9Zm2.9-1.329a1.05,1.05,0,0,1-.243-.031.963.963,0,0,1-.69-1.175,40.2,40.2,0,0,1,1.464-4.508.963.963,0,1,1,1.792.705,38.655,38.655,0,0,0-1.391,4.288.967.967,0,0,1-.932.721Zm74.159-6.415a.959.959,0,0,1-.875-.563,38.926,38.926,0,0,0-2.111-3.98.963.963,0,1,1,1.645-1,40.139,40.139,0,0,1,2.215,4.181.959.959,0,0,1-.474,1.275A.933.933,0,0,1,103.987,517.512Zm-70.8-2.181a.963.963,0,0,1-.852-1.418,41.6,41.6,0,0,1,2.474-4.038.963.963,0,1,1,1.58,1.1,39.156,39.156,0,0,0-2.354,3.853A.959.959,0,0,1,33.192,515.331ZM99.2,509.652a.967.967,0,0,1-.771-.385,39.388,39.388,0,0,0-2.975-3.387.963.963,0,1,1,1.372-1.352,40.754,40.754,0,0,1,3.121,3.553.963.963,0,0,1-.771,1.541Zm-60.739-1.9a.963.963,0,0,1-.721-1.6,42.193,42.193,0,0,1,3.337-3.356.963.963,0,0,1,1.283,1.437,38.914,38.914,0,0,0-3.179,3.2A.952.952,0,0,1,38.459,507.756Zm54.258-4.685a.956.956,0,0,1-.6-.212,38.959,38.959,0,0,0-3.68-2.608.963.963,0,1,1,1.021-1.634,40.218,40.218,0,0,1,3.853,2.739.963.963,0,0,1-.6,1.715Zm-47.392-1.464a.963.963,0,0,1-.555-1.753,40.784,40.784,0,0,1,4.019-2.493.965.965,0,0,1,.921,1.7,37.688,37.688,0,0,0-3.83,2.374.96.96,0,0,1-.528.177Zm39.559-3.425a.934.934,0,0,1-.412-.092,38.059,38.059,0,0,0-4.184-1.68.963.963,0,1,1,.613-1.826,40.415,40.415,0,0,1,4.4,1.765.963.963,0,0,1-.412,1.834Zm-31.441-.967a.963.963,0,0,1-.358-1.861,40.1,40.1,0,0,1,4.489-1.5.963.963,0,1,1,.5,1.861,38.076,38.076,0,0,0-4.277,1.418A.952.952,0,0,1,53.443,497.214Zm22.7-1.961a.859.859,0,0,1-.2-.023,39.389,39.389,0,0,0-4.462-.659.967.967,0,0,1,.17-1.927,40.455,40.455,0,0,1,4.681.694.963.963,0,0,1-.193,1.907Zm-13.794-.424a.966.966,0,1,1-.135-1.927,40.83,40.83,0,0,1,4.712-.393.964.964,0,0,1,.054,1.927,38.8,38.8,0,0,0-4.493.385Z" transform="translate(-12.371 -304.945)" fill="#231f20"/>
    <path id="Path_929" data-name="Path 929" d="M13.307,583.32a.959.959,0,0,1-.362-1.853,23.437,23.437,0,0,1,4.624-1.349.964.964,0,1,1,.347,1.9,21.568,21.568,0,0,0-4.238,1.237A.931.931,0,0,1,13.307,583.32Zm93.49-.035a.963.963,0,0,1-.944-.771,38.8,38.8,0,0,0-1.125-4.365.963.963,0,1,1,1.834-.586,39.75,39.75,0,0,1,1.2,4.574.963.963,0,0,1-.771,1.133A.994.994,0,0,1,106.8,583.285ZM26.92,582.249a1.071,1.071,0,0,1-.22-.023,21.468,21.468,0,0,0-4.385-.547.964.964,0,0,1,.046-1.927,23.4,23.4,0,0,1,4.774.605.963.963,0,0,1-.216,1.9Zm2.9-1.341a1.05,1.05,0,0,1-.243-.031.963.963,0,0,1-.69-1.175,40.2,40.2,0,0,1,1.464-4.508.963.963,0,1,1,1.792.705,38.651,38.651,0,0,0-1.391,4.288.967.967,0,0,1-.932.721Zm74.159-6.415a.959.959,0,0,1-.875-.562,38.91,38.91,0,0,0-2.111-3.98.963.963,0,1,1,1.645-1,40.129,40.129,0,0,1,2.215,4.181.959.959,0,0,1-.474,1.275.932.932,0,0,1-.4.1Zm-70.8-2.169a.963.963,0,0,1-.852-1.433,41.6,41.6,0,0,1,2.474-4.038.963.963,0,1,1,1.58,1.1,39.169,39.169,0,0,0-2.354,3.853A.959.959,0,0,1,33.181,572.323Zm66.006-5.7a.967.967,0,0,1-.771-.385,38.808,38.808,0,0,0-2.975-3.387.963.963,0,1,1,1.372-1.353,40.747,40.747,0,0,1,3.121,3.553.963.963,0,0,1-.771,1.541Zm-60.739-1.876a.963.963,0,0,1-.721-1.6,42.194,42.194,0,0,1,3.337-3.356.963.963,0,0,1,1.283,1.437,38.918,38.918,0,0,0-3.179,3.2A.952.952,0,0,1,38.448,564.748Zm54.258-4.685a.956.956,0,0,1-.6-.212,38.929,38.929,0,0,0-3.68-2.608.963.963,0,0,1,1.021-1.634,40.2,40.2,0,0,1,3.853,2.739.963.963,0,0,1-.6,1.715Zm-47.365-1.468a.963.963,0,0,1-.555-1.749,40.772,40.772,0,0,1,4.019-2.493.965.965,0,0,1,.921,1.7,37.71,37.71,0,0,0-3.83,2.373A.955.955,0,0,1,45.341,558.595ZM84.9,555.173a.986.986,0,0,1-.412-.092A38.085,38.085,0,0,0,80.3,553.4a.963.963,0,0,1,.613-1.826,40.422,40.422,0,0,1,4.4,1.765.963.963,0,0,1-.412,1.834Zm-31.468-.967a.963.963,0,0,1-.358-1.861,40.074,40.074,0,0,1,4.489-1.491.963.963,0,1,1,.5,1.861,38.07,38.07,0,0,0-4.277,1.418.952.952,0,0,1-.351.073Zm22.7-1.961a.859.859,0,0,1-.2-.023,39.382,39.382,0,0,0-4.462-.659.967.967,0,0,1,.17-1.927,40.5,40.5,0,0,1,4.681.694.968.968,0,0,1-.193,1.927Zm-13.794-.424a.966.966,0,0,1-.135-1.927,40.852,40.852,0,0,1,4.712-.385.964.964,0,1,1,.054,1.927,38.811,38.811,0,0,0-4.493.385Z" transform="translate(-12.36 -339.983)" fill="#231f20"/>
    <path id="Path_930" data-name="Path 930" d="M450.813,354.938a.963.963,0,0,1-.963-.963v-2.312a.963.963,0,1,1,1.927,0v2.312A.963.963,0,0,1,450.813,354.938Z" transform="translate(-281.3 -217.776)" fill="#231f20"/>
    <path id="Path_931" data-name="Path 931" d="M450.813,415.281a.963.963,0,0,1-.963-.963v-4.886a.963.963,0,0,1,1.927,0v4.882a.963.963,0,0,1-.963.967Zm0-9.775a.959.959,0,0,1-.963-.963v-4.87a.963.963,0,1,1,1.927,0v4.886A.959.959,0,0,1,450.813,405.506Zm0-9.771a.963.963,0,0,1-.963-.963v-4.886a.963.963,0,0,1,1.927,0v4.886A.963.963,0,0,1,450.813,395.735Zm0-9.771a.963.963,0,0,1-.963-.963v-4.886a.963.963,0,0,1,1.927,0V385A.963.963,0,0,1,450.813,385.963Zm0-9.771a.963.963,0,0,1-.963-.963v-4.886a.963.963,0,0,1,1.927,0v4.886A.963.963,0,0,1,450.813,376.192Z" transform="translate(-281.3 -229.258)" fill="#231f20"/>
    <path id="Path_932" data-name="Path 932" d="M450.813,500.428a.963.963,0,0,1-.963-.963v-2.312a.963.963,0,1,1,1.927,0v2.312A.963.963,0,0,1,450.813,500.428Z" transform="translate(-281.3 -307.208)" fill="#231f20"/>
    <line id="Line_6" data-name="Line 6" y2="41.035" transform="translate(159.835 122.903)" fill="#fff"/>
    <path id="Path_933" data-name="Path 933" d="M425.693,365.157a.963.963,0,0,1-.963-.963V323.163a.963.963,0,1,1,1.927,0v41.031A.963.963,0,0,1,425.693,365.157Z" transform="translate(-265.859 -200.257)" fill="#231f20"/>
    <path id="Path_934" data-name="Path 934" d="M465.063,439.944a.963.963,0,0,1-.963-.963V384.653a.963.963,0,0,1,1.926,0v54.328A.963.963,0,0,1,465.063,439.944Z" transform="translate(-290.059 -238.054)" fill="#231f20"/>
    <path id="Path_935" data-name="Path 935" d="M336.3,488.4h-.247a14.4,14.4,0,0,1-4.624-.875.965.965,0,0,1,.667-1.811,12.414,12.414,0,0,0,4,.771h.216a.963.963,0,0,1,0,1.927Zm4.6-.3a.966.966,0,0,1-.146-1.927,21.664,21.664,0,0,0,4.265-1.117.964.964,0,1,1,.682,1.8,23.508,23.508,0,0,1-4.651,1.217Zm-13.1-2.836a.971.971,0,0,1-.624-.231,13.651,13.651,0,0,1-3.125-3.83.963.963,0,1,1,1.688-.929,11.628,11.628,0,0,0,2.7,3.291.963.963,0,0,1-.628,1.7Zm21.666-.424a.963.963,0,0,1-.528-1.769,21.188,21.188,0,0,0,3.4-2.8.963.963,0,1,1,1.372,1.353A23.155,23.155,0,0,1,350,484.678a.963.963,0,0,1-.532.158Zm6.481-6.5a.963.963,0,0,1-.8-1.507,29.9,29.9,0,0,0,2.216-3.884.964.964,0,0,1,1.742.828,32.159,32.159,0,0,1-2.362,4.138.971.971,0,0,1-.8.424Zm-32.477-1.009a.959.959,0,0,1-.956-.836,13.563,13.563,0,0,1-.116-1.776,13.839,13.839,0,0,1,.385-3.163.963.963,0,0,1,1.873.447,11.776,11.776,0,0,0-.216,4.238.959.959,0,0,1-.832,1.079.68.68,0,0,1-.139.012Zm25.322-1.649a.959.959,0,0,1-.963-.963,11.76,11.76,0,0,0-.771-4.177.963.963,0,1,1,1.8-.686,13.66,13.66,0,0,1,.9,4.882.959.959,0,0,1-.963.944Zm11.174-5.641a1.047,1.047,0,0,1-.3-.05.967.967,0,0,1-.609-1.221,43.86,43.86,0,0,0,1.2-4.358.963.963,0,1,1,1.88.416,45.727,45.727,0,0,1-1.252,4.554.967.967,0,0,1-.921.659Zm-34.408-1.507a.959.959,0,0,1-.794-1.5,13.774,13.774,0,0,1,3.468-3.522.964.964,0,0,1,1.106,1.58,11.79,11.79,0,0,0-2.986,3.025.959.959,0,0,1-.794.42Zm20.036-1.3a.952.952,0,0,1-.72-.324,11.81,11.81,0,0,0-3.352-2.612.964.964,0,0,1,.89-1.711,13.614,13.614,0,0,1,3.9,3.044.959.959,0,0,1-.717,1.6Zm-12.607-3.88a.963.963,0,0,1-.235-1.9,13.871,13.871,0,0,1,4.932-.32.97.97,0,0,1-.22,1.927,11.99,11.99,0,0,0-4.238.274,1.008,1.008,0,0,1-.254.019Zm29-2.312h-.123a.967.967,0,0,1-.836-1.079c.189-1.48.32-3.005.385-4.527a.964.964,0,0,1,1.927.085c-.069,1.576-.2,3.152-.385,4.685a.963.963,0,0,1-.983.825Z" transform="translate(-202.957 -281.586)" fill="#231f20"/>
    <path id="Path_936" data-name="Path 936" d="M355.878,583.276a5.3,5.3,0,1,1,5.3-5.3A5.3,5.3,0,0,1,355.878,583.276Zm0-8.669a3.371,3.371,0,1,0,3.371,3.371,3.371,3.371,0,0,0-3.371-3.371Z" transform="translate(-220.279 -354.226)" fill="#fffefe"/>
    <path id="Path_937" data-name="Path 937" d="M244.989,398.895a4.335,4.335,0,1,1-4.335-4.335,4.335,4.335,0,0,1,4.335,4.335Z" transform="translate(-150.044 -244.736)" fill="#13a0f0"/>
    <path id="Path_938" data-name="Path 938" d="M515.612,444.69a.963.963,0,1,1,0-1.926h.212a12.519,12.519,0,0,0,4-.771.963.963,0,1,1,.667,1.807,14.4,14.4,0,0,1-4.624.878h-.247Zm-4.6-.3h-.146a23.642,23.642,0,0,1-4.647-1.206.963.963,0,0,1,.67-1.8,21.87,21.87,0,0,0,4.273,1.106.966.966,0,1,1-.15,1.927Zm13.1-2.836a.963.963,0,0,1-.628-1.7,11.684,11.684,0,0,0,2.7-3.29.963.963,0,0,1,1.688.925,13.543,13.543,0,0,1-3.129,3.83A.956.956,0,0,1,524.112,441.55Zm-21.681-.385a.953.953,0,0,1-.52-.154,23.948,23.948,0,0,1-3.761-2.99.963.963,0,0,1,1.341-1.383,21.967,21.967,0,0,0,3.468,2.751.963.963,0,0,1-.52,1.776Zm-6.623-6.373a.971.971,0,0,1-.771-.385,33.27,33.27,0,0,1-2.5-4.057.963.963,0,0,1,1.707-.894,31.589,31.589,0,0,0,2.35,3.822.959.959,0,0,1-.771,1.541Zm32.635-1.179h-.123a.967.967,0,0,1-.832-1.079,11.852,11.852,0,0,0,.1-1.541,11.7,11.7,0,0,0-.32-2.72.964.964,0,0,1,1.877-.443,13.792,13.792,0,0,1,.385,3.163,13.553,13.553,0,0,1-.116,1.772.967.967,0,0,1-.971.855Zm-25.322-1.649a.963.963,0,0,1-.963-.963,13.663,13.663,0,0,1,.89-4.866.963.963,0,1,1,1.8.686,11.762,11.762,0,0,0-.771,4.181.963.963,0,0,1-.956.971ZM491.5,426.627a.959.959,0,0,1-.9-.624,42.369,42.369,0,0,1-1.418-4.52.963.963,0,1,1,1.865-.474,41.2,41.2,0,0,0,1.356,4.315.959.959,0,0,1-.563,1.241.939.939,0,0,1-.339.069Zm34.855-1.811a.948.948,0,0,1-.794-.424,11.915,11.915,0,0,0-2.986-3.025.963.963,0,1,1,1.106-1.576,13.7,13.7,0,0,1,3.468,3.518.959.959,0,0,1-.254,1.337.944.944,0,0,1-.539.177Zm-20.036-1.306a.959.959,0,0,1-.717-1.6,13.636,13.636,0,0,1,3.907-3.032.963.963,0,1,1,.894,1.707,11.7,11.7,0,0,0-3.352,2.616.963.963,0,0,1-.713.32Zm12.607-3.88a1,1,0,0,1-.235-.027,11.9,11.9,0,0,0-4.238-.277.97.97,0,0,1-.22-1.927,13.8,13.8,0,0,1,4.932.32.963.963,0,0,1-.235,1.9Zm-29.449-2a.963.963,0,0,1-.963-.963v-4.624a.963.963,0,0,1,1.927,0v4.624a.959.959,0,0,1-.944.971Z" transform="translate(-305.064 -254.891)" fill="#231f20"/>
    <path id="Path_939" data-name="Path 939" d="M555.794,453.536a5.3,5.3,0,1,1,5.3-5.3A5.3,5.3,0,0,1,555.794,453.536Zm0-8.669a3.371,3.371,0,1,0,3.371,3.371A3.371,3.371,0,0,0,555.794,444.867Z" transform="translate(-343.169 -274.475)" fill="#231f20"/>
    <path id="Path_940" data-name="Path 940" d="M187.908,402.656a5.3,5.3,0,1,1,5.3-5.3A5.3,5.3,0,0,1,187.908,402.656Zm0-8.669a3.371,3.371,0,1,0,3.371,3.371A3.371,3.371,0,0,0,187.908,393.987Z" transform="translate(-117.028 -243.199)" fill="#231f20"/>
    <path id="Path_941" data-name="Path 941" d="M774.542,513.406a5.3,5.3,0,1,1,5.294-5.3A5.3,5.3,0,0,1,774.542,513.406Zm0-8.669a3.371,3.371,0,1,0,3.368,3.371A3.371,3.371,0,0,0,774.542,504.737Z" transform="translate(-477.628 -311.277)" fill="#231f20"/>
    <path id="Path_942" data-name="Path 942" d="M468.272,338.8a5.3,5.3,0,1,1,5.294-5.279A5.3,5.3,0,0,1,468.272,338.8Zm0-8.669a3.371,3.371,0,1,0,3.368,3.371A3.371,3.371,0,0,0,468.272,330.126Z" transform="translate(-289.364 -203.945)" fill="#231f20"/>
    <path id="Path_943" data-name="Path 943" d="M308.32,163.52a4.72,4.72,0,1,1,4.72-4.72A4.72,4.72,0,0,1,308.32,163.52Zm0-7.513a2.793,2.793,0,1,0,2.793,2.793A2.793,2.793,0,0,0,308.32,156.007Z" transform="translate(-191.401 -96.914)" fill="#231f20"/>
    <path id="Path_944" data-name="Path 944" d="M661.673,65.007a3.757,3.757,0,1,1-3.757-3.757A3.757,3.757,0,0,1,661.673,65.007Z" transform="translate(-406.889 -39.852)" fill="#13a0f0"/>
    <path id="Path_945" data-name="Path 945" d="M178.623,444.007a3.757,3.757,0,1,1-3.757-3.757A3.757,3.757,0,0,1,178.623,444.007Z" transform="translate(-109.959 -272.822)" fill="#13a0f0"/>
    <path id="Path_946" data-name="Path 946" d="M615.853,399.817a3.757,3.757,0,1,1-3.757-3.757A3.757,3.757,0,0,1,615.853,399.817Z" transform="translate(-378.723 -245.658)" fill="#13a0f0"/>
    <path id="Path_947" data-name="Path 947" d="M735.833,467.887a3.757,3.757,0,1,1-3.757-3.757A3.757,3.757,0,0,1,735.833,467.887Z" transform="translate(-452.474 -287.501)" fill="#13a0f0"/>
    <path id="Path_948" data-name="Path 948" d="M314.313,293.6a.963.963,0,0,1-.963-.963v-4.624a.963.963,0,0,1,1.927,0v4.624A.963.963,0,0,1,314.313,293.6Zm0-9.247a.963.963,0,0,1-.963-.963v-4.624a.963.963,0,0,1,1.927,0v4.624A.963.963,0,0,1,314.313,284.356Zm0-9.247a.963.963,0,0,1-.963-.963v-4.624a.963.963,0,0,1,1.927,0v4.624A.963.963,0,0,1,314.313,275.108Zm0-9.247a.963.963,0,0,1-.963-.963v-4.624a.963.963,0,0,1,1.927,0V264.9A.963.963,0,0,1,314.313,265.861Zm0-9.247a.963.963,0,0,1-.963-.963v-4.624a.963.963,0,0,1,1.927,0v4.624A.963.963,0,0,1,314.313,256.614Zm0-9.247a.963.963,0,0,1-.963-.963V241.78a.963.963,0,0,1,1.927,0V246.4A.963.963,0,0,1,314.313,247.367Zm0-9.247a.963.963,0,0,1-.963-.963v-4.624a.963.963,0,1,1,1.927,0v4.624A.963.963,0,0,1,314.313,238.119Zm0-9.247a.963.963,0,0,1-.963-.963v-4.624a.963.963,0,0,1,1.927,0v4.624A.963.963,0,0,1,314.313,228.872Zm0-9.247a.963.963,0,0,1-.963-.963v-4.624a.963.963,0,0,1,1.927,0v4.624A.963.963,0,0,1,314.313,219.625Zm0-9.247a.963.963,0,0,1-.963-.963v-4.624a.963.963,0,0,1,1.927,0v4.624A.963.963,0,0,1,314.313,210.377Zm0-9.247a.963.963,0,0,1-.963-.963v-4.624a.963.963,0,1,1,1.927,0v4.624a.963.963,0,0,1-.963.963Z" transform="translate(-197.394 -121.809)" fill="#231f20"/>
    <path id="Path_949" data-name="Path 949" d="M662.373,256.169a.963.963,0,0,1-.963-.963V106.343a.963.963,0,0,1,1.927,0V255.205A.963.963,0,0,1,662.373,256.169Z" transform="translate(-411.345 -66.978)" fill="#231f20"/>
    <path id="Path_950" data-name="Path 950" d="M246.033,463.51a.963.963,0,0,1-.963-.963V429.653a.963.963,0,0,1,1.927,0v32.893A.963.963,0,0,1,246.033,463.51Z" transform="translate(-155.422 -265.716)" fill="#231f20"/>
    <path id="Path_951" data-name="Path 951" d="M529.553,297.709a.963.963,0,0,1-.963-.963V263.463a.963.963,0,1,1,1.927,0v33.279a.963.963,0,0,1-.963.967Z" transform="translate(-329.701 -163.559)" fill="#231f20"/>
    <path id="Path_952" data-name="Path 952" d="M351.553,261.265a.963.963,0,0,1-.963-.963V242.963a.963.963,0,1,1,1.927,0V260.3A.963.963,0,0,1,351.553,261.265Z" transform="translate(-220.285 -150.958)" fill="#231f20"/>
    <path id="Path_953" data-name="Path 953" d="M540.213,336.265a.959.959,0,0,1-.963-.963V317.963a.963.963,0,1,1,1.927,0V335.3A.963.963,0,0,1,540.213,336.265Z" transform="translate(-336.254 -197.06)" fill="#231f20"/>
    <path id="Path_954" data-name="Path 954" d="M287.252,572.069a1.089,1.089,0,0,1-.27-.039.963.963,0,0,1-.655-1.2,10.657,10.657,0,0,1,2.189-4.053.964.964,0,0,1,1.453,1.268,8.751,8.751,0,0,0-1.792,3.329A.967.967,0,0,1,287.252,572.069Zm5.71-6.377a.963.963,0,0,1-.385-1.842,17.794,17.794,0,0,1,4.693-1.314.964.964,0,0,1,.281,1.907,15.714,15.714,0,0,0-4.188,1.156,1.01,1.01,0,0,1-.4.093Zm59.911-1.275a.963.963,0,0,1-.963-.963,23.409,23.409,0,0,0-.419-4.408.965.965,0,1,1,1.9-.366,25.628,25.628,0,0,1,.451,4.774.963.963,0,0,1-.963.963Zm-48.548,0a.946.946,0,0,1-.146,0,21.771,21.771,0,0,0-2.2-.185.964.964,0,1,1,.073-1.926c.512,0,.963.05,1.329.085,0-.443.05-.882.089-1.318a.967.967,0,0,1,1.926.181c-.069.728-.1,1.472-.1,2.212a.959.959,0,0,1-.963.963Zm.979-6.835a.959.959,0,0,1-.925-1.233,24.865,24.865,0,0,1,1.784-4.458.963.963,0,0,1,1.711.886,23.068,23.068,0,0,0-1.661,4.111.967.967,0,0,1-.909.694Zm45.851-2.188a.96.96,0,0,1-.894-.6,23.229,23.229,0,0,0-2.05-3.934.965.965,0,0,1,1.622-1.044,25.238,25.238,0,0,1,2.2,4.265.963.963,0,0,1-.894,1.322Zm-41.613-5.976a.967.967,0,0,1-.771-1.541,25.4,25.4,0,0,1,3.31-3.468.963.963,0,1,1,1.264,1.453,23.62,23.62,0,0,0-3.059,3.21.967.967,0,0,1-.771.347Zm36.65-1.749a.956.956,0,0,1-.7-.3,23.559,23.559,0,0,0-3.348-2.905.963.963,0,1,1,1.117-1.568,25.355,25.355,0,0,1,3.626,3.144.967.967,0,0,1-.7,1.63Zm-29.707-4.273a.963.963,0,0,1-.482-1.8,25.365,25.365,0,0,1,4.366-2,.964.964,0,1,1,.628,1.822,23.46,23.46,0,0,0-4.03,1.842.945.945,0,0,1-.509.131Zm22.224-1.063a.934.934,0,0,1-.385-.089,23.31,23.31,0,0,0-4.188-1.449.963.963,0,1,1,.455-1.872,25.269,25.269,0,0,1,4.535,1.572.963.963,0,0,1-.385,1.838Zm-13.54-1.927a.966.966,0,0,1-.135-1.927,25.566,25.566,0,0,1,4.789-.223.964.964,0,0,1-.089,1.927,23.691,23.691,0,0,0-4.431.208Z" transform="translate(-180.758 -333.047)" fill="#231f20"/>
    <path id="Path_955" data-name="Path 955" d="M600.33,596.575a16.915,16.915,0,1,1,33.83,0" transform="translate(-373.799 -358.517)" fill="#13a0f0"/>
    <path id="Path_956" data-name="Path 956" d="M432.3,22.008a.963.963,0,0,1,.751.362V13.62L420.19,38.314h11.147V22.971A.963.963,0,0,1,432.3,22.008Z" transform="translate(-263.068 -10.574)" fill="none"/>
    <path id="Path_957" data-name="Path 957" d="M431.89,82.71a.952.952,0,0,1-1.156,0H418.57v71.47h9.452V114.108a.963.963,0,0,1,.963-.963h5.2a.963.963,0,1,1,0,1.927v29.013a.963.963,0,0,1,.963.963v9.132h10.4V82.71Zm.143,28.489h0a.948.948,0,0,1-.281.682.963.963,0,0,1-.682.285,10.5,10.5,0,1,1,0-21,.963.963,0,0,1,.963.963v.019a9.532,9.532,0,0,1,0,19.03Z" transform="translate(-262.072 -53.043)" fill="#fff"/>
    <path id="Path_958" data-name="Path 958" d="M438.291,107.26a.963.963,0,0,1-.963.944,8.573,8.573,0,0,0-.963,17.092v-8.519a.959.959,0,0,1,.959-.963h0a.963.963,0,0,1,.963.959v9.517a9.532,9.532,0,0,0,0-19.03Z" transform="translate(-268.331 -68.134)" fill="#13a0f0"/>
    <rect id="Rectangle_328" data-name="Rectangle 328" width="3.888" height="12.522" transform="translate(173.077 103.063)" fill="#fff"/>
    <rect id="Rectangle_329" data-name="Rectangle 329" width="2.951" height="12.522" transform="translate(162.998 103.063)" fill="#fff"/>
    <path id="Path_959" data-name="Path 959" d="M396.774,192.936a.963.963,0,1,1-1.927,0V178.811l-5.518,8.673v40.041l9.34-17.246V172.8l-1.926,3.009a1.016,1.016,0,0,1,0,.189Z" transform="translate(-244.098 -108.421)" fill="#13a0f0"/>
    <path id="Path_960" data-name="Path 960" d="M496.353,194.354a.963.963,0,0,1-.963-.963v-16.68l-1.83-3.171v37.213l8.292,16.884V187.92l-.936-1.63v14.572a.963.963,0,0,1-1.927,0v-17.9l-1.672-2.9v13.339A.963.963,0,0,1,496.353,194.354Z" transform="translate(-308.168 -108.876)" fill="#fff"/>
    <path id="Path_961" data-name="Path 961" d="M452.338,166.7H448.1v59.915h3.275V196.657a.963.963,0,0,1,.963-.963h0Z" transform="translate(-280.224 -104.672)" fill="#fff"/>
    <path id="Path_962" data-name="Path 962" d="M453.782,22.971V38.314h12.646L453.57,13.62v8.75a.967.967,0,0,1,.212.6Z" transform="translate(-283.587 -10.574)" fill="#13a0f0"/>
    <path id="Path_963" data-name="Path 963" d="M436.539,84.014,426.447,66.521V34.491a.532.532,0,0,0,0-.077.971.971,0,0,0-.166-.543L411.891,6.229a.959.959,0,0,0-1.707,0L395.735,33.97a.221.221,0,0,1,0,.027.772.772,0,0,0-.065.181.122.122,0,0,0,0,.035,1.054,1.054,0,0,0-.023.189V66.5L384.53,83.983a.971.971,0,0,0-.15.516v44.117a.963.963,0,0,0,.728.932.982.982,0,0,0,.235.031.959.959,0,0,0,.848-.5l10.993-20.3h4.963v13.486a.963.963,0,0,0,.963.963h3.9v5.394a.963.963,0,0,0,.963.963h5.2a.963.963,0,0,0,.963-.963v-5.394h4.851a.963.963,0,0,0,.963-.963V108.773h4.94l9.952,20.267a.967.967,0,0,0,.863.539.856.856,0,0,0,.22-.027.959.959,0,0,0,.744-.936V84.5a.959.959,0,0,0-.127-.482Zm-40.912,23.554-9.34,17.246V84.773L391.8,76.1V90.225a.963.963,0,0,0,1.927,0V73.271a1.011,1.011,0,0,0,0-.189l1.927-3.009ZM411.039,8.756,423.9,33.45H411.251V18.108a.963.963,0,1,0-1.927,0V33.45H398.178ZM407.005,121.3h-2.951V108.773h2.951Zm11.016,0h-3.888V108.773h3.888Zm-3.888-14.449V97.7a.963.963,0,0,0-.963-.963h0a.963.963,0,0,0-.963.963v29.957h-3.275V67.738h4.238a.963.963,0,1,0,0-1.927h-5.2a.963.963,0,0,0-.963.963v40.072h-9.452V35.377h12.153a.952.952,0,0,0,1.156,0h13.647v71.47h-10.4Zm20.606,17.624-8.292-16.884V70.374l1.83,3.171v16.68a.963.963,0,1,0,1.927,0V76.886l1.672,2.9V97.7a.963.963,0,0,0,1.927,0V83.124l.936,1.63Z" transform="translate(-241.056 -5.71)"/>
    <path id="Path_964" data-name="Path 964" d="M362.793,253.07a.963.963,0,0,0-.963.963v33.3a.963.963,0,1,0,1.926,0v-33.3a.959.959,0,0,0-.963-.963Z" transform="translate(-227.194 -157.763)"/>
    <path id="Path_965" data-name="Path 965" d="M434.25,106.637a.963.963,0,0,0,.963-.944v-.019a.963.963,0,0,0-.963-.963,10.5,10.5,0,1,0,0,21,.963.963,0,0,0,.682-.285.948.948,0,0,0,.281-.682h0v-9.517a.963.963,0,0,0-.963-.959h0a.959.959,0,0,0-.959.963v8.519a8.573,8.573,0,0,1,.963-17.092Z" transform="translate(-265.256 -66.566)"/>
    <path id="Path_966" data-name="Path 966" d="M833.223,477.146a.963.963,0,0,1-.963-.963v-.293a.963.963,0,0,1,1.927,0v.312A.963.963,0,0,1,833.223,477.146Zm0-4.917a.963.963,0,0,1-.963-.963v-4.624a.963.963,0,0,1,1.927,0v4.624A.963.963,0,0,1,833.223,472.229Zm0-9.247a.963.963,0,0,1-.963-.963V457.4a.963.963,0,0,1,1.927,0v4.624A.963.963,0,0,1,833.223,462.982Zm0-9.247a.963.963,0,0,1-.963-.963v-4.624a.963.963,0,0,1,1.927,0v4.624A.963.963,0,0,1,833.223,453.735Zm0-9.247a.963.963,0,0,1-.963-.963V438.9a.963.963,0,0,1,1.927,0v4.624A.963.963,0,0,1,833.223,444.487Zm0-9.247a.963.963,0,0,1-.963-.963v-4.624a.963.963,0,0,1,1.927,0v4.624A.963.963,0,0,1,833.223,435.24Z" transform="translate(-516.366 -265.716)" fill="#231f20"/>
  </g>
</svg>
