<svg xmlns="http://www.w3.org/2000/svg" width="30.641" height="26.724" viewBox="0 0 30.641 26.724">
  <g id="iconfinder__google_save_to_drive_2006460" transform="translate(-0.214 -1.636)">
    <g id="Group_171" data-name="Group 171" transform="translate(11.33 1.961)">
      <g id="Group_168" data-name="Group 168" transform="translate(0 0.051)">
        <path id="Path_1462" data-name="Path 1462" d="M20.253,22.057a.677.677,0,0,1-.521-.26L8.923,2.912a.591.591,0,0,1,0-.651c.13-.26.26-.26.521-.26h7.033a.615.615,0,0,1,.651.651.7.7,0,0,1-.651.651H10.616L20.774,21.015a.687.687,0,0,1-.26.912A.455.455,0,0,1,20.253,22.057Z" transform="translate(-8.825 -2)" stroke="#000" stroke-width="0.6"/>
      </g>
      <g id="Group_169" data-name="Group 169" transform="translate(10.777 18.805)">
        <path id="Path_1463" data-name="Path 1463" d="M24.784,17.7H17.751a.651.651,0,0,1,0-1.3h7.033a.615.615,0,0,1,.651.651A.7.7,0,0,1,24.784,17.7Z" transform="translate(-17.1 -16.4)" stroke="#000" stroke-width="0.6"/>
      </g>
      <g id="Group_170" data-name="Group 170" transform="translate(6.922)">
        <path id="Path_1464" data-name="Path 1464" d="M25.679,22.068a.677.677,0,0,1-.521-.26L14.218,2.924a.687.687,0,0,1,.26-.912.747.747,0,0,1,.912.26L26.2,21.027a.687.687,0,0,1-.26.912A.455.455,0,0,1,25.679,22.068Z" transform="translate(-14.14 -1.961)" stroke="#000" stroke-width="0.6"/>
      </g>
    </g>
    <g id="Group_175" data-name="Group 175" transform="translate(0.54 1.961)">
      <g id="Group_172" data-name="Group 172" transform="translate(0 6.121)">
        <path id="Path_1465" data-name="Path 1465" d="M4.655,26.638a.677.677,0,0,1-.521-.26L.618,20.257a.687.687,0,0,1,.26-.912.687.687,0,0,1,.912.26l3,5.079L15.074,6.972a.67.67,0,0,1,1.172.651L5.176,26.378A.677.677,0,0,1,4.655,26.638Z" transform="translate(-0.54 -6.661)" stroke="#000" stroke-width="0.6"/>
      </g>
      <g id="Group_173" data-name="Group 173" transform="translate(10.752 0.039)">
        <path id="Path_1466" data-name="Path 1466" d="M12.969,9.3a.677.677,0,0,1-.521-.26L8.931,2.914c-.26-.26-.13-.651.26-.781a.491.491,0,0,1,.781.13L13.49,8.384a.687.687,0,0,1-.26.912Z" transform="translate(-8.796 -1.991)" stroke="#000" stroke-width="0.6"/>
      </g>
      <g id="Group_174" data-name="Group 174" transform="translate(0.027)">
        <path id="Path_1467" data-name="Path 1467" d="M1.133,22.068c-.13,0-.26,0-.26-.13a.747.747,0,0,1-.26-.912L11.422,2.272a.747.747,0,0,1,.912-.26.747.747,0,0,1,.26.912L1.654,21.678C1.524,21.938,1.393,22.068,1.133,22.068Z" transform="translate(-0.561 -1.961)" stroke="#000" stroke-width="0.6"/>
      </g>
    </g>
    <g id="Group_179" data-name="Group 179" transform="translate(4.004 20.636)">
      <g id="Group_176" data-name="Group 176" transform="translate(3.647)">
        <path id="Path_1468" data-name="Path 1468" d="M24.624,23.724c-.13,0-.26,0-.26-.13a.747.747,0,0,1-.26-.912l3-5.079H6.651a.651.651,0,0,1,0-1.3H28.271a.677.677,0,0,1,.521.26.581.581,0,0,1,0,.651l-3.516,6.121A.716.716,0,0,1,24.624,23.724Z" transform="translate(-6 -16.3)" stroke="#000" stroke-width="0.6"/>
      </g>
      <g id="Group_177" data-name="Group 177" transform="translate(0.079 0.079)">
        <path id="Path_1469" data-name="Path 1469" d="M3.833,23.705c-.13,0-.26,0-.26-.13a.747.747,0,0,1-.26-.912l3.516-5.991a.747.747,0,0,1,.912-.26.747.747,0,0,1,.26.912L4.484,23.445A1,1,0,0,1,3.833,23.705Z" transform="translate(-3.261 -16.361)" stroke="#000" stroke-width="0.6"/>
      </g>
      <g id="Group_178" data-name="Group 178" transform="translate(0 6.121)">
        <path id="Path_1470" data-name="Path 1470" d="M25.471,22.3H3.851a.651.651,0,1,1,0-1.3H25.471a.651.651,0,1,1,0,1.3Z" transform="translate(-3.2 -21)" stroke="#000" stroke-width="0.6"/>
      </g>
    </g>
  </g>
</svg>
