<svg xmlns="http://www.w3.org/2000/svg" width="56.668" height="58.672" viewBox="0 0 56.668 58.672">
  <g id="noun_Great_Price_843326" data-name="noun_Great Price_843326" transform="translate(-11.983 -1)">
    <path id="Path_2975" data-name="Path 2975" d="M12.878,39.258a7.32,7.32,0,0,0,4.833,4.781A3.712,3.712,0,0,1,20.3,47.6a7.342,7.342,0,0,0,2.131,5.286,7.506,7.506,0,0,0,7.639,1.819A3.749,3.749,0,0,1,34.3,56.066a7.424,7.424,0,0,0,12.079,0,3.756,3.756,0,0,1,4.194-1.359,7.506,7.506,0,0,0,7.639-1.819A7.342,7.342,0,0,0,60.347,47.6a3.712,3.712,0,0,1,2.591-3.563A7.424,7.424,0,0,0,66.65,32.547a3.712,3.712,0,0,1,0-4.41,7.424,7.424,0,0,0-3.712-11.492,3.712,3.712,0,0,1-2.591-3.571A7.342,7.342,0,0,0,58.224,7.81a7.506,7.506,0,0,0-7.639-1.826A3.749,3.749,0,0,1,46.39,4.618,7.424,7.424,0,0,0,40.347,1.5,7.32,7.32,0,0,0,34.3,4.618a3.756,3.756,0,0,1-4.195,1.366A7.506,7.506,0,0,0,22.47,7.81,7.342,7.342,0,0,0,20.339,13.1a3.712,3.712,0,0,1-2.591,3.571,7.424,7.424,0,0,0-3.712,11.492,3.712,3.712,0,0,1,0,4.41,7.32,7.32,0,0,0-1.158,6.689Zm4.083-13.363a3.712,3.712,0,0,1,1.863-5.731,7.357,7.357,0,0,0,5.2-7.149,3.653,3.653,0,0,1,1.062-2.628A3.712,3.712,0,0,1,28.9,9.473,7.425,7.425,0,0,0,37.31,6.741a3.712,3.712,0,0,1,6.028,0A7.424,7.424,0,0,0,51.75,9.473a3.712,3.712,0,0,1,3.816.913,3.653,3.653,0,0,1,1.076,2.621,7.357,7.357,0,0,0,5.2,7.149A3.712,3.712,0,0,1,63.7,25.887a7.357,7.357,0,0,0,0,8.842,3.712,3.712,0,0,1-1.863,5.746,7.357,7.357,0,0,0-5.2,7.149,3.653,3.653,0,0,1-1.062,2.628,3.712,3.712,0,0,1-3.816.913A7.424,7.424,0,0,0,43.353,53.9a3.712,3.712,0,0,1-6.028,0,7.424,7.424,0,0,0-8.411-2.732,3.712,3.712,0,0,1-3.816-.913,3.653,3.653,0,0,1-1.062-2.628,7.357,7.357,0,0,0-5.2-7.149,3.712,3.712,0,0,1-1.863-5.731,7.365,7.365,0,0,0,.015-8.82Zm15.961-.609a6.882,6.882,0,0,1,5.583-6.763V17.038a1.856,1.856,0,1,1,3.712,0v1.544a7.424,7.424,0,0,1,4.4,3.177A1.856,1.856,0,1,1,43.5,23.772a3.712,3.712,0,0,0-3.155-1.752c-1.8,0-3.712,1.024-3.712,3.267,0,.586,0,2.368,4.143,3.311h.067c6.036,1.425,6.926,4.944,6.926,6.927a6.882,6.882,0,0,1-5.583,6.763v1.485a1.856,1.856,0,0,1-3.712,0V42.213A7.424,7.424,0,0,1,33.465,37.9a1.857,1.857,0,1,1,3.422-1.44,3.712,3.712,0,0,0,3.46,2.331c1.8,0,3.712-1.025,3.712-3.267,0-.586,0-2.361-4.143-3.311h-.067C33.814,30.824,32.923,27.261,32.923,25.286Z" transform="translate(0 0)" stroke="#fff" stroke-width="1"/>
  </g>
</svg>
