<svg id="noun_notification_1374096" xmlns="http://www.w3.org/2000/svg" width="27.771" height="29.837" viewBox="0 0 27.771 29.837">
  <g id="Group" transform="translate(0 0)">
    <path id="Compound_Path" data-name="Compound Path" d="M40.771,30.355a2.627,2.627,0,0,0-2.627-2.627h-.15V21.052a11.111,11.111,0,1,0-22.222,0l0,6.676h-.146A2.627,2.627,0,0,0,13,30.355v2.462a2.627,2.627,0,0,0,2.627,2.627h6.8a4.462,4.462,0,0,0,8.92,0h6.8a2.627,2.627,0,0,0,2.627-2.627Zm-22.742-9.3a8.859,8.859,0,1,1,17.719,0l0,6.676H18.029Zm8.857,16.531a2.214,2.214,0,0,1-2.21-2.143H29.1A2.214,2.214,0,0,1,26.885,37.583Zm11.634-4.77a.375.375,0,0,1-.375.375H15.627a.375.375,0,0,1-.375-.375V30.355a.375.375,0,0,1,.375-.375H38.144a.375.375,0,0,1,.375.375Z" transform="translate(-13 -9.94)"/>
  </g>
</svg>
