<svg xmlns="http://www.w3.org/2000/svg" width="58.4" height="57.21" viewBox="0 0 58.4 57.21">
  <g id="noun_Video_Conference_2801930" data-name="noun_Video Conference_2801930" transform="translate(-7.8 -14.785)">
    <path id="Path_475" data-name="Path 475" d="M62.375,63.336h-8.8l-1.59-4.772a3.622,3.622,0,0,0-3.439-2.478H41.833V50.579a18.125,18.125,0,1,0-9.667,0v5.508H25.45a3.622,3.622,0,0,0-3.439,2.478l-1.59,4.772h-8.8A3.629,3.629,0,0,0,8,66.961v2.417a2.419,2.419,0,0,0,2.417,2.417H63.583A2.419,2.419,0,0,0,66,69.378V66.961a3.629,3.629,0,0,0-3.625-3.625ZM37,17.42a15.719,15.719,0,0,1,15.647,14.5H47.8a10.871,10.871,0,0,0-21.607,0H21.353A15.719,15.719,0,0,1,37,17.42Zm8.458,15.708A8.458,8.458,0,1,1,37,24.67a8.458,8.458,0,0,1,8.458,8.458ZM21.353,34.336H26.2a10.871,10.871,0,0,0,21.607,0h4.843a15.693,15.693,0,0,1-31.294,0Zm13.23,16.736a16.279,16.279,0,0,0,4.833,0v5.014H34.583ZM24.3,59.329A1.206,1.206,0,0,1,25.45,58.5h23.1a1.206,1.206,0,0,1,1.146.826l1.336,4.007H22.968Zm39.28,10.049H10.417V66.961a1.21,1.21,0,0,1,1.208-1.208h50.75a1.21,1.21,0,0,1,1.208,1.208Z" transform="translate(0 0)" fill="#fff" stroke="#fff" stroke-width="0.4"/>
  </g>
</svg>
