<svg xmlns="http://www.w3.org/2000/svg" width="76" height="76" viewBox="0 0 76 76">
  <g id="Group_387" data-name="Group 387" transform="translate(-1436 -2346)">
    <rect id="Image_77" data-name="Image 77" width="76" height="76" rx="38" transform="translate(1436 2346)" fill="#13a0f0"/>
    <g id="noun_finance_2261767" transform="translate(1439.007 2352.758)">
      <path id="Path_3584" data-name="Path 3584" d="M20.485,83.546a1.013,1.013,0,0,1,1.01-1.01H24.5a1.013,1.013,0,0,1,1.01,1.01V98.213a1.013,1.013,0,0,1-1.01,1.01H21.5a1.013,1.013,0,0,1-1.01-1.01Z" transform="translate(-7.574 -59.279)" fill="#fff"/>
      <path id="Path_3585" data-name="Path 3585" d="M162.608,83.546a1.013,1.013,0,0,1,1.01-1.01h3.008a1.013,1.013,0,0,1,1.01,1.01v4.331a1.013,1.013,0,0,1-1.01,1.01h-3.008a1.013,1.013,0,0,1-1.01-1.01Z" transform="translate(-120.974 -59.279)" fill="#fff"/>
      <path id="Path_3586" data-name="Path 3586" d="M114.495,83.546a1.013,1.013,0,0,1,1.01-1.01h3.009a1.013,1.013,0,0,1,1.01,1.01v4.331a1.013,1.013,0,0,1-1.01,1.01h-3.009a1.013,1.013,0,0,1-1.01-1.01Z" transform="translate(-82.584 -59.279)" fill="#fff"/>
      <path id="Path_3587" data-name="Path 3587" d="M66.385,83.546a1.013,1.013,0,0,1,1.01-1.01H70.4a1.013,1.013,0,0,1,1.01,1.01V98.213a1.013,1.013,0,0,1-1.01,1.01H67.4a1.013,1.013,0,0,1-1.01-1.01Z" transform="translate(-44.197 -59.279)" fill="#fff"/>
      <path id="Path_3588" data-name="Path 3588" d="M11,183.989a1.013,1.013,0,0,1,1.01-1.01H26.251a1.013,1.013,0,0,1,1.01,1.01v3.326a1.013,1.013,0,0,1-1.01,1.01H12.01a1.013,1.013,0,0,1-1.01-1.01Z" transform="translate(-0.005 -139.423)" fill="#fff"/>
      <path id="Path_3589" data-name="Path 3589" d="M33.706,9.081a6.765,6.765,0,0,0-1.8-.839l-4.391.027a6.761,6.761,0,0,0-1.793.861L11.282,19.548c-.451.325-.365.592.191.592l37,.037c.556,0,.639-.261.184-.58Z" transform="translate(0)" fill="#fff"/>
      <path id="Path_3590" data-name="Path 3590" d="M103.4,132.951h28.365v-1.773a3.013,3.013,0,0,0-3-3l-22.358.007a3.013,3.013,0,0,0-3,3m28.367,6.514H103.4l0,9.708a3.012,3.012,0,0,0,3,3l22.357-.007a3.012,3.012,0,0,0,3-3" transform="translate(-73.731 -95.696)" fill="#fff"/>
    </g>
  </g>
</svg>
