<svg xmlns="http://www.w3.org/2000/svg" width="20" height="21.667" viewBox="0 0 20 21.667">
  <g id="noun_User_3244730" transform="translate(-4 -3)">
    <g id="Group_38" data-name="Group 38" transform="translate(4 3)">
      <path id="Path_362" data-name="Path 362" d="M15,3a5,5,0,1,0,5,5A5.013,5.013,0,0,0,15,3Zm0,1.667A3.333,3.333,0,1,1,11.667,8,3.321,3.321,0,0,1,15,4.667Z" transform="translate(-5 -3)" fill="#a3a6a8"/>
      <path id="Path_363" data-name="Path 363" d="M11.5,17A7.5,7.5,0,0,0,4,24.5v1.667A.833.833,0,0,0,4.833,27H23.167A.833.833,0,0,0,24,26.167V24.5A7.5,7.5,0,0,0,16.5,17Zm0,1.667h5A5.8,5.8,0,0,1,22.333,24.5v.833H5.667V24.5A5.8,5.8,0,0,1,11.5,18.667Z" transform="translate(-4 -5.333)" fill="#a3a6a8"/>
    </g>
  </g>
</svg>
