<svg xmlns="http://www.w3.org/2000/svg" width="55" height="55" viewBox="0 0 55 55">
  <g id="Group_384" data-name="Group 384" transform="translate(-1840 -1524)">
    <circle id="Ellipse_272" data-name="Ellipse 272" cx="27.5" cy="27.5" r="27.5" transform="translate(1840 1524)" fill="#13a0f0"/>
    <g id="noun_feedback_3039488" transform="translate(1843 1527)">
      <g id="Group_377" data-name="Group 377" transform="translate(8 8)">
        <path id="Path_3598" data-name="Path 3598" d="M16,8H39.022a2.235,2.235,0,0,1,2.228,2.228V27.281A2.235,2.235,0,0,1,39.237,29.5a1.037,1.037,0,0,0-.939,1.034v3.414a1.039,1.039,0,0,1-1.833.67l-4-4.739a1.007,1.007,0,0,0-.794-.369h-.633a.52.52,0,0,1-.52-.52V25.346a3.672,3.672,0,0,0-3.665-3.665H14.293a.52.52,0,0,1-.519-.52V10.228A2.234,2.234,0,0,1,16,8ZM10.213,23.134H26.854a2.219,2.219,0,0,1,2.213,2.212v9.018a2.22,2.22,0,0,1-2.213,2.213H17.017a.862.862,0,0,0-.713.284l-3.138,4a.979.979,0,0,1-1.2.3,1.02,1.02,0,0,1-.628-.954V37.616A1.041,1.041,0,0,0,10.3,36.577h-.084A2.219,2.219,0,0,1,8,34.364V25.346a2.219,2.219,0,0,1,2.213-2.212ZM12.8,27.822a1.818,1.818,0,1,1-1.818,1.818A1.818,1.818,0,0,1,12.8,27.822Zm5.735,0a1.818,1.818,0,1,1-1.818,1.818A1.818,1.818,0,0,1,18.534,27.822Zm5.735,0a1.818,1.818,0,1,1-1.818,1.818A1.818,1.818,0,0,1,24.268,27.822ZM19.2,13.3H35.826a.65.65,0,0,1,.648.648v.694a.65.65,0,0,1-.648.648H19.2a.65.65,0,0,1-.648-.648v-.694A.65.65,0,0,1,19.2,13.3Zm0,4.461H31.185a.65.65,0,0,1,.647.648V19.1a.649.649,0,0,1-.647.647H19.2a.65.65,0,0,1-.648-.647v-.694a.65.65,0,0,1,.648-.648Z" transform="translate(-8 -8)" fill="#fff" fill-rule="evenodd"/>
      </g>
    </g>
  </g>
</svg>
