<svg xmlns="http://www.w3.org/2000/svg" width="20" height="20" viewBox="0 0 20 20">
  <g id="noun_Globe_1737942" transform="translate(-18 -18)">
    <g id="Group_80" data-name="Group 80" transform="translate(18 18)">
      <path id="Path_634" data-name="Path 634" d="M28,970.362a10,10,0,0,0-.3,19.99c.1.01.2.01.3.01s.2,0,.3-.01a10,10,0,0,0-.3-19.99Zm-.625,1.367v3.32H24.807A10.038,10.038,0,0,1,25.246,974,4.316,4.316,0,0,1,27.375,971.729Zm1.25,0A4.316,4.316,0,0,1,30.754,974a10.038,10.038,0,0,1,.439,1.045H28.625Zm-3.721.459a8.225,8.225,0,0,0-.781,1.26,11.792,11.792,0,0,0-.645,1.6H21.047a8.748,8.748,0,0,1,3.857-2.861Zm6.191,0a8.748,8.748,0,0,1,3.857,2.861H32.521a11.792,11.792,0,0,0-.645-1.6,8.226,8.226,0,0,0-.781-1.26ZM20.246,976.3h2.891a17.91,17.91,0,0,0-.43,3.438H19.279a8.7,8.7,0,0,1,.967-3.437Zm4.18,0h2.949v3.438H23.947a16.446,16.446,0,0,1,.479-3.437Zm4.2,0h2.949a16.447,16.447,0,0,1,.479,3.438H28.625V976.3Zm4.238,0h2.891a8.7,8.7,0,0,1,.967,3.438H33.293a17.91,17.91,0,0,0-.43-3.437Zm-13.584,4.688h3.428a17.834,17.834,0,0,0,.43,3.438H20.246a8.693,8.693,0,0,1-.967-3.437Zm4.668,0h3.428v3.438H24.426a16.461,16.461,0,0,1-.479-3.437Zm4.678,0h3.428a16.461,16.461,0,0,1-.479,3.438H28.625v-3.437Zm4.668,0h3.428a8.693,8.693,0,0,1-.967,3.438H32.863a17.834,17.834,0,0,0,.43-3.437Zm-12.256,4.688h2.441a11.713,11.713,0,0,0,.645,1.592,8.371,8.371,0,0,0,.791,1.289,8.756,8.756,0,0,1-3.877-2.881Zm3.77,0h2.568V989a4.379,4.379,0,0,1-2.129-2.295A9.971,9.971,0,0,1,24.807,985.675Zm3.818,0h2.568a9.971,9.971,0,0,1-.439,1.035A4.379,4.379,0,0,1,28.625,989Zm3.9,0h2.441a8.756,8.756,0,0,1-3.877,2.881,8.371,8.371,0,0,0,.791-1.289,11.713,11.713,0,0,0,.645-1.592Z" transform="translate(-18 -970.362)" fill="#a3a6a8"/>
    </g>
  </g>
</svg>
