<svg xmlns="http://www.w3.org/2000/svg" width="55" height="55" viewBox="0 0 55 55">
  <g id="Group_382" data-name="Group 382" transform="translate(-1850 -773)">
    <circle id="Ellipse_265" data-name="Ellipse 265" cx="27.5" cy="27.5" r="27.5" transform="translate(1850 773)" fill="#13a0f0"/>
    <g id="noun_message_3582669" transform="translate(1861 784)">
      <path id="Path_4" data-name="Path 4" d="M27.357,4H5.043A2.989,2.989,0,0,0,2,7.043V25.3a2.989,2.989,0,0,0,3.043,3.043H27.357A2.989,2.989,0,0,0,30.4,25.3V7.043A2.989,2.989,0,0,0,27.357,4ZM5.043,6.029H27.357a.958.958,0,0,1,1.014,1.014V8.564L16.809,16.577a1.1,1.1,0,0,1-1.116,0L4.029,8.564V7.043A.958.958,0,0,1,5.043,6.029ZM27.357,26.314H5.043A.958.958,0,0,1,4.029,25.3V11l10.447,7.2a3.058,3.058,0,0,0,3.449,0L28.371,11V25.3A.958.958,0,0,1,27.357,26.314Z" fill="#fff" stroke="#fff" stroke-width="0.2"/>
    </g>
  </g>
</svg>
