<svg xmlns="http://www.w3.org/2000/svg" width="114.504" height="79.946" viewBox="0 0 114.504 79.946">
  <g id="Group_139" data-name="Group 139" transform="translate(-1537.6 -167.6)">
    <g id="noun_webinar_792693" transform="translate(1538 168)">
      <g id="Layer_2" data-name="Layer 2" transform="translate(0)">
        <g id="Layer_1" data-name="Layer 1">
          <path id="Path_479" data-name="Path 479" d="M21.468,20.937A8.468,8.468,0,1,0,13,12.468a8.468,8.468,0,0,0,8.468,8.468Zm0-13.549a5.081,5.081,0,1,1-5.081,5.081A5.081,5.081,0,0,1,21.468,7.387Z" transform="translate(9.017 2.775)" fill="#fff" stroke="#13a0f0" stroke-width="0.8"/>
          <path id="Path_480" data-name="Path 480" d="M59.278,0H1.694A1.694,1.694,0,0,0,0,1.694V42.341a1.694,1.694,0,0,0,1.694,1.694H59.278a1.694,1.694,0,0,0,1.694-1.694V1.694A1.694,1.694,0,0,0,59.278,0ZM15.361,40.648A15.836,15.836,0,0,1,30.486,30.486a16.462,16.462,0,0,1,11.347,4.42,14.887,14.887,0,0,1,3.76,5.741Zm42.223,0H49.116a1.694,1.694,0,0,0,0-.491,18.258,18.258,0,0,0-4.878-7.689A19.833,19.833,0,0,0,30.486,27.1,19.172,19.172,0,0,0,11.856,40.14a1.694,1.694,0,0,0,0,.508H3.387V3.387h54.2Z" transform="translate(0 0)" fill="#fff" stroke="#13a0f0" stroke-width="0.8"/>
          <path id="Path_481" data-name="Path 481" d="M42.567,28H8.694a1.694,1.694,0,1,0,0,3.387H42.567a1.694,1.694,0,1,0,0-3.387Z" transform="translate(4.856 19.422)" fill="#fff" stroke="#13a0f0" stroke-width="0.8"/>
        </g>
      </g>
    </g>
    <g id="noun_tick_mark_2920200" data-name="noun_tick mark_2920200" transform="translate(1631 376.6)">
      <g id="Group_132" data-name="Group 132" transform="translate(-40.124 -184.504)">
        <path id="Path_905" data-name="Path 905" d="M67.4,3.29l-.26-.5h-.469c-.22,0-.671,0-3.28,1.326C38.326,16.865,29.492,34.785,27.5,39.589c-5.9-8.781-11.8-10.666-15.783-10.666a12.718,12.718,0,0,0-2.845.323c-1.22.286-1.487.957-1.54,1.326-.09.689.4,1.373,1.323,1.882C16.726,36.845,22.861,48.59,25.8,55.2c.684,1.556,1.5,1.885,2.052,1.885h0c.567,0,1.389-.347,2.02-1.986,3.7-9.688,14.516-33.831,34.777-48.837C67.385,4.245,67.581,3.82,67.4,3.29Z" transform="translate(-7.322 -2.789)" fill="#23d117" stroke="#fff" stroke-width="2.3"/>
      </g>
    </g>
  </g>
</svg>
