<svg xmlns="http://www.w3.org/2000/svg" width="76" height="76" viewBox="0 0 76 76">
  <g id="Group_391" data-name="Group 391" transform="translate(-1436 -4048)">
    <rect id="Image_81" data-name="Image 81" width="76" height="76" rx="38" transform="translate(1436 4048)" fill="#13a0f0"/>
    <g id="noun_Error_3706590" transform="translate(2007.007 4085)">
      <path id="Path_3594" data-name="Path 3594" d="M28.335,7.072a3.728,3.728,0,0,0-6.68,0L5.391,39.593A3.731,3.731,0,0,0,8.735,45H41.263A3.731,3.731,0,0,0,44.6,39.593Zm-.592,32.521a.8.8,0,0,1-.8.8H23.031a.8.8,0,0,1-.8-.8v-3.9a.8.8,0,0,1,.8-.8h3.912a.8.8,0,0,1,.8.8Zm-.016-7.368a.8.8,0,0,1-.8.752l-3.9-.008a.8.8,0,0,1-.8-.752l-.88-14.5a.788.788,0,0,1,.216-.6.8.8,0,0,1,.584-.248l5.712.008a.78.78,0,0,1,.576.248.8.8,0,0,1,.216.6Z" transform="translate(-558 -26)" fill="#fff"/>
    </g>
  </g>
</svg>
