<svg xmlns="http://www.w3.org/2000/svg" width="100.935" height="100" viewBox="0 0 100.935 100">
  <g id="noun_Online_Payment_2559982" data-name="noun_Online Payment_2559982" transform="translate(-5.274 -5.966)">
    <path id="Path_316" data-name="Path 316" d="M68.361,130.175a4,4,0,1,0,3.995,3.995A4,4,0,0,0,68.361,130.175Z" transform="translate(-19.183 -40.323)" fill="#636363"/>
    <path id="Path_317" data-name="Path 317" d="M81.006,102.5a5.4,5.4,0,0,1-5.4,5.4H36.345a5.4,5.4,0,0,1-5.4-5.4V36.616a5.4,5.4,0,0,1,5.4-5.4H75.608a5.4,5.4,0,0,1,5.4,5.4V41.34h4.728V36.616A10.138,10.138,0,0,0,75.608,26.49H36.345A10.138,10.138,0,0,0,26.219,36.616V102.5a10.138,10.138,0,0,0,10.126,10.126H75.608A10.138,10.138,0,0,0,85.734,102.5V86.693H81.006Z" transform="translate(-6.799 -6.663)" fill="#636363"/>
    <g id="Group_17" data-name="Group 17" transform="translate(12.525 13.217)">
      <path id="Path_318" data-name="Path 318" d="M17.7,32.276a1.688,1.688,0,0,1-1.688-1.688A13.9,13.9,0,0,1,29.9,16.7a1.688,1.688,0,0,1,0,3.377A10.519,10.519,0,0,0,19.388,30.587,1.688,1.688,0,0,1,17.7,32.276Z" transform="translate(-16.011 -16.703)" fill="#636363"/>
    </g>
    <g id="Group_18" data-name="Group 18" transform="translate(5.274 5.966)">
      <path id="Path_319" data-name="Path 319" d="M6.962,28.79A1.688,1.688,0,0,1,5.274,27.1,21.16,21.16,0,0,1,26.41,5.966a1.688,1.688,0,0,1,0,3.377A17.779,17.779,0,0,0,8.651,27.1,1.688,1.688,0,0,1,6.962,28.79Z" transform="translate(-5.274 -5.966)" fill="#636363"/>
    </g>
    <path id="Path_320" data-name="Path 320" d="M120.62,50.978H70.157A5.027,5.027,0,0,0,65.135,56V87.933a5.028,5.028,0,0,0,5.022,5.022h50.464a5.027,5.027,0,0,0,5.021-5.022V56A5.028,5.028,0,0,0,120.62,50.978ZM69.863,62.5h51.052v4.686H69.863Zm.294-6.789h50.464a.294.294,0,0,1,.294.294v3.12H69.863V56A.294.294,0,0,1,70.157,55.706ZM120.62,88.227H70.157a.3.3,0,0,1-.294-.294V70.559h51.052V87.933A.294.294,0,0,1,120.62,88.227Z" transform="translate(-19.433 -14.612)" fill="#636363"/>
    <path id="Path_321" data-name="Path 321" d="M135.466,88.295h-9.4a1.688,1.688,0,0,0-1.688,1.688v6.764a1.688,1.688,0,0,0,1.688,1.688h9.4a1.688,1.688,0,0,0,1.688-1.688V89.983A1.688,1.688,0,0,0,135.466,88.295Zm-1.688,6.764h-6.019V91.672h6.019Z" transform="translate(-38.667 -26.727)" fill="#636363"/>
  </g>
</svg>
