<svg xmlns="http://www.w3.org/2000/svg" width="20" height="15.833" viewBox="0 0 20 15.833">
  <g id="noun_Email_534775" transform="translate(0.001 -3)">
    <g id="Group_35" data-name="Group 35" transform="translate(-0.001 3)">
      <path id="Path_347" data-name="Path 347" d="M18.334,18.833H1.666A1.667,1.667,0,0,1,0,17.167V4.666A1.667,1.667,0,0,1,1.666,3H18.334A1.667,1.667,0,0,1,20,4.666v12.5A1.667,1.667,0,0,1,18.334,18.833Zm0-14.167H1.666v12.5H18.334l0-12.5ZM10,12.284a2.359,2.359,0,0,1-1.134-.291L.434,7.395a.833.833,0,0,1,.8-1.463l8.431,4.6a.7.7,0,0,0,.675,0l8.43-4.6a.833.833,0,0,1,.8,1.463l-8.43,4.6A2.38,2.38,0,0,1,10,12.284Z" transform="translate(0.001 -3)" fill="#a3a6a8"/>
    </g>
  </g>
</svg>
