<svg xmlns="http://www.w3.org/2000/svg" width="20" height="22" viewBox="0 0 20 22">
  <g id="noun_password_2863060" transform="translate(-6 -5)">
    <g id="Group_36" data-name="Group 36">
      <path id="Path_348" data-name="Path 348" d="M9,16a1,1,0,0,0-1,1v7a1,1,0,0,0,1,1H23a1,1,0,0,0,1-1V17a1,1,0,0,0-1-1Zm0-2H23a3,3,0,0,1,3,3v7a3,3,0,0,1-3,3H9a3,3,0,0,1-3-3V17A3,3,0,0,1,9,14Z" fill="#a3a6a8" fill-rule="evenodd"/>
      <path id="Path_349" data-name="Path 349" d="M12,21a1,1,0,1,1,1-1A1,1,0,0,1,12,21Z" fill="#a3a6a8" fill-rule="evenodd"/>
      <path id="Path_350" data-name="Path 350" d="M16,21a1,1,0,1,1,1-1A1,1,0,0,1,16,21Z" fill="#a3a6a8" fill-rule="evenodd"/>
      <path id="Path_351" data-name="Path 351" d="M20,21a1,1,0,1,1,1-1A1,1,0,0,1,20,21Z" fill="#a3a6a8" fill-rule="evenodd"/>
      <path id="Path_352" data-name="Path 352" d="M12,15a1,1,0,0,1-2,0V11a6,6,0,0,1,12,0v4a1,1,0,0,1-2,0V11a4,4,0,0,0-8,0Z" fill="#a3a6a8" fill-rule="evenodd"/>
    </g>
  </g>
</svg>
