<svg id="iconfinder_instagram_circle_6636566" xmlns="http://www.w3.org/2000/svg" xmlns:xlink="http://www.w3.org/1999/xlink" width="52" height="52" viewBox="0 0 52 52">
  <defs>
    <linearGradient id="linear-gradient" y1="1" x2="1.031" gradientUnits="objectBoundingBox">
      <stop offset="0" stop-color="#fec053"/>
      <stop offset="0.327" stop-color="#f2203e"/>
      <stop offset="0.648" stop-color="#b729a8"/>
      <stop offset="1" stop-color="#5342d6"/>
    </linearGradient>
  </defs>
  <path id="Path_917" data-name="Path 917" d="M26,0h0A26,26,0,1,1,0,26,26.076,26.076,0,0,1,26,0Z" fill="url(#linear-gradient)"/>
  <path id="Path_918" data-name="Path 918" d="M29.888,6H14.45A8.57,8.57,0,0,0,6,14.775v14.95A8.809,8.809,0,0,0,14.613,38.5H30.05a8.7,8.7,0,0,0,8.612-8.775V14.775A8.843,8.843,0,0,0,29.888,6Zm5.688,23.563a6,6,0,0,1-6.013,6.013H14.775a5.861,5.861,0,0,1-5.85-6.013V14.938a5.966,5.966,0,0,1,5.85-6.012H29.563a6.105,6.105,0,0,1,6.013,6.012Z" transform="translate(3.75 3.75)" fill="#fff"/>
  <path id="Path_919" data-name="Path 919" d="M19.252,10.9a8.289,8.289,0,0,0-.325,16.575,8.326,8.326,0,0,0,8.45-8.125v-.163A8.083,8.083,0,0,0,19.252,10.9Zm0,13.65a5.524,5.524,0,0,1-5.525-5.2,5.524,5.524,0,0,1,5.2-5.525,5.409,5.409,0,0,1,5.525,5.2v.163A5.171,5.171,0,0,1,19.252,24.552Z" transform="translate(6.748 6.811)" fill="#fff"/>
  <path id="Path_920" data-name="Path 920" d="M21.987,9.4a1.844,1.844,0,0,1,1.787,1.95,1.794,1.794,0,1,1-3.575,0A1.844,1.844,0,0,1,21.987,9.4Z" transform="translate(12.625 5.875)" fill="#fff"/>
</svg>
