<svg xmlns="http://www.w3.org/2000/svg" width="28.867" height="24.947" viewBox="0 0 28.867 24.947">
  <g id="noun_Video_Lesson_935832" data-name="noun_Video Lesson_935832" transform="translate(-0.8 -7.3)">
    <path id="Path_23" data-name="Path 23" d="M29.567,7.4H.9V26H9.178L7.043,31.562l1.463.556,1.024-2.662H20.937l1.024,2.662,1.463-.556L21.289,26h8.278V7.4ZM20.323,27.906H10.114l.731-1.9h8.746Zm7.664-3.481H2.48V8.98H27.987Z" transform="translate(0 0)" stroke="#000" stroke-width="0.2"/>
    <path id="Path_24" data-name="Path 24" d="M35.963,31.025A5.763,5.763,0,1,0,30.2,25.263,5.755,5.755,0,0,0,35.963,31.025Zm0-10a4.242,4.242,0,1,1-4.242,4.242A4.245,4.245,0,0,1,35.963,21.021Z" transform="translate(-20.729 -8.561)" stroke="#000" stroke-width="0.2"/>
    <path id="Path_25" data-name="Path 25" d="M45.363,35.96a.551.551,0,0,0,.234.059.408.408,0,0,0,.263-.088l2.633-1.784a.443.443,0,0,0,.2-.41.512.512,0,0,0-.2-.41L45.861,31.6a.5.5,0,0,0-.5-.029.544.544,0,0,0-.263.439V35.55A.441.441,0,0,0,45.363,35.96Z" transform="translate(-31.271 -17.064)" stroke="#000" stroke-width="0.2"/>
  </g>
</svg>
