<svg xmlns="http://www.w3.org/2000/svg" width="22.542" height="24.5" viewBox="0 0 22.542 24.5">
  <g id="noun_Flag_1844258" transform="translate(-20.826 -18.292)">
    <path id="Path_3618" data-name="Path 3618" d="M43.265,18.746a.864.864,0,0,0-.76-.454H21.69a.864.864,0,0,0-.864.864V41.928a.864.864,0,1,0,1.727,0V33.645H42.5a.864.864,0,0,0,.721-1.339l-4.178-6.338,4.178-6.337A.864.864,0,0,0,43.265,18.746Zm-5.973,6.747a.864.864,0,0,0,0,.951L40.9,31.917H22.554v-11.9H40.9Z" transform="translate(0)" fill="#a3a5a7"/>
  </g>
</svg>
