<svg xmlns="http://www.w3.org/2000/svg" width="36" height="28.063" viewBox="0 0 36 28.063">
  <g id="noun_Laptop_2828230" transform="translate(-5 -14.921)">
    <path id="Path_909" data-name="Path 909" d="M36.969,36.63A2.431,2.431,0,0,0,39.4,34.2V16.938a2.017,2.017,0,0,0-2.017-2.017H8.617A2.017,2.017,0,0,0,6.6,16.938V34.2A2.431,2.431,0,0,0,9.031,36.63ZM9,17.321H37V34.2a.031.031,0,0,1-.031.031H9.031A.031.031,0,0,1,9,34.2Zm31.583,20.8H5.417A.417.417,0,0,0,5,38.538v.508a3.938,3.938,0,0,0,3.938,3.938H37.062A3.938,3.938,0,0,0,41,39.046v-.508a.417.417,0,0,0-.417-.417ZM27,41.169a.384.384,0,0,1-.384.384H19.384A.384.384,0,0,1,19,41.169V39.937a.384.384,0,0,1,.384-.384h7.232a.384.384,0,0,1,.384.384Z" fill="#13a0f0"/>
  </g>
</svg>
