<svg xmlns="http://www.w3.org/2000/svg" width="23.5" height="23.045" viewBox="0 0 23.5 23.045">
  <g id="noun_Bank_2567938" transform="translate(-2.75 -3.245)">
    <path id="Path_3620" data-name="Path 3620" d="M17.741,11.926,22.109,9.95l4.368,1.976a.46.46,0,0,0,.379-.838L22.3,9.026a.461.461,0,0,0-.379,0l-4.558,2.061a.46.46,0,1,0,.379.838Z" transform="translate(-7.609 -2.963)" fill="#a3a6a8" stroke="#a3a6a8" stroke-width="0.5"/>
    <path id="Path_3621" data-name="Path 3621" d="M3.46,26.04H25.54a.46.46,0,0,0,.46-.46V23.5a.46.46,0,0,0-.46-.46H23.884V21.418a.46.46,0,0,0-.46-.46H21.576V11.3h2.477a.46.46,0,0,0,.46-.46V8.278a.46.46,0,0,0-.27-.419L14.69,3.539a.461.461,0,0,0-.379,0L4.758,7.859a.46.46,0,0,0-.27.419v2.565a.46.46,0,0,0,.46.46H7.424v9.654H5.576a.46.46,0,0,0-.46.46v1.621H3.46A.46.46,0,0,0,3,23.5V25.58A.46.46,0,0,0,3.46,26.04Zm17.2-5.082H18.2V11.3h2.455Zm-8.936,0V11.3H17.28v9.654ZM5.408,8.575,14.5,4.463l9.092,4.112v1.809H5.408ZM8.344,11.3H10.8v9.654H8.344ZM6.036,21.878H22.964v1.161H6.036ZM3.92,23.959H25.08V25.12H3.92Z" fill="#a3a6a8" stroke="#a3a6a8" stroke-width="0.5"/>
  </g>
</svg>
