<svg xmlns="http://www.w3.org/2000/svg" width="76" height="76" viewBox="0 0 76 76">
  <g id="Group_386" data-name="Group 386" transform="translate(-1436 -2219)">
    <rect id="Image_75" data-name="Image 75" width="76" height="76" rx="38" transform="translate(1436 2219)" fill="#13a0f0"/>
    <g id="noun_create_3551962" transform="translate(1436 2219)">
      <g id="Group_378" data-name="Group 378" transform="translate(18 18)">
        <path id="Path_3599" data-name="Path 3599" d="M56.432,18a7.839,7.839,0,0,0-5.578,2.312L37.7,33.464A12.552,12.552,0,0,0,34,42.4v5.919h5.919a12.552,12.552,0,0,0,8.932-3.7L62.01,31.461A7.89,7.89,0,0,0,56.432,18Zm2,9.892L45.282,41.044a7.53,7.53,0,0,1-5.363,2.224h-.865V42.4a7.53,7.53,0,0,1,2.224-5.363L54.429,23.881a2.836,2.836,0,1,1,4,4Z" transform="translate(-23.893 -18)" fill="#fff" stroke="#13a0f0" stroke-width="1"/>
        <path id="Path_3600" data-name="Path 3600" d="M25.58,59.9H48.322a7.58,7.58,0,0,0,7.58-7.58V42.214H50.848V52.322a2.527,2.527,0,0,1-2.527,2.527H25.58a2.527,2.527,0,0,1-2.527-2.527V29.58a2.527,2.527,0,0,1,2.527-2.527H35.688V22H25.58A7.58,7.58,0,0,0,18,29.58V52.322A7.58,7.58,0,0,0,25.58,59.9Z" transform="translate(-18 -19.473)" fill="#fff" stroke="#13a0f0" stroke-width="1"/>
      </g>
    </g>
  </g>
</svg>
