<svg xmlns="http://www.w3.org/2000/svg" width="101.731" height="94" viewBox="0 0 101.731 94">
  <g id="noun_Email_Configuration_3240453" data-name="noun_Email Configuration_3240453" transform="translate(1136.5 435.6)">
    <g id="Group_19" data-name="Group 19" transform="translate(-1136.5 -435.6)">
      <path id="Path_322" data-name="Path 322" d="M97.6,3.4H7.116A5.633,5.633,0,0,0,1.5,9.036V77.054A5.632,5.632,0,0,0,7.116,82.69h21.2C27.053,85.1,24.9,86.857,24.9,90.767v2.341A4.287,4.287,0,0,0,29.171,97.4H75.54a4.3,4.3,0,0,0,4.293-4.293V90.767c0-3.827-2.275-5.876-3.421-8.077H97.6a5.693,5.693,0,0,0,5.636-5.636c-.025-86.121-.019-64.428-.02-68.018A5.633,5.633,0,0,0,97.6,3.4ZM5.569,9.036A1.578,1.578,0,0,1,7.116,7.469H97.6a1.578,1.578,0,0,1,1.547,1.567V69.892H5.569Zm69.6,79.349a5.029,5.029,0,0,1,.6,2.382v2.341a.232.232,0,0,1-.224.223H29.171a.217.217,0,0,1-.2-.223V90.767c0-2.289,1.817-4.037,4.136-8.077h38.5ZM7.116,78.62a1.558,1.558,0,0,1-1.547-1.567V73.961H99.142v3.093A1.577,1.577,0,0,1,97.6,78.62Z" transform="translate(-1.5 -3.4)" fill="#636363"/>
      <path id="Path_323" data-name="Path 323" d="M86.384,19.408,82.6,12.857a2.041,2.041,0,0,0-2.365-.926l-3.252,1.011A16.217,16.217,0,0,0,74.5,11.5l-.748-3.3A2.034,2.034,0,0,0,71.764,6.61h-7.61A2.035,2.035,0,0,0,62.167,8.2l-.724,3.272a15.376,15.376,0,0,0-2.507,1.449l-3.238-1a2.025,2.025,0,0,0-2.36.927l-3.784,6.551a2.034,2.034,0,0,0,.372,2.5H11.071a4.033,4.033,0,0,0-3,1.286c-.012.012-.02.027-.032.039s-.028.023-.04.036-.014.031-.026.045A4.034,4.034,0,0,0,6.9,26.082V57.333a4.2,4.2,0,0,0,4.171,4.211H65.8a4.207,4.207,0,0,0,4.191-4.211V44.759h1.771c2.457,0,2.1-3.18,2.713-4.876a15.481,15.481,0,0,0,2.512-1.458l3.253,1a2.028,2.028,0,0,0,2.358-.928l3.784-6.552A2.034,2.034,0,0,0,86,29.426l-2.485-2.284a15.3,15.3,0,0,0,0-2.934L86,21.923A2.034,2.034,0,0,0,86.384,19.408ZM52.336,25.98c.008.378.033.763.074,1.16-1.638,1.548-3.956,2.9-2.855,4.8l1.14,1.974L39.53,41.8a1.938,1.938,0,0,1-2.218-.008L14.93,25.98ZM65.924,57.333a.131.131,0,0,1-.122.142L10.97,57.333l.094-29.1,23.9,16.889a5.987,5.987,0,0,0,3.47,1.1,5.9,5.9,0,0,0,3.454-1.1l10.85-7.663.6,1.034h0v0a2,2,0,0,0,.35.42c.034.033.055.079.091.109a2.037,2.037,0,0,0,1.922.4l3.216-.995a15.553,15.553,0,0,0,2.526,1.466l.725,3.272a2.034,2.034,0,0,0,1.986,1.595h1.77V57.333ZM79.35,27.525a2.032,2.032,0,0,0,.62,1.885l2.075,1.907-2.159,3.738c-1.977-.433-3.29-1.524-4.591-.456-2.773,2.275-4.167,1.583-4.562,3.371l-.6,2.718H65.787l-.6-2.718a2.033,2.033,0,0,0-1.3-1.476,11.384,11.384,0,0,1-3.293-1.906,2.041,2.041,0,0,0-1.879-.361l-2.658.823-.9-1.55c0-.005,0-.011-.006-.017l-1.259-2.173.268-.248,1.793-1.658a2.038,2.038,0,0,0,.624-1.838c-.568-3.307.71-4.361-.619-5.6l-2.07-1.927L56.05,16.3l2.683.826a2.04,2.04,0,0,0,1.877-.362,11.3,11.3,0,0,1,3.272-1.885,2.034,2.034,0,0,0,1.3-1.476l.6-2.719h4.351l.618,2.728A2.032,2.032,0,0,0,72,14.853a12.167,12.167,0,0,1,3.3,1.916,2.039,2.039,0,0,0,1.894.371l2.7-.839,2.156,3.73L79.97,21.938C78.585,23.212,79.978,24.286,79.35,27.525Z" transform="translate(4.087 -0.079)" fill="#636363"/>
      <path id="Path_324" data-name="Path 324" d="M19.421,26.18H10.793a.4.4,0,0,0-.406.406v2.17a.4.4,0,0,0,.406.406h8.627a.4.4,0,0,0,.406-.406v-2.17A.4.4,0,0,0,19.421,26.18Z" transform="translate(7.695 20.169)" fill="#636363"/>
      <path id="Path_325" data-name="Path 325" d="M19.421,28.608H10.793a.4.4,0,0,0-.406.406v2.17a.4.4,0,0,0,.406.406h8.627a.4.4,0,0,0,.406-.406v-2.17A.4.4,0,0,0,19.421,28.608Z" transform="translate(7.695 22.681)" fill="#636363"/>
      <path id="Path_326" data-name="Path 326" d="M40.846,12.178a7.744,7.744,0,1,0,7.749,7.75A7.753,7.753,0,0,0,40.846,12.178Zm0,11.418a3.674,3.674,0,1,1,3.68-3.668A3.673,3.673,0,0,1,40.846,23.6Z" transform="translate(31.203 5.682)" fill="#636363"/>
    </g>
  </g>
</svg>
