<svg xmlns="http://www.w3.org/2000/svg" width="94" height="94" viewBox="0 0 94 94">
  <g id="noun_Web_Page_1214189" data-name="noun_Web Page_1214189" transform="translate(-3 -3)">
    <path id="Path_309" data-name="Path 309" d="M97,15A12,12,0,0,0,85,3H15A12,12,0,0,0,3,15V85A12,12,0,0,0,15,97H85A12,12,0,0,0,97,85ZM15,7H85a8,8,0,0,1,8,8v7.5H7V15a8,8,0,0,1,8-8ZM85,93H15a8,8,0,0,1-8-8V26.5H93V85A8,8,0,0,1,85,93Z" fill="#636363"/>
    <circle id="Ellipse_23" data-name="Ellipse 23" cx="4" cy="4" r="4" transform="translate(10.75 11)" fill="#636363"/>
    <circle id="Ellipse_24" data-name="Ellipse 24" cx="4" cy="4" r="4" transform="translate(20.75 11)" fill="#636363"/>
    <circle id="Ellipse_25" data-name="Ellipse 25" cx="4" cy="4" r="4" transform="translate(30.75 11)" fill="#636363"/>
    <path id="Path_310" data-name="Path 310" d="M84,33H16a2,2,0,0,0-2,2V63a2,2,0,0,0,2,2H84a2,2,0,0,0,2-2V35A2,2,0,0,0,84,33ZM82,61H18V37H82Z" fill="#636363"/>
    <path id="Path_311" data-name="Path 311" d="M56,71.75H16a2,2,0,0,0,0,4H56a2,2,0,0,0,0-4Z" fill="#636363"/>
    <path id="Path_312" data-name="Path 312" d="M56,82.25H16a2,2,0,0,0,0,4H56a2,2,0,0,0,0-4Z" fill="#636363"/>
    <path id="Path_313" data-name="Path 313" d="M83.5,71.75h-17a2,2,0,0,0,0,4h17a2,2,0,0,0,0-4Z" fill="#636363"/>
    <path id="Path_314" data-name="Path 314" d="M83.5,82.25h-17a2,2,0,0,0,0,4h17a2,2,0,0,0,0-4Z" fill="#636363"/>
    <path id="Path_315" data-name="Path 315" d="M45.91,54.32,54,49.88a1,1,0,0,0,0-1.75l-8.07-4.45a1,1,0,0,0-1.48.88v8.9a1,1,0,0,0,1.46.86Z" fill="#636363"/>
  </g>
</svg>
