<svg xmlns="http://www.w3.org/2000/svg" width="76" height="76" viewBox="0 0 76 76">
  <g id="Group_388" data-name="Group 388" transform="translate(-1436 -2502)">
    <rect id="Image_78" data-name="Image 78" width="76" height="76" rx="38" transform="translate(1436 2502)" fill="#13a0f0"/>
    <g id="noun_Video_Lesson_935832" data-name="noun_Video Lesson_935832" transform="translate(1450.1 2512.6)">
      <path id="Path_23" data-name="Path 23" d="M47.566,7.4H.9V37.685H14.376L10.9,46.733l2.381.9L14.947,43.3H33.519l1.667,4.333,2.381-.9L34.09,37.685H47.566V7.4ZM32.519,40.78H15.9l1.19-3.1H31.328Zm12.476-5.667H3.471V9.971H44.995Z" transform="translate(0)" fill="#fff" stroke="#fff" stroke-width="0.5"/>
      <path id="Path_24" data-name="Path 24" d="M39.581,38.262A9.381,9.381,0,1,0,30.2,28.881,9.369,9.369,0,0,0,39.581,38.262Zm0-16.285a6.9,6.9,0,1,1-6.9,6.9A6.91,6.91,0,0,1,39.581,21.976Z" transform="translate(-15.348 -6.338)" fill="#fff" stroke="#fff" stroke-width="0.5"/>
      <path id="Path_25" data-name="Path 25" d="M45.529,38.748a.9.9,0,0,0,.381.1.665.665,0,0,0,.429-.143l4.286-2.9a.721.721,0,0,0,.333-.667.833.833,0,0,0-.333-.667l-4.286-2.809a.822.822,0,0,0-.81-.048.885.885,0,0,0-.429.714v5.762A.718.718,0,0,0,45.529,38.748Z" transform="translate(-23.153 -12.634)" fill="#fff" stroke="#fff" stroke-width="0.5"/>
    </g>
  </g>
</svg>
