<svg xmlns="http://www.w3.org/2000/svg" width="28.604" height="28.3" viewBox="0 0 28.604 28.3">
  <g id="noun_Address_1271842" transform="translate(-3.866 -4.35)">
    <path id="Path_3603" data-name="Path 3603" d="M32.057,9.654l-4.308-3.04A.615.615,0,0,0,27.4,6.5H18.78V5.115a.615.615,0,0,0-1.231,0V6.5H12.011a3.692,3.692,0,1,0,0,7.385h5.538v2.462H8.934a.615.615,0,0,0-.354.114L4.273,19.5a.615.615,0,0,0,0,1L8.58,23.614a.615.615,0,0,0,.354.117h8.615v8.154a.615.615,0,1,0,1.231,0V23.731h5.538a3.692,3.692,0,0,0,0-7.385H18.78V13.885H27.4a.615.615,0,0,0,.36-.117l4.308-3.114a.615.615,0,0,0,0-1ZM26.78,20.038A2.462,2.462,0,0,1,24.319,22.5H9.134L5.685,20.008l3.443-2.431H24.319A2.462,2.462,0,0,1,26.78,20.038Zm.415-7.385H12.011a2.462,2.462,0,0,1,0-4.923H27.2l3.443,2.431Z" fill="#a3a6a8" stroke="#a1a4a5" stroke-width="0.3"/>
  </g>
</svg>
