<svg xmlns="http://www.w3.org/2000/svg" width="26.2" height="26.186" viewBox="0 0 26.2 26.186">
  <g id="noun_Cake_1004671" transform="translate(0.1 0.075)">
    <g id="Group_145" data-name="Group 145" transform="translate(0 0.025)">
      <path id="Path_3591" data-name="Path 3591" d="M25.458,22.166H24.213v-5.85a2.173,2.173,0,0,0-2.167-2.167H20.8V9.057a2.173,2.173,0,0,0-2.167-2.167H13.542V5.374a2.1,2.1,0,0,0,1.571-2c0-.975-1.3-2.654-1.679-3.142a.564.564,0,0,0-.867,0c-.379.487-1.679,2.167-1.679,3.142a2.036,2.036,0,0,0,1.571,2V6.891H7.367A2.173,2.173,0,0,0,5.2,9.057v5.092H3.954a2.173,2.173,0,0,0-2.167,2.167v2.492h0v3.3H.542A.512.512,0,0,0,0,22.653V25.47a.512.512,0,0,0,.542.542H25.458A.512.512,0,0,0,26,25.47V22.707A.512.512,0,0,0,25.458,22.166ZM11.971,3.37A5.093,5.093,0,0,1,13,1.474a5.531,5.531,0,0,1,1.029,1.9,1.031,1.031,0,0,1-2.058,0ZM6.283,9A1.087,1.087,0,0,1,7.367,7.92H18.688A1.087,1.087,0,0,1,19.771,9v2.763a1.221,1.221,0,0,1-1.462-.108L16.629,9.978a2.223,2.223,0,0,0-3.142,0l-1.679,1.679a1.178,1.178,0,0,1-1.625,0L8.5,9.978a2.259,2.259,0,0,0-2.221-.542V9Zm0,1.625a1.147,1.147,0,0,1,1.463.108l1.679,1.679a2.223,2.223,0,0,0,3.142,0l1.679-1.679a1.178,1.178,0,0,1,1.625,0l1.679,1.679a2.169,2.169,0,0,0,1.571.65,2.719,2.719,0,0,0,.65-.108v1.138H6.283ZM2.871,16.316a1.087,1.087,0,0,1,1.083-1.083H22.046a1.087,1.087,0,0,1,1.083,1.083v1.625a1.867,1.867,0,0,0-1.787.488l-1.354,1.354a.785.785,0,0,1-1.137,0l-1.3-1.354a1.832,1.832,0,0,0-2.654,0l-1.354,1.354a.785.785,0,0,1-1.137,0L11.05,18.428a1.832,1.832,0,0,0-2.654,0L7.042,19.782a.785.785,0,0,1-1.138,0L4.6,18.428a1.771,1.771,0,0,0-1.733-.488Zm0,2.763a.816.816,0,0,1,.975.108L5.2,20.541a1.88,1.88,0,0,0,1.354.542,1.88,1.88,0,0,0,1.354-.542l1.354-1.354a.785.785,0,0,1,1.137,0l1.354,1.354a1.832,1.832,0,0,0,2.654,0l1.354-1.354a.785.785,0,0,1,1.138,0l1.354,1.354a1.832,1.832,0,0,0,2.654,0l1.354-1.354a.815.815,0,0,1,1.029-.054v2.979H2.871Zm22.046,5.85H1.083V23.249H24.917Z" transform="translate(0 -0.025)" fill="#a1a3a5" stroke="#a3a6a8" stroke-width="0.2"/>
      <path id="Path_3592" data-name="Path 3592" d="M11.642,34.683a.536.536,0,0,0,.379-.921.524.524,0,0,0-.758,0,.524.524,0,0,0,0,.758A.422.422,0,0,0,11.642,34.683Z" transform="translate(-5.088 -15.414)" fill="#a1a3a5" stroke="#a3a6a8" stroke-width="0.2"/>
      <path id="Path_3593" data-name="Path 3593" d="M23.642,34.683a.492.492,0,0,0,.379-.162.585.585,0,0,0,.162-.379.492.492,0,0,0-.162-.379.524.524,0,0,0-.758,0,.524.524,0,0,0,0,.758A.585.585,0,0,0,23.642,34.683Z" transform="translate(-10.588 -15.414)" fill="#a1a3a5" stroke="#a3a6a8" stroke-width="0.2"/>
      <path id="Path_3594" data-name="Path 3594" d="M35.742,34.683a.492.492,0,0,0,.379-.162.585.585,0,0,0,.162-.379.492.492,0,0,0-.162-.379.524.524,0,0,0-.758,0,.524.524,0,0,0,0,.758A.585.585,0,0,0,35.742,34.683Z" transform="translate(-16.133 -15.414)" fill="#a1a3a5" stroke="#a3a6a8" stroke-width="0.2"/>
      <path id="Path_3595" data-name="Path 3595" d="M17.063,36.8a.524.524,0,0,0,0,.758.585.585,0,0,0,.379.162.492.492,0,0,0,.379-.162.585.585,0,0,0,.163-.379.492.492,0,0,0-.163-.379A.649.649,0,0,0,17.063,36.8Z" transform="translate(-7.746 -16.823)" fill="#a1a3a5" stroke="#a3a6a8" stroke-width="0.2"/>
      <path id="Path_3596" data-name="Path 3596" d="M29.063,36.8a.542.542,0,1,0,.758,0A.649.649,0,0,0,29.063,36.8Z" transform="translate(-13.246 -16.823)" fill="#a1a3a5" stroke="#a3a6a8" stroke-width="0.2"/>
    </g>
  </g>
</svg>
