<svg xmlns="http://www.w3.org/2000/svg" width="76" height="76" viewBox="0 0 76 76">
  <g id="Group_390" data-name="Group 390" transform="translate(-1436 -3446)">
    <rect id="Image_140" data-name="Image 140" width="76" height="76" rx="38" transform="translate(1436 3446)" fill="#13a0f0"/>
    <g id="noun_wishlist_1545273" transform="translate(1455 3461)">
      <g id="Group_379" data-name="Group 379" transform="translate(2)">
        <path id="Path_3601" data-name="Path 3601" d="M10,0V11.563H21.563Z" transform="translate(13.125)" fill="#fff"/>
        <path id="Path_3602" data-name="Path 3602" d="M22.234,11.563V0H4.891A2.9,2.9,0,0,0,2,2.891V43.359A2.894,2.894,0,0,0,4.891,46.25H33.8a2.892,2.892,0,0,0,2.891-2.891V14.453H25.125A2.9,2.9,0,0,1,22.234,11.563ZM9.227,8.672H17.9a1.445,1.445,0,0,1,0,2.891H9.227a1.445,1.445,0,1,1,0-2.891ZM7.781,15.9a1.446,1.446,0,0,1,1.445-1.445H17.9a1.445,1.445,0,0,1,0,2.891H9.227A1.446,1.446,0,0,1,7.781,15.9ZM27.943,29.635a1.45,1.45,0,0,1-.338,1.468l-3.1,3.18.734,4.509a1.442,1.442,0,0,1-2.125,1.494l-3.766-2.081L15.577,40.29a1.439,1.439,0,0,1-1.532-.081,1.454,1.454,0,0,1-.6-1.414l.734-4.509-3.1-3.183a1.447,1.447,0,0,1,.815-2.44l4.232-.65,1.9-4.058a1.5,1.5,0,0,1,2.616,0l1.9,4.058,4.235.65A1.449,1.449,0,0,1,27.943,29.635Z" transform="translate(-2)" fill="#fff"/>
      </g>
    </g>
  </g>
</svg>
