<svg xmlns="http://www.w3.org/2000/svg" width="26.195" height="24.645" viewBox="0 0 26.195 24.645">
  <g id="noun_id_1381710" transform="translate(-2 -3.34)">
    <path id="Path_3597" data-name="Path 3597" d="M48.1,14.364A.682.682,0,1,0,48.1,13h0a.682.682,0,0,0,0,1.364Z" transform="translate(-33.026 -7.024)" fill="#a1a4a5"/>
    <path id="Path_3598" data-name="Path 3598" d="M25.51,7.968H18.495V5.621A2.284,2.284,0,0,0,16.214,3.34H13.933a2.284,2.284,0,0,0-2.281,2.281V7.968H4.685A2.688,2.688,0,0,0,2,10.653V25.3a2.688,2.688,0,0,0,2.685,2.685H25.51A2.688,2.688,0,0,0,28.2,25.3V10.653A2.688,2.688,0,0,0,25.51,7.968ZM13.93,4.693h2.281a.917.917,0,0,1,.917.917v5.307H13.016v-5.3a.917.917,0,0,1,.917-.917ZM26.831,25.3a1.321,1.321,0,0,1-1.321,1.321H4.685A1.321,1.321,0,0,1,3.364,25.3V10.653A1.321,1.321,0,0,1,4.685,9.332h6.966v1.583h-1.3a.682.682,0,1,0,0,1.364h9.436a.682.682,0,1,0,0-1.364h-1.3V9.332H25.51a1.321,1.321,0,0,1,1.321,1.321Z" fill="#a1a4a5"/>
    <path id="Path_3599" data-name="Path 3599" d="M21.421,49.817a2.786,2.786,0,1,0-4.014,0,4.249,4.249,0,0,0-2.238,3.738.682.682,0,1,0,1.364,0,2.88,2.88,0,1,1,5.76,0,.682.682,0,1,0,1.364,0,4.249,4.249,0,0,0-2.238-3.738ZM17.994,47.89a1.422,1.422,0,1,1,1.422,1.422A1.422,1.422,0,0,1,17.994,47.89Z" transform="translate(-9.576 -30.364)" fill="#a1a4a5"/>
    <path id="Path_3600" data-name="Path 3600" d="M59.968,47.11H53.452a.682.682,0,1,0,0,1.364h6.516a.682.682,0,1,0,0-1.364Z" transform="translate(-36.917 -31.827)" fill="#a1a4a5"/>
    <path id="Path_3601" data-name="Path 3601" d="M59.968,59.1H53.452a.682.682,0,1,0,0,1.364h6.516a.682.682,0,1,0,0-1.364Z" transform="translate(-36.917 -40.545)" fill="#a1a4a5"/>
    <path id="Path_3602" data-name="Path 3602" d="M59.968,71.08H53.452a.682.682,0,1,0,0,1.364h6.516a.682.682,0,1,0,0-1.364Z" transform="translate(-36.917 -49.256)" fill="#a1a4a5"/>
  </g>
</svg>
