<svg xmlns="http://www.w3.org/2000/svg" width="28.763" height="23.897" viewBox="0 0 28.763 23.897">
  <g id="noun_Sign_Up_736551" data-name="noun_Sign Up_736551" transform="translate(-10 -24.102)">
    <path id="Path_340" data-name="Path 340" d="M15.074,31.7a25.354,25.354,0,0,0,1.581,3.48c.392.589.949,1.582,3.165,1.582s2.772-.994,3.164-1.582a25.385,25.385,0,0,0,1.582-3.48.633.633,0,0,0,.632-.633V29.8a.633.633,0,0,0-.632-.633v-.949c0-2.214-1.253-4.113-4.746-4.113s-4.746,1.9-4.746,4.113v.949a.656.656,0,0,0-.634.633v1.266A.634.634,0,0,0,15.074,31.7ZM29.605,42.7c-.376-3.447-2.887-5.192-6.3-5.821a4.288,4.288,0,0,1-3.47,1.265,4.283,4.283,0,0,1-3.476-1.271c-3.425.624-5.949,2.37-6.326,5.827-.013.117-.024,1.1-.034,1.633l.007-.007L10,44.813A15.722,15.722,0,0,0,19.82,48a16.028,16.028,0,0,0,9.82-3.187V43.726h-.01C29.621,43.261,29.613,42.784,29.605,42.7Z" fill="#a3a6a8"/>
    <g id="noun_Sign_Up_736735" data-name="noun_Sign Up_736735" transform="translate(27.279 24.696)">
      <path id="Path_341" data-name="Path 341" d="M16.132,28.184H11.818V23.87H8.962v4.314H4.648V31.04H8.962v4.314h2.856V31.04h4.314V28.184Z" transform="translate(-4.648 -23.87)" fill="#a3a6a8"/>
    </g>
  </g>
</svg>
