<svg id="iconfinder_1_Facebook_colored_svg_copy_5296499" xmlns="http://www.w3.org/2000/svg" width="52" height="52" viewBox="0 0 52 52">
  <path id="Path_912" data-name="Path 912" d="M52,26A26,26,0,1,0,21.938,51.69V33.52h-6.6V26h6.6V20.274c0-6.517,3.882-10.117,9.821-10.117a39.977,39.977,0,0,1,5.82.508v6.4H34.3c-3.23,0-4.237,2-4.237,4.061V26h7.211L36.121,33.52H30.063V51.69A26.009,26.009,0,0,0,52,26Z" fill="#1877f2"/>
  <path id="Path_913" data-name="Path 913" d="M171.385,122.91l1.131-7.371h-7.072v-4.783c0-2.017.988-3.982,4.156-3.982h3.216V100.5a39.215,39.215,0,0,0-5.708-.5c-5.825,0-9.632,3.53-9.632,9.921v5.618H151v7.371h6.475v17.819a25.778,25.778,0,0,0,7.969,0V122.91Z" transform="translate(-135.444 -89.039)" fill="#fff"/>
</svg>
