<svg xmlns="http://www.w3.org/2000/svg" width="52" height="52" viewBox="0 0 52 52">
  <g id="Group_184" data-name="Group 184" transform="translate(-403 -277)">
    <circle id="Ellipse_77" data-name="Ellipse 77" cx="26" cy="26" r="26" transform="translate(403 277)" fill="#fff"/>
    <g id="noun_link_1256447" transform="translate(401.242 275.192)">
      <path id="Path_911" data-name="Path 911" d="M37.214,27.535a5.689,5.689,0,0,0-8.045,0l-.038.038L27.5,25.908l.038-.038a5.689,5.689,0,0,0-.038-8.045l-2.352-2.352a5.689,5.689,0,0,0-8.045,0l-1.684,1.684a5.689,5.689,0,0,0,0,8.045l2.371,2.333a5.689,5.689,0,0,0,8.045,0l.038-.038L27.5,29.162l-.038.038a5.689,5.689,0,0,0,.038,8.045L29.856,39.6a5.689,5.689,0,0,0,8.045,0l1.684-1.684a5.689,5.689,0,0,0,0-8.045ZM24.231,25.946a3.414,3.414,0,0,1-4.828,0l-2.352-2.352a3.414,3.414,0,0,1,0-4.828l1.684-1.684a3.414,3.414,0,0,1,4.828,0l2.352,2.352a3.414,3.414,0,0,1,0,4.828l-.038.038-3.6-3.592a1.138,1.138,0,0,0-1.6,1.6l3.6,3.6Zm13.73,10.362-1.684,1.684a3.414,3.414,0,0,1-4.828,0L29.1,35.641a3.414,3.414,0,0,1,0-4.828l.038-.038,3.6,3.588a1.138,1.138,0,0,0,1.6-1.6l-3.6-3.6.038-.038a3.414,3.414,0,0,1,4.828,0l2.352,2.352a3.414,3.414,0,0,1,.008,4.828Z" fill="#a7a7a7"/>
    </g>
  </g>
</svg>
