<svg xmlns="http://www.w3.org/2000/svg" width="24.283" height="20.015" viewBox="0 0 24.283 20.015">
  <g id="noun_mailbox_481878" transform="translate(-10 -13)">
    <g id="Group_148" data-name="Group 148" transform="translate(10 13)">
      <g id="Group_147" data-name="Group 147" transform="translate(0 0)">
        <path id="Path_3617" data-name="Path 3617" d="M17.589,25.683a.758.758,0,0,1-.759.759H13.794a.759.759,0,1,1,0-1.518H16.83a.758.758,0,0,1,.759.759ZM32.766,31.5H20.624V24.165a5.294,5.294,0,0,0-1.6-3.794h3.833v3.3a.759.759,0,1,0,1.518,0v-3.3h4.6a3.8,3.8,0,0,1,3.794,3.794Zm-13.659,0H11.518V24.165a3.794,3.794,0,0,1,7.589,0Zm5.267-15.651h2.609V14.518H24.373Zm4.6,3.007h-4.6V17.363H27.74A.758.758,0,0,0,28.5,16.6V13.759A.758.758,0,0,0,27.74,13H23.614a.758.758,0,0,0-.759.759v5.094H15.312A5.319,5.319,0,0,0,10,24.165v8.091a.758.758,0,0,0,.759.759H33.524a.758.758,0,0,0,.759-.759V24.165a5.319,5.319,0,0,0-5.312-5.312Z" transform="translate(-10 -13)" fill="#a3a5a7" fill-rule="evenodd"/>
      </g>
    </g>
  </g>
</svg>
