<svg xmlns="http://www.w3.org/2000/svg" width="29.91" height="32.85" viewBox="0 0 29.91 32.85">
  <g id="noun_Switch_account_2374116" data-name="noun_Switch account_2374116" transform="translate(-2 -5)">
    <g id="Group_129" data-name="Group 129" transform="translate(2 5)">
      <path id="Path_693" data-name="Path 693" d="M15.9,5.062a1.093,1.093,0,0,0-.353,2.12l2.166.832a14.821,14.821,0,0,0,3.123,28.018,1.1,1.1,0,1,0,.41-2.154,12.632,12.632,0,0,1-2.861-23.766L17.5,11.879a1.1,1.1,0,0,0,1.961.98l2.189-4.377a1.093,1.093,0,0,0-.593-1.516L16.318,5.142a1.1,1.1,0,0,0-.422-.08ZM26.748,6.886a1.093,1.093,0,0,0-.08,2.177,12.636,12.636,0,0,1,2.85,23.778l.889-1.767a1.1,1.1,0,1,0-1.961-.98l-2.189,4.377a1.093,1.093,0,0,0,.593,1.5l4.742,1.812a1.094,1.094,0,1,0,.775-2.029L30.2,34.927A14.821,14.821,0,0,0,27.078,6.909a1.582,1.582,0,0,0-.331-.023ZM23.955,12a4.361,4.361,0,0,0-3.043,7.5,7.663,7.663,0,0,0-4.981,7.067,1.094,1.094,0,0,0,1.094,1.094H30.886a1.094,1.094,0,0,0,1.094-1.094A7.663,7.663,0,0,0,27,19.5,4.361,4.361,0,0,0,23.955,12Zm0,2.189a2.183,2.183,0,1,1-2.189,2.177A2.163,2.163,0,0,1,23.955,14.193Zm0,6.919a5.733,5.733,0,0,1,5.722,4.377H18.233A5.733,5.733,0,0,1,23.955,21.112Z" transform="translate(-9 -5.062)"/>
    </g>
  </g>
</svg>
