<svg xmlns="http://www.w3.org/2000/svg" width="76" height="76" viewBox="0 0 76 76">
  <g id="Group_389" data-name="Group 389" transform="translate(-1436 -2950)">
    <rect id="Image_79" data-name="Image 79" width="76" height="76" rx="38" transform="translate(1436 2950)" fill="#13a0f0"/>
    <g id="noun_User_2074137" transform="translate(1431.459 2946.3)">
      <path id="Path_26" data-name="Path 26" d="M66.337,57.445v-.811A15.963,15.963,0,0,0,52.694,40.916,26.489,26.489,0,0,0,56.8,27.44a14.74,14.74,0,1,0-29.481,0,26.489,26.489,0,0,0,4.11,13.475A15.963,15.963,0,0,0,17.79,56.634v.811A7.269,7.269,0,0,0,25.045,64.7H59.082a7.269,7.269,0,0,0,7.255-7.255ZM42.064,16.132A11.323,11.323,0,0,1,53.372,27.44c0,6.814-4.746,16.921-11.309,16.921S30.755,34.255,30.755,27.44A11.323,11.323,0,0,1,42.064,16.132ZM21.431,57.445v-.811A12.336,12.336,0,0,1,32.7,44.4h1.573a11.183,11.183,0,0,0,7.793,3.4,11.253,11.253,0,0,0,7.828-3.432h1.524A12.336,12.336,0,0,1,62.71,56.634v.811a3.634,3.634,0,0,1-3.627,3.627H25.045A3.634,3.634,0,0,1,21.431,57.445Z" transform="translate(0 0)" fill="#fff" stroke="#fff" stroke-width="0.5"/>
    </g>
  </g>
</svg>
