<svg xmlns="http://www.w3.org/2000/svg" width="28" height="27.66" viewBox="0 0 28 27.66">
  <g id="noun_finance_2261767" transform="translate(-10.993 -8.242)">
    <path id="Path_3584" data-name="Path 3584" d="M20.485,83.137a.6.6,0,0,1,.6-.6h1.791a.6.6,0,0,1,.6.6v8.729a.6.6,0,0,1-.6.6H21.086a.6.6,0,0,1-.6-.6Z" transform="translate(-8.35 -65.358)" fill="#a3a6a8"/>
    <path id="Path_3585" data-name="Path 3585" d="M162.608,83.137a.6.6,0,0,1,.6-.6H165a.6.6,0,0,1,.6.6v2.578a.6.6,0,0,1-.6.6h-1.79a.6.6,0,0,1-.6-.6Z" transform="translate(-133.378 -65.358)" fill="#a3a6a8"/>
    <path id="Path_3586" data-name="Path 3586" d="M114.495,83.137a.6.6,0,0,1,.6-.6h1.791a.6.6,0,0,1,.6.6v2.578a.6.6,0,0,1-.6.6H115.1a.6.6,0,0,1-.6-.6Z" transform="translate(-91.052 -65.358)" fill="#a3a6a8"/>
    <path id="Path_3587" data-name="Path 3587" d="M66.385,83.137a.6.6,0,0,1,.6-.6h1.79a.6.6,0,0,1,.6.6v8.729a.6.6,0,0,1-.6.6h-1.79a.6.6,0,0,1-.6-.6Z" transform="translate(-48.729 -65.358)" fill="#a3a6a8"/>
    <path id="Path_3588" data-name="Path 3588" d="M11,183.58a.6.6,0,0,1,.6-.6h8.476a.6.6,0,0,1,.6.6v1.98a.6.6,0,0,1-.6.6H11.6a.6.6,0,0,1-.6-.6Z" transform="translate(-0.006 -153.719)" fill="#a3a6a8"/>
    <path id="Path_3589" data-name="Path 3589" d="M24.511,8.741a4.026,4.026,0,0,0-1.073-.5l-2.613.016a4.024,4.024,0,0,0-1.067.512l-8.592,6.2c-.268.194-.217.352.114.353l22.02.022c.331,0,.38-.155.109-.345Z" fill="#a3a6a8"/>
    <path id="Path_3590" data-name="Path 3590" d="M103.4,131.018h16.882v-1.055a1.793,1.793,0,0,0-1.788-1.787l-13.307,0a1.793,1.793,0,0,0-1.787,1.788m16.883,3.877H103.4l0,5.778a1.792,1.792,0,0,0,1.788,1.787l13.306,0a1.793,1.793,0,0,0,1.787-1.788" transform="translate(-81.291 -105.508)" fill="#a3a6a8"/>
  </g>
</svg>
