<svg xmlns="http://www.w3.org/2000/svg" width="55" height="55" viewBox="0 0 55 55">
  <g id="Group_383" data-name="Group 383" transform="translate(-1840 -1339)">
    <circle id="Ellipse_266" data-name="Ellipse 266" cx="27.5" cy="27.5" r="27.5" transform="translate(1840 1339)" fill="#13a0f0"/>
    <g id="noun_edit_3406132" transform="translate(1823.269 1344.525)">
      <g id="Group_376" data-name="Group 376" transform="translate(28.731 6.475)">
        <path id="Path_3595" data-name="Path 3595" d="M40.663,30.25a1.909,1.909,0,0,0-.263.307l7.111,7.111c.088-.088.219-.176.307-.263l12.95-12.95-7.2-7.155Z" transform="translate(-35.277 -12.548)" fill="#fff"/>
        <path id="Path_3596" data-name="Path 3596" d="M29.859,62.521l5.97-1.975a14.517,14.517,0,0,0,2.9-1.361L32.1,52.6a14.516,14.516,0,0,0-1.361,2.9l-1.975,5.97A.875.875,0,0,0,29.859,62.521Z" transform="translate(-28.731 -32.352)" fill="#fff"/>
        <path id="Path_3597" data-name="Path 3597" d="M84.131,10.788,80.575,7.232a2.518,2.518,0,0,0-3.6,0L75,9.252l7.155,7.155,1.975-1.975A2.57,2.57,0,0,0,84.131,10.788Z" transform="translate(-54.689 -6.475)" fill="#fff"/>
      </g>
    </g>
  </g>
</svg>
