<svg xmlns="http://www.w3.org/2000/svg" width="60.587" height="52.382" viewBox="0 0 60.587 52.382">
  <g id="noun_Video_Lesson_935832" data-name="noun_Video Lesson_935832" transform="translate(-0.65 -7.15)">
    <path id="Path_23" data-name="Path 23" d="M60.987,7.4H.9v39H18.252L13.776,58.045l3.066,1.165,2.146-5.579H42.9l2.146,5.579,3.066-1.165L43.635,46.4H60.987ZM41.612,50.38h-21.4L21.746,46.4H40.079Zm16.064-7.3H4.211V10.711H57.676Z" transform="translate(0 0)" fill="#fff" stroke="#13a0f0" stroke-width="0.5"/>
    <path id="Path_24" data-name="Path 24" d="M42.279,43.657A12.079,12.079,0,1,0,30.2,31.579,12.063,12.063,0,0,0,42.279,43.657Zm0-20.969a8.89,8.89,0,1,1-8.89,8.89A8.9,8.9,0,0,1,42.279,22.688Z" transform="translate(-11.335 -4.681)" fill="#fff" stroke="#13a0f0" stroke-width="0.5"/>
    <path id="Path_25" data-name="Path 25" d="M45.652,40.827a1.155,1.155,0,0,0,.491.123.856.856,0,0,0,.552-.184l5.518-3.74a.928.928,0,0,0,.429-.858,1.073,1.073,0,0,0-.429-.858l-5.518-3.617a1.058,1.058,0,0,0-1.042-.061,1.14,1.14,0,0,0-.552.92v7.419A.925.925,0,0,0,45.652,40.827Z" transform="translate(-17.1 -9.331)" fill="#fff" stroke="#13a0f0" stroke-width="0.5"/>
  </g>
</svg>
