<svg xmlns="http://www.w3.org/2000/svg" width="54.769" height="54.81" viewBox="0 0 54.769 54.81">
  <g id="noun_Calendar_1876924" transform="translate(-3.5 -4.47)">
    <g id="Group_78" data-name="Group 78" transform="translate(4 4.97)">
      <path id="Path_476" data-name="Path 476" d="M49.7,9.043H44.327V6.986a2.016,2.016,0,1,0-4.033,0V9.043H21.475V6.986a2.016,2.016,0,1,0-4.033,0V9.043H12.065A8.065,8.065,0,0,0,4,17.108V50.714a8.065,8.065,0,0,0,8.065,8.065H49.7a8.065,8.065,0,0,0,8.065-8.065V17.108A8.065,8.065,0,0,0,49.7,9.043ZM12.065,13.076h5.377v2a2.016,2.016,0,1,0,4.033,0v-2H40.294v1.989a2.016,2.016,0,1,0,4.033,0V13.076H49.7a4.033,4.033,0,0,1,4.033,4.033v4.033H8.033V17.108a4.033,4.033,0,0,1,4.033-4.033ZM49.7,54.747H12.065a4.033,4.033,0,0,1-4.033-4.033V25.174h45.7v25.54A4.033,4.033,0,0,1,49.7,54.747Z" transform="translate(-4 -4.97)" fill="#fff" stroke="#13a0f0" stroke-width="1"/>
      <path id="Path_477" data-name="Path 477" d="M41.2,26H16.214a2.2,2.2,0,1,0,0,4.409H41.2A2.2,2.2,0,0,0,41.2,26Z" transform="translate(-1.809 2.056)" fill="#fff" stroke="#13a0f0" stroke-width="1"/>
      <path id="Path_478" data-name="Path 478" d="M30.91,33h-14.7a2.2,2.2,0,0,0,0,4.409h14.7a2.2,2.2,0,1,0,0-4.409Z" transform="translate(-1.158 4.394)" fill="#fff" stroke="#13a0f0" stroke-width="1"/>
    </g>
  </g>
</svg>
