<svg xmlns="http://www.w3.org/2000/svg" width="28.08" height="28" viewBox="0 0 28.08 28">
  <g id="noun_Image_3565539" transform="translate(-15 -15.099)">
    <g id="Group_108" data-name="Group 108" transform="translate(15 15.099)">
      <g id="Group_107" data-name="Group 107">
        <g id="Group_106" data-name="Group 106">
          <path id="Path_664" data-name="Path 664" d="M38.125,43.1H20.074A4.973,4.973,0,0,1,15.1,38.125V20.073A4.973,4.973,0,0,1,20.074,15.1H38.125a4.957,4.957,0,0,1,5.014,4.974V38.125A4.982,4.982,0,0,1,38.125,43.1ZM20.074,17.426a2.6,2.6,0,0,0-2.607,2.607V38.084a2.6,2.6,0,0,0,2.607,2.607H38.125a2.6,2.6,0,0,0,2.607-2.607V20.033a2.6,2.6,0,0,0-2.607-2.607H20.074Z" transform="translate(-15.06 -15.099)" fill="#a3a6a8"/>
          <path id="Path_665" data-name="Path 665" d="M16.2,53.818a1.207,1.207,0,0,1-1.2-1.2,1.155,1.155,0,0,1,.361-.842l7.9-7.9a1.163,1.163,0,0,1,1.685,0h0l3.089,3.089,6.1-6.1a1.163,1.163,0,0,1,1.685,0h0l6.859,6.859a1.192,1.192,0,0,1-1.685,1.685l-6.017-6.017-6.057,6.1a1.163,1.163,0,0,1-1.685,0L24.146,46.4l-7.1,7.06A1.092,1.092,0,0,1,16.2,53.818Z" transform="translate(-15 -30.311)" fill="#a3a6a8"/>
          <circle id="Ellipse_6" data-name="Ellipse 6" cx="1.885" cy="1.885" r="1.885" transform="translate(11.112 6.579)" fill="#a3a6a8"/>
        </g>
      </g>
    </g>
  </g>
</svg>
