<svg xmlns="http://www.w3.org/2000/svg" width="18.928" height="18.924" viewBox="0 0 18.928 18.924">
  <g id="comp_x5F_173-instagram" transform="translate(-26.001 -26.053)">
    <g id="Group_20" data-name="Group 20" transform="translate(26.001 26.053)">
      <path id="Path_327" data-name="Path 327" d="M35.467,30.663a4.852,4.852,0,1,0,4.852,4.852A4.844,4.844,0,0,0,35.467,30.663Zm0,8.006a3.154,3.154,0,1,1,3.154-3.154,3.16,3.16,0,0,1-3.154,3.154Zm6.182-8.2a1.132,1.132,0,1,1-1.132-1.132A1.129,1.129,0,0,1,41.649,30.464Zm3.213,1.149a5.241,5.241,0,0,0-5.494-5.494c-1.562-.089-6.245-.089-7.808,0a5.235,5.235,0,0,0-5.494,5.49c-.089,1.562-.089,6.245,0,7.808a5.241,5.241,0,0,0,5.494,5.494c1.562.089,6.245.089,7.808,0a5.241,5.241,0,0,0,5.494-5.494C44.951,37.854,44.951,33.175,44.863,31.613Zm-2.018,9.48a3.194,3.194,0,0,1-1.8,1.8c-1.246.494-4.2.38-5.578.38s-4.337.11-5.578-.38a3.193,3.193,0,0,1-1.8-1.8c-.494-1.246-.38-4.2-.38-5.578s-.11-4.337.38-5.578a3.193,3.193,0,0,1,1.8-1.8c1.246-.494,4.2-.38,5.578-.38s4.337-.11,5.578.38a3.193,3.193,0,0,1,1.8,1.8c.494,1.246.38,4.2.38,5.578S43.338,39.852,42.844,41.093Z" transform="translate(-26.001 -26.053)" fill="#818181"/>
    </g>
  </g>
</svg>
