<svg xmlns="http://www.w3.org/2000/svg" width="48" height="48" viewBox="0 0 48 48">
  <g id="Group_383" data-name="Group 383" transform="translate(-635 -542)">
    <g id="Ellipse_279" data-name="Ellipse 279" transform="translate(635 542)" fill="#fff" stroke="#000" stroke-width="2">
      <circle cx="24" cy="24" r="24" stroke="none"/>
      <circle cx="24" cy="24" r="23" fill="none"/>
    </g>
    <g id="iconfinder_38-instagram_1161953" transform="translate(641.6 547.2)">
      <path id="Path_3606" data-name="Path 3606" d="M22.557,16.7a7.157,7.157,0,1,0,7.157,7.157A7.17,7.17,0,0,0,22.557,16.7Zm0,11.741a4.585,4.585,0,1,1,4.585-4.585A4.605,4.605,0,0,1,22.557,28.441Z" transform="translate(-5.291 -5.247)"/>
      <circle id="Ellipse_276" data-name="Ellipse 276" cx="1.621" cy="1.621" r="1.621" transform="translate(23.081 9.664)"/>
      <path id="Path_3607" data-name="Path 3607" d="M28.9,7.092A7.963,7.963,0,0,0,23.025,4.8H11.507C6.643,4.8,3.4,8.043,3.4,12.907V24.369a8.045,8.045,0,0,0,2.348,5.982,8.159,8.159,0,0,0,5.815,2.181H22.969a8.256,8.256,0,0,0,5.871-2.181,8,8,0,0,0,2.292-5.927V12.907A8.015,8.015,0,0,0,28.9,7.092Zm-.224,17.332a5.463,5.463,0,0,1-1.621,4.081,5.779,5.779,0,0,1-4.081,1.454H11.563a5.779,5.779,0,0,1-4.081-1.454,5.62,5.62,0,0,1-1.51-4.137V12.907a5.574,5.574,0,0,1,1.51-4.081,5.686,5.686,0,0,1,4.081-1.454H23.081a5.574,5.574,0,0,1,4.081,1.51,5.769,5.769,0,0,1,1.51,4.026V24.425Z" transform="translate(0 0)"/>
    </g>
  </g>
</svg>
