<svg xmlns="http://www.w3.org/2000/svg" width="57.999" height="57.999" viewBox="0 0 57.999 57.999">
  <g id="noun_knowledge_1973984" transform="translate(-5 -5)">
    <path id="Path_3017" data-name="Path 3017" d="M56.632,25.927c.34-7.381-6.9-11.849-13.843-7.918a19.788,19.788,0,0,0-2.9-10.287l-1.58,1.044A18.058,18.058,0,0,1,40.9,18.032c-6.959-3.972-14.225.5-13.885,7.9.4,8.7,7.993,20.031,14.81,15.26C48.64,45.958,56.231,34.628,56.632,25.927Z" transform="translate(-7.822 -0.968)" fill="#13a0f0"/>
    <path id="Path_3018" data-name="Path 3018" d="M59.119,12.209c3.361-2.084,3.589-5.312,5.472-6.91-4.725-.606-7.335-.375-9.54,1.5a6.529,6.529,0,0,0-2.5,5.686,6.743,6.743,0,0,0,6.571-.272Z" transform="translate(-16.899)" fill="#13a0f0"/>
    <path id="Path_3019" data-name="Path 3019" d="M75.208,49.731c-.968,5.968-11.986,11.6-6.884,5.393,4.934-6,.71-9.456-1.193-5.6-1.7,3.432-4.768,3.768-8.51,9.037-2.466,3.473-3.151,5.04-3.013,8.611a48.907,48.907,0,0,1-.664,7.955h9.593c.3-3.182-.049-4.9.3-5.029,4.362-1.568,9.3-6.77,12.6-12.408A21.947,21.947,0,0,0,80.178,51.7c.7-2.546-.216-6.751.5-10.491C81.4,37.4,77.121,37.943,75.208,49.731Z" transform="translate(-17.758 -12.126)" fill="#13a0f0"/>
    <path id="Path_3020" data-name="Path 3020" d="M30.15,67.169c.138-3.571-.547-5.138-3.013-8.611-3.742-5.269-6.815-5.605-8.51-9.037-1.9-3.854-6.127-.4-1.193,5.6,5.1,6.206-5.916.576-6.884-5.393C8.636,37.943,4.355,37.4,5.082,41.21c.714,3.74-.206,7.945.5,10.491a21.948,21.948,0,0,0,2.746,5.988c3.3,5.637,8.234,10.839,12.6,12.408.348.125,0,1.846.3,5.029h9.593A48.918,48.918,0,0,1,30.15,67.169Z" transform="translate(0 -12.126)" fill="#13a0f0"/>
  </g>
</svg>
