<svg xmlns="http://www.w3.org/2000/svg" width="521" height="317.792" viewBox="0 0 521 317.792">
  <g id="lesson-created-graphics" transform="translate(-0.01 -55.147)">
    <path id="Path_1899" data-name="Path 1899" d="M390.807,528.906H95.278a9.127,9.127,0,0,1-8.881-7.04L40.976,330.325a9.127,9.127,0,0,1,8.881-11.235H345.391a9.128,9.128,0,0,1,8.881,7.04l45.421,191.556a9.132,9.132,0,0,1-8.886,11.219Z" transform="translate(-40.72 -166.955)" fill="#515151"/>
    <path id="Path_1900" data-name="Path 1900" d="M406.557,528.906H104.963a6.175,6.175,0,0,1-6.01-4.753L52.134,326.694a6.176,6.176,0,0,1,6.035-7.6H359.753a6.186,6.186,0,0,1,6.035,4.752L412.556,521.3a6.175,6.175,0,0,1-6,7.6Z" transform="translate(-46.306 -166.955)"/>
    <path id="Path_1901" data-name="Path 1901" d="M373.2,500.943H85.5L43.5,320.39H331.2Z" transform="translate(-21.619 -157.549)" fill="#13a0f0"/>
    <path id="Path_1902" data-name="Path 1902" d="M84.22,340.38l42,180.538h147.9C237.189,484.267,84.22,340.38,84.22,340.38Z" transform="translate(-62.339 -177.539)" fill="#2195d6"/>
    <path id="Path_1903" data-name="Path 1903" d="M110.8,707.32H569.73a3.983,3.983,0,0,1,3.983,3.983v7.543a3.983,3.983,0,0,1-3.983,3.983H110.8a4.772,4.772,0,0,1-4.772-4.772v-5.964A4.772,4.772,0,0,1,110.8,707.32Z" transform="translate(-52.704 -349.895)"/>
    <path id="Path_1904" data-name="Path 1904" d="M97.8,707.32H250.043a3.918,3.918,0,0,1,3.917,3.917v7.679a3.917,3.917,0,0,1-3.917,3.917H97.8a4.772,4.772,0,0,1-4.8-4.777v-5.964a4.772,4.772,0,0,1,4.8-4.772Z" transform="translate(-46.226 -349.895)" fill="#13a0f0"/>
    <path id="Path_1905" data-name="Path 1905" d="M196.477,742.763H180.3a3.339,3.339,0,0,1-3.334-3.329h0A3.339,3.339,0,0,1,180.3,736.1h16.173a3.339,3.339,0,0,1,3.334,3.334h0A3.339,3.339,0,0,1,196.477,742.763Z" transform="translate(-108.446 -374.255)" fill="#fff"/>
    <path id="Path_1906" data-name="Path 1906" d="M246.012,738.781a3.334,3.334,0,1,1-2.615-2.615,3.334,3.334,0,0,1,2.615,2.615Z" transform="translate(-139.485 -374.255)" fill="#fff"/>
    <path id="Path_1907" data-name="Path 1907" d="M265.882,738.781a3.334,3.334,0,1,1-2.615-2.615A3.334,3.334,0,0,1,265.882,738.781Z" transform="translate(-149.363 -374.255)" fill="#fff"/>
    <path id="Path_1908" data-name="Path 1908" d="M780.619,742.7H704.97a1.669,1.669,0,0,1-1.67-1.665h0a1.67,1.67,0,0,1,1.67-1.67h75.65a1.67,1.67,0,0,1,1.67,1.67h0A1.67,1.67,0,0,1,780.619,742.7Z" transform="translate(-370.09 -375.88)" fill="#13a0f0"/>
    <path id="Path_1910" data-name="Path 1910" d="M148.683,659.77l-17.9,11.848,17.863,11.9Z" transform="translate(-65.007 -326.258)" fill="#c1c1c1"/>
    <path id="Path_1911" data-name="Path 1911" d="M135.869,676.63,130.78,680l5.074,3.379Z" transform="translate(-65.007 -334.639)" fill="#fff"/>
    <rect id="Rectangle_871" data-name="Rectangle 871" width="23.752" height="38.853" rx="9.66" transform="translate(182.053 333.666) rotate(90.1)"/>
    <rect id="Rectangle_872" data-name="Rectangle 872" width="7.915" height="65.647" transform="translate(83.667 341.448) rotate(-89.9)" fill="#515151"/>
    <rect id="Rectangle_873" data-name="Rectangle 873" width="7.915" height="65.647" transform="translate(83.657 349.362) rotate(-89.9)" fill="#373737"/>
    <rect id="Rectangle_874" data-name="Rectangle 874" width="7.915" height="65.647" transform="translate(83.642 357.281) rotate(-89.9)"/>
    <rect id="Rectangle_875" data-name="Rectangle 875" width="23.752" height="4.793" transform="translate(151.115 333.611) rotate(90.1)" fill="#c1c1c1"/>
    <path id="Path_1912" data-name="Path 1912" d="M198.073,404.9H99.411L84.53,352.7h98.657Z" transform="translate(-42.016 -173.61)" fill="#fff"/>
    <path id="Path_1913" data-name="Path 1913" d="M226.529,424.771H209.722c-7.543,0-15.419-6.035-17.516-13.372l-1.6-5.617c-2.1-7.357,2.354-13.372,9.892-13.372h16.807c7.543,0,15.419,6.035,17.516,13.372l1.6,5.607C238.517,418.751,234.067,424.771,226.529,424.771Z" transform="translate(-114.968 -203.403)" fill="#13a0f0"/>
    <path id="Path_1914" data-name="Path 1914" d="M223.324,407.04l12.894,7.287c.84.473,1.152,1.478.619,2.012l-8.509,8.1c-.649.624-2.012.045-2.308-.976l-4.4-15.414C221.353,407.06,222.329,406.472,223.324,407.04Z" transform="translate(-130.622 -210.566)" fill="#f2f2f2"/>
    <path id="Path_1915" data-name="Path 1915" d="M363.174,587.557h77.6L436.526,612.9h3.455l16.862-100.578a11.873,11.873,0,0,0-11.707-13.835H384.7a11.833,11.833,0,0,0-11.707,9.907L355.47,613.561h3.46ZM363.6,585l12.753-76.057a8.434,8.434,0,0,1,8.343-7.04h60.437a8.464,8.464,0,0,1,8.343,9.862L441.2,585Z" transform="translate(-197.18 -256.137)" fill="#fff"/>
    <path id="Path_1916" data-name="Path 1916" d="M337.64,405.976h87.252l28.469-154.2H376.478S357.58,369.064,337.64,405.976Z" transform="translate(-188.317 -133.495)" fill="#515151"/>
    <path id="Path_1917" data-name="Path 1917" d="M333.56,388.928h88.856L442.949,231.79H354.093Z" transform="translate(-165.811 -113.505)"/>
    <path id="Path_1918" data-name="Path 1918" d="M496.05,388.928H404.4L375.19,231.79h91.647Z" transform="translate(-186.506 -113.505)" fill="#858585"/>
    <path id="Path_1919" data-name="Path 1919" d="M485.814,585.073,467.358,474.939a11.863,11.863,0,0,1,11.707-13.829h60.447a11.828,11.828,0,0,1,11.707,9.907l18.466,110.128a11.873,11.873,0,0,1-11.707,13.835H497.521A11.833,11.833,0,0,1,485.814,585.073ZM479.065,464.54a8.449,8.449,0,0,0-8.343,9.857l18.456,110.133a8.433,8.433,0,0,0,8.343,7.041h60.438a8.464,8.464,0,0,0,8.343-9.862L547.845,471.615a8.428,8.428,0,0,0-8.343-7.04Z" transform="translate(-252.719 -237.555)" fill="#fff"/>
    <path id="Path_1920" data-name="Path 1920" d="M415.68,251.78h93.326s21.217,114.795,41.554,152.451H456.605C438.471,366.459,418.994,271.529,415.68,251.78Z" transform="translate(-227.111 -133.495)" fill="#f2f2f2"/>
    <path id="Path_1921" data-name="Path 1921" d="M415.66,242.14h93.507c1.388,0,2.514,1.861,2.514,4.154s-.785,4.159-2.514,4.159H415.66Z" transform="translate(-227.101 -128.703)" fill="#8db0da"/>
    <path id="Path_1922" data-name="Path 1922" d="M415.683,246.189c0,2.293-.9,4.154-2.012,4.154s-2.012-1.861-2.012-4.154.9-4.159,2.012-4.159S415.683,243.891,415.683,246.189Z" transform="translate(-225.113 -128.648)" fill="#2c2b57"/>
    <path id="Path_1923" data-name="Path 1923" d="M512.253,327.409c.5-.1.966-.181,1.458-.236,9.771-1.1,18.718,7.191,19.613,15.087.362,3.218-.981,5.9-2.012,8.856-1.177,3.3-2.218,6.648-3.314,9.977-.5,1.549-1.428,3.319-1.509,4.933a5.4,5.4,0,0,0,.03.754l-16.435,1.846a6.468,6.468,0,0,0-.694-1.785c-3.017-5.064-6.035-10.133-9.268-15.057C493.877,342.315,502.09,329.552,512.253,327.409Z" transform="translate(-268.009 -170.925)" fill="#ccedff"/>
    <path id="Path_1924" data-name="Path 1924" d="M517.32,372.882a4.238,4.238,0,0,0,4.063.1,26.579,26.579,0,0,1,.729,3.118c.116.6.226,1.157.347,1.649l2.218,8.962.795-.2-2.223-8.962c-.116-.468-.221-1.006-.332-1.6a26.66,26.66,0,0,0-.795-3.319,14.232,14.232,0,0,0,2.776-2.012h0a9.109,9.109,0,0,0,.714-.608l.2.116a13.411,13.411,0,0,0,3.892,1.665v.332c-.055,1.132-.08,2.278-.1,3.384l-.2,10.561h.815l.2-10.561c.025-1.1.045-2.243.1-3.354v-.241a6.694,6.694,0,0,0,1.735-.03,3.681,3.681,0,0,0,2.052-.935,2.268,2.268,0,0,0,.624-2.283,2.238,2.238,0,0,0-2.66-1.277,3.34,3.34,0,0,0-2.1,2.012,6.092,6.092,0,0,0-.387,1.564,12.831,12.831,0,0,1-3.55-1.544l-.04-.025a8.614,8.614,0,0,0,1.006-1.418,3.616,3.616,0,0,0,.5-1.7,2.369,2.369,0,0,0-4.481-1.071,3.018,3.018,0,0,0,.362,3.017,5.532,5.532,0,0,0,1.348,1.3c-.191.171-.392.332-.6.5h0a13.356,13.356,0,0,1-2.514,1.79,5.249,5.249,0,0,0-1.639-2.253,2.64,2.64,0,0,0-2.685-.3,1.961,1.961,0,0,0-.171,3.621Zm13.261-1.75a5.225,5.225,0,0,1,.337-1.393,2.514,2.514,0,0,1,1.554-1.509,1.562,1.562,0,0,1,.211-.04,1.388,1.388,0,0,1,1.463.795,1.418,1.418,0,0,1-.422,1.433,2.882,2.882,0,0,1-1.6.714A5.636,5.636,0,0,1,530.581,371.132Zm-6.346-3.329a2.2,2.2,0,0,1-.3-2.2,1.619,1.619,0,0,1,1.242-.835,1.535,1.535,0,0,1,.5.03,1.609,1.609,0,0,1,1.192,1.509,2.812,2.812,0,0,1-.417,1.313,7.607,7.607,0,0,1-.961,1.368,4.827,4.827,0,0,1-1.257-1.182Zm-7.206,3.259a1.323,1.323,0,0,1,.82-1.006,1.816,1.816,0,0,1,1.861.211,4.526,4.526,0,0,1,1.388,1.951,3.516,3.516,0,0,1-3.329,0A1.318,1.318,0,0,1,517.028,371.062Z" transform="translate(-277.08 -189.231)" fill="#fff"/>
    <path id="Path_1925" data-name="Path 1925" d="M521.82,407.216l16.5-1.856a6.826,6.826,0,0,0,.07.769c.282,2.273,1.172,5.1.357,7.3s-2.595,6.653-5.436,6.975l-3.3.367c-2.791.312-6.648-4.179-7.367-6.6a5.683,5.683,0,0,1-.171-1.006A37.123,37.123,0,0,0,521.82,407.216Z" transform="translate(-279.875 -209.841)" fill="#13a0f0"/>
    <path id="Path_1926" data-name="Path 1926" d="M586.714,368.264a.538.538,0,0,0,.392-.5.548.548,0,0,0-.5-.583l-9.816-.669a.544.544,0,1,0-.07,1.086l9.811.669A.463.463,0,0,0,586.714,368.264Z" transform="translate(-306.911 -190.527)" fill="#13a0f0"/>
    <path id="Path_1927" data-name="Path 1927" d="M572.455,332.3a.4.4,0,0,0,.126-.055l9.183-5.466a.543.543,0,1,0-.558-.93l-9.178,5.466a.541.541,0,0,0,.427.986Z" transform="translate(-304.702 -170.27)" fill="#13a0f0"/>
    <path id="Path_1928" data-name="Path 1928" d="M555.933,312.388a.543.543,0,0,0,.342-.292l4.134-8.921a.543.543,0,1,0-.986-.458l-4.134,8.921a.543.543,0,0,0,.644.749Z" transform="translate(-296.486 -158.659)" fill="#13a0f0"/>
    <path id="Path_1929" data-name="Path 1929" d="M521.593,310.475a.543.543,0,0,0,.372-.669l-2.751-9.585a.544.544,0,1,0-1.046.3l2.751,9.58a.538.538,0,0,0,.674.372Z" transform="translate(-278.049 -157.379)" fill="#13a0f0"/>
    <path id="Path_1930" data-name="Path 1930" d="M491.744,327.3a.568.568,0,0,0,.307-.226.548.548,0,0,0-.156-.754l-8.489-5.577a.545.545,0,0,0-.6.91l8.489,5.577A.548.548,0,0,0,491.744,327.3Z" transform="translate(-260.359 -167.732)" fill="#13a0f0"/>
    <path id="Path_1931" data-name="Path 1931" d="M478.95,358.446a.543.543,0,0,0-.221-1.061L469,358.667a.546.546,0,0,0,.146,1.081l9.721-1.287Z" transform="translate(-253.384 -185.989)" fill="#13a0f0"/>
    <path id="Path_1932" data-name="Path 1932" d="M200.114,165.68l.055.759a59.875,59.875,0,0,0-6.693.91l-.141-.744a60.1,60.1,0,0,1,6.779-.925Zm-13.422,2.514.216.729c-2.117.629-4.27,1.373-6.4,2.218l-.282-.709c2.147-.825,4.325-1.574,6.477-2.213Zm-12.708,5.029.337.684c-2.012,1.006-4.023,2.077-5.959,3.224l-.387-.654c1.956-1.157,3.978-2.248,6.01-3.249Zm-11.753,6.955.437.624c-1.6,1.121-3.163,2.293-4.637,3.485l-.754.619-.5-.588c.251-.206.5-.417.759-.619,1.514-1.2,3.083-2.384,4.7-3.515Zm6.271,8.695a25.23,25.23,0,0,1,5.964,3.178l-.443.619a24.586,24.586,0,0,0-5.788-3.083l-.116-.045.262-.714Zm-6.824-1.584-.08.759a30.882,30.882,0,0,0-6.709.04l-.085-.759A32.422,32.422,0,0,1,161.678,187.289Zm17.7,9.6a28.586,28.586,0,0,1,3.435,5.964l-.7.3a27.835,27.835,0,0,0-3.339-5.8ZM151.791,189l.558.5a32.274,32.274,0,0,0-4.073,5.336l-.654-.392A33.3,33.3,0,0,1,151.791,189Zm-3.7-.251.226.729a37.034,37.034,0,0,0-6.211,2.585l-.357-.674a38.186,38.186,0,0,1,6.341-2.64ZM184.8,209.442a25.144,25.144,0,0,1,.267,6.88l-.759-.08a24.178,24.178,0,0,0-.256-6.668Zm-48.78-14.282.473.593a40.3,40.3,0,0,0-4.873,4.642l-.568-.5a41.086,41.086,0,0,1,4.958-4.732Zm9.691,5.834a21.207,21.207,0,0,0-.458,6.638l-.759.06a22.262,22.262,0,0,1,.473-6.875Zm36.751,21.624.679.347a16.179,16.179,0,0,1-4.4,5.336l-.468-.6a15.815,15.815,0,0,0,2.062-1.951,15.284,15.284,0,0,0,2.117-3.143Zm-55.574-17.274.639.412a51.148,51.148,0,0,0-3.289,5.894l-.684-.327a51.442,51.442,0,0,1,3.334-5.979Zm19.8,8.816a28.53,28.53,0,0,0,3.017,5.989l-.639.417a29.314,29.314,0,0,1-3.093-6.15Zm25.673,16.515.206.729a17.435,17.435,0,0,1-6.89.5l.1-.754a16.751,16.751,0,0,0,6.588-.478Zm-18.34-5.4a24.3,24.3,0,0,0,5.451,3.857l-.347.674a25.084,25.084,0,0,1-5.622-3.973Zm-32.291-7.357a61.19,61.19,0,0,0-1.805,6.512l-.744-.161a64.032,64.032,0,0,1,1.825-6.6ZM118.817,231.1c-.131,1.116-.226,2.238-.3,3.339s-.116,2.288-.136,3.415h-.764c0-1.137.07-2.293.141-3.445s.171-2.253.3-3.379Zm-.282,13.523c.146,2.243.387,4.526.719,6.729l-.754.116c-.332-2.248-.573-4.526-.724-6.794ZM120.522,258c.5,2.193,1.121,4.39,1.805,6.538l-.724.231c-.689-2.157-1.3-4.37-1.82-6.583Z" transform="translate(-78.943 -90.694)" fill="#13a0f0"/>
    <path id="Path_1933" data-name="Path 1933" d="M991.743,285.567a.473.473,0,0,0-.317.382.136.136,0,0,0,0,.065c0,.045.08.055.126.07a.925.925,0,0,1,.5.6c.05.126.1.256.156.382a.64.64,0,0,0,.106.2.759.759,0,0,0,.463.221.5.5,0,0,0,.427-.035c.151-.121.1-.342.045-.5a2.142,2.142,0,0,0-.619-1.061C992.432,285.713,992.024,285.466,991.743,285.567Z" transform="translate(-513.318 -150.279)" fill="#ffaa81"/>
    <path id="Path_1934" data-name="Path 1934" d="M991.024,315.98a46.456,46.456,0,0,0-2.912-7.85c-1.624-3.762-6.5-11.38-8.851-15.67.166.317-4.023,1.69-3.953,1.82,1.946,4.7,6.306,16.5,6.176,20.181a.5.5,0,0,1-.659.5c-9.349-3.752-18.456-8.137-27.558-12.442l-4.023-1.9a11.365,11.365,0,0,0,.7,6.794c1.634,4.109,5.693,8.192,5.693,8.192a59.192,59.192,0,0,0,10.3,5.084c2.429.925,17.576,5.376,21.468,4.023C991.788,323.131,991.542,318.882,991.024,315.98Z" transform="translate(-492.237 -153.717)" fill="#13a0f0"/>
    <path id="Path_1935" data-name="Path 1935" d="M1000.764,284.889c0-.191.045-.382.06-.573a3.465,3.465,0,0,0-.458-1.79,23.682,23.682,0,0,0-1.277-2.328,1.927,1.927,0,0,0-.769-.784.87.87,0,0,0-1.091.367.969.969,0,0,0-1.474.307c-.186-.236-.362-.3-.855-.045a1.217,1.217,0,0,0-.473.614.87.87,0,0,0-1.076.327,2.755,2.755,0,0,0-.287,1.549,7.336,7.336,0,0,0,.5,1.8,6.63,6.63,0,0,0,.377.865c.126.241.241.553.5.654s.553.055.83.141a2.258,2.258,0,0,1,1.061.553,3.427,3.427,0,0,1,.865,1.081c.055.156.146.5.422.558a5.3,5.3,0,0,0,3.656-1.624.734.734,0,0,0-.1-.619,2.419,2.419,0,0,1-.417-1.046Z" transform="translate(-514.127 -147.197)" fill="#ffaa81"/>
    <path id="Path_1936" data-name="Path 1936" d="M997.737,276.929l-9.4,2.565a1.82,1.82,0,0,1-2.233-1.222l-1.318-4.6a1.765,1.765,0,0,1,1.257-2.178l9.379-2.565a1.82,1.82,0,0,1,2.233,1.222l1.318,4.6a1.76,1.76,0,0,1-1.237,2.178Zm-11.335-4.2a.5.5,0,0,0-.342.593l1.318,4.6a.5.5,0,0,0,.608.332l9.4-2.555a.5.5,0,0,0,.342-.593l-1.318-4.6a.5.5,0,0,0-.609-.337Z" transform="translate(-509.988 -141.988)" fill="#fe912a"/>
    <path id="Path_1937" data-name="Path 1937" d="M979.592,217.52l-2.173,1.132L982.685,237l2.454-.146Z" transform="translate(-485.88 -106.411)" fill="#fcbd24"/>
    <path id="Path_1938" data-name="Path 1938" d="M964.506,272.753a15.816,15.816,0,0,1-1.006-2.69,16.06,16.06,0,0,1-.578-2.811c-.05-.609,0-1.006.151-1.061l-.82.282c-.342.116-.146,1.826.427,3.817s1.313,3.55,1.665,3.475l.85-.186C965.06,273.638,964.783,273.3,964.506,272.753Z" transform="translate(-498.734 -140.658)" fill="#f8c22e"/>
    <path id="Path_1939" data-name="Path 1939" d="M965.466,269.75c.588,2.057.785,3.787.443,3.862s-1.086-1.509-1.665-3.52-.785-3.747-.458-3.857S964.873,267.688,965.466,269.75Z" transform="translate(-499.503 -140.677)" fill="#fe912a"/>
    <path id="Path_1940" data-name="Path 1940" d="M964.51,267.616l.835,2.917a15.135,15.135,0,0,1-.593-3.042Z" transform="translate(-499.94 -141.304)" fill="#fe912a"/>
    <path id="Path_1941" data-name="Path 1941" d="M967.09,276.758h.357a13.112,13.112,0,0,1-1.277-3.178Z" transform="translate(-500.765 -144.332)" fill="#fe912a"/>
    <path id="Path_1942" data-name="Path 1942" d="M989.471,243,966.68,254.888v.362a15.9,15.9,0,0,0,.583,2.882,16.381,16.381,0,0,0,1.006,2.756,3.675,3.675,0,0,0,.372.6l3.737-.226,16.258-.976,5.632-.342a49.726,49.726,0,0,1-4.8-16.947Z" transform="translate(-501.019 -129.13)" fill="#f8c22e"/>
    <path id="Path_1943" data-name="Path 1943" d="M974.7,260.41l-.161.086-3.8,1.981v.412a21.339,21.339,0,0,0,1.846,6.427,4.441,4.441,0,0,0,.422.689l4.26-.256A26.407,26.407,0,0,1,974.7,260.41Z" transform="translate(-503.037 -137.785)" fill="#fe912a"/>
    <path id="Path_1944" data-name="Path 1944" d="M1015.088,239.76,1012,241.389a49.727,49.727,0,0,0,4.843,16.947l3.52-.211Z" transform="translate(-523.548 -127.519)" fill="#fe912a"/>
    <path id="Path_1945" data-name="Path 1945" d="M966.463,269.854a15.907,15.907,0,0,1-.583-2.882q0-.2,0-.362l-.07.035-.779.407a15.132,15.132,0,0,0,.593,3.043,13.116,13.116,0,0,0,1.277,3.178l.794-.05h.191a3.67,3.67,0,0,1-.372-.6,16.377,16.377,0,0,1-1.051-2.766Z" transform="translate(-500.198 -140.867)" fill="#f8c22e"/>
    <path id="Path_1946" data-name="Path 1946" d="M980.16,210.235l.553,1.916.241.845,5.547,19.336.417,1.458.372,1.3,4.612-.649-.684-2.4-6.09-21.227-.689-2.4Z" transform="translate(-487.242 -101.887)" fill="#f8c22e"/>
    <path id="Path_1947" data-name="Path 1947" d="M1026.666,243.465c2.042,7.106,2.117,13.075.241,13.352s-4.772-4.928-6.673-11.567-2.137-12.572-.458-13.286S1024.629,236.359,1026.666,243.465Z" transform="translate(-526.853 -123.611)" fill="#f8c22e"/>
    <path id="Path_1948" data-name="Path 1948" d="M1035.517,240.334c2.137,7.453,2.142,13.739.08,14.026-1.981.277-5.144-5.129-7.136-12.069s-2.167-13.176-.332-13.955S1033.379,232.881,1035.517,240.334Z" transform="translate(-530.932 -121.802)" fill="#f8c22e"/>
    <path id="Path_1949" data-name="Path 1949" d="M1035.5,241.057c2.011,6.945,2.4,12.753.94,12.975s-4.068-4.974-5.964-11.566-2.384-12.386-1.066-12.934S1033.505,234.117,1035.5,241.057Z" transform="translate(-531.832 -122.414)" fill="#f0a32f"/>
    <path id="Path_1950" data-name="Path 1950" d="M999.582,282.4a6.488,6.488,0,0,0-.453-1.6c0-.04-.04-.08-.055-.121a18.253,18.253,0,0,1-5.783,1.79.035.035,0,0,0,0,.025,1.188,1.188,0,0,1-.1.6,11.882,11.882,0,0,0,.81,1.383,1.734,1.734,0,0,0,.714.7.82.82,0,0,0,1.006-.327.915.915,0,0,0,1.363-.277c.176.216.337.272.789.045.091-.045.417-.347.438-.548a.83.83,0,0,0,1.006-.292A2.358,2.358,0,0,0,999.582,282.4Z" transform="translate(-514.197 -147.861)" fill="#ffaa81"/>
    <path id="Path_1951" data-name="Path 1951" d="M956.7,433.361s-2.877,48.464-4.209,60.166-3.852,70.666-3.852,70.666l-3.822,1.318-3.475-1.318s-2.464-43.128-3.721-52.507-6.155-62.459-6.507-71.888S948.958,402.051,956.7,433.361Z" transform="translate(-483.336 -216.63)"/>
    <path id="Path_1952" data-name="Path 1952" d="M920.367,436.407S915,480.078,912.98,491.675s-8.62,72.064-8.62,72.064l-2.887,1.911-2.892-.951s-.825-48.373-1.509-57.807-1.006-64.908-.789-74.347S914.5,404.725,920.367,436.407Z" transform="translate(-465.991 -216.427)"/>
    <path id="Path_1953" data-name="Path 1953" d="M928.744,298.29c-1.2.266-2.424.3-3.576.528a12.533,12.533,0,0,1-3.415.342c0-1.916-.126-4.023-.075-5.773,2.318,1.619,4.742.729,7.1-.377C928.724,294.73,928.678,296.555,928.744,298.29Z" transform="translate(-478.642 -153.991)" fill="#ffaa81"/>
    <path id="Path_1954" data-name="Path 1954" d="M897.719,359.262c2.374-9.052,3.163-21,1.036-27.659-4.239-13.3-2.082-22.69,4.878-26.749a23.341,23.341,0,0,1,4.264-1.946c.126-.307.241-.614.337-.93a10.65,10.65,0,0,0,.427-2.55c0-.432,1.157,0,1.479,0a16.987,16.987,0,0,0,1.82.156,14.826,14.826,0,0,0,4.526-.674,9.678,9.678,0,0,0,.744,3.123v.045a22.313,22.313,0,0,1,9.138,3.842c7.9,7.277,4.908,21.3,9.1,39.648,5.029,21.906,3.792,28.086,3.792,28.086s-29.042,5.919-43.073-.593A42.258,42.258,0,0,1,897.719,359.262Z" transform="translate(-465.938 -156.923)" fill="#13a0f0"/>
    <path id="Path_1955" data-name="Path 1955" d="M913.769,379.116c-7.161-5.477-9.334-13.578-9.369-22.258,0-3.52.332-7.071.5-10.6a20.22,20.22,0,0,0-.875-8.388c-1.981-7.624-4.526-15.529-2.932-23.379-4.9,4.727-6.035,13.312-2.359,24.838,2.127,6.683,1.338,18.642-1.036,27.659-2.183,8.333-1.509,13.8-1.509,13.8,6.814,3.163,17.159,3.389,26,2.791a32.848,32.848,0,0,1-8.428-4.461Z" transform="translate(-465.93 -164.668)" fill="#2195d6"/>
    <path id="Path_1956" data-name="Path 1956" d="M927.486,249.174a53.846,53.846,0,0,0,.563,8.589c.659,3.812,2.308,13.3-4.179,13.719s-9.555-.136-11.039-1.755-7.086-11.5-4.34-16.6S922.87,241.022,927.486,249.174Z" transform="translate(-471.722 -130.345)" fill="#ffaa81"/>
    <path id="Path_1957" data-name="Path 1957" d="M904.89,251.836c0-2.851,1.006-6.191,3.737-7.04.6-.186,2.1-2.967,2.786-3.555a11.415,11.415,0,0,1,4.2-2.293c2.188-.654,5.718-1.212,7.976-.5a5.718,5.718,0,0,1,3.9,4.762c.5,4.023-3.2,4.581-6.326,4.561a15.639,15.639,0,0,0-5.572.744,6.507,6.507,0,0,0-3.983,3.747,10.04,10.04,0,0,0,.09,5.129,20.005,20.005,0,0,0,1.619,3.651,3.887,3.887,0,0,0,3.128.86c1.629-.2,6.849-2.012,9.666-1.544l.845-.236a.845.845,0,0,1,.7,0c.629.427.649,2.389.422,3.1a5.939,5.939,0,0,1-1.081,1.82c-1.152,1.906-2.972,2.585-5.195,2.826-1.388.151-3.772.779-5.1.116a2.61,2.61,0,0,1-1.353-1.931A13.164,13.164,0,0,1,914,264.388q-1.076-1.318-2.062-2.711a7.775,7.775,0,0,1-1.207-2.213,8.225,8.225,0,0,1-.257-1.509l-.075-.649a2.835,2.835,0,0,1-.1-.5c-.1-.95-.221-2.142-1.121-2.454-.961,1.614-.4,3.681.332,5.411l.241.563a1.2,1.2,0,0,1,.463.3,3.422,3.422,0,0,1,.618.961,20.555,20.555,0,0,1,1.74,4.853.593.593,0,0,1-.06.5c-.206.226-.578.03-.81-.171a16.54,16.54,0,0,1-2.223-2.218c-.055-.06-.106-.126-.156-.186a20.372,20.372,0,0,1-4.436-12.532Z" transform="translate(-470.302 -126.701)"/>
    <path id="Path_1958" data-name="Path 1958" d="M958.748,702.15c0,.9-.091,3.47-.08,3.7-1.79,2.3-4.843,1.353-7.277-.04,0-.282-.141-2.2-.151-2.484A9.3,9.3,0,0,0,958.748,702.15Z" transform="translate(-493.343 -357.378)" fill="#ffaa81"/>
    <path id="Path_1959" data-name="Path 1959" d="M906.89,703c0,.146-.231,2.67-.226,2.821,0,0-2.61,1.981-4.828,1.388-.317-.086-.624-.2-.93-.307-.045-.423,0-3.173-.055-3.621A8.67,8.67,0,0,0,906.89,703Z" transform="translate(-468.294 -357.8)" fill="#ffaa81"/>
    <path id="Path_1960" data-name="Path 1960" d="M889.487,713.854c.93-.754,2.369-1.091,3.319-1.851.468-.372,1.554-1.006,1.594-1.418a16.372,16.372,0,0,0,.03-1.765,10.672,10.672,0,0,0,5.8-.82c0,.573-.05.925-.045,1.473a22.731,22.731,0,0,1,.593,2.746c.166,1.509.417,3.329-.7,4.526a4.434,4.434,0,0,1-3.384.966c-1.358,0-5.029.191-5.466.151C889.9,717.746,885.524,717.052,889.487,713.854Z" transform="translate(-461.839 -360.286)" fill="#bc9371"/>
    <path id="Path_1961" data-name="Path 1961" d="M900.679,723.13a2.743,2.743,0,0,1-.6,1.006,4.434,4.434,0,0,1-3.384.965c-1.358,0-6.945.151-7.377.111-.925-.091-1.433-.412-1.443-1.725C892.7,721.617,894.89,724.327,900.679,723.13Z" transform="translate(-461.841 -367.647)" fill="#230e04"/>
    <path id="Path_1962" data-name="Path 1962" d="M951.49,708.314c.5.141,5.678.412,7.322-.694v1.78a77.265,77.265,0,0,1,14.463,3.042c7.307,2.359,7.7,4.913-2.243,4.35-17.918.392-19.16.448-19.215-3.993C951.782,711.99,951.651,709.425,951.49,708.314Z" transform="translate(-493.468 -360.097)" fill="#bc9371"/>
    <path id="Path_1963" data-name="Path 1963" d="M976.559,721.669a2.067,2.067,0,0,0,1.559-.619c2.328,1.6.548,2.826-6.648,2.419-8.891.2-15.026.4-17.6-.08-1.8-.332-1.167-1.051-1.448-2.142C960.466,721.427,968.5,721.664,976.559,721.669Z" transform="translate(-493.93 -366.773)" fill="#230e04"/>
    <path id="Path_1964" data-name="Path 1964" d="M869.723,308.909c-4.722-.1-10.762,7.377-11.566,14.529-.075.624-.634,3.329-1.328,5.994-1.841,6.839-5.21,13.664-7.317,16.183-4.788,5.728-16.812,2.942-23.7.79a12.651,12.651,0,0,0-.111,5.029c1.061.538,2.127,1.066,3.2,1.569a59.8,59.8,0,0,0,8.1,3.158,31.376,31.376,0,0,0,9.012,1.509,16.354,16.354,0,0,0,8.459-2.147,14.154,14.154,0,0,0,3.234-2.68c3.872-4.29,7.418-11.737,9.746-18.8,1.981-4.048,4.114-7.921,5-10.47C875.582,314.556,873.937,308.995,869.723,308.909Z" transform="translate(-430.846 -161.894)" fill="#13a0f0"/>
    <path id="Path_1965" data-name="Path 1965" d="M768.09,224.85l9.656-20.96,9.711,20.925Z" transform="translate(-381.82 -99.635)" fill="#c1c1c1"/>
    <path id="Path_1966" data-name="Path 1966" d="M781.83,208.889l2.746-5,2.756,4.989Z" transform="translate(-388.65 -99.635)" fill="#092140"/>
    <rect id="Rectangle_876" data-name="Rectangle 876" width="19.366" height="38.19" rx="8.65" transform="translate(386.431 319.308) rotate(-0.1)" fill="#13a0f0"/>
    <rect id="Rectangle_877" data-name="Rectangle 877" width="6.457" height="199.306" transform="translate(386.345 125.21)" fill="#515151"/>
    <rect id="Rectangle_878" data-name="Rectangle 878" width="6.457" height="199.306" transform="translate(392.803 125.2)" fill="#373737"/>
    <rect id="Rectangle_879" data-name="Rectangle 879" width="6.457" height="199.306" transform="translate(399.255 125.185)"/>
    <rect id="Rectangle_880" data-name="Rectangle 880" width="19.366" height="4.707" transform="translate(386.43 321.561) rotate(-0.1)" fill="#f2f2f2"/>
    <path id="Path_1967" data-name="Path 1967" d="M802.439,385.642c.055-.337.08-1.4.432-1.7a4.385,4.385,0,0,1,2.248-.357,7.81,7.81,0,0,1,1.418.181c.764.221,1.68.347,2.012.981.171.543,0,.79-.5.91a.893.893,0,0,1-.116,1.765c1.463.387,1.328,1.624-.221,2.012.8-.206.563,1.4-.161,1.654a4.774,4.774,0,0,1-3.214.292,1.81,1.81,0,0,1-1.086-1.624A9.81,9.81,0,0,1,802.439,385.642Z" transform="translate(-419.357 -199.009)" fill="#ffaa81"/>
    <path id="Path_1968" data-name="Path 1968" d="M215.909,530.5h-8.137a.825.825,0,0,1-.709-.608c-.1-.337.065-.609.362-.609h8.142a.825.825,0,0,1,.709.609C216.366,530.225,216.205,530.5,215.909,530.5Z" transform="translate(-123.392 -271.443)" fill="#60c0fd"/>
    <path id="Path_1969" data-name="Path 1969" d="M251.07,530.5h-15.3a.825.825,0,0,1-.709-.608c-.1-.337.065-.609.362-.609h15.3a.825.825,0,0,1,.709.609C251.527,530.225,251.366,530.5,251.07,530.5Z" transform="translate(-137.311 -271.443)" fill="#34b2e4"/>
    <path id="Path_1970" data-name="Path 1970" d="M270.629,525.172h-8.137a.83.83,0,0,1-.709-.614c-.1-.337.065-.609.362-.609h8.137a.825.825,0,0,1,.709.609C271.086,524.9,270.93,525.172,270.629,525.172Z" transform="translate(-150.594 -268.793)" fill="#f2f2f2"/>
    <path id="Path_1971" data-name="Path 1971" d="M267.49,537.2h-15.3a.83.83,0,0,1-.709-.614c-.1-.337.065-.609.357-.609h15.3a.825.825,0,0,1,.7.609C267.942,536.925,267.781,537.2,267.49,537.2Z" transform="translate(-145.474 -274.773)" fill="#f2f2f2"/>
    <path id="Path_1972" data-name="Path 1972" d="M188.469,565.237h-8.137a.825.825,0,0,1-.709-.608c-.1-.337.065-.609.362-.609h8.137a.825.825,0,0,1,.709.609C188.926,564.965,188.765,565.237,188.469,565.237Z" transform="translate(-109.751 -288.712)" fill="#1f4a6f"/>
    <path id="Path_1973" data-name="Path 1973" d="M195.63,565.237h-15.3a.825.825,0,0,1-.709-.608c-.1-.337.065-.609.362-.609h15.3a.825.825,0,0,1,.709.609C196.087,564.965,195.926,565.237,195.63,565.237Z" transform="translate(-109.751 -288.712)" fill="#34b2e4"/>
    <path id="Path_1974" data-name="Path 1974" d="M195.63,565.237h-15.3a.825.825,0,0,1-.709-.608c-.1-.337.065-.609.362-.609h15.3a.825.825,0,0,1,.709.609C196.087,564.965,195.926,565.237,195.63,565.237Z" transform="translate(-109.751 -288.712)" fill="#f2f2f2"/>
    <path id="Path_1975" data-name="Path 1975" d="M197.911,505.377H163.277a.825.825,0,0,1-.7-.609c-.1-.337.065-.608.357-.608h34.639a.825.825,0,0,1,.709.608C198.369,505.085,198.208,505.377,197.911,505.377Z" transform="translate(-101.276 -258.955)" fill="#60c0fd"/>
    <path id="Path_1976" data-name="Path 1976" d="M185.465,511.227H164.932a.835.835,0,0,1-.709-.608c-.1-.337.065-.609.362-.609h20.533a.825.825,0,0,1,.709.609C185.923,510.955,185.762,511.227,185.465,511.227Z" transform="translate(-102.096 -261.863)" fill="#60c0fd"/>
    <path id="Path_1977" data-name="Path 1977" d="M193.218,538.412H172.685a.83.83,0,0,1-.7-.613c-.1-.332.065-.609.357-.609h20.533a.83.83,0,0,1,.729.609C193.676,538.135,193.515,538.412,193.218,538.412Z" transform="translate(-105.952 -275.375)" fill="#60c0fd"/>
    <path id="Path_1978" data-name="Path 1978" d="M210.337,517.6H166.752a.825.825,0,0,1-.709-.608c-.1-.337.065-.609.362-.609H209.99a.825.825,0,0,1,.709.609C210.8,517.325,210.634,517.6,210.337,517.6Z" transform="translate(-103.001 -265.03)" fill="#60c0fd"/>
    <path id="Path_1979" data-name="Path 1979" d="M210.927,550.457H176.122a.825.825,0,0,1-.709-.608c-.1-.337.065-.609.362-.609H210.58a.825.825,0,0,1,.7.609C211.4,550.185,211.219,550.457,210.927,550.457Z" transform="translate(-107.659 -281.365)" fill="#60c0fd"/>
    <path id="Path_1980" data-name="Path 1980" d="M213.247,558.587H178.442a.825.825,0,0,1-.709-.608c-.1-.337.065-.609.357-.609h34.805a.825.825,0,0,1,.709.609C213.7,558.315,213.559,558.587,213.247,558.587Z" transform="translate(-108.812 -285.406)" fill="#60c0fd"/>
    <path id="Path_1981" data-name="Path 1981" d="M205.705,523.957H168.562a.835.835,0,0,1-.709-.608c-.1-.337.065-.609.362-.609h37.143a.835.835,0,0,1,.709.609C206.163,523.685,206,523.957,205.705,523.957Z" transform="translate(-103.9 -268.191)" fill="#60c0fd"/>
    <path id="Path_1982" data-name="Path 1982" d="M186.252,530.667H170.482a.825.825,0,0,1-.709-.609c-.1-.337.065-.608.357-.608h15.776a.825.825,0,0,1,.709.608C186.71,530.4,186.549,530.667,186.252,530.667Z" transform="translate(-104.855 -271.527)" fill="#60c0fd"/>
    <path id="Path_1983" data-name="Path 1983" d="M252.828,511.487H231.762a.825.825,0,0,1-.709-.609c-.1-.337.065-.608.362-.608h21.066a.825.825,0,0,1,.709.608C253.286,511.215,253.14,511.487,252.828,511.487Z" transform="translate(-135.318 -261.993)" fill="#f2f2f2"/>
    <path id="Path_1984" data-name="Path 1984" d="M391.24,219.341V231.22s.4,6.538,16.424,6.538,16.646-7.528,16.646-7.528V213.9H391.24Z" transform="translate(-214.962 -114.664)" fill="#13a0f0"/>
    <circle id="Ellipse_131" data-name="Ellipse 131" cx="1.212" cy="1.212" r="1.212" transform="translate(159.195 108.363)" fill="#2195d6"/>
    <path id="Path_1985" data-name="Path 1985" d="M356.916,235.616,355.709,250.1a.332.332,0,0,0,.463.327l.166-.075a.332.332,0,0,1,.377.08l.211.231a.337.337,0,0,0,.463.025l.151-.131a.327.327,0,0,1,.448,0l.131.126a.332.332,0,0,0,.443,0l.226-.191a.342.342,0,0,1,.4,0h0a.327.327,0,0,0,.5-.3l-1.3-14.8a.337.337,0,0,0-.09-.2l-.3-.312a.337.337,0,0,0-.478,0l-.5.538A.352.352,0,0,0,356.916,235.616Z" transform="translate(-197.299 -125.05)" fill="#13a0f0"/>
    <path id="Path_1986" data-name="Path 1986" d="M355.937,205.668l34.2-5.718h.1l33.789,5.718c.427.106.3,1.031,0,1.1l-34,7.216a.442.442,0,0,1-.116,0l-33.98-7.216C355.63,206.7,355.489,205.748,355.937,205.668Z" transform="translate(-197.27 -107.73)" fill="#fff"/>
    <rect id="Rectangle_881" data-name="Rectangle 881" width="0.729" height="9.811" transform="translate(160.04 98.532)" fill="#2195d6"/>
    <path id="Path_1987" data-name="Path 1987" d="M355.993,205.115l34.2-6.271a.226.226,0,0,1,.1,0l33.789,6.266a.277.277,0,0,1,0,.543l-34,7.222a.227.227,0,0,1-.116,0l-33.98-7.216a.277.277,0,0,1,.01-.543Z" transform="translate(-197.327 -107.177)" fill="#2195d6"/>
    <path id="Path_1988" data-name="Path 1988" d="M194.06,138.082,249.886,110.7,205,127.446Z" transform="translate(-96.464 -53.31)" fill="#8db0da"/>
    <path id="Path_1989" data-name="Path 1989" d="M223.6,126.23s49.2,2.761,61.453,2.243c0,0-30.827,28.262-38.768,38.5l-6.12-21.75-3.254-6.07Z" transform="translate(-131.627 -71.083)" fill="#d1e7f4"/>
    <path id="Path_1990" data-name="Path 1990" d="M194.06,138.082,205,127.446,249.886,110.7l-48.142,10.676Z" transform="translate(-96.464 -53.31)" fill="#a7c4e4"/>
    <path id="Path_1991" data-name="Path 1991" d="M146.795,603.248H8.379L.71,578.28H139.126Z" transform="translate(-0.348 -285.748)" fill="#13a0f0"/>
    <path id="Path_1992" data-name="Path 1992" d="M123.276,603.21H14.461L9.13,585.86H117.945Z" transform="translate(-4.534 -289.516)" fill="#f2f2f2"/>
    <path id="Path_1993" data-name="Path 1993" d="M294.111,608.45c-2.962,0-4.637,2.384-3.736,5.316a7.352,7.352,0,0,0,1.82,2.962l-2.806,3.822h0a1.051,1.051,0,0,0,.427,1.307.955.955,0,0,0,1.328,0h0l2.771-3.772a6.906,6.906,0,0,0,3.435,1.006c2.962,0,4.637-2.389,3.736-5.321A7.839,7.839,0,0,0,294.111,608.45Zm2.821,9.188a5.733,5.733,0,0,1-5.1-3.872,2.773,2.773,0,0,1,2.721-3.867,5.723,5.723,0,0,1,5.094,3.867A2.777,2.777,0,0,1,296.932,617.638Z" transform="translate(-164.29 -310.799)" fill="#f2f2f2"/>
    <path id="Path_1994" data-name="Path 1994" d="M663.964,667.78H552.77v2.012h1.162a5.748,5.748,0,0,1,5.748,5.748v4.194a5.753,5.753,0,0,1-5.748,5.758H552.77V687.5H663.964a7.222,7.222,0,0,0,7.221-7.221V675a7.221,7.221,0,0,0-7.221-7.221Z" transform="translate(-295.26 -340.292)" fill="#2195d6"/>
    <path id="Path_1995" data-name="Path 1995" d="M604.677,671.78H555.7c2.188.875,4.425,3.017,4.425,5.476v4.31c0,3.259-2.047,5.9-4.425,5.9h48.977a5.778,5.778,0,0,0,5.8-5.748v-4.194A5.778,5.778,0,0,0,604.677,671.78Z" transform="translate(-296.717 -342.281)" fill="#fff"/>
    <path id="Path_1996" data-name="Path 1996" d="M560.125,686.76v2.253c0,3.259-2.047,5.9-4.425,5.9h48.977a5.778,5.778,0,0,0,5.8-5.748V686.76Z" transform="translate(-296.717 -349.727)" fill="#c1c1c1"/>
    <path id="Path_1997" data-name="Path 1997" d="M603.9,667.78H552.77v2.012h50.45a5.778,5.778,0,0,1,5.8,5.748v4.194a5.778,5.778,0,0,1-5.8,5.758H552.77V687.5H603.9a7.257,7.257,0,0,0,7.282-7.221V675A7.257,7.257,0,0,0,603.9,667.78Z" transform="translate(-295.26 -340.292)" fill="#3b3b60"/>
    <path id="Path_1998" data-name="Path 1998" d="M733.167,667.78H708.812a19.289,19.289,0,0,1-4.26,8.549,59.377,59.377,0,0,1-12.572,11.184h41.162a7.222,7.222,0,0,0,7.222-7.221V675a7.222,7.222,0,0,0-7.2-7.221Z" transform="translate(-364.463 -340.292)" fill="#13a0f0"/>
    <path id="Path_1999" data-name="Path 1999" d="M677.78,667.78h-2.55a7.674,7.674,0,0,1,4.652,7.04v5.642a7.674,7.674,0,0,1-4.652,7.04h2.213c3.988,0,6.236-3.234,6.236-7.221V675C683.663,671.014,681.768,667.78,677.78,667.78Z" transform="translate(-356.136 -340.292)" fill="#fff"/>
    <path id="Path_2000" data-name="Path 2000" d="M613.817,693.73s1.73-.4,1.73-1.76v-5.21H610.7v5.029a2.14,2.14,0,0,1-1.614,1.926s2.555.146,3.747-1.212a3.255,3.255,0,0,1,.981,1.227Z" transform="translate(-323.257 -349.727)" fill="#6d64ff"/>
    <path id="Path_2001" data-name="Path 2001" d="M556.7,621.992a2.847,2.847,0,0,0,2.786,1.685h111.25v-10.8H559.489c-1.539,0-2.846,1.7-3.52,3.52A8.25,8.25,0,0,0,556.7,621.992Z" transform="translate(-296.754 -313.001)" fill="#535353"/>
    <path id="Path_2002" data-name="Path 2002" d="M600.674,612.88a43.572,43.572,0,0,1-3.968,2.429c-2.625,1.453-5.235,2.927-7.89,4.33s-5.31,2.741-8.016,4.023H683.178V612.88Z" transform="translate(-309.194 -313.001)"/>
    <path id="Path_2003" data-name="Path 2003" d="M652.013,621.318c.121,1.509.759,2.339,3.752,2.339h63.867v-1.076h-1.086v-8.74h1.086v-.961H655.765c-3.017,0-3.354.925-3.721,3.208a27.926,27.926,0,0,0-.03,5.23Z" transform="translate(-344.541 -313.001)" fill="#492817"/>
    <path id="Path_2004" data-name="Path 2004" d="M654.631,621.629c.111,1.237.689,1.9,3.415,1.9h62.147v-8.74H658.046c-2.726,0-3.058.749-3.39,2.6a20.077,20.077,0,0,0-.025,4.234Z" transform="translate(-345.847 -313.95)" fill="#fff"/>
    <path id="Path_2005" data-name="Path 2005" d="M654.9,620.83h-.292a21.468,21.468,0,0,0,0,3.812c.111,1.237.689,1.9,3.415,1.9h62.167V620.83Z" transform="translate(-345.842 -316.953)" fill="#dcdcdc"/>
    <path id="Path_2006" data-name="Path 2006" d="M569.533,622.133a8.562,8.562,0,0,1-.774-5.819,6.063,6.063,0,0,1,2.675-3.435h-4.1c-1.534,0-2.841,1.7-3.52,3.52a8.181,8.181,0,0,0,.739,5.572,2.841,2.841,0,0,0,2.781,1.685h3.792a2.851,2.851,0,0,1-1.589-1.524Z" transform="translate(-300.653 -313.001)" fill="#fff"/>
    <path id="Path_2007" data-name="Path 2007" d="M638.892,622.133a8.539,8.539,0,0,1-.769-5.819,6.056,6.056,0,0,1,2.67-3.435h-4.124c-1.539,0-2.846,1.7-3.52,3.52a8.2,8.2,0,0,0,.734,5.572,2.841,2.841,0,0,0,2.786,1.685h3.787A2.872,2.872,0,0,1,638.892,622.133Z" transform="translate(-335.121 -313.001)" fill="#fff"/>
    <path id="Path_2008" data-name="Path 2008" d="M563.5,648.512c.387,1.4,1.167,2.635,2.6,2.635h105V634.32h-105c-1.438,0-2.66,2.665-3.294,5.5A20.876,20.876,0,0,0,563.5,648.512Z" transform="translate(-300.165 -323.659)" fill="#2195d6"/>
    <path id="Path_2009" data-name="Path 2009" d="M611.625,634.32A54.521,54.521,0,0,1,591.7,651.147h93.86V634.32Z" transform="translate(-314.613 -323.659)" fill="#13a0f0"/>
    <path id="Path_2010" data-name="Path 2010" d="M652.75,647.491c.116,2.379.714,3.656,3.52,3.656h60.608v-.639l-4.42-.065L711.523,635l5.356.03v-.709H656.266c-2.8,0-3.143,1.443-3.485,5.029a71.946,71.946,0,0,0-.03,8.142Z" transform="translate(-344.911 -323.659)" fill="#f0a32f"/>
    <path id="Path_2011" data-name="Path 2011" d="M654.339,647.789c.106,2.182.654,3.349,3.224,3.349h59.422V635.72H657.563c-2.57,0-2.882,1.323-3.193,4.6a65.63,65.63,0,0,0-.03,7.473Z" transform="translate(-345.705 -324.355)" fill="#fff"/>
    <path id="Path_2012" data-name="Path 2012" d="M654.6,646.38a2.29,2.29,0,0,1-.272,0c-.055,1.162-.136,3.616,0,6.729.106,2.183.654,3.349,3.224,3.349h59.437V646.4Z" transform="translate(-345.708 -329.654)" fill="#d8d8d8"/>
    <path id="Path_2013" data-name="Path 2013" d="M634.72,626.35v8.172l2.409-1.614,2.414,1.614V626.35Z" transform="translate(-315.52 -309.644)" fill="#13a0f0"/>
    <rect id="Rectangle_882" data-name="Rectangle 882" width="31.949" height="8.157" rx="4.078" transform="translate(269.69 314.91)" fill="#fff"/>
    <path id="Path_2014" data-name="Path 2014" d="M584.137,647.585a.241.241,0,1,1,0-.478h2.4a.241.241,0,1,1,0,.478H585.6v3.078a.257.257,0,1,1-.5,0v-3.078Z" transform="translate(-310.716 -330.014)" fill="#52517b"/>
    <path id="Path_2015" data-name="Path 2015" d="M593.023,647.266a.256.256,0,1,1,.5,0v2.253a1.388,1.388,0,0,1-2.771,0v-2.253a.256.256,0,1,1,.5,0v2.253a.875.875,0,1,0,1.75,0Z" transform="translate(-314.14 -329.942)" fill="#52517b"/>
    <path id="Path_2016" data-name="Path 2016" d="M597.6,647.585a.241.241,0,1,1,0-.478h2.409a.241.241,0,1,1,0,.478h-.945v3.078a.256.256,0,1,1-.5,0v-3.078Z" transform="translate(-317.407 -330.014)" fill="#52517b"/>
    <path id="Path_2017" data-name="Path 2017" d="M605.491,647a1.946,1.946,0,1,1-1.911,1.946A1.926,1.926,0,0,1,605.491,647Zm0,3.394a1.448,1.448,0,1,0-1.4-1.448,1.413,1.413,0,0,0,1.4,1.458Z" transform="translate(-320.518 -329.962)" fill="#52517b"/>
    <path id="Path_2018" data-name="Path 2018" d="M613.721,649.478h-.5v1.187a.256.256,0,0,1-.256.261.251.251,0,0,1-.251-.261V647.33a.216.216,0,0,1,.211-.221h1.242a1.081,1.081,0,0,1,1.121,1.187,1.061,1.061,0,0,1-1.006,1.167l.744,1.056a.256.256,0,1,1-.417.292Zm-.5-1.891V649h.905a.714.714,0,0,0,0-1.413Z" transform="translate(-325.057 -330.016)" fill="#52517b"/>
    <path id="Path_2019" data-name="Path 2019" d="M619.908,650.591a.256.256,0,1,1-.5,0v-3.324a.256.256,0,1,1,.5,0Z" transform="translate(-328.382 -329.942)" fill="#52517b"/>
    <path id="Path_2020" data-name="Path 2020" d="M624.833,650.55a.246.246,0,0,1-.141.332.256.256,0,0,1-.332-.146l-.312-.825h-1.6l-.322.825a.251.251,0,0,1-.327.146.246.246,0,0,1-.146-.332l1.232-3.244a.352.352,0,0,1,.352-.246h.025a.347.347,0,0,1,.342.246Zm-.961-1.1-.629-1.775-.624,1.775Z" transform="translate(-329.491 -329.992)" fill="#52517b"/>
    <path id="Path_2021" data-name="Path 2021" d="M629.426,650.822a.266.266,0,0,1-.261-.261v-3.294a.256.256,0,1,1,.5,0v3.078H631a.241.241,0,1,1,0,.478Z" transform="translate(-333.234 -329.942)" fill="#52517b"/>
    <path id="Path_2022" data-name="Path 2022" d="M538.341,715.7a2.66,2.66,0,0,0,2.6,1.589H665.371V707.16H540.946c-1.438,0-2.66,1.6-3.294,3.309A7.733,7.733,0,0,0,538.341,715.7Z" transform="translate(-287.656 -359.868)" fill="#f8c22e"/>
    <path id="Path_2023" data-name="Path 2023" d="M625.085,707.16c-5.185,4.39-12.1,7.729-19.925,10.133h93.86V707.16Z" transform="translate(-321.304 -359.868)" fill="#fe912a"/>
    <path id="Path_2024" data-name="Path 2024" d="M666.209,715.086c.116,1.433.709,2.2,3.52,2.2h60.6V716.9l-4.415-.035-.935-9.288h5.351v-.427H669.72c-2.8,0-3.143.87-3.48,3.017A26.069,26.069,0,0,0,666.209,715.086Z" transform="translate(-351.601 -359.863)" fill="#fff"/>
    <path id="Path_2025" data-name="Path 2025" d="M667.8,715.272c.106,1.313.649,2.012,3.219,2.012h59.432V708H671.014c-2.57,0-2.882.794-3.193,2.766A23.631,23.631,0,0,0,667.8,715.272Z" transform="translate(-352.393 -360.286)" fill="#fff"/>
    <path id="Path_2026" data-name="Path 2026" d="M668.049,714.42h-.277a26.076,26.076,0,0,0,0,4.053c.106,1.313.649,2.012,3.219,2.012h59.452V714.42Z" transform="translate(-352.39 -363.477)" fill="#d8d8d8"/>
  </g>
</svg>
