<svg xmlns="http://www.w3.org/2000/svg" width="636.863" height="484.949" viewBox="0 0 636.863 484.949">
  <g id="lesson-created-graphics2" transform="translate(-46.774 -11.824)">
    <ellipse id="Ellipse_250" data-name="Ellipse 250" cx="176.5" cy="176" rx="176.5" ry="176" transform="translate(123.636 123.549)" fill="#c4eaff"/>
    <path id="Path_1903" data-name="Path 1903" d="M112.439,707.32H728.744a5.349,5.349,0,0,1,5.349,5.349V722.8a5.348,5.348,0,0,1-5.349,5.349H112.439a6.409,6.409,0,0,1-6.409-6.409v-8.01A6.409,6.409,0,0,1,112.439,707.32Z" transform="translate(-50.457 -231.38)"/>
    <path id="Path_1904" data-name="Path 1904" d="M99.443,707.32H303.9a5.261,5.261,0,0,1,5.261,5.261v10.313a5.261,5.261,0,0,1-5.261,5.261H99.443A6.409,6.409,0,0,1,93,721.738v-8.01a6.409,6.409,0,0,1,6.443-6.409Z" transform="translate(-46.226 -231.38)" fill="#13a0f0"/>
    <path id="Path_1905" data-name="Path 1905" d="M203.167,745.048H181.448a4.484,4.484,0,0,1-4.478-4.471h0a4.484,4.484,0,0,1,4.478-4.477h21.719a4.484,4.484,0,0,1,4.478,4.477h0A4.484,4.484,0,0,1,203.167,745.048Z" transform="translate(-100.988 -254.224)" fill="#fff"/>
    <path id="Path_1906" data-name="Path 1906" d="M248.277,739.7a4.477,4.477,0,1,1-3.512-3.512,4.477,4.477,0,0,1,3.512,3.512Z" transform="translate(-121.259 -254.224)" fill="#fff"/>
    <path id="Path_1907" data-name="Path 1907" d="M268.147,739.7a4.478,4.478,0,1,1-3.512-3.512A4.478,4.478,0,0,1,268.147,739.7Z" transform="translate(-127.71 -254.224)" fill="#fff"/>
    <path id="Path_1908" data-name="Path 1908" d="M807.134,743.847H705.542a2.242,2.242,0,0,1-2.242-2.235h0a2.242,2.242,0,0,1,2.242-2.242H807.134a2.242,2.242,0,0,1,2.242,2.242h0A2.242,2.242,0,0,1,807.134,743.847Z" transform="translate(-271.864 -255.286)" fill="#13a0f0"/>
    <path id="Path_1910" data-name="Path 1910" d="M154.822,659.77,130.78,675.681l23.988,15.985Z" transform="translate(-58.492 -215.943)" fill="#c1c1c1"/>
    <path id="Path_1911" data-name="Path 1911" d="M137.614,676.63l-6.834,4.525,6.814,4.538Z" transform="translate(-58.492 -221.417)" fill="#fff"/>
    <rect id="Rectangle_871" data-name="Rectangle 871" width="31.896" height="52.177" rx="9.66" transform="translate(228.444 444.034) rotate(90.1)"/>
    <rect id="Rectangle_872" data-name="Rectangle 872" width="10.63" height="88.159" transform="translate(96.319 454.483) rotate(-89.9)" fill="#515151"/>
    <rect id="Rectangle_873" data-name="Rectangle 873" width="10.63" height="88.159" transform="translate(96.305 465.112) rotate(-89.9)" fill="#373737"/>
    <rect id="Rectangle_874" data-name="Rectangle 874" width="10.63" height="88.159" transform="translate(96.285 475.747) rotate(-89.9)"/>
    <rect id="Rectangle_875" data-name="Rectangle 875" width="31.896" height="6.436" transform="translate(186.896 443.96) rotate(90.1)" fill="#c1c1c1"/>
    <path id="Path_1915" data-name="Path 1915" d="M365.816,618.1H470.022l-5.7,34.037h4.64l22.644-135.069a15.945,15.945,0,0,0-15.722-18.579H394.721A15.891,15.891,0,0,0,379,511.794L355.47,653.022h4.646Zm.574-3.438,17.127-102.139a11.326,11.326,0,0,1,11.2-9.455h81.163a11.366,11.366,0,0,1,11.2,13.244L470.6,614.663Z" transform="translate(-158.939 -177.083)" fill="#fff"/>
    <path id="Path_1916" data-name="Path 1916" d="M337.64,458.854H454.812L493.043,251.78H389.8S364.417,409.284,337.64,458.854Z" transform="translate(-153.15 -96.987)" fill="#515151"/>
    <path id="Path_1917" data-name="Path 1917" d="M333.56,442.815H452.886L480.461,231.79H361.134Z" transform="translate(-124.326 -76.997)"/>
    <path id="Path_1918" data-name="Path 1918" d="M537.5,442.815H414.421L375.19,231.79H498.265Z" transform="translate(-137.841 -76.997)" fill="#858585"/>
    <path id="Path_1919" data-name="Path 1919" d="M492.2,627.582l-24.785-147.9a15.931,15.931,0,0,1,15.722-18.572h81.176a15.884,15.884,0,0,1,15.722,13.3l24.8,147.893a15.945,15.945,0,0,1-15.722,18.579h-81.19A15.891,15.891,0,0,1,492.2,627.582Zm-9.063-161.866a11.346,11.346,0,0,0-11.2,13.237l24.785,147.9a11.326,11.326,0,0,0,11.2,9.455h81.163a11.366,11.366,0,0,0,11.2-13.244L575.5,475.218a11.319,11.319,0,0,0-11.2-9.455Z" transform="translate(-195.211 -164.947)" fill="#fff"/>
    <path id="Path_1920" data-name="Path 1920" d="M415.68,251.78H541.01s28.493,154.161,55.8,204.73H470.639C446.287,405.785,420.13,278.3,415.68,251.78Z" transform="translate(-178.487 -96.987)" fill="#f2f2f2"/>
    <path id="Path_1921" data-name="Path 1921" d="M415.66,242.14H541.233c1.864,0,3.377,2.5,3.377,5.578s-1.053,5.585-3.377,5.585H415.66Z" transform="translate(-178.48 -93.857)" fill="#8db0da"/>
    <path id="Path_1922" data-name="Path 1922" d="M417.063,247.615c0,3.08-1.209,5.578-2.7,5.578s-2.7-2.5-2.7-5.578,1.209-5.585,2.7-5.585S417.063,244.529,417.063,247.615Z" transform="translate(-177.181 -93.821)" fill="#2c2b57"/>
    <path id="Path_1923" data-name="Path 1923" d="M517.157,327.524c.675-.135,1.3-.243,1.958-.317,13.122-1.472,25.136,9.657,26.338,20.26.486,4.322-1.317,7.929-2.7,11.893-1.58,4.437-2.978,8.928-4.451,13.4-.675,2.08-1.918,4.457-2.026,6.625a7.246,7.246,0,0,0,.041,1.013l-22.07,2.479a8.685,8.685,0,0,0-.932-2.4c-4.052-6.8-8.1-13.608-12.447-20.22C492.48,347.541,503.509,330.4,517.157,327.524Z" transform="translate(-205.197 -121.432)" fill="#ccedff"/>
    <path id="Path_1924" data-name="Path 1924" d="M517.705,375.962a5.692,5.692,0,0,0,5.457.135,35.7,35.7,0,0,1,.979,4.187c.155.8.3,1.553.466,2.215l2.978,12.035,1.067-.263-2.985-12.035c-.155-.628-.3-1.351-.446-2.154a35.805,35.805,0,0,0-1.067-4.457,19.112,19.112,0,0,0,3.728-2.7h0a12.22,12.22,0,0,0,.959-.817l.263.155a18.01,18.01,0,0,0,5.227,2.235v.446c-.074,1.52-.108,3.059-.135,4.545l-.27,14.182h1.094l.27-14.182c.034-1.479.061-3.012.135-4.5v-.324a8.986,8.986,0,0,0,2.33-.04,4.944,4.944,0,0,0,2.756-1.256,3.046,3.046,0,0,0,.837-3.066,3.005,3.005,0,0,0-3.573-1.715,4.484,4.484,0,0,0-2.816,2.7,8.175,8.175,0,0,0-.52,2.1,17.231,17.231,0,0,1-4.768-2.073l-.054-.034a11.567,11.567,0,0,0,1.351-1.9,4.856,4.856,0,0,0,.675-2.289,3.181,3.181,0,0,0-6.017-1.438,4.052,4.052,0,0,0,.486,4.052,7.43,7.43,0,0,0,1.81,1.749c-.257.23-.527.446-.8.675h0a17.934,17.934,0,0,1-3.377,2.4,7.05,7.05,0,0,0-2.2-3.026,3.545,3.545,0,0,0-3.606-.4,2.634,2.634,0,0,0-.23,4.862Zm17.809-2.35a7.017,7.017,0,0,1,.452-1.871,3.376,3.376,0,0,1,2.087-2.026,2.089,2.089,0,0,1,.284-.054,1.864,1.864,0,0,1,1.965,1.067,1.9,1.9,0,0,1-.567,1.925,3.87,3.87,0,0,1-2.154.959A7.568,7.568,0,0,1,535.514,373.612Zm-8.523-4.471a2.958,2.958,0,0,1-.405-2.958,2.175,2.175,0,0,1,1.668-1.121,2.061,2.061,0,0,1,.675.04,2.161,2.161,0,0,1,1.6,2.026,3.776,3.776,0,0,1-.561,1.763,10.214,10.214,0,0,1-1.29,1.837,6.482,6.482,0,0,1-1.688-1.587Zm-9.678,4.376a1.776,1.776,0,0,1,1.1-1.351,2.438,2.438,0,0,1,2.5.284,6.077,6.077,0,0,1,1.864,2.62,4.721,4.721,0,0,1-4.471,0A1.769,1.769,0,0,1,517.313,373.517Z" transform="translate(-211.12 -133.388)" fill="#fff"/>
    <path id="Path_1925" data-name="Path 1925" d="M521.82,407.852l22.165-2.492a9.15,9.15,0,0,0,.095,1.033c.378,3.053,1.573,6.855.479,9.806s-3.485,8.935-7.3,9.367l-4.43.493c-3.748.419-8.928-5.612-9.894-8.861a7.63,7.63,0,0,1-.23-1.351C522.435,413.417,522.536,410.371,521.82,407.852Z" transform="translate(-212.945 -146.848)" fill="#13a0f0"/>
    <path id="Path_1926" data-name="Path 1926" d="M590.317,368.866a.722.722,0,0,0,.527-.675.736.736,0,0,0-.675-.783l-13.183-.9a.731.731,0,0,0-.095,1.459l13.176.9A.623.623,0,0,0,590.317,368.866Z" transform="translate(-230.603 -134.234)" fill="#13a0f0"/>
    <path id="Path_1927" data-name="Path 1927" d="M572.693,334.545a.539.539,0,0,0,.169-.074l12.332-7.341a.729.729,0,1,0-.75-1.249l-12.325,7.341a.727.727,0,0,0,.574,1.324Z" transform="translate(-229.16 -121.004)" fill="#13a0f0"/>
    <path id="Path_1928" data-name="Path 1928" d="M556.171,315.813a.73.73,0,0,0,.459-.392l5.551-11.981a.73.73,0,1,0-1.324-.615l-5.552,11.981a.729.729,0,0,0,.865,1.006Z" transform="translate(-223.795 -113.422)" fill="#13a0f0"/>
    <path id="Path_1929" data-name="Path 1929" d="M522.775,314.126a.729.729,0,0,0,.5-.9l-3.694-12.872a.731.731,0,0,0-1.4.405l3.694,12.865a.723.723,0,0,0,.9.5Z" transform="translate(-211.753 -112.586)" fill="#13a0f0"/>
    <path id="Path_1930" data-name="Path 1930" d="M494.892,329.579a.763.763,0,0,0,.412-.3.736.736,0,0,0-.209-1.013l-11.4-7.489a.731.731,0,0,0-.8,1.222l11.4,7.49A.735.735,0,0,0,494.892,329.579Z" transform="translate(-200.2 -119.346)" fill="#13a0f0"/>
    <path id="Path_1931" data-name="Path 1931" d="M482.523,358.811a.729.729,0,0,0-.3-1.425l-13.061,1.722a.733.733,0,0,0,.2,1.452l13.054-1.729Z" transform="translate(-195.645 -131.27)" fill="#13a0f0"/>
    <path id="Path_1932" data-name="Path 1932" d="M110.783,0l.074,1.02a80.407,80.407,0,0,0-8.989,1.222l-.189-1A80.708,80.708,0,0,1,110.783,0ZM92.758,3.377l.29.979c-2.843.844-5.734,1.844-8.59,2.978l-.378-.952c2.884-1.108,5.808-2.114,8.7-2.972ZM75.693,10.13l.452.918c-2.7,1.351-5.4,2.789-8,4.329l-.52-.878c2.627-1.553,5.342-3.019,8.07-4.363ZM59.91,19.47l.588.837c-2.154,1.506-4.248,3.08-6.227,4.68l-1.013.831-.675-.79c.338-.277.675-.561,1.02-.831,2.033-1.614,4.14-3.2,6.308-4.721Zm8.421,11.677a33.883,33.883,0,0,1,8.01,4.268l-.594.831a33.017,33.017,0,0,0-7.773-4.14l-.155-.061.351-.959ZM59.167,29.02l-.108,1.02a41.472,41.472,0,0,0-9.009.054l-.115-1.02A43.54,43.54,0,0,1,59.167,29.02ZM82.939,41.905a38.389,38.389,0,0,1,4.613,8.01l-.939.4a37.38,37.38,0,0,0-4.484-7.793ZM45.89,31.322l.75.675a43.341,43.341,0,0,0-5.47,7.165l-.878-.527a44.716,44.716,0,0,1,5.6-7.314Zm-4.97-.338.3.979a49.733,49.733,0,0,0-8.34,3.471l-.48-.9a51.281,51.281,0,0,1,8.516-3.546Zm49.3,27.784a33.767,33.767,0,0,1,.358,9.239l-1.02-.108a32.47,32.47,0,0,0-.344-8.955ZM24.711,39.589l.635.8A54.122,54.122,0,0,0,18.8,46.619l-.763-.675A55.179,55.179,0,0,1,24.7,39.589Zm13.014,7.834a28.48,28.48,0,0,0-.615,8.915l-1.02.081a29.9,29.9,0,0,1,.635-9.232Zm49.354,29.04.912.466a21.727,21.727,0,0,1-5.909,7.165l-.628-.8a21.239,21.239,0,0,0,2.769-2.62,20.525,20.525,0,0,0,2.843-4.221Zm-74.632-23.2.858.554a68.69,68.69,0,0,0-4.417,7.915l-.918-.439a69.085,69.085,0,0,1,4.478-8.03ZM39.035,65.1a38.314,38.314,0,0,0,4.052,8.043l-.858.561a39.366,39.366,0,0,1-4.153-8.259ZM73.511,87.281l.277.979a23.413,23.413,0,0,1-9.252.675l.128-1.013a22.5,22.5,0,0,0,8.847-.642Zm-24.63-7.253a32.639,32.639,0,0,0,7.321,5.18l-.466.9a33.685,33.685,0,0,1-7.55-5.335ZM5.518,70.148a82.174,82.174,0,0,0-2.424,8.746l-1-.216a86,86,0,0,1,2.451-8.861Zm-3.91,17.7c-.176,1.5-.3,3.005-.4,4.484s-.155,3.073-.182,4.586H0c0-1.526.095-3.08.189-4.626s.23-3.026.4-4.538Zm-.378,18.16c.2,3.012.52,6.078.966,9.036l-1.013.155c-.446-3.019-.77-6.078-.972-9.124ZM3.9,123.98c.675,2.945,1.506,5.9,2.424,8.78l-.973.311c-.925-2.9-1.749-5.869-2.445-8.84Z" transform="translate(73.244 129.507) rotate(-39)" fill="#13a0f0"/>
    <path id="Path_1933" data-name="Path 1933" d="M991.853,285.575a.635.635,0,0,0-.425.513.18.18,0,0,0,0,.088c0,.061.108.074.169.095a1.241,1.241,0,0,1,.675.81c.068.169.135.344.21.513a.859.859,0,0,0,.142.27,1.019,1.019,0,0,0,.621.3.675.675,0,0,0,.574-.047c.2-.162.135-.459.061-.675a2.877,2.877,0,0,0-.831-1.425C992.778,285.771,992.231,285.44,991.853,285.575Z" transform="translate(-365.405 -107.948)" fill="#ffaa81"/>
    <path id="Path_1934" data-name="Path 1934" d="M1005.43,324.046c-.466-2.62-2.411-7.071-3.91-10.542-2.181-5.052-8.732-15.283-11.886-21.044.223.426-5.4,2.269-5.308,2.445,2.614,6.314,8.469,22.158,8.293,27.1a.675.675,0,0,1-.885.675c-12.555-5.038-24.785-10.927-37.009-16.708l-5.4-2.553a15.263,15.263,0,0,0,.939,9.124c2.195,5.518,7.645,11,7.645,11a79.5,79.5,0,0,0,13.831,6.828c3.262,1.243,23.6,7.219,28.831,5.4C1006.456,333.649,1006.125,327.943,1005.43,324.046Z" transform="translate(-351.637 -110.194)" fill="#13a0f0"/>
    <path id="Path_1935" data-name="Path 1935" d="M1003.409,286.79c0-.257.061-.513.081-.77a4.654,4.654,0,0,0-.615-2.4,31.806,31.806,0,0,0-1.715-3.127,2.587,2.587,0,0,0-1.033-1.054,1.169,1.169,0,0,0-1.466.493,1.3,1.3,0,0,0-1.979.412c-.25-.317-.486-.405-1.148-.061a1.635,1.635,0,0,0-.635.824,1.169,1.169,0,0,0-1.445.439,3.7,3.7,0,0,0-.385,2.08,9.854,9.854,0,0,0,.675,2.411,8.907,8.907,0,0,0,.507,1.162c.169.324.324.743.675.878s.743.074,1.114.189a3.034,3.034,0,0,1,1.425.743,4.6,4.6,0,0,1,1.162,1.452c.074.209.2.675.567.75,1.52.23,4.653-1.452,4.91-2.181a.986.986,0,0,0-.135-.831,3.252,3.252,0,0,1-.561-1.4Z" transform="translate(-365.933 -105.936)" fill="#ffaa81"/>
    <path id="Path_1936" data-name="Path 1936" d="M1002.2,279.694l-12.622,3.444a2.445,2.445,0,0,1-3-1.641l-1.77-6.173A2.371,2.371,0,0,1,986.5,272.4l12.6-3.444a2.445,2.445,0,0,1,3,1.641l1.769,6.173a2.363,2.363,0,0,1-1.661,2.924Zm-15.222-5.646a.675.675,0,0,0-.459.8l1.77,6.173a.675.675,0,0,0,.817.446l12.622-3.431a.675.675,0,0,0,.459-.8l-1.769-6.173a.676.676,0,0,0-.817-.452Z" transform="translate(-363.23 -102.533)" fill="#fe912a"/>
    <path id="Path_1937" data-name="Path 1937" d="M980.337,217.52l-2.918,1.52,7.071,24.643,3.3-.2Z" transform="translate(-333.359 -72.364)" fill="#fcbd24"/>
    <path id="Path_1938" data-name="Path 1938" d="M965.336,275a21.239,21.239,0,0,1-1.351-3.613,21.578,21.578,0,0,1-.777-3.775c-.068-.817,0-1.351.2-1.425l-1.1.378c-.459.155-.2,2.452.574,5.126s1.763,4.768,2.235,4.667l1.141-.25C966.079,276.192,965.708,275.739,965.336,275Z" transform="translate(-355.88 -101.665)" fill="#f8c22e"/>
    <path id="Path_1939" data-name="Path 1939" d="M966.1,270.957c.79,2.762,1.054,5.085.594,5.187s-1.459-2.026-2.235-4.727-1.054-5.031-.615-5.18S965.3,268.188,966.1,270.957Z" transform="translate(-356.382 -101.678)" fill="#fe912a"/>
    <path id="Path_1940" data-name="Path 1940" d="M964.51,267.659l1.121,3.917a20.319,20.319,0,0,1-.8-4.086Z" transform="translate(-356.668 -102.087)" fill="#fe912a"/>
    <path id="Path_1941" data-name="Path 1941" d="M967.406,277.848h.479a17.609,17.609,0,0,1-1.715-4.268Z" transform="translate(-357.207 -104.064)" fill="#fe912a"/>
    <path id="Path_1942" data-name="Path 1942" d="M997.287,243,966.68,258.965v.486a21.364,21.364,0,0,0,.783,3.87,22,22,0,0,0,1.351,3.7,4.937,4.937,0,0,0,.5.81l5.018-.3,21.834-1.31,7.564-.459A66.777,66.777,0,0,1,997.287,243Z" transform="translate(-357.372 -94.136)" fill="#f8c22e"/>
    <path id="Path_1943" data-name="Path 1943" d="M976.062,260.41l-.216.115-5.105,2.661v.554a28.658,28.658,0,0,0,2.478,8.631,5.97,5.97,0,0,0,.567.925l5.72-.344A35.464,35.464,0,0,1,976.062,260.41Z" transform="translate(-358.69 -99.789)" fill="#fe912a"/>
    <path id="Path_1944" data-name="Path 1944" d="M1016.147,239.76,1012,241.948a66.774,66.774,0,0,0,6.5,22.759l4.727-.284Z" transform="translate(-372.086 -93.084)" fill="#fe912a"/>
    <path id="Path_1945" data-name="Path 1945" d="M966.955,270.966a21.354,21.354,0,0,1-.783-3.87v-.486l-.095.047-1.047.547a20.322,20.322,0,0,0,.8,4.086,17.619,17.619,0,0,0,1.715,4.268l1.067-.068h.257a4.937,4.937,0,0,1-.5-.81,21.978,21.978,0,0,1-1.411-3.714Z" transform="translate(-356.836 -101.801)" fill="#f8c22e"/>
    <path id="Path_1946" data-name="Path 1946" d="M980.16,210.858l.743,2.573.324,1.135,7.449,25.967.56,1.958.5,1.749,6.193-.871-.919-3.221-8.179-28.506-.925-3.221Z" transform="translate(-334.248 -69.41)" fill="#f8c22e"/>
    <path id="Path_1947" data-name="Path 1947" d="M1029.415,247.432c2.742,9.543,2.843,17.559.324,17.93s-6.409-6.618-8.962-15.533-2.87-16.884-.615-17.843S1026.68,237.89,1029.415,247.432Z" transform="translate(-374.244 -90.532)" fill="#f8c22e"/>
    <path id="Path_1948" data-name="Path 1948" d="M1038.487,244.475c2.87,10.009,2.877,18.45.108,18.835-2.661.371-6.908-6.888-9.583-16.208s-2.911-17.694-.446-18.741S1035.617,234.466,1038.487,244.475Z" transform="translate(-376.908 -89.351)" fill="#f8c22e"/>
    <path id="Path_1949" data-name="Path 1949" d="M1037.839,245.023c2.7,9.327,3.221,17.127,1.263,17.424s-5.463-6.679-8.01-15.533-3.2-16.634-1.432-17.37S1035.165,235.7,1037.839,245.023Z" transform="translate(-377.496 -89.75)" fill="#f0a32f"/>
    <path id="Path_1950" data-name="Path 1950" d="M1001.773,282.99a8.712,8.712,0,0,0-.608-2.148c0-.054-.054-.108-.074-.162a24.511,24.511,0,0,1-7.766,2.4.047.047,0,0,0,0,.034,1.6,1.6,0,0,1-.135.8,15.962,15.962,0,0,0,1.087,1.857,2.329,2.329,0,0,0,.959.939,1.1,1.1,0,0,0,1.351-.439,1.229,1.229,0,0,0,1.83-.371c.236.29.453.365,1.06.061.122-.061.56-.466.587-.736a1.114,1.114,0,0,0,1.351-.392A3.167,3.167,0,0,0,1001.773,282.99Z" transform="translate(-365.979 -106.369)" fill="#ffaa81"/>
    <path id="Path_1951" data-name="Path 1951" d="M965.478,438.28s-3.863,65.083-5.653,80.8-5.173,94.9-5.173,94.9l-5.133,1.77-4.667-1.77s-3.309-57.917-5-70.513-8.266-83.878-8.739-96.54S955.078,396.233,965.478,438.28Z" transform="translate(-345.824 -151.281)"/>
    <path id="Path_1952" data-name="Path 1952" d="M928.649,442.51s-7.206,58.647-9.921,74.22-11.576,96.777-11.576,96.777l-3.876,2.566-3.883-1.277s-1.107-64.961-2.026-77.631-1.351-87.167-1.06-99.843S920.775,399.963,928.649,442.51Z" transform="translate(-334.496 -151.149)"/>
    <path id="Path_1953" data-name="Path 1953" d="M931.171,300.1c-1.614.358-3.255.405-4.8.709a16.831,16.831,0,0,1-4.586.459c0-2.573-.169-5.4-.1-7.753,3.113,2.175,6.368.979,9.529-.507C931.144,295.32,931.083,297.771,931.171,300.1Z" transform="translate(-342.758 -110.372)" fill="#ffaa81"/>
    <path id="Path_1954" data-name="Path 1954" d="M898.271,379.958c3.188-12.156,4.248-28.2,1.391-37.144-5.693-17.863-2.8-30.471,6.551-35.922a31.333,31.333,0,0,1,5.727-2.613c.169-.412.324-.824.452-1.249a14.3,14.3,0,0,0,.574-3.424c0-.581,1.553,0,1.986,0a22.819,22.819,0,0,0,2.445.209,19.909,19.909,0,0,0,6.078-.9,13,13,0,0,0,1,4.194v.061a29.966,29.966,0,0,1,12.271,5.16c10.61,9.772,6.591,28.608,12.217,53.244,6.753,29.418,5.092,37.718,5.092,37.718s-39,7.949-57.843-.8C896.245,398.489,895.36,391.148,898.271,379.958Z" transform="translate(-334.461 -112.288)" fill="#13a0f0"/>
    <path id="Path_1955" data-name="Path 1955" d="M919.83,401.278c-9.617-7.355-12.534-18.234-12.582-29.891,0-4.727.446-9.5.675-14.236.284-5.47.074-6.429-1.175-11.265-2.661-10.238-6.078-20.855-3.937-31.4-6.578,6.348-8.1,17.876-3.167,33.355,2.857,8.975,1.8,25.035-1.391,37.144-2.931,11.19-2.026,18.531-2.026,18.531,9.151,4.248,23.043,4.552,34.922,3.748a44.113,44.113,0,0,1-11.319-5.99Z" transform="translate(-334.456 -117.346)" fill="#2195d6"/>
    <path id="Path_1956" data-name="Path 1956" d="M934.256,250.452a72.323,72.323,0,0,0,.756,11.535c.885,5.119,3.1,17.856-5.612,18.423s-12.832-.182-14.824-2.357-9.516-15.445-5.828-22.286S928.056,239.505,934.256,250.452Z" transform="translate(-338.239 -94.93)" fill="#ffaa81"/>
    <path id="Path_1957" data-name="Path 1957" d="M904.89,256.541c0-3.829,1.351-8.313,5.018-9.455.8-.25,2.823-3.985,3.741-4.775a15.33,15.33,0,0,1,5.646-3.08c2.938-.878,7.679-1.628,10.711-.675a7.679,7.679,0,0,1,5.234,6.4c.675,5.4-4.3,6.152-8.5,6.125a21,21,0,0,0-7.483,1,8.738,8.738,0,0,0-5.349,5.031c-.757,2.208-.318,4.559.121,6.889a26.859,26.859,0,0,0,2.174,4.9,5.22,5.22,0,0,0,4.2,1.155c2.188-.27,9.2-2.7,12.98-2.073l1.134-.317a1.135,1.135,0,0,1,.939,0c.844.574.871,3.208.568,4.167a7.979,7.979,0,0,1-1.452,2.445c-1.546,2.56-3.991,3.471-6.976,3.8-1.864.2-5.065,1.047-6.848.155a3.505,3.505,0,0,1-1.817-2.593,17.686,17.686,0,0,1-1.817-2.235q-1.445-1.769-2.769-3.64a10.44,10.44,0,0,1-1.621-2.972,11.045,11.045,0,0,1-.344-2.026l-.1-.871a3.8,3.8,0,0,1-.128-.675c-.135-1.276-.3-2.877-1.506-3.3-1.29,2.168-.533,4.943.446,7.267l.324.756a1.609,1.609,0,0,1,.621.405,4.6,4.6,0,0,1,.83,1.29,27.6,27.6,0,0,1,2.337,6.517.8.8,0,0,1-.081.675c-.277.3-.777.04-1.087-.23a22.213,22.213,0,0,1-2.985-2.978c-.074-.081-.142-.169-.209-.25a27.359,27.359,0,0,1-5.957-16.83Z" transform="translate(-337.311 -92.55)"/>
    <path id="Path_1958" data-name="Path 1958" d="M961.323,702.15c0,1.209-.122,4.66-.108,4.964-2.4,3.093-6.5,1.817-9.772-.054,0-.378-.189-2.951-.2-3.336A12.492,12.492,0,0,0,961.323,702.15Z" transform="translate(-352.36 -243.202)" fill="#ffaa81"/>
    <path id="Path_1959" data-name="Path 1959" d="M908.961,703c0,.2-.311,3.586-.3,3.789,0,0-3.5,2.661-6.483,1.864-.425-.115-.837-.263-1.249-.412-.061-.567,0-4.261-.074-4.862A11.642,11.642,0,0,0,908.961,703Z" transform="translate(-336 -243.478)" fill="#ffaa81"/>
    <path id="Path_1960" data-name="Path 1960" d="M890.043,715.861c1.249-1.013,3.181-1.466,4.457-2.485.628-.5,2.087-1.351,2.141-1.9a21.988,21.988,0,0,0,.041-2.37,14.331,14.331,0,0,0,7.787-1.1c0,.77-.067,1.243-.061,1.979a30.527,30.527,0,0,1,.8,3.687c.223,2.026.561,4.471-.946,6.078-1.114,1.2-2.917,1.31-4.545,1.3-1.823,0-6.753.257-7.341.2C890.6,721.088,884.721,720.156,890.043,715.861Z" transform="translate(-331.784 -245.102)" fill="#bc9371"/>
    <path id="Path_1961" data-name="Path 1961" d="M905.071,723.241a3.683,3.683,0,0,1-.81,1.351c-1.114,1.2-2.917,1.31-4.545,1.3-1.823,0-9.326.2-9.907.149-1.243-.122-1.925-.554-1.938-2.316C894.36,721.208,897.3,724.849,905.071,723.241Z" transform="translate(-331.786 -249.909)" fill="#230e04"/>
    <path id="Path_1962" data-name="Path 1962" d="M951.49,708.552c.675.189,7.625.554,9.833-.932v2.391a103.768,103.768,0,0,1,19.423,4.086c9.813,3.167,10.346,6.6-3.012,5.842-24.062.527-25.73.6-25.8-5.362C951.882,713.489,951.706,710.045,951.49,708.552Z" transform="translate(-352.441 -244.978)" fill="#bc9371"/>
    <path id="Path_1963" data-name="Path 1963" d="M984.836,721.881a2.775,2.775,0,0,0,2.094-.831c3.127,2.154.736,3.8-8.928,3.249-11.94.263-20.179.54-23.637-.108-2.418-.446-1.567-1.412-1.945-2.877C963.226,721.556,974.017,721.874,984.836,721.881Z" transform="translate(-352.743 -249.338)" fill="#230e04"/>
    <path id="Path_1964" data-name="Path 1964" d="M884.882,308.909c-6.341-.135-14.452,9.907-15.533,19.511-.1.837-.851,4.471-1.783,8.05-2.472,9.185-7,18.349-9.826,21.733-6.429,7.692-22.577,3.951-31.822,1.06a16.987,16.987,0,0,0-.149,6.753c1.425.723,2.857,1.432,4.3,2.107a80.3,80.3,0,0,0,10.88,4.241,42.135,42.135,0,0,0,12.1,2.026,21.962,21.962,0,0,0,11.359-2.884,19.008,19.008,0,0,0,4.342-3.6c5.2-5.761,9.961-15.763,13.088-25.244,2.661-5.436,5.524-10.637,6.713-14.061C892.75,316.493,890.541,309.024,884.882,308.909Z" transform="translate(-311.543 -115.534)" fill="#13a0f0"/>
    <path id="Path_1965" data-name="Path 1965" d="M768.09,232.038l12.967-28.148,13.041,28.1Z" transform="translate(-265.399 -67.939)" fill="#c1c1c1"/>
    <path id="Path_1966" data-name="Path 1966" d="M781.83,210.6l3.688-6.713,3.7,6.7Z" transform="translate(-269.859 -67.939)" fill="#092140"/>
    <rect id="Rectangle_876" data-name="Rectangle 876" width="26.007" height="51.286" rx="8.65" transform="translate(502.908 424.751) rotate(-0.1)" fill="#13a0f0"/>
    <rect id="Rectangle_877" data-name="Rectangle 877" width="8.671" height="267.652" transform="translate(502.793 164.093)" fill="#515151"/>
    <rect id="Rectangle_878" data-name="Rectangle 878" width="8.671" height="267.652" transform="translate(511.464 164.079)" fill="#373737"/>
    <rect id="Rectangle_879" data-name="Rectangle 879" width="8.671" height="267.652" transform="translate(520.129 164.059)"/>
    <rect id="Rectangle_880" data-name="Rectangle 880" width="26.007" height="6.321" transform="translate(502.906 427.777) rotate(-0.1)" fill="#f2f2f2"/>
    <path id="Path_1967" data-name="Path 1967" d="M802.45,386.352c.074-.452.108-1.884.581-2.289a5.889,5.889,0,0,1,3.019-.48,10.491,10.491,0,0,1,1.9.243c1.026.3,2.256.466,2.7,1.317.23.729,0,1.06-.675,1.222a1.2,1.2,0,0,1-.155,2.37c1.965.52,1.783,2.181-.3,2.7,1.081-.277.756,1.877-.216,2.222a6.412,6.412,0,0,1-4.315.392,2.43,2.43,0,0,1-1.459-2.181A13.173,13.173,0,0,1,802.45,386.352Z" transform="translate(-304.04 -139.773)" fill="#ffaa81"/>
    <path id="Path_1984" data-name="Path 1984" d="M391.24,221.207v15.952s.534,8.779,22.057,8.779,22.354-10.11,22.354-10.11V213.9H391.24Z" transform="translate(-170.552 -84.689)" fill="#13a0f0"/>
    <circle id="Ellipse_131" data-name="Ellipse 131" cx="1.628" cy="1.628" r="1.628" transform="translate(197.747 141.469)" fill="#2195d6"/>
    <path id="Path_1985" data-name="Path 1985" d="M357.33,235.9l-1.621,19.457a.446.446,0,0,0,.621.439l.223-.1a.446.446,0,0,1,.507.108l.284.311a.452.452,0,0,0,.621.034l.2-.176a.439.439,0,0,1,.6,0l.176.169a.446.446,0,0,0,.594,0l.3-.257a.459.459,0,0,1,.54,0h0a.439.439,0,0,0,.675-.4l-1.742-19.875a.452.452,0,0,0-.121-.263l-.4-.419a.452.452,0,0,0-.642,0l-.675.723A.473.473,0,0,0,357.33,235.9Z" transform="translate(-159.016 -91.472)" fill="#13a0f0"/>
    <path id="Path_1986" data-name="Path 1986" d="M356.035,207.629l45.923-7.679h.135l45.376,7.679c.574.142.405,1.384,0,1.472l-45.66,9.691a.594.594,0,0,1-.155,0L356.022,209.1C355.623,209.013,355.434,207.737,356.035,207.629Z" transform="translate(-158.998 -80.16)" fill="#fff"/>
    <rect id="Rectangle_881" data-name="Rectangle 881" width="0.979" height="13.176" transform="translate(198.881 128.266)" fill="#2195d6"/>
    <path id="Path_1987" data-name="Path 1987" d="M356.072,207.268,402,198.846a.3.3,0,0,1,.135,0l45.376,8.415a.371.371,0,0,1,0,.729l-45.66,9.7a.3.3,0,0,1-.155,0L356.058,208a.371.371,0,0,1,.014-.729Z" transform="translate(-159.034 -79.799)" fill="#2195d6"/>
    <path id="Path_1988" data-name="Path 1988" d="M0,36.772,74.97,0,14.7,22.489Z" transform="translate(119.863 61.35) rotate(-39)" fill="#8db0da"/>
    <path id="Path_1989" data-name="Path 1989" d="M0,0S66.076,3.708,82.527,3.012c0,0-41.4,37.954-52.062,51.7L22.246,25.508l-4.369-8.151Z" transform="translate(112.099 63.76) rotate(-39)" fill="#d1e7f4"/>
    <path id="Path_1990" data-name="Path 1990" d="M0,36.772,14.7,22.489,74.97,0,10.319,14.338Z" transform="translate(119.863 61.35) rotate(-39)" fill="#a7c4e4"/>
    <path id="Path_1994" data-name="Path 1994" d="M702.1,667.78H552.77v2.7h1.56a7.719,7.719,0,0,1,7.719,7.719v5.632a7.726,7.726,0,0,1-7.719,7.733h-1.56v2.7H702.1a9.7,9.7,0,0,0,9.7-9.7v-7.091A9.7,9.7,0,0,0,702.1,667.78Z" transform="translate(-222.994 -232.044)" fill="#2195d6"/>
    <path id="Path_1995" data-name="Path 1995" d="M621.472,671.78H555.7c2.938,1.175,5.943,4.052,5.943,7.354v5.788c0,4.376-2.749,7.929-5.943,7.929h65.772a7.76,7.76,0,0,0,7.787-7.719V679.5A7.76,7.76,0,0,0,621.472,671.78Z" transform="translate(-223.945 -233.342)" fill="#fff"/>
    <path id="Path_1996" data-name="Path 1996" d="M561.643,686.76v3.026c0,4.376-2.749,7.929-5.943,7.929h65.772a7.76,7.76,0,0,0,7.787-7.719V686.76Z" transform="translate(-223.945 -238.206)" fill="#c1c1c1"/>
    <path id="Path_1997" data-name="Path 1997" d="M621.432,667.78H552.77v2.7h67.751a7.76,7.76,0,0,1,7.787,7.719v5.632a7.76,7.76,0,0,1-7.787,7.733H552.77v2.7h68.662a9.745,9.745,0,0,0,9.779-9.7v-7.091A9.745,9.745,0,0,0,621.432,667.78Z" transform="translate(-222.994 -232.044)" fill="#3b3b60"/>
    <path id="Path_1998" data-name="Path 1998" d="M747.291,667.78H714.584c-.709,4.228-3.032,8.1-5.72,11.481-4.619,5.754-10.623,10.677-16.884,15.02h55.277a9.7,9.7,0,0,0,9.7-9.7v-7.1a9.7,9.7,0,0,0-9.664-9.7Z" transform="translate(-268.189 -232.044)" fill="#13a0f0"/>
    <path id="Path_1999" data-name="Path 1999" d="M678.654,667.78H675.23a10.306,10.306,0,0,1,6.247,9.455v7.577a10.306,10.306,0,0,1-6.247,9.455H678.2c5.355,0,8.374-4.342,8.374-9.7v-7.091C686.555,672.122,684.009,667.78,678.654,667.78Z" transform="translate(-262.751 -232.044)" fill="#fff"/>
    <path id="Path_2000" data-name="Path 2000" d="M615.438,696.12s2.323-.533,2.323-2.364v-7h-6.5v6.754a2.874,2.874,0,0,1-2.168,2.587s3.431.2,5.031-1.628a4.371,4.371,0,0,1,1.317,1.648Z" transform="translate(-241.278 -238.206)" fill="#6d64ff"/>
    <path id="Path_2001" data-name="Path 2001" d="M557.021,625.117a3.823,3.823,0,0,0,3.741,2.262h149.4v-14.5h-149.4c-2.067,0-3.822,2.289-4.727,4.727C556.035,617.607,555.016,620.727,557.021,625.117Z" transform="translate(-223.97 -214.22)" fill="#535353"/>
    <path id="Path_2002" data-name="Path 2002" d="M607.49,612.88a58.526,58.526,0,0,1-5.328,3.262c-3.525,1.952-7.03,3.931-10.6,5.815s-7.132,3.681-10.765,5.4H718.286V612.88Z" transform="translate(-232.094 -214.22)"/>
    <path id="Path_2003" data-name="Path 2003" d="M652.05,624.212c.162,2.026,1.02,3.14,5.038,3.14h85.769v-1.445H741.4V614.17h1.459v-1.29H657.088c-4.052,0-4.5,1.243-5,4.309a37.5,37.5,0,0,0-.04,7.023Z" transform="translate(-255.178 -214.22)" fill="#492817"/>
    <path id="Path_2004" data-name="Path 2004" d="M654.665,623.975c.149,1.661.925,2.553,4.586,2.553H742.71V614.79H659.251c-3.66,0-4.106,1.006-4.552,3.5a26.959,26.959,0,0,0-.034,5.686Z" transform="translate(-256.031 -214.84)" fill="#fff"/>
    <path id="Path_2005" data-name="Path 2005" d="M655.027,620.83h-.392a28.842,28.842,0,0,0,0,5.119c.149,1.661.925,2.553,4.586,2.553h83.486V620.83Z" transform="translate(-256.028 -216.801)" fill="#dcdcdc"/>
    <path id="Path_2006" data-name="Path 2006" d="M571.561,625.306c-2.1-4.552-1.04-7.814-1.04-7.814.75-2.026,2.026-3.883,3.593-4.612H568.6c-2.06,0-3.816,2.289-4.727,4.727,0,0-1.02,3.12.993,7.483a3.816,3.816,0,0,0,3.735,2.262H573.7a3.829,3.829,0,0,1-2.134-2.046Z" transform="translate(-226.515 -214.22)" fill="#fff"/>
    <path id="Path_2007" data-name="Path 2007" d="M640.928,625.306c-2.1-4.552-1.033-7.814-1.033-7.814.743-2.026,2.026-3.883,3.586-4.612h-5.538c-2.067,0-3.822,2.289-4.727,4.727,0,0-1.02,3.12.986,7.483a3.816,3.816,0,0,0,3.741,2.262h5.085A3.856,3.856,0,0,1,640.928,625.306Z" transform="translate(-249.027 -214.22)" fill="#fff"/>
    <path id="Path_2008" data-name="Path 2008" d="M563.8,653.378c.52,1.878,1.567,3.539,3.5,3.539H708.31v-22.6H567.3c-1.932,0-3.572,3.579-4.423,7.382A28.034,28.034,0,0,0,563.8,653.378Z" transform="translate(-226.197 -221.181)" fill="#2195d6"/>
    <path id="Path_2009" data-name="Path 2009" d="M618.457,634.32a73.218,73.218,0,0,1-26.757,22.6H717.746v-22.6Z" transform="translate(-235.633 -221.181)" fill="#13a0f0"/>
    <path id="Path_2010" data-name="Path 2010" d="M652.785,652.007c.155,3.194.959,4.91,4.727,4.91H738.9v-.858l-5.936-.088-1.256-20.74,7.192.041v-.952h-81.4c-3.762,0-4.221,1.938-4.68,6.753a96.619,96.619,0,0,0-.041,10.934Z" transform="translate(-255.42 -221.181)" fill="#f0a32f"/>
    <path id="Path_2011" data-name="Path 2011" d="M654.371,651.928c.142,2.931.878,4.5,4.329,4.5h79.8V635.72H658.7c-3.451,0-3.87,1.776-4.288,6.173a88.134,88.134,0,0,0-.04,10.036Z" transform="translate(-255.939 -221.635)" fill="#fff"/>
    <path id="Path_2012" data-name="Path 2012" d="M654.716,646.38a3.028,3.028,0,0,1-.365,0c-.074,1.56-.182,4.856,0,9.036.142,2.931.878,4.5,4.329,4.5H738.5V646.407Z" transform="translate(-255.94 -225.096)" fill="#d8d8d8"/>
    <path id="Path_2013" data-name="Path 2013" d="M634.72,626.35v10.974l3.235-2.168,3.242,2.168V626.35Z" transform="translate(-222.099 -205.093)" fill="#13a0f0"/>
    <rect id="Rectangle_882" data-name="Rectangle 882" width="42.905" height="10.954" rx="4.73" transform="translate(346.133 418.846)" fill="#fff"/>
    <path id="Path_2014" data-name="Path 2014" d="M584.232,647.75a.324.324,0,1,1,0-.642h3.228a.324.324,0,1,1,0,.642h-1.27v4.133a.344.344,0,1,1-.675,0V647.75Z" transform="translate(-233.088 -225.331)" fill="#52517b"/>
    <path id="Path_2015" data-name="Path 2015" d="M593.8,647.372a.344.344,0,1,1,.675,0V650.4a1.864,1.864,0,0,1-3.721,0v-3.026a.344.344,0,1,1,.675,0V650.4a1.175,1.175,0,1,0,2.35,0Z" transform="translate(-235.324 -225.284)" fill="#52517b"/>
    <path id="Path_2016" data-name="Path 2016" d="M597.692,647.75a.324.324,0,1,1,0-.642h3.235a.324.324,0,1,1,0,.642h-1.27v4.133a.344.344,0,1,1-.675,0V647.75Z" transform="translate(-237.457 -225.331)" fill="#52517b"/>
    <path id="Path_2017" data-name="Path 2017" d="M606.146,647a2.614,2.614,0,1,1-2.566,2.614A2.586,2.586,0,0,1,606.146,647Zm0,4.559a1.945,1.945,0,1,0-1.884-1.945,1.9,1.9,0,0,0,1.884,1.958Z" transform="translate(-239.489 -225.297)" fill="#52517b"/>
    <path id="Path_2018" data-name="Path 2018" d="M614.067,650.29h-.675v1.594a.345.345,0,0,1-.344.351.337.337,0,0,1-.338-.351v-4.478a.29.29,0,0,1,.283-.3h1.668a1.452,1.452,0,0,1,1.506,1.594,1.425,1.425,0,0,1-1.351,1.567l1,1.418a.344.344,0,1,1-.561.392Zm-.675-2.539v1.9h1.216a.959.959,0,0,0,0-1.9Z" transform="translate(-242.453 -225.333)" fill="#52517b"/>
    <path id="Path_2019" data-name="Path 2019" d="M620.082,651.836a.344.344,0,1,1-.675,0v-4.464a.344.344,0,1,1,.675,0Z" transform="translate(-244.625 -225.284)" fill="#52517b"/>
    <path id="Path_2020" data-name="Path 2020" d="M625.932,651.747a.331.331,0,0,1-.189.446.344.344,0,0,1-.446-.2l-.419-1.108h-2.154L622.292,652a.338.338,0,0,1-.439.2.331.331,0,0,1-.2-.446l1.655-4.356a.473.473,0,0,1,.473-.331h.034a.466.466,0,0,1,.459.331Zm-1.29-1.479-.844-2.384-.837,2.384Z" transform="translate(-245.349 -225.317)" fill="#52517b"/>
    <path id="Path_2021" data-name="Path 2021" d="M629.518,652.146a.358.358,0,0,1-.351-.351v-4.423a.344.344,0,1,1,.675,0V651.5h1.783a.324.324,0,1,1,0,.642Z" transform="translate(-247.794 -225.284)" fill="#52517b"/>
    <path id="Path_2022" data-name="Path 2022" d="M538.639,718.634a3.573,3.573,0,0,0,3.5,2.134H709.231V707.16H542.137c-1.931,0-3.573,2.154-4.423,4.444C537.714,711.6,536.762,714.535,538.639,718.634Z" transform="translate(-218.027 -244.829)" fill="#f8c22e"/>
    <path id="Path_2023" data-name="Path 2023" d="M631.917,707.16c-6.963,5.9-16.256,10.38-26.757,13.608H731.206V707.16Z" transform="translate(-240.002 -244.829)" fill="#fe912a"/>
    <path id="Path_2024" data-name="Path 2024" d="M666.244,717.807c.155,1.925.952,2.958,4.727,2.958h81.386v-.52l-5.93-.047-1.256-12.474h7.186v-.574h-81.4c-3.762,0-4.221,1.168-4.673,4.052A35.012,35.012,0,0,0,666.244,717.807Z" transform="translate(-259.789 -244.826)" fill="#fff"/>
    <path id="Path_2025" data-name="Path 2025" d="M667.828,717.765c.142,1.763.871,2.7,4.322,2.7h79.812V708H672.151c-3.451,0-3.87,1.067-4.288,3.714A31.729,31.729,0,0,0,667.828,717.765Z" transform="translate(-260.306 -245.102)" fill="#fff"/>
    <path id="Path_2026" data-name="Path 2026" d="M668.17,714.42H667.8a35.016,35.016,0,0,0,0,5.443c.142,1.763.871,2.7,4.322,2.7H751.96V714.42Z" transform="translate(-260.304 -247.186)" fill="#d8d8d8"/>
  </g>
</svg>
