<svg xmlns="http://www.w3.org/2000/svg" width="507.374" height="503" viewBox="0 0 507.374 503">
  <g id="lesson-info-graphic" transform="translate(-0.042 8.634)">
    <ellipse id="Ellipse_62" data-name="Ellipse 62" cx="251" cy="251.5" rx="251" ry="251.5" transform="translate(5.416 -8.634)" fill="#f1f1f1"/>
    <path id="Path_698" data-name="Path 698" d="M461.862,476.446H63.133a6.784,6.784,0,0,1-6.763-6.763h0a6.784,6.784,0,0,1,6.763-6.763H461.862a6.784,6.784,0,0,1,6.763,6.763h0a6.784,6.784,0,0,1-6.763,6.763Z" transform="translate(-11.569 -7.362)"/>
    <rect id="Rectangle_243" data-name="Rectangle 243" width="40.6" height="62.29" rx="4.05" transform="translate(230.239 390.266)"/>
    <rect id="Rectangle_244" data-name="Rectangle 244" width="125.002" height="20.131" rx="7.35" transform="translate(188.038 442.601)"/>
    <rect id="Rectangle_245" data-name="Rectangle 245" width="385.972" height="238.985" rx="4.05" transform="translate(57.547 171.286)"/>
    <rect id="Rectangle_246" data-name="Rectangle 246" width="357.192" height="214.313" transform="translate(71.938 183.622)" fill="#474747"/>
    <path id="Path_699" data-name="Path 699" d="M439.332,204.77H82.13V351.336c72.8,2.349,146.134-10.766,214.682-35.817,50.133-18.309,97.781-42.865,142.521-72.024Z" transform="translate(-10.192 -21.159)"/>
    <path id="Path_700" data-name="Path 700" d="M152.875,306.23s-8.565,9.26-19.183,9.945-56.886-22.965-66.125-27.39S51.091,267.947,45.982,269.57s-1.053,7.8,2.054,13.284a13.4,13.4,0,0,1-7.669-3.993C36.9,275.269,36,271.023,34.2,269.738s-3.476-.506-3.729.78c0,0-1.675-2.444-3.6-1.159s-1.053,2.823-1.053,2.823-2.054,2.444-1.549,3.982c0,0-1.928,2.191,1.159,6.173s4.625,9.376,12.083,13.358,15.8,6.321,20.9,9.144,38.977,35.5,66.367,40.263,51.9-14.074,54.99-17.024S152.875,306.23,152.875,306.23Z" transform="translate(-13.317 -17.727)" fill="#e9bfaa"/>
    <path id="Path_701" data-name="Path 701" d="M354.328,302.592s10.966,31.171,6.163,46.257c0,0-22.955,4.793-23.976,4.446s-9.26-3.424-9.26-4.793-4.793-32.889-7.2-41.084,18.846-9.6,18.846-9.6Z" transform="translate(2.514 -16.186)" fill="#e9bfaa"/>
    <path id="Path_702" data-name="Path 702" d="M372.054,321.427s-20.216-56.18-33.921-71.982c-14.485-16.655-52.082-22.955-52.082-22.955s-21.922-6.142-23.618-5.488-17.129,5.141-17.129,5.141c-37.355,11.651-43.191,16.444-52.767,23.987s-51.05,53.452-56.886,61.332c0,0,16.444,23.3,32.2,28.443,0,0,14.748-13.021,19.531-14.053,0,0,4.372,54.568-1.138,92.345H339.218c-3.908-22.449-10.534-65.314-8.28-88.921C330.906,329.307,360.065,331.361,372.054,321.427Z" transform="translate(-7.332 -20.294)" fill="#13a0f0"/>
    <path id="Path_703" data-name="Path 703" d="M243.481,207.856s-1.707,14.39-3.761,19.531c0,0,20.9,12,40.768.348,0,0-3.771-21.248-6.51-27.758S243.481,207.856,243.481,207.856Z" transform="translate(-1.77 -21.505)" fill="#e9bfaa"/>
    <path id="Path_704" data-name="Path 704" d="M228.181,196.885s-21.332-13.231-20.658-51.061c0,0-11.693-1.169-12.083-17.54s14.422-18.319,14.422-18.319-3.16-14.422,12.863-23.776,49.891,8.965,58.076,24.556a30.992,30.992,0,0,1,28.443,22.607c7.016,22.607,9.744,53.4-20.648,63.923S228.181,196.885,228.181,196.885Z" transform="translate(-4.137 -27.632)"/>
    <path id="Path_705" data-name="Path 705" d="M268.051,323.738c-9.249-3.424-16.1-12.336-21.922-11.3s-5.141,11.988-2.749,12.641,7.543,4.8,10.966,4.456,8.564-1.707,9.249-2.739S268.051,323.738,268.051,323.738Z" transform="translate(-1.668 -15.409)" fill="#e9bfaa"/>
    <path id="Path_706" data-name="Path 706" d="M174.229,300.124l27.727,77.123a2.855,2.855,0,0,0,3.16,1.844l58.424-10.777a2.855,2.855,0,0,0,2.2-3.666l-24.166-76.8a2.865,2.865,0,0,0-3.213-1.959l-61.953,10.44a2.855,2.855,0,0,0-2.181,3.792Z" transform="translate(-5.279 -16.825)" fill="#fff"/>
    <path id="Path_707" data-name="Path 707" d="M365.61,347.919s-77.776-21.248-90.449-24.335-27.453-.9-34.269-3.771-12.336-6.163-14.748-3.761.685,4.456.685,4.456-3.877,1.728-2.4,4.108A7.5,7.5,0,0,0,228.2,327.7s-1.053,3.076,3.424,4.108c0,0-1.717,1.053,9.249,6.163s22.955,5.826,29.128,7.2,45.224,18.846,66.125,23.3S362.871,358.179,365.61,347.919Z" transform="translate(-2.605 -15.256)" fill="#e9bfaa"/>
    <path id="Path_708" data-name="Path 708" d="M273.82,199.976c-2.739-6.51-30.55,7.88-30.55,7.88s-.221,1.865-.6,4.488a37.3,37.3,0,0,0,21.069,9.3,36.87,36.87,0,0,0,15.1-1.717C277.5,213.186,275.474,203.905,273.82,199.976Z" transform="translate(-1.612 -21.505)" fill="#dfa083"/>
    <path id="Path_709" data-name="Path 709" d="M291.97,158.286s10.124-5.847,12.072,4.677S298.6,177,292.75,178.2c0,0,4.646,41.232-36.249,39.757-45.467-1.643-35.817-70.581-35.817-70.581s38.2,0,56.517-12.473C277.159,134.9,283.785,155.558,291.97,158.286Z" transform="translate(-2.833 -24.893)" fill="#e9bfaa"/>
    <path id="Path_710" data-name="Path 710" d="M296.829,165.837a3.508,3.508,0,0,0-1.117-1.991,3.392,3.392,0,0,0-1.938-.832,1.9,1.9,0,0,1,.063-.232s.053-.137.053-.147l.074-.147c.095-.169.19-.327.295-.485s0,0,.053-.053l.2-.211a2.106,2.106,0,0,1,.643-.411,1.222,1.222,0,0,0,.727-.748.759.759,0,0,0,0-.643,1.285,1.285,0,0,0-1.549-.453,4.214,4.214,0,0,0-1.243.643,5.509,5.509,0,0,0-1.812,2.5,6.542,6.542,0,0,0-.2,3.4,12.462,12.462,0,0,0,1.053,3.044,1.77,1.77,0,0,0,2.676,1.306A4.6,4.6,0,0,0,296.829,165.837Z" transform="translate(0.967 -23.584)" fill="#dfa083"/>
    <path id="Path_711" data-name="Path 711" d="M243.928,327.746a2.39,2.39,0,0,0-.7-.516,8.673,8.673,0,0,0-1.275-.316c-.822-.179-1.633-.379-2.455-.579a42.756,42.756,0,0,1-4.667-1.464,23.7,23.7,0,0,1-4.372-2.223,20.243,20.243,0,0,1-1.97-1.412c-.306-.242-.59-.5-.906-.737a1.053,1.053,0,0,0-.369-.242c-.242-.063-.316.063-.59-.116v.053c.2.3.095.558.316.832a6.689,6.689,0,0,0,.938.874,22.446,22.446,0,0,0,1.938,1.485,23.967,23.967,0,0,0,4.351,2.328,37.1,37.1,0,0,0,4.867,1.612c.853.221,1.707.421,2.56.622.39.095.78.19,1.169.253a2.159,2.159,0,0,0,1.127-.137.19.19,0,0,0,.032-.316Z" transform="translate(-2.47 -14.993)" fill="#dfa083"/>
    <path id="Path_712" data-name="Path 712" d="M242.428,331.827a30.658,30.658,0,0,0-3.529-.674,27.018,27.018,0,0,1-3.634-.927,26.471,26.471,0,0,1-3.434-1.422c-1.053-.527-2.107-1.169-3.213-1.633-.274-.116-.453.295-.274.485a11.387,11.387,0,0,0,3.066,2.107,25.893,25.893,0,0,0,3.571,1.506c2.286.78,5.025,1.57,7.448,1.053C242.734,332.259,242.66,331.9,242.428,331.827Z" transform="translate(-2.382 -14.618)" fill="#dfa083"/>
    <path id="Path_713" data-name="Path 713" d="M241.818,334.552a17.388,17.388,0,0,1-2.528-.527c-.759-.19-1.506-.337-2.254-.548s-1.485-.464-2.2-.727l-1.053-.421c-.4-.158-.822-.253-1.233-.379a.116.116,0,0,0-.116.19,8.017,8.017,0,0,0,2.107,1.4,14.524,14.524,0,0,0,2.286.853,10.914,10.914,0,0,0,2.391.464,22.125,22.125,0,0,0,2.644-.074.118.118,0,0,0-.042-.232Z" transform="translate(-2.161 -14.362)" fill="#dfa083"/>
    <path id="Path_714" data-name="Path 714" d="M36.144,288.191a24.5,24.5,0,0,1-2.507-2.823c-.727-1.053-1.306-2.233-1.98-3.339a17.845,17.845,0,0,0-2.6-3.3,16.088,16.088,0,0,0-1.612-1.443,3.539,3.539,0,0,0-1.686-.938.137.137,0,0,0-.116.2,6.32,6.32,0,0,0,1.506,1.443,17.785,17.785,0,0,1,1.612,1.6,20.373,20.373,0,0,1,2.528,3.571,30.224,30.224,0,0,0,1.959,3.35,4.319,4.319,0,0,0,2.792,1.959A.181.181,0,0,0,36.144,288.191Z" transform="translate(-13.212 -17.333)" fill="#dfa083"/>
    <path id="Path_715" data-name="Path 715" d="M40.214,284.615a8.606,8.606,0,0,1-2.107-.9,7.5,7.5,0,0,1-1.844-1.517,22.489,22.489,0,0,1-2.6-3.961,14.106,14.106,0,0,0-2.728-3.561c-.442-.39-2.476-1.97-2.813-.737,0,.126.147.242.232.137.411-.506,1.749.8,2.012,1.053a9.786,9.786,0,0,1,1.348,1.675c.79,1.222,1.4,2.549,2.107,3.8a11.914,11.914,0,0,0,2.676,3.3,6.11,6.11,0,0,0,1.7,1,3.329,3.329,0,0,0,2,0,.19.19,0,0,0,.021-.295Z" transform="translate(-13.079 -17.486)" fill="#dfa083"/>
    <path id="Path_716" data-name="Path 716" d="M42.943,282.824a6.6,6.6,0,0,1-2.412-.927,9.03,9.03,0,0,1-2-1.57,19.184,19.184,0,0,1-2.781-4.266,19.046,19.046,0,0,0-2.771-4.214c-.558-.6-1.98-1.591-2.318-.284,0,0,.053.074.074,0,.263-.611,1.338.358,1.57.643a13.274,13.274,0,0,1,1.38,2.033c.832,1.454,1.454,3,2.286,4.446a11.514,11.514,0,0,0,2.992,3.5,5.879,5.879,0,0,0,1.9.969,4.688,4.688,0,0,0,2.107-.053C43.164,283.087,43.1,282.835,42.943,282.824Z" transform="translate(-12.943 -17.623)" fill="#dfa083"/>
    <path id="Path_717" data-name="Path 717" d="M343.05,343.757a7.374,7.374,0,0,1-4.014-1.169c-1.285-.653-2.528-1.391-3.824-2.012a35.31,35.31,0,0,0-3.94-1.58,16.858,16.858,0,0,0-3.75-.885,1.055,1.055,0,0,1,.126-.179h0a.8.8,0,0,1-.516.19h-.147c-.421,0-.748.632-.253.843,1.338.59,2.792.938,4.214,1.443a38.033,38.033,0,0,1,4.3,1.9,27.529,27.529,0,0,0,3.9,1.959,5.668,5.668,0,0,0,4.014-.137C343.261,344.02,343.261,343.736,343.05,343.757Z" transform="translate(2.867 -14.043)" fill="#dfa083"/>
    <path id="Path_718" data-name="Path 718" d="M298.383,156.4a12.494,12.494,0,0,1-2.676.358,6.584,6.584,0,0,1-2.9-.19,12.293,12.293,0,0,1-5.172-3.455,26.789,26.789,0,0,1-5.963-11.156c-.39-1.275-.706-2.57-1.053-3.856-.158-.653-.295-1.306-.464-1.949a2.381,2.381,0,0,0-.843-1.6.8.8,0,0,0-.99-.885,3.645,3.645,0,0,0-1.38.664,12.484,12.484,0,0,1-1.3.916,21.587,21.587,0,0,1-2.813,1.464,65.179,65.179,0,0,1-6.215,2.233c-4.446,1.443-8.954,2.7-13.516,3.708a106.187,106.187,0,0,1-27.779,2.581c-2.623-.116-5.267-.369-7.859-.6s-5.162-.9-7.764-1.117c-.464,0-.685.716-.242.906a35.2,35.2,0,0,0,6.9,1.812,57.053,57.053,0,0,0,7.048,1.053,91.144,91.144,0,0,0,14.39-.063,128.206,128.206,0,0,0,28.317-5.741c2.455-.769,4.92-1.559,7.3-2.56a23.347,23.347,0,0,0,3.287-1.643,13.859,13.859,0,0,0,1.464-1.053v.211c.116.7.295,1.391.442,2.107.274,1.254.59,2.507.938,3.74a37.391,37.391,0,0,0,2.676,6.911c2.107,3.993,5.4,8.08,9.85,9.481a8.122,8.122,0,0,0,3.824.274,3.645,3.645,0,0,0,1.622-.748,5.479,5.479,0,0,0,1.053-1.4C298.742,156.584,298.531,156.331,298.383,156.4Z" transform="translate(-3.4 -24.96)" fill="#474747"/>
    <path id="Path_719" data-name="Path 719" d="M297.348,150.426c-.611.316-1.7-.548-2.17-.864a14.748,14.748,0,0,1-2.7-2.223,45.18,45.18,0,0,1-4.656-5.752,51.987,51.987,0,0,1-3.845-6.321c-.558-1.053-1.053-2.2-1.57-3.329-.337-.758-.706-2.423-1.6-2.707a.169.169,0,0,0-.19.084c-.5.685.126,2,.369,2.7.337.99.716,1.959,1.127,2.929a55.954,55.954,0,0,0,2.971,5.952,45.74,45.74,0,0,0,3.677,5.415,23.766,23.766,0,0,0,4.435,4.53,4.719,4.719,0,0,0,2.971,1.211c.78-.053,1.633-.506,1.591-1.4a.274.274,0,0,0-.411-.221Z" transform="translate(0.406 -25.196)" fill="#474747"/>
    <path id="Path_720" data-name="Path 720" d="M300.488,142.777a5.267,5.267,0,0,0-1.949-2.033c-.748-.579-1.485-1.169-2.2-1.8a33.354,33.354,0,0,1-4.119-4.414,34.145,34.145,0,0,1-3.16-5.035c-.453-.874-.853-1.77-1.233-2.686a11.587,11.587,0,0,0-1.18-2.623.305.305,0,0,0-.5.126,7.259,7.259,0,0,0,.506,2.865,26.81,26.81,0,0,0,1.127,2.939,29.14,29.14,0,0,0,3.066,5.33,30.687,30.687,0,0,0,4.035,4.635,28.451,28.451,0,0,0,2.37,1.98,4.678,4.678,0,0,0,2.813,1.254C300.329,143.3,300.6,143.051,300.488,142.777Z" transform="translate(0.711 -25.47)" fill="#474747"/>
    <path id="Path_721" data-name="Path 721" d="M265.907,125.894c-.874.579-1.812.959-2.728,1.454s-1.717.98-2.591,1.454a38.1,38.1,0,0,1-5.467,2.476,53.884,53.884,0,0,1-12.009,2.771,76.818,76.818,0,0,1-25.177-.969,48.023,48.023,0,0,1-6.721-1.938c-1.117-.421-2.233-.853-3.329-1.306s-2.107-1.053-3.213-1.528c-.158-.053-.253.158-.158.274a12.644,12.644,0,0,0,2.518,1.907,29.9,29.9,0,0,0,2.739,1.643,45.221,45.221,0,0,0,6.047,2.36,50.66,50.66,0,0,0,13.042,2.17c8.522.464,17.4-.105,25.557-2.771a43.347,43.347,0,0,0,6.489-2.728,21.8,21.8,0,0,0,3.023-1.865,25.142,25.142,0,0,0,2.655-2.539C267.013,126.326,266.444,125.547,265.907,125.894Z" transform="translate(-3.654 -25.379)" fill="#474747"/>
    <path id="Path_722" data-name="Path 722" d="M270.189,114.143a50.983,50.983,0,0,0-5.373,2.107c-1.738.758-3.424,1.58-5.193,2.265a71.688,71.688,0,0,1-11.061,3.266,74.436,74.436,0,0,1-22.67,1.159c-2.107-.211-4.277-.527-6.384-.938-1.053-.2-2.033-.411-3.034-.653s-1.9-.5-2.275-1.359c-.084-.19-.379-.084-.369.095,0,1.664,1.865,2.107,3.16,2.549a59.345,59.345,0,0,0,5.889,1.464,66.05,66.05,0,0,0,12.041,1.243,69.338,69.338,0,0,0,23.745-4.1q3.224-1.148,6.321-2.613a20.2,20.2,0,0,0,5.573-3.856.366.366,0,0,0-.369-.632Z" transform="translate(-3.154 -26.005)" fill="#474747"/>
    <path id="Path_723" data-name="Path 723" d="M265.563,106.38c-.706.105-1.412.105-2.107.253s-1.464.263-2.191.453c-1.369.337-2.718.748-4.087,1.053a61.392,61.392,0,0,1-8.428,1.338,58.266,58.266,0,0,1-17.108-.885c-1.538-.316-3.076-.674-4.593-1.053-.8-.221-1.6-.442-2.391-.685a6.447,6.447,0,0,0-2.223-.421.095.095,0,0,0-.063.169,9.228,9.228,0,0,0,3.645,1.865c1.4.516,2.823.98,4.214,1.359a60.288,60.288,0,0,0,8.649,1.57,56.749,56.749,0,0,0,17.6-.832,44.247,44.247,0,0,0,4.814-1.243,12.842,12.842,0,0,0,2.286-.969,25.449,25.449,0,0,0,2.107-1.433.284.284,0,0,0-.126-.537Z" transform="translate(-2.699 -26.417)" fill="#474747"/>
    <path id="Path_724" data-name="Path 724" d="M321.919,320.986c-.137-1.528-.379-3.044-.579-4.551-.4-2.96-.874-5.91-1.4-8.849s-1.106-5.72-1.8-8.554a48.311,48.311,0,0,0-2.5-8.5c-.19-.4-.8-.179-.8.221a60.885,60.885,0,0,0,.99,8.428c.411,2.992.822,5.973,1.264,8.965s.822,5.826,1.211,8.733c.2,1.464.358,2.939.558,4.4a3.75,3.75,0,0,0,1.57,3.023.569.569,0,0,0,.653-.084,3.582,3.582,0,0,0,.832-3.234Z" transform="translate(2.245 -16.586)" fill="#0d8cd4"/>
    <path id="Path_725" data-name="Path 725" d="M183.38,300.979a2.444,2.444,0,0,0-.622-1.053l-.485-.379a2.349,2.349,0,0,0-1.211-.327,1.748,1.748,0,0,0-.927.211,2.159,2.159,0,0,0-1.264,1.264,1.749,1.749,0,0,0-.211.927,4.333,4.333,0,0,0,.084.632,2.318,2.318,0,0,0,.622,1.053l.485.379a2.423,2.423,0,0,0,1.211.327,1.9,1.9,0,0,0,.927-.211,2.16,2.16,0,0,0,1.264-1.264,1.875,1.875,0,0,0,.211-.927C183.432,301.411,183.4,301.19,183.38,300.979Z" transform="translate(-5.033 -16.111)" fill="#4f5680"/>
    <path id="Path_726" data-name="Path 726" d="M237.633,290.587a4.214,4.214,0,0,0-1.812-2.37,6.321,6.321,0,0,0-3.413-.179,7.848,7.848,0,0,0-3.561,1.18.316.316,0,0,0,.242.569c1.053-.19,2.107-.558,3.16-.716a11.813,11.813,0,0,1,1.717-.148,3.234,3.234,0,0,1,1.454.19c.822.379,1.2,1.433,1.5,2.223a10.145,10.145,0,0,0,1.117,2.876c.084.116.242,0,.284-.074C238.675,293.021,238.064,291.619,237.633,290.587Z" transform="translate(-2.358 -16.717)" fill="#4f5680"/>
    <path id="Path_727" data-name="Path 727" d="M259.7,360.477l-.474-1.865c-.147-.622-.306-1.233-.474-1.854a2,2,0,0,0-.632-1.3.305.305,0,0,0-.421.105.357.357,0,0,0,0,.126h0v.053h0l.116.2a.854.854,0,0,1,0,.284,4.932,4.932,0,0,0,.19.938c.126.579.263,1.159.4,1.749l.411,1.749a3.76,3.76,0,0,0,.653,1.664.232.232,0,0,0,.39-.105A3.772,3.772,0,0,0,259.7,360.477Z" transform="translate(-0.809 -13.107)" fill="#4f5680"/>
    <path id="Path_728" data-name="Path 728" d="M234,155.9a.432.432,0,0,0,.158,0H234Z" transform="translate(-2.076 -23.771)" fill="#4f3342"/>
    <path id="Path_731" data-name="Path 731" d="M262.887,155.9a.348.348,0,0,1-.148,0h.148Z" transform="translate(-0.54 -23.771)" fill="#4f3342"/>
    <path id="Path_734" data-name="Path 734" d="M253,177.151Z" transform="translate(-1.06 -22.636)" fill="#dfa083"/>
    <path id="Path_735" data-name="Path 735" d="M253,177.15h0C253.074,177.3,253,177.224,253,177.15Z" transform="translate(-1.06 -22.635)" fill="#dfa083"/>
    <path id="Path_737" data-name="Path 737" d="M247.65,188.45l.358.053h.253Z" transform="translate(-1.346 -22.031)" fill="#fff"/>
    <path id="Path_739" data-name="Path 739" d="M279.135,225.266c-1.58.674-2.992,1.949-4.519,2.76a29.335,29.335,0,0,1-4.741,2.033,30.654,30.654,0,0,1-10.081,1.57,31.541,31.541,0,0,1-10.071-1.8,36.661,36.661,0,0,1-4.772-2.17c-.716-.358-1.433-.769-2.16-1.053a5.32,5.32,0,0,0-2.433-.506.748.748,0,0,0-.716.938c.927,3.424,5.615,5.2,8.638,6.4a34.016,34.016,0,0,0,22.965.822,37.565,37.565,0,0,0,5.446-2.212c1.675-.843,3.856-1.854,5.088-3.318a2.191,2.191,0,0,0-2.644-3.466Z" transform="translate(-1.776 -20.08)" fill="#0d8cd4"/>
    <path id="Path_740" data-name="Path 740" d="M430.047,251.011l-4.266-1.622a28.587,28.587,0,0,0-.137-4.751l4.161-1.865a4.825,4.825,0,0,0,2.423-6.384l-3.36-7.5a4.835,4.835,0,0,0-6.394-2.433l-4.151,1.865a29.133,29.133,0,0,0-3.466-3.266l1.622-4.214a4.825,4.825,0,0,0-2.792-6.226L406,211.686a4.835,4.835,0,0,0-6.236,2.8l-1.612,4.214a29.7,29.7,0,0,0-4.751.137l-1.875-4.151a4.825,4.825,0,0,0-6.384-2.433l-7.5,3.371a4.825,4.825,0,0,0-2.423,6.384l1.865,4.161a29.035,29.035,0,0,0-3.266,3.455L369.6,228a4.835,4.835,0,0,0-6.236,2.8l-2.918,7.68a4.835,4.835,0,0,0,2.792,6.236l4.214,1.612a28.69,28.69,0,0,0,.148,4.762l-4.214,1.865a4.825,4.825,0,0,0-2.423,6.384l3.361,7.5a4.835,4.835,0,0,0,6.384,2.433l4.161-1.875a28.166,28.166,0,0,0,3.455,3.266l-1.612,4.266a4.825,4.825,0,0,0,2.792,6.226l7.69,2.929a4.825,4.825,0,0,0,6.226-2.8l1.622-4.214a28.565,28.565,0,0,0,4.751-.147l1.865,4.161a4.846,4.846,0,0,0,6.394,2.433l7.5-3.371a4.825,4.825,0,0,0,2.423-6.384L416.11,269.6a29.032,29.032,0,0,0,3.266-3.455l4.214,1.622a4.835,4.835,0,0,0,6.236-2.8l2.918-7.69a4.825,4.825,0,0,0-2.7-6.268Zm-39.272,12.23a12.735,12.735,0,1,1,0,.021Z" transform="translate(4.665 -20.806)" fill="#fff"/>
    <path id="Path_741" data-name="Path 741" d="M460.908,301.32l-2.939-1.117a20.011,20.011,0,0,0-.095-3.276l2.876-1.3a3.339,3.339,0,0,0,1.675-4.4l-2.328-5.183a3.329,3.329,0,0,0-4.4-1.675l-2.876,1.285a21.142,21.142,0,0,0-2.391-2.254l1.117-2.939a3.318,3.318,0,0,0-1.928-4.3l-5.267-2.023a3.329,3.329,0,0,0-4.3,1.938l-1.117,2.939a20.1,20.1,0,0,0-3.287.095l-1.285-2.876a3.35,3.35,0,0,0-4.414-1.675l-5.172,2.328a3.329,3.329,0,0,0-1.675,4.4l1.285,2.876a19.4,19.4,0,0,0-2.254,2.391l-2.939-1.117a3.329,3.329,0,0,0-4.309,1.928l-2.012,5.267a3.329,3.329,0,0,0,1.928,4.3l2.939,1.117a20.094,20.094,0,0,0,.105,3.287l-2.876,1.285a3.329,3.329,0,0,0-1.675,4.414l2.328,5.172a3.318,3.318,0,0,0,4.4,1.675L422.9,312.6a19.312,19.312,0,0,0,2.381,2.254l-1.117,2.939a3.35,3.35,0,0,0,1.928,4.309l5.267,2.012a3.35,3.35,0,0,0,4.309-1.928l1.117-2.939a20.019,20.019,0,0,0,3.276-.105l1.3,2.876a3.318,3.318,0,0,0,4.4,1.675l5.183-2.286a3.329,3.329,0,0,0,1.675-4.4l-1.285-2.876a21.074,21.074,0,0,0,2.254-2.381l2.939,1.117a3.329,3.329,0,0,0,4.3-1.928l2.023-5.267a3.339,3.339,0,0,0-1.938-4.351Zm-27.116,8.428a4.36,4.36,0,1,1,0,.074Z" transform="translate(7.472 -17.463)" fill="#38a9e5"/>
    <path id="Path_742" data-name="Path 742" d="M470.422,256.814l-2.023-.769a13.382,13.382,0,0,0-.063-2.254l1.97-.885a2.3,2.3,0,0,0,1.148-3.023l-1.591-3.561a2.307,2.307,0,0,0-3.034-1.148l-1.97.885a13.377,13.377,0,0,0-1.633-1.549L464,242.5a2.307,2.307,0,0,0-1.327-2.96l-3.645-1.38a2.275,2.275,0,0,0-2.95,1.327l-.769,2.012a13.362,13.362,0,0,0-2.254.074l-.885-1.98a2.3,2.3,0,0,0-3.023-1.148l-3.561,1.6a2.286,2.286,0,0,0-1.148,3.023l.885,1.97a13.379,13.379,0,0,0-1.549,1.633l-2.023-.758a2.276,2.276,0,0,0-2.95,1.327l-1.38,3.634a2.3,2.3,0,0,0,1.317,2.96l2.023.758a14.585,14.585,0,0,0,.063,2.254l-1.97.885a2.307,2.307,0,0,0-1.148,3.034l1.6,3.571a2.275,2.275,0,0,0,3.023,1.148l1.97-.885a13.38,13.38,0,0,0,1.633,1.549l-.758,2.023a2.286,2.286,0,0,0,1.317,2.95l3.645,1.391a2.307,2.307,0,0,0,2.96-1.327l.758-2.023a13.373,13.373,0,0,0,2.254-.063l.885,1.97a2.3,2.3,0,0,0,3.023,1.148l3.561-1.591a2.3,2.3,0,0,0,1.148-3.034l-.885-1.97a13.387,13.387,0,0,0,1.549-1.633l2.023.769a2.3,2.3,0,0,0,2.95-1.327l1.391-3.645a2.286,2.286,0,0,0-1.327-2.971Zm-18.614,5.794a7.8,7.8,0,1,1,10.06-4.519,7.8,7.8,0,0,1-10.06,4.519Z" transform="translate(8.788 -19.382)"/>
    <path id="Path_743" data-name="Path 743" d="M89.648,396.9H431.281a2.528,2.528,0,0,0,2.528-2.528h0a2.528,2.528,0,0,0-2.528-2.528H89.648a2.518,2.518,0,0,0-2.528,2.528h0a2.518,2.518,0,0,0,2.528,2.528Z" transform="translate(-9.926 -11.161)" fill="#fff"/>
    <path id="Path_744" data-name="Path 744" d="M89.648,396.9H179.9a2.528,2.528,0,0,0,2.539-2.528h0a2.539,2.539,0,0,0-2.539-2.539H89.648a2.528,2.528,0,0,0-2.528,2.539h0a2.518,2.518,0,0,0,2.528,2.528Z" transform="translate(-9.926 -11.161)" fill="#13a0f0"/>
    <circle id="Ellipse_41" data-name="Ellipse 41" cx="5.151" cy="5.151" r="5.151" transform="translate(166.063 378.098)" fill="#0d8cd4"/>
    <path id="Path_745" data-name="Path 745" d="M94.722,371.986,88.37,368.32v7.332Z" transform="translate(4.721 19.523)" fill="#fff"/>
    <path id="Path_746" data-name="Path 746" d="M102.223,371.986,97.63,368.32v7.332Z" transform="translate(5.216 19.523)" fill="#fff"/>
    <path id="Path_747" data-name="Path 747" d="M104.233,371.986,99.64,368.32v7.332Z" transform="translate(5.323 19.523)" fill="#fff"/>
    <path id="Path_748" data-name="Path 748" d="M79.92,371.986l4.593,3.666V368.32Z" transform="translate(4.269 19.523)" fill="#fff"/>
    <path id="Path_749" data-name="Path 749" d="M77.91,371.986l4.593,3.666V368.32Z" transform="translate(4.162 19.523)" fill="#fff"/>
    <rect id="Rectangle_247" data-name="Rectangle 247" width="6.647" height="6.036" rx="2.12" transform="translate(415.909 389.012)" fill="#fff"/>
    <rect id="Rectangle_248" data-name="Rectangle 248" width="6.647" height="6.036" rx="2.12" transform="translate(406.122 389.012)" fill="#fff"/>
    <path id="Path_750" data-name="Path 750" d="M120.672,211.252A50.039,50.039,0,0,0,41,187.371l31.825,38.6S104.438,216.351,120.672,211.252Z" transform="translate(-12.391 -22.7)" fill="#13a0f0"/>
    <path id="Path_751" data-name="Path 751" d="M41.927,186.79a50.018,50.018,0,0,0,45.3,86.793l-13.442-48.2Z" transform="translate(-13.317 -22.12)"/>
    <path id="Path_752" data-name="Path 752" d="M71.24,224.177l13.442,48.2A50.07,50.07,0,0,0,119.1,209.46C102.822,214.559,71.24,224.177,71.24,224.177Z" transform="translate(-10.774 -20.908)" fill="#fff"/>
    <path id="Path_753" data-name="Path 753" d="M63.394,235.878a63.381,63.381,0,0,0-4.772-5.847c-.906-1.053-1.822-2.107-2.771-3.16a12.9,12.9,0,0,0-3.16-2.813,1.285,1.285,0,0,0-.474-.137,2.544,2.544,0,0,0-.147-.622,8.313,8.313,0,0,1-.442-1.127c0-.4-.632-.674-.843-.221s-.474.506-.685.78a9.394,9.394,0,0,0-.569.864,8.006,8.006,0,0,0-1.053,2.36,48.576,48.576,0,0,0-.938,4.814c-.242,1.654-.5,3.4-.716,5.109a22.955,22.955,0,0,0-.464,5.078,2.16,2.16,0,0,0,4.214.558h0a24.112,24.112,0,0,0,.674-4.751,3.865,3.865,0,0,0,1.053.274c.348,0,.706.074,1.053.084a7.88,7.88,0,0,0,2.507-.464,5.878,5.878,0,0,0,1.917-.969c.527.653,1.053,1.317,1.622,1.938.885.99,2.107,2.265,3.561,1.865C64.564,239.049,64.079,236.921,63.394,235.878Zm-8.744-2.792c.527-.211,0,0-.137,0l-.348.126a7.534,7.534,0,0,1-.79.242,5.66,5.66,0,0,0-.737.263h0c-.369.137-.716.284-1.053.432.105-.874.211-1.759.327-2.644s.263-2.044.369-3.066l.232.327c.769,1.053,1.527,2.107,2.339,3.108l.664.843Z" transform="translate(-12.104 -20.253)" fill="#fff"/>
    <path id="Path_754" data-name="Path 754" d="M85.632,193.195a6.255,6.255,0,0,0-1.38-.137,4.6,4.6,0,0,0,.126-.548,4.066,4.066,0,0,0-2.339-4.677c-1.728-.643-3.645.053-5.172.9a7.29,7.29,0,0,0-2.107,1.7,6.12,6.12,0,0,0-.969,1.854,1.5,1.5,0,0,0-.137-.126,3.306,3.306,0,0,0-.8-.284.59.59,0,0,0-.706.4h0l-.147.19a1.854,1.854,0,0,0-.158.464,2.992,2.992,0,0,0,0,.969,14.055,14.055,0,0,0,.358,2.181c.337,1.254.727,2.518,1.127,3.75s.864,2.507,1.3,3.761c.211.643.421,1.275.653,1.917a9.155,9.155,0,0,0,.548,1.338,5.835,5.835,0,0,0,.843,1.053,1.907,1.907,0,0,0,3.16-.916h.137a4.593,4.593,0,0,0,3.582-.832,16.59,16.59,0,0,0,2.5-2.054,10.081,10.081,0,0,0,3.234-5.9,4.772,4.772,0,0,0-3.645-4.993Zm-.832,5.446a9.408,9.408,0,0,1-2.5,2.929,11.728,11.728,0,0,1-1.4.98,5.941,5.941,0,0,0-1.517,1.275l-.664-1.7c-.516-1.317-1.053-2.644-1.559-3.94a32.371,32.371,0,0,0-1.654-3.54,9.737,9.737,0,0,0-.737-1.117c.453-.284.938-.516,1.4-.78s1.053-.716,1.675-1.053,2.107-1.211,2.9-.885c.6.232.39,1.053.137,1.633-.664,1.38-1.728,2.423-2.254,3.887a2,2,0,0,0,.917,2.254,2.107,2.107,0,0,0,2.423-.316,4.846,4.846,0,0,1,1.433-.927,2.486,2.486,0,0,1,.674-.158h.263l.263.063h.053a1.264,1.264,0,0,1,.221.137h0v.421a3.329,3.329,0,0,1-.074.832Z" transform="translate(-10.744 -22.077)" fill="#fff"/>
    <path id="Path_755" data-name="Path 755" d="M106.52,237.932c-.79-.8-1.812,0-2.634.284h-.179l-.337.147c-.284.116-.558.232-.832.369a16.855,16.855,0,0,0-1.517.737l-.147.074h-.137c-.232.084-.464.158-.706.221s-.453.095-.685.147H98.092l-.274-.053a2.316,2.316,0,0,1-.674-.19H97l-.327-.137c-.2-.105-.411-.221-.611-.348l-.348-.253a7.981,7.981,0,0,1-1-.98h0l-.274-.411q-.169-.295-.316-.6a5.092,5.092,0,0,0-.179-.516c-.032-.084-.053-.263-.095-.39s0-.063,0-.095h0a6.773,6.773,0,0,1,0-.8v-.211a2.227,2.227,0,0,1,.063-.327,6.324,6.324,0,0,1,.232-.758v-.074l.19-.348a6.256,6.256,0,0,1,.4-.622l.105-.126c.116-.116.221-.242.348-.358l.221-.211.084-.084h.063l.327-.221.453-.316c.98-.643,2.918-1.148,2.17-2.718-.59-1.222-2.4-.98-3.466-.716a6.574,6.574,0,0,0-3.013,1.854,8.364,8.364,0,0,0-2.444,6.384,9.481,9.481,0,0,0,9.787,8.533c2.507-.126,5.341-1.053,6.721-3.318a5.381,5.381,0,0,0,.306-.664c0,.084-.137.316,0-.074s.263-.569.358-.874a1.981,1.981,0,0,0-.232-1.959Z" transform="translate(-9.795 -19.926)"/>
    <path id="Path_756" data-name="Path 756" d="M103,237.73h.095Z" transform="translate(-9.077 -19.397)" fill="#fff"/>
    <path id="Path_757" data-name="Path 757" d="M338.243,164.559V70.181a2.381,2.381,0,0,0-2.391-2.391h0a2.391,2.391,0,0,0-2.391,2.391v99.15a2.391,2.391,0,0,0,2.391,2.391h99.161a2.381,2.381,0,0,0,2.391-2.391h0a2.381,2.381,0,0,0-2.391-2.381h-94.4a2.391,2.391,0,0,1-2.37-2.391Z" transform="translate(3.24 -28.48)" fill="#2a2f54"/>
    <rect id="Rectangle_249" data-name="Rectangle 249" width="17.477" height="39.072" rx="3.35" transform="translate(350.532 94.058)" fill="#c5c5c5"/>
    <rect id="Rectangle_250" data-name="Rectangle 250" width="17.477" height="60.52" rx="3.35" transform="translate(380.723 72.61)"/>
    <rect id="Rectangle_251" data-name="Rectangle 251" width="17.477" height="82.116" rx="3.35" transform="translate(410.915 51.014)" fill="#13a0f0"/>
    <path id="Path_758" data-name="Path 758" d="M382.32,88.67l.095.137Z" transform="translate(5.851 -27.364)" fill="#93c6ce"/>
    <path id="Path_759" data-name="Path 759" d="M431.9,58.112a.506.506,0,0,0-.78-.105h.053a.778.778,0,0,0-.442.084,5.339,5.339,0,0,0-.737.369,17.664,17.664,0,0,0-1.633.79c-1.264.706-2.476,1.559-3.666,2.381s-2.349,1.58-3.508,2.391c-.485.327-.938.7-1.391,1.053a1.558,1.558,0,0,0-.063-.147c-.137-.284-.348-.527-.506-.8s-.221-.421-.327-.643a3.906,3.906,0,0,1-.211-.579,4.052,4.052,0,0,1-.105-.421,4.486,4.486,0,0,0-.274-.769l.179.421a2.919,2.919,0,0,1-.105-.274,1.843,1.843,0,0,0-.6-.864,1.549,1.549,0,0,0-1.053-.358,1.844,1.844,0,0,0-.843.232,1.643,1.643,0,0,0-.748.927c-5.615,4.551-10.882,9.607-16.286,14.422-2.676,2.391-5.351,4.772-7.985,7.216-1.306,1.2-2.634,2.381-3.845,3.666-.116-.369-.232-.737-.327-1.053a13.842,13.842,0,0,0-1.338-3.961,1.58,1.58,0,0,0-2.37-.305,2.181,2.181,0,0,0-1.865.622q-8.428,8.069-16.771,16.339c-2.739,2.728-5.394,5.541-8.038,8.428a66.982,66.982,0,0,0-7.637,8.923,1.285,1.285,0,0,0,0,1.306,1.053,1.053,0,0,0,.379.411h.084a1.285,1.285,0,0,0,1.306,0,74.983,74.983,0,0,0,8.733-7.827c2.8-2.686,5.6-5.341,8.354-8.059q7.616-7.5,15.38-14.843h0a14.129,14.129,0,0,0,.506,1.991c.053.147.116.295.179.442a2.687,2.687,0,0,0,.485.822l.274.358.358.274a2.309,2.309,0,0,0,.643.327,1.433,1.433,0,0,0,1.6-.632,9.68,9.68,0,0,0,2.191-1.348c1.37-1.053,2.665-2.107,3.982-3.266,2.8-2.36,5.562-4.783,8.312-7.2,4.835-4.214,9.818-8.354,14.516-12.726a4.477,4.477,0,0,0,.79,1.053,1.928,1.928,0,0,0,1.2.537.927.927,0,0,0,.653.7,3.74,3.74,0,0,0,2.412-.569c.685-.337,1.38-.7,2.033-1.053,1.38-.864,2.76-1.707,4.14-2.581a30.667,30.667,0,0,0,4-2.76,4.214,4.214,0,0,0,1.053-1.506,1.854,1.854,0,0,0-.348-1.833Z" transform="translate(4.044 -29.01)" fill="#13a0f0"/>
    <path id="Path_760" data-name="Path 760" d="M353.915,112.317a3.919,3.919,0,0,0-1.053-1.738l-.8-.622a3.866,3.866,0,0,0-1.991-.537,3,3,0,0,0-1.517.337,2.9,2.9,0,0,0-1.275.822,4.361,4.361,0,0,0-1.148,2.781,9.009,9.009,0,0,0,.137,1.053,4.034,4.034,0,0,0,1.053,1.738l.8.611a4.014,4.014,0,0,0,1.991.548,3.792,3.792,0,0,0,3.6-2.433,2.876,2.876,0,0,0,.337-1.517C354.01,113.012,353.957,112.665,353.915,112.317Z" transform="translate(3.917 -26.255)" fill="#13a0f0"/>
    <path id="Path_761" data-name="Path 761" d="M385.615,80.147a4,4,0,0,0-1.053-1.749l-.8-.611a3.918,3.918,0,0,0-1.991-.537,3.771,3.771,0,0,0-3.6,2.423,2.9,2.9,0,0,0-.337,1.517,9.309,9.309,0,0,0,.137,1.053,4.034,4.034,0,0,0,1.053,1.738l.8.611a3.866,3.866,0,0,0,1.991.537,2.918,2.918,0,0,0,1.517-.337,4.045,4.045,0,0,0,2.423-3.6C385.71,80.863,385.657,80.516,385.615,80.147Z" transform="translate(5.611 -27.974)" fill="#13a0f0"/>
    <path id="Path_762" data-name="Path 762" d="M418.476,60.417a3.918,3.918,0,0,0-1.053-1.738l-.8-.622a3.866,3.866,0,0,0-1.991-.537,3.024,3.024,0,0,0-1.517.337,3.56,3.56,0,0,0-2.107,2.107,3.023,3.023,0,0,0-.337,1.517,9.3,9.3,0,0,0,.137,1.053,4.035,4.035,0,0,0,1.053,1.738l.8.611a3.919,3.919,0,0,0,1.991.537,2.876,2.876,0,0,0,1.517-.337,3.487,3.487,0,0,0,2.107-2.107,2.876,2.876,0,0,0,.337-1.517C418.571,61.112,418.518,60.765,418.476,60.417Z" transform="translate(7.366 -29.029)" fill="#13a0f0"/>
    <path id="Path_763" data-name="Path 763" d="M361.721,149.885a8.428,8.428,0,0,0-1.053-2.686.832.832,0,0,0,.169-.643,1.306,1.306,0,0,0-.948-.885c-.506-1.053-1.053-2.107-1.6-3.16a8.954,8.954,0,0,0-2.444-3.266.579.579,0,0,0-.811.179.98.98,0,0,0-.98.19,12.093,12.093,0,0,0-2.718,4.667c-.337.79-.664,1.591-1.053,2.391a14.344,14.344,0,0,0-.948,2.412,1.622,1.622,0,0,0,.716,1.749l-.19-.148a.937.937,0,0,0,.369.242l.232.063a1.612,1.612,0,0,0,1.707-.716,15.128,15.128,0,0,0,1.053-2.539,5.268,5.268,0,0,0,1.317.316c.748.105,1.517.147,2.265.179h.874l.706,1.6c.116.274.316.737.4.98a4.844,4.844,0,0,1,.19.548,1.509,1.509,0,0,0,.084.232h0a.853.853,0,0,0,.843.843,2.023,2.023,0,0,0,1.822-2.549Zm-7.374-4.446h-.074a1.28,1.28,0,0,1,.074-.179,26.605,26.605,0,0,0,1.053-2.813c.074.211.158.432.242.643.253.716.548,1.422.843,2.107a14.544,14.544,0,0,0-2.17.242Z" transform="translate(4.086 -24.666)" fill="#fff"/>
    <path id="Path_764" data-name="Path 764" d="M350.45,150.37h0C350.829,150.454,350.65,150.412,350.45,150.37Z" transform="translate(4.148 -24.066)" fill="#fff"/>
    <path id="Path_765" data-name="Path 765" d="M384.58,142Z" transform="translate(5.972 -24.513)" fill="#fff"/>
    <path id="Path_766" data-name="Path 766" d="M387.883,143.705l-.137-.095a3.814,3.814,0,0,0-.622-3.424,3.961,3.961,0,0,0-3.308-1.506,3.561,3.561,0,0,0-2.918,1.475,1.647,1.647,0,0,0-.211-.169.843.843,0,0,0-1.159,0c.147-.063.084,0-.179.158a1.233,1.233,0,0,0-.295.506,5.036,5.036,0,0,0-.074.685,9.011,9.011,0,0,0,0,1.306c0,.822.063,1.633.137,2.444l.232,2.433a18.252,18.252,0,0,0,.337,2.834,1.485,1.485,0,0,0,1.633,1.053,1.612,1.612,0,0,0,.548-.19l.179.084.137.063a3.7,3.7,0,0,0,2.623.411,5.867,5.867,0,0,0,2.107-.769,5.383,5.383,0,0,0,2.507-3.413,3.845,3.845,0,0,0-1.538-3.887Zm-1.917,3.677-.126.137-.126.105-.169.137-.242.137-.211.084-.19.063c-.464.147-.938.221-1.4.358-.253.074-.516.116-.769.2l-.211.105a11.51,11.51,0,0,0-.179-1.348l-.263-2.433c-.105-.885-.242-1.749-.39-2.623l-.063-.369h.147a2.707,2.707,0,0,0,1.117-.221l.506-.158h.79a1.75,1.75,0,0,1,.221.063h0a1.109,1.109,0,0,0,.221.126l.095.095.053.074a.515.515,0,0,1,.063.137h0s.137.284,0,.105h0v.105a2.217,2.217,0,0,0,0,.263h0a.58.58,0,0,1,0,.126.263.263,0,0,1-.053.19l-.095.169-.063.095h0a2.834,2.834,0,0,0-.569.274,1.58,1.58,0,0,0-.632,1.938,1.549,1.549,0,0,0,1.833.9,2.767,2.767,0,0,0,.369-.158h.232l.137.105h0a.654.654,0,0,0,.105.169h0v.211h0l-.063.274h0l-.126.232Z" transform="translate(5.672 -24.691)" fill="#fff"/>
    <path id="Path_767" data-name="Path 767" d="M416.6,147.227Z" transform="translate(7.683 -24.241)" fill="#fff"/>
    <path id="Path_768" data-name="Path 768" d="M411.14,143.279l.053-.169h0C411.172,143.184,411.15,143.226,411.14,143.279Z" transform="translate(7.392 -24.454)" fill="#fff"/>
    <path id="Path_769" data-name="Path 769" d="M416.533,146.728h-.2l-.337-.053H413.32l-.369-.084-.358-.116h0a4.121,4.121,0,0,1-.6-.327h0l-.211-.179-.211-.232h0c-.074-.105-.137-.211-.2-.316h0l-.095-.305a.531.531,0,0,1,0-.126v-.643h0a1.718,1.718,0,0,1,.116-.442.641.641,0,0,1,.053-.126s0,0,0-.095v-.074l.053-.095c.053-.105.116-.211.179-.316l.105-.158h0l.063-.063.063-.063a6.494,6.494,0,0,1,.316-.737l.095-.084h0l.348-.221.2-.105h.063c.179-.084.327-.179.5-.274a1.98,1.98,0,0,0,.569-.4,2.894,2.894,0,0,0,.337-.463,1.054,1.054,0,0,0-.169-1.317c-1.359-1.391-3.5-.158-4.593.99a6.258,6.258,0,0,0-1.77,4.214,5.2,5.2,0,0,0,1.728,3.929,6.521,6.521,0,0,0,3.993,1.633,3.719,3.719,0,0,0,2.634-.832,2.508,2.508,0,0,0,.758-1.053,1.756,1.756,0,0,0,.084-.337v-.5A.579.579,0,0,0,416.533,146.728Z" transform="translate(7.213 -24.69)" fill="#fff"/>
    <path id="Path_770" data-name="Path 770" d="M411.51,142.565c.116-.095.137-.126.095-.095l-.063.063Z" transform="translate(7.411 -24.489)" fill="#fff"/>
    <rect id="Rectangle_252" data-name="Rectangle 252" width="110.738" height="71.582" rx="10.45" transform="translate(44.506 58.567)"/>
    <path id="Path_771" data-name="Path 771" d="M78.384,129.191a3.16,3.16,0,0,0-.516-1.6l-.674-.874-.853-.685a3.234,3.234,0,0,0-1.6-.516,3.16,3.16,0,0,0-1.717.084l-.179.063a4.214,4.214,0,0,0-1.928,1.117,4.372,4.372,0,0,0-1.127,1.928l-.158,1.159a4.309,4.309,0,0,0,.6,2.212,3.308,3.308,0,0,0,1.127,1.222,3.16,3.16,0,0,0,1.485.78,4.382,4.382,0,0,0,4.214-1.117l.126-.158c.232-.284.453-.579.674-.874a3.16,3.16,0,0,0,.516-1.6A2.107,2.107,0,0,0,78.384,129.191Z" transform="translate(-10.861 -25.399)" fill="#fff"/>
    <path id="Path_772" data-name="Path 772" d="M101.825,129.19a3.16,3.16,0,0,0-.506-1.6l-.674-.874-.874-.674a3.276,3.276,0,0,0-1.612-.516,3.16,3.16,0,0,0-1.717.084l-.179.063a4.361,4.361,0,0,0-3.055,3.044l-.158,1.159a4.519,4.519,0,0,0,.6,2.212,3.308,3.308,0,0,0,1.127,1.222,3.16,3.16,0,0,0,1.485.78,4.33,4.33,0,0,0,2.318,0,4.214,4.214,0,0,0,1.928-1.117l.137-.158.674-.874a3.16,3.16,0,0,0,.506-1.6A2.107,2.107,0,0,0,101.825,129.19Z" transform="translate(-9.609 -25.398)" fill="#fff"/>
    <path id="Path_773" data-name="Path 773" d="M125.275,129.19a3.276,3.276,0,0,0-.516-1.6l-.674-.874-.874-.674a3.276,3.276,0,0,0-1.6-.516,3.224,3.224,0,0,0-1.728.084l-.179.063a4.351,4.351,0,0,0-1.928,1.117,4.477,4.477,0,0,0-1.127,1.928,8.5,8.5,0,0,1-.147,1.159,4.4,4.4,0,0,0,.59,2.212,3.308,3.308,0,0,0,1.127,1.222,3.16,3.16,0,0,0,1.485.78,4.393,4.393,0,0,0,4.214-1.117l.126-.158.674-.874a3.234,3.234,0,0,0,.516-1.6,2.349,2.349,0,0,0,.042-1.148Z" transform="translate(-8.356 -25.398)" fill="#fff"/>
    <path id="Path_774" data-name="Path 774" d="M148.715,129.19a3.276,3.276,0,0,0-.516-1.6l-.674-.874-.874-.674a3.276,3.276,0,0,0-1.6-.516,3.224,3.224,0,0,0-1.728.084l-.179.063a4.33,4.33,0,0,0-3.044,3.044l-.158,1.159a4.4,4.4,0,0,0,.59,2.212,3.4,3.4,0,0,0,1.127,1.222,3.16,3.16,0,0,0,1.485.78,4.393,4.393,0,0,0,4.214-1.117l.126-.158.674-.874a3.234,3.234,0,0,0,.516-1.6A2.349,2.349,0,0,0,148.715,129.19Z" transform="translate(-7.103 -25.398)" fill="#fff"/>
    <path id="Path_775" data-name="Path 775" d="M167.259,156.178c-.917-2.813-1.938-5.573-2.95-8.343l-1.485-4.087a30.645,30.645,0,0,0-1.749-4.54,2.581,2.581,0,0,0-4.719,2.023h0a26.832,26.832,0,0,0,1.517,4.214l.927,2.476a1.053,1.053,0,0,0-.306.074,1.148,1.148,0,0,0-.674,1.369,10.947,10.947,0,0,0,.527,1.285,2.212,2.212,0,0,0-.063,1.359,14.232,14.232,0,0,0-5.657-1.443,1.138,1.138,0,0,0-.8,1.928c1.5,1.643,3.8,2.486,5.783,3.4a66.991,66.991,0,0,1,5.994,3.16A2.5,2.5,0,0,0,167.259,156.178Z" transform="translate(-6.485 -24.734)"/>
    <rect id="Rectangle_253" data-name="Rectangle 253" width="61.195" height="45.087" rx="6.57" transform="translate(261.4 1.281)" fill="#13a0f0"/>
    <path id="Path_776" data-name="Path 776" d="M301.432,50.9l-14.875-8.6a2.992,2.992,0,0,0-4.477,2.581v17.14a2.981,2.981,0,0,0,4.477,2.581l14.875-8.586a2.981,2.981,0,0,0,0-5.12Z" transform="translate(0.494 -29.863)" fill="#fff"/>
    <circle id="Ellipse_42" data-name="Ellipse 42" cx="24.156" cy="24.156" r="24.156" transform="matrix(0.232, -0.973, 0.973, 0.232, 151.783, 47.605)" fill="#c5c5c5"/>
    <path id="Path_777" data-name="Path 777" d="M197.475,48.25c-2.781,0-5.057,2.275-6.921,4.1q-2.107,2.107-3.993,4.33a58.891,58.891,0,0,0-4,5.267c-.221.337-.421.685-.632,1.053-.822-.653-1.633-1.327-2.433-1.991-1.991-1.612-3.95-3.645-6.668-2.486-1.664.716-1.19,2.981,0,3.824a20.688,20.688,0,0,1,3.634,3.792,26.822,26.822,0,0,1,3.592,4.751c.927,1.77,3.813,2.707,5.488,1.443a8.28,8.28,0,0,0,2.107-2.012c.242-.348.453-.716.685-1.053.527-.832,1.053-1.643,1.664-2.444s1.159-1.591,1.738-2.381l.158-.2.179-.221.938-1.138q1.833-2.181,3.856-4.214c1.57-1.538,3.94-3.255,4.33-5.52C201.647,50.694,200.193,48.292,197.475,48.25Z" transform="translate(-5.403 -29.524)" fill="#fff"/>
    <path id="Path_778" data-name="Path 778" d="M59.231,424.5c-2.813-9.4-6.015-19.141-12.462-26.736-2.539-2.992-8.428-9.428-12.1-4.53-1.643,2.191-1.728,5.352-1.633,7.985s.337,5.478.569,8.206c.916,10.924,2.665,22,7.574,31.919a47.479,47.479,0,0,0,9.091,12.641c2.6,2.57,10.271,9.344,14.411,6.963C71.124,457.259,60.937,430.217,59.231,424.5Z" transform="translate(-12.818 -11.182)"/>
    <path id="Path_779" data-name="Path 779" d="M38.565,447.415c-4.214-3.729-8.691-7.522-14.116-9.291-2.107-.7-6.953-2.054-7.269,1.433a7.269,7.269,0,0,0,1.6,4.382c.874,1.306,1.812,2.57,2.749,3.835,3.729,5.057,7.911,9.934,13.294,13.294a26.979,26.979,0,0,0,8.238,3.445c2.044.474,7.827,1.464,9.123-.938C54.219,459.824,41.114,449.7,38.565,447.415Z" transform="translate(-13.664 -8.733)"/>
    <path id="Path_780" data-name="Path 780" d="M66.587,461.146c-4.056-6.71-8.322-13.294-11.525-20.49-3.434-7.69-5.847-15.8-8.6-23.766a102,102,0,0,0-5.615-13.379.126.126,0,0,0-.221.095c2.423,8.428,4.646,17.034,7.269,25.462,2.391,7.669,5,15.591,9.049,22.586a34.468,34.468,0,0,0,8.543,10.313C66.071,462.452,67.04,461.884,66.587,461.146Z" transform="translate(-12.41 -10.539)" fill="#fff"/>
    <path id="Path_781" data-name="Path 781" d="M56.72,463.578a35.987,35.987,0,0,0-3.971-2.254c-1.422-.622-2.865-1.19-4.214-1.854A69.255,69.255,0,0,1,40.6,454.96c-5.172-3.36-10.05-7.195-15.043-10.829-.116-.084-.253.095-.147.19a115.393,115.393,0,0,0,14.422,12.4,66.879,66.879,0,0,0,7.954,4.9,32.234,32.234,0,0,0,4.3,1.959,14.622,14.622,0,0,0,4.53.622.337.337,0,0,0,.105-.621Z" transform="translate(-13.226 -8.367)" fill="#fff"/>
    <path id="Path_782" data-name="Path 782" d="M80.376,445.192c1.728-3.55,3.434-7.311,3.592-11.325.063-1.58.063-5.1-2.36-4.635a5.088,5.088,0,0,0-2.655,1.917c-.716.843-1.4,1.717-2.107,2.591A35.386,35.386,0,0,0,70.4,445.276a19.131,19.131,0,0,0-.758,6.226c.074,1.475.506,5.573,2.381,5.994C74.982,458.149,79.322,447.362,80.376,445.192Z" transform="translate(-10.861 -9.164)"/>
    <path id="Path_783" data-name="Path 783" d="M72.635,460.587a24.5,24.5,0,0,0,.769-3.16c.147-1.053.253-2.17.442-3.245a48.784,48.784,0,0,1,1.527-6.226c1.3-4.14,2.95-8.175,4.456-12.241,0-.095-.116-.147-.158-.063a80.649,80.649,0,0,0-5.636,12.125,48.881,48.881,0,0,0-1.791,6.321,23.176,23.176,0,0,0-.5,3.287,9.923,9.923,0,0,0,.442,3.16.232.232,0,0,0,.442.042Z" transform="translate(-10.747 -8.821)" fill="#fff"/>
    <path id="Path_784" data-name="Path 784" d="M447.174,424.5c2.813-9.4,6-19.141,12.452-26.736,2.539-2.992,8.428-9.428,12.115-4.53,1.633,2.191,1.728,5.352,1.622,7.985s-.327,5.478-.558,8.206c-.927,10.924-2.665,22-7.585,31.919a47.215,47.215,0,0,1-9.081,12.641c-2.613,2.57-10.282,9.344-14.411,6.963C435.27,457.259,445.457,430.217,447.174,424.5Z" transform="translate(8.913 -11.182)"/>
    <path id="Path_785" data-name="Path 785" d="M467.911,447.415c4.214-3.729,8.68-7.522,14.116-9.291,2.107-.7,6.953-2.054,7.269,1.433a7.28,7.28,0,0,1-1.591,4.382c-.874,1.306-1.8,2.57-2.739,3.835-3.74,5.057-7.911,9.934-13.294,13.295a26.926,26.926,0,0,1-8.248,3.445c-2.044.474-7.817,1.464-9.123-.938C452.257,459.824,465.352,449.7,467.911,447.415Z" transform="translate(9.687 -8.733)"/>
    <path id="Path_786" data-name="Path 786" d="M439.416,461.147c4.066-6.71,8.322-13.294,11.535-20.49,3.424-7.69,5.836-15.8,8.586-23.766a104.958,104.958,0,0,1,5.615-13.379c.063-.126.263,0,.232.095-2.433,8.428-4.646,17.034-7.279,25.462-2.391,7.669-5,15.591-9.039,22.586A34.626,34.626,0,0,1,440.522,462C439.932,462.453,438.984,461.884,439.416,461.147Z" transform="translate(8.897 -10.54)" fill="#fff"/>
    <path id="Path_787" data-name="Path 787" d="M449.558,463.578a36.117,36.117,0,0,1,3.982-2.254c1.422-.622,2.865-1.19,4.266-1.854a69.111,69.111,0,0,0,7.922-4.509c5.183-3.361,10.06-7.2,15.054-10.829.116-.084.242.095.148.19a114.736,114.736,0,0,1-14.432,12.4,67.607,67.607,0,0,1-7.943,4.9,31.772,31.772,0,0,1-4.309,1.959,14.505,14.505,0,0,1-4.519.622.337.337,0,0,1-.169-.621Z" transform="translate(9.437 -8.367)" fill="#fff"/>
    <path id="Path_788" data-name="Path 788" d="M427.473,445.192c-1.728-3.55-3.434-7.311-3.592-11.325-.063-1.58-.063-5.1,2.349-4.646a5.141,5.141,0,0,1,2.665,1.928c.716.843,1.391,1.717,2.107,2.592a35.194,35.194,0,0,1,6.447,11.535,18.814,18.814,0,0,1,.758,6.226c-.074,1.475-.5,5.573-2.37,5.994C432.867,458.15,428.516,447.352,427.473,445.192Z" transform="translate(8.072 -9.165)"/>
    <path id="Path_789" data-name="Path 789" d="M434.884,460.587a24.443,24.443,0,0,1-.758-3.16c-.158-1.053-.263-2.17-.442-3.245a48.822,48.822,0,0,0-1.538-6.226c-1.285-4.14-2.939-8.175-4.446-12.241,0-.095.105-.147.158-.063a81.654,81.654,0,0,1,5.625,12.125,50.144,50.144,0,0,1,1.8,6.321,23.18,23.18,0,0,1,.5,3.287,10.123,10.123,0,0,1-.443,3.16.232.232,0,0,1-.453.042Z" transform="translate(8.277 -8.821)" fill="#fff"/>
    <path id="Path_790" data-name="Path 790" d="M135.69,31.035c-13.052,12.641-25.725,25.736-38.567,38.651-2.012,2.012,1.117,5.151,3.16,3.16,12.9-12.841,26-25.525,38.693-38.567a2.309,2.309,0,1,0-3.287-3.245Z" transform="translate(-9.426 -30.481)" fill="#e8e5e5"/>
    <path id="Path_791" data-name="Path 791" d="M478.014,148.837c-13.695,11.988-27.052,24.387-40.558,36.6-2.107,1.917.843,5.2,2.96,3.3,13.568-12.146,27.316-24.113,40.684-36.47a2.307,2.307,0,0,0-3.087-3.424Z" transform="translate(8.759 -24.176)" fill="#e8e5e5"/>
    <path id="Path_792" data-name="Path 792" d="M34.57,173.6a28.359,28.359,0,0,0-7.817-10.956,2.107,2.107,0,0,0-1.738-.527.811.811,0,0,0-.9-.232c-1.254.516-1.886,1.907-2.623,2.971s-1.622,2.318-2.444,3.476c-1.633,2.307-3.308,4.582-4.962,6.879A1.6,1.6,0,0,0,15.46,177.6a123.689,123.689,0,0,0,17.845-1.78A1.8,1.8,0,0,0,34.57,173.6ZM21.38,169.868c.727-1.138,1.454-2.286,2.17-3.434.179-.295.411-.6.632-.927a25.135,25.135,0,0,1,5.941,7.185,108.884,108.884,0,0,1-11.588,1.485Q20,172.027,21.38,169.868Z" transform="translate(-13.84 -23.453)" fill="#e8e5e5"/>
    <path id="Path_793" data-name="Path 793" d="M318.68,102.716a28.444,28.444,0,0,0-7.827-10.956,2.107,2.107,0,0,0-1.738-.516.8.8,0,0,0-.9-.232c-1.254.516-1.886,1.9-2.623,2.971l-2.444,3.476c-1.633,2.3-3.308,4.582-4.962,6.879a1.591,1.591,0,0,0,1.369,2.381,122.052,122.052,0,0,0,17.845-1.77A1.822,1.822,0,0,0,318.68,102.716Zm-13.189-3.7c.727-1.148,1.454-2.286,2.17-3.434.179-.295.411-.611.632-.938a25.177,25.177,0,0,1,5.941,7.2c-3.824.664-7.68,1.169-11.588,1.475q1.443-2.128,2.844-4.3Z" transform="translate(1.344 -27.241)" fill="#d6e1ea"/>
    <path id="Path_794" data-name="Path 794" d="M461.759,351.736a28.381,28.381,0,0,0-7.827-10.956,2.107,2.107,0,0,0-1.728-.516.822.822,0,0,0-.906-.232c-1.243.516-1.875,1.9-2.623,2.971l-2.412,3.466c-1.643,2.307-3.308,4.593-4.972,6.879a1.6,1.6,0,0,0,1.37,2.391,125.36,125.36,0,0,0,17.856-1.77,1.812,1.812,0,0,0,1.243-2.233Zm-13.189-3.7c.727-1.148,1.454-2.286,2.17-3.434.19-.295.411-.611.632-.938a24.842,24.842,0,0,1,5.941,7.2c-3.824.664-7.669,1.169-11.588,1.475Q447.19,350.209,448.57,348.039Z" transform="translate(8.992 -13.932)" fill="#e8e5e5"/>
    <path id="Path_795" data-name="Path 795" d="M454.82,36.521a8.428,8.428,0,0,0-10.534-4.214,8.67,8.67,0,0,0-5.172,5.162c-2.7,7.058,6.942,13.421,12.894,9.671a7.764,7.764,0,0,0,3.455-4.709,9.312,9.312,0,0,0-.642-5.91Zm-3.455,5.352-.084.316h0l-.095.2c-.084.158-.179.295-.263.453a1.861,1.861,0,0,0-.126.179h0c-.221.232-.442.453-.685.664h0c-.169.105-.327.211-.506.305a4.416,4.416,0,0,0-.453.242h-.084a9.363,9.363,0,0,1-1.053.295h-1.222c-.295-.105-.611-.147-.916-.253h0l-.126-.063c-.147-.084-.306-.169-.442-.263a.959.959,0,0,1-.169-.116h-.053l-.411-.4-.232-.274-.074-.116-.158-.253a5.715,5.715,0,0,1-.274-.506l-.063-.137a.408.408,0,0,0,0-.063c-.105-.348-.2-.685-.274-1.053v-.885a1.551,1.551,0,0,0,0-.221v-.011a4.1,4.1,0,0,1,.095-.5c.169-.622.358-1.117.548-1.643a4.327,4.327,0,0,1,.306-.316l.169-.169h0c.274-.242.126-.063,0,0,.179-.074.748-.485.832-.527h.137l.527-.179.548-.116h0a8.049,8.049,0,0,1,1.127,0H448l.548.126.369.105a2.619,2.619,0,0,0,.284.116c.306.158.579.358.874.537h0v.063l.379.358c.084.095.306.263.337.39s-.253-.358-.116-.147a1.979,1.979,0,0,0,.126.19c.095.147.179.295.263.442l.137.263a3.09,3.09,0,0,1,.126.327,2.675,2.675,0,0,1,.147.5.614.614,0,0,0,.074.358h0v.179a.211.211,0,0,1,0,.074V41.3h0V41.4a4.451,4.451,0,0,1-.232.474Z" transform="translate(8.862 -30.405)" fill="#e8e5e5"/>
    <path id="Path_796" data-name="Path 796" d="M450.14,42.447C450.224,42.342,450.288,42.194,450.14,42.447Z" transform="translate(9.476 -29.842)" fill="#d6e1ea"/>
    <path id="Path_797" data-name="Path 797" d="M444.17,37Z" transform="translate(9.157 -30.125)" fill="#d6e1ea"/>
    <path id="Path_798" data-name="Path 798" d="M450.821,39.8a.97.97,0,0,1,0-.179h0C450.769,39.736,450.811,39.82,450.821,39.8Z" transform="translate(9.511 -29.985)" fill="#d6e1ea"/>
    <path id="Path_799" data-name="Path 799" d="M47.02,342.331a8.428,8.428,0,0,0-10.534-4.214,8.575,8.575,0,0,0-5.162,5.172c-2.7,7.058,6.942,13.431,12.894,9.681a7.764,7.764,0,0,0,3.445-4.709,9.228,9.228,0,0,0-.643-5.931Zm-3.455,5.352-.084.306h0l-.105.211a4.887,4.887,0,0,1-.263.442c0,.063-.084.116-.116.179h0a8.023,8.023,0,0,1-.674.664h0l-.506.306c-.147.084-.316.147-.464.232h-.074a10.021,10.021,0,0,1-1.053.295H38.961c-.295-.105-.622-.147-.917-.253h0l-.137-.074c-.147-.084-.295-.158-.432-.253l-.169-.126h-.053a4.887,4.887,0,0,1-.411-.4l-.232-.274-.084-.116c-.053-.084-.105-.158-.147-.242s-.19-.337-.274-.506l-.063-.137a.671.671,0,0,1,0-.074,10.256,10.256,0,0,1-.274-1.053V346.5a5.268,5.268,0,0,1,0-.579v-.284h0a1.976,1.976,0,0,1,.105-.5c.169-.632.358-1.117.548-1.643.095-.105.19-.221.295-.327l.179-.158h0c.274-.242.126-.053,0,0,.19-.084.758-.485.843-.527a.559.559,0,0,1,.137-.063l.527-.169a2.573,2.573,0,0,0,.548-.126h0a10.079,10.079,0,0,1,1.127,0h.116c.19.053.369.074.548.126l.369.116a2.024,2.024,0,0,1,.284.116c.316.158.59.358.885.527h0l.063.053.369.369c.095.095.316.253.348.39s-.253-.369-.126-.147l.126.179c.095.147.19.295.274.453l.137.263.126.316a4.573,4.573,0,0,1,.147.506,3.579,3.579,0,0,1,.074.358h0v1.264h0a.305.305,0,0,0,0,.095,4.436,4.436,0,0,1-.253.569Z" transform="translate(-12.933 -14.06)" fill="#e8e5e5"/>
    <path id="Path_800" data-name="Path 800" d="M42.38,348.247C42.464,348.142,42.527,348,42.38,348.247Z" transform="translate(-12.317 -13.498)" fill="#d6e1ea"/>
    <path id="Path_801" data-name="Path 801" d="M36.41,342.81Z" transform="translate(-12.636 -13.781)" fill="#d6e1ea"/>
    <path id="Path_802" data-name="Path 802" d="M43.062,345.609a1.054,1.054,0,0,1,0-.179h0C43,345.546,43,345.63,43.062,345.609Z" transform="translate(-12.283 -13.641)" fill="#d6e1ea"/>
    <path id="Path_803" data-name="Path 803" d="M194.45,145.071a8.428,8.428,0,0,0-10.534-4.214,8.67,8.67,0,0,0-5.172,5.162c-2.686,7.058,6.942,13.431,12.9,9.671a7.743,7.743,0,0,0,3.445-4.709,9.239,9.239,0,0,0-.643-5.91ZM191,150.422a.452.452,0,0,1-.095.316h0l-.095.2c-.084.158-.179.305-.263.453a1.863,1.863,0,0,0-.126.179h0c-.221.232-.442.453-.685.664h-.053c-.169.105-.327.221-.5.316l-.464.232h-.084c-.348.116-.7.211-1.053.295H186.3c-.295-.105-.611-.147-.906-.253h0l-.137-.063-.442-.263-.169-.116h0c-.147-.126-.284-.263-.421-.4l-.232-.274-.074-.116-.158-.242c-.095-.169-.19-.337-.274-.516l-.063-.126a.263.263,0,0,0,0-.074,8.722,8.722,0,0,1-.263-1.053v-.305a5.268,5.268,0,0,1,0-.579q0-.111,0-.221v-.084a2,2,0,0,1,.105-.485c.158-.632.358-1.117.537-1.643l.305-.327.179-.158h0c.263-.242.126-.063,0,0,.179-.074.748-.485.843-.527l.126-.053a5.084,5.084,0,0,1,.527-.169l.548-.126h0a10.064,10.064,0,0,1,1.127,0h.011a2.062,2.062,0,0,1,.548.126l.369.116.284.116c.306.147.579.348.874.527h0l.053.053c.137.116.253.232.379.358s.305.263.337.4-.253-.369-.116-.158a1.975,1.975,0,0,0,.126.19c.095.147.179.295.263.453l.147.263s.105.253.126.316.105.337.147.506,0,.232.074.348v.084a.3.3,0,0,1,0,.126v1.032h0a.2.2,0,0,1,0,.084A2.05,2.05,0,0,1,191,150.422Z" transform="translate(-5.054 -24.603)" fill="#d6e1ea"/>
    <path id="Path_804" data-name="Path 804" d="M189.8,151.007C189.884,150.9,189.947,150.765,189.8,151.007Z" transform="translate(-4.438 -24.039)" fill="#d6e1ea"/>
    <path id="Path_805" data-name="Path 805" d="M183.84,145.56Z" transform="translate(-4.757 -24.323)" fill="#d6e1ea"/>
    <path id="Path_806" data-name="Path 806" d="M190.491,148.359a1.165,1.165,0,0,1,0-.179h0C190.439,148.285,190.47,148.37,190.491,148.359Z" transform="translate(-4.403 -24.183)" fill="#d6e1ea"/>
  </g>
</svg>
