<svg xmlns="http://www.w3.org/2000/svg" width="48" height="48" viewBox="0 0 48 48">
  <g id="Group_382" data-name="Group 382" transform="translate(-569 -542)">
    <g id="Ellipse_278" data-name="Ellipse 278" transform="translate(569 542)" fill="#fff" stroke="#000" stroke-width="2">
      <circle cx="24" cy="24" r="24" stroke="none"/>
      <circle cx="24" cy="24" r="23" fill="none"/>
    </g>
    <path id="iconfinder_LinkedIn_alt_367593" d="M46.327,63.3h5.531V79.944H46.327Zm2.8-8.023a2.883,2.883,0,1,0-.072,5.75h.035a2.884,2.884,0,1,0,.037-5.75ZM65.437,62.91a5.491,5.491,0,0,0-4.985,2.747V63.3H54.92c.073,1.561,0,16.644,0,16.644h5.532V70.649a3.809,3.809,0,0,1,.182-1.35,3.029,3.029,0,0,1,2.838-2.023c2,0,2.8,1.527,2.8,3.763v8.9h5.531V70.4C71.807,65.289,69.078,62.91,65.437,62.91Z" transform="translate(534 498.722)"/>
  </g>
</svg>
