<svg xmlns="http://www.w3.org/2000/svg" width="19.25" height="19.164" viewBox="0 0 19.25 19.164">
  <g id="black" transform="translate(-16.053 -16.154)">
    <g id="linkedin" transform="translate(16.053 16.154)">
      <path id="Path_328" data-name="Path 328" d="M4.091,18.318V5.644H.174V18.318Zm0-17.167a1.926,1.926,0,0,0-2.007-2,1.933,1.933,0,0,0-2.031,2,1.921,1.921,0,0,0,1.984,2H2.06A1.933,1.933,0,0,0,4.091,1.152Zm6.391,17.167V11.1a2.939,2.939,0,0,1,.142-1.048,2.352,2.352,0,0,1,2.205-1.572A2.337,2.337,0,0,1,15.36,11.1v7.221H19.3V10.9c0-3.972-2.12-5.82-4.948-5.82a4.281,4.281,0,0,0-3.9,2.179l.028-1.7H6.545c.057,1.213,0,12.751,0,12.751Z" transform="translate(-0.053 0.846)" fill="#818181" fill-rule="evenodd"/>
    </g>
  </g>
</svg>
