<svg xmlns="http://www.w3.org/2000/svg" width="61" height="61" viewBox="0 0 61 61">
  <g id="iconfinder_social-linkedin-circle_771370" transform="translate(-0.337)">
    <g id="Group_140" data-name="Group 140" transform="translate(0)">
      <circle id="Ellipse_87" data-name="Ellipse 87" cx="30.5" cy="30.5" r="30.5" transform="translate(0.337)" fill="#0076b4"/>
    </g>
    <g id="Group_141" data-name="Group 141" transform="translate(12.658 11.607)">
      <path id="Path_970" data-name="Path 970" d="M35.774,58.728h-7.2V35.575h7.2Zm-3.6-26.315a4.173,4.173,0,1,1,4.17-4.173A4.171,4.171,0,0,1,32.175,32.412ZM62.725,58.728h-7.2V47.469c0-2.684-.047-6.139-3.739-6.139-3.745,0-4.316,2.925-4.316,5.947V58.728H40.288V35.575h6.9V38.74h.1A7.559,7.559,0,0,1,54.093,35c7.285,0,8.632,4.794,8.632,11.029v12.7Z" transform="translate(-28 -24.066)" fill="#fff"/>
    </g>
  </g>
</svg>
