<svg xmlns="http://www.w3.org/2000/svg" width="23.513" height="20.731" viewBox="0 0 23.513 20.731">
  <g id="noun_logout_2815367" transform="translate(-2.5 -8.14)">
    <g id="Group_47" data-name="Group 47" transform="translate(2.5 8.14)">
      <path id="Path_386" data-name="Path 386" d="M17,21.1a1.046,1.046,0,0,0-1.04,1.04v2.945H12.747V11.892h3.193v2.945a1.04,1.04,0,0,0,2.079,0v-4.01a1.046,1.046,0,0,0-1.04-1.04H12.747V9.194a1.044,1.044,0,0,0-.4-.817,1.105,1.105,0,0,0-.866-.223L3.342,9.813a1.04,1.04,0,0,0-.842,1.04v15.32a1.059,1.059,0,0,0,.842,1.04l8.143,1.634a.615.615,0,0,0,.2.025.976.976,0,0,0,.668-.248,1.044,1.044,0,0,0,.4-.817v-.594h4.232a1.046,1.046,0,0,0,1.04-1.04v-4.01A1.016,1.016,0,0,0,17,21.1ZM9.579,19.614A1.114,1.114,0,1,1,10.692,18.5,1.109,1.109,0,0,1,9.579,19.614Z" transform="translate(-2.5 -8.14)" fill="#a3a6a8"/>
      <path id="Path_387" data-name="Path 387" d="M62.362,36.71l-3.069-3.069a1.05,1.05,0,0,0-1.485,1.485l1.262,1.262H52.24a1.04,1.04,0,1,0,0,2.079h6.831l-1.262,1.262a1.031,1.031,0,0,0,0,1.485,1.077,1.077,0,0,0,1.485,0l3.069-3.02A1.077,1.077,0,0,0,62.362,36.71Z" transform="translate(-39.147 -27.092)" fill="#a3a6a8"/>
    </g>
  </g>
</svg>
