<svg id="noun_logout_3079437" xmlns="http://www.w3.org/2000/svg" width="49.23" height="40" viewBox="0 0 49.23 40">
  <path id="Path_2216" data-name="Path 2216" d="M52.218,58.92a16.922,16.922,0,0,0,13.953-7.361A1.538,1.538,0,1,1,68.709,53.3a20,20,0,1,1,0-22.6,1.538,1.538,0,1,1-2.538,1.738A16.922,16.922,0,1,0,52.218,58.92Z" transform="translate(-32.21 -21.998)"/>
  <path id="Path_2217" data-name="Path 2217" d="M40.937,53.468a1.538,1.538,0,0,1-1.085.454,1.592,1.592,0,0,1-.592-.115,1.538,1.538,0,0,1-.946-1.423V47H16.008V43.922H38.314V38.538a1.533,1.533,0,0,1,2.623-1.085l6.923,6.923a1.538,1.538,0,0,1,0,2.169Z" transform="translate(0.923 -25.461)"/>
</svg>
