<svg xmlns="http://www.w3.org/2000/svg" width="55" height="55" viewBox="0 0 55 55">
  <g id="Group_393" data-name="Group 393" transform="translate(-1840 -3878)">
    <circle id="Ellipse_270" data-name="Ellipse 270" cx="27.5" cy="27.5" r="27.5" transform="translate(1840 3878)" fill="#13a0f0"/>
    <g id="noun_Email_1019363" transform="translate(1846.488 3882.273)">
      <g id="Group_268" data-name="Group 268" transform="translate(1.512 7.728)">
        <g id="Group_266" data-name="Group 266">
          <g id="Group_265" data-name="Group 265" transform="translate(0 23.611)">
            <path id="Path_3591" data-name="Path 3591" d="M9.666,47.774H2.682a1.17,1.17,0,0,1,0-2.341H9.666a1.17,1.17,0,0,1,0,2.341Z" transform="translate(-1.512 -45.433)" fill="#fff"/>
          </g>
          <path id="Path_3592" data-name="Path 3592" d="M42.008,22.157h0v0a3.336,3.336,0,0,0-.008-1.2v-.005l0-.011,0-.007-.013-.058c-.005-.025-.011-.049-.016-.075V20.8l0-.009v0h0l0,0a3.383,3.383,0,0,0-.377-.921v0h0a3.319,3.319,0,0,0-1.371-1.274L19.241,8.08a3.329,3.329,0,0,0-1.849-.334h0a3.369,3.369,0,0,0-1,.267h0l-.1.047,0,0-.007,0h0a3.353,3.353,0,0,0-.976.72h0a3.327,3.327,0,0,0-.547.785L8.19,22.676a3.35,3.35,0,0,0,1.494,4.491l20.97,10.5a3.35,3.35,0,0,0,4.491-1.494l6.56-13.1A3.322,3.322,0,0,0,42.008,22.157Zm-2.761.6L33.524,34.183l-3.162-9.506ZM23.006,25.335a1.169,1.169,0,0,0,1.308.649l3.747-.81,3.424,10.291L11.339,25.378l10.119-3.366Zm15.746-4.867L24.734,23.5,18.625,10.389Zm-18.289-.591-9.9,3.3,5.925-11.833Z" transform="translate(-3.876 -7.728)" fill="#fff"/>
        </g>
        <g id="Group_267" data-name="Group 267" transform="translate(0 28.058)">
          <path id="Path_3593" data-name="Path 3593" d="M15.423,54.876H2.682a1.17,1.17,0,1,1,0-2.341H15.424a1.17,1.17,0,1,1,0,2.341Z" transform="translate(-1.512 -52.535)" fill="#fff"/>
        </g>
      </g>
    </g>
  </g>
</svg>
