<svg xmlns="http://www.w3.org/2000/svg" width="84.277" height="51.001" viewBox="0 0 84.277 51.001">
  <g id="Page-1" transform="translate(-10.454 -8.414)">
    <g id="Master" transform="translate(10.454 8.414)">
      <path id="path2268" d="M117.736,33.914a25.223,25.223,0,1,1-50.444.013v-.013a25.223,25.223,0,1,1,50.444-.013v.013Zm0,0" transform="translate(-33.459 -8.414)" fill="#dfac16" fill-rule="evenodd"/>
      <path id="path1350" d="M36.514,8.425a25.5,25.5,0,0,0,.163,50.987A24.98,24.98,0,0,0,53.649,52.77h0a25.614,25.614,0,0,0,2.561-2.73H51.045a24.893,24.893,0,0,1-1.88-2.626h8.912a25.626,25.626,0,0,0,1.468-2.73H47.693A25.3,25.3,0,0,1,46.639,42H60.6a25.871,25.871,0,0,0,.717-13.545H45.9a25.647,25.647,0,0,1,.72-2.678H60.585a25.665,25.665,0,0,0-1.087-2.73H47.692a24.545,24.545,0,0,1,1.447-2.678h8.906a25.551,25.551,0,0,0-1.958-2.73H51.122a23.542,23.542,0,0,1,2.53-2.575A24.984,24.984,0,0,0,36.676,8.425Zm0,0" transform="translate(-11.454 -8.418)" fill="#bf3126" fill-rule="evenodd"/>
      <path id="path4157" d="M65.348,53.441l.336-2.307c-.184,0-.454.079-.692.079-.935,0-1.038-.5-.978-.874l.755-4.708H66.19l.343-2.552h-1.34l.273-1.587H62.781c-.059.06-1.585,8.926-1.585,10.006a2,2,0,0,0,2.14,2.3,7,7,0,0,0,2.013-.356Zm0,0" transform="translate(-31.057 -21.45)" fill="#fff" fill-rule="evenodd"/>
      <path id="path4155" d="M69.454,49.878c0,3.836,2.5,4.747,4.639,4.747a6.771,6.771,0,0,0,2.837-.445l.473-2.618a8.29,8.29,0,0,1-2.852.667c-2.884,0-2.379-2.173-2.379-2.173H77.63a19.72,19.72,0,0,0,.352-2.476c0-1.788-.881-3.968-3.829-3.968-2.7,0-4.7,2.941-4.7,6.265Zm4.709-3.834c1.516,0,1.236,1.721,1.236,1.861H72.418c0-.178.282-1.861,1.746-1.861Zm0,0" transform="translate(-34.311 -22.285)" fill="#fff" fill-rule="evenodd"/>
      <path id="path4151" d="M100.62,52.708l.48-2.959a6.412,6.412,0,0,1-2.222.668c-1.905,0-2.669-1.47-2.669-3.05,0-3.2,1.639-4.967,3.464-4.967a4.748,4.748,0,0,1,2.467.777l.439-2.875a9.559,9.559,0,0,0-3.025-.666c-3.1,0-6.116,2.718-6.116,7.824,0,3.385,1.629,5.621,4.833,5.621a12.263,12.263,0,0,0,2.349-.372Zm0,0" transform="translate(-43.763 -20.718)" fill="#fff" fill-rule="evenodd"/>
      <path id="path4149" d="M40.427,43.682a9.191,9.191,0,0,0-3.253.6l-.39,2.338a8.4,8.4,0,0,1,2.926-.478c1,0,1.732.114,1.732.935a1.751,1.751,0,0,1-.09.683s-.789-.067-1.154-.067c-2.322,0-4.762,1-4.762,4.022,0,2.38,1.6,2.926,2.593,2.926a3.483,3.483,0,0,0,2.755-1.246L40.7,54.431H43.06l1.055-7.475c0-3.171-2.737-3.273-3.688-3.273ZM41,49.769c.051.457-.283,2.6-1.9,2.6a.984.984,0,0,1-1.051-1.025c0-.743.4-1.635,2.367-1.635a1.693,1.693,0,0,1,.584.063Zm0,0" transform="translate(-20.905 -22.313)" fill="#fff" fill-rule="evenodd"/>
      <path id="path4145" d="M51.947,54.6c.6,0,4.063.155,4.063-3.451,0-3.372-3.2-2.706-3.2-4.06,0-.674.522-.887,1.475-.887.379,0,1.835.122,1.835.122l.339-2.4a12.4,12.4,0,0,0-2.478-.213c-1.987,0-4,.8-4,3.544,0,3.108,3.362,2.8,3.362,4.1,0,.874-.939.945-1.663.945a8.685,8.685,0,0,1-2.385-.414l-.358,2.373a8.44,8.44,0,0,0,3.013.334Zm0,0" transform="translate(-26.225 -22.324)" fill="#fff" fill-rule="evenodd"/>
      <path id="path4139" d="M137.007,40.13l-.579,3.633a3.542,3.542,0,0,0-2.593-1.411c-2.461,0-4.511,3-4.511,6.444,0,2.224,1.094,4.4,3.33,4.4a3.345,3.345,0,0,0,2.5-1.134l-.118.968h2.612L139.7,40.126l-2.692,0Zm-1.247,7.084c0,1.434-.7,3.349-2.158,3.349-.966,0-1.419-.82-1.419-2.107,0-2.1.935-3.493,2.115-3.493.967,0,1.463.671,1.463,2.251Zm0,0" transform="translate(-57.905 -20.911)" fill="#fff" fill-rule="evenodd"/>
      <path id="path4133" d="M17.991,53.041,19.626,43.3l.24,9.745h1.85L25.168,43.3l-1.529,9.745h2.749l2.117-12.925H24.254l-2.648,7.93-.138-7.93H17.55L15.4,53.041Zm0,0" transform="translate(-13.01 -20.907)" fill="#fff" fill-rule="evenodd"/>
      <path id="path4131" d="M86.168,54.546c.782-4.493.927-8.141,2.792-7.474a10.52,10.52,0,0,1,1-3.148,2.8,2.8,0,0,0-.518-.035c-1.2,0-2.094,1.661-2.094,1.661l.239-1.525h-2.5L83.41,54.546Zm0,0" transform="translate(-39.811 -22.394)" fill="#fff" fill-rule="evenodd"/>
      <path id="path4149_1_" d="M112.273,43.682a9.188,9.188,0,0,0-3.253.6l-.39,2.338a8.4,8.4,0,0,1,2.927-.478c1,0,1.73.114,1.73.935a1.762,1.762,0,0,1-.089.683s-.788-.067-1.154-.067c-2.322,0-4.762,1-4.762,4.022,0,2.38,1.6,2.926,2.592,2.926a3.484,3.484,0,0,0,2.755-1.246l-.088,1.037h2.364l1.055-7.475c0-3.171-2.737-3.273-3.688-3.273Zm.576,6.087c.051.457-.283,2.6-1.9,2.6a.984.984,0,0,1-1.05-1.025c0-.743.4-1.635,2.367-1.635a1.7,1.7,0,0,1,.584.063Zm0,0" transform="translate(-49.219 -22.313)" fill="#fff" fill-rule="evenodd"/>
      <path id="path4131_1_" d="M123.379,54.546c.782-4.493.926-8.141,2.791-7.474a10.541,10.541,0,0,1,1-3.148,2.8,2.8,0,0,0-.517-.035c-1.2,0-2.094,1.661-2.094,1.661l.239-1.525h-2.5l-1.675,10.521Zm0,0" transform="translate(-54.475 -22.394)" fill="#fff" fill-rule="evenodd"/>
    </g>
  </g>
</svg>
