<svg xmlns="http://www.w3.org/2000/svg" width="20.2" height="17.343" viewBox="0 0 20.2 17.343">
  <g id="noun_message_3582669" transform="translate(-1.9 -3.9)">
    <path id="Path_4" data-name="Path 4" d="M19.857,4H4.143A2.1,2.1,0,0,0,2,6.143V19a2.1,2.1,0,0,0,2.143,2.143H19.857A2.1,2.1,0,0,0,22,19V6.143A2.1,2.1,0,0,0,19.857,4ZM4.143,5.429H19.857a.675.675,0,0,1,.714.714V7.214l-8.143,5.643a.774.774,0,0,1-.786,0L3.429,7.214V6.143A.675.675,0,0,1,4.143,5.429ZM19.857,19.714H4.143A.675.675,0,0,1,3.429,19V8.929L10.786,14a2.153,2.153,0,0,0,2.429,0l7.357-5.071V19A.675.675,0,0,1,19.857,19.714Z" fill="#13a0f0" stroke="#13a0f0" stroke-width="0.2"/>
  </g>
</svg>
