<svg xmlns="http://www.w3.org/2000/svg" width="22.45" height="19.271" viewBox="0 0 22.45 19.271">
  <g id="noun_message_3582669" transform="translate(-1.9 -3.9)">
    <path id="Path_4" data-name="Path 4" d="M21.866,4H4.384A2.341,2.341,0,0,0,2,6.384v14.3a2.341,2.341,0,0,0,2.384,2.384H21.866a2.341,2.341,0,0,0,2.384-2.384V6.384A2.341,2.341,0,0,0,21.866,4ZM4.384,5.589H21.866a.751.751,0,0,1,.795.795V7.576L13.6,13.854a.861.861,0,0,1-.874,0L3.589,7.576V6.384A.751.751,0,0,1,4.384,5.589ZM21.866,21.482H4.384a.751.751,0,0,1-.795-.795V9.483l8.185,5.642a2.4,2.4,0,0,0,2.7,0l8.185-5.642v11.2A.751.751,0,0,1,21.866,21.482Z" fill="#fff" stroke="#fff" stroke-width="0.2"/>
  </g>
</svg>
