<svg id="message-graphics" xmlns="http://www.w3.org/2000/svg" width="249.321" height="218.052" viewBox="0 0 249.321 218.052">
  <line id="Line_48" data-name="Line 48" x2="44.306" transform="translate(12.165 23.203)" fill="none" stroke="#13a0f0" stroke-miterlimit="10" stroke-width="3"/>
  <line id="Line_49" data-name="Line 49" x2="44.306" transform="translate(25.496 29.4)" fill="none" stroke="#13a0f0" stroke-miterlimit="10" stroke-width="3"/>
  <line id="Line_50" data-name="Line 50" x2="44.306" transform="translate(157.932 1.5)" fill="none" stroke="#13a0f0" stroke-miterlimit="10" stroke-width="3"/>
  <line id="Line_51" data-name="Line 51" x2="44.306" transform="translate(171.269 7.696)" fill="none" stroke="#13a0f0" stroke-miterlimit="10" stroke-width="3"/>
  <line id="Line_52" data-name="Line 52" x2="28.818" transform="translate(204.14 123.537)" fill="none" stroke="#000" stroke-miterlimit="10" stroke-width="3"/>
  <line id="Line_53" data-name="Line 53" x2="30.975" transform="translate(217.471 129.733)" fill="none" stroke="#000" stroke-miterlimit="10" stroke-width="3"/>
  <line id="Line_54" data-name="Line 54" x2="28.818" transform="translate(0 170.052)" fill="none" stroke="#000" stroke-miterlimit="10" stroke-width="3"/>
  <line id="Line_55" data-name="Line 55" x2="30.975" transform="translate(13.331 176.255)" fill="none" stroke="#000" stroke-miterlimit="10" stroke-width="3"/>
  <path id="Path_2953" data-name="Path 2953" d="M172.132,62.095a4.411,4.411,0,1,1-4.411-4.4A4.411,4.411,0,0,1,172.132,62.095Z" transform="translate(-71.206 -41.51)" fill="none" stroke="#b9bfc4" stroke-miterlimit="10" stroke-width="2.5"/>
  <path id="Path_2954" data-name="Path 2954" d="M357.762,112.435a4.411,4.411,0,1,1-4.4-4.4,4.411,4.411,0,0,1,4.4,4.4Z" transform="translate(-135.887 -59.051)" fill="none" stroke="#b9bfc4" stroke-miterlimit="10" stroke-width="2.5"/>
  <path id="Path_2955" data-name="Path 2955" d="M45.642,145.711a4.411,4.411,0,1,1-4.411-4.411A4.411,4.411,0,0,1,45.642,145.711Z" transform="translate(-27.131 -70.643)" fill="none" stroke="#b9bfc4" stroke-miterlimit="10" stroke-width="2.5"/>
  <path id="Path_2956" data-name="Path 2956" d="M374.772,296.251a4.411,4.411,0,1,1-4.411-4.411A4.411,4.411,0,0,1,374.772,296.251Z" transform="translate(-141.813 -123.098)" fill="none" stroke="#b9bfc4" stroke-miterlimit="10" stroke-width="2.5"/>
  <line id="Line_56" data-name="Line 56" x2="9.18" y2="9.187" transform="translate(181.225 24.806)" fill="none" stroke="#13a0f0" stroke-linecap="round" stroke-miterlimit="10" stroke-width="1.56"/>
  <line id="Line_57" data-name="Line 57" x1="9.18" y2="9.187" transform="translate(181.225 24.806)" fill="none" stroke="#13a0f0" stroke-linecap="round" stroke-miterlimit="10" stroke-width="1.56"/>
  <line id="Line_58" data-name="Line 58" y2="11.494" transform="translate(185.818 23.653)" fill="none" stroke="#13a0f0" stroke-linecap="round" stroke-miterlimit="10" stroke-width="1.75"/>
  <line id="Line_59" data-name="Line 59" x1="11.494" transform="translate(180.072 29.4)" fill="none" stroke="#13a0f0" stroke-linecap="round" stroke-miterlimit="10" stroke-width="1.75"/>
  <line id="Line_60" data-name="Line 60" x2="9.18" y2="9.18" transform="translate(238.106 78.156)" fill="none" stroke="#13a0f0" stroke-linecap="round" stroke-miterlimit="10" stroke-width="1.56"/>
  <line id="Line_61" data-name="Line 61" x1="9.18" y2="9.18" transform="translate(238.106 78.156)" fill="none" stroke="#13a0f0" stroke-linecap="round" stroke-miterlimit="10" stroke-width="1.56"/>
  <line id="Line_62" data-name="Line 62" y2="11.494" transform="translate(242.699 77.003)" fill="none" stroke="#13a0f0" stroke-linecap="round" stroke-miterlimit="10" stroke-width="1.75"/>
  <line id="Line_63" data-name="Line 63" x1="11.494" transform="translate(236.953 82.749)" fill="none" stroke="#13a0f0" stroke-linecap="round" stroke-miterlimit="10" stroke-width="1.75"/>
  <line id="Line_64" data-name="Line 64" x2="9.187" y2="9.18" transform="translate(6.796 129.466)" fill="none" stroke="#13a0f0" stroke-linecap="round" stroke-miterlimit="10" stroke-width="1.56"/>
  <line id="Line_65" data-name="Line 65" x1="9.187" y2="9.18" transform="translate(6.796 129.466)" fill="none" stroke="#13a0f0" stroke-linecap="round" stroke-miterlimit="10" stroke-width="1.56"/>
  <line id="Line_66" data-name="Line 66" y2="11.494" transform="translate(11.389 128.307)" fill="none" stroke="#13a0f0" stroke-linecap="round" stroke-miterlimit="10" stroke-width="1.75"/>
  <line id="Line_67" data-name="Line 67" x1="11.494" transform="translate(5.643 134.053)" fill="none" stroke="#13a0f0" stroke-linecap="round" stroke-miterlimit="10" stroke-width="1.75"/>
  <ellipse id="Ellipse_153" data-name="Ellipse 153" cx="108.439" cy="24.023" rx="108.439" ry="24.023" transform="translate(15.781 170.006)" fill="#bddff2"/>
  <rect id="Rectangle_982" data-name="Rectangle 982" width="165.014" height="95.375" transform="translate(41.713 102.264)" stroke="#13a0f0" stroke-linecap="round" stroke-linejoin="round" stroke-width="6.97"/>
  <path id="Path_2957" data-name="Path 2957" d="M229.034,156.15H64.02l82.507,63.586Z" transform="translate(-22.307 -53.886)" fill="#0d89cf"/>
  <path id="Path_2958" data-name="Path 2958" d="M229.034,124.174H64.02L146.527,64.38Z" transform="translate(-22.307 -21.91)" fill="#0d89cf" stroke="#13a0f0" stroke-linecap="round" stroke-linejoin="round" stroke-width="6.97"/>
  <path id="Path_2959" data-name="Path 2959" d="M103.52,148.864l55.259,45.642,59.038-46.228V78.32H103.52Z" transform="translate(-36.071 -26.767)" fill="#f6f6f6" stroke="#13a0f0" stroke-linecap="round" stroke-linejoin="round" stroke-width="7.41"/>
  <path id="Path_2960" data-name="Path 2960" d="M229.034,272.979H64.02l82.507-55.259Z" transform="translate(-22.307 -75.34)" stroke="#13a0f0" stroke-linecap="round" stroke-linejoin="round" stroke-width="6.97"/>
  <path id="Path_2961" data-name="Path 2961" d="M202.814,198.724a23.051,23.051,0,1,1,23.065-23.072l.059,10.158a6.893,6.893,0,0,1-2.092,5.291,8.408,8.408,0,0,1-5.981,1.955,6.75,6.75,0,0,1-7.252-7.167V185.8a12.712,12.712,0,1,1,5.082-10.269v10.243a2.026,2.026,0,0,0,.476,1.3,2.059,2.059,0,0,0,1.694.606,2.241,2.241,0,0,0,1.753-.606,1.955,1.955,0,0,0,.534-1.3V175.619a17.3,17.3,0,1,0-17.305,17.3,2.88,2.88,0,0,1,0,5.76Zm5.532-28.369a7.558,7.558,0,1,0,0,10.64,7.1,7.1,0,0,0,2.176-4.4v-.99a3.461,3.461,0,0,1,0-.45A7.167,7.167,0,0,0,208.345,170.355Z" transform="translate(-76.939 -74.587)" fill="#25282a"/>
</svg>
