<svg xmlns="http://www.w3.org/2000/svg" width="26.81" height="28.71" viewBox="0 0 26.81 28.71">
  <g id="noun_User_2074137" transform="translate(-17.74 -12.65)">
    <path id="Path_26" data-name="Path 26" d="M44.5,37.318v-.446a8.783,8.783,0,0,0-7.506-8.648,14.574,14.574,0,0,0,2.261-7.414,8.11,8.11,0,1,0-16.22,0A14.574,14.574,0,0,0,25.3,28.224a8.783,8.783,0,0,0-7.506,8.648v.446a4,4,0,0,0,3.992,3.992H40.508A4,4,0,0,0,44.5,37.318ZM31.145,14.588a6.23,6.23,0,0,1,6.222,6.222c0,3.749-2.611,9.31-6.222,9.31s-6.222-5.56-6.222-9.31a6.23,6.23,0,0,1,6.222-6.222ZM19.793,37.318v-.446a6.787,6.787,0,0,1,6.2-6.733h.865a5.854,5.854,0,0,0,8.594-.019h.838A6.787,6.787,0,0,1,42.5,36.872v.446a2,2,0,0,1-2,2H21.782A2,2,0,0,1,19.793,37.318Z" stroke="#000" stroke-width="0.1"/>
  </g>
</svg>
