<svg xmlns="http://www.w3.org/2000/svg" width="26.7" height="22.914" viewBox="0 0 26.7 22.914">
  <g id="noun_message_3582669" transform="translate(-1.9 -3.9)">
    <path id="Path_4" data-name="Path 4" d="M25.661,4H4.839A2.789,2.789,0,0,0,2,6.839V23.875a2.789,2.789,0,0,0,2.839,2.839H25.661A2.789,2.789,0,0,0,28.5,23.875V6.839A2.789,2.789,0,0,0,25.661,4ZM4.839,5.893H25.661a.894.894,0,0,1,.946.946v1.42L15.818,15.736a1.025,1.025,0,0,1-1.041,0L3.893,8.259V6.839A.894.894,0,0,1,4.839,5.893ZM25.661,24.821H4.839a.894.894,0,0,1-.946-.946V10.53l9.748,6.72a2.853,2.853,0,0,0,3.218,0l9.748-6.72V23.875A.894.894,0,0,1,25.661,24.821Z" stroke="#000" stroke-width="0.2"/>
  </g>
</svg>
