<svg xmlns="http://www.w3.org/2000/svg" width="56.714" height="57" viewBox="0 0 56.714 57">
  <g id="noun_notes_1353560" transform="translate(-1.23 -0.95)">
    <path id="Path_2976" data-name="Path 2976" d="M72.706,36.882l-.773-.581,1.262-1.744A5.407,5.407,0,0,0,71.968,27l-1.326-.936a5.407,5.407,0,0,0-7.558,1.227L42.579,55.777a1.448,1.448,0,0,0-.262.634l-1.326,9.983a1.453,1.453,0,0,0,2.076,1.494l9.064-4.4a1.453,1.453,0,0,0,.547-.459L70.23,38.684l.773.581a1.587,1.587,0,0,1,.36,2.221l-6.308,8.721a1.454,1.454,0,1,0,2.36,1.7l6.308-8.721a4.5,4.5,0,0,0-1.017-6.3Zm-7.267-7.9a2.5,2.5,0,0,1,3.488-.581l1.343.965a2.5,2.5,0,0,1,.581,3.488L51.712,59.411a8.453,8.453,0,0,0-5.4-3.884ZM45.009,58.248a5.581,5.581,0,0,1,4.541,3.273L44.241,64.1Z" transform="translate(-16.639 -10.083)" fill="#fff"/>
    <circle id="Ellipse_246" data-name="Ellipse 246" cx="1.727" cy="1.727" r="1.727" transform="translate(8.108 26.911) rotate(-70.41)" fill="#fff"/>
    <circle id="Ellipse_247" data-name="Ellipse 247" cx="1.727" cy="1.727" r="1.727" transform="translate(8.11 34.513) rotate(-70.41)" fill="#fff"/>
    <circle id="Ellipse_248" data-name="Ellipse 248" cx="1.727" cy="1.727" r="1.727" transform="translate(8.112 42.115) rotate(-70.41)" fill="#fff"/>
    <path id="Path_2977" data-name="Path 2977" d="M42.521,42.753A1.453,1.453,0,0,0,41.068,41.3H26.893a1.453,1.453,0,1,0,0,2.907H41.068A1.453,1.453,0,0,0,42.521,42.753Z" transform="translate(-10.134 -16.891)" fill="#fff"/>
    <circle id="Ellipse_249" data-name="Ellipse 249" cx="1.727" cy="1.727" r="1.727" transform="translate(8.106 18.812) rotate(-70.41)" fill="#fff"/>
    <path id="Path_2978" data-name="Path 2978" d="M41.068,27.37H26.893a1.453,1.453,0,1,0,0,2.907H41.068a1.453,1.453,0,0,0,0-2.907Z" transform="translate(-10.134 -11.06)" fill="#fff"/>
    <path id="Path_2979" data-name="Path 2979" d="M26.893,54.38a1.453,1.453,0,1,0,0,2.907h9.541a1.453,1.453,0,1,0,0-2.907Z" transform="translate(-10.134 -22.366)" fill="#fff"/>
    <path id="Path_2980" data-name="Path 2980" d="M31.6,67.46H26.953a1.453,1.453,0,0,0,0,2.907H31.6a1.453,1.453,0,0,0,0-2.907Z" transform="translate(-10.16 -27.842)" fill="#fff"/>
    <path id="Path_2981" data-name="Path 2981" d="M20.736,50.031H6a1.86,1.86,0,0,1-1.86-1.86V10.659A1.86,1.86,0,0,1,6,8.8H35.718a1.86,1.86,0,0,1,1.86,1.86V20.671a1.453,1.453,0,0,0,2.907,0V10.659a4.773,4.773,0,0,0-4.767-4.767H34.178V2.4a1.453,1.453,0,1,0-2.907,0V5.892H26.265V2.4a1.453,1.453,0,1,0-2.907,0V5.892h-5V2.4a1.453,1.453,0,1,0-2.907,0V5.892H10.445V2.4a1.453,1.453,0,1,0-2.907,0V5.892H6A4.773,4.773,0,0,0,1.23,10.659V48.176A4.773,4.773,0,0,0,6,52.944H20.736a1.453,1.453,0,1,0,0-2.907Z" fill="#fff"/>
  </g>
</svg>
