<svg xmlns="http://www.w3.org/2000/svg" width="26.5" height="26.808" viewBox="0 0 26.5 26.808">
  <g id="noun_stats_2157469" transform="translate(-1 -4)">
    <path id="Path_13" data-name="Path 13" d="M12.915,30.829A11.915,11.915,0,1,1,12.915,7a.993.993,0,0,1,.993.993v9.929h9.929a.993.993,0,0,1,.993.993A11.915,11.915,0,0,1,12.915,30.829ZM11.922,9.035A9.929,9.929,0,1,0,22.843,19.907H12.915a.993.993,0,0,1-.993-.993Z" transform="translate(0 -0.021)"/>
    <path id="Path_14" data-name="Path 14" d="M26.612,15.915H16.683a.993.993,0,0,1-.993-.993V4.993A.993.993,0,0,1,16.683,4,10.922,10.922,0,0,1,27.6,14.922a.993.993,0,0,1-.993.993Zm-8.936-1.986h7.883a8.936,8.936,0,0,0-7.883-7.883Z" transform="translate(-0.105)"/>
  </g>
</svg>
