<svg xmlns="http://www.w3.org/2000/svg" width="26.726" height="26.881" viewBox="0 0 26.726 26.881">
  <g id="noun_schedule_3233105" transform="translate(-57.773 -55.074)">
    <g id="Group_17" data-name="Group 17" transform="translate(57.773 55.074)">
      <g id="Group_2" data-name="Group 2" transform="translate(7.152 1.525)">
        <g id="Group_1" data-name="Group 1">
          <path id="Path_15" data-name="Path 15" d="M301.9,108.959h8.476a1.03,1.03,0,0,0,0-2.059H301.9a1.03,1.03,0,0,0,0,2.059Z" transform="translate(-300.874 -106.9)"/>
        </g>
      </g>
      <g id="Group_4" data-name="Group 4" transform="translate(0.003 1.517)">
        <g id="Group_3" data-name="Group 3">
          <path id="Path_16" data-name="Path 16" d="M63.089,106.641c-1.133,0-2.268-.018-3.4,0a1.821,1.821,0,0,0-.977.279,1.861,1.861,0,0,0-.833,1.436c-.006.059,0,.121,0,.179V126.48a1.826,1.826,0,0,0,1.8,1.8c.836.018,1.671,0,2.507,0H70.4a1.03,1.03,0,1,0,0-2.059H60.95c-.421,0-.844.006-1.268,0a1,1,0,0,1-.132-.009c.091.012.182.024.274.038a.863.863,0,0,1-.188-.056c.082.035.165.071.247.1a.931.931,0,0,1-.165-.1c.071.053.138.106.209.162a.98.98,0,0,1-.135-.135c.053.071.106.138.162.209a.931.931,0,0,1-.1-.165c.035.082.071.165.1.247a1,1,0,0,1-.056-.188c.012.091.024.182.038.274a4.314,4.314,0,0,1-.009-.585v-15.39c0-.721-.006-1.442,0-2.165a1.222,1.222,0,0,1,.009-.144c-.012.091-.024.182-.038.274a.864.864,0,0,1,.056-.188c-.035.082-.071.165-.1.247a.932.932,0,0,1,.1-.165c-.053.071-.106.138-.162.209a.98.98,0,0,1,.135-.135c-.071.053-.138.106-.209.162a.932.932,0,0,1,.165-.1c-.082.035-.165.071-.247.1a1,1,0,0,1,.188-.056c-.091.012-.182.024-.274.038a3.347,3.347,0,0,1,.421-.009h3.116a1.028,1.028,0,0,0,0-2.056Z" transform="translate(-57.875 -106.633)"/>
        </g>
      </g>
      <g id="Group_6" data-name="Group 6" transform="translate(18.594 1.53)">
        <g id="Group_5" data-name="Group 5">
          <path id="Path_17" data-name="Path 17" d="M690.8,109.121h3.045a3.959,3.959,0,0,1,.494.009c-.091-.012-.182-.024-.274-.038a.8.8,0,0,1,.185.056c-.082-.035-.165-.071-.247-.1a.933.933,0,0,1,.165.1c-.071-.053-.138-.106-.209-.162a.979.979,0,0,1,.135.135c-.053-.071-.106-.138-.162-.209a.934.934,0,0,1,.1.165c-.035-.082-.071-.165-.1-.247a1.268,1.268,0,0,1,.056.188c-.012-.091-.023-.182-.038-.274a2.76,2.76,0,0,1,.009.382v9.167c0,.441-.009.883,0,1.327v.021a1.03,1.03,0,1,0,2.059,0V108.954a1.922,1.922,0,0,0-.085-.633,1.828,1.828,0,0,0-1.73-1.25c-1.1-.009-2.2,0-3.3,0h-.1a1.025,1.025,0,1,0,0,2.051Z" transform="translate(-689.774 -107.067)"/>
        </g>
      </g>
      <g id="Group_8" data-name="Group 8" transform="translate(0 6.284)">
        <g id="Group_7" data-name="Group 7">
          <path id="Path_18" data-name="Path 18" d="M58.8,270.716H80.655c.294,0,.591,0,.886,0h.038a1.03,1.03,0,1,0,0-2.059H59.728c-.294,0-.591,0-.886,0H58.8a1.03,1.03,0,1,0,0,2.059Z" transform="translate(-57.773 -268.656)"/>
        </g>
      </g>
      <g id="Group_10" data-name="Group 10" transform="translate(4.187 0.003)">
        <g id="Group_9" data-name="Group 9">
          <path id="Path_19" data-name="Path 19" d="M202.159,59.281V56.2a1.03,1.03,0,0,0-2.059,0v3.077a1.03,1.03,0,0,0,2.059,0Z" transform="translate(-200.1 -55.174)"/>
        </g>
      </g>
      <g id="Group_12" data-name="Group 12" transform="translate(18.592 0)">
        <g id="Group_11" data-name="Group 11">
          <path id="Path_20" data-name="Path 20" d="M689.7,56.1v3.077a1.03,1.03,0,0,0,2.059,0V56.1a1.03,1.03,0,1,0-2.059,0Z" transform="translate(-689.7 -55.074)"/>
        </g>
      </g>
      <g id="Group_14" data-name="Group 14" transform="translate(10.694 10.852)">
        <g id="Group_13" data-name="Group 13">
          <path id="Path_21" data-name="Path 21" d="M435.24,431.937a7.147,7.147,0,0,1-.062.939c.012-.091.024-.182.038-.274a7.107,7.107,0,0,1-.491,1.789c.035-.082.071-.165.1-.247a7.142,7.142,0,0,1-.9,1.533c.053-.071.106-.138.162-.209a7.153,7.153,0,0,1-1.274,1.274c.071-.053.138-.106.209-.162a7.141,7.141,0,0,1-1.533.9c.082-.035.165-.071.247-.1a7.144,7.144,0,0,1-1.789.491c.091-.012.182-.023.274-.038a7.138,7.138,0,0,1-1.874,0c.091.012.182.024.274.038a7.118,7.118,0,0,1-1.771-.482c.082.035.165.071.247.1a7.025,7.025,0,0,1-1.559-.912c.071.053.138.106.209.162a7.2,7.2,0,0,1-1.268-1.271c.053.071.106.138.162.209a7.169,7.169,0,0,1-.909-1.565c.035.082.071.165.1.247a7.1,7.1,0,0,1-.477-1.774c.012.091.024.182.038.274a7.157,7.157,0,0,1,.006-1.877c-.012.091-.023.182-.038.274a7.115,7.115,0,0,1,.474-1.739c-.035.082-.071.165-.1.247a7.227,7.227,0,0,1,.93-1.589c-.053.071-.106.138-.162.209a7.184,7.184,0,0,1,1.253-1.247c-.071.053-.138.106-.209.162a7.279,7.279,0,0,1,1.548-.906c-.082.035-.165.071-.247.1a7.1,7.1,0,0,1,1.768-.485c-.091.012-.182.024-.274.038a7.22,7.22,0,0,1,1.868,0c-.091-.012-.182-.023-.274-.038a7.163,7.163,0,0,1,1.812.494c-.082-.035-.165-.071-.247-.1a7.22,7.22,0,0,1,1.545.909c-.071-.053-.138-.106-.209-.162a7.152,7.152,0,0,1,1.262,1.268c-.053-.071-.106-.138-.162-.209a7.257,7.257,0,0,1,.9,1.553c-.035-.082-.071-.165-.1-.247a7.136,7.136,0,0,1,.48,1.774c-.012-.091-.024-.182-.038-.274.032.315.053.621.056.93a1.03,1.03,0,1,0,2.059,0,7.945,7.945,0,0,0-1.53-4.7,8.561,8.561,0,0,0-1.909-1.877,7.84,7.84,0,0,0-2.18-1.074,8,8,0,0,0-5.031.079,8.168,8.168,0,0,0-4.172,3.336,7.931,7.931,0,0,0-1.168,4.993,8.362,8.362,0,0,0,.833,2.88,7.831,7.831,0,0,0,1.362,1.912,8.013,8.013,0,0,0,13.7-4.34,9.264,9.264,0,0,0,.1-1.212,1.03,1.03,0,0,0-2.059,0Z" transform="translate(-421.267 -423.921)"/>
        </g>
      </g>
      <g id="Group_16" data-name="Group 16" transform="translate(17.683 14.825)">
        <g id="Group_15" data-name="Group 15" transform="translate(0)">
          <path id="Path_22" data-name="Path 22" d="M663.022,564.755l-2.162-2.162-.3-.3c.1.241.2.485.3.727V560a1.03,1.03,0,0,0-2.059,0v2.83a1.224,1.224,0,0,0,.312.918c.1.1.2.2.294.294l1.247,1.247.915.915a1.028,1.028,0,1,0,1.453-1.453Z" transform="translate(-658.8 -558.974)"/>
        </g>
      </g>
    </g>
  </g>
</svg>
