<svg xmlns="http://www.w3.org/2000/svg" width="52.75" height="78.5" viewBox="0 0 52.75 78.5">
  <g id="Page-1" transform="translate(-13 -5)">
    <g id="Artboard-Copy" transform="translate(13 5)">
      <path id="ribbon" d="M240,203.591V196.4a2.4,2.4,0,0,1,2.4-2.4h47.954a2.4,2.4,0,0,1,2.4,2.4v7.193Zm0,4.8h52.75V270.1a2.4,2.4,0,0,1-4.011,1.774l-22.363-20.33-22.363,20.33A2.4,2.4,0,0,1,240,270.1Z" transform="translate(-240 -194)" fill="#13a0f0" fill-rule="evenodd"/>
    </g>
    <g id="noun_new_1693260" transform="translate(18.553 36.842)">
      <g id="Group_352" data-name="Group 352" transform="translate(0 0)">
        <g id="Group_351" data-name="Group 351">
          <g id="Group_348" data-name="Group 348">
            <path id="Path_2998" data-name="Path 2998" d="M26.825,25.705H25.167V35.968L18.3,25.705H16.526V38.777h1.658V28.5l6.866,10.272h1.774Z" transform="translate(-16.526 -25.705)" fill="#fff" stroke="#fff" stroke-width="0.5"/>
          </g>
          <g id="Group_349" data-name="Group 349" transform="translate(13.242)">
            <path id="Path_2999" data-name="Path 2999" d="M34.68,25.705H25.228V38.777h9.755V37.235H26.958v-4.45h7.232V31.251H26.958v-4H34.68Z" transform="translate(-25.228 -25.705)" fill="#fff" stroke="#fff" stroke-width="0.5"/>
          </g>
          <g id="Group_350" data-name="Group 350" transform="translate(24.201)">
            <path id="Path_3000" data-name="Path 3000" d="M49.237,25.705H47.5l-2.051,8.4q-.4,1.605-.651,2.845a35.056,35.056,0,0,0-1.017-4.628l-1.873-6.616H39.821l-2.488,8.828q-.089.321-.589,2.416-.232-1.329-.553-2.675L34.2,25.705H32.429L35.9,38.777h1.766l2.773-9.96q.178-.633.383-1.534.062.285.41,1.534l2.755,9.96h1.667l3.585-13.072Z" transform="translate(-32.429 -25.705)" fill="#fff" stroke="#fff" stroke-width="0.5"/>
          </g>
        </g>
      </g>
    </g>
  </g>
</svg>
