<svg xmlns="http://www.w3.org/2000/svg" width="500" height="372.56" viewBox="0 0 500 372.56">
  <g id="new-meeting-graphics" transform="translate(0 -0.05)">
    <g id="Background_Complete" data-name="Background Complete">
      <rect id="Rectangle_428" data-name="Rectangle 428" width="500" height="0.25" transform="translate(0 327.45)" fill="#ebebeb"/>
      <rect id="Rectangle_429" data-name="Rectangle 429" width="53.07" height="0.25" transform="translate(396.83 343.54)" fill="#ebebeb"/>
      <rect id="Rectangle_430" data-name="Rectangle 430" width="58.66" height="0.25" transform="translate(272.56 340.41)" fill="#ebebeb"/>
      <rect id="Rectangle_431" data-name="Rectangle 431" width="19.19" height="0.25" transform="translate(380.2 338.96)" fill="#ebebeb"/>
      <rect id="Rectangle_432" data-name="Rectangle 432" width="43.19" height="0.25" transform="translate(100.47 335.94)" fill="#ebebeb"/>
      <rect id="Rectangle_433" data-name="Rectangle 433" width="15.44" height="0.25" transform="translate(79.46 335.94)" fill="#ebebeb"/>
      <rect id="Rectangle_434" data-name="Rectangle 434" width="54.2" height="0.25" transform="translate(131.47 340.16)" fill="#ebebeb"/>
      <path id="Path_1294" data-name="Path 1294" d="M237,337.8H43.91a5.71,5.71,0,0,1-5.7-5.71V60.66A5.71,5.71,0,0,1,43.91,55H237a5.71,5.71,0,0,1,5.71,5.71V332.09A5.71,5.71,0,0,1,237,337.8ZM43.91,55.2a5.46,5.46,0,0,0-5.45,5.46V332.09a5.46,5.46,0,0,0,5.45,5.46H237a5.47,5.47,0,0,0,5.46-5.46V60.66A5.47,5.47,0,0,0,237,55.2Z" transform="translate(0 -54.95)" fill="#ebebeb"/>
      <path id="Path_1295" data-name="Path 1295" d="M453.31,337.8H260.21a5.72,5.72,0,0,1-5.71-5.71V60.66A5.72,5.72,0,0,1,260.21,55h193.1A5.71,5.71,0,0,1,459,60.66V332.09A5.71,5.71,0,0,1,453.31,337.8ZM260.21,55.2a5.47,5.47,0,0,0-5.46,5.46V332.09a5.47,5.47,0,0,0,5.46,5.46h193.1a5.47,5.47,0,0,0,5.46-5.46V60.66a5.47,5.47,0,0,0-5.46-5.46Z" transform="translate(0 -54.95)" fill="#ebebeb"/>
      <rect id="Rectangle_435" data-name="Rectangle 435" width="10.51" height="125.03" transform="translate(277.22 318.99) rotate(180)" fill="#f0f0f0"/>
      <rect id="Rectangle_436" data-name="Rectangle 436" width="208.44" height="8.33" transform="translate(273.18 327.32) rotate(180)" fill="#f0f0f0"/>
      <rect id="Rectangle_437" data-name="Rectangle 437" width="206" height="125.03" transform="translate(60.71 193.96)" fill="#f5f5f5"/>
      <rect id="Rectangle_438" data-name="Rectangle 438" width="10.86" height="7.88" transform="translate(280.05 193.95) rotate(180)" fill="#e0e0e0"/>
      <rect id="Rectangle_439" data-name="Rectangle 439" width="211.3" height="7.88" transform="translate(57.89 186.08)" fill="#ebebeb"/>
      <rect id="Rectangle_440" data-name="Rectangle 440" width="189.47" height="43.13" rx="7.78" transform="translate(68.97 203.66)" fill="#fff"/>
      <rect id="Rectangle_441" data-name="Rectangle 441" width="189.47" height="43.13" rx="7.78" transform="translate(68.97 259.67)" fill="#fff"/>
      <rect id="Rectangle_442" data-name="Rectangle 442" width="93.1" height="5.91" rx="1.77" transform="translate(210.26 208.27) rotate(180)" fill="#f5f5f5"/>
      <rect id="Rectangle_443" data-name="Rectangle 443" width="93.1" height="5.91" rx="1.77" transform="translate(210.26 264.27) rotate(180)" fill="#f5f5f5"/>
      <rect id="Rectangle_444" data-name="Rectangle 444" width="31.7" height="6.06" transform="translate(415.49 234.97)" fill="#e6e6e6"/>
      <rect id="Rectangle_445" data-name="Rectangle 445" width="5.85" height="207.4" transform="translate(397.05 327.45) rotate(180)" fill="#e6e6e6"/>
      <rect id="Rectangle_446" data-name="Rectangle 446" width="44.56" height="6.06" transform="translate(415.5 241.03) rotate(180)" fill="#f5f5f5"/>
      <rect id="Rectangle_447" data-name="Rectangle 447" width="31.7" height="6.06" transform="translate(415.49 290.78)" fill="#e6e6e6"/>
      <rect id="Rectangle_448" data-name="Rectangle 448" width="44.56" height="6.06" transform="translate(415.5 296.84) rotate(180)" fill="#f5f5f5"/>
      <rect id="Rectangle_449" data-name="Rectangle 449" width="31.7" height="6.06" transform="translate(415.49 123.37)" fill="#e6e6e6"/>
      <rect id="Rectangle_450" data-name="Rectangle 450" width="44.56" height="6.06" transform="translate(415.5 129.43) rotate(180)" fill="#f5f5f5"/>
      <rect id="Rectangle_451" data-name="Rectangle 451" width="31.7" height="6.06" transform="translate(415.49 179.17)" fill="#e6e6e6"/>
      <rect id="Rectangle_452" data-name="Rectangle 452" width="44.56" height="6.06" transform="translate(415.5 185.23) rotate(180)" fill="#f5f5f5"/>
      <rect id="Rectangle_453" data-name="Rectangle 453" width="5.85" height="207.4" transform="translate(441.61 327.45) rotate(180)" fill="#e6e6e6"/>
      <rect id="Rectangle_454" data-name="Rectangle 454" width="5.85" height="207.4" transform="translate(415.49 327.45) rotate(180)" fill="#f5f5f5"/>
      <rect id="Rectangle_455" data-name="Rectangle 455" width="5.85" height="207.4" transform="translate(376.79 327.45) rotate(180)" fill="#f5f5f5"/>
      <rect id="Rectangle_456" data-name="Rectangle 456" width="264.2" height="140.27" transform="translate(352.09 168.68) rotate(180)" fill="#e0e0e0"/>
      <rect id="Rectangle_457" data-name="Rectangle 457" width="267.1" height="140.27" transform="translate(348.32 168.68) rotate(180)" fill="#f5f5f5"/>
      <rect id="Rectangle_458" data-name="Rectangle 458" width="118.16" height="247.96" transform="translate(338.74 39.47) rotate(90)" fill="#fff"/>
    </g>
    <g id="Shadow">
      <ellipse id="_Path_" data-name="&lt;Path&gt;" cx="193.89" cy="11.32" rx="193.89" ry="11.32" transform="translate(56.11 349.97)" fill="#f5f5f5"/>
    </g>
    <g id="Desk">
      <path id="Path_1296" data-name="Path 1296" d="M387.82,264.22H110.54a3.34,3.34,0,0,1-3.33-3.33h0a3.34,3.34,0,0,1,3.33-3.33H387.82a3.34,3.34,0,0,1,3.33,3.33h0a3.34,3.34,0,0,1-3.33,3.33Z" transform="translate(0 -54.95)"/>
      <path id="Path_1297" data-name="Path 1297" d="M387.82,264.22H322.91a3.34,3.34,0,0,1-3.33-3.33h0a3.34,3.34,0,0,1,3.33-3.33h64.91a3.34,3.34,0,0,1,3.33,3.33h0a3.34,3.34,0,0,1-3.33,3.33Z" transform="translate(0 -54.95)" opacity="0.3"/>
      <rect id="Rectangle_459" data-name="Rectangle 459" width="213.25" height="23.21" transform="translate(167.53 217.62)" fill="#263238"/>
      <path id="Path_1389" data-name="Path 1389" d="M0,0H213.25V23.21H0Z" transform="translate(167.53 217.62)" fill="#5e5e5e"/>
      <path id="Path_1298" data-name="Path 1298" d="M377.68,356.67h6.38l-.26-147.4h-8.84Z" fill="#263238"/>
      <path id="Path_1299" data-name="Path 1299" d="M377.68,356.67h6.38l-.26-147.4h-8.84Z" opacity="0.1"/>
      <path id="Path_1300" data-name="Path 1300" d="M318.88,356.67h-6.39l14.44-147.4h8.84Z" fill="#263238"/>
      <path id="Path_1301" data-name="Path 1301" d="M318.88,356.67h-6.39l14.44-147.4h8.84Z" opacity="0.2"/>
      <path id="Path_1302" data-name="Path 1302" d="M165.31,356.67h6.38l-.26-147.4h-8.84Z" fill="#263238"/>
      <path id="Path_1303" data-name="Path 1303" d="M165.31,356.67h6.38l-.26-147.4h-8.84Z" opacity="0.1"/>
      <path id="Path_1304" data-name="Path 1304" d="M106.51,356.67h-6.39l14.44-147.4h8.84Z" fill="#263238"/>
      <path id="Path_1305" data-name="Path 1305" d="M106.51,356.67h-6.39l14.44-147.4h8.84Z" opacity="0.2"/>
      <path id="Path_1306" data-name="Path 1306" d="M286.11,202.61H271.39l-5.89-28.79h14.72Z" fill="#263238"/>
      <path id="Path_1307" data-name="Path 1307" d="M305.64,251.63H241.78a3.59,3.59,0,0,1-3.62-3.85l2.44-40.43a4.15,4.15,0,0,1,4.08-3.85h63.87a3.6,3.6,0,0,1,3.62,3.85l-2.44,40.43A4.16,4.16,0,0,1,305.64,251.63Z" transform="translate(0 -54.95)" fill="#263238"/>
      <path id="Path_1308" data-name="Path 1308" d="M304.64,251.63H240.78a3.59,3.59,0,0,1-3.62-3.85l2.44-40.43a4.15,4.15,0,0,1,4.08-3.85h63.87a3.6,3.6,0,0,1,3.62,3.85l-2.44,40.43A4.16,4.16,0,0,1,304.64,251.63Z" transform="translate(0 -54.95)" fill="#13a0f0"/>
      <path id="Path_1309" data-name="Path 1309" d="M240.77,249.63a1.64,1.64,0,0,1-1.19-.5,1.67,1.67,0,0,1-.43-1.23l2.44-40.43a2.15,2.15,0,0,1,2.09-2h63.87a1.6,1.6,0,0,1,1.62,1.73l-2.44,40.43a2.14,2.14,0,0,1-2.09,2Z" transform="translate(0 -54.95)" fill="#fff"/>
      <path id="Path_1310" data-name="Path 1310" d="M268.82,148.55l4.15,14.21,12.32-14.21Z" opacity="0.2"/>
    </g>
    <g id="Character">
      <path id="Path_1314" data-name="Path 1314" d="M146.89,181.07l6,4.6,8.19,6.27a8.481,8.481,0,0,0-.8,3c-.29,2.3-.58,4,4.53,5.41a2.91,2.91,0,0,1,2.18,2.27c.2,1.36-.63,3-5.35,3.81a21.69,21.69,0,0,1-13.33-2.27c-2-1-2-2.2-1.16-4.23C149.67,194.16,148.45,186.8,146.89,181.07Z" transform="translate(0 -54.95)" fill="#ffc3bd"/>
      <path id="Path_1315" data-name="Path 1315" d="M140,201.75a41.67,41.67,0,0,0,2.84-6.92s15.2-.83,20.22.67,8.14,8,8.14,8Z" transform="translate(0 -54.95)" fill="#407bff"/>
      <path id="Path_1316" data-name="Path 1316" d="M146.36,213.06c-.37,1.12-.78,2.49-1.17,3.75l-1.13,3.9c-.7,2.6-1.38,5.21-1.91,7.81a74.52,74.52,0,0,0-1.29,7.7,36.538,36.538,0,0,0-.22,7.17,16.17,16.17,0,0,0,.46,3c.06.2.11.42.18.61l.2.54h0a2.541,2.541,0,0,0-.16-.28,4.791,4.791,0,0,0-.33-.42,2.391,2.391,0,0,0-.44-.41c-.2-.14-.23-.12-.19-.07a4.909,4.909,0,0,0,.94.53c.45.2,1,.4,1.55.59,1.13.38,2.38.73,3.67,1.07,5.16,1.3,10.79,2.31,16.28,3.48l-.18,6.93a88.269,88.269,0,0,1-8.84.73,85,85,0,0,1-9-.15,43.218,43.218,0,0,1-4.73-.58c-.82-.15-1.67-.32-2.57-.57a15.737,15.737,0,0,1-3-1.11,10.76,10.76,0,0,1-2-1.25,9.1,9.1,0,0,1-1.21-1.16,9.393,9.393,0,0,1-.64-.85c-.1-.17-.21-.34-.3-.51l-.13-.24-.69-1.41c-.21-.47-.38-.93-.56-1.4a28.111,28.111,0,0,1-1.36-5.4c-1-6.95-.21-13.15.83-19.18.56-3,1.22-6,2-8.85.4-1.45.82-2.9,1.27-4.33s.93-2.81,1.51-4.38Z" transform="translate(0 -54.95)" fill="#ffc3bd"/>
      <path id="Path_1317" data-name="Path 1317" d="M137.11,200.51c9.45-2.5,15.06,5.24,11.86,18s-4.27,13.24-4.27,13.24l-19.49-3.25C127.61,216,127.42,203.06,137.11,200.51Z" transform="translate(0 -54.95)" fill="#008cdb"/>
      <path id="Path_1318" data-name="Path 1318" d="M167.64,249.26l-1.47-.13c-4.18,0-4.9,1.14-7.47,3.53l-1,5.26c6.75,3.45,10.37-.34,10.38-.34h6.25l-2.2-5a5.5,5.5,0,0,0-4.49-3.32Z" transform="translate(0 -54.95)" fill="#b55b52"/>
      <path id="Path_1319" data-name="Path 1319" d="M144.31,171.12c1.7,9.11,2.23,14.53,7.45,18.6,7.84,6.11,18.64.3,19.7-9.18.95-8.53-2-22-11.42-24.39a12.88,12.88,0,0,0-15.73,14.97Z" transform="translate(0 -54.95)" fill="#ffc3bd"/>
      <path id="Path_1320" data-name="Path 1320" d="M162.36,174.3c6.5-.52,4.6-7.37,2.59-8.8,3.05-1.16,5.15-6,2.22-9.32,1.72-4.49-3.2-9.9-11.83-9.09-6.3.58-7,3.91-7,3.91s-7.55-.79-10.69,5.44c-2.68,5.34.57,8.19.57,8.19s-5.64,1.64-4.08,9c1.66,7.94,7.76,6.1,7.76,6.1s-1.37,7.28,6.88,7.38c7.13.09,7.22-5.25,7.22-5.25S165.24,181,162.36,174.3Z" transform="translate(0 -54.95)" fill="#263238"/>
      <path id="Path_1321" data-name="Path 1321" d="M157.52,174.83a8.47,8.47,0,0,0,4,4.54c2.38,1.22,4.2-1.31,3.78-3.91-.38-2.33-2.41-5.32-4.92-5.46S156.63,172.41,157.52,174.83Z" transform="translate(0 -54.95)" fill="#ffc3bd"/>
      <path id="Path_1322" data-name="Path 1322" d="M254.47,345.22l8.89-3.61-6.28-21.36-8.89,3.61Z" fill="#b55b52"/>
      <path id="Path_1323" data-name="Path 1323" d="M251.24,334.21l8.98-3.29-3.14-10.67-8.89,3.61Z" opacity="0.2"/>
      <path id="Path_1324" data-name="Path 1324" d="M262.59,393l-10.17,3.53a.68.68,0,0,0-.45.85l2.3,8.22a1.71,1.71,0,0,0,2.15,1.06c3.51-1.3,4.93-2,9.27-3.88a136.992,136.992,0,0,0,12.52-6c3.39-2,1.35-5.41-.3-4.85-3.91,1.32-10.32,2.18-13.57,1.06A2.69,2.69,0,0,0,262.59,393Z" transform="translate(0 -54.95)" fill="#263238"/>
      <path id="Path_1325" data-name="Path 1325" d="M183.07,277s67.19,6,68.93,25.33c3.5,39.33,8.87,77.25,8.87,77.25l-13.67,5s-16.73-43.2-16.51-74c-19.38-5.47-70.34,2.56-78.67-12.39-7.36-13.2-.9-22.68-.9-22.68Z" transform="translate(0 -54.95)" fill="#263238"/>
      <path id="Path_1326" data-name="Path 1326" d="M246.18,332.74l17.02-5.75-.74-7.76-19.19,6.19Z" fill="#13a0f0"/>
      <path id="Path_1327" data-name="Path 1327" d="M266.34,393.41a11.612,11.612,0,0,1-2.52.51.22.22,0,0,1-.22-.11.23.23,0,0,1,0-.24c.22-.3,2.18-2.94,3.43-2.9a.87.87,0,0,1,.7.43,1.23,1.23,0,0,1,.13,1.24,2.6,2.6,0,0,1-1.52,1.07Zm-2,0c1.73-.24,2.91-.7,3.18-1.27a.78.78,0,0,0-.11-.8.39.39,0,0,0-.34-.22c-.72-.03-1.96,1.26-2.78,2.29Z" transform="translate(0 -54.95)" fill="#407bff"/>
      <path id="Path_1328" data-name="Path 1328" d="M263.87,393.91a.2.2,0,0,1-.11,0,.23.23,0,0,1-.17-.13c0-.11-1.15-2.64-.55-3.84a1.13,1.13,0,0,1,.79-.6.85.85,0,0,1,1,.37c.55.92-.14,3.27-.85,4.12a.23.23,0,0,1-.11.08Zm0-4.1a.67.67,0,0,0-.39.35c-.36.71.08,2.23.41,3.08.55-.94.95-2.69.59-3.29-.07-.11-.19-.24-.51-.17Z" transform="translate(0 -54.95)" fill="#407bff"/>
      <path id="Path_1329" data-name="Path 1329" d="M206.9,351.57l9.5-.45,1.55-22.44-9.5.45Z" fill="#b55b52"/>
      <path id="Path_1330" data-name="Path 1330" d="M216.62,404.45l-10.76-.34a.68.68,0,0,0-.73.63l-.79,8.49A1.71,1.71,0,0,0,206,415c3.75.05,5.54-.11,10.27,0,2.91.09,8.64.52,12.63,0s3.38-4.43,1.64-4.58c-4.11-.33-9.62-3.17-12.25-5.38a2.65,2.65,0,0,0-1.67-.59Z" transform="translate(0 -54.95)" fill="#263238"/>
      <path id="Path_1331" data-name="Path 1331" d="M220,406.22a12.12,12.12,0,0,1-2.54-.42.22.22,0,0,1-.07-.4c.31-.21,3.08-2,4.24-1.48a.85.85,0,0,1,.5.65,1.23,1.23,0,0,1-.32,1.2A2.52,2.52,0,0,1,220,406.22Zm-1.92-.73c1.7.4,3,.39,3.43,0a.81.81,0,0,0,.18-.8.41.41,0,0,0-.24-.32c-.66-.3-2.28.45-3.45,1.12Z" transform="translate(0 -54.95)" fill="#407bff"/>
      <path id="Path_1332" data-name="Path 1332" d="M217.47,405.81a.23.23,0,0,1-.11,0,.24.24,0,0,1-.11-.19c0-.11-.13-2.87.86-3.77a1.08,1.08,0,0,1,1-.28.85.85,0,0,1,.79.7c.18,1.05-1.31,3-2.28,3.54A.2.2,0,0,1,217.47,405.81ZM218.9,402a.64.64,0,0,0-.49.18c-.59.53-.72,2.11-.72,3,.85-.68,1.85-2.17,1.73-2.86,0-.13-.1-.28-.42-.33Z" transform="translate(0 -54.95)" fill="#407bff"/>
      <path id="Path_1333" data-name="Path 1333" d="M208.45,329.14l9.51-.45-.9,12.83-9.47-.02Z" opacity="0.2"/>
      <path id="Path_1334" data-name="Path 1334" d="M160.75,275.93S233.15,287,232,303.67c-2.07,30-12.13,88.63-12.13,88.63l-14.26.2s-3.37-60.14,2-82.06c-17.81,0-68.05-.62-74.9-9.77-7.58-10.11.21-26,.21-26Z" transform="translate(0 -54.95)" fill="#263238"/>
      <path id="Path_1335" data-name="Path 1335" d="M203.93,338.66l17.26-.26.85-9.13-18.94.75Z" fill="#13a0f0"/>
      <path id="Path_1336" data-name="Path 1336" d="M173.5,199.5c-5.83-1.14-32.12-.81-32.12-.81A10.5,10.5,0,0,0,130.66,208c-.92,8.11,4.23,26.23,4.41,35.47.22,11.35-1.95,15.95-2.17,31.23l50.17,2.3c0-30.73-1.34-56.17-2.55-68.37C180.09,204.34,179.33,200.63,173.5,199.5Z" transform="translate(0 -54.95)" fill="#407bff"/>
      <path id="Path_1337" data-name="Path 1337" d="M173.5,199.5c-5.83-1.14-32.12-.81-32.12-.81A10.5,10.5,0,0,0,130.66,208c-.92,8.11,4.23,26.23,4.41,35.47.22,11.35-1.95,15.95-2.17,31.23l50.17,2.3c0-30.73-1.34-56.17-2.55-68.37C180.09,204.34,179.33,200.63,173.5,199.5Z" transform="translate(0 -54.95)" fill="#13a0f0"/>
      <path id="Path_1338" data-name="Path 1338" d="M180.37,209.18c1.57,5.4,3.15,10.95,4.78,16.37s3.3,10.87,5.18,16c.46,1.31,1,2.53,1.44,3.79l.77,1.77.1.22v.17h0v-.07a3.78,3.78,0,0,0-.64-.84c-.34-.33-.47-.36-.5-.36a2.49,2.49,0,0,0,.76.47,12.429,12.429,0,0,0,1.51.61c1.13.39,2.4.74,3.69,1.09,5.23,1.33,10.94,2.35,16.5,3.54l-.18,6.93a84.993,84.993,0,0,1-9,.73,80.163,80.163,0,0,1-9.14-.17,43,43,0,0,1-4.82-.62c-.84-.16-1.71-.36-2.65-.63a14.7,14.7,0,0,1-3.2-1.32,10.37,10.37,0,0,1-2.2-1.69,8.25,8.25,0,0,1-1.28-1.72l-.34-.63-1.13-2.14c-.66-1.4-1.38-2.81-2-4.2-1.23-2.81-2.31-5.59-3.39-8.38s-2-5.58-2.93-8.38c-1.85-5.63-3.52-11.2-5-17Z" transform="translate(0 -54.95)" fill="#ffc3bd"/>
      <path id="Path_1339" data-name="Path 1339" d="M166.12,203.61c6.86-7,15.63-3.18,19.4,9.46s3.09,13.56,3.09,13.56l-18.43,7.15C165.83,221.74,159.1,210.74,166.12,203.61Z" transform="translate(0 -54.95)" fill="#008cdb"/>
      <path id="Path_1340" data-name="Path 1340" d="M218.86,249.26l-1.47-.13c-4.18,0-4.89,1.14-7.46,3.53l-1,5.26c6.75,3.45,10.37-.34,10.37-.34h6.26l-2.21-5a5.48,5.48,0,0,0-4.49-3.32Z" transform="translate(0 -54.95)" fill="#ffc3bd"/>
      <rect id="Rectangle_461" data-name="Rectangle 461" width="69.18" height="9.22" rx="2.55" transform="translate(201.73 259.14) rotate(180)" fill="#13a0f0"/>
      <path id="Path_1341" data-name="Path 1341" d="M135.39,361.8h-2.84l3.27-102.66h3.93Z" fill="#407bff"/>
      <path id="Path_1342" data-name="Path 1342" d="M135.39,361.8h-2.84l3.27-102.66h3.93Z" fill="#13a0f0" opacity="0.4"/>
      <path id="Path_1343" data-name="Path 1343" d="M161.51,361.8h2.84l-3.26-102.66h-3.93Z" fill="#407bff"/>
      <path id="Path_1344" data-name="Path 1344" d="M161.51,361.8h2.84l-3.26-102.66h-3.93Z" fill="#13a0f0" opacity="0.4"/>
      <path id="Path_1345" data-name="Path 1345" d="M172.77,361.8h-2.84l3.27-102.66h3.93Z" fill="#407bff"/>
      <path id="Path_1346" data-name="Path 1346" d="M172.77,361.8h-2.84l3.27-102.66h3.93Z" fill="#13a0f0" opacity="0.4"/>
      <path id="Path_1347" data-name="Path 1347" d="M198.89,361.8h2.84l-3.26-102.66h-3.93Z" fill="#407bff"/>
      <path id="Path_1348" data-name="Path 1348" d="M198.89,361.8h2.84l-3.26-102.66h-3.93Z" fill="#13a0f0" opacity="0.4"/>
      <g id="Group_160" data-name="Group 160" opacity="0.3">
        <path id="Path_1349" data-name="Path 1349" d="M135.82,259.13h3.93l-.19,4.37h-3.88Z" fill="#407bff"/>
        <path id="Path_1350" data-name="Path 1350" d="M161.22,263.5h-3.88l-.18-4.37h3.92Z" fill="#407bff"/>
        <path id="Path_1351" data-name="Path 1351" d="M177.12,259.13l-.18,4.37h-3.88l.14-4.37Z" fill="#407bff"/>
        <path id="Path_1352" data-name="Path 1352" d="M198.61,263.5h-3.89l-.18-4.37h3.93Z" fill="#407bff"/>
      </g>
    </g>
    <g id="Telecommuting">
      <path id="Path_1353" data-name="Path 1353" d="M389,188.61H228.83a9,9,0,0,1-9.07-9.65l6.11-101.37a10.42,10.42,0,0,1,10.24-9.65H396.24a9,9,0,0,1,9.07,9.65L399.19,179A10.41,10.41,0,0,1,389,188.61Z" transform="translate(0 -54.95)" fill="#13a0f0"/>
      <path id="Path_1354" data-name="Path 1354" d="M250.26,112.22l14.77,50.54,43.82-50.54Z" fill="#13a0f0"/>
      <path id="Path_1355" data-name="Path 1355" d="M381.19,147.82H291.43a5.05,5.05,0,0,1-5.09-5.41l3.43-56.82a5.84,5.84,0,0,1,5.74-5.41h89.76a5,5,0,0,1,5.09,5.41l-3.43,56.82A5.84,5.84,0,0,1,381.19,147.82Z" transform="translate(0 -54.95)" fill="#fff" opacity="0.1"/>
      <path id="Path_1356" data-name="Path 1356" d="M333.17,172.33H243.4a5.05,5.05,0,0,1-5.08-5.41l3.43-56.82a5.84,5.84,0,0,1,5.73-5.41h89.77a5,5,0,0,1,5.08,5.41l-3.43,56.82a5.84,5.84,0,0,1-5.73,5.41Z" transform="translate(0 -54.95)" fill="#fff" opacity="0.1"/>
      <g id="Group_161" data-name="Group 161" opacity="0.8">
        <path id="Path_1357" data-name="Path 1357" d="M242.21,76.76a3.08,3.08,0,0,1-2.87,3,2.6,2.6,0,0,1-2.44-3,3.1,3.1,0,0,1,2.87-3,2.6,2.6,0,0,1,2.44,3Z" transform="translate(0 -54.95)" fill="#fff"/>
        <path id="Path_1358" data-name="Path 1358" d="M252,76.76a3.09,3.09,0,0,1-2.87,3,2.6,2.6,0,0,1-2.45-3,3.1,3.1,0,0,1,2.87-3,2.61,2.61,0,0,1,2.45,3Z" transform="translate(0 -54.95)" fill="#fff"/>
        <path id="Path_1359" data-name="Path 1359" d="M261.86,76.76a3.08,3.08,0,0,1-2.87,3,2.6,2.6,0,0,1-2.44-3,3.1,3.1,0,0,1,2.87-3,2.6,2.6,0,0,1,2.44,3Z" transform="translate(0 -54.95)" fill="#fff"/>
      </g>
      <path id="Path_1360" data-name="Path 1360" d="M387.76,187.67H227.63a9.27,9.27,0,0,1-9.32-9.92l6.12-101.37a10.66,10.66,0,0,1,10.48-9.89H395a9.27,9.27,0,0,1,9.32,9.92l-6.11,101.37A10.67,10.67,0,0,1,387.76,187.67ZM234.91,67a10.15,10.15,0,0,0-10,9.42l-6.12,101.37a8.75,8.75,0,0,0,8.82,9.39H387.76a10.16,10.16,0,0,0,10-9.42l6.11-101.37A8.77,8.77,0,0,0,395,67Z" transform="translate(0 -54.95)" fill="#263238" opacity="0.3"/>
      <path id="Path_1361" data-name="Path 1361" d="M301.05,128.41c-.68,1.44-1.3,2.67-2,4s-1.4,2.53-2.12,3.78c-1.47,2.49-3,5-4.64,7.34q-1.24,1.8-2.54,3.57c-.91,1.16-1.77,2.34-2.74,3.47a70.228,70.228,0,0,1-6.11,6.64c-.55.54-1.15,1-1.73,1.57a19.443,19.443,0,0,1-1.82,1.51l-1.92,1.45-.59.41a8,8,0,0,1-.81.45,8.208,8.208,0,0,1-8.53-.88,8.54,8.54,0,0,1-1.29-1.26l-.27-.36-.13-.18-.05-.08-.18-.32-.72-1.3c-.22-.42-.37-.82-.55-1.23a32.39,32.39,0,0,1-1.54-4.65,62.206,62.206,0,0,1-1.46-8.79,75.877,75.877,0,0,1-.38-8.68,3.45,3.45,0,0,1,6.76-.88v.12a127.439,127.439,0,0,0,4.91,15,23.836,23.836,0,0,0,1.55,3c.13.2.26.44.39.61l.38.46.09.12h0l-.05-.08-.11-.15a3.12,3.12,0,0,0-.54-.55,3.56,3.56,0,0,0-1.36-.68,3.65,3.65,0,0,0-1.51,0,3.48,3.48,0,0,0-.75.25c-.13,0-.24.13-.36.19s-.3.21-.17.1l1.25-1.22c.42-.38.83-.84,1.24-1.28s.83-.87,1.23-1.34A104.943,104.943,0,0,0,280.86,136c1.37-2.23,2.72-4.5,4-6.8l1.93-3.46,1.83-3.38.1-.18a6.9,6.9,0,0,1,12.31,6.21Z" transform="translate(0 -54.95)" fill="#263238"/>
      <path id="Path_1362" data-name="Path 1362" d="M259.87,134.43,255,131.64l5.24-5.35a29.91,29.91,0,0,1,4.25,3.83,2.84,2.84,0,0,1-.8,4.49h0A4.13,4.13,0,0,1,259.87,134.43Z" transform="translate(0 -54.95)" fill="#ffc3bd"/>
      <path id="Path_1363" data-name="Path 1363" d="M253.89,125.91l2.65-1.89a1.62,1.62,0,0,1,2.25.34l1.45,1.93L255,131.64l-1.65-3.76a1.62,1.62,0,0,1,.54-1.97Z" transform="translate(0 -54.95)" fill="#ffc3bd"/>
      <path id="Path_1364" data-name="Path 1364" d="M290.56,123.93a7.43,7.43,0,0,1,5.78-5.15,45.29,45.29,0,0,1,5.89-.9,157.349,157.349,0,0,1,17.89.32c3.12.21,6.31.65,8.85,1.07h.09a5.15,5.15,0,0,1,4.24,5.91c-1.25,7.22-4.92,19.78-5.32,31.63-.53,15.56-.29,24.52-.56,28.27l-40.05-.77C284.58,146.28,288.05,132.54,290.56,123.93Z" transform="translate(0 -54.95)" fill="#fff"/>
      <path id="Path_1365" data-name="Path 1365" d="M330.13,118.68H330c-2.68-.44-6-.91-9.33-1.13l-1.78-.1c-1.75,7.24-12.18,19.42-15.34,37.88-1.22-15.43-2.16-31.56-.37-37.85a79.608,79.608,0,0,0-8.46.71,8.61,8.61,0,0,0-6.34,5.9c-2.46,7.24-7.16,23.46-4.27,63.34h44.51c.29-4-.75-12.4.86-25.33,1.55-12.52,3.78-29.56,5.09-37.17A5.44,5.44,0,0,0,330.13,118.68Z" transform="translate(0 -54.95)" fill="#263238"/>
      <path id="Path_1366" data-name="Path 1366" d="M302.6,185.35a.26.26,0,0,1-.27-.24c-.94-11.25.82-27.4.84-27.57a.26.26,0,0,1,.29-.23.27.27,0,0,1,.24.29c0,.16-1.78,16.27-.84,27.46a.26.26,0,0,1-.24.29Z" transform="translate(0 -54.95)" fill="#fff" opacity="0.2"/>
      <path id="Path_1367" data-name="Path 1367" d="M328.56,134.51c-1.65,7.48-.77,17.84,1,27.29,1.31-10.61,3.1-24.38,4.41-32.9C332.14,127.68,329.87,128.54,328.56,134.51Z" transform="translate(0 -54.95)" opacity="0.3"/>
      <path id="Path_1368" data-name="Path 1368" d="M303.08,117.83c5.19-1.14,6.09-4.34,5.72-7.88a22.489,22.489,0,0,0-.43-2.63l6.48-5.3,4.77-3.88c-1.3,5.74-2.73,16.21,1.19,20.12,0,0-3.2,5.25-12.1,4.61C301.19,122.33,303.08,117.83,303.08,117.83Z" transform="translate(0 -54.95)" fill="#ffc3bd"/>
      <path id="Path_1369" data-name="Path 1369" d="M310.97,66.59l-1.44,1.37,4.6,1.73-.6-1.75Z" fill="#e0e0e0"/>
      <path id="Path_1370" data-name="Path 1370" d="M314.49,127.08s-1.81-4.57-3.52-5.54a19,19,0,0,0,8.91-4.93l2.73,1.09S323.47,123,314.49,127.08Z" transform="translate(0 -54.95)" fill="#f5f5f5"/>
      <path id="Path_1371" data-name="Path 1371" d="M308.45,66.24l1.08,1.72-4.84.42.97-1.53Z" fill="#e0e0e0"/>
      <path id="Path_1372" data-name="Path 1372" d="M302.26,125.79a21.79,21.79,0,0,1,6.19-4.6c-2.63-.78-2.79-4.4-2.79-4.4l-2.55.49S298.43,121.83,302.26,125.79Z" transform="translate(0 -54.95)" fill="#f5f5f5"/>
      <path id="Path_1373" data-name="Path 1373" d="M308.37,107.31a23,23,0,0,1,.43,2.64c2.42-.44,5.66-3,6-5.45a11.22,11.22,0,0,0,.07-2.48Z" transform="translate(0 -54.95)" opacity="0.2"/>
      <path id="Path_1374" data-name="Path 1374" d="M300.5,81.14c-2.32,2.85-2.1,13.16,2.81,13.28S304.72,75.94,300.5,81.14Z" transform="translate(0 -54.95)" fill="#263238"/>
      <path id="Path_1375" data-name="Path 1375" d="M321.65,88.64c-.49,7.81-.39,12.4-4.33,16.44-5.92,6.07-15.52,2.58-17.37-5.19-1.65-7-.57-18.59,7.06-21.76a10.53,10.53,0,0,1,14.64,10.51Z" transform="translate(0 -54.95)" fill="#ffc3bd"/>
      <path id="Path_1376" data-name="Path 1376" d="M317.81,82.14c-4.91,4.87,1.47,8.44-1,11.06,4.63,2.42,2.93,4.2,2.93,4.2a6.08,6.08,0,0,0,0,4.12c5.22-1.34,14.91-18.68,4.33-21.34C317.74,83,317.81,82.14,317.81,82.14Z" transform="translate(0 -54.95)" fill="#263238"/>
      <path id="Path_1377" data-name="Path 1377" d="M319.82,85.64c-4.65.72-10.5-1.5-14.13-3.38s-4.16,1.67-2.82,2.75c-2.33.08-5.28-1.76-4.55-5.87.67-3.75,5.58-7.3,12.57-4.13,4.95,2.24,11.05-.71,13.43,1.88S322.92,85.15,319.82,85.64Z" transform="translate(0 -54.95)" fill="#263238"/>
      <path id="Path_1378" data-name="Path 1378" d="M323,80.55c3.12-.41,3.25-2.38,2.38-5.83,3.37,4.79,2,6.26,0,7.42C323.15,81.39,323,80.55,323,80.55Z" transform="translate(0 -54.95)" fill="#263238"/>
      <path id="Path_1379" data-name="Path 1379" d="M323.75,94.63a7.14,7.14,0,0,1-3.41,3.49c-1.93.87-2.91-.91-2.39-3,.47-1.89,2-4.61,4-4.59S324.62,92.7,323.75,94.63Z" transform="translate(0 -54.95)" fill="#ffc3bd"/>
      <path id="Path_1386" data-name="Path 1386" d="M335.76,123.2c1.22,2.57,2.24,5,3.24,7.5s1.89,5.05,2.78,7.6A127.64,127.64,0,0,1,346,154.18c.23,1.39.49,2.75.66,4.18l.13,1.06.07.53v.64a16.2,16.2,0,0,1,0,3.11,14,14,0,0,1-2.27,6.33,14.19,14.19,0,0,1-4.54,4.25,19,19,0,0,1-4.82,2,25.749,25.749,0,0,1-4.6.82,32.9,32.9,0,0,1-8.79-.35,3.44,3.44,0,0,1-.18-6.75l.36-.08c1-.23,2.31-.51,3.43-.81s2.26-.65,3.32-1a14.8,14.8,0,0,0,5.05-2.8,3.32,3.32,0,0,0,.87-1.32,2.721,2.721,0,0,0,0-1.07,6.734,6.734,0,0,0-.15-.8l-.36-1.63c-.23-1.14-.56-2.32-.86-3.48-.62-2.35-1.32-4.7-2.12-7.06s-1.62-4.71-2.49-7.06-1.79-4.7-2.72-7-1.91-4.72-2.84-6.91v-.1a6.893,6.893,0,1,1,12.58-5.64Z" transform="translate(0 -54.95)" fill="#263238"/>
      <path id="Path_1387" data-name="Path 1387" d="M318.68,172.88,314.27,175l7.62,2.71s5.08-1.62,2.62-4.44l-1.37-.43C320.94,172.12,319.86,172.2,318.68,172.88Z" transform="translate(0 -54.95)" fill="#ffc3bd"/>
      <path id="Path_1388" data-name="Path 1388" d="M314.86,180.38l3.35.64a2.34,2.34,0,0,0,2.46-1.15l1.22-2.19L314.27,175l-1,2.09a2.32,2.32,0,0,0,1.59,3.29Z" transform="translate(0 -54.95)" fill="#ffc3bd"/>
    </g>
  </g>
</svg>
