<svg xmlns="http://www.w3.org/2000/svg" width="68" height="67.975" viewBox="0 0 68 67.975">
  <g id="noun_next_arrow_1776680" data-name="noun_next arrow_1776680" transform="translate(0 0)">
    <path id="Path_3001" data-name="Path 3001" d="M74.331,82.81a33.993,33.993,0,0,1,37.1-13.064,34,34,0,0,1,4.778,63.618,34.483,34.483,0,0,1-21.073,2.366,34,34,0,0,1-26.625-27.9,36.3,36.3,0,0,1-.436-5.391v-.008A34.113,34.113,0,0,1,74.331,82.81Zm12.918,20.606a.007.007,0,0,0,.008.008,2.194,2.194,0,0,0,.391.59c.015.023.038.038.054.061.054.061.115.115.168.168.368.368.743.735,1.11,1.1q2.78,2.757,5.567,5.513c1.164,1.149,2.328,2.3,3.492,3.453a2.3,2.3,0,1,0,3.247-3.247c-.429-.421-.858-.85-1.286-1.271q-2.561-2.538-5.13-5.077h19.971a2.3,2.3,0,1,0,0-4.594h-19.9q1.424-1.413,2.856-2.826c1.164-1.149,2.328-2.3,3.492-3.453A2.3,2.3,0,1,0,98.038,90.6c-.429.421-.858.85-1.286,1.271q-2.78,2.757-5.567,5.513-1.643,1.631-3.293,3.254a2.69,2.69,0,0,0-.26.253h0a2.108,2.108,0,0,0-.59,1.3v.008c-.008.077-.015.146-.023.222A2.047,2.047,0,0,0,87.249,103.416Z" transform="translate(-68.075 -68.449)" fill="#13a0f0"/>
  </g>
</svg>
