<svg xmlns="http://www.w3.org/2000/svg" width="30.909" height="30.911" viewBox="0 0 30.909 30.911">
  <g id="noun_next_arrow_1776682" data-name="noun_next arrow_1776682" transform="translate(-47.966 -48.282)">
    <g id="Group_236" data-name="Group 236" transform="translate(47.966 48.282)">
      <g id="Group_228" data-name="Group 228" transform="translate(0 0)">
        <g id="Group_227" data-name="Group 227">
          <path id="Path_2971" data-name="Path 2971" d="M76.211,63.74a14.462,14.462,0,0,1-.127,1.9c.017-.117.033-.236.047-.353a14.135,14.135,0,0,1-.979,3.59c.043-.107.09-.213.133-.32A14.409,14.409,0,0,1,73.45,71.7l.21-.27A14.267,14.267,0,0,1,71.1,73.982l.27-.21a14.254,14.254,0,0,1-3.141,1.835c.107-.043.213-.09.32-.133a14.134,14.134,0,0,1-3.59.979c.117-.017.236-.033.353-.047a14.465,14.465,0,0,1-3.794,0c.117.017.236.033.353.047a14.134,14.134,0,0,1-3.59-.979c.107.043.213.09.32.133a14.408,14.408,0,0,1-3.141-1.835l.27.21a14.267,14.267,0,0,1-2.555-2.555l.21.27a14.254,14.254,0,0,1-1.835-3.141c.043.107.09.213.133.32a14.134,14.134,0,0,1-.979-3.59c.017.117.033.236.047.353a14.465,14.465,0,0,1,0-3.794c-.017.117-.033.236-.047.353a14.134,14.134,0,0,1,.979-3.59c-.043.107-.09.213-.133.32a14.408,14.408,0,0,1,1.835-3.141l-.21.27A14.267,14.267,0,0,1,55.734,53.5l-.27.21a14.254,14.254,0,0,1,3.141-1.835c-.107.043-.213.09-.32.133a14.135,14.135,0,0,1,3.59-.979c-.117.017-.236.033-.353.047a14.465,14.465,0,0,1,3.794,0c-.117-.017-.236-.033-.353-.047a14.135,14.135,0,0,1,3.59.979c-.107-.043-.213-.09-.32-.133a14.408,14.408,0,0,1,3.141,1.835l-.27-.21a14.267,14.267,0,0,1,2.555,2.555l-.21-.27a14.254,14.254,0,0,1,1.835,3.141c-.043-.107-.09-.213-.133-.32a14.135,14.135,0,0,1,.979,3.59c-.017-.117-.033-.236-.047-.353a14.45,14.45,0,0,1,.127,1.9,1.332,1.332,0,0,0,2.664,0,15.431,15.431,0,0,0-2.808-8.879,16.748,16.748,0,0,0-1.549-1.878,16.43,16.43,0,0,0-1.832-1.6,15.286,15.286,0,0,0-4.043-2.188,15.42,15.42,0,0,0-17.073,4.633,16.664,16.664,0,0,0-1.419,1.985,16.331,16.331,0,0,0-1.082,2.208,15.228,15.228,0,0,0-1.059,4.6,15.425,15.425,0,0,0,8.926,15.144,16.354,16.354,0,0,0,2.325.863,16.628,16.628,0,0,0,2.488.47A15.429,15.429,0,0,0,78.659,66.265a16.414,16.414,0,0,0,.213-2.525,1.331,1.331,0,1,0-2.661,0Z" transform="translate(-47.966 -48.282)" fill="#13a0f0"/>
        </g>
      </g>
      <g id="Group_235" data-name="Group 235" transform="translate(8.573 9.679)">
        <g id="Group_230" data-name="Group 230" transform="translate(0 4.447)">
          <g id="Group_229" data-name="Group 229">
            <path id="Path_2972" data-name="Path 2972" d="M306.7,475.065h11.1a1.332,1.332,0,0,0,0-2.664H306.7a1.332,1.332,0,0,0,0,2.664Z" transform="translate(-305.364 -472.4)" fill="#13a0f0"/>
          </g>
        </g>
        <g id="Group_232" data-name="Group 232" transform="translate(6.611)">
          <g id="Group_231" data-name="Group 231">
            <path id="Path_2973" data-name="Path 2973" d="M504.238,341.151c.506.5,1.013,1,1.519,1.5q1.209,1.2,2.421,2.4c.187.183.373.37.56.553a1.333,1.333,0,0,0,1.885-1.885c-.506-.5-1.012-1-1.519-1.5q-1.209-1.2-2.421-2.4c-.187-.183-.373-.37-.56-.553a1.333,1.333,0,0,0-1.885,1.885Z" transform="translate(-503.857 -338.882)" fill="#13a0f0"/>
          </g>
        </g>
        <g id="Group_234" data-name="Group 234" transform="translate(6.607 4.457)">
          <g id="Group_233" data-name="Group 233">
            <path id="Path_2974" data-name="Path 2974" d="M506.017,479.415c.506-.5,1.013-1,1.519-1.5q1.209-1.2,2.421-2.4c.186-.183.373-.37.56-.553a1.333,1.333,0,0,0-1.885-1.885c-.506.5-1.012,1-1.519,1.5q-1.209,1.2-2.421,2.4c-.187.183-.373.37-.56.553a1.333,1.333,0,0,0,1.885,1.885Z" transform="translate(-503.747 -472.697)" fill="#13a0f0"/>
          </g>
        </g>
      </g>
    </g>
  </g>
</svg>
