<svg xmlns="http://www.w3.org/2000/svg" width="53.541" height="53.82" viewBox="0 0 53.541 53.82">
  <g id="noun_notes_1353560" transform="translate(-1.13 -0.85)">
    <path id="Path_2976" data-name="Path 2976" d="M70.816,36.176l-.727-.547,1.186-1.64a5.085,5.085,0,0,0-1.154-7.108L68.875,26a5.085,5.085,0,0,0-7.108,1.154L42.483,53.945a1.361,1.361,0,0,0-.246.6l-1.247,9.388a1.367,1.367,0,0,0,1.952,1.405L51.466,61.2a1.367,1.367,0,0,0,.514-.432L68.487,37.871l.727.547a1.493,1.493,0,0,1,.339,2.089l-5.932,8.2a1.367,1.367,0,0,0,2.22,1.6l5.932-8.2a4.232,4.232,0,0,0-.957-5.927Zm-6.834-7.425a2.351,2.351,0,0,1,3.281-.547l1.263.908a2.351,2.351,0,0,1,.547,3.28l-18,24.97A7.95,7.95,0,0,0,46,53.71ZM44.769,56.269a5.249,5.249,0,0,1,4.27,3.078l-4.992,2.428Z" transform="translate(-18.016 -10.918)" fill="#cfcfcf" stroke="#cfcfcf" stroke-width="0.2"/>
    <circle id="Ellipse_246" data-name="Ellipse 246" cx="1.624" cy="1.624" r="1.624" transform="translate(7.698 25.364) rotate(-70.41)" fill="#cfcfcf" stroke="#cfcfcf" stroke-width="0.2"/>
    <circle id="Ellipse_247" data-name="Ellipse 247" cx="1.624" cy="1.624" r="1.624" transform="translate(7.7 32.513) rotate(-70.41)" fill="#cfcfcf" stroke="#cfcfcf" stroke-width="0.2"/>
    <circle id="Ellipse_248" data-name="Ellipse 248" cx="1.624" cy="1.624" r="1.624" transform="translate(7.702 39.662) rotate(-70.41)" fill="#cfcfcf" stroke="#cfcfcf" stroke-width="0.2"/>
    <path id="Path_2977" data-name="Path 2977" d="M41.5,42.667A1.367,1.367,0,0,0,40.137,41.3H26.807a1.367,1.367,0,1,0,0,2.734h13.33A1.367,1.367,0,0,0,41.5,42.667Z" transform="translate(-10.973 -18.289)" fill="#cfcfcf" stroke="#cfcfcf" stroke-width="0.2"/>
    <circle id="Ellipse_249" data-name="Ellipse 249" cx="1.624" cy="1.624" r="1.624" transform="translate(7.696 17.748) rotate(-70.41)" fill="#cfcfcf" stroke="#cfcfcf" stroke-width="0.2"/>
    <path id="Path_2978" data-name="Path 2978" d="M40.137,27.37H26.807a1.367,1.367,0,1,0,0,2.734h13.33a1.367,1.367,0,0,0,0-2.734Z" transform="translate(-10.973 -11.975)" fill="#cfcfcf" stroke="#cfcfcf" stroke-width="0.2"/>
    <path id="Path_2979" data-name="Path 2979" d="M26.807,54.38a1.367,1.367,0,1,0,0,2.734h8.972a1.367,1.367,0,1,0,0-2.734Z" transform="translate(-10.973 -24.217)" fill="#cfcfcf" stroke="#cfcfcf" stroke-width="0.2"/>
    <path id="Path_2980" data-name="Path 2980" d="M31.241,67.46H26.867a1.367,1.367,0,0,0,0,2.734h4.374a1.367,1.367,0,0,0,0-2.734Z" transform="translate(-11 -30.146)" fill="#cfcfcf" stroke="#cfcfcf" stroke-width="0.2"/>
    <path id="Path_2981" data-name="Path 2981" d="M19.573,47.107H5.713a1.75,1.75,0,0,1-1.75-1.75V10.081a1.75,1.75,0,0,1,1.75-1.75h27.95a1.75,1.75,0,0,1,1.75,1.75V19.5a1.367,1.367,0,1,0,2.734,0V10.081A4.489,4.489,0,0,0,33.663,5.6H32.214V2.317a1.367,1.367,0,0,0-2.734,0V5.6H24.773V2.317a1.367,1.367,0,1,0-2.734,0V5.6h-4.7V2.317a1.367,1.367,0,1,0-2.734,0V5.6H9.9V2.317a1.367,1.367,0,1,0-2.734,0V5.6H5.713A4.489,4.489,0,0,0,1.23,10.081V45.363a4.489,4.489,0,0,0,4.483,4.483h13.86a1.367,1.367,0,1,0,0-2.734Z" transform="translate(0)" fill="#cfcfcf" stroke="#cfcfcf" stroke-width="0.2"/>
  </g>
</svg>
