<svg xmlns="http://www.w3.org/2000/svg" width="28.869" height="29.02" viewBox="0 0 28.869 29.02">
  <g id="noun_notes_1353560" transform="translate(-1.13 -0.85)">
    <path id="Path_2976" data-name="Path 2976" d="M57.016,31.024l-.391-.294.638-.882a2.733,2.733,0,0,0-.62-3.82l-.67-.473a2.733,2.733,0,0,0-3.82.62l-10.365,14.4a.732.732,0,0,0-.132.32l-.67,5.046a.735.735,0,0,0,1.049.755l4.581-2.225a.735.735,0,0,0,.276-.232l8.872-12.3.391.294a.8.8,0,0,1,.182,1.123l-3.188,4.408a.735.735,0,0,0,1.193.858L57.53,34.21a2.274,2.274,0,0,0-.514-3.185Zm-3.673-3.991a1.264,1.264,0,0,1,1.763-.294l.679.488a1.264,1.264,0,0,1,.294,1.763L46.4,42.411a4.273,4.273,0,0,0-2.727-1.963ZM43.016,41.823a2.821,2.821,0,0,1,2.3,1.654l-2.683,1.3Z" transform="translate(-28.068 -17.009)" stroke="#707070" stroke-width="0.2"/>
    <circle id="Ellipse_246" data-name="Ellipse 246" cx="0.873" cy="0.873" r="0.873" transform="translate(4.707 14.072) rotate(-70.41)" stroke="#707070" stroke-width="0.2"/>
    <circle id="Ellipse_247" data-name="Ellipse 247" cx="0.873" cy="0.873" r="0.873" transform="translate(4.707 17.914) rotate(-70.41)" stroke="#707070" stroke-width="0.2"/>
    <circle id="Ellipse_248" data-name="Ellipse 248" cx="0.873" cy="0.873" r="0.873" transform="translate(4.708 21.757) rotate(-70.41)" stroke="#707070" stroke-width="0.2"/>
    <path id="Path_2977" data-name="Path 2977" d="M34.074,42.035a.735.735,0,0,0-.735-.735H26.175a.735.735,0,1,0,0,1.469h7.164A.735.735,0,0,0,34.074,42.035Z" transform="translate(-17.096 -28.493)" stroke="#707070" stroke-width="0.2"/>
    <circle id="Ellipse_249" data-name="Ellipse 249" cx="0.873" cy="0.873" r="0.873" transform="translate(4.705 9.978) rotate(-70.41)" stroke="#707070" stroke-width="0.2"/>
    <path id="Path_2978" data-name="Path 2978" d="M33.339,27.37H26.175a.735.735,0,1,0,0,1.469h7.164a.735.735,0,1,0,0-1.469Z" transform="translate(-17.096 -18.656)" stroke="#707070" stroke-width="0.2"/>
    <path id="Path_2979" data-name="Path 2979" d="M26.175,54.38a.735.735,0,1,0,0,1.469H31a.735.735,0,0,0,0-1.469Z" transform="translate(-17.096 -37.729)" stroke="#707070" stroke-width="0.2"/>
    <path id="Path_2980" data-name="Path 2980" d="M28.586,67.46H26.235a.735.735,0,0,0,0,1.469h2.351a.735.735,0,1,0,0-1.469Z" transform="translate(-17.138 -46.965)" stroke="#707070" stroke-width="0.2"/>
    <path id="Path_2981" data-name="Path 2981" d="M11.089,25.758H3.64a.94.94,0,0,1-.94-.94V5.858a.94.94,0,0,1,.94-.94H18.662a.94.94,0,0,1,.94.94v5.06a.735.735,0,1,0,1.469,0V5.858a2.413,2.413,0,0,0-2.41-2.41h-.779V1.685a.735.735,0,1,0-1.469,0V3.448h-2.53V1.685a.735.735,0,1,0-1.469,0V3.448H9.887V1.685a.735.735,0,1,0-1.469,0V3.448H5.888V1.685a.735.735,0,1,0-1.469,0V3.448H3.64a2.413,2.413,0,0,0-2.41,2.41V24.82a2.413,2.413,0,0,0,2.41,2.41h7.449a.735.735,0,1,0,0-1.469Z" stroke="#707070" stroke-width="0.2"/>
  </g>
</svg>
