<svg xmlns="http://www.w3.org/2000/svg" width="28.3" height="35" viewBox="0 0 28.3 35">
  <g id="noun_Lock_2492742" transform="translate(-6.69 -2.35)">
    <g id="Group_281" data-name="Group 281" transform="translate(6.69 2.35)">
      <g id="Group_280" data-name="Group 280">
        <path id="Path_2335" data-name="Path 2335" d="M31.4,15.828V9.359A6.958,6.958,0,0,0,24.488,2.35H17.2a6.958,6.958,0,0,0-6.909,7.009v6.468H6.69V27.953a9.336,9.336,0,0,0,9.266,9.4h9.768a9.331,9.331,0,0,0,9.266-9.4V15.828ZM12.926,9.367A4.311,4.311,0,0,1,17.2,5.032h7.287a4.311,4.311,0,0,1,4.274,4.335v6.376H12.926ZM32.347,27.96a6.681,6.681,0,0,1-6.623,6.716H15.956A6.676,6.676,0,0,1,9.333,27.96V18.509H32.355V27.96ZM18.862,27.18v2.612a1.6,1.6,0,0,0,1.592,1.615h.773a1.6,1.6,0,0,0,1.592-1.615V27.311a3.345,3.345,0,0,0-2.79-5.958,3.272,3.272,0,0,0-2.264,2.241A3.346,3.346,0,0,0,18.862,27.18Z" transform="translate(-6.69 -2.35)" fill="#fff" fill-rule="evenodd"/>
      </g>
    </g>
  </g>
</svg>
