<svg xmlns="http://www.w3.org/2000/svg" width="34" height="26.273" viewBox="0 0 34 26.273">
  <g id="noun_Browser_unlock_513148" data-name="noun_Browser unlock_513148" transform="translate(-6 -16)">
    <g id="Group_259" data-name="Group 259" transform="translate(6 16)">
      <path id="Path_3558" data-name="Path 3558" d="M8.318,968.362A2.33,2.33,0,0,0,6,970.68v23.182a.773.773,0,0,0,.773.773H39.228a.773.773,0,0,0,.773-.773V970.68a2.33,2.33,0,0,0-2.318-2.318Zm0,1.545H37.682a.755.755,0,0,1,.773.773v3.091H7.545V970.68A.755.755,0,0,1,8.318,969.907Zm1.545,1.159a.773.773,0,0,0,0,1.546h6.955a.773.773,0,0,0,0-1.546Zm-2.318,4.25h30.91V993.09H7.545ZM23,977.635a3.718,3.718,0,0,0-3.864,3.863v1.545h-.773a.768.768,0,0,0-.773.773V990a.8.8,0,0,0,.773.773h9.273a.8.8,0,0,0,.773-.773v-6.182a.8.8,0,0,0-.773-.773H20.682V981.5a2.249,2.249,0,0,1,.664-1.715,2.349,2.349,0,0,1,1.654-.6,2.2,2.2,0,0,1,2.342,1.727.807.807,0,0,0,.942.64.816.816,0,0,0,.555-1,3.854,3.854,0,0,0-3.84-2.91Zm-3.864,6.955h7.727v4.636H19.137Z" transform="translate(-6 -968.362)"/>
    </g>
  </g>
</svg>
