<svg xmlns="http://www.w3.org/2000/svg" width="32.292" height="32.46" viewBox="0 0 32.292 32.46">
  <g id="noun_notes_1353560" transform="translate(-1.13 -0.85)">
    <path id="Path_2976" data-name="Path 2976" d="M58.93,31.739l-.437-.329.714-.987a3.059,3.059,0,0,0-.694-4.276l-.75-.53a3.059,3.059,0,0,0-4.276.694L41.884,42.43a.819.819,0,0,0-.148.359l-.75,5.648a.822.822,0,0,0,1.174.845l5.128-2.49a.822.822,0,0,0,.309-.26l9.931-13.773.438.329a.9.9,0,0,1,.2,1.257L54.6,39.278a.823.823,0,1,0,1.336.961L59.506,35.3a2.546,2.546,0,0,0-.576-3.566Zm-4.112-4.467a1.414,1.414,0,0,1,1.974-.329l.76.546a1.414,1.414,0,0,1,.329,1.974L47.052,44.486A4.783,4.783,0,0,0,44,42.288ZM43.259,43.828a3.158,3.158,0,0,1,2.569,1.852l-3,1.461Z" transform="translate(-26.674 -16.164)" fill="#fff" stroke="#fff" stroke-width="0.2"/>
    <circle id="Ellipse_246" data-name="Ellipse 246" cx="0.977" cy="0.977" r="0.977" transform="translate(5.122 15.639) rotate(-70.41)" fill="#fff" stroke="#fff" stroke-width="0.2"/>
    <circle id="Ellipse_247" data-name="Ellipse 247" cx="0.977" cy="0.977" r="0.977" transform="translate(5.123 19.94) rotate(-70.41)" fill="#fff" stroke="#fff" stroke-width="0.2"/>
    <circle id="Ellipse_248" data-name="Ellipse 248" cx="0.977" cy="0.977" r="0.977" transform="translate(5.124 24.241) rotate(-70.41)" fill="#fff" stroke="#fff" stroke-width="0.2"/>
    <path id="Path_2977" data-name="Path 2977" d="M35.1,42.122a.822.822,0,0,0-.822-.822h-8.02a.822.822,0,1,0,0,1.645h8.02A.822.822,0,0,0,35.1,42.122Z" transform="translate(-16.246 -27.077)" fill="#fff" stroke="#fff" stroke-width="0.2"/>
    <circle id="Ellipse_249" data-name="Ellipse 249" cx="0.977" cy="0.977" r="0.977" transform="translate(5.12 11.056) rotate(-70.41)" fill="#fff" stroke="#fff" stroke-width="0.2"/>
    <path id="Path_2978" data-name="Path 2978" d="M34.282,27.37h-8.02a.822.822,0,1,0,0,1.645h8.02a.822.822,0,0,0,0-1.645Z" transform="translate(-16.246 -17.729)" fill="#fff" stroke="#fff" stroke-width="0.2"/>
    <path id="Path_2979" data-name="Path 2979" d="M26.262,54.38a.822.822,0,1,0,0,1.645h5.4a.822.822,0,1,0,0-1.645Z" transform="translate(-16.246 -35.854)" fill="#fff" stroke="#fff" stroke-width="0.2"/>
    <path id="Path_2980" data-name="Path 2980" d="M28.954,67.46H26.322a.822.822,0,1,0,0,1.645h2.632a.822.822,0,1,0,0-1.645Z" transform="translate(-16.286 -44.632)" fill="#fff" stroke="#fff" stroke-width="0.2"/>
    <path id="Path_2981" data-name="Path 2981" d="M12.266,28.72H3.927a1.053,1.053,0,0,1-1.053-1.053V6.443A1.053,1.053,0,0,1,3.927,5.391H20.743A1.053,1.053,0,0,1,21.8,6.443v5.664a.822.822,0,1,0,1.645,0V6.443a2.7,2.7,0,0,0-2.7-2.7h-.872V1.772a.822.822,0,1,0-1.645,0V3.746H15.394V1.772a.822.822,0,1,0-1.645,0V3.746H10.921V1.772a.822.822,0,1,0-1.645,0V3.746H6.444V1.772a.822.822,0,1,0-1.645,0V3.746H3.927a2.7,2.7,0,0,0-2.7,2.7V27.67a2.7,2.7,0,0,0,2.7,2.7h8.339a.822.822,0,1,0,0-1.645Z" transform="translate(0 0)" fill="#fff" stroke="#fff" stroke-width="0.2"/>
  </g>
</svg>
