<svg xmlns="http://www.w3.org/2000/svg" width="60.763" height="46.222" viewBox="0 0 60.763 46.222">
  <g id="noun_users_305973" transform="translate(-5 -15.769)">
    <g id="Group_260" data-name="Group 260" transform="translate(5 15.769)">
      <path id="Path_3562" data-name="Path 3562" d="M46.046,47.568c4.9,0,8.222-3.97,8.222-8.867s-3.326-8.865-8.222-8.865-8.225,3.969-8.225,8.865S41.149,47.568,46.046,47.568Z" transform="translate(-15.662 -20.339)" fill="#fff"/>
      <path id="Path_3563" data-name="Path 3563" d="M55.1,73.827a10.986,10.986,0,0,0,2.135-6.245,13.96,13.96,0,0,0-7.044-12.121,10.346,10.346,0,0,1-13.794,0A13.958,13.958,0,0,0,29.35,67.582a10.985,10.985,0,0,0,2.135,6.245C32.69,75.291,54.643,75.184,55.1,73.827Z" transform="translate(-12.91 -28.663)" fill="#fff"/>
      <path id="Path_3564" data-name="Path 3564" d="M70.4,33.5c4.9,0,8.223-3.971,8.223-8.867s-3.328-8.866-8.223-8.866-8.225,3.97-8.225,8.866S65.5,33.5,70.4,33.5Z" transform="translate(-23.572 -15.769)" fill="#fff"/>
      <path id="Path_3565" data-name="Path 3565" d="M21.694,33.5c4.9,0,8.224-3.971,8.224-8.867s-3.328-8.866-8.224-8.866-8.225,3.97-8.225,8.866S16.8,33.5,21.694,33.5Z" transform="translate(-7.751 -15.769)" fill="#fff"/>
      <path id="Path_3566" data-name="Path 3566" d="M77.248,41.394a10.361,10.361,0,0,1-13.09.586c.005.158.011.316.011.475a11.459,11.459,0,0,1-2.131,6.807,16.091,16.091,0,0,1,7.693,11.555c5.991.026,12.188-.342,12.427-1.057a10.976,10.976,0,0,0,2.135-6.245A13.96,13.96,0,0,0,77.248,41.394Z" transform="translate(-23.529 -24.094)" fill="#fff"/>
      <path id="Path_3567" data-name="Path 3567" d="M19.561,60.816a16.086,16.086,0,0,1,7.694-11.555,11.454,11.454,0,0,1-2.131-6.806c0-.159,0-.317.011-.475a10.362,10.362,0,0,1-13.09-.586A13.961,13.961,0,0,0,5,53.515a10.986,10.986,0,0,0,2.136,6.245C7.75,60.507,13.759,60.845,19.561,60.816Z" transform="translate(-5 -24.094)" fill="#fff"/>
    </g>
  </g>
</svg>
