<svg xmlns="http://www.w3.org/2000/svg" width="53.517" height="53.517" viewBox="0 0 53.517 53.517">
  <g id="noun_organization_2339556" transform="translate(-1 -1)">
    <g id="Group_363" data-name="Group 363" transform="translate(1 1)">
      <g id="Group_362" data-name="Group 362">
        <path id="Path_3021" data-name="Path 3021" d="M17.584,21.618h24.8a.3.3,0,0,0,.308-.29V18.783H17.276v2.545A.3.3,0,0,0,17.584,21.618Z" transform="translate(-3.227 -3.433)" fill="#13a0f0"/>
        <path id="Path_3022" data-name="Path 3022" d="M42.695,1.29A.3.3,0,0,0,42.387,1h-24.8a.3.3,0,0,0-.308.29V14.966H42.7V1.29Z" transform="translate(-3.227 -1)" fill="#13a0f0"/>
        <path id="Path_3023" data-name="Path 3023" d="M27.813,26.511h7.228l-.234-.356a3.881,3.881,0,0,1-.618-2.5l.024-.253H28.639l.024.253a3.876,3.876,0,0,1-.618,2.5Z" transform="translate(-4.669 -4.066)" fill="#13a0f0"/>
        <path id="Path_3024" data-name="Path 3024" d="M9.808,36.834H26.455a2.666,2.666,0,0,0,1.027.856v3.336H29.81V37.691a2.666,2.666,0,0,0,1.027-.856H47.484v3.748h2.327v-4.9a1.159,1.159,0,0,0-1.164-1.153H31.166a2.625,2.625,0,0,0-1.357-1.523V30.78H27.482v2.225a2.633,2.633,0,0,0-1.357,1.523H8.645a1.16,1.16,0,0,0-1.164,1.153v5.346H9.808Z" transform="translate(-1.887 -5.075)" fill="#13a0f0"/>
        <path id="Path_3025" data-name="Path 3025" d="M13.494,45.88H2.629A1.624,1.624,0,0,0,1,47.495V59.043a1.624,1.624,0,0,0,1.629,1.614H13.5a1.624,1.624,0,0,0,1.629-1.615V47.495A1.625,1.625,0,0,0,13.494,45.88ZM4.757,49.025H8.639v1.384H4.757Zm6.609,8.488H4.757V56.129h6.609Zm0-3.552H4.757V52.577h6.609Z" transform="translate(-1 -7.141)" fill="#13a0f0"/>
        <path id="Path_3026" data-name="Path 3026" d="M36.313,45.88H25.448a1.624,1.624,0,0,0-1.629,1.615V59.043a1.624,1.624,0,0,0,1.629,1.615H36.314a1.624,1.624,0,0,0,1.629-1.615V47.495A1.625,1.625,0,0,0,36.313,45.88Zm-8.738,3.145h3.883v1.384H27.576Zm6.61,8.488H27.576V56.129h6.609Zm0-3.552H27.576V52.577h6.609Z" transform="translate(-4.122 -7.141)" fill="#13a0f0"/>
        <path id="Path_3027" data-name="Path 3027" d="M59.132,45.88H48.267a1.624,1.624,0,0,0-1.629,1.615V59.043a1.624,1.624,0,0,0,1.629,1.615H59.133a1.625,1.625,0,0,0,1.628-1.616V47.495A1.624,1.624,0,0,0,59.132,45.88Zm-8.738,3.145h3.883v1.384H50.395ZM57,57.513H50.395V56.129H57v1.384Zm0-3.552H50.395V52.577H57v1.384Z" transform="translate(-7.245 -7.141)" fill="#13a0f0"/>
      </g>
    </g>
  </g>
</svg>
