<svg xmlns="http://www.w3.org/2000/svg" width="49.815" height="38" viewBox="0 0 49.815 38">
  <g id="noun_payment_3374845" transform="translate(-1.935 -5.271)">
    <path id="Path_934" data-name="Path 934" d="M51.748,15.018V12.354a7.09,7.09,0,0,0-7.083-7.083H9.018a7.09,7.09,0,0,0-7.083,7.083v2.665H51.748Zm0,12.906v8.264a7.09,7.09,0,0,1-7.083,7.083H9.018a7.09,7.09,0,0,1-7.083-7.083V27.923Zm-15.05,7.5a4.363,4.363,0,0,1,.753-2.458,3.412,3.412,0,0,0-5.8,2.458,3.433,3.433,0,0,0,5.771,2.513l.005-.1A4.367,4.367,0,0,1,36.7,35.419Zm7.99,0a3.433,3.433,0,1,0-3.432,3.432A3.431,3.431,0,0,0,44.688,35.419Z" fill="#13a0f0"/>
    <path id="Path_935" data-name="Path 935" d="M51.748,32.076H1.935V26.255H51.75v5.821Z" transform="translate(0 -7.694)" fill="#fff"/>
  </g>
</svg>
