<svg xmlns="http://www.w3.org/2000/svg" width="134" height="34.244" viewBox="0 0 134 34.244">
  <g id="iconfinder__Paypal-39_1156727" transform="translate(-0.5 -24)">
    <g id="Group_59" data-name="Group 59" transform="translate(92.811 32.933)">
      <path id="Path_397" data-name="Path 397" d="M55.173,28.2H47.941a1.413,1.413,0,0,0-1.063.851L43.9,47.768a.564.564,0,0,0,.638.638h3.829A.564.564,0,0,0,49,47.768l.851-5.317a.973.973,0,0,1,1.063-.851h2.34q7.338,0,8.3-7.019A5.575,5.575,0,0,0,60.7,29.9a8.579,8.579,0,0,0-5.53-1.7m.851,7.019c-.425,2.552-2.34,2.552-4.254,2.552H50.494l.851-4.892c0-.213.213-.425.638-.425h.425c1.276,0,2.552,0,3.19.851.425.213.425.851.425,1.914" transform="translate(-43.9 -28.2)" fill="#139ad6"/>
    </g>
    <g id="Group_60" data-name="Group 60" transform="translate(40.7 32.933)">
      <path id="Path_398" data-name="Path 398" d="M30.673,28.2H23.441a1.413,1.413,0,0,0-1.063.851L19.4,47.768a.564.564,0,0,0,.638.638h3.4a1.413,1.413,0,0,0,1.063-.851l.851-5.1a.973.973,0,0,1,1.063-.851h2.34q7.338,0,8.3-7.019A5.575,5.575,0,0,0,36.2,29.9a8.175,8.175,0,0,0-5.53-1.7m.851,7.019c-.425,2.552-2.34,2.552-4.254,2.552H26.206l.851-4.892c0-.213.213-.425.638-.425h.425c1.276,0,2.552,0,3.19.851a2.278,2.278,0,0,1,.213,1.914" transform="translate(-19.4 -28.2)" fill="#263b80"/>
    </g>
    <g id="Group_61" data-name="Group 61" transform="translate(57.37 39.314)">
      <path id="Path_399" data-name="Path 399" d="M43.748,31.625h-3.4c-.213,0-.638.213-.638.425l-.213,1.063-.213-.425A5,5,0,0,0,35.24,31.2a8.173,8.173,0,0,0-7.87,7.019,6.34,6.34,0,0,0,1.276,5.317,5.36,5.36,0,0,0,4.467,1.7,6.8,6.8,0,0,0,4.892-1.914l-.213,1.063a.564.564,0,0,0,.638.638h3.19a1.413,1.413,0,0,0,1.063-.851L44.6,32.263c-.213-.213-.638-.638-.851-.638m-4.892,6.806a4.114,4.114,0,0,1-4.041,3.4,3.4,3.4,0,0,1-2.34-.851,4.536,4.536,0,0,1-.638-2.552,3.794,3.794,0,0,1,6.168-2.552,3.713,3.713,0,0,1,.851,2.552" transform="translate(-27.237 -31.2)" fill="#263b80"/>
    </g>
    <g id="Group_62" data-name="Group 62" transform="translate(109.268 39.314)">
      <path id="Path_400" data-name="Path 400" d="M68.148,31.625h-3.4c-.213,0-.638.213-.638.425l-.213,1.063-.213-.425A5,5,0,0,0,59.64,31.2a8.173,8.173,0,0,0-7.87,7.019,6.34,6.34,0,0,0,1.276,5.317,5.36,5.36,0,0,0,4.467,1.7,6.8,6.8,0,0,0,4.892-1.914l-.213,1.063a.564.564,0,0,0,.638.638h3.19a1.413,1.413,0,0,0,1.063-.851L69,32.263c-.213-.213-.425-.638-.851-.638m-4.892,6.806a4.114,4.114,0,0,1-4.041,3.4,3.4,3.4,0,0,1-2.34-.851,4.536,4.536,0,0,1-.638-2.552,3.794,3.794,0,0,1,6.168-2.552,2.441,2.441,0,0,1,.851,2.552" transform="translate(-51.637 -31.2)" fill="#139ad6"/>
    </g>
    <g id="Group_66" data-name="Group 66" transform="translate(0.5 24)">
      <g id="Group_63" data-name="Group 63" transform="translate(75.508 15.74)">
        <path id="Path_401" data-name="Path 401" d="M52.378,31.4H48.762a1.105,1.105,0,0,0-.851.425l-4.679,7.232L41.1,32.251a.983.983,0,0,0-1.063-.638h-3.4c-.425,0-.638.425-.638.851l3.829,11.273-3.616,5.1c-.213.425,0,1.063.425,1.063h3.4a1.105,1.105,0,0,0,.851-.425l11.7-16.8c.638-.638.213-1.276-.213-1.276" transform="translate(-36 -31.4)" fill="#263b80"/>
      </g>
      <g id="Group_64" data-name="Group 64" transform="translate(126.343 9.063)">
        <path id="Path_402" data-name="Path 402" d="M62.878,28.77,59.9,47.912a.564.564,0,0,0,.638.638h2.978a1.413,1.413,0,0,0,1.063-.851l2.978-18.717a.564.564,0,0,0-.638-.638h-3.4c-.213-.213-.425,0-.638.425" transform="translate(-59.9 -28.261)" fill="#139ad6"/>
      </g>
      <g id="Group_65" data-name="Group 65">
        <path id="Path_403" data-name="Path 403" d="M24.96,26.552C23.471,24.851,20.706,24,16.878,24H6.243a1.825,1.825,0,0,0-1.489,1.276L.5,53.14A.973.973,0,0,0,1.351,54.2H7.944l1.7-10.422v.425a1.825,1.825,0,0,1,1.489-1.276h3.19c6.168,0,10.848-2.552,12.337-9.571v-.638h0c.213-2.765-.213-4.467-1.7-6.168" transform="translate(-0.5 -24)" fill="#263b80"/>
      </g>
    </g>
    <g id="Group_67" data-name="Group 67" transform="translate(7.306 32.721)">
      <path id="Path_404" data-name="Path 404" d="M22.843,28.1h0v.638c-1.489,7.232-6.168,9.571-12.337,9.571H7.316a1.825,1.825,0,0,0-1.489,1.276L3.7,52.56a.779.779,0,0,0,.851.851h5.53a1.191,1.191,0,0,0,1.276-1.063v-.213l1.063-6.594v-.425A1.191,1.191,0,0,1,13.7,44.052h.851c5.317,0,9.571-2.127,10.635-8.508.425-2.552.213-4.892-1.063-6.381A2.178,2.178,0,0,0,22.843,28.1" transform="translate(-3.7 -28.1)" fill="#139ad6"/>
    </g>
    <g id="Group_68" data-name="Group 68" transform="translate(9.646 31.444)">
      <path id="Path_405" data-name="Path 405" d="M20.114,28.138c-.213,0-.425-.213-.638-.213a.781.781,0,0,1-.638-.213,11.237,11.237,0,0,0-2.765-.213h-8.3a.781.781,0,0,0-.638.213A1.17,1.17,0,0,0,6.5,28.776L4.8,39.837v.425a1.825,1.825,0,0,1,1.489-1.276h3.19c6.168,0,10.848-2.552,12.337-9.571a.781.781,0,0,1,.213-.638c-.425-.213-.638-.425-1.063-.425-.638-.213-.638-.213-.851-.213" transform="translate(-4.8 -27.5)" fill="#232c65"/>
    </g>
  </g>
</svg>
