<svg id="noun_next_arrow_1776684" data-name="noun_next arrow_1776684" xmlns="http://www.w3.org/2000/svg" width="33.955" height="33.955" viewBox="0 0 33.955 33.955">
  <g id="Group_58" data-name="Group 58" transform="translate(0 0)">
    <g id="Group_50" data-name="Group 50" transform="translate(0 0)">
      <g id="Group_49" data-name="Group 49">
        <path id="Path_392" data-name="Path 392" d="M60.216,75.324a16.238,16.238,0,0,0,.142,2.131c-.015-.1-.026-.2-.041-.3a15.87,15.87,0,0,0,1.1,4.031l-.112-.269a15.7,15.7,0,0,0,1.1,2.131c.209.34.434.677.669,1,.049.067.1.131.146.2.03.041.06.079.09.116.12.161-.179-.228-.056-.071s.265.333.4.494A15.856,15.856,0,0,0,65.3,86.463c.135.12.273.236.411.348.075.064.153.123.228.183s.224.168-.071-.056c.052.037.1.079.157.12.314.236.639.46.969.669a16.13,16.13,0,0,0,2.36,1.241l-.269-.112a15.869,15.869,0,0,0,4.031,1.1c-.1-.015-.2-.026-.3-.041a16.24,16.24,0,0,0,4.259,0c-.1.015-.2.026-.3.041a15.87,15.87,0,0,0,4.031-1.1l-.269.112a15.7,15.7,0,0,0,2.131-1.1c.34-.209.677-.434,1-.669l.2-.146c.041-.03.079-.06.116-.09.161-.12-.228.179-.071.056s.333-.265.494-.4a15.854,15.854,0,0,0,1.675-1.649c.12-.135.236-.273.348-.411.064-.075.123-.153.183-.228s.168-.224-.056.071c.037-.052.079-.1.12-.157.236-.314.46-.639.669-.968a16.129,16.129,0,0,0,1.241-2.36l-.112.269a15.869,15.869,0,0,0,1.1-4.031c-.015.1-.026.2-.041.3a16.24,16.24,0,0,0,0-4.259c.015.1.026.2.041.3a15.869,15.869,0,0,0-1.1-4.031l.112.269A15.7,15.7,0,0,0,87.5,67.6c-.209-.34-.434-.677-.669-1-.049-.067-.1-.131-.146-.2-.03-.041-.06-.079-.09-.116-.12-.161.179.228.056.071s-.265-.333-.4-.494a15.854,15.854,0,0,0-1.649-1.675c-.135-.12-.273-.236-.411-.348-.075-.064-.153-.123-.228-.183s-.224-.168.071.056c-.052-.037-.1-.079-.157-.12-.314-.236-.639-.46-.969-.669a16.13,16.13,0,0,0-2.36-1.241l.269.112a15.869,15.869,0,0,0-4.031-1.1c.1.015.2.026.3.041a16.241,16.241,0,0,0-4.259,0c.1-.015.2-.026.3-.041a15.869,15.869,0,0,0-4.031,1.1l.269-.112a15.7,15.7,0,0,0-2.131,1.1c-.34.209-.677.434-1,.669l-.2.146c-.041.03-.079.06-.116.09-.161.12.228-.179.071-.056s-.333.265-.494.4A15.854,15.854,0,0,0,63.81,65.68c-.12.135-.236.273-.348.411-.064.075-.123.153-.183.228s-.168.224.056-.071c-.037.052-.079.1-.12.157-.236.314-.46.639-.669.968a16.128,16.128,0,0,0-1.241,2.36l.112-.269a15.869,15.869,0,0,0-1.1,4.031c.015-.1.026-.2.041-.3a16.224,16.224,0,0,0-.142,2.128,1.122,1.122,0,0,1-2.244,0,16.952,16.952,0,0,1,3.1-9.778,17.3,17.3,0,0,1,8.111-6.192,16.944,16.944,0,0,1,18.805,5.108A17.546,17.546,0,0,1,90.7,69a16.965,16.965,0,0,1-8.664,21.744,17.467,17.467,0,0,1-5.216,1.443A16.958,16.958,0,0,1,58.2,78.061a18.09,18.09,0,0,1-.224-2.733,1.122,1.122,0,0,1,2.244,0Z" transform="translate(-57.973 -58.345)"/>
      </g>
    </g>
    <g id="Group_57" data-name="Group 57" transform="translate(9.624 10.866)">
      <g id="Group_52" data-name="Group 52" transform="translate(0 4.991)">
        <g id="Group_51" data-name="Group 51">
          <path id="Path_393" data-name="Path 393" d="M328.959,484.644H316.5a1.122,1.122,0,1,1,0-2.244h12.46a1.122,1.122,0,0,1,0,2.244Z" transform="translate(-315.376 -482.4)"/>
        </g>
      </g>
      <g id="Group_54" data-name="Group 54" transform="translate(0.005)">
        <g id="Group_53" data-name="Group 53">
          <path id="Path_394" data-name="Path 394" d="M520.768,350.844c-.568.561-1.137,1.126-1.705,1.686q-1.357,1.346-2.719,2.692c-.209.206-.419.415-.628.621a1.121,1.121,0,0,1-1.586-1.585c.568-.561,1.137-1.126,1.705-1.686q1.357-1.346,2.719-2.692c.209-.206.419-.415.628-.621a1.121,1.121,0,1,1,1.585,1.586Z" transform="translate(-513.809 -348.934)"/>
        </g>
      </g>
      <g id="Group_56" data-name="Group 56" transform="translate(0.002 5.004)">
        <g id="Group_55" data-name="Group 55">
          <path id="Path_395" data-name="Path 395" d="M519.111,489.652c-.568-.561-1.137-1.126-1.705-1.686q-1.357-1.346-2.719-2.692c-.209-.206-.419-.415-.628-.621a1.121,1.121,0,1,1,1.586-1.585c.568.561,1.137,1.126,1.705,1.686q1.357,1.346,2.719,2.692c.209.206.419.415.628.621a1.121,1.121,0,0,1-1.586,1.585Z" transform="translate(-513.736 -482.747)"/>
        </g>
      </g>
    </g>
  </g>
</svg>
