<svg xmlns="http://www.w3.org/2000/svg" width="28" height="28" viewBox="0 0 28 28">
  <g id="Group_85" data-name="Group 85" transform="translate(-1739 -136)">
    <circle id="Ellipse_2" data-name="Ellipse 2" cx="14" cy="14" r="14" transform="translate(1739 136)" fill="#13a0f0"/>
    <g id="noun_User_829921" transform="translate(1705.54 101.943)">
      <g id="Group_1" data-name="Group 1" transform="translate(39.436 39.412)">
        <path id="Path_1" data-name="Path 1" d="M47.433,309.733H40.541a1.022,1.022,0,0,1-1.1-1.066c-.007-.467-.011-.93.007-1.4a1.406,1.406,0,0,1,.768-1.235c1.57-.856,3.146-1.695,4.716-2.547.114-.062.184,0,.268.04a4.613,4.613,0,0,0,4.106.176.345.345,0,0,0,.118-.055c.29-.246.551-.147.853.018,1.408.776,2.827,1.536,4.246,2.294a1.566,1.566,0,0,1,.9,1.514c-.007.393,0,.783,0,1.176a1.025,1.025,0,0,1-1.084,1.081Z" transform="translate(-39.436 -293.754)"/>
        <path id="Path_2" data-name="Path 2" d="M148.147,48.814a3.92,3.92,0,0,1-3.158-1.82,5.157,5.157,0,0,1,.342-6.208,3.806,3.806,0,0,1,5.874.022,5.116,5.116,0,0,1-.246,6.866A3.892,3.892,0,0,1,148.147,48.814Z" transform="translate(-140.264 -39.412)"/>
      </g>
    </g>
  </g>
</svg>
