<svg xmlns="http://www.w3.org/2000/svg" width="45.029" height="58.811" viewBox="0 0 45.029 58.811">
  <g id="noun_quality_685084" transform="translate(-12.03 -0.406)">
    <path id="Path_3028" data-name="Path 3028" d="M51.7,54.927a.919.919,0,0,1-1.186,1.144l-5.473-1.779-3.48,4.571a.919.919,0,0,1-1.6-.291L36.15,46.282l3.184,1.186a5.888,5.888,0,0,0,7.115-2.591l1.387-2.372Zm4.963-33.7-2.555,4.429a2.923,2.923,0,0,0-.35,1.968l.889,5.034a2.923,2.923,0,0,1-1.88,3.255l-4.8,1.749a2.923,2.923,0,0,0-1.53,1.287l-2.555,4.429a2.923,2.923,0,0,1-3.557,1.287l-4.8-1.749a2.923,2.923,0,0,0-2,0l-4.785,1.714a2.923,2.923,0,0,1-3.557-1.287l-2.555-4.429a2.923,2.923,0,0,0-1.53-1.287l-4.8-1.749a2.923,2.923,0,0,1-1.88-3.255l.889-5.034a2.923,2.923,0,0,0-.326-1.933l-2.555-4.429a2.923,2.923,0,0,1,.652-3.7l3.913-3.285a2.923,2.923,0,0,0,1-1.731l.889-5.034A2.923,2.923,0,0,1,21.76,5.063h5.111a2.923,2.923,0,0,0,1.88-.688L32.663,1.09a2.923,2.923,0,0,1,3.759,0l3.913,3.285a2.923,2.923,0,0,0,1.88.682h5.111a2.923,2.923,0,0,1,2.882,2.419L51.1,12.51a2.923,2.923,0,0,0,1,1.731l3.913,3.285a2.923,2.923,0,0,1,.652,3.706Zm-13-.795a1.4,1.4,0,0,0-1.132-.955l-4.648-.676L35.806,14.6a1.405,1.405,0,0,0-2.52,0L31.2,18.806l-4.648.676a1.405,1.405,0,0,0-.783,2.372l3.368,3.279-.795,4.678a1.405,1.405,0,0,0,2.046,1.459l4.15-2.188,4.15,2.188a1.405,1.405,0,0,0,2.046-1.459l-.795-4.631L43.312,21.9A1.4,1.4,0,0,0,43.668,20.437ZM18.534,56.071l5.473-1.779,3.516,4.571a.919.919,0,0,0,1.6-.291l3.812-12.279L29.752,47.48a5.888,5.888,0,0,1-7.115-2.591l-1.381-2.407L17.384,54.933a.919.919,0,0,0,1.15,1.138Z" transform="translate(0 0)" fill="#13a0f0"/>
  </g>
</svg>
