<svg xmlns="http://www.w3.org/2000/svg" width="43.919" height="43.919" viewBox="0 0 43.919 43.919">
  <g id="noun_Star_988430" transform="translate(0)">
    <g id="Group_215" data-name="Group 215" transform="translate(0 0)">
      <path id="Path_2645" data-name="Path 2645" d="M27.931,958.363a1,1,0,0,0-.923.7l-4.787,15.315H7a1,1,0,0,0-.606,1.791l12.35,9.436-4.694,15.388a1,1,0,0,0,1.561,1.084l12.35-9.434,12.35,9.434a1,1,0,0,0,1.559-1.088l-4.779-15.46,12.431-9.355a1,1,0,0,0-.6-1.8l-15.257.052-4.748-15.365a1,1,0,0,0-.983-.7Z" transform="translate(-6.001 -958.363)" fill="#cbcbd4" fill-rule="evenodd"/>
    </g>
  </g>
</svg>
