<svg xmlns="http://www.w3.org/2000/svg" width="469.352" height="243.319" viewBox="0 0 469.352 243.319">
  <g id="ready-to-launch-graphics" transform="translate(0.03 -0.004)">
    <path id="Path_1262" data-name="Path 1262" d="M123.535,246.93c-.458-28.531,33.676-26.668,33.676-26.668s-13.453-20.864-2-44.786,49.3-16.131,49.3-16.131-8.317-25.7,6.669-39.92,37.316-7.58,37.316-7.58-5.855-16.516,9.462-25.794a20.141,20.141,0,0,1,14.241-2.641s2.042-15.522,20.6-19.12c21.972-4.248,28.792,9.475,28.792,9.475s32.331-30.783,70.342-5.877,13.993,63.462,13.993,63.462,20.9-7.745,36.913,8.491c18.168,18.42.851,39.783.851,39.783s24.984-8.162,46.081,11.064S496.6,246.93,496.6,246.93Z" transform="translate(-71.674 -35.755)" fill="#eee"/>
    <path id="Path_1263" data-name="Path 1263" d="M88.064,390.412H447.148s1.131-15.106-12.561-21.3-25.854,3.483-25.854,3.483-.723-8.835-10.844-11.265-15,5.058-15,5.058,5.379-24.16-17.051-37c-24.2-13.879-47.336,6.024-47.336,6.024S294.316,314.1,260.5,324.148c-30.61,9.114-35.956,36.006-35.956,36.006a20.457,20.457,0,0,0-14.314-13.609c-13.558-3.74-22.452,3.081-22.452,3.081s-7.228-26.609-40.483-21.162c-36.208,5.928-32.042,33.136-32.042,33.136s-12.931-5.406-23.066,3.937S88.064,390.412,88.064,390.412Z" transform="translate(-51.484 -178.527)" fill="#dcdcdc"/>
    <path id="Path_1264" data-name="Path 1264" d="M479.439,462.594s1.886,2.49-11.357,5.223c-15.541,3.2-53.314.792-57.008,6.72-4.033,6.473,25.739,4.646,25.4,12.2-.288,6.408-20.539,6.189-43.362,6.189H137.269c-18.484,0-15.138-5.6-12.519-8.148,3.8-3.7,2.129-7.118-14.506-7.589-16.145-.458-27.968-.851-36.78-.851-23.5,0-18.887-7.75-37.192-7.75-11.837,0-26.092-2.975-26.092-6.408,75.556-6.294,157.744-10.048,245.723-9.613C335.483,452.936,410.2,456.7,479.439,462.594Z" transform="translate(-10.21 -249.607)"/>
    <path id="Path_1265" data-name="Path 1265" d="M181.53,480.12s64.844,1.424,148.516,2.266,115.174-4.577,115.174-4.577-67.747-3.232-132.531-3.95S194.219,477.607,181.53,480.12Z" transform="translate(-103.125 -261.127)" fill="#13a0f0"/>
    <path id="Path_1266" data-name="Path 1266" d="M586.65,388.023h5.493s6.367-43.555-8.917-78.733L571.37,349.114S584.288,363.744,586.65,388.023Z" transform="translate(-314.517 -171.931)"/>
    <path id="Path_1267" data-name="Path 1267" d="M424.074,311.28s-19.143,37.869-9.311,77.817h4.079s3.323-24.613,15.756-36.45Z" transform="translate(-228.073 -173.011)"/>
    <path id="Path_1268" data-name="Path 1268" d="M213.566,438.858a17.449,17.449,0,0,1,.829-6.408,10.82,10.82,0,0,1,9.7-7.1l-3.021,3.726s-5.594,1.167-6.166,9.924Z" transform="translate(-120.481 -234.865)" fill="#5ec5ff"/>
    <path id="Path_1269" data-name="Path 1269" d="M271.53,438.451a17.449,17.449,0,0,0-.829-6.408c-1.158-3.415-3.84-7.1-8.162-7.443l.421,2.82s6.743,1.373,7.232,11.174Z" transform="translate(-147.053 -234.459)" fill="#5ec5ff"/>
    <path id="Path_1270" data-name="Path 1270" d="M229.713,470.734h5.337A2.367,2.367,0,0,0,233,468.487a8.651,8.651,0,0,0-1.831-.069l.668-7.246-2.367-.792.49,8.239-.128.046Z" transform="translate(-129.121 -253.86)" fill="#fff"/>
    <path id="Path_1271" data-name="Path 1271" d="M259.713,470.734h5.342A2.371,2.371,0,0,0,263,468.487a8.651,8.651,0,0,0-1.831-.069l.668-7.246-2.367-.792.49,8.239-.128.046Z" transform="translate(-145.388 -253.86)" fill="#fff"/>
    <path id="Path_1272" data-name="Path 1272" d="M224.58,430.37c0,2.348.06,6.386.1,9.439a1.8,1.8,0,0,0,1.8,1.781h17.179a1.8,1.8,0,0,0,1.8-1.8V427.724s.458-3.424-4.967-3.424a76.476,76.476,0,0,0-12.46.783C225.07,425.6,224.58,428.223,224.58,430.37Z" transform="translate(-126.469 -234.296)" fill="#13a0f0"/>
    <path id="Path_1273" data-name="Path 1273" d="M227.372,439.825c-.032-3.053-.092-7.09-.092-9.439,0-2.147.485-4.774,3.451-5.287a68.7,68.7,0,0,1,10.35-.769h-.59a76.355,76.355,0,0,0-12.46.783c-2.962.513-3.451,3.14-3.451,5.287,0,2.348.06,6.386.1,9.439a1.8,1.8,0,0,0,1.8,1.781h2.7a1.8,1.8,0,0,1-1.8-1.794Z" transform="translate(-126.469 -234.312)" fill="#5ec5ff"/>
    <path id="Path_1274" data-name="Path 1274" d="M227.842,402.555h13.8c2.943,0,3.95-1.465,3.95-5.617s-2.362-9.718-9.759-9.718-10.171,4.454-10.775,8.56S224.935,402.555,227.842,402.555Z" transform="translate(-126.604 -214.189)" fill="#abe1ff"/>
    <path id="Path_1275" data-name="Path 1275" d="M227.485,395.97c.586-3.969,3.58-7.324,10.743-7.324a30.882,30.882,0,0,1,3.5.174,10.07,10.07,0,0,0-5.9-1.657c-7.393,0-10.171,4.454-10.775,8.56s-.124,6.775,2.783,6.775h2.339C227.366,402.52,226.9,399.943,227.485,395.97Z" transform="translate(-126.604 -214.155)" fill="#5ec5ff"/>
    <path id="Path_1276" data-name="Path 1276" d="M248.617,401.254a11.1,11.1,0,0,0-.838-4.243,3,3,0,0,0-2.746-1.831H238.35c-3.726,0-6.532,3.955-5.617,7.132s4.761,2.71,8,2.71h5.438a2.385,2.385,0,0,0,2.38-2.174C248.6,402.362,248.617,401.836,248.617,401.254Z" transform="translate(-130.796 -218.506)" fill="#13a0f0"/>
    <path id="Path_1277" data-name="Path 1277" d="M246.211,404.551a.755.755,0,1,1-.751-.751A.755.755,0,0,1,246.211,404.551Z" transform="translate(-137.379 -223.18)" fill="#fff"/>
    <path id="Path_1278" data-name="Path 1278" d="M262.391,404.551a.755.755,0,1,1-.751-.751A.755.755,0,0,1,262.391,404.551Z" transform="translate(-146.153 -223.18)" fill="#fff"/>
    <path id="Path_1279" data-name="Path 1279" d="M215.1,453.925a2.209,2.209,0,0,0-1.781-2.142h0l-.078-.032a2.545,2.545,0,0,0-2.257.526,2.289,2.289,0,0,0-.641,1.442.916.916,0,0,0,0,.275l.142,1.1a.618.618,0,0,0,.673.572.586.586,0,0,0,.384-.265v.119a.636.636,0,0,0,.618.65.572.572,0,0,0,.352-.16h0a.627.627,0,0,0,.481.71h.073a.577.577,0,0,0,.613-.554l.069-.641v-1.831s.508.142.6,1.044S215.291,455.335,215.1,453.925Z" transform="translate(-118.746 -249.141)" fill="#5ec5ff"/>
    <path id="Path_1280" data-name="Path 1280" d="M275.668,453.926a2.209,2.209,0,0,1,1.781-2.142h0l.082-.032a2.541,2.541,0,0,1,2.252.526,2.289,2.289,0,0,1,.641,1.442.915.915,0,0,1,0,.275l-.142,1.1a.613.613,0,0,1-.673.572.6.6,0,0,1-.384-.266v.119a.632.632,0,0,1-.613.65.572.572,0,0,1-.357-.16h0a.632.632,0,0,1-.485.71H277.7a.577.577,0,0,1-.613-.554l-.069-.641v-1.831s-.508.142-.6,1.044S275.48,455.336,275.668,453.926Z" transform="translate(-154.157 -249.141)" fill="#5ec5ff"/>
    <path id="Path_1281" data-name="Path 1281" d="M640.785,186.894v-89.4a1.3,1.3,0,0,0-2.6,0v7.155H616.566V97.491a1.3,1.3,0,0,0-2.6,0V143.6H599.849a1.3,1.3,0,0,0,0,2.6h14.1v39.142h-14.1a1.3,1.3,0,1,0,0,2.6h14.1v40.218h-7.631a1.3,1.3,0,1,0,0,2.6h7.631v41.3a1.3,1.3,0,0,0,2.6,0V233.14l21.642,34.61v4.307a1.3,1.3,0,0,0,2.6,0V186.917Zm-2.6,41.261H618.2l19.99-36.212ZM616.566,107.246h20.6l-20.6,33.837ZM638.208,143.6H618.067l20.141-33.026Zm0,2.6v35.764L617.989,146.2Zm-21.642,2.746,20.567,36.382H616.566Zm20.882,38.977-20.882,37.842V187.938Zm-19.3,42.813h20.063V262.83Z" transform="translate(-329.213 -56.42)"/>
    <path id="Path_1282" data-name="Path 1282" d="M441.8,188.732s6.61,10.189,27.355,10.189,27.968-10.2,27.968-10.2,17.028-32.116,13.114-81.113c-3.2-39.778-28.98-82.2-38.579-96.749a3.625,3.625,0,0,0-6.312.458c-7.855,16.648-30.033,66.158-33.159,99.139C428.361,150.62,441.8,188.732,441.8,188.732Z" transform="translate(-238.673 -9.22)" fill="#13a0f0"/>
    <path id="Path_1283" data-name="Path 1283" d="M555.546,107.826c-3.2-39.778-28.98-82.2-38.579-96.749A3.552,3.552,0,0,0,515.09,9.63c10.432,28.884,20.69,65.156,22.718,100.109a371.559,371.559,0,0,1-4.783,85.905c6.738-2.952,9.407-6.715,9.407-6.715S559.45,156.823,555.546,107.826Z" transform="translate(-283.999 -9.44)" fill="#0087d4"/>
    <path id="Path_1284" data-name="Path 1284" d="M465.346,252.029a4.317,4.317,0,1,1-4.152-4.472,4.317,4.317,0,0,1,4.152,4.472Z" transform="translate(-252.346 -138.454)" fill="#fff"/>
    <circle id="Ellipse_101" data-name="Ellipse 101" cx="3.364" cy="3.364" r="3.364" transform="matrix(1, -0.007, 0.007, 1, 207.971, 86.918)" fill="#fff"/>
    <path id="Path_1285" data-name="Path 1285" d="M478.82,158.843a2.609,2.609,0,1,1-2.508-2.705,2.609,2.609,0,0,1,2.508,2.705Z" transform="translate(-261.503 -88.883)" fill="#fff"/>
    <path id="Path_1286" data-name="Path 1286" d="M487.486,120.714a1.923,1.923,0,1,1-.513-1.383A1.927,1.927,0,0,1,487.486,120.714Z" transform="translate(-266.941 -68.593)" fill="#fff"/>
    <path id="Path_1287" data-name="Path 1287" d="M455.366,327.582s-.586-12.487-.586-18-.1-15.879,4.884-15.879S465,303.468,465,309.52s-.069,18.063-.069,18.063Z" transform="translate(-251.296 -163.478)" fill="#fff"/>
    <path id="Path_1288" data-name="Path 1288" d="M399.063,358.5H385.879v8.6h-8.6v8.583H368.7v8.6h-8.6v8.688h-8.688v8.6h-8.6v8.921h3.7L399.552,358.5Z" transform="translate(-185.906 -194.395)" fill="#fff"/>
    <path id="Path_1289" data-name="Path 1289" d="M510.193,309.441l-4.623,51.8,12.583,26.778h4.55s3.85-43.06-9.613-78.732Z" transform="translate(-278.837 -171.931)"/>
  </g>
</svg>
