<svg xmlns="http://www.w3.org/2000/svg" xmlns:xlink="http://www.w3.org/1999/xlink" width="561.769" height="349.312" viewBox="0 0 561.769 349.312">
  <defs>
    <clipPath id="clip-path">
      <rect id="Rectangle_1291" data-name="Rectangle 1291" width="168.673" height="302.596" rx="11.13" fill="none"/>
    </clipPath>
    <linearGradient id="linear-gradient" x1="1.297" y1="0.136" x2="-0.297" y2="0.864" gradientUnits="objectBoundingBox">
      <stop offset="0.27" stop-color="#fff" stop-opacity="0.4"/>
      <stop offset="1" stop-color="#fff" stop-opacity="0.302"/>
    </linearGradient>
    <linearGradient id="linear-gradient-2" x1="1.355" y1="0.147" x2="-0.355" y2="0.853" xlink:href="#linear-gradient"/>
  </defs>
  <g id="refer-teacher" transform="translate(0.007 -0.034)">
    <g id="OBJECTS" transform="translate(0 0.034)">
      <path id="Path_3306" data-name="Path 3306" d="M249.176,83.116a10.458,10.458,0,0,0,.13-1.582,10.284,10.284,0,0,0-10.284-10.293,10.181,10.181,0,0,0-4.321.968,13.776,13.776,0,0,0-27.457,1.625V74.1a9.429,9.429,0,0,0-15.651,8.979Z" transform="translate(-32.979 -15.778)" fill="#cde7fe"/>
      <line id="Line_108" data-name="Line 108" x2="1.728" transform="translate(321.79 52.681)" fill="none" stroke="#b8e2ff" stroke-linejoin="round" stroke-width="1"/>
      <path id="Path_3307" data-name="Path 3307" d="M384.44,69.78H491.268a18.46,18.46,0,0,1,18.46,18.46h0a18.46,18.46,0,0,1-18.46,18.46H470.527" transform="translate(-59.193 -17.099)" fill="none" stroke="#13a0f0" stroke-linejoin="round" stroke-width="1" stroke-dasharray="3.99 2"/>
      <line id="Line_109" data-name="Line 109" x1="1.728" transform="translate(408.776 89.601)" fill="none" stroke="#b8e2ff" stroke-linejoin="round" stroke-width="1"/>
      <path id="Path_3308" data-name="Path 3308" d="M401.1,112.5H165.009a20.119,20.119,0,0,0-20.119,20.119h0a20.119,20.119,0,0,0,20.119,20.119H284.992" transform="translate(-26.671 -22.899)" fill="none" stroke="#13a0f0" stroke-linejoin="round" stroke-width="1" stroke-dasharray="4 2"/>
      <rect id="Rectangle_1274" data-name="Rectangle 1274" width="24.458" height="17.907" transform="translate(379.063 86.403)" fill="#8ed6ff"/>
      <g id="Group_252" data-name="Group 252" transform="translate(379.046 91.673)" opacity="0.55">
        <path id="Path_3309" data-name="Path 3309" d="M463.068,118.813l-12.186-12.2-12.272,12.2" transform="translate(-438.593 -106.175)" fill="#8ed6ff"/>
        <path id="Path_3310" data-name="Path 3310" d="M471.157,127.535c-2.161-1.91-4.252-3.88-6.335-5.868s-4.122-4.01-6.162-6.05h.6c-2.048,2.031-4.105,4.053-6.205,6.05l-3.146,2.964c-1.072.968-2.126,1.953-3.224,2.9.959-1.089,1.953-2.135,2.921-3.206l2.982-3.137c1.988-2.083,4.027-4.131,6.05-6.171a.432.432,0,0,1,.6,0h0c2.031,2.04,4.053,4.088,6.05,6.179S469.264,125.357,471.157,127.535Z" transform="translate(-446.69 -114.897)" fill="#13a0f0"/>
      </g>
      <path id="Path_3311" data-name="Path 3311" d="M458.092,119.741,446.71,108.8h24.449l-11.3,10.941a1.27,1.27,0,0,1-1.763,0Z" transform="translate(-67.647 -22.397)" fill="#13a0f0"/>
      <path id="Path_3312" data-name="Path 3312" d="M423.577,38.023a10.838,10.838,0,0,0-16.585-7.182,19.234,19.234,0,0,0,.285-3.172,18.866,18.866,0,0,0-37.6-2.187,10.647,10.647,0,0,0-16.965,8.556,10.5,10.5,0,0,0,.761,3.95Z" transform="translate(-54.885 -8.824)" fill="#cde7fe"/>
      <rect id="Rectangle_1275" data-name="Rectangle 1275" width="26.722" height="19.558" transform="translate(87.884 50.745)" fill="#8ed6ff"/>
      <path id="Path_3313" data-name="Path 3313" d="M115.094,71.644,101.69,58.75h26.722Z" transform="translate(-13.806 -8.005)" fill="#13a0f0"/>
      <path id="Path_3314" data-name="Path 3314" d="M115.094,46.22l-13.4,10.829h26.722Z" transform="translate(-13.806 -6.304)" fill="#13a0f0"/>
      <path id="Path_3315" data-name="Path 3315" d="M128.412,79.294,115.094,65.95l-13.4,13.344" transform="translate(-13.806 -8.983)" fill="#8ed6ff"/>
      <path id="Path_3316" data-name="Path 3316" d="M136.514,88.015c-2.342-2.1-4.624-4.261-6.914-6.439s-4.5-4.382-6.724-6.594h.6c-2.238,2.212-4.477,4.434-6.767,6.594l-3.457,3.25c-1.167,1.063-2.316,2.143-3.457,3.189,1.046-1.184,2.135-2.325,3.2-3.457l3.267-3.457c2.178-2.282,4.408-4.511,6.637-6.741a.423.423,0,0,1,.6,0h0c2.212,2.23,4.425,4.459,6.594,6.741S134.422,85.664,136.514,88.015Z" transform="translate(-21.907 -17.704)" fill="#13a0f0"/>
      <g id="Group_253" data-name="Group 253" transform="translate(74.359 30.651)" opacity="0.55">
        <line id="Line_110" data-name="Line 110" y2="4.58" transform="translate(26.886)" fill="#eff6f9" stroke="#13a0f0" stroke-linecap="round" stroke-linejoin="round" stroke-width="1"/>
        <line id="Line_111" data-name="Line 111" y2="4.58" transform="translate(26.886 49.184)" fill="#eff6f9" stroke="#13a0f0" stroke-linecap="round" stroke-linejoin="round" stroke-width="1"/>
        <line id="Line_112" data-name="Line 112" x1="4.58" transform="translate(49.184 26.878)" fill="#eff6f9" stroke="#13a0f0" stroke-linecap="round" stroke-linejoin="round" stroke-width="1"/>
        <line id="Line_113" data-name="Line 113" x1="4.58" transform="translate(0 26.878)" fill="#eff6f9" stroke="#13a0f0" stroke-linecap="round" stroke-linejoin="round" stroke-width="1"/>
        <line id="Line_114" data-name="Line 114" x2="3.241" y2="3.241" transform="translate(7.873 7.873)" fill="#eff6f9" stroke="#13a0f0" stroke-linecap="round" stroke-linejoin="round" stroke-width="1"/>
        <line id="Line_115" data-name="Line 115" x2="3.241" y2="3.241" transform="translate(42.65 42.65)" fill="#eff6f9" stroke="#13a0f0" stroke-linecap="round" stroke-linejoin="round" stroke-width="1"/>
        <line id="Line_116" data-name="Line 116" x1="3.241" y2="3.241" transform="translate(42.65 7.873)" fill="#eff6f9" stroke="#13a0f0" stroke-linecap="round" stroke-linejoin="round" stroke-width="1"/>
        <line id="Line_117" data-name="Line 117" x1="3.241" y2="3.241" transform="translate(7.873 42.65)" fill="#eff6f9" stroke="#13a0f0" stroke-linecap="round" stroke-linejoin="round" stroke-width="1"/>
        <line id="Line_118" data-name="Line 118" x2="1.754" y2="4.235" transform="translate(16.593 2.04)" fill="#eff6f9" stroke="#13a0f0" stroke-linecap="round" stroke-linejoin="round" stroke-width="1"/>
        <line id="Line_119" data-name="Line 119" x2="1.754" y2="4.235" transform="translate(35.416 47.481)" fill="#eff6f9" stroke="#13a0f0" stroke-linecap="round" stroke-linejoin="round" stroke-width="1"/>
        <line id="Line_120" data-name="Line 120" x1="4.235" y2="1.754" transform="translate(47.49 16.593)" fill="#eff6f9" stroke="#13a0f0" stroke-linecap="round" stroke-linejoin="round" stroke-width="1"/>
        <line id="Line_121" data-name="Line 121" x1="4.235" y2="1.754" transform="translate(2.048 35.416)" fill="#eff6f9" stroke="#13a0f0" stroke-linecap="round" stroke-linejoin="round" stroke-width="1"/>
        <line id="Line_122" data-name="Line 122" x2="4.235" y2="1.754" transform="translate(2.048 16.593)" fill="#eff6f9" stroke="#13a0f0" stroke-linecap="round" stroke-linejoin="round" stroke-width="1"/>
        <line id="Line_123" data-name="Line 123" x2="4.235" y2="1.754" transform="translate(47.49 35.416)" fill="#eff6f9" stroke="#13a0f0" stroke-linecap="round" stroke-linejoin="round" stroke-width="1"/>
        <line id="Line_124" data-name="Line 124" x1="1.754" y2="4.235" transform="translate(35.416 2.04)" fill="#eff6f9" stroke="#13a0f0" stroke-linecap="round" stroke-linejoin="round" stroke-width="1"/>
        <line id="Line_125" data-name="Line 125" x1="1.754" y2="4.235" transform="translate(16.593 47.481)" fill="#eff6f9" stroke="#13a0f0" stroke-linecap="round" stroke-linejoin="round" stroke-width="1"/>
      </g>
      <path id="Path_3317" data-name="Path 3317" d="M185.546,98.188A2.048,2.048,0,1,1,183.5,96.14,2.048,2.048,0,0,1,185.546,98.188Z" transform="translate(-31.634 -20.678)" fill="none" stroke="#000" stroke-miterlimit="10" stroke-width="1"/>
      <circle id="Ellipse_254" data-name="Ellipse 254" cx="2.048" cy="2.048" r="2.048" transform="translate(183.772 110.61)" fill="none" stroke="#000" stroke-miterlimit="10" stroke-width="1"/>
      <path id="Path_3318" data-name="Path 3318" d="M47.9,145.348a2.048,2.048,0,1,1-2.048-2.048A2.048,2.048,0,0,1,47.9,145.348Z" transform="translate(-12.947 -27.081)" fill="none" stroke="#b8e2ff" stroke-miterlimit="10" stroke-width="1"/>
      <circle id="Ellipse_255" data-name="Ellipse 255" cx="2.048" cy="2.048" r="2.048" transform="translate(380.498 60.995)" fill="none" stroke="#b8e2ff" stroke-miterlimit="10" stroke-width="1"/>
      <path id="Path_3319" data-name="Path 3319" d="M561.356,226.678a2.039,2.039,0,1,1-.594-1.448,2.048,2.048,0,0,1,.594,1.448Z" transform="translate(-82.655 -38.122)" fill="none" stroke="#13a0f0" stroke-miterlimit="10" stroke-width="1"/>
      <path id="Path_3320" data-name="Path 3320" d="M308.2,20.348A2.04,2.04,0,1,1,307.6,18.9a2.048,2.048,0,0,1,.594,1.448Z" transform="translate(-48.286 -10.11)" fill="none" stroke="#13a0f0" stroke-miterlimit="10" stroke-width="1"/>
      <line id="Line_126" data-name="Line 126" x2="14.269" transform="translate(358.08 35.526)" fill="none" stroke="#b8e2ff" stroke-miterlimit="10" stroke-width="1"/>
      <line id="Line_127" data-name="Line 127" x2="14.26" transform="translate(138.218 97.007)" fill="none" stroke="#000" stroke-miterlimit="10" stroke-width="1"/>
      <line id="Line_128" data-name="Line 128" x2="14.26" transform="translate(183.772 202.851)" fill="none" stroke="#000" stroke-miterlimit="10" stroke-width="1"/>
      <line id="Line_129" data-name="Line 129" x2="14.269" transform="translate(218.255 21.292)" fill="none" stroke="#13a0f0" stroke-miterlimit="10" stroke-width="1"/>
      <line id="Line_130" data-name="Line 130" x2="7.692" transform="translate(238.365 21.292)" fill="none" stroke="#13a0f0" stroke-miterlimit="10" stroke-width="1"/>
      <line id="Line_131" data-name="Line 131" x2="6.205" transform="translate(378.398 42.716)" fill="none" stroke="#b8e2ff" stroke-miterlimit="10" stroke-width="1"/>
      <line id="Line_132" data-name="Line 132" x2="6.205" transform="translate(455.306 218.07)" fill="none" stroke="#000" stroke-miterlimit="10" stroke-width="1"/>
      <line id="Line_133" data-name="Line 133" x2="6.205" transform="translate(375.295 145.586)" fill="none" stroke="#13a0f0" stroke-miterlimit="10" stroke-width="1"/>
      <line id="Line_134" data-name="Line 134" x2="6.205" transform="translate(104.435 136.235)" fill="none" stroke="#13a0f0" stroke-miterlimit="10" stroke-width="1"/>
      <line id="Line_135" data-name="Line 135" x2="6.205" transform="translate(484.812 82.782)" fill="none" stroke="#000" stroke-miterlimit="10" stroke-width="1"/>
      <line id="Line_136" data-name="Line 136" x2="6.205" transform="translate(442.248 123.159)" fill="none" stroke="#000" stroke-miterlimit="10" stroke-width="1"/>
      <line id="Line_137" data-name="Line 137" x2="11.201" transform="translate(453.414 123.159)" fill="none" stroke="#000" stroke-miterlimit="10" stroke-width="1"/>
      <path id="Path_3555" data-name="Path 3555" d="M0,2,561.755,0" transform="translate(0 345.312)" fill="none" stroke="#000" stroke-width="4"/>
      <rect id="Rectangle_1276" data-name="Rectangle 1276" width="168.673" height="302.596" rx="11.13" transform="translate(196.545 42.716)"/>
      <path id="Path_3321" data-name="Path 3321" d="M338.189,388.9a6.05,6.05,0,1,1-6.05-6.05A6.05,6.05,0,0,1,338.189,388.9Z" transform="translate(-51.271 -59.602)" fill="#dfe6ea"/>
      <rect id="Rectangle_1277" data-name="Rectangle 1277" width="159.651" height="253.619" transform="translate(201.056 64.287)" fill="#fff"/>
      <rect id="Rectangle_1278" data-name="Rectangle 1278" width="146.341" height="11.391" transform="translate(207.702 301.754)" fill="#656565"/>
      <rect id="Rectangle_1279" data-name="Rectangle 1279" width="146.212" height="141.191" rx="2.87" transform="translate(207.737 152.267)" fill="#fff" stroke="#13a0f0" stroke-linejoin="round" stroke-width="1"/>
      <path id="Path_3322" data-name="Path 3322" d="M248.47,196.918H394.69v-9.429A2.489,2.489,0,0,0,392.21,185H250.95a2.489,2.489,0,0,0-2.48,2.489Z" transform="translate(-40.733 -32.742)" fill="#13a0f0"/>
      <line id="Line_139" data-name="Line 139" x1="4.096" y2="4.105" transform="translate(345.142 156.164)" fill="none" stroke="#fff" stroke-linecap="round" stroke-miterlimit="10" stroke-width="0.5"/>
      <line id="Line_140" data-name="Line 140" x1="4.096" y1="4.105" transform="translate(345.142 156.164)" fill="none" stroke="#fff" stroke-linecap="round" stroke-miterlimit="10" stroke-width="0.5"/>
      <path id="Path_3323" data-name="Path 3323" d="M371.631,194.771H257.664a3.457,3.457,0,0,1-3.414-3.414h0a3.457,3.457,0,0,1,3.414-3.457H371.631a3.457,3.457,0,0,1,3.414,3.457h0A3.457,3.457,0,0,1,371.631,194.771Z" transform="translate(-41.518 -33.136)" fill="#c7e0ff" opacity="0.75"/>
      <rect id="Rectangle_1280" data-name="Rectangle 1280" width="136.385" height="108.419" rx="2.71" transform="translate(212.516 172.473)" fill="#e2f4ff"/>
      <rect id="Rectangle_1281" data-name="Rectangle 1281" width="121.253" height="5.35" transform="translate(219.862 179.058)" fill="#13a0f0"/>
      <line id="Line_141" data-name="Line 141" x2="115.661" transform="translate(222.878 202.004)" fill="none" stroke="#fff" stroke-miterlimit="10" stroke-width="1"/>
      <line id="Line_142" data-name="Line 142" x2="115.661" transform="translate(222.878 195.392)" fill="none" stroke="#fff" stroke-miterlimit="10" stroke-width="1"/>
      <line id="Line_143" data-name="Line 143" x2="87.374" transform="translate(222.878 208.364)" fill="none" stroke="#fff" stroke-miterlimit="10" stroke-width="1"/>
      <line id="Line_144" data-name="Line 144" x2="20.802" transform="translate(317.737 208.364)" fill="none" stroke="#fff" stroke-miterlimit="10" stroke-width="1"/>
      <line id="Line_145" data-name="Line 145" x2="115.661" transform="translate(222.878 214.725)" fill="none" stroke="#fff" stroke-miterlimit="10" stroke-width="1"/>
      <line id="Line_146" data-name="Line 146" x2="115.661" transform="translate(222.878 227.309)" fill="none" stroke="#fff" stroke-miterlimit="10" stroke-width="1"/>
      <line id="Line_147" data-name="Line 147" x2="115.661" transform="translate(222.878 233.669)" fill="none" stroke="#fff" stroke-miterlimit="10" stroke-width="1"/>
      <line id="Line_148" data-name="Line 148" x2="30.248" transform="translate(222.878 221.077)" fill="none" stroke="#fff" stroke-miterlimit="10" stroke-width="1"/>
      <line id="Line_149" data-name="Line 149" x2="74.523" transform="translate(264.016 221.077)" fill="none" stroke="#fff" stroke-miterlimit="10" stroke-width="1"/>
      <line id="Line_150" data-name="Line 150" x2="70.764" transform="translate(267.775 239.978)" fill="none" stroke="#fff" stroke-miterlimit="10" stroke-width="1"/>
      <line id="Line_151" data-name="Line 151" x2="44.439" transform="translate(267.775 246.33)" fill="none" stroke="#d5eaf7" stroke-miterlimit="10" stroke-width="1"/>
      <line id="Line_152" data-name="Line 152" x2="20.802" transform="translate(317.737 246.33)" fill="none" stroke="#fff" stroke-miterlimit="10" stroke-width="1"/>
      <line id="Line_153" data-name="Line 153" x2="70.764" transform="translate(267.775 252.691)" fill="none" stroke="#fff" stroke-miterlimit="10" stroke-width="1"/>
      <line id="Line_154" data-name="Line 154" x2="70.764" transform="translate(267.775 265.283)" fill="none" stroke="#fff" stroke-miterlimit="10" stroke-width="1"/>
      <line id="Line_155" data-name="Line 155" x2="70.764" transform="translate(267.775 271.635)" fill="none" stroke="#fff" stroke-miterlimit="10" stroke-width="1"/>
      <line id="Line_156" data-name="Line 156" x2="43.048" transform="translate(267.775 259.052)" fill="none" stroke="#d5eaf7" stroke-miterlimit="10" stroke-width="1"/>
      <line id="Line_157" data-name="Line 157" x2="39.859" transform="translate(298.681 259.052)" fill="none" stroke="#fff" stroke-miterlimit="10" stroke-width="1"/>
      <line id="Line_158" data-name="Line 158" x2="42.598" transform="translate(222.878 188.582)" fill="none" stroke="#99d6ff" stroke-linejoin="round" stroke-width="1"/>
      <line id="Line_159" data-name="Line 159" x2="113.457" transform="translate(222.878 181.737)" fill="none" stroke="#99d6ff" stroke-linejoin="round" stroke-width="1"/>
      <rect id="Rectangle_1282" data-name="Rectangle 1282" width="39.055" height="31.666" transform="translate(222.878 239.978)" fill="#eff7f9" opacity="0.45"/>
      <rect id="Rectangle_1283" data-name="Rectangle 1283" width="18.693" height="15.15" transform="translate(226.802 243.427)" fill="#d5eaf7" opacity="0.55"/>
      <rect id="Rectangle_1284" data-name="Rectangle 1284" width="31.501" height="7.579" transform="translate(226.802 261.489)" fill="#d5eaf7" opacity="0.55"/>
      <rect id="Rectangle_1285" data-name="Rectangle 1285" width="69.39" height="70.695" rx="1.36" transform="translate(207.797 74.892)" fill="#fff" stroke="#c0e3ff" stroke-linejoin="round" stroke-width="1"/>
      <path id="Path_3324" data-name="Path 3324" d="M248.55,101.115h69.39V96.655a1.175,1.175,0,0,0-1.175-1.175H249.725a1.175,1.175,0,0,0-1.175,1.175Z" transform="translate(-40.744 -20.588)" fill="#13a0f0"/>
      <line id="Line_160" data-name="Line 160" x1="1.945" y2="1.953" transform="translate(273.013 76.741)" fill="none" stroke="#fff" stroke-linecap="round" stroke-miterlimit="10" stroke-width="0.5"/>
      <line id="Line_161" data-name="Line 161" x1="1.945" y1="1.953" transform="translate(273.013 76.741)" fill="none" stroke="#fff" stroke-linecap="round" stroke-miterlimit="10" stroke-width="0.5"/>
      <path id="Path_3325" data-name="Path 3325" d="M301.423,100.111H255.835a1.625,1.625,0,0,1-1.625-1.616h0a1.625,1.625,0,0,1,1.625-1.625h45.589a1.625,1.625,0,0,1,1.616,1.625h0A1.616,1.616,0,0,1,301.423,100.111Z" transform="translate(-41.512 -20.777)" fill="#9ad0fb" opacity="0.75"/>
      <rect id="Rectangle_1286" data-name="Rectangle 1286" width="59.961" height="51.457" rx="1.24" transform="translate(212.516 86.93)" fill="#e2f4ff"/>
      <rect id="Rectangle_1287" data-name="Rectangle 1287" width="26.67" height="8.841" rx="0.77" transform="translate(215.61 92.591)" fill="#d5eaf7"/>
      <line id="Line_162" data-name="Line 162" x2="54.283" transform="translate(215.878 106.981)" fill="none" stroke="#fff" stroke-miterlimit="10" stroke-width="1"/>
      <line id="Line_163" data-name="Line 163" x2="41.008" transform="translate(215.878 112.114)" fill="none" stroke="#fff" stroke-miterlimit="10" stroke-width="1"/>
      <line id="Line_164" data-name="Line 164" x2="9.766" transform="translate(260.395 112.114)" fill="none" stroke="#fff" stroke-miterlimit="10" stroke-width="1"/>
      <line id="Line_165" data-name="Line 165" x2="54.283" transform="translate(215.878 117.248)" fill="none" stroke="#fff" stroke-miterlimit="10" stroke-width="1"/>
      <line id="Line_166" data-name="Line 166" x2="54.283" transform="translate(215.878 127.403)" fill="none" stroke="#fff" stroke-miterlimit="10" stroke-width="1"/>
      <line id="Line_167" data-name="Line 167" x2="54.283" transform="translate(215.878 132.536)" fill="none" stroke="#fff" stroke-miterlimit="10" stroke-width="1"/>
      <line id="Line_168" data-name="Line 168" x2="33.61" transform="translate(215.878 122.381)" fill="none" stroke="#fff" stroke-miterlimit="10" stroke-width="1"/>
      <line id="Line_169" data-name="Line 169" x2="24.484" transform="translate(244.64 94.449)" fill="none" stroke="#fff" stroke-miterlimit="10" stroke-width="1"/>
      <line id="Line_170" data-name="Line 170" x2="11.909" transform="translate(244.64 98.865)" fill="none" stroke="#fff" stroke-miterlimit="10" stroke-width="1"/>
      <line id="Line_171" data-name="Line 171" x2="19.99" transform="translate(217.122 97.007)" fill="none" stroke="#fff" stroke-linejoin="round" stroke-width="1"/>
      <rect id="Rectangle_1288" data-name="Rectangle 1288" width="69.39" height="70.695" rx="1.36" transform="translate(284.628 74.892)" fill="#fff" stroke="#c0e3ff" stroke-linejoin="round" stroke-width="1"/>
      <path id="Path_3326" data-name="Path 3326" d="M337.44,101.115h69.39V96.655a1.175,1.175,0,0,0-1.175-1.175H338.615a1.175,1.175,0,0,0-1.175,1.175Z" transform="translate(-52.812 -20.588)" fill="#13a0f0"/>
      <line id="Line_172" data-name="Line 172" x1="1.945" y2="1.953" transform="translate(349.835 76.741)" fill="none" stroke="#fff" stroke-linecap="round" stroke-linejoin="round" stroke-width="0.5"/>
      <line id="Line_173" data-name="Line 173" x1="1.945" y1="1.953" transform="translate(349.835 76.741)" fill="none" stroke="#fff" stroke-linecap="round" stroke-linejoin="round" stroke-width="0.5"/>
      <path id="Path_3327" data-name="Path 3327" d="M390.493,100.111H344.9a1.625,1.625,0,0,1-1.625-1.616h0A1.625,1.625,0,0,1,344.9,96.87h45.589a1.625,1.625,0,0,1,1.616,1.625h0a1.616,1.616,0,0,1-1.616,1.616Z" transform="translate(-53.605 -20.777)" fill="#9ad0fb" opacity="0.75"/>
      <path id="Path_3554" data-name="Path 3554" d="M0,0H35.045V25.651H0Z" transform="translate(289.675 112.192)" fill="#8ed6ff"/>
      <path id="Path_3328" data-name="Path 3328" d="M352.759,143.894,335.18,129.85h35.045Z" transform="translate(-45.505 -17.658)" fill="#13a0f0"/>
      <path id="Path_3329" data-name="Path 3329" d="M352.759,113.59,335.18,127.643h35.045Z" transform="translate(-45.505 -15.45)" fill="#13a0f0"/>
      <path id="Path_3330" data-name="Path 3330" d="M370.225,156.782,352.759,139.29,335.18,156.782" transform="translate(-45.505 -18.94)" fill="#8ed6ff"/>
      <path id="Path_3331" data-name="Path 3331" d="M378.328,165.51c-3.033-2.791-6.006-5.643-8.962-8.513-1.5-1.417-2.938-2.887-4.408-4.321l-4.4-4.321h.631l-4.425,4.321c-1.478,1.443-2.938,2.912-4.434,4.321l-4.485,4.321c-1.512,1.409-3.008,2.835-4.546,4.226,1.4-1.53,2.835-3.016,4.252-4.52l4.321-4.459c1.426-1.5,2.9-2.947,4.321-4.416l4.321-4.4a.424.424,0,0,1,.6,0h0l4.321,4.4c1.443,1.469,2.9,2.921,4.321,4.416Q374.158,160.96,378.328,165.51Z" transform="translate(-53.607 -27.667)" fill="#13a0f0"/>
      <rect id="Rectangle_1290" data-name="Rectangle 1290" width="59.295" height="5.661" transform="translate(289.675 86.93)" fill="#e2f4ff"/>
      <line id="Line_174" data-name="Line 174" x1="28.096" transform="translate(320.874 97.007)" fill="none" stroke="#e2f4ff" stroke-miterlimit="10" stroke-width="1"/>
      <line id="Line_175" data-name="Line 175" x1="28.096" transform="translate(320.874 102.841)" fill="none" stroke="#e2f4ff" stroke-miterlimit="10" stroke-width="1"/>
      <line id="Line_176" data-name="Line 176" x1="17.484" transform="translate(331.487 108.675)" fill="none" stroke="#e2f4ff" stroke-miterlimit="10" stroke-width="1"/>
      <line id="Line_177" data-name="Line 177" x1="17.484" transform="translate(331.487 114.508)" fill="none" stroke="#e2f4ff" stroke-miterlimit="10" stroke-width="1"/>
      <line id="Line_178" data-name="Line 178" x1="17.484" transform="translate(331.487 120.342)" fill="none" stroke="#e2f4ff" stroke-miterlimit="10" stroke-width="1"/>
      <line id="Line_179" data-name="Line 179" x1="17.484" transform="translate(331.487 126.175)" fill="none" stroke="#e2f4ff" stroke-miterlimit="10" stroke-width="1"/>
      <line id="Line_180" data-name="Line 180" x1="17.484" transform="translate(331.487 132.009)" fill="none" stroke="#e2f4ff" stroke-miterlimit="10" stroke-width="1"/>
      <line id="Line_181" data-name="Line 181" x1="17.484" transform="translate(331.487 137.843)" fill="none" stroke="#e2f4ff" stroke-miterlimit="10" stroke-width="1"/>
      <line id="Line_182" data-name="Line 182" x2="15.185" transform="translate(210.909 307.294)" fill="none" stroke="#71bfff" stroke-linejoin="round" stroke-width="1"/>
      <line id="Line_183" data-name="Line 183" x2="15.185" transform="translate(335.722 307.294)" fill="none" stroke="#030303" stroke-linejoin="round" stroke-width="1"/>
      <path id="Path_3332" data-name="Path 3332" d="M345.223,70.506h-29a.648.648,0,1,1,0-1.3h29a.648.648,0,1,1,0,1.3Z" transform="translate(-49.844 -17.022)" fill="#4376cf"/>
      <path id="Path_3333" data-name="Path 3333" d="M309.148,70.506H303.8a.648.648,0,0,1,0-1.3h5.35a.648.648,0,1,1,0,1.3Z" transform="translate(-48.157 -17.022)" fill="#4376cf"/>
      <g id="Group_254" data-name="Group 254" transform="translate(196.545 42.707)" clip-path="url(#clip-path)">
        <path id="Path_3334" data-name="Path 3334" d="M350.393,11.52,224.18,354.536h30.49L380.892,11.52Z" transform="translate(-226.98 -44.301)" fill="url(#linear-gradient)"/>
        <path id="Path_3335" data-name="Path 3335" d="M398.812,11.52,272.59,354.536h15.556L414.36,11.52Z" transform="translate(-233.552 -44.301)" fill="url(#linear-gradient-2)"/>
      </g>
      <path id="Path_3336" data-name="Path 3336" d="M566.986,182.715l-20.94,4.235L522.037,173.9l-5.427,3.941s17.613,18.287,26.4,22.142c6.05,2.653,31.113-3.094,31.113-3.094" transform="translate(-77.136 -31.235)" fill="#ffd9d7"/>
      <path id="Path_3337" data-name="Path 3337" d="M589.954,181.395a47.844,47.844,0,0,0-13.456.268c-4.857.864-14.467,4-14.467,4l3.457,17.121,22.22-3.95" transform="translate(-83.303 -32.205)" fill="#13a0f0"/>
      <path id="Path_3338" data-name="Path 3338" d="M581.8,371.48l1.564,21.822s-12.644,8.47-12.644,8.642,10.328.51,10.328.51l4.58-2.238H593.2a.812.812,0,0,0,.8-.994l-.925-4.079.337-17.458" transform="translate(-84.482 -58.059)" fill="#ffd9d7"/>
      <path id="Path_3339" data-name="Path 3339" d="M571.29,404.215c1.625-.942,7.242-4.485,7.242-4.485l6.914,4.321h8.642v3.18h-8.945v-1.91h-.778a.864.864,0,0,0-.544.19l-1.962,1.461a1.262,1.262,0,0,1-.778.259H570.547C569.121,407.2,568.8,405.659,571.29,404.215Z" transform="translate(-84.31 -61.894)" fill="#13a0f0"/>
      <path id="Path_3340" data-name="Path 3340" d="M582.365,395.823l5.73-3.535-.3-1.348-6.223,4.3Z" transform="translate(-78.955 -53.104)" fill="#13a0f0"/>
      <path id="Path_3341" data-name="Path 3341" d="M576.118,242.14s-5.618,8.789-5.618,34.57c0,17.639,6.05,93.052,6.05,93.052h21.061s.518-74.973.518-84.073c0-18.054,4.321-31.821,2.273-41.112" transform="translate(-84.453 -40.499)"/>
      <line id="Line_184" data-name="Line 184" x2="21.433" transform="translate(491.604 324.967)" fill="none" stroke="#fff" stroke-miterlimit="10" stroke-width="0.75"/>
      <path id="Path_3342" data-name="Path 3342" d="M616.058,371.48l1.556,21.822s-12.644,8.47-12.644,8.642,10.328.51,10.328.51l4.58-2.238h7.588a.864.864,0,0,0,.8-.994l-.933-4.079.346-17.458" transform="translate(-89.132 -58.059)" fill="#ffd9d7"/>
      <path id="Path_3343" data-name="Path 3343" d="M605.543,404.215c1.625-.942,7.242-4.485,7.242-4.485l6.914,4.321h8.642v3.18H619.4v-1.91h-.743a.864.864,0,0,0-.544.19l-1.953,1.461a1.278,1.278,0,0,1-.786.259H604.826C603.374,407.2,603.1,405.659,605.543,404.215Z" transform="translate(-88.962 -61.894)" fill="#13a0f0"/>
      <path id="Path_3344" data-name="Path 3344" d="M616.615,395.823l5.739-3.535-.311-1.348-6.223,4.3Z" transform="translate(-83.605 -53.104)" fill="#13a0f0"/>
      <path id="Path_3345" data-name="Path 3345" d="M592.61,246.2l17.942,123.482h19.774S627.56,281.14,624.932,269.3c-4.425-19.921-9.567-23.118-12.212-27.5" transform="translate(-87.454 -40.453)"/>
      <path id="Path_3346" data-name="Path 3346" d="M601.028,304.225s-5.09-38.64-8.418-62.225" transform="translate(-87.454 -40.48)" fill="none" stroke="#fff" stroke-miterlimit="10" stroke-width="0.75"/>
      <path id="Path_3347" data-name="Path 3347" d="M588.11,243s2.083,11.166,3.042,12.1a15.427,15.427,0,0,0,3.034,2.014" transform="translate(-86.843 -40.616)" fill="none" stroke="#fff" stroke-miterlimit="10" stroke-width="0.75"/>
      <path id="Path_3348" data-name="Path 3348" d="M605.72,243s3.794,7.294,11.987,8.642" transform="translate(-89.234 -40.616)" fill="none" stroke="#fff" stroke-miterlimit="10" stroke-width="0.75"/>
      <path id="Path_3349" data-name="Path 3349" d="M573.7,250.143s6.741.086,8.253-6.6" transform="translate(-84.887 -40.689)" fill="none" stroke="#fff" stroke-miterlimit="10" stroke-width="0.75"/>
      <line id="Line_185" data-name="Line 185" x2="20.215" transform="translate(522.389 324.967)" fill="none" stroke="#fff" stroke-miterlimit="10" stroke-width="0.75"/>
      <path id="Path_3350" data-name="Path 3350" d="M631.068,369.195s-.657-61.3-6.05-97.322A66.219,66.219,0,0,0,611.7,240.7" transform="translate(-90.046 -40.304)" fill="none" stroke="#fff" stroke-miterlimit="10" stroke-width="0.75"/>
      <line id="Line_186" data-name="Line 186" x1="1.149" y2="77.479" transform="translate(510.687 251.749)" fill="none" stroke="#fff" stroke-miterlimit="10" stroke-width="0.75"/>
      <path id="Path_3351" data-name="Path 3351" d="M578.153,191.733c-4.7,6.81-8.876,11.054-3.068,21.234,1.2,13.923,1.1,20.7,1.1,20.7s12.557,5.937,33.774-.51c0,0,8.418-32.046,5.765-34.613s-26.4-20.413-26.4-20.413l-9.083,7.251Z" transform="translate(-84.69 -31.809)" fill="#13a0f0"/>
      <rect id="Rectangle_1292" data-name="Rectangle 1292" width="25.426" height="34.042" transform="translate(491.596 176.395) rotate(-13.24)" fill="#fff"/>
      <path id="Path_3352" data-name="Path 3352" d="M.925.052h11.52a.916.916,0,0,1,.916.916V2.359H0V.916A.916.916,0,0,1,.916,0Z" transform="translate(497.436 173.646) rotate(-13.24)"/>
      <path id="Path_3353" data-name="Path 3353" d="M590.217,204.638a1.867,1.867,0,1,0,2.394,1.348,1.936,1.936,0,0,0-2.394-1.348Zm.631,2.67a.864.864,0,1,1,.726-1.072.907.907,0,0,1-.726,1.072Z" transform="translate(-86.954 -35.398)"/>
      <path id="Path_3354" data-name="Path 3354" d="M591.794,229.367s-5.185-1.4-6.957-1.919a9.946,9.946,0,0,0-2.506-.519c-.233,0-.6,0-.614.32s.735.778.977.985a.475.475,0,0,1,.173.259.3.3,0,0,1-.2.3.864.864,0,0,1-.389.069H580.55c-.06-.311-.13-.614-.19-.916a1.539,1.539,0,0,0-.864,1.132c-.173.8.6,1.245,1.236,1.452a1.257,1.257,0,0,0-.916.657.8.8,0,0,0,.406.674,4.381,4.381,0,0,0,1.028.268s-.864.1-.864.562a.977.977,0,0,0,.06.449,1.029,1.029,0,0,0,.622.423c.441.147.717.259.717.259a.64.64,0,0,0-.4.674,1.144,1.144,0,0,0,1.054.959c1.556.328,2.9.493,4.477.674a23.274,23.274,0,0,0,4.39,0" transform="translate(-85.671 -38.434)" fill="#ffd9d7"/>
      <path id="Path_3355" data-name="Path 3355" d="M619.848,200.5s10.984,27.656,5.185,34.742-35.434-3.457-35.434-3.457l2.489-5.937,19.765-1.27L606.548,204.7" transform="translate(-87.046 -34.846)" fill="#ffd9d7"/>
      <path id="Path_3356" data-name="Path 3356" d="M593.73,180.92s13.378.519,20.681,5.851,12.143,23.118,12.143,23.118l-17.838,5.445-3.725-15.254" transform="translate(-87.606 -32.188)" fill="#13a0f0"/>
      <line id="Line_187" data-name="Line 187" x1="3.414" y1="13.966" transform="translate(517.696 169.18)" fill="none" stroke="#fff" stroke-miterlimit="10" stroke-width="0.75"/>
      <path id="Path_3357" data-name="Path 3357" d="M572.66,202.793a29.773,29.773,0,0,1,5.125-9.014,7.017,7.017,0,0,0,1.564-5.039" transform="translate(-84.746 -33.25)" fill="none" stroke="#fff" stroke-miterlimit="10" stroke-width="0.75"/>
      <path id="Path_3358" data-name="Path 3358" d="M521.51,173.4c-1.547-1.409-4.321-5.566-5.825-6.974-.907-.864-2.593-2.2-2.947-1.927-.951.691,2.117,2.549,1.625,2.9-.294.216-2.212-1.633-3.2-2.593s-2.161-1.867-2.705-1.53c-.691.441,4.278,5.125,4.278,5.125s-5.384-4.727-5.946-4.321c-.812.579,4.6,5.35,4.6,5.35s-4.65-3.958-5.246-3.526,2.869,3.267,4.131,4.624c-1.08-.786-3.725-3.085-4.166-2.774s1.34,2.264,1.824,2.7c2.9,2.593,9.049,7.311,9.049,7.311" transform="translate(-75.701 -29.782)" fill="#ffd9d7"/>
      <path id="Path_3359" data-name="Path 3359" d="M518.872,173.966a7.7,7.7,0,0,1-2.532-4.676" transform="translate(-77.1 -30.609)" fill="none" stroke="#ffa4a4" stroke-linejoin="round" stroke-width="0.75"/>
      <path id="Path_3360" data-name="Path 3360" d="M594.12,171.7l2.411,8.9s-.6,3.526-5.185,4c-3.258.346-3.275-2.956-3.275-2.956l.346-9.325" transform="translate(-86.838 -30.936)" fill="#ffd9d7"/>
      <path id="Path_3361" data-name="Path 3361" d="M585.939,157.138c-4.408,3.941-8.737,14.623-2.221,16.265a9.576,9.576,0,0,0,11.339-5.9C597.338,161.381,590.346,153.2,585.939,157.138Z" transform="translate(-85.796 -28.819)" fill="#ffd9d7"/>
      <path id="Path_3362" data-name="Path 3362" d="M588.32,176.089a10.855,10.855,0,0,0,4.624-1.979" transform="translate(-86.872 -31.263)" fill="none" stroke="#ffa4a4" stroke-linejoin="round" stroke-width="0.75"/>
      <path id="Path_3365" data-name="Path 3365" d="M582.65,163.46s-3.517,3.085-3.3,3.673c.354.959,1.729,1.037,1.729,1.037" transform="translate(-85.653 -29.818)" fill="#ffd9d7"/>
      <path id="Path_3367" data-name="Path 3367" d="M600.386,154.107c-2.524-2.437-5.445-2.593-8.712-1.651a1.659,1.659,0,0,1-.812.1,2.3,2.3,0,0,1-.51-.242,4.217,4.217,0,0,0-2.792-.13A7.614,7.614,0,0,0,584,153.657a4.58,4.58,0,0,0-1.59,3.405,2.783,2.783,0,0,0,1.728,2.593c.467.251,3.137,1.141,3.457.337a1.659,1.659,0,0,0,.579,1.832,3.751,3.751,0,0,0,1.919.674,1.054,1.054,0,0,1,.562.173.907.907,0,0,1,.277.493,17.39,17.39,0,0,1,.354,4.321c.069,1.27.467,2.593-.112,3.785-.864,1.728-2.238,3.578-.467,5.289.665.64,1.512,1.193,1.728,2.091.164.7-.1,1.486.207,2.135a2.593,2.593,0,0,0,1.858,1.106,24.552,24.552,0,0,0,6.05.968,8.539,8.539,0,0,0,5.661-1.919,2.74,2.74,0,0,0,1.089-2.256c-.1-.674-.579-1.253-.614-1.927-.052-.812.553-1.5.786-2.282.614-2.022-1.21-3.336-1.115-5.185,0-.864.579-1.728.665-2.593.156-1.728-1.426-2.93-2.238-4.321a19.634,19.634,0,0,1-1.348-2.29c-.38-.951-.475-2-.864-2.938a9.834,9.834,0,0,0-2.187-3.042Z" transform="translate(-86.07 -28.251)"/>
      <path id="Path_3368" data-name="Path 3368" d="M590.293,168.61a1.728,1.728,0,0,1,2.212-.3c1.054.709,1.046,2.2.484,3.345a2.143,2.143,0,0,1-2.2,1.452c-.657-.086-1.115-.933-.951-1.953" transform="translate(-87.073 -30.439)" fill="#ffd9d7"/>
      <path id="Path_3369" data-name="Path 3369" d="M443.75,269.85c-1.028,2.178-1.547,7.778-1.59,9.749,0,1.175.06,3.241.579,3.388,1.322.363.588-3.077,1.253-2.887.406.112.277,2.645.216,3.941-.06,1.158,0,2.74.735,2.973.864.3,1.167-6.2,1.167-6.2s0,6.853.786,7.069c1.124.32,1.124-6.586,1.124-6.586s.112,5.851.942,6.05.406-4.183.622-5.937c.138,1.288.631,5.047,1.227,4.857s.51-2.705.562-3.319a30.974,30.974,0,0,0-.864-10.44" transform="translate(-67.029 -44.261)" fill="#ffd9d7"/>
      <path id="Path_3370" data-name="Path 3370" d="M444.89,279.321s.112-.415.337-.994.519-1.34.8-2.091c.156-.363.277-.743.406-1.1s.225-.683.311-.977a5.859,5.859,0,0,0,.173-.717,1.723,1.723,0,0,1,.069-.294s.043.1.1.277a3.459,3.459,0,0,1,.147.786,5.066,5.066,0,0,1-.061,1.115,7.123,7.123,0,0,1-.337,1.219,8.128,8.128,0,0,1-.562,1.132,5.913,5.913,0,0,1-.631.864,4.321,4.321,0,0,1-.76.778Z" transform="translate(-67.4 -44.709)" fill="#ffa4a4"/>
      <path id="Path_3371" data-name="Path 3371" d="M443.076,264.29c0,.406-.536,6.4-.536,6.4l11.313,2.454.769-5.471" transform="translate(-67.08 -43.506)" fill="#13a0f0"/>
      <path id="Path_3372" data-name="Path 3372" d="M468.833,176.41s-18.7,4.01-21.122,8.833c-4.459,8.884-3.638,28.321-4.373,34.829-1.158,10.258-1.988,35.434-1.988,35.434l14.433,2.5s4.822-23.213,5.86-32.141,2.93-36.091,2.93-36.091" transform="translate(-66.919 -31.576)"/>
      <path id="Path_3373" data-name="Path 3373" d="M476.207,376.37,475,394.986l.069,6.516L452.7,403.109c-.614,0-.864-2-.4-2.169l13.828-5.894-1.806-17.285" transform="translate(-68.373 -58.723)" fill="#ffd9d7"/>
      <path id="Path_3374" data-name="Path 3374" d="M475.391,398.613s.181-1.512-.536-1.512-.761.683-1.5.864c-1.409.372-4.494,0-7.234-.916-.337-.121-.277-1.409-1.279-1.409s-.8,1.547-1.858,2.048-9.334,4.65-11.581,5.618c-1.91.864-3.2,3.327.138,3.327H475.9a.519.519,0,0,0,.519-.519v-1.487a43.922,43.922,0,0,0-1.028-6.015Z" transform="translate(-68.024 -61.339)" fill="#011e3b"/>
      <path id="Path_3375" data-name="Path 3375" d="M441.38,398h26.938v1.391h-26.4a.51.51,0,0,1-.51-.51v-.864Z" transform="translate(-59.923 -54.063)" fill="#4376cf"/>
      <path id="Path_3376" data-name="Path 3376" d="M461.123,400.217a4.809,4.809,0,0,1,.8.717,3.96,3.96,0,0,0,.614.648c.164.1.328-.069.3-.233-.13-.683-.907-1.219-1.469-1.556C461.1,399.63,460.872,400.036,461.123,400.217Z" transform="translate(-69.589 -61.898)" fill="#039"/>
      <path id="Path_3377" data-name="Path 3377" d="M462.533,398.881a10.368,10.368,0,0,1,1.063,1.236c.207.294.406.864.8.951a.156.156,0,0,0,.173-.1c.156-.406-.363-.925-.6-1.219a5.385,5.385,0,0,0-1.253-1.089C462.568,398.561,462.412,398.769,462.533,398.881Z" transform="translate(-69.789 -61.745)" fill="#039"/>
      <path id="Path_3378" data-name="Path 3378" d="M513.28,376.37l2.2,18.616.06,6.516-22.366,1.607c-.614,0-.864-2-.4-2.169l13.828-5.894-5.185-17.285" transform="translate(-73.867 -58.723)" fill="#ffd9d7"/>
      <path id="Path_3379" data-name="Path 3379" d="M515.929,398.613s.173-1.512-.536-1.512-.769.683-1.5.864c-1.4.372-4.494,0-7.234-.916-.337-.121-.268-1.409-1.279-1.409s-.8,1.547-1.849,2.048-9.342,4.65-11.589,5.618c-1.91.864-3.2,3.327.138,3.327h24.354a.518.518,0,0,0,.518-.518v-1.487a44.739,44.739,0,0,0-1.02-6.015Z" transform="translate(-73.526 -61.339)" fill="#011e3b"/>
      <path id="Path_3380" data-name="Path 3380" d="M481.889,398h26.938v1.391H482.39a.51.51,0,0,1-.51-.51v-.864Z" transform="translate(-65.421 -54.063)" fill="#4376cf"/>
      <path id="Path_3381" data-name="Path 3381" d="M501.624,400.217a4.81,4.81,0,0,1,.8.717,4.317,4.317,0,0,0,.614.648.207.207,0,0,0,.3-.233c-.13-.683-.907-1.219-1.461-1.556C501.6,399.63,501.382,400.036,501.624,400.217Z" transform="translate(-75.088 -61.898)" fill="#039"/>
      <path id="Path_3382" data-name="Path 3382" d="M502.994,398.881a9.019,9.019,0,0,1,1.063,1.236c.216.294.415.864.8.951a.156.156,0,0,0,.173-.1c.156-.406-.354-.925-.6-1.219a5.384,5.384,0,0,0-1.253-1.089C503.028,398.561,502.881,398.769,502.994,398.881Z" transform="translate(-75.282 -61.745)" fill="#039"/>
      <path id="Path_3383" data-name="Path 3383" d="M477.489,237.77s-2.022,15.513,0,29.678c5.306,33.256,20.457,104.478,20.457,104.478H519.9s-6.456-76.554-8.072-102.11c-.484-7.726-.864-17.285-12-28.52" transform="translate(-71.703 -39.906)" fill="#13a0f0"/>
      <path id="Path_3384" data-name="Path 3384" d="M454.334,241.429c-7.052,46.3,2.921,130.638,2.921,130.638h21.934l3.033-99.284s5.332-23.274.164-33.973" transform="translate(-68.339 -40.047)" fill="#13a0f0"/>
      <path id="Path_3385" data-name="Path 3385" d="M484.895,308.133S479.07,267.4,479.07,251.24" transform="translate(-72.04 -41.735)" fill="none" stroke="#fff" stroke-miterlimit="10" stroke-width="0.75"/>
      <path id="Path_3386" data-name="Path 3386" d="M474.91,251.24s1.5,14.182,4.373,14.182" transform="translate(-71.475 -41.735)" fill="none" stroke="#fff" stroke-miterlimit="10" stroke-width="0.75"/>
      <path id="Path_3387" data-name="Path 3387" d="M519.339,372.482,509.564,270.39s-2.869-15.427-12-28.52" transform="translate(-74.55 -40.463)" fill="none" stroke="#fff" stroke-miterlimit="10" stroke-width="0.75"/>
      <line id="Line_188" data-name="Line 188" y1="78.291" x2="3.293" transform="translate(407.799 253.797)" fill="none" stroke="#fff" stroke-miterlimit="10" stroke-width="0.75"/>
      <path id="Path_3388" data-name="Path 3388" d="M496.275,186.255c-2.135-9.4-3.854-8.3-12.039-10.371a61.914,61.914,0,0,0-8.979-.225c-1.478.121-2.238.242-4.58.6-3.4,3.146-13.378,12.445-14.6,26.6-.951,11.088-1.149,39.038-1.149,39.038s29.1,2.593,47.326-1.582C502.256,229.181,499.386,199.944,496.275,186.255Z" transform="translate(-68.763 -31.464)" fill="#fff"/>
      <path id="Path_3389" data-name="Path 3389" d="M488.548,176c-3.206,12.454-1.728,36.868.38,75.042l21.606-2.377s-1.884-51.993-3.958-56.711C502.868,183.51,488.548,176,488.548,176Z" transform="translate(-73.074 -31.52)"/>
      <path id="Path_3390" data-name="Path 3390" d="M470.086,176.41s-5.125,6.093-3.059,75.949c-5.669,0-12.592-1.072-16.308-2.714-.933-30.1,3.1-62.579,3.1-62.579Z" transform="translate(-68.172 -31.576)"/>
      <path id="Path_3391" data-name="Path 3391" d="M450.74,252.437s1.728-48.354,2.273-55.467" transform="translate(-68.194 -34.367)" fill="none" stroke="#031628" stroke-miterlimit="10" stroke-width="0.75"/>
      <rect id="Rectangle_1293" data-name="Rectangle 1293" width="25.633" height="36.713" transform="translate(403.319 215.259) rotate(-62.07)" fill="#fff"/>
      <path id="Path_3392" data-name="Path 3392" d="M.985,0H13.4A.994.994,0,0,1,14.4.994V2.5H0V.994A.994.994,0,0,1,.994,0Z" transform="translate(404.7 209.213) rotate(-62.07)"/>
      <path id="Path_3393" data-name="Path 3393" d="M476.974,241.614a2.014,2.014,0,1,0,2.791-.977,2.1,2.1,0,0,0-2.791.977ZM479.566,243a.959.959,0,1,1-.363-1.348.985.985,0,0,1,.363,1.348Z" transform="translate(-71.733 -40.268)"/>
      <path id="Path_3394" data-name="Path 3394" d="M503.954,259l-2.437,4.563a8.567,8.567,0,0,0-3.82,2.792,19.645,19.645,0,0,1-1.227,1.728l-1.867-.864s-.233,2.645.346,3.232a2.256,2.256,0,0,0,1.486.311,1.046,1.046,0,0,0,1.374,1.227c-.553.994.691,1.9,1.728.864-.1,1.106,1.054,1.478,2.135,1.175a7.207,7.207,0,0,0,3.8-2.645c.761-1.27,1.685-3.154,1.685-3.154l2.411-4.5" transform="translate(-74.142 -42.788)" fill="#ffd9d7"/>
      <path id="Path_3395" data-name="Path 3395" d="M495.253,250.46l-1.383,3.232,12.869,7.623,2.912-7.087" transform="translate(-67.049 -34.032)" fill="#13a0f0"/>
      <path id="Path_3396" data-name="Path 3396" d="M496.832,269.544l-.121.242c-.078.147-.181.372-.294.631a2.281,2.281,0,0,0-.13.389.156.156,0,0,0,0,.112s-.052-.069,0,0l.1.086a.3.3,0,0,0,.181.112.511.511,0,0,0,.173.061.865.865,0,0,0,.389,0,3.067,3.067,0,0,0,.864-.519l.743-.622c.216-.19.423-.337.553-.441a2.153,2.153,0,0,1,.233-.156s-.19.346-.51.864a6.468,6.468,0,0,1-.631.8,2.792,2.792,0,0,1-1.037.709,1.443,1.443,0,0,1-.743,0,1.262,1.262,0,0,1-.6-.363l-.086-.1a.605.605,0,0,1-.138-.233.588.588,0,0,1,.043-.389,1.666,1.666,0,0,1,.268-.449A3.75,3.75,0,0,1,496.832,269.544Z" transform="translate(-74.306 -44.206)" fill="#ffa4a4"/>
      <path id="Path_3397" data-name="Path 3397" d="M496.176,196.506c2.679,6.447,9.766,27.2,9.766,27.2l-5.229,25.659,16.792,8.409s9.36-26.325,9.36-33.861-8.971-29.108-15.625-38.545c-5.185-7.381-17.086-8.521-22.349-9.386" transform="translate(-73.373 -31.517)" fill="#242424"/>
      <path id="Path_3398" data-name="Path 3398" d="M497.109,228.2l1.659-9.688-8.8-24.812" transform="translate(-66.519 -26.326)" fill="none" stroke="#031628" stroke-miterlimit="10" stroke-width="0.75"/>
      <path id="Path_3399" data-name="Path 3399" d="M474.629,168.93l-.959,6.413s0,2.679,5.038,2.437c4.019-.2,6.1-1.728,6.862-2.446a.985.985,0,0,0,.294-.821l-1.227-11.633" transform="translate(-71.307 -29.739)" fill="#ffd9d7"/>
      <path id="Path_3400" data-name="Path 3400" d="M471,158.705c.043-.363-.372-.648-.743-.665a1.728,1.728,0,0,0-1.357.717,3.664,3.664,0,0,0-.588,1.461,2.921,2.921,0,0,0,0,1.469,1.789,1.789,0,0,0,2.074,1.167" transform="translate(-70.567 -29.082)" fill="#f9afaf"/>
      <path id="Path_3401" data-name="Path 3401" d="M472.768,150.911s-5.125,10.967-3.9,13.629c1.841,3.993,7.709,5.35,10.5,4.166,2.342-.985,5.393-8.011,5.739-9.921C486.06,153.582,475.983,148.647,472.768,150.911Z" transform="translate(-70.629 -28.037)" fill="#ffd9d7"/>
      <path id="Path_3402" data-name="Path 3402" d="M491.218,152.414a9.8,9.8,0,0,0-3.716-6.724,4.935,4.935,0,0,0-3.016-1.227,18.288,18.288,0,0,1-2.722.277,6.292,6.292,0,0,1-2.1-1.011,10,10,0,0,0-5.79-1.391,3.69,3.69,0,0,0-2.126.683c-2.1,1.728-.6,5.1.864,6.724,2.109,2.282,5.479,2.835,8.323,3.7a4.606,4.606,0,0,1,1.677.786c1.227,1.08.933,3.025.553,4.606a6.361,6.361,0,0,0,.268,4.148c.3.864,1.054,2.48,1.53,3.457a32.389,32.389,0,0,1,3.656-5.039A12.739,12.739,0,0,0,491.218,152.414Z" transform="translate(-70.905 -26.947)" fill="#031628"/>
      <path id="Path_3403" data-name="Path 3403" d="M473.87,170.6a11.157,11.157,0,0,0,5.566.242,6.881,6.881,0,0,0,3.63-3.3" transform="translate(-71.334 -30.371)" fill="none" stroke="#ffa4a4" stroke-linejoin="round" stroke-width="0.75"/>
      <path id="Path_3404" data-name="Path 3404" d="M483.592,162.8a2.247,2.247,0,0,1,1.728-.648,2,2,0,0,1,1.072.864c1.21,1.979-1.028,4.926-3.284,4.148-.864-.285-.389-1.374-.389-1.374" transform="translate(-72.518 -29.639)" fill="#ffd9d7"/>
      <path id="Path_3411" data-name="Path 3411" d="M183.056,162.37a18,18,0,0,0-6.05,3.69c-2.221,2.187-1.538,3.759-2.42,6.171-.951,2.593-3.837,3.95-5.592,5.972-2.593,3.016-2.662,7.718-.709,11.183a14.883,14.883,0,0,0,9.507,6.706,14.122,14.122,0,0,0,9.628-.7,14.58,14.58,0,0,0,6.439-7.121,43.272,43.272,0,0,0,2.705-9.386" transform="translate(-29.662 -29.67)" fill="#4a4a4a"/>
      <path id="Path_3412" data-name="Path 3412" d="M150.145,199.89,139.3,211,109.05,234.235l5.652,5.747S145.1,226.3,148.8,223.657c5.039-3.613,15.513-14.839,15.513-14.839" transform="translate(-21.805 -34.763)" fill="#ffd9d7"/>
      <path id="Path_3413" data-name="Path 3413" d="M181.839,182.13s-12.22.959-17.466,5.237-13.033,13.664-13.033,13.664l11.607,14.009,9.705-10.872" transform="translate(-27.547 -32.352)"/>
      <path id="Path_3414" data-name="Path 3414" d="M110.67,237.45c-1.78.864-5.185,2.316-6.966,3.189-1.054.519-2.852,1.547-2.74,2.066.277,1.348,3-.864,3.137-.207.086.415-2.221,1.461-3.405,2-1.054.484-2.42,1.288-2.308,2.022.147.942,6.05-1.806,6.05-1.806s-6.05,3.154-5.929,3.95c.242,1.132,6.369-2.031,6.369-2.031s-5.185,2.783-4.969,3.63,3.9-1.564,5.557-2.169c-1.08.717-4.192,2.878-3.751,3.319s2.636-.8,3.206-1.028a30.9,30.9,0,0,0,8.893-5.54" transform="translate(-20.357 -39.863)" fill="#ffd9d7"/>
      <path id="Path_3415" data-name="Path 3415" d="M112.141,241s-2.23,2.178-4.641,1.728" transform="translate(-21.595 -40.345)" fill="none" stroke="#ffa4a4" stroke-linejoin="round" stroke-width="0.75"/>
      <path id="Path_3416" data-name="Path 3416" d="M212.977,368.287l.2,16.758-.553,7.588-7.64-7.528L201.5,366.36" transform="translate(-27.356 -49.767)" fill="#ffd9d7"/>
      <path id="Path_3417" data-name="Path 3417" d="M212.146,395.995s-2.428,4.814-3.232,6.153a4.244,4.244,0,0,0-.6,2.593h14.735c.864-2.005-1.953-8.781-1.953-8.781a34.112,34.112,0,0,1-8.954.035Z" transform="translate(-35.279 -61.382)"/>
      <rect id="Rectangle_1294" data-name="Rectangle 1294" width="14.899" height="2.783" transform="translate(173.038 342.529)" fill="#039"/>
      <path id="Path_3418" data-name="Path 3418" d="M215.3,399.936a5.807,5.807,0,0,1,4.278,0" transform="translate(-36.23 -61.867)" fill="none" stroke="#fff" stroke-linecap="round" stroke-linejoin="round" stroke-width="1"/>
      <path id="Path_3419" data-name="Path 3419" d="M215.3,401.526a5.807,5.807,0,0,1,4.278,0" transform="translate(-36.23 -62.082)" fill="none" stroke="#fff" stroke-linecap="round" stroke-linejoin="round" stroke-width="1"/>
      <path id="Path_3420" data-name="Path 3420" d="M215.48,398.408a5.272,5.272,0,0,1,3.975,0" transform="translate(-36.254 -61.661)" fill="none" stroke="#fff" stroke-linecap="round" stroke-linejoin="round" stroke-width="1"/>
      <path id="Path_3421" data-name="Path 3421" d="M179.967,407.366v-1.435H161.257a2.593,2.593,0,0,1-2.212-1.262h-.164v2.308a.337.337,0,0,0,.1.233l.052.06a2,2,0,0,0,1.452.622h19.013a.5.5,0,0,0,.475-.527Z" transform="translate(-28.57 -62.565)" fill="#039"/>
      <path id="Path_3422" data-name="Path 3422" d="M179.367,376.946v17.19l-.553,7.156H160.829a1.089,1.089,0,0,1-1.089-1.089h0a1.08,1.08,0,0,1,.7-1.011l10.371-5-1.772-20.016" transform="translate(-28.687 -58.425)" fill="#ffd9d7"/>
      <path id="Path_3423" data-name="Path 3423" d="M170.487,396.1l-10.838,6.05a1.357,1.357,0,0,0-.769,1.27h0a1.5,1.5,0,0,0,1.435,1.357h19.653l-.579-7.839S175.525,398.935,170.487,396.1Z" transform="translate(-28.57 -61.401)"/>
      <path id="Path_3424" data-name="Path 3424" d="M169.66,397.67a13.024,13.024,0,0,1,1.59,2.645" transform="translate(-30.034 -61.614)" fill="none" stroke="#fff" stroke-linecap="round" stroke-linejoin="round" stroke-width="1"/>
      <path id="Path_3425" data-name="Path 3425" d="M168,398.65a11.953,11.953,0,0,1,1.314,2.247" transform="translate(-29.808 -61.747)" fill="none" stroke="#fff" stroke-linecap="round" stroke-linejoin="round" stroke-width="1"/>
      <path id="Path_3426" data-name="Path 3426" d="M166.65,399.37a15.817,15.817,0,0,1,1.193,2.066" transform="translate(-29.625 -61.845)" fill="none" stroke="#fff" stroke-linecap="round" stroke-linejoin="round" stroke-width="1"/>
      <path id="Path_3427" data-name="Path 3427" d="M173.349,231.03l-4.943,4.693c-.864,3.319-8.081,11.3-8.841,36.531-.864,27.906,4.027,86.424,4.027,86.424h20.482l2.005-99.353-.32-36.125" transform="translate(-28.649 -37.928)" fill="#13a0f0"/>
      <path id="Path_3428" data-name="Path 3428" d="M205.4,235.3c1.884,4.615,8.521,14.338,11.7,27.656,4.935,20.664,3.967,97.3,3.967,97.3H202.816L185.341,260.57A168.655,168.655,0,0,1,183.958,237" transform="translate(-31.973 -39.571)" fill="#13a0f0"/>
      <path id="Path_3429" data-name="Path 3429" d="M189.185,282.738c-1.4-5.185-4.321-31.839-5.185-45.468" transform="translate(-31.981 -39.838)" fill="none" stroke="#fff" stroke-miterlimit="10" stroke-width="0.75"/>
      <path id="Path_3430" data-name="Path 3430" d="M201.54,235.3a63.314,63.314,0,0,1,12.333,26.377c2.593,13.136,7.847,98.6,7.847,98.6" transform="translate(-34.362 -39.571)" fill="none" stroke="#fff" stroke-miterlimit="10" stroke-width="0.75"/>
      <path id="Path_3431" data-name="Path 3431" d="M192.73,237.27s2.385,7.882,14.433,8.954" transform="translate(-33.166 -39.838)" fill="none" stroke="#fff" stroke-miterlimit="10" stroke-width="0.75"/>
      <path id="Path_3432" data-name="Path 3432" d="M165.62,245.463s8.452-4.641,10.034-8.193" transform="translate(-29.485 -39.838)" fill="none" stroke="#fff" stroke-miterlimit="10" stroke-width="0.75"/>
      <path id="Path_3433" data-name="Path 3433" d="M180,238.68s.864,12.583,1.927,13.664a6.577,6.577,0,0,0,3.3,1.348" transform="translate(-31.438 -40.03)" fill="none" stroke="#fff" stroke-miterlimit="10" stroke-width="0.75"/>
      <path id="Path_3434" data-name="Path 3434" d="M186.19,365.162s.925-73.78,1.521-88.092" transform="translate(-32.278 -45.242)" fill="none" stroke="#fff" stroke-miterlimit="10" stroke-width="0.75"/>
      <path id="Path_3435" data-name="Path 3435" d="M177.082,373.349H155.07l.121-5.479H177Z" transform="translate(-21.053 -49.972)" fill="#0a8ed9"/>
      <path id="Path_3436" data-name="Path 3436" d="M216.639,373.349H196.684l-.484-5.479h20.189Z" transform="translate(-26.637 -49.972)" fill="#0a8ed9"/>
      <path id="Path_3437" data-name="Path 3437" d="M206.749,193.53c-2.454-3.664-15.237-11.01-15.237-11.01a57.291,57.291,0,0,0-9.092-.242,74.325,74.325,0,0,0-11.512,12.359c-3.855,3.863-5.367,6.81-5.289,10.8.061,2.722,1.4,5.047,2.2,9.187.864,4.485,1.426,15.556,1.426,15.556,7.735,2.817,23.239,2.506,34.457-.363C204.787,219.353,209.212,197.186,206.749,193.53Z" transform="translate(-29.485 -32.361)"/>
      <path id="Path_3438" data-name="Path 3438" d="M170.909,196.59c-3.855,3.863-5.367,6.81-5.289,10.8.061,2.722.994,4.157,1.651,6.819" transform="translate(-29.485 -34.315)" fill="none" stroke="#fff" stroke-miterlimit="10" stroke-width="0.75"/>
      <path id="Path_3439" data-name="Path 3439" d="M186.63,205.314l1.08-19.394Z" transform="translate(-32.338 -32.867)" fill="none" stroke="#fff" stroke-miterlimit="10" stroke-width="0.75"/>
      <path id="Path_3440" data-name="Path 3440" d="M189.766,192.463a.363.363,0,1,1-.363-.363.363.363,0,0,1,.363.363Z" transform="translate(-32.665 -33.706)" fill="#aa312e"/>
      <circle id="Ellipse_256" data-name="Ellipse 256" cx="0.363" cy="0.363" r="0.363" transform="translate(156.004 164.746)" fill="#aa312e"/>
      <path id="Path_3441" data-name="Path 3441" d="M188.883,207.152a.372.372,0,1,1-.372-.372.363.363,0,0,1,.372.372Z" transform="translate(-32.543 -35.699)" fill="#aa312e"/>
      <path id="Path_3442" data-name="Path 3442" d="M218.813,198.64s14.415,14.692,17.432,16.861S264.7,232.786,264.7,232.786l-1.91,7.251s-32.72-10.794-37.162-13.75c-6.145-4.105-21.494-19.376-21.494-19.376" transform="translate(-34.713 -34.594)" fill="#ffd9d7"/>
      <path id="Path_3443" data-name="Path 3443" d="M196.05,182.75a54.178,54.178,0,0,1,13.715,4.4c4.529,2.3,14.753,13.352,14.753,13.352l-12.9,14.009-13.828-11.935" transform="translate(-33.616 -32.436)"/>
      <line id="Line_189" data-name="Line 189" x1="8.271" y1="7.165" transform="translate(167.792 173.242)" fill="none" stroke="#fff" stroke-miterlimit="10" stroke-width="0.75"/>
      <path id="Path_3444" data-name="Path 3444" d="M269.457,236c1.91.57,5.5,1.417,7.407,1.988,1.124.337,3.068,1.046,3.042,1.573,0,1.374-3.1-.372-3.129.328,0,.415,2.437,1.063,3.69,1.4s2.593.864,2.593,1.6c0,.959-6.257-.769-6.257-.769s6.525,2.1,6.5,2.9c-.043,1.158-6.62-.942-6.62-.942s5.54,1.893,5.514,2.748-4.071-.631-5.8-.951c1.175.527,4.373,1.564,4.321,2.2s-2.472.138-3.077,0a32.651,32.651,0,0,1-10.051-4.3" transform="translate(-43.329 -39.666)" fill="#ffd9d7"/>
      <path id="Path_3445" data-name="Path 3445" d="M270.08,239.47s2.593,1.772,4.866.951" transform="translate(-43.667 -40.137)" fill="none" stroke="#ffa4a4" stroke-linejoin="round" stroke-width="0.75"/>
      <path id="Path_3446" data-name="Path 3446" d="M185.455,174.384l-.475,6.741s-1.236,2.662,3.846,2.809a5.531,5.531,0,0,0,5.289-3.008l-2.221-10.466" transform="translate(-32.096 -30.768)" fill="#ffd9d7"/>
      <path id="Path_3447" data-name="Path 3447" d="M178.38,157.255c-1.227,4.321-2.593,13.292,2.454,15.919a5.564,5.564,0,0,0,4.641-.346c3.777-1.728,6.136-4.788,6.724-7.5C192.943,161.9,183.652,149.8,178.38,157.255Z" transform="translate(-31.062 -28.651)" fill="#ffd9d7"/>
      <path id="Path_3448" data-name="Path 3448" d="M196.321,155.37a4.84,4.84,0,0,1,.57,3.016c-.156.994-.648,1.893-.864,2.861a2.817,2.817,0,0,0,.536,2.8,4.823,4.823,0,0,0,1.512.735c2.93,1.167,5.332,4.261,6.551,7.363,1.149,2.93,1.046,6.663.467,9.749a81.079,81.079,0,0,0-10.993-3.232,5.79,5.79,0,0,1-1.478-1.962l-1.893-8.876s-2.308-6.421-2.593-6.516c-3.319-1.072-5.315-3.457-5.678-4.546-1.53.864-4.321,2.411-5.436,3.785a5.134,5.134,0,0,1,3.906-7.778c2.1-.2,4-1.789,6.473-1.728a12.238,12.238,0,0,1,6.56,1.824A7.026,7.026,0,0,1,196.321,155.37Z" transform="translate(-30.932 -28.131)" fill="#4a4a4a"/>
      <path id="Path_3454" data-name="Path 3454" d="M190.072,173.16s-1.158,1.927-4.632,2.861" transform="translate(-32.176 -31.134)" fill="none" stroke="#ffa4a4" stroke-linejoin="round" stroke-width="0.75"/>
      <path id="Path_3455" data-name="Path 3455" d="M190.839,167.528a1.651,1.651,0,0,1,2.524-1.08,1.538,1.538,0,0,1,.536,1.089,3.7,3.7,0,0,1-.925,2.878,2.178,2.178,0,0,1-.916.614,1.3,1.3,0,0,1-1.728-1.314" transform="translate(-32.839 -30.187)" fill="#ffd9d7"/>
      <path id="Path_3456" data-name="Path 3456" d="M194.251,151.806c-1.063-.156-1.573-1.435-1.521-2.506.164-3.293,3.362-4.745,5.955-2.653a4.529,4.529,0,0,1,1.564,4.373,2.956,2.956,0,0,1-.683,1.435c-1.124,1.219-3.154.864-4.563,0" transform="translate(-33.165 -27.403)" fill="#4a4a4a"/>
      <path id="Path_3458" data-name="Path 3458" d="M186.088,171.9l-6.318,4.52,2.524,4.356,5.35-6.81Z" transform="translate(-24.406 -23.367)" fill="#fff"/>
      <path id="Path_3459" data-name="Path 3459" d="M176.728,172.12l2.394,4.33-1.893,3.924L175,173.537Z" transform="translate(-23.758 -23.397)" fill="#fff"/>
      <path id="Path_3460" data-name="Path 3460" d="M119.278,206.74l6.914,17.406,16.576,26.7-6.611,6.326S114.43,237.6,111.569,232.451c-3.906-7.026-10.319-25.711-10.319-25.711" transform="translate(-20.746 -35.693)" fill="#ffd9d7"/>
      <path id="Path_3461" data-name="Path 3461" d="M127.139,226.335l-5.324-8.573L120.7,215.67" transform="translate(-16.386 -29.309)" fill="none" stroke="#ffa4a4" stroke-linejoin="round" stroke-width="0.75"/>
      <path id="Path_3462" data-name="Path 3462" d="M146.778,256.56c1.486,1.348,4.39,3.638,5.885,4.978.864.8,2.5,2.4,2.083,2.843-.821.864-2.679-1.616-3.025-.907-.2.423,1.728,2.057,2.757,2.9s1.988,1.919,1.659,2.688c-.423.994-5.393-3.275-5.393-3.275s5.039,4.753,4.641,5.574c-.57,1.175-5.643-3.587-5.643-3.587s4.217,4.14,3.8,5.013-3.371-2.541-4.814-3.561c.864,1.011,3.258,4.036,2.7,4.416s-2.394-1.391-2.852-1.815a108.592,108.592,0,0,1-8.815-9.878" transform="translate(-25.974 -42.457)" fill="#ffd9d7"/>
      <path id="Path_3463" data-name="Path 3463" d="M151.188,263.991a8.34,8.34,0,0,1-4.6-2.221" transform="translate(-26.902 -43.164)" fill="none" stroke="#ffa4a4" stroke-linejoin="round" stroke-width="0.75"/>
      <path id="Path_3464" data-name="Path 3464" d="M98.13,173.66s12.4,1.426,17.648,12.177a113.344,113.344,0,0,1,7.726,21.528l-24.112,8.461" transform="translate(-20.323 -31.202)" fill="#13a0f0"/>
      <path id="Path_3465" data-name="Path 3465" d="M94.42,407.4v-1.391h19.635a2.5,2.5,0,0,0,2.143-1.219h.156v2.238a.38.38,0,0,1-.086.225l-.052.052a1.919,1.919,0,0,1-1.409.6H94.921a.493.493,0,0,1-.5-.51Z" transform="translate(-19.819 -62.581)" fill="#010101"/>
      <path id="Path_3466" data-name="Path 3466" d="M94.57,376.542l.536,17.838.588,7.251h18.944a1.046,1.046,0,0,0,1.046-1.046h0a1.072,1.072,0,0,0-.665-.985l-9.878-5.946L106.3,376.17" transform="translate(-19.839 -58.696)" fill="#ffd9d7"/>
      <path id="Path_3467" data-name="Path 3467" d="M105.119,396.4l10.492,5.92a1.322,1.322,0,0,1,.743,1.227h0a1.452,1.452,0,0,1-1.391,1.322H94.42l.64-7.977S100.236,399.148,105.119,396.4Z" transform="translate(-19.819 -61.442)" fill="#13a0f0"/>
      <path id="Path_3468" data-name="Path 3468" d="M108.837,397a12.913,12.913,0,0,0-1.547,2.593" transform="translate(-21.566 -61.523)" fill="none" stroke="#010101" stroke-linecap="round" stroke-linejoin="round" stroke-width="1"/>
      <path id="Path_3469" data-name="Path 3469" d="M110.45,397.91a11.588,11.588,0,0,0-1.27,2.178" transform="translate(-21.823 -61.647)" fill="none" stroke="#010101" stroke-linecap="round" stroke-linejoin="round" stroke-width="1"/>
      <path id="Path_3470" data-name="Path 3470" d="M111.818,398.6a15.893,15.893,0,0,0-1.158,2.005" transform="translate(-22.024 -61.741)" fill="none" stroke="#010101" stroke-linecap="round" stroke-linejoin="round" stroke-width="1"/>
      <path id="Path_3471" data-name="Path 3471" d="M25.766,394.119l.778-1.149,16.265,11a2.489,2.489,0,0,0,2.454.19l.147.069-1.253,1.849a.354.354,0,0,1-.2.138H43.88a1.893,1.893,0,0,1-1.5-.259L25.9,394.811a.493.493,0,0,1-.13-.691Z" transform="translate(-10.486 -60.976)" fill="#010101"/>
      <path id="Path_3472" data-name="Path 3472" d="M39.323,366.21l-7.553,17.1L28.2,389.657l15.686,10.6a1.054,1.054,0,0,0,1.461-.285h0a1.037,1.037,0,0,0,0-1.184l-4.84-10.466,8.737-15.841" transform="translate(-10.829 -57.343)" fill="#ffd9d7"/>
      <path id="Path_3473" data-name="Path 3473" d="M40.292,390.973l5.367,10.786a1.331,1.331,0,0,1-.069,1.435h0a1.443,1.443,0,0,1-1.893.311L26.68,392.018l5-6.248S34.735,390.515,40.292,390.973Z" transform="translate(-10.622 -59.999)" fill="#13a0f0"/>
      <path id="Path_3474" data-name="Path 3474" d="M43.574,393.52A12.508,12.508,0,0,0,40.86,394.8" transform="translate(-12.548 -61.051)" fill="none" stroke="#010101" stroke-linecap="round" stroke-linejoin="round" stroke-width="1"/>
      <path id="Path_3475" data-name="Path 3475" d="M44.413,395.2a11.608,11.608,0,0,0-2.273,1.089" transform="translate(-12.721 -61.279)" fill="none" stroke="#010101" stroke-linecap="round" stroke-linejoin="round" stroke-width="1"/>
      <path id="Path_3476" data-name="Path 3476" d="M45.163,396.52a15.954,15.954,0,0,0-2.083,1.011" transform="translate(-12.849 -61.458)" fill="none" stroke="#010101" stroke-linecap="round" stroke-linejoin="round" stroke-width="1"/>
      <path id="Path_3477" data-name="Path 3477" d="M113.374,249.416s2.316,56.85,2.014,65.068c-1.054,28.719-4.65,55.994-4.65,55.994H87.066L87.844,317l-3.837-38.424s-4.961-21.658-.147-31.605" transform="translate(-18.1 -41.155)"/>
      <line id="Line_190" data-name="Line 190" x2="24.086" transform="translate(68.767 323.472)" fill="none" stroke="#fff" stroke-linejoin="round" stroke-width="0.75"/>
      <path id="Path_3478" data-name="Path 3478" d="M91.746,377.891s1.668-32.089,1.21-56.288c-.225-12.013-2.316-16.792-2.316-20.033" transform="translate(-19.306 -48.568)" fill="none" stroke="#fff" stroke-linejoin="round" stroke-width="0.75"/>
      <path id="Path_3479" data-name="Path 3479" d="M87.1,246s1.884,14.424,0,27.6c-.864,6.05-4.65,26.878-10.241,47.68-6.6,24.553-22.557,49.054-22.557,49.054L33.85,358.913l14.917-42.045,4.4-41.034s-1.9-14.346,6.6-26.549" transform="translate(-11.596 -41.023)"/>
      <line id="Line_191" data-name="Line 191" x1="21.329" y1="12.41" transform="translate(24.285 312.177)" fill="none" stroke="#fff" stroke-linejoin="round" stroke-width="0.75"/>
      <path id="Path_3480" data-name="Path 3480" d="M38,362.313s14.286-39.055,16.222-45.329c.51-1.651,3.759-27.422,5.056-37.819a28,28,0,0,0,.069-6.732,25.434,25.434,0,0,1,3.88-16.343" transform="translate(-12.159 -42.393)" fill="none" stroke="#fff" stroke-linejoin="round" stroke-width="0.75"/>
      <path id="Path_3481" data-name="Path 3481" d="M75.305,262.66s-3.82,4.053-4.883,4.321c-2.688.631-7.562,0-7.562,0" transform="translate(-15.534 -43.285)" fill="none" stroke="#fff" stroke-linejoin="round" stroke-width="0.75"/>
      <path id="Path_3482" data-name="Path 3482" d="M94.85,274.441s2.791-1.089,3.535-3.172C99.9,267.086,99.9,257.83,99.9,257.83" transform="translate(-19.877 -42.629)" fill="none" stroke="#fff" stroke-linejoin="round" stroke-width="0.75"/>
      <path id="Path_3483" data-name="Path 3483" d="M87.69,308.906s8.046-40.023,8.046-51.076" transform="translate(-18.905 -42.629)" fill="none" stroke="#fff" stroke-linejoin="round" stroke-width="0.75"/>
      <path id="Path_3484" data-name="Path 3484" d="M117.089,266.308s-5.566-1.633-7.139-2.368c-2-.933-2.161-6.11-2.161-6.11" transform="translate(-21.634 -42.629)" fill="none" stroke="#fff" stroke-linejoin="round" stroke-width="0.75"/>
      <path id="Path_3485" data-name="Path 3485" d="M93.286,173.927a41.2,41.2,0,0,1,16.965,30.4c1.435,19.8,1.832,43.307,1.832,43.307-23.334,7.493-54.663-.251-54.663-.251S60.2,195.144,69.692,179.76l16.956-7.891Z" transform="translate(-14.796 -30.959)" fill="#13a0f0"/>
      <path id="Path_3486" data-name="Path 3486" d="M52.535,194.93s-9.645,20.578-9.316,28.1c.493,11.468,12.817,38.268,12.817,38.268s8.642-1.945,8.573-3.163-5.185-34.31-5.185-34.31l11.728-25.78" transform="translate(-12.867 -34.09)" fill="#ffd9d7"/>
      <path id="Path_3487" data-name="Path 3487" d="M66.1,266.78c.726,1.875,2.282,5.229,3.008,7.1.423,1.106,1.141,3.275.57,3.457-1.115.389-1.659-2.653-2.282-2.178-.38.285.622,2.593,1.132,3.837.458,1.072.916,2.593.268,3.154-.864.691-3.327-5.367-3.327-5.367s2.342,6.516,1.616,7.069c-1.037.8-3.457-5.756-3.457-5.756s1.893,5.609,1.124,6.2-1.849-3.794-2.679-5.358c.3,1.288,1.089,5.073.406,5.185s-1.5-2.316-1.728-2.9a109.239,109.239,0,0,1-3.405-12.791" transform="translate(-14.786 -43.845)" fill="#ffd9d7"/>
      <path id="Path_3488" data-name="Path 3488" d="M82.393,172.29S67.173,172.653,60,179.2c-9.144,8.34-13.94,24.268-13.94,24.268l18.9,7.96,10.8-18.728" transform="translate(-13.254 -31.016)" fill="#13a0f0"/>
      <line id="Line_192" data-name="Line 192" y1="15.669" x2="9.04" transform="translate(51.707 164.738)" fill="none" stroke="#fff" stroke-linejoin="round" stroke-width="0.75"/>
      <path id="Path_3489" data-name="Path 3489" d="M98.22,174.032s0,4.174-6.369,4.174c-7.424,0-9.351-5.056-9.351-5.056" transform="translate(-18.201 -31.133)" fill="none" stroke="#fff" stroke-linejoin="round" stroke-width="0.75"/>
      <path id="Path_3490" data-name="Path 3490" d="M96.5,161.983l-8.046-9.463-3.232,9.334L85,163.9l.285,7.208s6.473,4.632,11.365.864a1.072,1.072,0,0,0,.4-.916l-.544-9.04" transform="translate(-18.54 -28.332)" fill="#ffd9d7"/>
      <path id="Path_3491" data-name="Path 3491" d="M94.475,144.572c2.653,2.947,7.623,13.292,5.4,17.38-2.005,3.7-6.2,3.587-8.876,2.342-2.316-1.08-8.582-10.042-7.26-13.681S90.759,140.441,94.475,144.572Z" transform="translate(-18.345 -27.074)" fill="#ffd9d7"/>
      <path id="Path_3492" data-name="Path 3492" d="M80.749,142.5c.242-.648.449-1.314.709-1.962a4.7,4.7,0,0,1,2.333-2.714,2.182,2.182,0,0,1,2.947,1.322,7.674,7.674,0,0,1,8.712-3.267c3.008.977,3.336,4.572,2.117,7.2-1.089,2.368-3.854,3.405-6,4.961-3.517,2.593-3.008,5.393-4.658,8.971-.121.268-2.74,5.505-3.051,5.237-3.621-3.172-10.371-9.014-6.706-14.753.864-1.288,2.091-2.238,2.887-3.543a8.641,8.641,0,0,0,.709-1.452Z" transform="translate(-17.331 -26.029)" fill="#010101"/>
      <path id="Path_3493" data-name="Path 3493" d="M97.18,168.121s-3.846.458-6.05-1.521" transform="translate(-19.372 -30.244)" fill="none" stroke="#ffa4a4" stroke-linejoin="round" stroke-width="0.75"/>
      <path id="Path_3494" data-name="Path 3494" d="M99.59,153.36s4.563,2.42,4.442,3.543-1.858,1.383-1.858,1.383" transform="translate(-20.521 -28.446)" fill="#ffd9d7"/>
      <path id="Path_3498" data-name="Path 3498" d="M89.2,158.59a2.551,2.551,0,0,0-2.091-.631,1.3,1.3,0,0,0-.7.8,3.664,3.664,0,0,0,2.316,4.606c.786.216,1.651.061,1.8-.864l-1.037-3.543C89.488,158.8,89.35,158.686,89.2,158.59Z" transform="translate(-18.707 -29.062)" fill="#ffd9d7"/>
      <path id="Path_3499" data-name="Path 3499" d="M88.08,163.732s1.582.864,2.593-.112" transform="translate(-18.958 -29.839)" fill="none" stroke="#ffa4a4" stroke-linejoin="round" stroke-width="0.75"/>
      <path id="Path_3500" data-name="Path 3500" d="M118.052,212.535s-.449-14.908-3.172-20.785" transform="translate(-22.597 -33.658)" fill="none" stroke="#fff" stroke-linejoin="round" stroke-width="0.75"/>
      <path id="Path_3501" data-name="Path 3501" d="M312.5,368.287l-1.616,16.758-.544,7.588-9.273-8.279-.035-17.993" transform="translate(-40.868 -49.767)" fill="#ffd9d7"/>
      <path id="Path_3502" data-name="Path 3502" d="M307.061,395.995s-12.1,4.814-12.886,6.153a4.27,4.27,0,0,0-.588,2.593h23.507c.864-2.005-.216-8.781-.216-8.781S310.829,396.677,307.061,395.995Z" transform="translate(-46.856 -61.382)" fill="#13a0f0"/>
      <rect id="Rectangle_1295" data-name="Rectangle 1295" width="23.68" height="2.783" transform="translate(246.723 342.529)" fill="#191956"/>
      <path id="Path_3503" data-name="Path 3503" d="M302.2,399.23a7.217,7.217,0,0,1,2.3,2.731" transform="translate(-48.028 -61.826)" fill="none" stroke="#fff" stroke-linecap="round" stroke-linejoin="round" stroke-width="1"/>
      <path id="Path_3504" data-name="Path 3504" d="M303.92,398.39a7.313,7.313,0,0,1,2.29,2.731" transform="translate(-48.261 -61.712)" fill="none" stroke="#fff" stroke-linecap="round" stroke-linejoin="round" stroke-width="1"/>
      <path id="Path_3505" data-name="Path 3505" d="M305.63,397.64a7.277,7.277,0,0,1,2.3,2.74" transform="translate(-48.493 -61.61)" fill="none" stroke="#fff" stroke-linecap="round" stroke-linejoin="round" stroke-width="1"/>
      <path id="Path_3506" data-name="Path 3506" d="M362.078,368.287l.2,16.758-.553,7.588-8.4-8.279L350.61,366.36" transform="translate(-47.6 -49.767)" fill="#ffd9d7"/>
      <path id="Path_3507" data-name="Path 3507" d="M361.246,395.995s-2.428,4.814-3.232,6.153a4.243,4.243,0,0,0-.6,2.593h14.735c.864-2.005-1.953-8.781-1.953-8.781A34.1,34.1,0,0,1,361.246,395.995Z" transform="translate(-55.522 -61.382)" fill="#13a0f0"/>
      <rect id="Rectangle_1296" data-name="Rectangle 1296" width="14.899" height="2.783" transform="translate(301.896 342.529)" fill="#191956"/>
      <path id="Path_3508" data-name="Path 3508" d="M364.41,399.936a5.782,5.782,0,0,1,4.269,0" transform="translate(-56.473 -61.867)" fill="none" stroke="#fff" stroke-linecap="round" stroke-linejoin="round" stroke-width="1"/>
      <path id="Path_3509" data-name="Path 3509" d="M364.41,401.526a5.782,5.782,0,0,1,4.269,0" transform="translate(-56.473 -62.082)" fill="#13a0f0" stroke="#fff" stroke-linecap="round" stroke-linejoin="round" stroke-width="1"/>
      <path id="Path_3510" data-name="Path 3510" d="M364.58,398.408a5.272,5.272,0,0,1,3.976,0" transform="translate(-56.496 -61.661)" fill="none" stroke="#fff" stroke-linecap="round" stroke-linejoin="round" stroke-width="1"/>
      <path id="Path_3511" data-name="Path 3511" d="M312.443,242.587c-.864,1.2-6.862,44.534-7.778,67.091-1.132,27.249-2.135,60.332-2.135,60.332h21.943l6.75-59.174,7.726-35.866s2.308-21.01-3.345-39.34" transform="translate(-48.072 -39.616)"/>
      <path id="Path_3512" data-name="Path 3512" d="M365.6,242.583c1.893,2.593,8.2,127.423,8.2,127.423H351.854L339.107,274.94s-2.308-21.01,3.345-39.34" transform="translate(-52.975 -39.611)"/>
      <path id="Path_3513" data-name="Path 3513" d="M340.886,291.354s-2.256-24.76-2.256-35.3" transform="translate(-52.973 -42.388)" fill="none" stroke="#fff" stroke-linejoin="round" stroke-width="0.75"/>
      <path id="Path_3514" data-name="Path 3514" d="M333.69,256.56s.579,10.9,1.34,14.338c.337,1.512,3.656,1.2,3.656,1.2" transform="translate(-52.303 -42.457)" fill="none" stroke="#fff" stroke-linejoin="round" stroke-width="0.75"/>
      <path id="Path_3515" data-name="Path 3515" d="M375.025,372.121S368.509,262.156,365,251.18" transform="translate(-56.553 -41.727)" fill="none" stroke="#fff" stroke-linejoin="round" stroke-width="0.75"/>
      <path id="Path_3516" data-name="Path 3516" d="M354.34,254.74s2.1,5.574,3.708,7.182,7,1.115,7,1.115" transform="translate(-55.106 -42.21)" fill="none" stroke="#fff" stroke-linejoin="round" stroke-width="0.75"/>
      <path id="Path_3517" data-name="Path 3517" d="M325,377.5s5.056-55.1,5.713-59.062c.432-2.593,7.821-27.656,7.821-27.656" transform="translate(-51.123 -47.103)" fill="none" stroke="#fff" stroke-linejoin="round" stroke-width="0.75"/>
      <path id="Path_3518" data-name="Path 3518" d="M310.85,261.9s4.192,1.2,5.384.2c1.633-1.365,4.537-6.05,4.537-6.05" transform="translate(-49.202 -42.388)" fill="none" stroke="#fff" stroke-linejoin="round" stroke-width="0.75"/>
      <path id="Path_3519" data-name="Path 3519" d="M298.488,189.493l-6.326,7.778L277.772,182s-5.963,1.893-6.162,4.624c6.223,10.034,14.39,28.261,22.911,27.189,7.3-.907,19.99-18.944,19.99-18.944" transform="translate(-43.875 -32.335)" fill="#ffd9d7"/>
      <path id="Path_3520" data-name="Path 3520" d="M295.39,199.67a35.046,35.046,0,0,1,5.272,6.974" transform="translate(-47.103 -34.734)" fill="none" stroke="#ffa4a4" stroke-linejoin="round" stroke-width="0.75"/>
      <path id="Path_3521" data-name="Path 3521" d="M330.164,169.039a21.433,21.433,0,0,0-17.363,1.728c-5.419,3.224-9.792,11.659-14.951,20.621,2.1,3.517,13.664,11.4,16.991,11.555,3.941-5.03,8.193-18.279,8.193-18.279" transform="translate(-47.437 -30.427)" fill="#13a0f0"/>
      <path id="Path_3522" data-name="Path 3522" d="M271.983,186.519a10.5,10.5,0,0,1-4.822-6.006,4.857,4.857,0,0,1-.311-1.486,3.128,3.128,0,0,1,3.742-3.146,5.531,5.531,0,0,1,2.964,2.135,3.83,3.83,0,0,1,1.158,3.12" transform="translate(-43.228 -31.496)" fill="#ffd9d7"/>
      <path id="Path_3523" data-name="Path 3523" d="M273.808,168.32a48.191,48.191,0,0,1-6.006,5.868c-1.089.864-2.593,1.5-3.543,2.524-.778.8-.5,1.028.32,1.659a15.185,15.185,0,0,0,3.6,2.022,1.443,1.443,0,0,0,.726.147,1.383,1.383,0,0,0,.605-.3,13.948,13.948,0,0,0,2.29-2.282c1.728-2.1,5.185-5.851,6.629-8.176" transform="translate(-42.814 -30.477)" fill="#13a0f0"/>
      <path id="Path_3524" data-name="Path 3524" d="M283.829,171.7a3.457,3.457,0,1,1-.32-5A3.552,3.552,0,0,1,283.829,171.7Z" transform="translate(-44.72 -30.148)"/>
      <path id="Path_3525" data-name="Path 3525" d="M276.807,172.017l-3.967-3.068,6.309-8.029,4.166,3.638a1.1,1.1,0,0,1,.1,1.417,15.105,15.105,0,0,1-5.185,5.946C277.749,172.224,277.222,172.38,276.807,172.017Z" transform="translate(-44.042 -29.473)" fill="#0071b1"/>
      <path id="Path_3526" data-name="Path 3526" d="M277.45,166.156c-1.78,2.2-3.915,3.414-4.753,2.722s-.078-3.016,1.728-5.185,3.915-3.405,4.762-2.722S279.239,163.978,277.45,166.156Z" transform="translate(-43.976 -29.454)" fill="#4376cf"/>
      <path id="Path_3527" data-name="Path 3527" d="M257.88,162.916s8.642,1.728,12.894,3.457c1.556.363,3.293-1.486,4.174-2.593,2.273-2.843,1.962-4.053,1.962-4.053-3.457-4.088-6.179-12.5-6.179-12.5" transform="translate(-42.011 -27.614)"/>
      <path id="Path_3528" data-name="Path 3528" d="M266.571,156.891c-4.166,5.1-9.783,7.389-12.549,5.125s-1.633-8.228,2.524-13.318,9.783-7.389,12.557-5.125S270.737,151.8,266.571,156.891Z" transform="translate(-41.281 -26.999)" fill="#7dd0ff"/>
      <path id="Path_3529" data-name="Path 3529" d="M265.561,156.162c-3.526,4.321-8.158,6.344-10.371,4.555s-1.115-6.741,2.4-11.054,8.158-6.343,10.371-4.555S269.078,151.84,265.561,156.162Z" transform="translate(-41.49 -27.238)" fill="#13a0f0"/>
      <path id="Path_3530" data-name="Path 3530" d="M260.08,155.038a25.676,25.676,0,0,1,4.157,4.278,18.755,18.755,0,0,0,2.143-2.221,19.4,19.4,0,0,0,1.728-2.541,25.642,25.642,0,0,1-5.021-3.224Z" transform="translate(-42.309 -28.171)" fill="#0071b1"/>
      <path id="Path_3531" data-name="Path 3531" d="M262.552,153.979c-.864,1.037-1.988,1.5-2.55,1.046s-.32-1.659.527-2.7,1.979-1.5,2.541-1.046S263.416,152.95,262.552,153.979Z" transform="translate(-42.258 -28.14)" fill="#fff"/>
      <path id="Path_3532" data-name="Path 3532" d="M277.831,182.023a12.1,12.1,0,0,0-2.679-6.637c-1.366-1.607-2.731-3.008-4.831-2.809-.285,0-.64.173-.631.458a.6.6,0,0,0,.294.415,5.566,5.566,0,0,1,2.256,2.973,13.448,13.448,0,0,1,.147,1.962,6.3,6.3,0,0,0,2.342,4.321" transform="translate(-43.614 -31.053)" fill="#ffd9d7"/>
      <path id="Path_3533" data-name="Path 3533" d="M265.76,176.513a2.714,2.714,0,0,1,0-1.149,1.426,1.426,0,0,1,.4-.484.7.7,0,0,1,.544-.112,1.729,1.729,0,0,1,.519.225,2.93,2.93,0,0,1,1.461,1.927.311.311,0,0,1,0,.156.233.233,0,0,1-.086.1,1.261,1.261,0,0,1-.735.233c-.605,0-1.608-1-1.685-1.158" transform="translate(-43.072 -31.351)" fill="#ffd9d7"/>
      <path id="Path_3534" data-name="Path 3534" d="M266.83,175.386a3.56,3.56,0,0,1,.173-1.245.968.968,0,0,1,.268-.441.683.683,0,0,1,.536-.1,1.659,1.659,0,0,1,.527.216,2.956,2.956,0,0,1,1.452,1.936.285.285,0,0,1,0,.147.251.251,0,0,1-.086.1.864.864,0,0,1-.743.086,2.29,2.29,0,0,1-.674-.354l-.709-.467a.976.976,0,0,1-.372-.354" transform="translate(-43.225 -31.192)" fill="#ffd9d7"/>
      <path id="Path_3535" data-name="Path 3535" d="M268,174.206a3.223,3.223,0,0,1,.173-1.245.864.864,0,0,1,.259-.432.665.665,0,0,1,.544-.112,1.529,1.529,0,0,1,.519.225,2.93,2.93,0,0,1,1.461,1.927.319.319,0,0,1,0,.156.3.3,0,0,1-.086.1.864.864,0,0,1-.735.1,2.594,2.594,0,0,1-.683-.354l-.7-.467a.864.864,0,0,1-.372-.363" transform="translate(-43.384 -31.031)" fill="#ffd9d7"/>
      <path id="Path_3536" data-name="Path 3536" d="M269.06,173.035a3.56,3.56,0,0,1,.173-1.245.925.925,0,0,1,.268-.441.657.657,0,0,1,.536-.112,1.676,1.676,0,0,1,.527.225,2.912,2.912,0,0,1,1.452,1.927.319.319,0,0,1,0,.156.234.234,0,0,1-.086.1.864.864,0,0,1-.743.1,2.515,2.515,0,0,1-.674-.354l-.709-.467a.976.976,0,0,1-.372-.354" transform="translate(-43.528 -30.871)" fill="#ffd9d7"/>
      <path id="Path_3537" data-name="Path 3537" d="M272.92,178.08s0,4.148,1.279,5.419" transform="translate(-44.053 -31.802)" fill="none" stroke="#ffa4a4" stroke-linejoin="round" stroke-width="0.75"/>
      <path id="Path_3538" data-name="Path 3538" d="M311.352,181.942l-2.662,61.905s32.063,8.4,56.815-1.132c-.475-13.594-2.662-50.515-12.747-63.271-10.941-13.828-19.834-13.275-19.834-13.275l-10.492,6.456Z" transform="translate(-48.909 -30.185)" fill="#13a0f0"/>
      <path id="Path_3539" data-name="Path 3539" d="M310.94,201.083s.717-9.87.717-16.663" transform="translate(-49.214 -32.663)" fill="#fff" stroke="#fff" stroke-miterlimit="10" stroke-width="0.75"/>
      <path id="Path_3540" data-name="Path 3540" d="M407.2,190.9l-3.059-6.663s8.642-9.74,9.109-9.446c.959.6-2.662,4.762-2.662,4.762s4.529-4.217,4.771-3.742c.449.864-3.379,5.453-3.379,5.453s4.166-4.278,4.425-3.578-5.064,7.415-5.064,7.415Z" transform="translate(-61.867 -31.355)" fill="#ffd9d7"/>
      <path id="Path_3541" data-name="Path 3541" d="M402.84,184.6l1.538-1.426a27.836,27.836,0,0,1,2.921-4.788c1.556-1.91,2.135-2.463,2.532-2.316s-.864,3.1-.864,3.1-.363,3.172-2.057,4.7" transform="translate(-61.691 -31.526)" fill="#ffd9d7"/>
      <path id="Path_3542" data-name="Path 3542" d="M375.214,189.865l6.318,7.778,16.507-12.9s4.969,3.777,5.185,6.508c-6.223,10.034-15.513,23.983-24.043,22.911-7.294-.907-19.981-18.944-19.981-18.944" transform="translate(-55.766 -32.707)" fill="#ffd9d7"/>
      <path id="Path_3543" data-name="Path 3543" d="M384.173,199.67a34.829,34.829,0,0,0-5.263,6.974" transform="translate(-58.442 -34.734)" fill="none" stroke="#ffa4a4" stroke-linejoin="round" stroke-width="0.75"/>
      <path id="Path_3544" data-name="Path 3544" d="M408.52,192.2s5.574-6.162,6.439-7.4,3.224-4.226,2.593-4.451-3.215,2.359-3.777,2.982c-1.443.207-4.39,1.728-5.125,3.855" transform="translate(-62.462 -32.108)" fill="#ffd9d7"/>
      <path id="Path_3545" data-name="Path 3545" d="M341,167.654s12.367-2.083,20.966,3.025c5.419,3.224,9.783,11.659,14.951,20.621-2.1,3.517-13.664,11.4-17,11.555-3.932-5.03-8.184-18.279-8.184-18.279" transform="translate(-53.295 -30.33)" fill="#13a0f0"/>
      <line id="Line_193" data-name="Line 193" x1="7.424" y1="16.006" transform="translate(299.225 156.519)" fill="none" stroke="#fff" stroke-miterlimit="10" stroke-width="0.75"/>
      <path id="Path_3546" data-name="Path 3546" d="M409.679,180.85a5.185,5.185,0,0,1-.259,4.321" transform="translate(-62.584 -32.178)" fill="none" stroke="#ffa4a4" stroke-linejoin="round" stroke-width="0.75"/>
      <path id="Path_3547" data-name="Path 3547" d="M333.04,135.9c-6.715.441-8.193,7.865-7.666,13.569.328,3.552,2.117,7.1,4.918,8.314a16.265,16.265,0,0,0,7.778.864c.864-.069,1.815-1.184,2.593-1.521,3.1-1.331,5.237-5.41,5.609-7.994.432-2.947.536-6.914-.994-9.558-1.227-2.135-5.479-1.547-7.778-2.377" transform="translate(-51.161 -26.076)"/>
      <path id="Path_3548" data-name="Path 3548" d="M327.375,150.163a1.435,1.435,0,0,0-1.9,0,2.593,2.593,0,0,0-.536,2.3c.225,1.175,1.3,2.437,2.593,2.048a1.633,1.633,0,0,0,1.054-1.02" transform="translate(-51.104 -27.963)" fill="#f9c8c7"/>
      <path id="Path_3549" data-name="Path 3549" d="M344.606,150.576l.156-.147a1.193,1.193,0,0,1,1.582.242,2.187,2.187,0,0,1,.389,1.685,2.852,2.852,0,0,1-.821,1.728,1.91,1.91,0,0,1-1.8.493,1.625,1.625,0,0,1-1.063-1.02" transform="translate(-53.574 -28.022)" fill="#f9c8c7"/>
      <path id="Path_3550" data-name="Path 3550" d="M330.22,157.818l6.724-9.118,3.543,8.279.588,8.642c-2.308,4.961-9.567,3.837-10.751.925l-.086-8.755" transform="translate(-51.832 -27.814)" fill="#ffd9d7"/>
      <path id="Path_3551" data-name="Path 3551" d="M327.771,143.137c-1.305,3.362-.821,15.358,1.824,16.913s8.461,1.175,10.371-.743c1.625-1.668,4.183-11.745,1.893-14.415S329.6,138.392,327.771,143.137Z" transform="translate(-51.405 -26.753)" fill="#ffd9d7"/>
      <path id="Path_3552" data-name="Path 3552" d="M344.5,137.556c-1.27-1.772-2.99-2.99-5.306-2.593a5.923,5.923,0,0,0-4.183-2.1,10.993,10.993,0,0,0-7.692,1.21c-3.379,2.005-4.14,5.471-4.321,9.135a21.355,21.355,0,0,0,13.525-1.728c.1,1.469,5.955,6.914,7.493,8.556C347.276,146.285,346.533,140.391,344.5,137.556Z" transform="translate(-50.851 -25.632)"/>
      <path id="Path_3553" data-name="Path 3553" d="M332,163.825s5.4.778,7.847-1.115" transform="translate(-52.073 -29.716)" fill="none" stroke="#ffa4a4" stroke-linejoin="round" stroke-width="0.75"/>
    </g>
  </g>
</svg>
