<svg xmlns="http://www.w3.org/2000/svg" width="32.324" height="29.67" viewBox="0 0 32.324 29.67">
  <g id="noun_referral_2992150" transform="translate(-24.78 -57.99)">
    <g id="Group_245" data-name="Group 245" transform="translate(25.03 58.24)">
      <path id="Path_3001" data-name="Path 3001" d="M52.356,79.083a.6.6,0,0,1-.851.851l-1.516-1.516-.036,4.27a.6.6,0,0,1-.6.6H40.459a.6.6,0,0,1,0-1.2h8.3l.032-3.643L47.3,79.934a.6.6,0,0,1-.851-.851l2.529-2.529a.6.6,0,0,1,.851,0l2.529,2.529ZM49.325,58.24A4.225,4.225,0,1,1,45.1,62.465,4.228,4.228,0,0,1,49.325,58.24Zm2.6,10.6-2.087,3.433a.6.6,0,0,1-1.026,0l-2.086-3.432a6.355,6.355,0,0,0-3.718,5.439H55.642A6.35,6.35,0,0,0,51.924,68.836Zm-4.038-.4,1.438,2.366,1.438-2.366A6.291,6.291,0,0,0,47.887,68.44Zm2.9-1.227A7.561,7.561,0,0,1,56.854,74.6v.278a.6.6,0,0,1-.6.6H42.4a.6.6,0,0,1-.6-.6V74.6a7.529,7.529,0,0,1,8.99-7.386Zm-1.461-7.769a3.021,3.021,0,1,0,3.021,3.021A3.018,3.018,0,0,0,49.325,59.444ZM32.559,70.171A4.225,4.225,0,1,1,28.334,74.4,4.228,4.228,0,0,1,32.559,70.171Zm2.6,10.6L33.072,84.2a.6.6,0,0,1-1.026,0L29.96,80.767a6.355,6.355,0,0,0-3.718,5.44H38.877a6.35,6.35,0,0,0-3.718-5.44Zm-4.038-.4,1.438,2.366L34,80.371A6.3,6.3,0,0,0,31.121,80.371Zm2.9-1.226a7.561,7.561,0,0,1,6.069,7.386v.278a.6.6,0,0,1-.6.6H25.632a.6.6,0,0,1-.6-.6V86.53a7.529,7.529,0,0,1,8.99-7.386Zm-1.461-7.769A3.021,3.021,0,1,0,35.581,74.4,3.018,3.018,0,0,0,32.559,71.375Z" transform="translate(-25.03 -58.24)" stroke="#000" stroke-width="0.5"/>
    </g>
  </g>
</svg>
