<svg xmlns="http://www.w3.org/2000/svg" width="26" height="26" viewBox="0 0 26 26">
  <g id="noun_Remove_1116990" transform="translate(-33 -33)">
    <g id="Group_256" data-name="Group 256" transform="translate(33 33)">
      <g id="Group_255" data-name="Group 255">
        <path id="Path_3556" data-name="Path 3556" d="M46,59A13,13,0,1,1,59,46,13,13,0,0,1,46,59Zm2.7-13,3.236-3.236a1.912,1.912,0,0,0-2.7-2.7L46,43.3,42.764,40.06a1.912,1.912,0,0,0-2.7,2.7L43.3,46,40.06,49.236a1.912,1.912,0,0,0,2.7,2.7L46,48.7l3.236,3.236a1.912,1.912,0,0,0,2.7-2.7Z" transform="translate(-33 -33)" fill="#eb5555" fill-rule="evenodd"/>
      </g>
    </g>
  </g>
</svg>
