<svg xmlns="http://www.w3.org/2000/svg" width="32" height="32" viewBox="0 0 32 32">
  <g id="Group_138" data-name="Group 138" transform="translate(-1268 -918)">
    <circle id="Ellipse_75" data-name="Ellipse 75" cx="16" cy="16" r="16" transform="translate(1268 918)" fill="#efefef"/>
    <g id="noun_reply_arrow_1538213" data-name="noun_reply arrow_1538213" transform="translate(1274 924.001)">
      <path id="Path_907" data-name="Path 907" d="M9.867,6.317H7.4v-3.7A.617.617,0,0,0,6.327,2.2L.16,8.986a.618.618,0,0,0,0,.83L6.327,16.6A.617.617,0,0,0,7.4,16.183v-3.7H8.695A14.028,14.028,0,0,1,18.68,16.62a.617.617,0,0,0,1.053-.437A9.878,9.878,0,0,0,9.867,6.317Z" transform="translate(0 0)" fill="#b5b5b5"/>
    </g>
  </g>
</svg>
