<svg xmlns="http://www.w3.org/2000/svg" width="741.355" height="362.913" viewBox="0 0 741.355 362.913">
  <g id="report-issue-graphics" transform="translate(113.503)">
    <g id="OBJECTS">
      <rect id="Rectangle_924" data-name="Rectangle 924" width="50.56" height="36.54" transform="translate(285.13 296.62)" fill="#13a0f0"/>
      <path id="Path_2646" data-name="Path 2646" d="M335.69,312.41l-50.56-5.01V296.62h50.56Z" fill="#41baff"/>
      <path id="Path_2647" data-name="Path 2647" d="M373.59,341.52H271a5.87,5.87,0,0,0-5.87,5.87v5.87H379.46v-5.87A5.87,5.87,0,0,0,373.59,341.52Z" transform="translate(-11.87 -9.57)" fill="#13a0f0"/>
      <path id="Path_2648" data-name="Path 2648" d="M480.48,92.34H164.09a6.16,6.16,0,0,0-6.17,6.16V307.44a6.17,6.17,0,0,0,6.17,6.17H480.48a6.17,6.17,0,0,0,6.17-6.17V98.5A6.17,6.17,0,0,0,480.48,92.34Z" transform="translate(-11.87 -9.57)" fill="#13a0f0"/>
      <rect id="Rectangle_925" data-name="Rectangle 925" width="318.45" height="190.06" rx="2.46" transform="translate(151.19 88.93)" fill="#e1edf9"/>
      <path id="Path_2649" data-name="Path 2649" d="M328.39,300.28a6.11,6.11,0,1,1-6.11-6.1A6.11,6.11,0,0,1,328.39,300.28Z" transform="translate(-11.87 -9.57)" fill="#fff"/>
      <g id="Group_216" data-name="Group 216" opacity="0.3">
        <rect id="Rectangle_926" data-name="Rectangle 926" width="40.38" height="133.49" rx="2.96" transform="translate(160.61 136.93)" fill="#6c9fbc"/>
      </g>
      <rect id="Rectangle_927" data-name="Rectangle 927" width="40.38" height="133.49" rx="2.96" transform="translate(158.75 135.06)" fill="#fff"/>
      <rect id="Rectangle_928" data-name="Rectangle 928" width="34.89" height="128.72" rx="1.04" transform="translate(161.58 137.31)" fill="#13a0f0"/>
      <g id="Group_217" data-name="Group 217" opacity="0.3">
        <rect id="Rectangle_929" data-name="Rectangle 929" width="40.38" height="86.23" rx="2.96" transform="translate(222.68 184.18)" fill="#6c9fbc"/>
      </g>
      <rect id="Rectangle_930" data-name="Rectangle 930" width="40.38" height="86.23" rx="2.96" transform="translate(220.82 182.32)" fill="#fff"/>
      <rect id="Rectangle_931" data-name="Rectangle 931" width="34.89" height="81.46" rx="1.04" transform="translate(223.64 184.57)" fill="#13a0f0"/>
      <g id="Group_218" data-name="Group 218" opacity="0.3">
        <rect id="Rectangle_932" data-name="Rectangle 932" width="40.38" height="109.17" rx="2.96" transform="translate(284.75 161.25)" fill="#6c9fbc"/>
      </g>
      <rect id="Rectangle_933" data-name="Rectangle 933" width="40.38" height="109.17" rx="2.96" transform="translate(282.88 159.38)" fill="#fff"/>
      <rect id="Rectangle_934" data-name="Rectangle 934" width="34.89" height="104.39" rx="1.04" transform="translate(285.71 161.63)" fill="#13a0f0"/>
      <g id="Group_219" data-name="Group 219" opacity="0.3">
        <rect id="Rectangle_935" data-name="Rectangle 935" width="40.38" height="85.92" rx="2.96" transform="translate(346.81 184.5)" fill="#6c9fbc"/>
      </g>
      <rect id="Rectangle_936" data-name="Rectangle 936" width="40.38" height="85.92" rx="2.96" transform="translate(344.95 182.64)" fill="#fff"/>
      <rect id="Rectangle_937" data-name="Rectangle 937" width="34.89" height="81.14" rx="1.04" transform="translate(347.77 184.88)" fill="#13a0f0"/>
      <g id="Group_220" data-name="Group 220" opacity="0.3">
        <rect id="Rectangle_938" data-name="Rectangle 938" width="40.38" height="56.37" rx="1.84" transform="translate(408.17 213.34)" fill="#6c9fbc"/>
      </g>
      <rect id="Rectangle_939" data-name="Rectangle 939" width="40.38" height="56.37" rx="1.84" transform="translate(407.01 212.18)" fill="#fff"/>
      <rect id="Rectangle_940" data-name="Rectangle 940" width="34.89" height="51.17" rx="0.62" transform="translate(409.84 214.85)" fill="#13a0f0"/>
      <path id="Path_2650" data-name="Path 2650" d="M178.94,108.67l62.15,57.73,63.49-25.33,61.77,23.07,60.85,32.77" fill="none" stroke="#eb5d62" stroke-miterlimit="10" stroke-width="5.29"/>
      <path id="Path_2651" data-name="Path 2651" d="M190.9,125.2a7,7,0,1,1,7-7,7,7,0,0,1-7,7Z" transform="translate(-11.87 -9.57)" fill="#fff"/>
      <path id="Path_2652" data-name="Path 2652" d="M190.9,113.92a4.32,4.32,0,1,1-4.32,4.32,4.32,4.32,0,0,1,4.32-4.32m0-5.28a9.6,9.6,0,1,0,9.6,9.6,9.6,9.6,0,0,0-9.6-9.6Z" transform="translate(-11.87 -9.57)" fill="#eb5d62"/>
      <path id="Path_2653" data-name="Path 2653" d="M253,182.7a7,7,0,1,1,7-7,7,7,0,0,1-7,7Z" transform="translate(-11.87 -9.57)" fill="#fff"/>
      <path id="Path_2654" data-name="Path 2654" d="M253,171.43a4.32,4.32,0,1,1-4.32,4.31,4.32,4.32,0,0,1,4.32-4.31m0-5.29a9.61,9.61,0,1,0,9.6,9.6A9.61,9.61,0,0,0,253,166.14Z" transform="translate(-11.87 -9.57)" fill="#eb5d62"/>
      <path id="Path_2655" data-name="Path 2655" d="M316.39,157.62a7,7,0,1,1,7-7A7,7,0,0,1,316.39,157.62Z" transform="translate(-11.87 -9.57)" fill="#fff"/>
      <path id="Path_2656" data-name="Path 2656" d="M316.39,146.34a4.32,4.32,0,1,1-4.32,4.32,4.32,4.32,0,0,1,4.32-4.32m0-5.28a9.6,9.6,0,1,0,9.6,9.6A9.6,9.6,0,0,0,316.39,141.06Z" transform="translate(-11.87 -9.57)" fill="#eb5d62"/>
      <path id="Path_2657" data-name="Path 2657" d="M378.34,180.79a7,7,0,1,1,7-7A7,7,0,0,1,378.34,180.79Z" transform="translate(-11.87 -9.57)" fill="#fff"/>
      <path id="Path_2658" data-name="Path 2658" d="M378.34,169.51a4.32,4.32,0,1,1-4.31,4.32,4.32,4.32,0,0,1,4.31-4.32m0-5.28a9.6,9.6,0,1,0,6.795,2.808,9.6,9.6,0,0,0-6.795-2.808Z" transform="translate(-11.87 -9.57)" fill="#eb5d62"/>
      <path id="Path_2659" data-name="Path 2659" d="M439.16,213.44a7,7,0,1,1,7-7,7,7,0,0,1-7,7Z" transform="translate(-11.87 -9.57)" fill="#fff"/>
      <path id="Path_2660" data-name="Path 2660" d="M439.16,202.16a4.32,4.32,0,1,1-4.32,4.32,4.32,4.32,0,0,1,4.32-4.32m0-5.28a9.6,9.6,0,1,0,9.6,9.6,9.6,9.6,0,0,0-9.6-9.6Z" transform="translate(-11.87 -9.57)" fill="#eb5d62"/>
      <path id="Path_2661" data-name="Path 2661" d="M50.06,268.28s-3.19,1-2.12,6.46,2.83,6.12,2.07,11,4.86,8.6,5.76,11.63-1.15,8.39,1.29,12.44c1.33,2.2,4.69,3.92,9.1,4.36,10,1,18.09-4.11,20.23-13.06a13.76,13.76,0,0,0,.38-4.25c-.64-8.62-10.44-8.79-13.17-10.7s-3.47-9-5.83-10.62-5,.77-9-2.78S52.59,267.51,50.06,268.28Z" transform="translate(519.13 -8.57)" fill="#41baff"/>
      <path id="Path_2662" data-name="Path 2662" d="M50.46,270.75s29.76,35,33.68,62.37" transform="translate(519.13 -8.57)" fill="none" stroke="#fff" stroke-linecap="round" stroke-miterlimit="10" stroke-width="1.08"/>
      <path id="Path_2663" data-name="Path 2663" d="M51.37,279.55a26.38,26.38,0,0,1,9.5,4.83" transform="translate(519.13 -8.57)" fill="none" stroke="#fff" stroke-linecap="round" stroke-miterlimit="10" stroke-width="0.72"/>
      <path id="Path_2664" data-name="Path 2664" d="M65.8,277s-2.49,7.28-1.58,12.29" transform="translate(519.13 -8.57)" fill="none" stroke="#fff" stroke-linecap="round" stroke-miterlimit="10" stroke-width="0.72"/>
      <path id="Path_2665" data-name="Path 2665" d="M56.26,294.37s10.24,1.24,13.62,3.78" transform="translate(519.13 -8.57)" fill="none" stroke="#fff" stroke-linecap="round" stroke-miterlimit="10" stroke-width="0.72"/>
      <path id="Path_2666" data-name="Path 2666" d="M77.9,292.13s-4.34,8.73-4.27,12.61" transform="translate(519.13 -8.57)" fill="none" stroke="#fff" stroke-linecap="round" stroke-miterlimit="10" stroke-width="0.72"/>
      <path id="Path_2667" data-name="Path 2667" d="M60.81,308.81s8.33-1.67,14.63-.62" transform="translate(519.13 -8.57)" fill="none" stroke="#fff" stroke-linecap="round" stroke-miterlimit="10" stroke-width="0.72"/>
      <path id="Path_2668" data-name="Path 2668" d="M66.72,285.85a32.818,32.818,0,0,0-.83,5.93" transform="translate(519.13 -8.57)" fill="none" stroke="#fff" stroke-linecap="round" stroke-miterlimit="10" stroke-width="0.72"/>
      <path id="Path_2669" data-name="Path 2669" d="M104.71,263.77s3.33.33,3.4,5.89-1.51,6.57.23,11.2-3,9.42-3.25,12.57,2.85,8,1.29,12.44c-.85,2.43-3.79,4.8-8,6.13-9.59,3-18.55-.31-22.48-8.63a14.16,14.16,0,0,1-1.25-4.09c-1.14-8.57,8.43-10.74,10.7-13.17s1.55-9.53,3.53-11.59,5-.27,8.22-4.56S102.07,263.53,104.71,263.77Z" transform="translate(519.13 -8.57)" fill="#13a0f0"/>
      <path id="Path_2670" data-name="Path 2670" d="M104.83,266.27s-22,40.38-20.18,68" transform="translate(519.13 -8.57)" fill="none" stroke="#fff" stroke-linecap="round" stroke-miterlimit="10" stroke-width="1.08"/>
      <path id="Path_2671" data-name="Path 2671" d="M105.74,275.07a26.27,26.27,0,0,0-8.3,6.67" transform="translate(519.13 -8.57)" fill="none" stroke="#fff" stroke-linecap="round" stroke-miterlimit="10" stroke-width="0.72"/>
      <path id="Path_2672" data-name="Path 2672" d="M91.09,275.5s3.93,6.61,4.06,11.71" transform="translate(519.13 -8.57)" fill="none" stroke="#fff" stroke-linecap="round" stroke-miterlimit="10" stroke-width="0.72"/>
      <path id="Path_2673" data-name="Path 2673" d="M104,290.58s-9.77,3.32-12.55,6.49" transform="translate(519.13 -8.57)" fill="none" stroke="#fff" stroke-linecap="round" stroke-miterlimit="10" stroke-width="0.72"/>
      <path id="Path_2674" data-name="Path 2674" d="M82.36,292.82s6,7.66,6.76,11.47" transform="translate(519.13 -8.57)" fill="none" stroke="#fff" stroke-linecap="round" stroke-miterlimit="10" stroke-width="0.72"/>
      <path id="Path_2675" data-name="Path 2675" d="M102.5,305.65s-8.5.07-14.45,2.35" transform="translate(519.13 -8.57)" fill="none" stroke="#fff" stroke-linecap="round" stroke-miterlimit="10" stroke-width="0.72"/>
      <path id="Path_2676" data-name="Path 2676" d="M92,284.38A31.771,31.771,0,0,1,94,290" transform="translate(519.13 -8.57)" fill="none" stroke="#fff" stroke-linecap="round" stroke-miterlimit="10" stroke-width="0.72"/>
      <path id="Path_2677" data-name="Path 2677" d="M83.25,342.58H60.15l-4.81-33.41H88.06Z" transform="translate(531 1)"/>
      <path id="Path_2678" data-name="Path 2678" d="M55.34,309.17l.53,3.69,31.2,3.23.99-6.92Z" transform="translate(531 1)" fill="#ababab" opacity="0.67"/>
      <rect id="Rectangle_941" data-name="Rectangle 941" width="37" height="5.13" transform="translate(584.2 306.84)"/>
      <line id="Line_67" data-name="Line 67" x2="6.34" transform="translate(190.89 62.19)" fill="none" stroke="#fff" stroke-linecap="round" stroke-miterlimit="10" stroke-width="1.32"/>
      <line id="Line_68" data-name="Line 68" y2="6.34" transform="translate(194.06 59.02)" fill="none" stroke="#fff" stroke-linecap="round" stroke-miterlimit="10" stroke-width="1.32"/>
      <line id="Line_69" data-name="Line 69" x2="6.34" transform="translate(349.81 314.94)" fill="none" stroke="#fff" stroke-linecap="round" stroke-miterlimit="10" stroke-width="1.32"/>
      <line id="Line_70" data-name="Line 70" y2="6.34" transform="translate(352.98 311.77)" fill="none" stroke="#fff" stroke-linecap="round" stroke-miterlimit="10" stroke-width="1.32"/>
      <path id="Path_2679" data-name="Path 2679" d="M294.7,32a2.91,2.91,0,1,1-2.91-2.9A2.91,2.91,0,0,1,294.7,32Z" transform="translate(-11.87 -9.57)" fill="#fff"/>
      <path id="Path_2680" data-name="Path 2680" d="M127.5,112.08a2.9,2.9,0,1,1-.849-2.061,2.91,2.91,0,0,1,.849,2.061Z" transform="translate(-11.87 -9.57)" fill="#fff"/>
      <path id="Path_2681" data-name="Path 2681" d="M571.86,154.06a2.9,2.9,0,1,1-.846-2.057A2.91,2.91,0,0,1,571.86,154.06Z" transform="translate(-11.87 -9.57)" fill="#3f49a5"/>
      <path id="Path_2682" data-name="Path 2682" d="M540.85,57.76a2.91,2.91,0,1,1-2.91-2.91,2.91,2.91,0,0,1,2.91,2.91Z" transform="translate(-11.87 -9.57)" fill="#fff"/>
      <path id="Path_2683" data-name="Path 2683" d="M600.26,38.2a2.9,2.9,0,1,1-.849-2.061,2.91,2.91,0,0,1,.849,2.061Z" transform="translate(-11.87 -9.57)" fill="#fff"/>
      <path id="Path_2684" data-name="Path 2684" d="M587.32,283.31a2.91,2.91,0,1,1-2.91-2.91A2.91,2.91,0,0,1,587.32,283.31Z" transform="translate(-11.87 -9.57)" fill="#fff"/>
      <path id="Path_2685" data-name="Path 2685" d="M148.58,176.22a2.91,2.91,0,1,1-2.9-2.9A2.91,2.91,0,0,1,148.58,176.22Z" transform="translate(-11.87 -9.57)" fill="#fff"/>
      <path id="Path_2686" data-name="Path 2686" d="M127.5,262.29a2.91,2.91,0,1,1-2.91-2.91A2.91,2.91,0,0,1,127.5,262.29Z" transform="translate(-11.87 -9.57)" fill="#fff"/>
      <path id="Path_2687" data-name="Path 2687" d="M66.93,232.1a2.91,2.91,0,1,1-.863-2.058,2.91,2.91,0,0,1,.863,2.058Z" transform="translate(-11.87 -9.57)" fill="#13a0f0"/>
      <line id="Line_71" data-name="Line 71" x2="6.34" transform="translate(355.82 3.83)" fill="none" stroke="#3f49a5" stroke-linecap="round" stroke-miterlimit="10" stroke-width="1.32"/>
      <line id="Line_72" data-name="Line 72" y2="6.34" transform="translate(358.99 0.66)" fill="none" stroke="#3f49a5" stroke-linecap="round" stroke-miterlimit="10" stroke-width="1.32"/>
      <line id="Line_73" data-name="Line 73" x2="6.34" transform="translate(458.93 67.41)" fill="none" stroke="#fff" stroke-linecap="round" stroke-miterlimit="10" stroke-width="1.32"/>
      <line id="Line_74" data-name="Line 74" y2="6.33" transform="translate(462.1 64.25)" fill="none" stroke="#fff" stroke-linecap="round" stroke-miterlimit="10" stroke-width="1.32"/>
      <line id="Line_75" data-name="Line 75" x2="6.34" transform="translate(578.93 262.54)" fill="none" stroke="#3f49a5" stroke-linecap="round" stroke-miterlimit="10" stroke-width="1.32"/>
      <line id="Line_76" data-name="Line 76" y2="6.33" transform="translate(582.1 259.37)" fill="none" stroke="#3f49a5" stroke-linecap="round" stroke-miterlimit="10" stroke-width="1.32"/>
      <line id="Line_77" data-name="Line 77" x2="6.33" transform="translate(560.84 296.01)" fill="none" stroke="#fff" stroke-linecap="round" stroke-miterlimit="10" stroke-width="1.32"/>
      <line id="Line_78" data-name="Line 78" y2="6.34" transform="translate(564.01 292.84)" fill="none" stroke="#fff" stroke-linecap="round" stroke-miterlimit="10" stroke-width="1.32"/>
      <rect id="Rectangle_942" data-name="Rectangle 942" width="68.88" height="46.2" rx="3.09" transform="translate(436.65 121.63)"/>
      <g id="Group_221" data-name="Group 221" opacity="0.29">
        <line id="Line_79" data-name="Line 79" y2="30.48" transform="translate(439.06 133.39)" fill="none" stroke="#fff" stroke-linecap="round" stroke-miterlimit="10" stroke-width="0.53"/>
        <line id="Line_80" data-name="Line 80" y2="30.48" transform="translate(444.37 133.39)" fill="none" stroke="#fff" stroke-linecap="round" stroke-miterlimit="10" stroke-width="0.53"/>
        <line id="Line_81" data-name="Line 81" y2="30.48" transform="translate(449.68 133.39)" fill="none" stroke="#fff" stroke-linecap="round" stroke-miterlimit="10" stroke-width="0.53"/>
        <line id="Line_82" data-name="Line 82" y2="30.48" transform="translate(454.98 133.39)" fill="none" stroke="#fff" stroke-linecap="round" stroke-miterlimit="10" stroke-width="0.53"/>
        <line id="Line_83" data-name="Line 83" y2="30.48" transform="translate(460.29 133.39)" fill="none" stroke="#fff" stroke-linecap="round" stroke-miterlimit="10" stroke-width="0.53"/>
        <line id="Line_84" data-name="Line 84" y2="30.48" transform="translate(465.59 133.39)" fill="none" stroke="#fff" stroke-linecap="round" stroke-miterlimit="10" stroke-width="0.53"/>
        <line id="Line_85" data-name="Line 85" y2="30.48" transform="translate(470.9 133.39)" fill="none" stroke="#fff" stroke-linecap="round" stroke-miterlimit="10" stroke-width="0.53"/>
        <line id="Line_86" data-name="Line 86" y2="30.48" transform="translate(476.21 133.39)" fill="none" stroke="#fff" stroke-linecap="round" stroke-miterlimit="10" stroke-width="0.53"/>
        <line id="Line_87" data-name="Line 87" y2="30.48" transform="translate(481.51 133.39)" fill="none" stroke="#fff" stroke-linecap="round" stroke-miterlimit="10" stroke-width="0.53"/>
        <line id="Line_88" data-name="Line 88" y2="30.48" transform="translate(486.82 133.39)" fill="none" stroke="#fff" stroke-linecap="round" stroke-miterlimit="10" stroke-width="0.53"/>
        <line id="Line_89" data-name="Line 89" y2="30.48" transform="translate(492.12 133.39)" fill="none" stroke="#fff" stroke-linecap="round" stroke-miterlimit="10" stroke-width="0.53"/>
        <line id="Line_90" data-name="Line 90" y2="30.48" transform="translate(497.43 133.39)" fill="none" stroke="#fff" stroke-linecap="round" stroke-miterlimit="10" stroke-width="0.53"/>
        <line id="Line_91" data-name="Line 91" y2="30.48" transform="translate(502.74 133.39)" fill="none" stroke="#fff" stroke-linecap="round" stroke-miterlimit="10" stroke-width="0.53"/>
      </g>
      <line id="Line_92" data-name="Line 92" x2="63.76" transform="translate(438.98 129.62)" fill="none" stroke="#fff" stroke-linecap="round" stroke-miterlimit="10" stroke-width="0.92"/>
      <line id="Line_93" data-name="Line 93" x2="3.34" y2="3.34" transform="translate(499.4 123.66)" fill="none" stroke="#fff" stroke-linecap="round" stroke-miterlimit="10" stroke-width="0.92"/>
      <line id="Line_94" data-name="Line 94" x1="3.34" y2="3.34" transform="translate(499.4 123.66)" fill="none" stroke="#fff" stroke-linecap="round" stroke-miterlimit="10" stroke-width="0.92"/>
      <rect id="Rectangle_943" data-name="Rectangle 943" width="3.34" height="3.34" rx="0.32" transform="translate(493.4 123.66)" fill="none" stroke="#fff" stroke-linecap="round" stroke-miterlimit="10" stroke-width="0.92"/>
      <line id="Line_95" data-name="Line 95" x2="3.34" transform="translate(487.2 127)" fill="none" stroke="#fff" stroke-linecap="round" stroke-miterlimit="10" stroke-width="0.92"/>
      <path id="Path_2688" data-name="Path 2688" d="M450.85,149.59s5.67-6.1,13.56-3.85,10.21,12.46,19.7,15.71c6.29,2.16,12.08-3.09,19.91-3.17,7.25-.07,10.59,6.71,10.59,6.71" transform="translate(-11.87 -9.57)" fill="none" stroke="#fff" stroke-linecap="round" stroke-miterlimit="10" stroke-width="0.92"/>
      <path id="Path_2689" data-name="Path 2689" d="M452.47,149.54a1.53,1.53,0,1,1-1.53-1.53A1.53,1.53,0,0,1,452.47,149.54Z" transform="translate(-11.87 -9.57)" fill="#fff"/>
      <path id="Path_2690" data-name="Path 2690" d="M484.26,160.83a1.53,1.53,0,1,1-1.53-1.53A1.53,1.53,0,0,1,484.26,160.83Z" transform="translate(-11.87 -9.57)" fill="#fff"/>
      <path id="Path_2691" data-name="Path 2691" d="M516.14,165a1.52,1.52,0,1,1-.445-1.085A1.53,1.53,0,0,1,516.14,165Z" transform="translate(-11.87 -9.57)" fill="#fff"/>
      <path id="Path_2692" data-name="Path 2692" d="M133.73,204.46h-50a4.94,4.94,0,0,0-4.94,4.93v13.2a4.94,4.94,0,0,0,4.94,4.93h38.8l7.17,7.16v-7.16h4a4.94,4.94,0,0,0,4.94-4.93v-13.2a4.94,4.94,0,0,0-4.91-4.93Z" transform="translate(-11.87 -9.57)"/>
      <line id="Line_96" data-name="Line 96" x2="38.34" transform="translate(74.38 201.17)" fill="none" stroke="#fff" stroke-linecap="round" stroke-miterlimit="10" stroke-width="1.32"/>
      <line id="Line_97" data-name="Line 97" x2="44.28" transform="translate(74.38 206.42)" fill="none" stroke="#fff" stroke-linecap="round" stroke-miterlimit="10" stroke-width="1.32"/>
      <line id="Line_98" data-name="Line 98" x2="15.88" transform="translate(74.38 211.66)" fill="none" stroke="#fff" stroke-linecap="round" stroke-miterlimit="10" stroke-width="1.32"/>
      <path id="Path_2693" data-name="Path 2693" d="M118.87,144.2V129.1H106.58v15.1h-5.81l11.95,16.15,11.95-16.15Z" fill="#13a0f0" opacity="0.63"/>
      <path id="Path_2694" data-name="Path 2694" d="M95.86,78.97V63.88H83.57V78.97h-5.8L89.72,95.12l11.95-16.15Z" fill="#13a0f0"/>
      <path id="Path_2695" data-name="Path 2695" d="M506.77,60.38V45.28H494.48v15.1h-5.81l11.95,16.15,11.95-16.15Z" fill="#13a0f0"/>
      <path id="Path_2696" data-name="Path 2696" d="M252.44,34.66V11.89H233.9V34.66h-8.75l18.02,24.36L261.2,34.66Z" fill="#fff"/>
      <path id="Path_2697" data-name="Path 2697" d="M53.66,184.12V161.35H35.12v22.77H26.37l18.02,24.36,18.03-24.36Z" fill="#fff"/>
      <path id="Path_2698" data-name="Path 2698" d="M585.39,111.7V88.93H566.85V111.7h-8.76l18.03,24.36,18.02-24.36Z" fill="#13a0f0" opacity="0.63"/>
      <path id="Path_2699" data-name="Path 2699" d="M66.31,129.76v-3.82h-1.6a10.06,10.06,0,0,0-1.53-3.71l1.12-1.13-2.7-2.7-1.12,1.12A10.11,10.11,0,0,0,56.76,118v-1.6H52.94V118a10.06,10.06,0,0,0-3.71,1.53L48.1,118.4l-2.7,2.7,1.13,1.13A9.91,9.91,0,0,0,45,125.94H43.4v3.82H45a9.91,9.91,0,0,0,1.54,3.71L45.4,134.6l2.7,2.7,1.13-1.13a9.91,9.91,0,0,0,3.71,1.54v1.6h3.82v-1.6a9.91,9.91,0,0,0,3.71-1.54l1.13,1.13,2.7-2.7-1.12-1.13a10.06,10.06,0,0,0,1.53-3.71Zm-11.46,4.47a6.38,6.38,0,1,1,6.38-6.38A6.38,6.38,0,0,1,54.85,134.23Z" transform="translate(-11.87 -9.57)" fill="#fff"/>
      <path id="Path_2700" data-name="Path 2700" d="M78.24,139.62v-2.56H77.17a6.78,6.78,0,0,0-1-2.49l.75-.75L75.09,132l-.76.76a6.61,6.61,0,0,0-2.49-1v-1.07H69.29v1.07a6.61,6.61,0,0,0-2.49,1l-.75-.76-1.81,1.81.75.75a6.6,6.6,0,0,0-1,2.49H62.9v2.56H64a6.55,6.55,0,0,0,1,2.48l-.75.76,1.81,1.81.75-.76a6.78,6.78,0,0,0,2.49,1V146h2.55v-1.07a6.78,6.78,0,0,0,2.49-1l.76.76,1.8-1.81-.75-.76a6.55,6.55,0,0,0,1-2.48Zm-7.67,3a4.265,4.265,0,1,0,0-.01Z" transform="translate(-11.87 -9.57)" fill="#fff"/>
      <path id="Path_2701" data-name="Path 2701" d="M324.63,43a14.07,14.07,0,0,0,2.17,5.26l-1.6,1.59,3.8,3.82,1.6-1.6a14.23,14.23,0,0,0,5.26,2.17v2.27h5.41V54.24a14.26,14.26,0,0,0,5.25-2.17l1.6,1.6L352,49.84l-1.59-1.59A14.23,14.23,0,0,0,352.54,43h2.26V37.58h-2.26a14.3,14.3,0,0,0-2.17-5.26L352,30.73l-3.82-3.82-1.6,1.59a14,14,0,0,0-5.25-2.17V24.07h-5.41v2.26a14.23,14.23,0,0,0-5.26,2.17L329,26.91l-3.82,3.82,1.6,1.6a14,14,0,0,0-2.17,5.25h-2.27V43Zm4.92-2.71a9.079,9.079,0,1,0,0-.01Z" transform="translate(-11.87 -9.57)" fill="#fff"/>
      <path id="Path_2702" data-name="Path 2702" d="M307,56.94a9.221,9.221,0,0,0,1.45,3.52l-1.07,1.07,2.56,2.56L311,63a9.22,9.22,0,0,0,3.52,1.45V66h3.62V64.48A9.53,9.53,0,0,0,321.67,63l1.06,1.07,2.56-2.56-1.06-1.07a9.54,9.54,0,0,0,1.45-3.52h1.51v-3.6h-1.51a9.69,9.69,0,0,0-1.45-3.52l1.06-1.06-2.56-2.56-1.06,1.07a9.53,9.53,0,0,0-3.52-1.46V44.28h-3.62v1.51A9.39,9.39,0,0,0,311,47.25l-1.07-1.07-2.56,2.56,1.07,1.07A9.42,9.42,0,0,0,307,53.32h-1.51v3.62Zm3.29-1.81a6,6,0,1,1,6,6,6,6,0,0,1-6-6Z" transform="translate(-11.87 -9.57)" fill="#fff"/>
      <circle id="Ellipse_220" data-name="Ellipse 220" cx="16.53" cy="16.53" r="16.53" transform="matrix(0.161, -0.987, 0.987, 0.161, 573.477, 246.059)" fill="#fff"/>
      <path id="Path_2703" data-name="Path 2703" d="M609.75,248.92a7.12,7.12,0,0,1-4.22,1.77v1.52a1.22,1.22,0,0,1-1.22,1.22h0a1.22,1.22,0,0,1-1.22-1.22v-1.45a12.931,12.931,0,0,1-3.44-.63,8.758,8.758,0,0,1-1.23-.48,1.64,1.64,0,0,1-.81-2.16h0a1.6,1.6,0,0,1,2.12-.84c.25.12.52.23.79.33a9.89,9.89,0,0,0,2.57.59v-4.08a18.879,18.879,0,0,1-2.93-.93,5.06,5.06,0,0,1-2-1.5,4,4,0,0,1-.81-2.62,4.7,4.7,0,0,1,1.48-3.48,7,7,0,0,1,4.26-1.77V231.7a1.21,1.21,0,0,1,1.22-1.22h0a1.22,1.22,0,0,1,1.22,1.22v1.44a12.3,12.3,0,0,1,3.54.77,1.62,1.62,0,0,1,.85,2.12h0a1.64,1.64,0,0,1-2.13.89,9.709,9.709,0,0,0-2.26-.56v4.15a17.86,17.86,0,0,1,2.89.89,5.15,5.15,0,0,1,2,1.49,4,4,0,0,1,.81,2.6,4.6,4.6,0,0,1-1.48,3.43Zm-8-9.68a3.86,3.86,0,0,0,1.35.66v-3.47a2.65,2.65,0,0,0-1.37.7,1.61,1.61,0,0,0-.44,1.11,1.27,1.27,0,0,0,.45,1Zm5.11,7.59a1.43,1.43,0,0,0,.44-1,1.26,1.26,0,0,0-.46-1,4,4,0,0,0-1.3-.68v3.37a2.64,2.64,0,0,0,1.31-.69Z" transform="translate(-11.87 -9.57)" fill="#a6ceff"/>
      <circle id="Ellipse_221" data-name="Ellipse 221" cx="16.53" cy="16.53" r="16.53" transform="translate(131.886 54.285) rotate(-82.94)" fill="#fff"/>
      <path id="Path_2704" data-name="Path 2704" d="M167.67,56.46a7.12,7.12,0,0,1-4.22,1.77v1.51A1.23,1.23,0,0,1,162.23,61h0A1.23,1.23,0,0,1,161,59.74V58.3a12.93,12.93,0,0,1-3.44-.63,12.171,12.171,0,0,1-1.23-.48,1.64,1.64,0,0,1-.81-2.17h0a1.61,1.61,0,0,1,2.12-.83c.26.12.52.23.8.33a9.82,9.82,0,0,0,2.56.59V51a18.88,18.88,0,0,1-2.93-.93,5.13,5.13,0,0,1-2-1.5,4,4,0,0,1-.81-2.62,4.7,4.7,0,0,1,1.48-3.48A7,7,0,0,1,161,40.73V39.24A1.22,1.22,0,0,1,162.23,38h0a1.22,1.22,0,0,1,1.22,1.22v1.44a12.22,12.22,0,0,1,3.54.77,1.62,1.62,0,0,1,.85,2.12h0a1.64,1.64,0,0,1-2.13.89,9.71,9.71,0,0,0-2.26-.56v4.15a17.86,17.86,0,0,1,2.89.89,5.08,5.08,0,0,1,2,1.49,4,4,0,0,1,.81,2.6A4.6,4.6,0,0,1,167.67,56.46Zm-8-9.68a3.8,3.8,0,0,0,1.34.66V44a2.69,2.69,0,0,0-1.37.7,1.61,1.61,0,0,0-.44,1.11,1.25,1.25,0,0,0,.47.97Zm5.1,7.59a1.44,1.44,0,0,0,.44-1,1.27,1.27,0,0,0-.45-1,4.18,4.18,0,0,0-1.31-.68V55a2.56,2.56,0,0,0,1.32-.63Z" transform="translate(-11.87 -9.57)" fill="#a6ceff"/>
      <path id="Path_2705" data-name="Path 2705" d="M439.2,34.77a23.94,23.94,0,1,0,3.19,24.06h0a24,24,0,0,0-3.19-24ZM420.3,63.69a14.2,14.2,0,0,1-11.87-6.4,14,14,0,0,1-2.34-7.81A14.21,14.21,0,1,1,420.3,63.69Z" transform="translate(-11.87 -9.57)" fill="#13a0f0" opacity="0.63"/>
      <path id="Path_2706" data-name="Path 2706" d="M439.2,34.77l-7.8,5.86a14.15,14.15,0,0,0-11.1-5.34V25.53a23.942,23.942,0,0,1,18.9,9.244Z" transform="translate(-11.87 -9.57)" fill="#fff"/>
      <path id="Path_2707" data-name="Path 2707" d="M442.39,58.81h0a24,24,0,0,1-42,4.05l8-5.59a14.2,14.2,0,0,0,25-2.44Z" transform="translate(-11.87 -9.57)" fill="#13a0f0" opacity="0.63"/>
      <rect id="Rectangle_944" data-name="Rectangle 944" width="13.48" height="61.52" transform="translate(465.22 344.03) rotate(180)"/>
      <rect id="Rectangle_945" data-name="Rectangle 945" width="13.48" height="51.66" transform="translate(443.57 344.03) rotate(180)"/>
      <rect id="Rectangle_946" data-name="Rectangle 946" width="13.48" height="43.24" transform="translate(486.68 344.03) rotate(180)"/>
      <rect id="Rectangle_947" data-name="Rectangle 947" width="13.48" height="69.71" transform="translate(421.9 344.03) rotate(180)"/>
      <path id="Path_2708" data-name="Path 2708" d="M479.94,292.37l-21.46-20.7-21.65,12.94-21.66-25.83" fill="none" stroke="#3f49a5" stroke-miterlimit="10" stroke-width="1.44"/>
      <path id="Path_2709" data-name="Path 2709" d="M489.41,301.85a2.35,2.35,0,1,0,2.35-2.35,2.35,2.35,0,0,0-2.35,2.35Z" transform="translate(-11.87 -9.57)" fill="#3f49a5"/>
      <path id="Path_2710" data-name="Path 2710" d="M468,281.55a2.35,2.35,0,1,0,2.35-2.35A2.35,2.35,0,0,0,468,281.55Z" transform="translate(-11.87 -9.57)" fill="#3f49a5"/>
      <path id="Path_2711" data-name="Path 2711" d="M446.35,293.88a2.35,2.35,0,1,0,2.35-2.35,2.35,2.35,0,0,0-2.35,2.35Z" transform="translate(-11.87 -9.57)" fill="#3f49a5"/>
      <path id="Path_2712" data-name="Path 2712" d="M424.7,268.35A2.35,2.35,0,1,0,427,266a2.35,2.35,0,0,0-2.3,2.35Z" transform="translate(-11.87 -9.57)" fill="#3f49a5"/>
      <path id="Path_2841" data-name="Path 2841" d="M618.75,0" transform="translate(0.75 343.69)" fill="none" stroke="#000" stroke-linecap="round" stroke-width="1.5"/>
      <line id="Line_100" data-name="Line 100" y1="1.18" x2="347.96" transform="translate(-112.75 360.98)" fill="none" stroke="#141b5e" stroke-linecap="round" stroke-miterlimit="10" stroke-width="1.5"/>
      <line id="Line_101" data-name="Line 101" x2="15.68" transform="translate(237.55 360.98)" fill="none" stroke="#141b5e" stroke-linecap="round" stroke-miterlimit="10" stroke-width="1.5"/>
      <line id="Line_102" data-name="Line 102" x2="102.84" transform="translate(483.79 360.98)" fill="none" stroke="#141b5e" stroke-linecap="round" stroke-miterlimit="10" stroke-width="1.5"/>
      <path id="Path_2717" data-name="Path 2717" d="M523.88,354.28v10.27a14.49,14.49,0,0,0,6.57,0l.48-11.48" transform="translate(-11.87 -9.57)" fill="#fe9393"/>
      <path id="Path_2718" data-name="Path 2718" d="M530.51,363.17s-.89.93-4.11.81a4.37,4.37,0,0,0-4-.69s-3.23,2.82-5.52,3.29-5,.73-5.58,1.74a2.1,2.1,0,0,0-.39,1.67s-.16.43,2.64.54,11.75-.27,13.31-.19a17.091,17.091,0,0,0,4.61-.19C532.46,369.84,532.37,365,530.51,363.17Z" transform="translate(-11.87 -9.57)"/>
      <path id="Path_2719" data-name="Path 2719" d="M570.67,352.37l2.94,9.53a14.06,14.06,0,0,0,6.09-1.9l-2.83-10.79" transform="translate(-11.87 -9.57)" fill="#fe9393"/>
      <path id="Path_2720" data-name="Path 2720" d="M583.34,364a16.15,16.15,0,0,1-3.86,2.3c-.76.35-3.4,1.89-6,3.39a7,7,0,0,1-3.39.89h-4.27c-.8,0-1.09-.55-1.06-.89,0-.9.81-1.65,2.06-1.88a5.588,5.588,0,0,0,.94-.28,7,7,0,0,0,3.34-2.84c.79-1.27,1.35-2.37,1.35-2.37a4.21,4.21,0,0,1,3.71-1.23c2.81-1.4,3.13-2.59,3.13-2.59C581.71,359.15,584,363.28,583.34,364Z" transform="translate(-11.87 -9.57)"/>
      <path id="Path_2721" data-name="Path 2721" d="M543.94,265.34a42,42,0,0,1-.46,4.31c-.42,2.49-1.46,6.44-2.73,10.86-2.18,7.58-5,16.52-6.64,21.69,6.18,12.66-2.19,54.53-3.3,58a11.26,11.26,0,0,1-7-.29c-1.32-19.32-4.55-58.67-4.54-59.61.86-52,3.44-60.5,4.84-61.06,3.09-1.15,12.3-3.61,15.91,1.65C543.8,246.42,544.4,257.93,543.94,265.34Z" transform="translate(-11.87 -9.57)" fill="#13a0f0"/>
      <path id="Path_2722" data-name="Path 2722" d="M543.94,265.34a42,42,0,0,1-.46,4.31c-.42,2.49-1.46,6.44-2.73,10.86-.38-6.26-1.1-23.65-1.1-23.65Z" transform="translate(-11.87 -9.57)" fill="#102772"/>
      <path id="Path_2723" data-name="Path 2723" d="M578.86,355.55a10.27,10.27,0,0,1-7,2c.55.76-17.9-40.6-20.88-49-.19-.53-1-2.78-1.19-3.53-1.41-4.4-6-26.83-8.2-35.59l-6.22-28.16s-8.48,1.15-2.41.79c7.72-.46,17.35-4.31,17.35-4.31,12.87,11,14,23.61,13.52,29.92-.21,2.55.38,27.86.74,34.16,9.85,13.56,11.65,28.49,12.63,40.17C577.65,346.91,578.63,353.5,578.86,355.55Z" transform="translate(-11.87 -9.57)" fill="#13a0f0"/>
      <path id="Path_2724" data-name="Path 2724" d="M526.35,184.31a15.2,15.2,0,0,1,5-3.27c2.61-.44,9.3,0,14,1.25,5.42,1.41,11.72,2.6,12.65,4.65s4,12.77,2.71,19.67c-.59,3.1-3.5,16.13-4.63,25.32-.75,6.18.19,10-.13,10.33-1.74,2-13.55,3.63-19.14,3.63-5,0-13.71-1-14.68-2.49.28-3.06,1-5.37,1.18-7.85S524.4,186.55,526.35,184.31Z" transform="translate(-11.87 -9.57)"/>
      <path id="Path_2725" data-name="Path 2725" d="M477.67,205.43l-4.42-1.06a10.85,10.85,0,0,1-2.43-2.22,5,5,0,0,0-4.16-1.51c-.45,0-.5.6.31,1.15.54.37,1.49.2,1.81,1.47.15.56-1.45.58-2.27.3s-3.62-1.6-4.34-1.9-1.32.15.55,1.52a23.477,23.477,0,0,0,3,1.92,8.757,8.757,0,0,0,.66,1.17.83.83,0,0,0,.33.22,9.072,9.072,0,0,0,.62,1.08.58.58,0,0,0,.14.12c.17.36.33.7.48,1,.58,1.16,2.82.84,3.8.71a33.25,33.25,0,0,1,5.21.83Z" transform="translate(-11.87 -9.57)" fill="#fcba81"/>
      <path id="Path_2726" data-name="Path 2726" d="M466.9,205.06a11.069,11.069,0,0,1-2.82-.59c-1.66-.56-3.78-1.74-4.21-1.78s-.48.5,0,.93a15.139,15.139,0,0,0,2.62,1.61,49.687,49.687,0,0,0,4.93,1.49" transform="translate(-11.87 -9.57)" fill="#fe9393"/>
      <path id="Path_2727" data-name="Path 2727" d="M467.48,206.23a11.181,11.181,0,0,1-2.87-.27c-1.71-.36-3.95-1.3-4.38-1.3s-.42.56.1.93a16.169,16.169,0,0,0,2.79,1.31c1,.35,5.06,1.36,5.06,1.36" transform="translate(-11.87 -9.57)" fill="#fcba81"/>
      <path id="Path_2728" data-name="Path 2728" d="M468.87,207.94a11.181,11.181,0,0,1-2.87-.27c-1.71-.36-3.94-1.3-4.38-1.3s-.42.56.11.94a16.841,16.841,0,0,0,2.78,1.3,50.6,50.6,0,0,0,5.07.92" transform="translate(-11.87 -9.57)" fill="#fe9393"/>
      <path id="Path_2729" data-name="Path 2729" d="M526.35,184.31s-19.38,17-24.45,23.4c0,0,2.17,4.61,6,6.64,0,0,11.45-5.42,17.37-9.54" transform="translate(-11.87 -9.57)"/>
      <path id="Path_2730" data-name="Path 2730" d="M502.38,207.11l-26.19-2.3-1,5.42s20.76,8.56,28.14,8.09,24-14.07,24-14.07Z" transform="translate(-11.87 -9.57)"/>
      <path id="Path_2731" data-name="Path 2731" d="M560.34,186.33c-4.05-2.28-12.78-3.48-12.78-3.48l7.2,17.24c2.26,6,17.32,18.23,17.32,18.23l12.95-5.2C582.63,206.69,570,191.76,560.34,186.33Z" transform="translate(-11.87 -9.57)"/>
      <path id="Path_2732" data-name="Path 2732" d="M615.82,184.34c-.4-.44-1,0-1.26.67a3,3,0,0,0-.13.35h0c-.66,0-1.3.78-1.44,1.28s-1.66,4.15-2.56,4.48-2.65.58-2.67,0,1-2.21,1.5-3.12,0-2.14-.47-1.39-2.58,2.72-3.38,3.76-1.08,3-1.55,3.56a23.421,23.421,0,0,1-2.13,1.93l2.48,3.63-.39.4s7.15-4.46,8.44-5.51c1.06-1.29,2.17-2.6,2.3-2.8C614.8,191.17,616.23,184.78,615.82,184.34Z" transform="translate(-11.87 -9.57)" fill="#fcba81"/>
      <path id="Path_2733" data-name="Path 2733" d="M604.34,197.94a10.849,10.849,0,0,0-2.35-2.86s-24,11.76-29.85,17c0,0,6.56,9.42,9.53,8.34,7.77-2.84,23.49-19.82,23.49-19.82a6.75,6.75,0,0,0-.82-2.66Z" transform="translate(-11.87 -9.57)"/>
      <path id="Path_2734" data-name="Path 2734" d="M554.47,165.19s-.39,1.82-1,4.48c-.3,1.51-.67,3.28-1,5.15-.72,3.8-1,8.05-1.39,11.07a8,8,0,0,1-6.71,2c-2.65-.46-4-3.92-3.93-4.53.15-.25.28-.48.32-.57a12.909,12.909,0,0,0,1.55-3.55,1.575,1.575,0,0,1,.12-.39,15,15,0,0,0,.33-1.72,13.791,13.791,0,0,0,.06-3.54l.61-.44,9.9-7.11Z" transform="translate(-11.87 -9.57)" fill="#fcba81"/>
      <path id="Path_2735" data-name="Path 2735" d="M549.65,174.92h0c-1.46,1.93-4.73,5.77-8.87,7.82a13.162,13.162,0,0,0,1.56-3.55,9.451,9.451,0,0,1-1.78.26c0-.44.09-.89.09-1.37l.66-.36,1.47-.64,7.72-3.35S550.2,174.2,549.65,174.92Z" transform="translate(-11.87 -9.57)" fill="#e15f60"/>
      <path id="Path_2736" data-name="Path 2736" d="M535.22,158.61s-1.87,4.49,1,7.22l1.73-6.89Z" transform="translate(-11.87 -9.57)" fill="#3f49a5"/>
      <path id="Path_2737" data-name="Path 2737" d="M551.3,173.05a21.007,21.007,0,0,1-1.65,1.87h0a18.132,18.132,0,0,1-3.23,2.55,13.529,13.529,0,0,1-4.08,1.72,9.452,9.452,0,0,1-1.78.26,6.76,6.76,0,0,1-4-.94c-2.23-3.65-1.89-9.39-1.15-13.73.29-1.75.65-3.28.92-4.34s.44-1.54.44-1.54v-.11c1.28-5.59,8.82-5.45,13.85-2.05a7.56,7.56,0,0,1,.85.64,10.16,10.16,0,0,1,3.17,4.06c1.09,2.71.22,5.71-1.14,8.22-.07.14-.15.27-.22.4a24.073,24.073,0,0,1-1.98,2.99Z" transform="translate(-11.87 -9.57)" fill="#fcba81"/>
      <path id="Path_2738" data-name="Path 2738" d="M552.34,156.39s-6.55,9.19-16.61,3.76c-2.94-1.58-3.16-11.84-.62-9.68,5.23,4.43,9.84-3.36,14.91-.44a5.37,5.37,0,0,1,2.32,6.36Z" transform="translate(-11.87 -9.57)"/>
      <path id="Path_2739" data-name="Path 2739" d="M550.25,157.51s-4.38,18.39-.24,10c0,0,1.06-2.34,2.78-2s.05,6.61-.31,9.31c0,0,4.08-2.66,5.91-11s-3.69-12.07-7-8.56Z" transform="translate(-11.87 -9.57)"/>
      <path id="Path_2740" data-name="Path 2740" d="M552.39,166.82s-1,.09-1.26,1.86.85,2.17,1.12,1.25-.58-1.54-.78-1.15a2.19,2.19,0,0,1,.92-1.96Z" transform="translate(-11.87 -9.57)" fill="#e15f60"/>
      <path id="Path_2741" data-name="Path 2741" d="M572.08,218.32s4.5,3.35,6.4,3.57c3,.36,8.41-4.49,8.41-4.49l-10.36-5.65Z" transform="translate(-11.87 -9.57)"/>
      <path id="Path_2742" data-name="Path 2742" d="M190.06,262.01l2.11-4.73,3.91.92-1.01,4.34" fill="#fe9393"/>
      <path id="Path_2743" data-name="Path 2743" d="M208,271.78s-3.57,32.17-16.38,32.9c-2.89.16-6.76-5.41-10.1-11.45-.64-1.17-1.26-2.34-1.85-3.5-3-5.92-5.23-11.34-5.23-11.34l18.37-4.73a79.632,79.632,0,0,1,1,11.67l8.47-15a11.7,11.7,0,0,1,5.72,1.45Z" transform="translate(-11.87 -9.57)" fill="#e1edf9"/>
      <path id="Path_2744" data-name="Path 2744" d="M190.43,283.31a29.42,29.42,0,0,1-5,6.57c-1,.94-3,2.71-3.84,3.35-.64-1.17-1.26-2.34-1.85-3.5l5-4.43Z" transform="translate(-11.87 -9.57)" fill="#dfdfdf" opacity="0.67"/>
      <path id="Path_2745" data-name="Path 2745" d="M110.5,360.32l-9.63-.63a13.51,13.51,0,0,1,.41-6.16l10.8.25" transform="translate(-11.87 -9.57)" fill="#fcba81"/>
      <path id="Path_2746" data-name="Path 2746" d="M96.73,351a15.811,15.811,0,0,0-1.3,4.14c-.16.8-1,3.63-1.85,6.43a6.79,6.79,0,0,0-.08,3.38l1,4a.89.89,0,0,0,1.07.8,2.15,2.15,0,0,0,1.31-2.36,6.18,6.18,0,0,1,0-1,6.77,6.77,0,0,1,1.94-3.78c1-1,1.92-1.8,1.92-1.8a4.07,4.07,0,0,0,.33-3.77c.69-3,1.74-3.53,1.74-3.53C101.65,351.44,97.24,350.18,96.73,351Z" transform="translate(-11.87 -9.57)" fill="#13a0f0"/>
      <path id="Path_2747" data-name="Path 2747" d="M141.69,360.32l-9.64-.63a13.67,13.67,0,0,1,.41-6.16l10.8.25" transform="translate(-11.87 -9.57)" fill="#fe9393"/>
      <path id="Path_2748" data-name="Path 2748" d="M127.92,351a15.79,15.79,0,0,0-1.31,4.14c-.15.8-1,3.63-1.84,6.43a6.57,6.57,0,0,0-.08,3.38l1,4a.9.9,0,0,0,1.08.8,2.15,2.15,0,0,0,1.31-2.36,4.39,4.39,0,0,1,.05-1,6.69,6.69,0,0,1,1.93-3.78c1-1,1.93-1.8,1.93-1.8a4.1,4.1,0,0,0,.33-3.77c.69-3,1.74-3.53,1.74-3.53C132.84,351.44,128.43,350.18,127.92,351Z" transform="translate(-11.87 -9.57)" fill="#13a0f0"/>
      <path id="Path_2749" data-name="Path 2749" d="M185.62,369.69c-6.92,1.78-18.77-1.91-23.27-3.1-.57-.15-1-.26-1.34-.32l-10.38-2.16c-8.23-1.7-18.4-3.79-18.7-3.79a9.88,9.88,0,0,1,.35-7c2-.24,8.4-.78,13.1-1.49,1.12-.17,2.28-.34,3.47-.49,1.7-.23,3.46-.44,5.27-.62,2.35-.22,4.78-.38,7.29-.41h0c1.79,0,3.6,0,5.45.11-1-1.15-1.88-2.26-2.75-3.29h0c-2.69-3.22-4.79-5.69-5.38-6.27a41.065,41.065,0,0,1-3.91-4.6c-5.14-6.94-11.77-19.21-9.86-31.7,0,0,12.32,3.21,18.18-.6l13,24.12c1.58,3.13,4.25,8.09,7,13.19,2,3.77,7.07,14.73,7.77,20.6A6.94,6.94,0,0,1,185.62,369.69Z" transform="translate(-11.87 -9.57)"/>
      <path id="Path_2750" data-name="Path 2750" d="M163.16,361.82a11.09,11.09,0,0,1-.81,4.77c-.57-.15-1-.26-1.34-.32l-10.38-2.16-1.78-3.35v-9.43c1.7-.23,3.46-.44,5.27-.62,2.35-.22,4.78-.38,7.29-.41h0A79,79,0,0,1,163.16,361.82Z" transform="translate(-11.87 -9.57)"/>
      <path id="Path_2751" data-name="Path 2751" d="M164.11,347.11c-2.69-3.22-4.79-5.69-5.38-6.27a40.158,40.158,0,0,1-3.91-4.6l-.7-8.11Z" transform="translate(-11.87 -9.57)"/>
      <path id="Path_2752" data-name="Path 2752" d="M158.13,369.65c-4.33,2.73-52.25-9.35-52.79-9.33a9.8,9.8,0,0,1,.35-7c2-.25,8.4-.79,13.09-1.5a102.509,102.509,0,0,1,21.77-1.39c-2.84-6.34-5.51-12.15-6.1-13.19-3.08-5.31-11.81-17.71-1-34.39,0,0,8.41,2.1,15.06,0l6.12,26.71c1,4.94,3.16,14.17,4.93,22h0C159.66,352.1,163.92,366,158.13,369.65Z" transform="translate(-11.87 -9.57)"/>
      <path id="Path_2753" data-name="Path 2753" d="M132.34,304.67s19.76,4,32.16,1.8a52.071,52.071,0,0,1,8.41-9.52c5.82-5.06,15.73-9,19.52-16.8s-9-31-18.23-33.74c-13.14-3.85-31.09,20.35-37.84,37.14C131.16,296.49,130.25,301,132.34,304.67Z" transform="translate(-11.87 -9.57)" fill="#e1edf9"/>
      <path id="Path_2754" data-name="Path 2754" d="M201.41,249.9s-1.74.55-4.29,1.32l-4.94,1.46c-3.65,1-7.76,1.71-10.68,2.32a7.81,7.81,0,0,0-1.33,6.72c.68,2.54,4.17,3.59,4.75,3.44.24-.17.45-.32.53-.36a12.511,12.511,0,0,1,3.34-1.82,3.173,3.173,0,0,1,.37-.15,15.541,15.541,0,0,1,1.65-.47,13.621,13.621,0,0,1,3.45-.37l.38-.63,6.08-10.29Z" transform="translate(-11.87 -9.57)" fill="#fcba81"/>
      <path id="Path_2755" data-name="Path 2755" d="M192.33,255.45h0c-1.75,1.59-5.22,5.12-6.86,9.34a12.76,12.76,0,0,1,3.33-1.83,9.117,9.117,0,0,0-.1,1.76c.42-.08.86-.16,1.33-.21l.29-.67.5-1.49,2.6-7.83S193,254.85,192.33,255.45Z" transform="translate(-11.87 -9.57)" fill="#e15f60"/>
      <path id="Path_2756" data-name="Path 2756" d="M209.5,268.13s-4.22,2.21-7.13-.35L209,265.5Z" transform="translate(-11.87 -9.57)" fill="#3f49a5"/>
      <path id="Path_2757" data-name="Path 2757" d="M194,253.68a23.424,23.424,0,0,0-1.68,1.77h0a18.21,18.21,0,0,0-2.21,3.38,12.93,12.93,0,0,0-1.32,4.13,9.119,9.119,0,0,0-.1,1.76,6.62,6.62,0,0,0,1.26,3.82c3.76,1.87,9.33,1,13.5-.06,1.69-.43,3.15-.92,4.16-1.28s1.47-.56,1.47-.56h.11c5.34-1.73,4.55-9.07.8-13.7a8.387,8.387,0,0,0-.7-.77,9.841,9.841,0,0,0-4.24-2.74c-2.74-.84-5.59.28-7.93,1.82l-.37.25a24.348,24.348,0,0,0-2.75,2.18Z" transform="translate(-11.87 -9.57)" fill="#fcba81"/>
      <path id="Path_2758" data-name="Path 2758" d="M206.66,252.82s2.54,1.81,1.79,6.56c-.4,2.51-2.62,5.16-.5,8.39,1.8,2.73,7.6,2.42,9.51-.24,2.75-3.83,1.65-10.48-2.76-14.16C210.56,249.9,207.7,251.08,206.66,252.82Z" transform="translate(-11.87 -9.57)"/>
      <path id="Path_2759" data-name="Path 2759" d="M209.28,253.36s-17.58,5.87-9.78,1.1c0,0,2.19-1.23,1.75-2.89s-6.46.53-9.06,1.11c0,0,2.24-4.21,10.24-6.72s12.09,2.55,8.95,6.07Z" transform="translate(-11.87 -9.57)"/>
      <path id="Path_2760" data-name="Path 2760" d="M200,252.08s0,1-1.71,1.39-2.2-.64-1.32-1,1.55.42,1.19.66A2.17,2.17,0,0,0,200,252.08Z" transform="translate(-11.87 -9.57)" fill="#e15f60"/>
      <path id="Path_2761" data-name="Path 2761" d="M204.64,244.84a35.5,35.5,0,0,0-6.1.94c-1,.39-4.15,1.72-4.71,2.51s-.93,1.65-1.5,2.52a17.692,17.692,0,0,1-1.67,2l3.63,2.46c1.23-2.16,2.64-2.49,3.52-4.15a8.28,8.28,0,0,0,.76-2.09l2.48-1.31s2.55-.57,3-1.21a.74.74,0,0,0,.2-.6C204.87,245.47,204.88,244.9,204.64,244.84Z" transform="translate(-11.87 -9.57)" fill="#fcba81"/>
      <path id="Path_2762" data-name="Path 2762" d="M160,256s-10.87,26-3.17,34.76c2.52,2.86,9,1.89,12.09-.32a57.23,57.23,0,0,0,17.16-19.28l-17.73,3.26" transform="translate(-11.87 -9.57)" fill="#cfcfcf" opacity="0.67"/>
      <path id="Path_2763" data-name="Path 2763" d="M164.42,249.78c-7.64,6.13-13.59,33.88-2.24,39.09S196.47,256,196.47,256a8.34,8.34,0,0,0-5.34-4s-15.59,13.4-18.85,17c0,0,4.7-10.67,3.49-15.79S166.73,247.93,164.42,249.78Z" transform="translate(-11.87 -9.57)" fill="#e1edf9"/>
      <path id="Path_2764" data-name="Path 2764" d="M166.61,274.49s1.23-1.32,3.15-3.23c1-.94,2.07-2.06,3.3-3.22l3.84-3.63,3.91-3.55c1.25-1.14,2.45-2.15,3.46-3.05,2-1.76,3.45-2.89,3.45-2.89s-1.23,1.32-3.15,3.22c-1,.94-2.07,2.07-3.3,3.23L177.43,265l-3.91,3.55c-1.25,1.14-2.45,2.15-3.47,3C168,273.36,166.61,274.49,166.61,274.49Z" transform="translate(-11.87 -9.57)" fill="#dfdfdf"/>
      <path id="Path_2765" data-name="Path 2765" d="M172.17,268.85a14.137,14.137,0,0,0,.57-1.34,31.073,31.073,0,0,0,.94-3.13c.28-1.16.49-2.34.61-3.23s.18-1.49.18-1.49a36.9,36.9,0,0,1-.4,4.8,30.373,30.373,0,0,1-.7,3.26,14.526,14.526,0,0,1-.48,1.46Z" transform="translate(-11.87 -9.57)" fill="#dfdfdf"/>
      <g id="issues-graphics" transform="translate(-107.041 212.38)">
        <path id="Path_2774" data-name="Path 2774" d="M89.278,234.135l13.057,109.729H99.589L84.42,234.135l1.7-1.485Z" transform="translate(79.626 -195.584)" fill="#141939" fill-rule="evenodd"/>
        <path id="Path_2775" data-name="Path 2775" d="M194.977,234.135,181.92,343.865h2.745l15.169-109.729-1.7-1.485Z" transform="translate(-77.225 -195.584)" fill="#141939" fill-rule="evenodd"/>
        <path id="Path_2776" data-name="Path 2776" d="M317.854,214.5a3.165,3.165,0,1,0,0-6.331c-6.2,0-23.533.414-26.285-1.412-2.039-1.357-3.494-4.322-3.494-10.494V151.715a3.165,3.165,0,0,0-3.165-3.165H254.93v52.71l7.749,9.046h9.283v-1.357a12.077,12.077,0,0,0,3.178,3.08c3.652,2.435,7.847,2.478,11.566,2.478Z" transform="translate(-247.863 -131.055)" fill="#bbb" fill-rule="evenodd"/>
        <path id="Path_2777" data-name="Path 2777" d="M306.233,251.18H291.77a3.482,3.482,0,0,0-3.47,3.476h0a3.482,3.482,0,0,0,3.47,3.47h14.463a3.482,3.482,0,0,0,3.47-3.47h0A3.482,3.482,0,0,0,306.233,251.18Z" transform="translate(-256.859 -171.211)" fill="#141939" fill-rule="evenodd"/>
        <path id="Path_2780" data-name="Path 2780" d="M336.115,214.5a3.165,3.165,0,0,0,0-6.331h-24.7c-2.818,0-5.99-.03-8.072-1.412s-3.5-4.322-3.5-10.494V151.715a3.165,3.165,0,0,0-6.331,0v44.547c0,8.729,2.648,13.3,6.343,15.76s7.847,2.478,11.566,2.478Z" transform="translate(-289.608 -131.055)" fill="#676767" fill-rule="evenodd"/>
        <path id="Path_2781" data-name="Path 2781" d="M250.608,206.526c19.893,4.523,28.208,2.319,30.954,24.574,2.082,16.917,6.27,55.571,6.27,55.571s-2.593,4.5-2.928,4.565-8.212-2.076-8.212-2.076-7.767-45.606-9.782-51.255-1.491-9.825-7.67-9.825H237.813l-4.8-16.344,1.936-1.881a16.309,16.309,0,0,1-4.018-.055c-.877-.536-14.658-5.582-14.658-5.582s9.88-2.958,10.756-3.293,15.09-1.516,15.09-1.516.037,3.9.743,4.742a4.791,4.791,0,0,0,2.216,1.217h0Z" transform="translate(-191.142 -150.955)" fill="#313e7e" fill-rule="evenodd"/>
        <path id="Path_2782" data-name="Path 2782" d="M289.631,208.162l.2.049c-1.077,1.461-2.289,3.275-2.392,4.212-.134,1.217,2.161,11.408,3.525,17.294H276.836l-1.6-5.479c-.037-8.607.14-20.648.14-20.648l6.057.895a2.983,2.983,0,0,0,.451,1.278,4.791,4.791,0,0,0,2.216,1.217h0Z" transform="translate(-230.165 -152.591)" fill="#2b3268" fill-rule="evenodd"/>
        <path id="Path_2783" data-name="Path 2783" d="M249.043,134.13H230.818c-6.13,0-14.9,4.45-18.3,9.271s-4.681,7.913-2.386,12.479,2.131,4.766,2.131,4.766l1.534,3.707s-2.131,6.58-2.727,8.248-4.34,7.7-4.553,8.577a5.113,5.113,0,0,0,.1,2.076s2.587-1.735,13.928-2.721,23.631,2.325,23.631,2.325,5.266-2.149,8.79-1.96a41.329,41.329,0,0,0-1.942-7.268c.037,0,2.295-3.8,4.261-6.556,2.307-3.184,4.705-6.921,5.272-7.755l31.867-.919,3.652-2.514s3.829-4.9-1.96-11.024c0,0-1.784-1.668-6.471-1.759-5.953-5.284-7.512-8.62-16.01-8.62C263.5,134.477,249.043,134.13,249.043,134.13Z" transform="translate(-194.647 -125.413)" fill="#13a0f0" fill-rule="evenodd"/>
        <path id="Path_2784" data-name="Path 2784" d="M275.76,175.968l1.522,3.652s-2.131,6.58-2.727,8.248-4.34,7.7-4.553,8.577a5.114,5.114,0,0,0,.1,2.076s1.114-.749,5.089-1.54a17.717,17.717,0,0,0,.743-1.784c4.219-11.669,6.471-12.856,9.807-12.856H318.8l3.36-4.943c-3.823-.8-13.222-2.825-15.626-3.707-3.044-1.114-24.026,0-24.026,0Z" transform="translate(-258.137 -140.699)" fill="#585858" fill-rule="evenodd"/>
        <path id="Path_2785" data-name="Path 2785" d="M289.3,151.9l-.554.609-2.551,2.776,2.855,2.666h5.278s1.023-4.407.937-4.73S293.131,149.533,289.3,151.9Z" transform="translate(-241.14 -132.038)" fill="#cf8577" fill-rule="evenodd"/>
        <path id="Path_2786" data-name="Path 2786" d="M230.37,231s15.516,1.053,19.826,1.625,7.658,3.932,8.808,8.912,9.673,60.075,9.673,60.075" transform="translate(-180.57 -163.315)" fill="none" stroke="#2b3268" stroke-linecap="round" stroke-linejoin="round" stroke-width="1.42" fill-rule="evenodd"/>
        <path id="Path_2787" data-name="Path 2787" d="M291.346,137.63l-2.9.645-1.449,9,.17,1.577s.268-1.826,1.321-2.137.56,2.636.426,3.342l4.091,1.3Z" transform="translate(-239.373 -126.782)" fill="#242854" fill-rule="evenodd"/>
        <path id="Path_2788" data-name="Path 2788" d="M271.443,148.273c4.218-.049,4.925-8.522.128-8.656,0,0,1.321-9.691.639-12.844s-8.133-5.594-11.164-5.381c-6.446.457-8.1,1.041-8.93,3.525a13.885,13.885,0,0,0-3.622-.231c-1.217.225-4.085,4.176-4.085,7.232s1.217,11.779,3.829,14.652S271.443,148.273,271.443,148.273Z" transform="translate(-195.334 -120.424)" fill-rule="evenodd"/>
        <path id="Path_2789" data-name="Path 2789" d="M282.622,212.133c.03,0,2.24-1.345,11.274-2.258,4.5-.323,11.176-1.4,16.91-1.065,12.278.712,16.983,7.3,16.046,18.53-1.619,19.425-5.1,47.432-8.76,66.918-.043.207.085.609-.116.609l-10.184-.743s1.607-50.524,1.741-54.1-1.747-8.315-5.582-8.315H292.867C283.225,231.679,279.639,221.172,282.622,212.133Z" transform="translate(-270.046 -154.608)" fill="#313e7e" fill-rule="evenodd"/>
        <path id="Path_2790" data-name="Path 2790" d="M326.121,212.444c.03,0,2.24-1.345,11.274-2.258,1.887-.134,4.158-.4,6.58-.645l-18.8,10.628A19.845,19.845,0,0,1,326.121,212.444Z" transform="translate(-313.544 -154.919)" fill="#2b3268" fill-rule="evenodd"/>
        <path id="Path_2791" data-name="Path 2791" d="M242.9,163.021c3.494-2.934,1.455-12.887-7.025-10.178-6.026,1.924-16.247,5.819-17.513,6.087-1.717.4-5.576,0-6.556,0A3.908,3.908,0,0,0,208.331,163H242.9Z" transform="translate(-143.002 -132.554)" fill="#e7b3a2" fill-rule="evenodd"/>
        <path id="Path_2792" data-name="Path 2792" d="M248.461,162.16h-.706a4.931,4.931,0,0,1-2.277-4.785c.274-3.433,4.054-6.836,6.909-7.183s33.827,7.183,36.731,7.633,9.411,0,11.061,0a7.83,7.83,0,0,1,4.5,1.631s2.94.651,3.792.694,0,1.881-.639,2.009Z" transform="translate(-229.901 -131.693)" fill="#e7b3a2" fill-rule="evenodd"/>
        <path id="Path_2793" data-name="Path 2793" d="M326.227,262.1s2.569-19.735,3.336-28.349-.962-12.26-4.87-12.26H310.011s-5.229.609-4.316-9.679" transform="translate(-287.421 -155.807)" fill="none" stroke="#2b3268" stroke-linecap="round" stroke-linejoin="round" stroke-width="1.42" fill-rule="evenodd"/>
        <path id="Path_2794" data-name="Path 2794" d="M198.15,343.211a2.24,2.24,0,0,1,2.654-1.217c1.881.523,13.045,6.666,14.792,7.427s3.579,3.652,2.2,5.308H191.259c-1.564-.944-3.074-4.2-1.455-9.855S191.021,345.159,198.15,343.211Z" transform="translate(-105.057 -206.71)" fill="#13a0f0" fill-rule="evenodd"/>
        <path id="Path_2795" data-name="Path 2795" d="M201.73,343.211a2.24,2.24,0,0,1,2.654-1.217c1.175.329,5.941,2.831,9.794,4.87a8.86,8.86,0,0,1-4.078,1.473C209.412,348.185,201.73,343.211,201.73,343.211Z" transform="translate(-108.637 -206.71)" fill="#008ad8" fill-rule="evenodd"/>
        <rect id="Rectangle_948" data-name="Rectangle 948" width="30.242" height="3.001" rx="1.28" transform="translate(83.706 144.999)" fill="#fdfbfc"/>
        <path id="Path_2796" data-name="Path 2796" d="M308.245,343.586s-3.171-3.932-7.049-.8a5.716,5.716,0,0,0-2.9,2.843c-.791,1.991-2.289,2.891-2.557,5.071s.353,3.884,3.129,3.884h4.492c1.978,0,4.931.335,5.941-2.319s0-5.071.353-6.446S308.245,343.586,308.245,343.586Z" transform="translate(-261.409 -206.58)" fill="#13a0f0" fill-rule="evenodd"/>
        <path id="Path_2797" data-name="Path 2797" d="M306.245,343.593s-3.171-3.938-7.049-.81a5.6,5.6,0,0,0-.931.517,16.025,16.025,0,0,0-.237,4.03c.335.937,5.339.737,6.045.4.53-.25,1.729-2.794,2.3-4.072Z" transform="translate(-259.409 -206.581)" fill="#008ad8" fill-rule="evenodd"/>
        <path id="Path_2798" data-name="Path 2798" d="M296.149,361.011h13.13a.779.779,0,0,0,.785-.779v-1.443a.785.785,0,0,0-.785-.779h-13.13a.779.779,0,0,0-.779.779v1.443A.779.779,0,0,0,296.149,361.011Z" transform="translate(-261.525 -213.011)" fill="#fdfbfc" fill-rule="evenodd"/>
        <path id="Path_2799" data-name="Path 2799" d="M92.054,174h103.77a2.782,2.782,0,0,1,2.77,2.77h0a2.782,2.782,0,0,1-2.77,2.77H92.054a2.776,2.776,0,0,1-2.764-2.77h0A2.776,2.776,0,0,1,92.054,174Z" transform="translate(-24.607 -141.013)" fill="#141939" fill-rule="evenodd"/>
        <path id="Path_2800" data-name="Path 2800" d="M252.36,174h65.347a2.776,2.776,0,0,1,2.77,2.77h0a2.776,2.776,0,0,1-2.77,2.77H252.36a2.782,2.782,0,0,1-2.77-2.77h0a2.782,2.782,0,0,1,2.77-2.77Z" transform="translate(-244.069 -141.013)" fill-rule="evenodd"/>
        <path id="Path_2801" data-name="Path 2801" d="M84.39,169.49H199.567a2.776,2.776,0,0,1,2.77,2.745h0a2.776,2.776,0,0,1-2.77,2.77H84.39a2.782,2.782,0,0,1-2.77-2.77h0A2.782,2.782,0,0,1,84.39,169.49Z" transform="translate(-23.681 -139.248)" fill="#464646" fill-rule="evenodd"/>
        <path id="Path_2802" data-name="Path 2802" d="M253.975,165.168l-5.363.158m1.333-.944-4.06-.4m-.444-1.217a7.812,7.812,0,0,1,4.5,1.631s2.94.651,3.792.694,0,1.881-.639,2.009" transform="translate(-175.163 -136.619)" fill="none" stroke="#cf8577" stroke-linecap="round" stroke-linejoin="round" stroke-width="1.42" fill-rule="evenodd"/>
        <path id="Path_2803" data-name="Path 2803" d="M274.524,144.381c-10.166,2.228-19.686-5.168-25.244-16.058a4.01,4.01,0,0,1,1.826-1.552,5.32,5.32,0,0,1,1.065-.055c5.217,7.688,13.556,12.424,21.707,8.333-.828,3.385-1.893,6.745-1.893,6.745a3.159,3.159,0,0,1,2.538,2.587Z" transform="translate(-197.928 -122.51)" fill="#0a0a0a" fill-rule="evenodd"/>
        <path id="Path_2804" data-name="Path 2804" d="M238.025,169.49h78.319a2.776,2.776,0,0,1,2.77,2.77h0a2.776,2.776,0,0,1-2.77,2.77H238.025a2.776,2.776,0,0,1-2.745-2.794h0A2.776,2.776,0,0,1,238.025,169.49Z" transform="translate(-233.996 -139.248)" fill-rule="evenodd"/>
        <path id="Path_2805" data-name="Path 2805" d="M238.559,119.81H198.03a2.325,2.325,0,0,0-2.252,2.039l-2.5,24.2a1.826,1.826,0,0,0,1.826,2.039h40.529a2.319,2.319,0,0,0,2.246-2.039l2.5-24.2a1.826,1.826,0,0,0-1.826-2.039Z" transform="translate(-129.706 -119.81)" fill="#13a0f0" fill-rule="evenodd"/>
        <path id="Path_2806" data-name="Path 2806" d="M243.372,165.91H196.36a1.09,1.09,0,0,0-1.09,1.09h0a1.09,1.09,0,0,0,1.09,1.09h47.012a1.09,1.09,0,0,0,1.09-1.09h0a1.1,1.1,0,0,0-1.09-1.09Z" transform="translate(-134.988 -137.848)" fill="#008ad8" fill-rule="evenodd"/>
        <path id="Path_2807" data-name="Path 2807" d="M275.886,165.91H269.61a1.1,1.1,0,0,0-1.09,1.09h0a1.09,1.09,0,0,0,1.09,1.09h6.276a1.09,1.09,0,0,0,1.09-1.09h0A1.1,1.1,0,0,0,275.886,165.91Z" transform="translate(-212.091 -137.848)" fill="#008ad8" fill-rule="evenodd"/>
        <path id="Path_2808" data-name="Path 2808" d="M229.658,139.5a3.951,3.951,0,0,1,1.79.414,2.143,2.143,0,0,0-.651,1.333,1.753,1.753,0,0,0,1.777,1.966,2.076,2.076,0,0,0,.944-.225,4.164,4.164,0,0,1,0,.779,4.809,4.809,0,0,1-4.681,4.261,3.811,3.811,0,0,1-3.859-4.261A4.8,4.8,0,0,1,229.658,139.5Z" transform="translate(-142.129 -127.514)" fill="#fff" fill-rule="evenodd"/>
        <path id="Path_2810" data-name="Path 2810" d="M325.024,161.3a14.011,14.011,0,0,1,.158-5.132.609.609,0,0,0-.243-.414c-.213-.128-30.357-7.2-30.357-7.2s-4.383.609-5.868,1.924a13.023,13.023,0,0,0-2.958,5.351c-.17.913,1.138,5.479,1.138,5.479Z" transform="translate(-270.781 -131.055)" fill="#13a0f0" fill-rule="evenodd"/>
        <line id="Line_103" data-name="Line 103" x1="18.499" y1="4.559" transform="translate(27.983 18.28)" fill="none" stroke="#007abf" stroke-linecap="round" stroke-linejoin="round" stroke-width="1.42"/>
        <path id="Path_2816" data-name="Path 2816" d="M261.268,234.135l13.057,109.729H271.58L256.41,234.135l1.7-1.485Z" transform="translate(-197.059 -195.584)" fill-rule="evenodd"/>
        <path id="Path_2817" data-name="Path 2817" d="M366.967,234.135,353.91,343.865h2.745l15.169-109.729-1.7-1.485Z" transform="translate(-353.91 -195.584)" fill-rule="evenodd"/>
        <path id="Path_2818" data-name="Path 2818" d="M149.81,149.631h0v3.926h18.067v-3.926h0a1.747,1.747,0,0,0-1.741-1.741H151.527a1.747,1.747,0,0,0-1.717,1.741Z" transform="translate(-30.731 -130.797)" fill="#5a5a5a" fill-rule="evenodd"/>
        <path id="Path_2819" data-name="Path 2819" d="M164.993,162.158H147.948a1.558,1.558,0,0,1-1.558-1.552V150.75a1.747,1.747,0,0,0,1.741,1.741h16.862a1.558,1.558,0,0,1,1.552,1.558v6.556A1.558,1.558,0,0,1,164.993,162.158Z" transform="translate(-27.317 -131.916)" fill-rule="evenodd"/>
        <path id="Path_2820" data-name="Path 2820" d="M149.554,158.78h-3.214a1.747,1.747,0,0,0-1.741,1.741h0a1.747,1.747,0,0,0,1.741,1.741h3.214a.505.505,0,0,0,.511-.505v-2.435a.511.511,0,0,0-.511-.542Z" transform="translate(-9.747 -135.058)" fill="#fff" fill-rule="evenodd"/>
        <line id="Line_104" data-name="Line 104" x1="0.079" y1="3.951" transform="translate(127.699 8.924)" fill="none" stroke="#fff" stroke-linecap="round" stroke-linejoin="round" stroke-width="4.25"/>
        <line id="Line_105" data-name="Line 105" x1="0.944" y1="1.558" transform="translate(122.184 12.85)" fill="none" stroke="#fff" stroke-linecap="round" stroke-linejoin="round" stroke-width="4.25"/>
        <line id="Line_106" data-name="Line 106" y1="1.589" x2="0.877" transform="translate(132.447 12.923)" fill="none" stroke="#fff" stroke-linecap="round" stroke-linejoin="round" stroke-width="4.25"/>
        <rect id="Rectangle_971" data-name="Rectangle 971" width="3.762" height="3.762" rx="1.24" transform="translate(156.498 55.967)" fill="#fff"/>
        <rect id="Rectangle_972" data-name="Rectangle 972" width="3.762" height="3.762" rx="1.24" transform="translate(148.785 55.967)" fill="#fff"/>
        <rect id="Rectangle_973" data-name="Rectangle 973" width="3.762" height="3.762" rx="1.24" transform="translate(141.067 55.967)" fill="#fff"/>
        <rect id="Rectangle_974" data-name="Rectangle 974" width="3.762" height="3.762" rx="1.24" transform="translate(133.354 55.967)" fill="#fff"/>
        <path id="Path_2838" data-name="Path 2838" d="M173.441,327.057v.609h-.609a.469.469,0,0,0-.463.463h0a.469.469,0,0,0,.463.463h.609v.609a.463.463,0,0,0,.463.457h0a.463.463,0,0,0,.457-.457v-.609h.609a.463.463,0,0,0,.463-.463h0a.463.463,0,0,0-.463-.463h-.609v-.609a.463.463,0,0,0-.457-.457h0A.463.463,0,0,0,173.441,327.057Z" transform="translate(-52.018 -200.721)" fill="#fff" fill-rule="evenodd"/>
        <path id="Path_2839" data-name="Path 2839" d="M213.551,206.707v.609h-.609a.463.463,0,0,0-.463.463h0a.463.463,0,0,0,.463.463h.609v.609a.463.463,0,0,0,.463.457h0a.463.463,0,0,0,.457-.457v-.609h.609a.463.463,0,0,0,.463-.463h0a.463.463,0,0,0-.463-.463h-.609v-.609a.463.463,0,0,0-.457-.457h0a.463.463,0,0,0-.463.457Z" transform="translate(-116.545 -153.631)" fill="#fff" fill-rule="evenodd"/>
        <path id="Path_2840" data-name="Path 2840" d="M146.171,187.477v.609h-.609a.463.463,0,0,0-.463.463h0a.469.469,0,0,0,.463.463h.609v.609a.469.469,0,0,0,.463.463h0a.463.463,0,0,0,.463-.463v-.609h.609a.463.463,0,0,0,.457-.463h0a.463.463,0,0,0-.457-.463H147.1v-.609a.463.463,0,0,0-.463-.457h0a.463.463,0,0,0-.463.457Z" transform="translate(-8.148 -146.107)" fill="#fff" fill-rule="evenodd"/>
      </g>
    </g>
  </g>
</svg>
