<svg xmlns="http://www.w3.org/2000/svg" width="588.133" height="357.452" viewBox="0 0 588.133 357.452">
  <g id="review-note" transform="translate(0 -0.03)">
    <path id="Path_3258" data-name="Path 3258" d="M721.532,642.268c28.494,50.985-12.737,151.021-274.21,81.5-131.1-34.857-229.033,43.669-249.207-11.145-47.005-127.669,144.955-275.356,251.7-172.248C547.388,634.619,669.676,549.472,721.532,642.268Z" transform="translate(-159.396 -400.466)" fill="none" stroke="#c1e8ff" stroke-miterlimit="10" stroke-width="2" stroke-dasharray="8 8"/>
    <path id="Path_3259" data-name="Path 3259" d="M706.63,856.915H173.49C190.175,733.642,303.15,638.29,440.051,638.29S689.945,733.642,706.63,856.915Z" transform="translate(-145.995 -502.885)" fill="#ebf3fa"/>
    <rect id="Rectangle_1254" data-name="Rectangle 1254" width="234.339" height="321.456" rx="8" transform="translate(273.707 31.492)"/>
    <rect id="Rectangle_1255" data-name="Rectangle 1255" width="192.879" height="280.18" transform="translate(294.886 44.447)" fill="#f6f5f5"/>
    <path id="Path_3260" data-name="Path 3260" d="M1542,238.37c.061,109.256,3.589,241.024-8.684,270.2-54.056,5.265-117.359,6.957-184.2,7.278l25.41-276.632Z" transform="translate(-1054.238 -193.923)" fill="#daebf9"/>
    <path id="Path_3261" data-name="Path 3261" d="M1488.413,499.785c-84.253,13.485-140.558,14.195-186.233,10.8,5.913-63,8.29-167.665,10.676-272.158l101.527.227,91.886,6.066C1507.609,353.174,1507.746,453.357,1488.413,499.785Z" transform="translate(-1017.974 -193.969)" fill="#fff"/>
    <rect id="Rectangle_1256" data-name="Rectangle 1256" width="101.493" height="15.459" transform="translate(339.199 70.295) rotate(1.35)" fill="#13a0f0"/>
    <rect id="Rectangle_1257" data-name="Rectangle 1257" width="91.547" height="7.076" transform="translate(368.706 108.352) rotate(1.35)" fill="#13a0f0"/>
    <rect id="Rectangle_1258" data-name="Rectangle 1258" width="62.226" height="7.076" transform="translate(368.341 123.776) rotate(1.35)" fill="#cfe9ff"/>
    <rect id="Rectangle_1259" data-name="Rectangle 1259" width="21.673" height="21.673" transform="translate(318.197 107.578) rotate(1.35)" fill="#fff" stroke="#13a0f0" stroke-miterlimit="10" stroke-width="3"/>
    <path id="Path_3262" data-name="Path 3262" d="M1467.1,497.407c.682,2.561,1.906,13.289,7.278,10.289,1.237-.682,2.288-2.52,3.214-3.573l5-5.686L1492.6,487.09c.853-.969-2.916-3.4-3.989-2.183l-8.884,10.087-4.442,5.042c-1.028,1.167-3.411,4.931-4.929,5.265l2.486.8c.587.48-.5-2.927-.525-3.021l-1.24-4.747c-.341-1.308-4.467-2.877-3.962-.942Z" transform="translate(-1145.363 -384.13)"/>
    <rect id="Rectangle_1260" data-name="Rectangle 1260" width="75.388" height="7.076" transform="translate(367.775 147.744) rotate(1.35)" fill="#13a0f0"/>
    <rect id="Rectangle_1261" data-name="Rectangle 1261" width="91.547" height="7.076" transform="translate(368.136 161.866) rotate(1.146)" fill="#cfe9ff"/>
    <rect id="Rectangle_1262" data-name="Rectangle 1262" width="21.673" height="21.673" transform="translate(317.272 146.967) rotate(1.35)" fill="#fff" stroke="#13a0f0" stroke-miterlimit="10" stroke-width="3"/>
    <path id="Path_3263" data-name="Path 3263" d="M1462.9,673.247c.669,2.561,1.9,13.287,7.278,10.289,1.237-.694,2.288-2.522,3.214-3.573l5-5.686,10-11.347c.853-.969-2.916-3.4-3.989-2.183l-8.884,10.087-4.442,5.054c-1.028,1.167-3.411,4.931-4.929,5.263l2.488.805c.584.48-.5-2.927-.528-3.02l-1.249-4.742c-.341-1.308-4.467-2.879-3.96-.942Z" transform="translate(-1142.11 -519.976)"/>
    <rect id="Rectangle_1263" data-name="Rectangle 1263" width="91.547" height="7.076" transform="translate(366.846 187.131) rotate(1.35)" fill="#13a0f0"/>
    <rect id="Rectangle_1264" data-name="Rectangle 1264" width="40.942" height="7.076" transform="translate(366.485 202.557) rotate(1.35)" fill="#cfe9ff"/>
    <rect id="Rectangle_1265" data-name="Rectangle 1265" width="21.673" height="21.673" transform="translate(316.342 186.361) rotate(1.35)" fill="#fff" stroke="#13a0f0" stroke-miterlimit="10" stroke-width="3"/>
    <path id="Path_3264" data-name="Path 3264" d="M1460.184,847.691c.669,2.561,1.906,13.289,7.278,10.289,1.24-.682,2.288-2.52,3.216-3.573l5-5.675,10.007-11.347c.853-.969-2.918-3.412-3.989-2.184l-8.884,10.087-4.442,5.042c-1.028,1.167-3.412,4.931-4.929,5.265l2.486.8c.587.48-.5-2.927-.525-3.02q-.621-2.375-1.24-4.747c-.343-1.308-4.467-2.877-3.962-.942Z" transform="translate(-1140.025 -654.75)"/>
    <rect id="Rectangle_1266" data-name="Rectangle 1266" width="91.547" height="7.076" transform="translate(366.871 225.245) rotate(1.146)" fill="#13a0f0"/>
    <rect id="Rectangle_1267" data-name="Rectangle 1267" width="72.319" height="7.076" transform="translate(365.555 241.949) rotate(1.35)" fill="#cfe9ff"/>
    <rect id="Rectangle_1268" data-name="Rectangle 1268" width="21.673" height="21.673" transform="translate(315.414 225.751) rotate(1.35)" fill="#fff" stroke="#13a0f0" stroke-miterlimit="10" stroke-width="3"/>
    <path id="Path_3265" data-name="Path 3265" d="M1456.126,1019.743c.669,2.561,1.906,13.287,7.278,10.287,1.237-.682,2.274-2.52,3.214-3.573l5-5.673,10.007-11.349c.853-.969-2.918-3.412-3.989-2.183l-8.884,10.087-4.442,5.045c-1.028,1.167-3.412,4.929-4.929,5.263l2.486.8c.587.482-.5-2.927-.526-3.018q-.621-2.375-1.24-4.747c-.341-1.308-4.467-2.879-3.962-.942Z" transform="translate(-1136.888 -787.669)"/>
    <rect id="Rectangle_1269" data-name="Rectangle 1269" width="36.288" height="7.076" transform="translate(364.999 265.617) rotate(1.35)" fill="#13a0f0"/>
    <path id="Path_3266" data-name="Path 3266" d="M1746.808,1280.684l-91.522-2.154-.166,7.076c35.408.83,80.494,2.488,89.691,1.078A7.933,7.933,0,0,0,1746.808,1280.684Z" transform="translate(-1290.642 -997.508)" fill="#cfe9ff"/>
    <rect id="Rectangle_1270" data-name="Rectangle 1270" width="21.673" height="21.673" transform="translate(314.795 264.849) rotate(1.35)" fill="#fff" stroke="#13a0f0" stroke-miterlimit="10" stroke-width="3"/>
    <path id="Path_3267" data-name="Path 3267" d="M1452.077,1190.291c.669,2.561,1.9,13.289,7.278,10.289,1.24-.682,2.288-2.52,3.214-3.573l5-5.672,9.994-11.349c.855-.969-2.916-3.412-3.987-2.184l-8.886,10.087-4.442,5.045c-1.028,1.167-3.412,4.928-4.929,5.263l2.488.8c.587.48-.5-2.927-.528-3.021q-.616-2.37-1.24-4.747c-.341-1.306-4.467-2.877-3.96-.942Z" transform="translate(-1133.75 -919.429)"/>
    <path id="Path_3268" data-name="Path 3268" d="M1667.052,76.5V98.121H1580.17V76.5a12.482,12.482,0,0,1,3.657-8.834,10.323,10.323,0,0,1,.882-.791A12.4,12.4,0,0,1,1592.67,64a14.712,14.712,0,0,0,6.387-1.456,15.308,15.308,0,0,0,2.4-1.447,14.7,14.7,0,0,0,5.331-7.56,14.763,14.763,0,0,1,14.12-10.462h5.422a14.762,14.762,0,0,1,14.119,10.459,14.7,14.7,0,0,0,5.332,7.563,15.3,15.3,0,0,0,2.4,1.447A14.71,14.71,0,0,0,1654.571,64,12.509,12.509,0,0,1,1667.052,76.5Z" transform="translate(-1232.738 -43.05)" fill="#13a0f0"/>
    <path id="Path_3269" data-name="Path 3269" d="M1597.564,195.32V211.4H1496.58V195.32h7.051v10.617h86.883V195.32Z" transform="translate(-1156.196 -150.873)" fill="#e4e4e4"/>
    <ellipse id="Ellipse_252" data-name="Ellipse 252" cx="7.706" cy="7.324" rx="7.706" ry="7.324" transform="translate(383.17 5.661)" fill="#fff"/>
    <path id="Path_3270" data-name="Path 3270" d="M1014.529,452.88c-3.082-.585-5.964-5.734-6.964-7.708a2.435,2.435,0,0,1-.227-1.565l1.226-6.5s2.829.48,2.611,4.249a2.758,2.758,0,0,0,.2,1.137l1.087,2.841,3.2-2.479-1.756-4.958a8.5,8.5,0,0,1-3.564.257c-2.5-.794.776-2.729,1.819-2.943s3.3-1.033,4.34.723,1.651,2.788,1.651,2.788,1.137-3.926.362-12.707c-.034-.4.955-.387,1.235-.1.83.846,2.156,3.425,2.227,11.263,0,0,.139-9.134,1.706-10.073,1.292-.776,1.942,3.7,1.032,11.277,0,0,1.688-6.564,2.893-6.575,2.047-.02.027,17.531-5.09,22.762Z" transform="translate(-790.158 -338.652)" fill="#f9b384"/>
    <path id="Path_3271" data-name="Path 3271" d="M1031.364,533.37q-.136,1.31-.3,2.538h0a73.747,73.747,0,0,1-1.346,7.733c-.027.109-.046.209-.073.309-1.556,6.368-1.838,9.5-7.151,8.661l-5.459-6.223-.055-.064-.4-.455,1.11-3.275.146-.428.819-2.384.1-.309,1.4-4.094.564-1.665Z" transform="translate(-797.332 -421.828)" fill="#f9b384"/>
    <path id="Path_3272" data-name="Path 3272" d="M577.738,1529.63l-1.392,4.349c-9.553,3.136-15.109,6.728-15.466,10.917h27.589l2.211-14.556A21.43,21.43,0,0,1,577.738,1529.63Z" transform="translate(-445.276 -1191.498)" fill="#13a0f0"/>
    <path id="Path_3273" data-name="Path 3273" d="M638.453,1482.09,635,1492.9a21.428,21.428,0,0,0,12.95.7l1.428-9.393Z" transform="translate(-502.539 -1154.77)" fill="#f9b384"/>
    <path id="Path_3274" data-name="Path 3274" d="M813.924,1490.1l.81-11.013-12.964.682-.71,10.153A21.216,21.216,0,0,0,813.924,1490.1Z" transform="translate(-630.83 -1152.453)" fill="#f9b384"/>
    <path id="Path_3275" data-name="Path 3275" d="M825.747,1542.655c-.357-4.189-5.231-9.93-15.921-11.295l.328-4.453a21.217,21.217,0,0,1-12.864-.177l-1.11,15.921Z" transform="translate(-627.06 -1189.257)" fill="#13a0f0"/>
    <path id="Path_3276" data-name="Path 3276" d="M705.7,434.585l-15.639.109V411.04h15.166l.009,1.447.073,7.5.109,12.036Z" transform="translate(-533.112 -317.53)" fill="#f9b384"/>
    <path id="Path_3277" data-name="Path 3277" d="M764.737,472.916c-2.811,2.957-10.144-.382-13.237-3.639l13.164-3.867Z" transform="translate(-592.542 -369.325)" fill="#e28b6d"/>
    <path id="Path_3278" data-name="Path 3278" d="M741.6,376.559a33.833,33.833,0,0,1-.409,5.322c-.764,4.776-2.784,8.888-7.442,9.016-11.008.318-14.147-5.977-16.221-11.126s1.292-17.561,1.292-17.561l14.247-1.41,7.824,6.414a58.375,58.375,0,0,1,.71,9.346Z" transform="translate(-565.773 -288.507)" fill="#f9b384"/>
    <path id="Path_3279" data-name="Path 3279" d="M694.407,344.957s3.141-.146,3.678-8.252c5.616,1.881,9.719.166,12.964-3.573,2.773,3.664,10.54,4.813,13.162-2.691,1.9-5.42-3.334-13.494-10.953-8.6-7.467-3.773-18.793-3.514-22.062,5.741,0,0-11.331,5.231.666,16.726A14.425,14.425,0,0,0,694.407,344.957Z" transform="translate(-542.21 -256.644)" fill="#102048"/>
    <path id="Path_3280" data-name="Path 3280" d="M761.21,888.34l-8.643,130.71H732.25l5.079-126.837,3.109-1.44Z" transform="translate(-565.706 -686.272)" fill="#373737"/>
    <path id="Path_3281" data-name="Path 3281" d="M578.5,776.745,564.25,925.339h22.137l21.077-123.425,23.956-7.278,1.062-26.383-53.374-1.212Z" transform="translate(-435.916 -592.561)"/>
    <path id="Path_3282" data-name="Path 3282" d="M678.214,803.106c12.093,4.339,40.462-.621,46.352-6.666l-4.185-8.37-46.662,6.2Z" transform="translate(-532.452 -618.599)" fill="#102048" opacity="0.6"/>
    <path id="Path_3283" data-name="Path 3283" d="M748.217,588.188c-.391.164-.792.337-1.2.491a82.125,82.125,0,0,1-15.157,4.512,69.556,69.556,0,0,1-10.162,1.246,58.72,58.72,0,0,1-15.957-1.292l6.778-63.183.828-7.706s8.87,10.917,18.65-1.137Z" transform="translate(-557.189 -412.364)" fill="#fff"/>
    <path id="Path_3284" data-name="Path 3284" d="M721.7,612.6A58.718,58.718,0,0,1,705.74,611.3l6.778-63.185,2.42-3.5C720.915,559.151,727.038,591.343,721.7,612.6Z" transform="translate(-557.189 -430.519)" fill="#79a2c7" opacity="0.3"/>
    <path id="Path_3285" data-name="Path 3285" d="M487.087,515.09c6.739,28.612,9.512,58.054-.418,90.749-7.362,2.8-15.377,2.768-23.956.3l2.122-59.437-49.96,34.344L411.84,562.32C431.047,543.955,464.251,516.207,487.087,515.09Z" transform="translate(-330.134 -407.706)" fill="#13a0f0"/>
    <path id="Path_3286" data-name="Path 3286" d="M826.49,635a82.114,82.114,0,0,1-15.157,4.51c-3.011-17.267-3.675-45.634-1.228-58.434Z" transform="translate(-636.664 -458.687)" fill="#79a2c7" opacity="0.3"/>
    <path id="Path_3287" data-name="Path 3287" d="M1031.077,564.457c-.027.109-.046.209-.073.309-1.556,6.368-1.838,9.5-7.151,8.661l-5.458-6.223-.055-.064.71-3.73.146-.428.819-2.384.1-.309Z" transform="translate(-798.691 -442.625)" fill="#e28b6d" opacity="0.6"/>
    <path id="Path_3288" data-name="Path 3288" d="M868.735,534.173s-13.419,28.43-21.379,29.112c-7.717.662-11.372-6.823-11.372-6.823l5.459,41.549a34.845,34.845,0,0,1-21.534,3.029c-7.214-23.426-9.941-53.717-10.478-87.451,5.841.364,17.408.862,21.55,3.525,7.428,4.776,16.6,21.834,16.6,21.834l10.69-14.556Z" transform="translate(-637.296 -406.547)" fill="#13a0f0"/>
    <path id="Path_3289" data-name="Path 3289" d="M350.92,383.891s.812-13.6,2.195-12.964,4.162,12.468,4.162,12.468l-2.968,4.79Z" transform="translate(-283.07 -296.314)" fill="#13a0f0"/>
    <path id="Path_3290" data-name="Path 3290" d="M429.373,1507.75l.4,4.476a14.365,14.365,0,0,1-13.019,15.6l-1.151.1a14.367,14.367,0,0,1-15.593-13.023l-.4-4.476Z" transform="translate(-320.686 -1174.594)" fill="#13a0f0"/>
    <rect id="Rectangle_1271" data-name="Rectangle 1271" width="29.886" height="217.615" transform="translate(59.443 119.095) rotate(-5.13)" fill="#13a0f0"/>
    <rect id="Rectangle_1272" data-name="Rectangle 1272" width="10.615" height="190.748" transform="translate(68.645 113.888) rotate(-5.13)" fill="none" stroke="#000" stroke-miterlimit="10" stroke-width="6"/>
    <path id="Path_3291" data-name="Path 3291" d="M366.55,1351.092l-29.758,2.675-.782-8.734-.546-6.068-1.683-18.65,29.767-2.674,1.674,18.65.546,6.068Z" transform="translate(-257.865 -1017.932)"/>
    <rect id="Rectangle_1273" data-name="Rectangle 1273" width="29.879" height="6.093" transform="translate(77.62 321.025) rotate(-5.14)" fill="#13a0f0"/>
    <path id="Path_3292" data-name="Path 3292" d="M314,451.037l8.267-33.136a7.106,7.106,0,0,0,6.316-.871l15.184,31.332Z" transform="translate(-254.547 -331.949)"/>
    <path id="Path_3293" data-name="Path 3293" d="M704.647,420.149c-.134-.489-2.354-1.16-2.845-1.3a3.4,3.4,0,0,0-2.32.023c-2.686,1.212-2.327,5.061-.935,7.083a6.063,6.063,0,0,0,3.286,2.411c.487.139,5.108.193,4.906-.548C706.739,427.816,704.647,420.165,704.647,420.149Z" transform="translate(-550.806 -333.207)" fill="#f9b384"/>
    <path id="Path_3294" data-name="Path 3294" d="M316.337,755.291a4.046,4.046,0,0,0-5.17-2.672c-3.387,1.169-6.337,3.155-6.791,6.528-.416,3.073,1.119,12.889,7.985,14.149l-.562-5.042s4.2-.98,5.045-2.8C317.434,764.177,317.472,758.85,316.337,755.291Z" transform="translate(-247.063 -591.046)" fill="#f9b384"/>
    <path id="Path_3295" data-name="Path 3295" d="M915.764,616.66c.362,2.149.669,4.3.964,6.459s.546,4.321.823,6.473l.7,6.489c.207,2.165.407,4.333.541,6.507l-.355.041c-.371-2.145-.682-4.3-.976-6.455l-.821-6.473c-.227-2.163-.494-4.321-.682-6.489s-.428-4.337-.564-6.512Z" transform="translate(-719.164 -486.174)" fill="#fff"/>
    <path id="Path_3296" data-name="Path 3296" d="M642.159,615.066c0,2.413-.064,4.822-.136,7.233s-.184,4.815-.273,7.224l-.4,7.219c-.161,2.4-.325,4.81-.56,7.21l-.355-.016c0-2.413.055-4.822.121-7.233l.289-7.223c.136-2.4.241-4.813.407-7.217s.325-4.81.548-7.212Z" transform="translate(-506.741 -484.931)" fill="#fff"/>
    <path id="Path_3304" data-name="Path 3304" d="M708.938,430.88a14.327,14.327,0,0,0-1.64-1.08,1.4,1.4,0,0,0-.723-.187,1.617,1.617,0,0,0-.757.346l-.3-.193a1.417,1.417,0,0,1,.864-.93,1.694,1.694,0,0,1,1.317.152,3.412,3.412,0,0,1,1.522,1.676Z" transform="translate(-557.019 -341.015)" fill="#e28b6d"/>
    <path id="Path_3305" data-name="Path 3305" d="M342.1,809.76l-4.224,12.83L337,812.564A8.708,8.708,0,0,0,342.1,809.76Z" transform="translate(-272.316 -635.356)" fill="#6f3428" opacity="0.6"/>
    <line id="Line_107" data-name="Line 107" x2="588.133" transform="translate(0 353.482)" fill="none" stroke="#000" stroke-miterlimit="10" stroke-width="8"/>
  </g>
</svg>
