<svg xmlns="http://www.w3.org/2000/svg" width="18.8" height="24.333" viewBox="0 0 18.8 24.333">
  <g id="noun_student_3406912" transform="translate(-13.325 -2.575)">
    <g id="Group_45" data-name="Group 45" transform="translate(13.325 2.575)">
      <path id="Path_379" data-name="Path 379" d="M27.766,60.926a6.882,6.882,0,0,1-4.537,1.692A6.774,6.774,0,0,1,18.691,60.9,5.722,5.722,0,0,0,14,66.514v2.845a.919.919,0,0,0,.923.923H31.534a.919.919,0,0,0,.923-.923V66.514A5.674,5.674,0,0,0,27.766,60.926Z" transform="translate(-13.827 -45.949)" fill="#a3a6a8"/>
      <path id="Path_380" data-name="Path 380" d="M34.011,42.965a5.5,5.5,0,0,0,5.511-5.511,5.889,5.889,0,0,0-.128-1.154,13.632,13.632,0,0,1-5.383.948,13.632,13.632,0,0,1-5.383-.948,5.486,5.486,0,0,0,5.383,6.665Z" transform="translate(-24.61 -27.655)" fill="#a3a6a8"/>
      <path id="Path_381" data-name="Path 381" d="M31.878,4.94,23.162,2.633a1.675,1.675,0,0,0-.872,0L13.575,4.94a.33.33,0,0,0,0,.641l3.691.974V9.3a.652.652,0,0,0,.359.59,11.577,11.577,0,0,0,5.1.974,11.577,11.577,0,0,0,5.1-.974.625.625,0,0,0,.359-.59V6.555l2-.538V8.529a.952.952,0,1,0,1.282.9.977.977,0,0,0-.615-.9V5.837l1-.256A.328.328,0,0,0,31.878,4.94Z" transform="translate(-13.325 -2.575)" fill="#a3a6a8"/>
    </g>
  </g>
</svg>
