<svg xmlns="http://www.w3.org/2000/svg" width="48.024" height="33.092" viewBox="0 0 48.024 33.092">
  <g id="noun_send_3119874" transform="translate(-1.032 -8.18)">
    <g id="Layer_4" data-name="Layer 4" transform="translate(1.032 8.18)">
      <path id="Path_2952" data-name="Path 2952" d="M49.057,9.232c0-.018-.007-.035-.007-.053a1.036,1.036,0,0,0-.051-.3c0-.009,0-.019,0-.028-.012-.032-.035-.054-.049-.084a1.022,1.022,0,0,0-.115-.2,1,1,0,0,0-.111-.115,1,1,0,0,0-.084-.086c-.019-.014-.042-.019-.063-.032a1.183,1.183,0,0,0-.323-.135,1,1,0,0,0-.158-.024,1.023,1.023,0,0,0-.207.007c-.031,0-.062,0-.093,0L1.856,18.166A1.045,1.045,0,0,0,1.6,20.116l13.375,6.9L17.356,40.05a1.04,1.04,0,0,0,.1.288c.012.022.026.041.04.063a1.037,1.037,0,0,0,.192.232c.018.016.033.034.052.049a1.037,1.037,0,0,0,.261.154c.015.006.032,0,.048.009s.024.016.038.02a1.058,1.058,0,0,0,.3.043,1.047,1.047,0,0,0,.625-.209l0,0,8.108-6.1,8.92,6.476a1.046,1.046,0,0,0,1.6-.487L48.995,9.573A1.04,1.04,0,0,0,49.057,9.232ZM20.885,28.4c-.027.02-.038.053-.062.075a1,1,0,0,0-.183.221.992.992,0,0,0-.081.153.955.955,0,0,0-.047.089l-1.889,6.415-1.548-8.468L36.806,16.371ZM40.873,11.834,15.9,25.141,5.143,19.591ZM20.279,37.127l1.82-6.178,3.252,2.361Zm15.871,1.439-12.88-9.35L45.81,12.189Z" transform="translate(-1.032 -8.18)" fill="#fff"/>
    </g>
  </g>
</svg>
