<svg id="share-graphics" xmlns="http://www.w3.org/2000/svg" width="371.421" height="411.03" viewBox="0 0 371.421 411.03">
  <path id="Path_981" data-name="Path 981" d="M1309.441,1241.36h-3.016l-3.447,2.427-2.978.491v1.442h9.441Z" transform="translate(-943.529 -900.969)" fill="#13a0f0"/>
  <path id="Path_982" data-name="Path 982" d="M1360.42,933.9l-3.126,2.824-1.6-.787L1353,928.1l6.148-1.549C1359.9,931,1360.42,933.9,1360.42,933.9Z" transform="translate(-990.044 -677.555)" fill="#e9bfaa"/>
  <path id="Path_983" data-name="Path 983" d="M1342.662,870.09c2.685,1.8,3.425,11.108,4.259,16.019l-8.243,1.835-4.278-14.807Z" transform="translate(-976.545 -636.577)" fill="#13a0f0"/>
  <path id="Path_984" data-name="Path 984" d="M1362.82,955.387l1.313,22.987,2.007.071c2.026-4.546,3.565-18.871,1.407-25.1Z" transform="translate(-997.172 -697.006)" fill="#e9bfaa"/>
  <path id="Path_985" data-name="Path 985" d="M1359.634,1044.61l-1.256,3.255-1.758,2,1.407.323a2.32,2.32,0,0,0,2.246-.713l1.009-1.124.359-3.674Z" transform="translate(-992.672 -763.242)" fill="#e9bfaa"/>
  <path id="Path_986" data-name="Path 986" d="M1275.9,818.747l.5,7.437,6.534,0-2.594-8.84Z" transform="translate(-926.038 -593.219)" fill="#e9bfaa"/>
  <path id="Path_987" data-name="Path 987" d="M1291.267,816.5c.219,1.13,1.544,1.889,3.469.628l2.9-2.9.548-5.152-2.77-3.674-6.159,1.736Z" transform="translate(-943.782 -589.633)" fill="#e9bfaa"/>
  <path id="Path_988" data-name="Path 988" d="M1289.774,801.61l-6.033,1.305-1.621.036c-.354,2.029.195,3.211,1.985,3.225l2.525.118,2.035,6.411a7.072,7.072,0,0,0,3.839-.823c.886-.548.836-1.1.93-2.122l.343-3.839C1293.978,802.751,1292.448,801,1289.774,801.61Z" transform="translate(-938.527 -586.787)"/>
  <path id="Path_989" data-name="Path 989" d="M1282.813,832.2h-4.96a1.3,1.3,0,0,1-1.154-.886l-2.83-9.485a.639.639,0,0,1,.622-.886h4.963a1.3,1.3,0,0,1,1.155.886l2.835,9.471a.636.636,0,0,1-.631.9Z" transform="translate(-932.574 -600.909)" fill="#8cadff"/>
  <path id="Path_990" data-name="Path 990" d="M1280.811,832.2h-4.963a1.3,1.3,0,0,1-1.154-.886l-2.83-9.485a.636.636,0,0,1,.62-.886h4.963a1.3,1.3,0,0,1,1.154.886l2.835,9.471a.636.636,0,0,1-.625.9Z" transform="translate(-931.119 -600.909)" fill="#b3c9ff"/>
  <path id="Path_991" data-name="Path 991" d="M1232.1,859.19c-5.758,3.121-10.206,4.862-15.131,8.226l1.16,4.5c4.141-1.568,10.968-6.282,15.276-11.215Z" transform="translate(-891.315 -628.666)" fill="#e9bfaa"/>
  <path id="Path_992" data-name="Path 992" d="M1242.438,818.188l-.751-3.428-.614.354-.175,3.225-1.006,4.108,2.1.946,1.193-2.567Z" transform="translate(-899.902 -591.346)" fill="#e9bfaa"/>
  <path id="Path_993" data-name="Path 993" d="M1246.421,834.736l-.431-2.3,3.334-2.051.145,1.171Z" transform="translate(-904.329 -602.69)" fill="#e9bfaa"/>
  <path id="Path_994" data-name="Path 994" d="M1332.218,1125.253c1.873,12.136,3.233,22.707,1.645,36.911h-3.211l-8.092-36.914Z" transform="translate(-967.951 -821.77)" fill="#e9bfaa"/>
  <path id="Path_995" data-name="Path 995" d="M1308.1,1036.522,1304.43,1003h13.181a157.225,157.225,0,0,1,2.3,33.53Z" transform="translate(-954.792 -733.042)"/>
  <path id="Path_996" data-name="Path 996" d="M1211.371,1241.36h-3.016l-3.447,2.427-2.978.491v1.442h9.441Z" transform="translate(-872.351 -900.969)" fill="#13a0f0"/>
  <path id="Path_997" data-name="Path 997" d="M1267.719,1125.253c-1.988,12.136-4.173,22.707-10.283,36.911h-3.016l3.644-36.914Z" transform="translate(-918.496 -821.77)" fill="#e9bfaa"/>
  <path id="Path_998" data-name="Path 998" d="M1264.16,1036.507a326.726,326.726,0,0,1,3.263-33.527H1280.6a159.64,159.64,0,0,1-4.64,33.53Z" transform="translate(-925.565 -733.027)"/>
  <path id="Path_999" data-name="Path 999" d="M1213.349,883.259c-2,1.711-1.81,4.848.48,5.229,0,0,2.366.063,5.484.077l-.661-7.565C1216.793,881.765,1215.222,882.431,1213.349,883.259Z" transform="translate(-887.686 -644.495)" fill="#e9bfaa"/>
  <path id="Path_1000" data-name="Path 1000" d="M1272.321,888.354c-.022-5.953-1.459-20.566-1.215-25.548,7.428-3.408,17.475-3.921,25.6,0,.274,8.35-1.919,26.889-1.919,26.889l.14,13.469h-23.843Z" transform="translate(-930.586 -629.293)" fill="#13a0f0"/>
  <path id="Path_1001" data-name="Path 1001" d="M1250.33,875.486l-.941-11.366c-3.427.548-8.6,2.375-14.108,4.631a24.956,24.956,0,0,0,0,8.909A65.986,65.986,0,0,0,1250.33,875.486Z" transform="translate(-904.314 -632.244)" fill="#13a0f0"/>
  <path id="Path_1002" data-name="Path 1002" d="M1286.642,544.918l.022-2.479,5.3-2.479,2.26,3.548-5.728,4.069-5.819.842-.447-1.426Z" transform="translate(-930.632 -391.898)" fill="#13a0f0"/>
  <path id="Path_1003" data-name="Path 1003" d="M1110.558,569.591l-5.4-.091-3.751,4.072-3.984.5-.093,1.475H1110.3Z" transform="translate(-796.433 -413.338)" fill="#13a0f0"/>
  <path id="Path_1004" data-name="Path 1004" d="M1179.55,318.162,1201.393,315a157.842,157.842,0,0,1,4.456,26.6,23.507,23.507,0,0,0,4.779,12.065c5.758,7.467,10.719,17.275,14.859,28.1l-5.3,2.641L1197,357.639a23.547,23.547,0,0,1-4-6.518Z" transform="translate(-864.156 -233.697)"/>
  <path id="Path_1005" data-name="Path 1005" d="M1149.053,303.25l19.779,9.8a156,156,0,0,1-11.423,24.429,23.527,23.527,0,0,0-2.9,12.641c.507,9.419-.976,20.308-3.707,31.57l-5.978-.351-3.79-35.674a23.583,23.583,0,0,1,.4-7.637C1143.56,328.307,1149.053,303.25,1149.053,303.25Z" transform="translate(-836.093 -225.169)"/>
  <path id="Path_1006" data-name="Path 1006" d="M1133.227,228.29l6.792,5.5c-4.239,4.448-8.136,8.226-8.136,8.226L1128.2,240l-.8-3.477Z" transform="translate(-826.306 -170.764)" fill="#e9bfaa"/>
  <path id="Path_1007" data-name="Path 1007" d="M1155.949,188.512c2.8-2.8,9.644,2.1,8.448,5.484a110.493,110.493,0,0,1-8.956,10.318l-6.792-5.5Z" transform="translate(-841.729 -141.29)" fill="#13a0f0"/>
  <rect id="Rectangle_332" data-name="Rectangle 332" width="10.431" height="4.919" rx="2.46" transform="matrix(0.771, 0.637, -0.637, 0.771, 309.347, 53.162)" fill="#13a0f0"/>
  <path id="Path_1008" data-name="Path 1008" d="M1079.673,253.21l3.677,2.7-1.974,4.184c-7.56,2.709-18.1.513-22.726-.488l-.839-1.856Z" transform="translate(-775.798 -188.851)" fill="#e9bfaa"/>
  <path id="Path_1009" data-name="Path 1009" d="M1164.2,181.778A29.186,29.186,0,0,1,1185,181.5a3.883,3.883,0,0,1,2.506,3.537c.274,9.471.784,32,.96,39.76a2.632,2.632,0,0,1-2.635,2.693h-26.162a2.638,2.638,0,0,1-2.63-2.83c.579-7.952,2.383-30.53,4.823-40.229a3.839,3.839,0,0,1,2.331-2.657Z" transform="translate(-847.814 -135.511)" fill="#13a0f0"/>
  <path id="Path_1010" data-name="Path 1010" d="M1196.25,180.647a29.34,29.34,0,0,1,11.706-.579c-.927,1.832-4.7,4.152-7.456,4.152C1198.046,184.22,1196.25,182.821,1196.25,180.647Z" transform="translate(-876.276 -135.52)" fill="#e9bfaa"/>
  <path id="Path_1011" data-name="Path 1011" d="M1175.294,138.515l-.694,6.282,7.357-1.154-2.12-7.223Z" transform="translate(-852.515 -99.012)" fill="#e9bfaa"/>
  <path id="Path_1012" data-name="Path 1012" d="M1197.359,139.346c.082,1.174,1.333,2.111,3.447,1.069l3.693-2.194.823-5.542-2.358-4.08-6.474,1Z" transform="translate(-876.451 -98.41)" fill="#e9bfaa"/>
  <path id="Path_1013" data-name="Path 1013" d="M1189.844,130.08a1.289,1.289,0,0,1-1.371-1.371l.378-3.91,1.566,1.272,6.447-1.259c2.792-.274,4.13,1.681,3.565,4.859l-.823,3.869c-.206.968-.143,1.486-.913,1.919l-1.177-2.742-.94.082.408,3.792-1.275,1.116c-2.109,1.678-3.735.938-4.113-.356l-.208-2.61,3.99-.367-.074-4.8,1.434-.927Z" transform="translate(-870.629 -95.642)" fill="#945561"/>
  <path id="Path_1014" data-name="Path 1014" d="M1217.987,147.833c-.214.691-.071,1.346.318,1.464s.875-.343,1.1-1.031.068-1.346-.318-1.467S1218.192,147.145,1217.987,147.833Z" transform="translate(-891.981 -111.605)" fill="#f4acc8"/>
  <path id="Path_1015" data-name="Path 1015" d="M1291.278,230.514l-2.213,3.565-3.513.614-7.952-6.274,5.55-6.82C1287.521,226.209,1291.278,230.514,1291.278,230.514Z" transform="translate(-935.319 -165.908)" fill="#e9bfaa"/>
  <path id="Path_1016" data-name="Path 1016" d="M1245.637,187.869a106.953,106.953,0,0,1,9.5,9.126l-5.55,6.82-9.872-7.8C1237.081,193.076,1242.316,186.5,1245.637,187.869Z" transform="translate(-907.305 -141.292)" fill="#13a0f0"/>
  <path id="Path_1017" data-name="Path 1017" d="M1281.662,318.38l-.916.773-.126,2.054-1.429,1.478-.672,2.63,3.727.03,1.5-3.063.088-2.805Z" transform="translate(-927.939 -231.078)" fill="#e9bfaa"/>
  <path id="Path_1018" data-name="Path 1018" d="M1302.16,249.974l2.83-3.584,4.113,2.117c2.449,7.65,1.1,19.195-.063,23.793l-3.085-.324Z" transform="translate(-953.145 -183.901)" fill="#e9bfaa"/>
  <path id="Path_1019" data-name="Path 1019" d="M1058.539,241.406h-6.767a1.76,1.76,0,0,1-1.574-1.209l-3.869-12.915a.871.871,0,0,1,.847-1.212h6.77a1.763,1.763,0,0,1,1.571,1.212l3.869,12.915A.87.87,0,0,1,1058.539,241.406Z" transform="translate(-767.426 -169.153)" fill="#8cadff"/>
  <path id="Path_1020" data-name="Path 1020" d="M1055.816,241.406h-6.77a1.76,1.76,0,0,1-1.571-1.209l-3.869-12.915a.87.87,0,0,1,.847-1.212h6.767a1.763,1.763,0,0,1,1.574,1.212l3.869,12.915A.871.871,0,0,1,1055.816,241.406Z" transform="translate(-765.449 -169.153)"/>
  <path id="Path_1021" data-name="Path 1021" d="M1052.314,252.91l-.129-1.706,1.22-1.84-.8-2.594-3.195,1.919.321,3.395,1.881,2.613A2.207,2.207,0,0,0,1052.314,252.91Z" transform="translate(-769.701 -184.176)" fill="#e9bfaa"/>
  <rect id="Rectangle_333" data-name="Rectangle 333" width="10.431" height="4.919" rx="2.46" transform="matrix(-0.653, 0.757, -0.757, -0.653, 348.633, 55.19)" fill="#13a0f0"/>
  <path id="Path_1022" data-name="Path 1022" d="M838.8,1159.535c2.912-3.433,10.8-13.321,12.8-15.526,3.2-3.532,8.018.348,5.484,4.387-1.56,2.468-16.5,18.586-20.291,15.63Z" transform="translate(-615.383 -834.382)" fill="#e9bfaa"/>
  <path id="Path_1023" data-name="Path 1023" d="M811.818,1182.544l-2.942,4.335c-4.05-2.775-6-5.18-10.546-10.587l1.154-2.172Z" transform="translate(-587.469 -857.239)" fill="#e9bfaa"/>
  <path id="Path_1024" data-name="Path 1024" d="M762.426,1148.088l-1.278-1.889-1.023-1.527-.176-2.421,3.285.562.836,2.934.239,2.306Z" transform="translate(-551.565 -829.036)" fill="#e9bfaa"/>
  <path id="Path_1025" data-name="Path 1025" d="M883.009,1079.84l6.554,1.755.568,5.7.354,9.871h-6.806C879.765,1090.869,877.991,1081.562,883.009,1079.84Z" transform="translate(-646.696 -788.812)"/>
  <path id="Path_1026" data-name="Path 1026" d="M876.46,1145.186c0-3.219,4.982-6.721,6.148-9.26a12.786,12.786,0,0,1,8.081.425,5.35,5.35,0,0,1,3.546,5.811c-.548,4.439-2.095,8.607-2.394,12.745H876.882C876.882,1150.912,876.46,1148.934,876.46,1145.186Z" transform="translate(-644.175 -829.183)"/>
  <path id="Path_1027" data-name="Path 1027" d="M915.268,1251.91c2.048,7.456,1.645,17.292,1.536,25.987a9.57,9.57,0,0,0,2.652,6.778c6.491,6.737,11.517,14.865,17.6,23.258l-1.5,1.541-25.085-20.429a9.709,9.709,0,0,1-3.291-5.122l-6.669-26.033Z" transform="translate(-661.631 -913.699)" fill="#e9bfaa"/>
  <path id="Path_1028" data-name="Path 1028" d="M835.945,1253.485l6.15-35.373s.614-6.91.664-11.722h14.947c.274,3.891,7.236,7.6,5.854,15.783-.483,2.871-10.362,17.078-15.685,26.324a38.876,38.876,0,0,0-3.773,9.323c-2.6,9.677-6.883,18.712-12.542,29.889l-2.131-.274Z" transform="translate(-610.041 -880.661)" fill="#e9bfaa"/>
  <path id="Path_1029" data-name="Path 1029" d="M994.23,1437.72l-1.5,1.541-.721,3.987-1.632,2.333.908,1,5.682-5.841Z" transform="translate(-718.81 -1043.485)" fill="#13a0f0"/>
  <path id="Path_1030" data-name="Path 1030" d="M784.429,1483.642l-2.131-.271-3.62,1.823-2.844.1-.255,1.324,8.084,1.028Z" transform="translate(-562.91 -1076.618)" fill="#13a0f0"/>
  <path id="Path_1031" data-name="Path 1031" d="M862.665,1218.092a82.729,82.729,0,0,0,1.371-11.722h14.947c.181,2.693,5.89,7.069,6.926,13.107,1.116,6.515,1.25,15.18.579,24.991H858.76Z" transform="translate(-631.329 -880.646)" fill="#13a0f0"/>
  <path id="Path_1032" data-name="Path 1032" d="M869.494,1096.819l-.244,6.617,5.594-2.144-1.363-6.332Z" transform="translate(-630.894 -794.713)" fill="#e9bfaa"/>
  <path id="Path_1033" data-name="Path 1033" d="M889.923,1091.844a8.432,8.432,0,0,0,3.29-1.116,2.468,2.468,0,0,0,1.1-1.239c.823-2.062,2.583-7.532-1.626-8.67a6.028,6.028,0,0,0-3.373.548,3.59,3.59,0,0,0-2.251,3.565,31.827,31.827,0,0,0,.823,5.342,2.024,2.024,0,0,0,2.04,1.571Z" transform="translate(-651.863 -789.461)" fill="#e9bfaa"/>
  <path id="Path_1034" data-name="Path 1034" d="M875.35,1071.715a3.142,3.142,0,0,0,2.931.93l5.484-1.278c2.44-.6,7.031-.921,7.031,5.561,0,3.14,3.713,1.944,6.268,11.146-2,2.142-10.168,3.7-12.858-2.468-1.881-4.324.513-7.258-1.919-9.4C878.967,1076.2,875.35,1076.429,875.35,1071.715Z" transform="translate(-643.37 -782.447)"/>
  <path id="Path_1035" data-name="Path 1035" d="M915.17,1149.4c.121-4.766,6.91-6.436,7.623-1.708.436,2.893-1.02,26.324-5.758,26.532l-1.409-4.711C915.581,1165.58,915.1,1152.376,915.17,1149.4Z" transform="translate(-672.265 -836.017)" fill="#e9bfaa"/>
  <path id="Path_1036" data-name="Path 1036" d="M880.47,1232.93l.6,5.21c-4.434.606-7.464-.178-14.44-1.305l-1-2.224Z" transform="translate(-636.315 -899.923)" fill="#e9bfaa"/>
  <path id="Path_1037" data-name="Path 1037" d="M823.663,1217.132l-2.665-.425-1.774-.488-1.714-1.719,2.857-1.719,2.55,1.678,1.686,1.588Z" transform="translate(-593.342 -880.226)" fill="#e9bfaa"/>
  <path id="Path_1038" data-name="Path 1038" d="M766.952,1144.339h-6.057a1.577,1.577,0,0,1-1.407-1.1l-3.463-11.555a.79.79,0,0,1,.76-1.1h6.055a1.577,1.577,0,0,1,1.407,1.1l3.463,11.555A.781.781,0,0,1,766.952,1144.339Z" transform="translate(-556.73 -825.646)" fill="#8cadff"/>
  <path id="Path_1039" data-name="Path 1039" d="M769.392,1144.339h-6.057a1.577,1.577,0,0,1-1.407-1.1l-3.463-11.555a.79.79,0,0,1,.76-1.1h6.057a1.577,1.577,0,0,1,1.407,1.1l3.463,11.555A.784.784,0,0,1,769.392,1144.339Z" transform="translate(-558.501 -825.646)" fill="#b3c9ff"/>
  <path id="Path_1040" data-name="Path 1040" d="M771.155,1145.5a.167.167,0,0,0,.123-.033.275.275,0,0,0,0-.192l-3.463-11.555a.922.922,0,0,0-.765-.606h-6.063a.187.187,0,0,0-.123.03.274.274,0,0,0,0,.192l3.463,11.555a.924.924,0,0,0,.765.609Z" transform="translate(-560.264 -827.479)" fill="#4f2674"/>
  <path id="Path_1041" data-name="Path 1041" d="M762.97,1139.433l.809-1.2-2.8-2.292L760.7,1137Z" transform="translate(-552.11 -824.456)" fill="#e9bfaa"/>
  <rect id="Rectangle_334" data-name="Rectangle 334" width="118.76" height="237.522" rx="8" transform="translate(41.405 97.868)"/>
  <path id="Path_1042" data-name="Path 1042" d="M202.994,416.82a7.609,7.609,0,0,0-7.6,7.6V616.8a7.612,7.612,0,0,0,7.6,7.6h95.3a7.609,7.609,0,0,0,7.6-7.6V424.421a7.607,7.607,0,0,0-7.6-7.6Z" transform="translate(-149.86 -307.597)" fill="#f8f8f8"/>
  <circle id="Ellipse_90" data-name="Ellipse 90" cx="2.512" cy="2.512" r="2.512" transform="translate(98.274 101.591)" fill="#fff"/>
  <path id="Path_1043" data-name="Path 1043" d="M368.156,1204.154h-26.8a2.512,2.512,0,0,1,0-5.024h26.793a2.512,2.512,0,0,1,0,5.024Z" transform="translate(-253.975 -875.391)" fill="#fff"/>
  <path id="Path_1044" data-name="Path 1044" d="M311.57,1004.21H250.591a283.885,283.885,0,0,0-5.821,46.514h31.188l2.468-9.257c.529,4.135,1.053,6.82,1.557,9.257H309Z" transform="translate(-185.7 -733.92)"/>
  <path id="Path_1045" data-name="Path 1045" d="M448.191,678.565C432.424,666.4,417.679,650.144,405.206,633c-9.545-12.786-5.259-19.37,4.332-22.943,6.033.452,11.138,2.468,15.838,8.47,13.538,17.275,19.409,27.35,29.7,44.666Z" transform="translate(-298.251 -447.849)" fill="#13a0f0"/>
  <path id="Path_1046" data-name="Path 1046" d="M600.047,648.971l-5.226-2.081L589.35,660.8l9.9,4.453C599.836,658.985,600,653.271,600.047,648.971Z" transform="translate(-435.793 -474.58)" fill="#e3e3e3"/>
  <path id="Path_1047" data-name="Path 1047" d="M558.409,697.62l-11.69,29.719,8.073,14.783c8.824-9.249,14.506-25.721,15.808-39.779Z" transform="translate(-404.853 -511.4)" fill="#13a0f0"/>
  <path id="Path_1048" data-name="Path 1048" d="M580.64,594.9l-3.595,1.292a4.76,4.76,0,0,1-4.834-1c-6.746-6.222-13.664-19.707-16.4-27.868l15.279-5.446c2.122,6.855,7.678,19.384,11.936,25.227a5.092,5.092,0,0,1-2.386,7.79Z" transform="translate(-411.45 -412.881)" fill="#234175"/>
  <path id="Path_1049" data-name="Path 1049" d="M514.543,498.189l-12.967,4.623a13.764,13.764,0,0,1-9.244-25.929L505.3,472.26Z" transform="translate(-358.741 -347.835)" fill="#13a0f0"/>
  <path id="Path_1050" data-name="Path 1050" d="M551.884,374.478c-2.484,1.357-2.572,7.552-.274,14.031s6.307,11.223,9.079,10.694l61.085.2L599.047,335.68Z" transform="translate(-407.198 -248.707)" fill="#13a0f0"/>
  <ellipse id="Ellipse_91" data-name="Ellipse 91" cx="13.148" cy="37.783" rx="13.148" ry="37.783" transform="matrix(0.942, -0.336, 0.336, 0.942, 178.84, 87.423)" fill="#234175"/>
  <path id="Path_1051" data-name="Path 1051" d="M718.289,426.32a103.377,103.377,0,0,0,5.106,11.953l13.935-7.609-7.042-19.743-15.608,2.92a103.17,103.17,0,0,0,3.609,12.479Z" transform="translate(-526.757 -303.315)" fill="#13a0f0"/>
  <ellipse id="Ellipse_92" data-name="Ellipse 92" cx="3.65" cy="10.486" rx="3.65" ry="10.486" transform="matrix(0.942, -0.336, 0.336, 0.942, 200.092, 108.829)" fill="#e3e3e3"/>
  <path id="Path_1052" data-name="Path 1052" d="M734.916,388.8c-4.025,1.434-9.115-1.344-14.33-7.826-4.848-6.033-9.419-14.678-12.869-24.355s-5.383-19.269-5.44-27.007c-.063-8.317,2.12-13.688,6.145-15.125s9.117,1.344,14.344,7.823c4.851,6.033,9.422,14.678,12.871,24.355s5.383,19.269,5.44,27C741.137,382,738.944,387.368,734.916,388.8ZM709.54,317.628c-5.117,1.823-5.835,17.824,1.311,37.876s17.824,31.986,22.948,30.163,5.835-17.824-1.313-37.876S714.657,315.8,709.54,317.628Z" transform="translate(-517.753 -233.06)" fill="#e1e1e1"/>
  <path id="Path_1053" data-name="Path 1053" d="M584.056,621.2l-7.894-11.182-3.206-6.907-1.876.869,1.579,8.185,4.812,7.4Zm-.137-19.71,6.529,10.242,1.766-3.691-1.815-4.42L587.14,596.9l-1.275.085Z" transform="translate(-422.533 -438.298)" fill="#e9bfaa"/>
  <path id="Path_1054" data-name="Path 1054" d="M286.771,677.012c.362-13.162,2.676-42.483,3.493-61.168a15.926,15.926,0,0,0-11.747-16.1c-18.443-4.952-40.172-6.581-55.873.31a11.363,11.363,0,0,0-6.8,11.105c.968,25.156,13.834,65.848,13.834,65.848l-7.247,47.1h72.843l-8.572-47.1Z" transform="translate(-164.699 -437.245)" fill="#13a0f0"/>
  <path id="Path_1055" data-name="Path 1055" d="M345.1,677.68l-3.748-79.633a108.956,108.956,0,0,0-29.022-2.4l20.977,82.093-1.7,35.444h13.239Z" transform="translate(-234.735 -437.259)" fill="#e3e3e3"/>
  <path id="Path_1056" data-name="Path 1056" d="M86.87,674.78l-4.98,3.214c.25,2.325.6,5.128,1.08,8.226l9.235-2.366Z" transform="translate(-67.483 -494.823)" fill="#e3e3e3"/>
  <path id="Path_1057" data-name="Path 1057" d="M34.97,609.35l14.344-1.84.617,3.537L53.046,613l-6.463,10.977-6.795.121Z" transform="translate(-25.381 -440.926)" fill="#e9bfaa"/>
  <path id="Path_1058" data-name="Path 1058" d="M162.68,698.908c2.366-18.32,5.745-46.643,16.044-66.838L202.111,644.8c-5.64,19.636-14.75,44.929-23.582,61.209Z" transform="translate(-126.12 -463.824)" fill="#13a0f0"/>
  <path id="Path_1059" data-name="Path 1059" d="M111.895,746.208,89.382,707.89,78,710.273c2.369,15.419,9.995,38.354,21.635,48.4,5.627,4.483,11.451,6.211,17.434,2.364Z" transform="translate(-64.66 -518.854)" fill="#13a0f0"/>
  <path id="Path_1060" data-name="Path 1060" d="M351.9,1006.26l-.524,10.892h14.947l-1.185-10.892Z" transform="translate(-255.029 -730.335)" fill="#234175"/>
  <path id="Path_1061" data-name="Path 1061" d="M316.65,519.02l-3.173,21.734L299.23,528.776l6.946-18.956Z" transform="translate(-217.179 -370.023)" fill="#e9bfaa"/>
  <path id="Path_1062" data-name="Path 1062" d="M349.66,479.331c.211,3.439-3.06,6.636-9.6,4.42L329.4,479.026,324,463l5.281-12.734,19.159.425Z" transform="translate(-243.205 -331.875)" fill="#e9bfaa"/>
  <path id="Path_1063" data-name="Path 1063" d="M378.86,475.8l4.505,8.325-3.773.686Z" transform="translate(-274.973 -345.332)" fill="#f4acc8"/>
  <path id="Path_1064" data-name="Path 1064" d="M339.472,461.261l-5.257.91a6.493,6.493,0,0,1-7.332-4.519s-1.473-8.141-1.544-10.042l14.174-4.387,3.343-10.834-4.727,1.111-18.432.721c-8.21.23-11.336,6.458-8.479,15.463l3.883,10.9c1.045,2.937,1.3,4.535,4.28,5.454l1.064-3.126a6.438,6.438,0,0,0-.823-5.608,6.745,6.745,0,0,1-.485-.88c-.877-1.919-.716-3.877.365-4.371s2.668.661,3.546,2.58c.773,1.686,1.248,13.206,1.248,13.206l6.855,3.477c6.652,1.81,9.718-1.582,9.3-5Z" transform="translate(-233.176 -318.898)"/>
  <path id="Path_1065" data-name="Path 1065" d="M295.28,569.2l7.848,18.972,7.483-6.479-12.97-15.468Z" transform="translate(-214.312 -410.958)" fill="#fff"/>
  <path id="Path_1066" data-name="Path 1066" d="M354.933,572.7l1.549,16.123-5.292-4.969,2.139-14.651Z" transform="translate(-254.891 -413.121)" fill="#fff"/>
  <path id="Path_1067" data-name="Path 1067" d="M53,521.8v25.161a6.855,6.855,0,1,1-13.71,0V521.8H29.35v25.161a16.789,16.789,0,1,0,33.578,0V521.8Z" transform="translate(-29.35 -383.791)"/>
  <rect id="Rectangle_335" data-name="Rectangle 335" width="9.926" height="8.415" transform="translate(0 138.009)" fill="#f7941d"/>
  <rect id="Rectangle_336" data-name="Rectangle 336" width="9.926" height="8.415" transform="translate(23.65 138.009)" fill="#13a0f0"/>
  <path id="Path_1068" data-name="Path 1068" d="M43.88,607l11.086-2.292,1.026,3.082-5.72,4.415-4.733-.162Z" transform="translate(-31.848 -438.893)" fill="#e9bfaa"/>
  <path id="Path_1069" data-name="Path 1069" d="M940.5,350.808a.823.823,0,1,1,1.045.518.762.762,0,0,1-.274.041.823.823,0,0,1-.771-.559Zm-.946-3.216a.823.823,0,1,1,1,.592.97.97,0,0,1-.206.033A.823.823,0,0,1,939.55,347.592Zm-.675-3.291a.819.819,0,1,1,.938.691h-.132a.823.823,0,0,1-.806-.7Zm-.337-3.365a.76.76,0,1,0,0-.008Zm.823-2.493a.864.864,0,1,1,.082,0Zm.436-3.249a.823.823,0,1,1,.206.025.931.931,0,0,1-.206-.033Zm.938-3.142a.824.824,0,1,1,.321.066.749.749,0,0,1-.321-.074Zm1.407-2.961a.823.823,0,1,1,1.127-.274.823.823,0,0,1-1.127.274Zm1.793-2.742a.823.823,0,1,1,1.16-.14.842.842,0,0,1-.658.313.823.823,0,0,1-.5-.186Zm2.081-2.542a.824.824,0,1,1,1.168-.041.842.842,0,0,1-.609.274.823.823,0,0,1-.559-.247Zm2.279-2.377a.823.823,0,1,1,1.16.025.8.8,0,0,1-.568.23.823.823,0,0,1-.592-.263Zm2.394-2.254a.369.369,0,1,0,0-.014Zm2.468-2.194a.981.981,0,1,0-.008-.008Zm2.468-2.172a.823.823,0,1,1,1.16.074A.823.823,0,0,1,955.624,314.81Zm2.468-2.18a.827.827,0,1,1,.612.263.842.842,0,0,1-.62-.271Zm2.41-2.246a.823.823,0,1,1,1.164.012A.823.823,0,0,1,960.5,310.385Zm2.336-2.32a.823.823,0,1,1,1.16-.041.839.839,0,0,1-.6.274.8.8,0,0,1-.568-.241Zm2.213-2.435a.823.823,0,1,1,1.16-.1.856.856,0,0,1-.633.3.792.792,0,0,1-.535-.206Zm2.065-2.55a.57.57,0,1,0-.008-.008Zm1.9-2.69a.812.812,0,1,1,.436.132.773.773,0,0,1-.444-.14Zm1.686-2.813a.823.823,0,1,1,1.1-.345.823.823,0,0,1-1.1.345Zm1.473-2.937a.824.824,0,1,1,.321.066.749.749,0,0,1-.329-.074Zm1.234-3.044a.806.806,0,1,1,.274.049.746.746,0,0,1-.282-.058Zm1-3.126a.834.834,0,1,1,.206.025.878.878,0,0,1-.214-.033Zm.765-3.192a.853.853,0,1,1,.148,0,.892.892,0,0,1-.156-.008Zm.548-3.241a.808.808,0,1,1,.107.008Z" transform="translate(-689.231 -208.585)"/>
  <path id="Path_1070" data-name="Path 1070" d="M734.088,1018.682a.823.823,0,1,1,1.135.274.849.849,0,0,1-.428.123A.823.823,0,0,1,734.088,1018.682Zm-1.686-2.846a.823.823,0,1,1,.716.411A.823.823,0,0,1,732.4,1015.836Zm-1.612-2.9a.823.823,0,1,1,1.1.337.765.765,0,0,1-.378.1A.822.822,0,0,1,730.789,1012.932Zm-1.505-2.961a.823.823,0,1,1,1.1.387.929.929,0,0,1-.362.082.822.822,0,0,1-.735-.469Zm-1.371-3.035a.823.823,0,1,1,1.078.444.893.893,0,0,1-.321.066.822.822,0,0,1-.76-.51Zm-1.209-3.11a.82.82,0,1,1,1.045.5.79.79,0,0,1-.274.049.823.823,0,0,1-.773-.546Zm-.979-3.216a.824.824,0,1,1,1,.592.926.926,0,0,1-.206.025.822.822,0,0,1-.8-.617Zm-.65-3.323a.823.823,0,1,1,.921.707.464.464,0,0,1-.107,0,.823.823,0,0,1-.817-.707Zm.625-2.567a.846.846,0,1,1,.041,0Zm.346-3.266a.806.806,0,1,1,.247.041.862.862,0,0,1-.255-.041Zm1.209-3.052a.823.823,0,1,1,1.152-.189.845.845,0,0,1-.675.346.806.806,0,0,1-.48-.156Zm76.611-2.279a.818.818,0,1,1,.239.583.823.823,0,0,1-.239-.583Zm-2.493.757a.836.836,0,1,1,.025,0Zm6.655-.025a.824.824,0,1,1,.777-.868.823.823,0,0,1-.777.868Zm-9.97-.148a.847.847,0,1,1,.058,0Zm12.381-.872a.822.822,0,1,1,.938.7h-.123a.823.823,0,0,1-.817-.7Zm-15.682.631a.861.861,0,1,1,.066,0Zm-65.4-.548a.823.823,0,1,1,1.16.156.892.892,0,0,1-.5.165.823.823,0,0,1-.658-.346Zm62.108.247a.8.8,0,1,1,.091.008.312.312,0,0,1-.091-.033Zm22.211-.864a.823.823,0,1,1,1.012.568.7.7,0,0,1-.222.033.823.823,0,0,1-.781-.625Zm-25.5.51a.788.788,0,1,1,.1.016.4.4,0,0,1-.09-.041Zm-3.274-.378a.8.8,0,1,1,.1,0,.4.4,0,0,1-.09-.025Zm-3.274-.395a.94.94,0,1,1,.107,0Zm35.159-.79a.823.823,0,1,1,1.127.313.927.927,0,0,1-.411.107.823.823,0,0,1-.7-.444Zm-38.425.378a.823.823,0,1,1,.107,0,.434.434,0,0,1-.1-.025Zm-46.281-.548a.823.823,0,1,1,1.094.414.873.873,0,0,1-.346.074.823.823,0,0,1-.74-.5Zm43.015.123a.8.8,0,1,1,.1.016.4.4,0,0,1-.091-.027Zm-3.266-.406a.8.8,0,1,1,.1,0Zm-36.7-.963a.823.823,0,1,1,1.012.568.694.694,0,0,1-.222.033.823.823,0,0,1-.781-.6Zm33.431.576a.8.8,0,1,1,.1,0Zm-3.266-.362a.791.791,0,1,1,.091.008c-.025,0-.049-.008-.082-.008Zm-3.266-.321a.866.866,0,1,1,.074,0Zm-23.708-.691a.822.822,0,1,1,.946.68h-.14a.823.823,0,0,1-.8-.68Zm81.166.3a.819.819,0,1,1,.477.156.789.789,0,0,1-.474-.143Zm-60.718.1a.762.762,0,1,1,.066.008c-.022,0-.038-.008-.063-.008Zm-17.193-.9a.823.823,0,1,1,.9.74.229.229,0,0,1-.074,0,.823.823,0,0,1-.82-.751Zm13.162-.2a.334.334,0,1,1-.006,0Zm-9.872-.066a.347.347,0,1,1-.005,0Zm7.379.79a.823.823,0,1,1,.025,0Zm-4.088-.88a.341.341,0,1,1-.005,0Zm72.893-1.719a.823.823,0,1,1,.115,0,.586.586,0,0,1-.121,0Zm-.79-3.949a.823.823,0,1,1,.946.666.714.714,0,0,1-.14.016.823.823,0,0,1-.812-.683Z" transform="translate(-534.187 -712.394)"/>
  <path id="Path_1071" data-name="Path 1071" d="M1125.861,679.529a.823.823,0,1,1,.9.74h-.09A.823.823,0,0,1,1125.861,679.529Zm-.387-3.227a.823.823,0,1,1,.921.7.471.471,0,0,1-.107,0A.823.823,0,0,1,1125.474,676.3Zm-.51-3.216a.823.823,0,1,1,.954.666.793.793,0,0,1-.14,0,.823.823,0,0,1-.814-.672Zm-.633-3.2a.841.841,0,1,1,.987.625.707.707,0,0,1-.181.016A.822.822,0,0,1,1124.331,669.888Zm-.773-3.151a.823.823,0,1,1,1.012.576,1.015,1.015,0,0,1-.214.025A.823.823,0,0,1,1123.557,666.737Zm-.93-3.109a.823.823,0,1,1,1.036.518.691.691,0,0,1-.255.041A.823.823,0,0,1,1122.628,663.628Zm-1.1-3.052a.822.822,0,1,1,1.069.469,1,1,0,0,1-.3.058.823.823,0,0,1-.771-.526Zm-1.283-2.97a.823.823,0,1,1,1.1.395.792.792,0,0,1-.354.082.85.85,0,0,1-.749-.477Zm-1.464-2.871a.825.825,0,1,1,1.119.313.8.8,0,0,1-.4.107.823.823,0,0,1-.721-.42Zm-1.67-2.764a.822.822,0,1,1,1.135.239.8.8,0,0,1-.444.132.823.823,0,0,1-.7-.37Zm-1.867-2.624a.823.823,0,1,1,1.152.148A.822.822,0,0,1,1115.246,649.347Zm-2.073-2.468a.823.823,0,1,1,1.168.058.85.85,0,0,1-.548.214.823.823,0,0,1-.625-.271Zm-2.254-2.3a.823.823,0,1,1,1.16-.041A.822.822,0,0,1,1110.919,644.584Zm-2.435-2.114a.822.822,0,1,1,1.152-.123A.823.823,0,0,1,1108.484,642.47Zm-2.591-1.919a.823.823,0,1,1,.461.14.865.865,0,0,1-.466-.129Zm-2.742-1.719a.276.276,0,1,1,.005.011Zm-2.846-1.53a.8.8,0,1,1,.362.091.823.823,0,0,1-.356-.08Zm-2.953-1.341a.823.823,0,1,1,.321.066.75.75,0,0,1-.315-.055Zm-3.016-1.16a.833.833,0,1,1,.274.041.78.78,0,0,1-.271-.03Zm-3.082-1a.833.833,0,1,1,.241.033A.745.745,0,0,1,1091.253,633.8Zm-3.142-.855a.823.823,0,1,1,.814-.212A.823.823,0,0,1,1088.111,632.944Zm-3.175-.708a.821.821,0,1,1,.164.016,1.245,1.245,0,0,1-.165-.008Zm-3.2-.592a.77.77,0,1,1,.123.019.7.7,0,0,1-.123-.011Zm-3.225-.477a.823.823,0,1,1,.107,0,.433.433,0,0,1-.107.008Zm-3.249-.37a.824.824,0,1,1,.082.008Zm-3.249-.274a.856.856,0,1,1,.057,0Z" transform="translate(-785.505 -461.459)"/>
  <rect id="Rectangle_337" data-name="Rectangle 337" width="19.137" height="19.137" rx="9.568" transform="translate(223.589 207.891)"/>
  <path id="Path_1072" data-name="Path 1072" d="M9.568,0A9.568,9.568,0,1,1,0,9.568,9.568,9.568,0,0,1,9.568,0Z" transform="translate(267.427 158.215)"/>
  <circle id="Ellipse_93" data-name="Ellipse 93" cx="9.685" cy="9.685" r="9.685" transform="translate(288.586 214.737) rotate(-79.84)" fill="#13a0f0"/>
  <circle id="Ellipse_94" data-name="Ellipse 94" cx="4.335" cy="4.335" r="4.335" transform="translate(250.188 144.102)" fill="#13a0f0"/>
  <rect id="Rectangle_339" data-name="Rectangle 339" width="39.25" height="39.25" rx="19.625" transform="translate(264.449 223.03)"/>
  <rect id="Rectangle_340" data-name="Rectangle 340" width="29.672" height="29.672" rx="14.836" transform="translate(248.121 52.702) rotate(180)" fill="#13a0f0"/>
  <rect id="Rectangle_341" data-name="Rectangle 341" width="19.137" height="19.137" rx="9.568" transform="translate(273.484 23.544) rotate(180)"/>
  <circle id="Ellipse_95" data-name="Ellipse 95" cx="8.048" cy="8.048" r="8.048" transform="translate(203.542 0)" fill="#13a0f0"/>
  <g id="Group_149" data-name="Group 149" transform="translate(222.449 29.03)">
    <path id="Path_971" data-name="Path 971" d="M46.291,34.54a8.716,8.716,0,0,1-2.509.688A4.382,4.382,0,0,0,45.7,32.812a8.745,8.745,0,0,1-2.774,1.06,4.372,4.372,0,0,0-7.443,3.984,12.4,12.4,0,0,1-9-4.564,4.372,4.372,0,0,0,1.352,5.832,4.347,4.347,0,0,1-1.978-.547c0,.018,0,.037,0,.055a4.37,4.37,0,0,0,3.5,4.283,4.377,4.377,0,0,1-1.973.075,4.372,4.372,0,0,0,4.08,3.034A8.826,8.826,0,0,1,25,47.832,12.423,12.423,0,0,0,44.124,37.366c0-.189,0-.378-.013-.565a8.852,8.852,0,0,0,2.18-2.26" transform="translate(-25 -32.492)" fill="#fff"/>
  </g>
  <g id="Group_150" data-name="Group 150" transform="translate(295.204 199.863)">
    <path id="Path_969" data-name="Path 969" d="M45.458,33.432l.453-2.772H42.7V28.546c0-.873.234-1.494,1.486-1.494h1.853v-2.8A12.35,12.35,0,0,0,43.763,24c-2.3,0-3.826,1.52-3.826,4.1V30.66H37.162v2.772h2.775v7.642a10.626,10.626,0,0,0,2.767.074V33.432Z" transform="translate(-37.162 -24)" fill="#fff"/>
  </g>
  <g id="Group_151" data-name="Group 151" transform="translate(274.449 232.03)">
    <path id="Path_970" data-name="Path 970" d="M32.526,44.245H28.332V30.766h4.193Zm-2.1-15.32a2.429,2.429,0,1,1,2.428-2.43A2.428,2.428,0,0,1,30.43,28.925Zm17.785,15.32H44.027V37.69c0-1.563-.027-3.574-2.177-3.574-2.18,0-2.512,1.7-2.512,3.462v6.666H35.154V30.766h4.015v1.842h.057a4.4,4.4,0,0,1,3.964-2.177c4.241,0,5.025,2.791,5.025,6.421v7.392Z" transform="translate(-28 -24.066)" fill="#fff"/>
  </g>
  <path id="logo" d="M82.936,130.432c-.505.489-1,.974-1.5,1.459a.787.787,0,0,1-.616.251.314.314,0,0,1-.316-.242c-.378-1.175-.764-2.351-1.142-3.53a.276.276,0,0,0-.205-.205c-.892-.271-1.788-.551-2.675-.834a1.558,1.558,0,0,1-.395-.181.28.28,0,0,1-.045-.473,1.766,1.766,0,0,1,.522-.325c1.093-.432,2.19-.851,3.288-1.274q4.173-1.609,8.347-3.222a.6.6,0,0,1,.879.658,11.04,11.04,0,0,1-.205,1.089q-.906,4.278-1.816,8.56c-.144.678-.621.855-1.175.444q-1.4-1.029-2.8-2.067C83.035,130.5,82.99,130.469,82.936,130.432Zm-2.1.867c.012,0,.021,0,.033-.008,0-.029.012-.053.016-.078.062-.645.123-1.295.177-1.94a.489.489,0,0,1,.169-.345c.859-.768,1.718-1.545,2.573-2.318q1.424-1.282,2.844-2.569a.155.155,0,1,0-.144-.242,1.171,1.171,0,0,0-.312.156l-6.28,3.958a.186.186,0,0,0-.095.267c.156.444.3.892.44,1.34C80.454,130.112,80.647,130.707,80.84,131.3Z" transform="translate(193.243 40.488)" fill="#fff"/>
</svg>
