<svg xmlns="http://www.w3.org/2000/svg" width="76" height="76" viewBox="0 0 76 76">
  <g id="Group_380" data-name="Group 380" transform="translate(-1436 -457)">
    <circle id="Ellipse_257" data-name="Ellipse 257" cx="38" cy="38" r="38" transform="translate(1436 457)" fill="#dfdfdf"/>
    <g id="noun_users_305973" transform="translate(1431.887 445.198)">
      <g id="Group_260" data-name="Group 260" transform="translate(5 15.769)">
        <path id="Path_3562" data-name="Path 3562" d="M47.868,51.5c5.981,0,10.044-4.849,10.044-10.831s-4.063-10.83-10.044-10.83-10.047,4.849-10.047,10.83S41.886,51.5,47.868,51.5Z" transform="translate(-10.752 -18.234)" fill="#fff"/>
        <path id="Path_3563" data-name="Path 3563" d="M60.8,77.9a13.42,13.42,0,0,0,2.609-7.629,17.053,17.053,0,0,0-8.605-14.806,12.639,12.639,0,0,1-16.851,0A17.051,17.051,0,0,0,29.35,70.267,13.419,13.419,0,0,0,31.958,77.9C33.43,79.685,60.247,79.554,60.8,77.9Z" transform="translate(-9.268 -22.726)" fill="#fff"/>
      </g>
    </g>
  </g>
</svg>
