<svg xmlns="http://www.w3.org/2000/svg" width="55" height="55" viewBox="0 0 55 55">
  <g id="Group_392" data-name="Group 392" transform="translate(-1840 -3608)">
    <circle id="Ellipse_273" data-name="Ellipse 273" cx="27.5" cy="27.5" r="27.5" transform="translate(1840 3608)" fill="#13a0f0"/>
    <g id="noun_call_reviews_3243928" data-name="noun_call reviews_3243928" transform="translate(1816.938 3617.445)">
      <g id="Group_262" data-name="Group 262">
        <path id="Path_3579" data-name="Path 3579" d="M49.422,18.254l-.6,1.85,1.58-1.14a1,1,0,0,1,1.17,0l1.57,1.14-.6-1.85a1,1,0,0,1,.37-1.11l1.57-1.15h-1.94a1.012,1.012,0,0,1-.96-.69l-.6-1.85-.6,1.85a.99.99,0,0,1-.95.69h-1.94l1.57,1.15A.977.977,0,0,1,49.422,18.254Z" fill="#fff"/>
        <path id="Path_3580" data-name="Path 3580" d="M38.322,34.394a1.016,1.016,0,0,0,.45.96.995.995,0,0,0,1.05.02l7.56-4.43a14.5,14.5,0,0,0,3.6.45,14.945,14.945,0,1,0-11.67-5.64Zm5.14-19.71a1,1,0,0,1,.95-.69h4.3l1.32-4.08a1.006,1.006,0,0,1,1.91,0l1.32,4.08h4.3a1,1,0,0,1,.59,1.81l-3.48,2.53L56,22.414a1,1,0,0,1-1.54,1.12L50.982,21l-3.47,2.53a1.022,1.022,0,0,1-1.18,0,1.012,1.012,0,0,1-.36-1.12l1.33-4.08-3.48-2.53A1,1,0,0,1,43.462,14.684Z" fill="#fff"/>
      </g>
    </g>
  </g>
</svg>
