<svg xmlns="http://www.w3.org/2000/svg" width="75.632" height="68.1" viewBox="0 0 75.632 68.1">
  <g id="noun_Planning_385826" transform="translate(236.816 238)">
    <g id="Group_14" data-name="Group 14" transform="translate(-239.116 -245.1)">
      <path id="Path_305" data-name="Path 305" d="M24.339,7.1a5.481,5.481,0,0,0-5.47,5.47v23.7a5.4,5.4,0,0,0,5.391,5.391H55.972a5.4,5.4,0,0,0,5.391-5.391V12.57a5.481,5.481,0,0,0-5.47-5.47Zm22.911,3.092h0a2.291,2.291,0,0,1,2.22,1.823c0,.159.079.317.079.476a1.006,1.006,0,0,1-.079.476,2.291,2.291,0,0,1-2.22,1.823h0a2.216,2.216,0,0,1-2.22-2.22A2.21,2.21,0,0,1,47.251,10.192Zm-6.58,0a2.22,2.22,0,1,1-2.22,2.22A2.216,2.216,0,0,1,40.671,10.192ZM57.795,35.64A2.47,2.47,0,0,1,55.337,38.1H24.974a2.47,2.47,0,0,1-2.458-2.458V17.406H57.874V35.64ZM53.752,14.631a2.22,2.22,0,1,1,2.22-2.22A2.167,2.167,0,0,1,53.752,14.631ZM2.3,71.474v-6.5a3.722,3.722,0,0,1,3.726-3.726h3.33v-6.5a3.722,3.722,0,0,1,3.726-3.726H38.055V45.233h4.2V51.02H67.308a3.722,3.722,0,0,1,3.726,3.726v6.5h3.171a3.722,3.722,0,0,1,3.726,3.726v6.5A3.722,3.722,0,0,1,74.206,75.2H63.424A3.722,3.722,0,0,1,59.7,71.474v-6.5a3.722,3.722,0,0,1,3.726-3.726h3.33V55.222H42.177v6.025h3.33a3.722,3.722,0,0,1,3.726,3.726v6.5A3.722,3.722,0,0,1,45.507,75.2H34.725A3.722,3.722,0,0,1,31,71.474v-6.5a3.722,3.722,0,0,1,3.726-3.726h3.25V55.222h-24.5v6.025h3.33a3.722,3.722,0,0,1,3.726,3.726v6.5A3.722,3.722,0,0,1,16.808,75.2H6.026A3.827,3.827,0,0,1,2.3,71.474ZM29.017,34.213V32.231a.512.512,0,0,1,.476-.476H41.305a.512.512,0,0,1,.476.476v1.982a.512.512,0,0,1-.476.476H29.572A.53.53,0,0,1,29.017,34.213Zm0-5.549V26.682a.512.512,0,0,1,.476-.476H50.66a.512.512,0,0,1,.476.476v1.982a.512.512,0,0,1-.476.476H29.572A.446.446,0,0,1,29.017,28.664Zm0-5.47V21.212a.512.512,0,0,1,.476-.476H50.66a.512.512,0,0,1,.476.476v1.982a.512.512,0,0,1-.476.476H29.572A.53.53,0,0,1,29.017,23.194Z" fill="#fff"/>
    </g>
  </g>
</svg>
