<svg id="step01-02" xmlns="http://www.w3.org/2000/svg" width="724.047" height="403.35" viewBox="0 0 724.047 403.35">
  <path id="Path_61" data-name="Path 61" d="M943.543,387.546H925.96V348.323l-.815-.468h-5.252v-.018H889.411v.018h-.025v5.88h.025v4.044h-.025v5.878h.025v4.057h-.025v5.88h.025v.02l-3.231-.02V342.83H851.948v3.9h-.017V352.6h.017v5.175h-.017v5.878h.017v4.057h-.017v5.88h.017v3.752h-.017v5.88h.017v3.752h-.017v5.88h.017V396.4h-.017v3.734h.017v.408H813.375v33.648H798.964v8.481h-15.54v-14.6H755.468V388.409H751.1v-3.952h-.625v3.952H728.713v-3.952h-.628v3.937h-4.725v19.944l-23.478-.11v12.311H679.973V344.453H621v81.515H602.99V381.891H544V667.066l403.035-1.543Z" transform="translate(-411.773 -263.718)" fill="#444"/>
  <path id="Path_62" data-name="Path 62" d="M440.1,680.08v231.3H410.48V680.08Z" transform="translate(-307.812 -509.981)" fill="#dfebfa"/>
  <rect id="Rectangle_34" data-name="Rectangle 34" width="43.805" height="12.899" transform="translate(224.402 80.735)" fill="#636363"/>
  <rect id="Rectangle_35" data-name="Rectangle 35" width="43.805" height="12.899" transform="translate(224.402 100.587)" fill="#636363"/>
  <rect id="Rectangle_36" data-name="Rectangle 36" width="43.805" height="12.899" transform="translate(224.402 120.854)" fill="#636363"/>
  <rect id="Rectangle_37" data-name="Rectangle 37" width="43.805" height="12.899" transform="translate(224.402 141.443)" fill="#636363"/>
  <rect id="Rectangle_38" data-name="Rectangle 38" width="43.805" height="12.899" transform="translate(224.402 161.31)" fill="#636363"/>
  <rect id="Rectangle_39" data-name="Rectangle 39" width="21.903" height="7.834" transform="translate(440.185 79.119)" fill="#636363"/>
  <rect id="Rectangle_40" data-name="Rectangle 40" width="21.903" height="7.834" transform="translate(440.185 91.175)" fill="#636363"/>
  <rect id="Rectangle_41" data-name="Rectangle 41" width="21.903" height="7.834" transform="translate(440.185 103.486)" fill="#636363"/>
  <rect id="Rectangle_42" data-name="Rectangle 42" width="21.903" height="7.834" transform="translate(440.185 115.989)" fill="#636363"/>
  <rect id="Rectangle_43" data-name="Rectangle 43" width="21.903" height="7.834" transform="translate(440.185 128.055)" fill="#636363"/>
  <rect id="Rectangle_44" data-name="Rectangle 44" width="21.903" height="7.834" transform="translate(440.185 141.333)" fill="#636363"/>
  <rect id="Rectangle_45" data-name="Rectangle 45" width="21.903" height="7.834" transform="translate(440.185 153.389)" fill="#636363"/>
  <rect id="Rectangle_46" data-name="Rectangle 46" width="21.903" height="7.834" transform="translate(440.185 165.697)" fill="#eef6ff"/>
  <rect id="Rectangle_47" data-name="Rectangle 47" width="21.903" height="7.834" transform="translate(440.185 178.203)" fill="#eef6ff"/>
  <rect id="Rectangle_48" data-name="Rectangle 48" width="21.903" height="7.834" transform="translate(440.185 190.266)" fill="#eef6ff"/>
  <rect id="Rectangle_49" data-name="Rectangle 49" width="21.903" height="7.834" transform="translate(477.675 84.257)" fill="#636363"/>
  <rect id="Rectangle_50" data-name="Rectangle 50" width="21.903" height="7.834" transform="translate(477.675 96.312)" fill="#636363"/>
  <rect id="Rectangle_51" data-name="Rectangle 51" width="21.903" height="7.834" transform="translate(477.675 108.621)" fill="#636363"/>
  <rect id="Rectangle_52" data-name="Rectangle 52" width="21.903" height="7.834" transform="translate(477.675 121.126)" fill="#636363"/>
  <rect id="Rectangle_53" data-name="Rectangle 53" width="21.903" height="7.834" transform="translate(477.675 133.192)" fill="#636363"/>
  <rect id="Rectangle_54" data-name="Rectangle 54" width="21.903" height="7.834" transform="translate(477.675 145.77)" fill="#636363"/>
  <rect id="Rectangle_55" data-name="Rectangle 55" width="21.903" height="7.834" transform="translate(477.675 157.826)" fill="#636363"/>
  <rect id="Rectangle_56" data-name="Rectangle 56" width="21.903" height="7.834" transform="translate(477.675 170.134)" fill="#636363"/>
  <rect id="Rectangle_57" data-name="Rectangle 57" width="21.903" height="7.834" transform="translate(477.675 182.64)" fill="#636363"/>
  <rect id="Rectangle_58" data-name="Rectangle 58" width="21.903" height="7.834" transform="translate(477.675 194.703)" fill="#636363"/>
  <rect id="Rectangle_59" data-name="Rectangle 59" width="21.903" height="7.834" transform="translate(477.675 208.542)" fill="#636363"/>
  <rect id="Rectangle_60" data-name="Rectangle 60" width="21.903" height="7.834" transform="translate(477.675 220.598)" fill="#636363"/>
  <rect id="Rectangle_61" data-name="Rectangle 61" width="21.903" height="7.834" transform="translate(477.675 232.906)" fill="#636363"/>
  <rect id="Rectangle_62" data-name="Rectangle 62" width="21.903" height="7.834" transform="translate(477.675 245.412)" fill="#636363"/>
  <rect id="Rectangle_63" data-name="Rectangle 63" width="21.903" height="7.834" transform="translate(477.675 257.475)" fill="#eef6ff"/>
  <rect id="Rectangle_64" data-name="Rectangle 64" width="1.086" height="15.982" transform="translate(408.783 121.126)" fill="#636363"/>
  <rect id="Rectangle_65" data-name="Rectangle 65" width="1.691" height="30.949" transform="translate(427.094 107.4)" fill="#636363"/>
  <rect id="Rectangle_66" data-name="Rectangle 66" width="0.705" height="5.7" transform="translate(213.142 75.035)" fill="#636363"/>
  <rect id="Rectangle_67" data-name="Rectangle 67" width="0.705" height="5.7" transform="translate(228.071 75.035)" fill="#636363"/>
  <rect id="Rectangle_68" data-name="Rectangle 68" width="0.705" height="5.7" transform="translate(262.299 75.035)" fill="#636363"/>
  <rect id="Rectangle_69" data-name="Rectangle 69" width="0.543" height="4.4" transform="translate(443.574 74.72)" fill="#636363"/>
  <rect id="Rectangle_70" data-name="Rectangle 70" width="0.543" height="4.4" transform="translate(469.266 74.72)" fill="#636363"/>
  <rect id="Rectangle_71" data-name="Rectangle 71" width="0.705" height="5.7" transform="translate(248.918 75.035)" fill="#636363"/>
  <path id="Path_63" data-name="Path 63" d="M1282.424,495.679c-5.988-14.942-31.462-7.071-31.462-7.071s-14.507,29.074-19.587,30.319,7.559-27.273,7.559-27.273c-10.077.2-34.043,15.392-34.043,15.392s5.295,31.317.078,31.265-3.277-27.968-3.277-27.968c-9.3,4.024-16.988,16.328-16.988,16.328-9.107,19.642,16.585,30.322,16.585,30.322s1.6,10.893-3.682,24.221h0a37.982,37.982,0,0,0-2.341,6.608l2.629-.308q.2-1.1.475-2.123a.154.154,0,0,1,0-.03c.133-.428.323-1.036.563-1.778h0c.618-1.666,1.025-2.891,1.271-3.769h0c1.828-5.22,4.542-12.056,6.7-13.676A5.1,5.1,0,0,1,1206.2,565l.705,1.141c5.628,9.117,28.321,8.091,40.556,4.052s6.358-6.938-1.066-11.886-21.39-1.781-25.832-3.542,1.4-4.727,9.835-5.062,13.591,7.534,27.243,7.238,20.967-26.9,20.967-26.9c-8.984,3.984-26.3.8-27.323-2.341s23.761-5.715,27.513-7.133S1288.41,510.619,1282.424,495.679Z" transform="translate(-890.762 -371.482)" fill="#afcdfb"/>
  <path id="Path_64" data-name="Path 64" d="M1877.391,1298.343c-4.33-19.937-37.83-15.467-37.83-15.467s-24.274,33.281-30.869,33.766,15.2-32.515,15.2-32.515c-12.638-1.871-45.8,12.063-45.8,12.063s.02,40.269-6.5,39.106,1.8-35.646,1.8-35.646c-12.478,3.069-24.677,16.828-24.677,16.828-15.52,22.631,14.342,41.392,14.342,41.392a53.124,53.124,0,0,1-2.071,11.863q-.25.933-.568,1.923h6.18a7,7,0,0,1,1.573-1.2,10.367,10.367,0,0,0,.578,1.2h53.307c-.663-.62-1.358-1.25-2.068-1.923l-.808-.751c-8.234-7.754-26.36-6.731-31.542-9.867s2.751-5.613,13.361-4.252,15.4,12.281,32.515,14.789c.263.04.525.07.788.087a13.6,13.6,0,0,0,2.366,0c15.742-1.388,28.721-29.284,28.721-29.284-12.071,3.086-33.045-4.547-33.656-8.684s30.915-2.136,35.894-3.116S1881.725,1318.285,1877.391,1298.343Zm-109.216,72.114a5.051,5.051,0,0,1-.34-.713,7.573,7.573,0,0,1-.292-.856l.345.856c.1.24.193.475.288.718Z" transform="translate(-1311.815 -968.322)" fill="#c7dcfb"/>
  <path id="Path_65" data-name="Path 65" d="M177.768,657.716c3.779-14.529,28.278-10.255,28.278-10.255s16.855,25.207,21.688,25.762-10.2-24.354-10.2-24.354c9.349-1,33.311,10.237,33.311,10.237s-1.216,29.6,3.609,28.948-.25-26.262-.25-26.262c9.082,2.626,17.641,13.109,17.641,13.109,10.735,17.1-11.78,30.014-11.78,30.014s-.2,10.267,6.253,21.978h0a35.072,35.072,0,0,1,2.939,5.83l-2.469.025c-.208-.66-.438-1.3-.688-1.908a.02.02,0,0,0,0-.013.032.032,0,0,0-.012-.025c-.173-.38-.42-.92-.73-1.581h0c-.77-1.468-1.291-2.554-1.621-3.339-2.306-4.612-5.62-10.62-7.806-11.866a4.772,4.772,0,0,0,.518-1.138l-.518,1.138c-4.137,9.1-25.262,10.818-37.05,8.519s-6.7-5.67-.413-11.123,19.584-4.164,23.486-6.315-1.853-4.209-9.695-3.527-11.69,8.569-24.359,9.9-22.563-22.42-22.563-22.42c8.772,2.624,24.421-2.379,25-5.38s-22.671-2.5-26.3-3.364S173.986,672.245,177.768,657.716Z" transform="translate(-136.276 -491.716)" fill="#afcdfb" opacity="0.5"/>
  <path id="Path_66" data-name="Path 66" d="M739.387,1632.313v.278a.825.825,0,0,1-.823.823H16.16a.826.826,0,0,1-.82-.823v-.278a.825.825,0,0,1,.82-.823h722.4a.825.825,0,0,1,.823.823Z" transform="translate(-15.34 -1230.063)" fill="#2e3552"/>
  <path id="Path_67" data-name="Path 67" d="M746.6,941.624l-289.982,4.307a4.837,4.837,0,0,1-4.752-3.647L396.552,724.663a4.84,4.84,0,0,1,4.67-6.033l290.76-1.251a4.842,4.842,0,0,1,4.71,3.657l54.525,214.557a4.84,4.84,0,0,1-4.62,6.03Z" transform="translate(-301.093 -544.587)" fill="#162b4c"/>
  <path id="Path_68" data-name="Path 68" d="M765.686,941.622l-286.618,1.223c-3.144.015-7.576,2.016-8.349-1.031l-51.807-214.6a6.848,6.848,0,0,1,6.616-8.541l286.618-1.223a6.848,6.848,0,0,1,6.668,5.162L772.3,933.088a6.846,6.846,0,0,1-6.616,8.534Z" transform="translate(-317.813 -544.639)" fill="#233862"/>
  <path id="Path_69" data-name="Path 69" d="M778.989,945.934l-109.233.46-45.984.2-124.981.528a3.252,3.252,0,0,1-3.151-2.436l-48.6-189.533-4.079-15.9a3.252,3.252,0,0,1,3.124-4.044L720.8,734.045l5.477-.045a3.251,3.251,0,0,1,3.151,2.436l4.795,18.7,12.393,48.328,11.005,42.912,24.486,95.5a3.251,3.251,0,0,1-3.124,4.054Z" transform="translate(-335.936 -557.05)" fill="#9cc4ff"/>
  <path id="Path_70" data-name="Path 70" d="M734.231,755.15H447.045l-4.079-15.9a3.252,3.252,0,0,1,3.124-4.044L720.8,734.045l5.477-.045a3.251,3.251,0,0,1,3.151,2.436Z" transform="translate(-335.936 -557.05)" fill="#cfe3ff"/>
  <path id="Path_71" data-name="Path 71" d="M183.7,397.927,150.97,402.6l21.723-14.807,1.1,4.747,7.961,1.441Z" transform="translate(-113.21 -290.797)" fill="#82d2ff"/>
  <path id="Path_72" data-name="Path 72" d="M150.97,400.857l27.24-14.044,26.7-1.343Z" transform="translate(-113.21 -289.058)" fill="#13a0f0"/>
  <path id="Path_73" data-name="Path 73" d="M172.693,362.8,150.97,377.611l16.815-23.141Z" transform="translate(-113.21 -265.811)" fill="#13a0f0"/>
  <path id="Path_74" data-name="Path 74" d="M2376.56,431.822l34.238,4.885-22.72-15.487-1.156,4.965-8.326,1.508Z" transform="translate(-1782.144 -315.866)" fill="#82d2ff"/>
  <path id="Path_75" data-name="Path 75" d="M2344.306,434.885l-28.49-14.689-27.926-1.406Z" transform="translate(-1715.651 -314.044)" fill="#13a0f0"/>
  <path id="Path_76" data-name="Path 76" d="M2422.61,395.087l22.721,15.487-17.588-24.2Z" transform="translate(-1816.676 -289.733)" fill="#13a0f0"/>
  <circle id="Ellipse_17" data-name="Ellipse 17" cx="12.068" cy="12.068" r="12.068" transform="translate(313.118 70.03)" fill="#636363"/>
  <path id="Path_77" data-name="Path 77" d="M1300,323.794a3.874,3.874,0,1,1,3.872,3.874,3.874,3.874,0,0,1-3.872-3.874Z" transform="translate(-978.686 -246.538)"/>
  <path id="Path_78" data-name="Path 78" d="M1295.148,350.9a6.781,6.781,0,0,0-6.778,6.778h13.559A6.781,6.781,0,0,0,1295.148,350.9Z" transform="translate(-969.964 -269.77)"/>
  <circle id="Ellipse_18" data-name="Ellipse 18" cx="8.141" cy="8.141" r="8.141" transform="translate(227.584 57.859) rotate(-88.09)" fill="#636363"/>
  <circle id="Ellipse_19" data-name="Ellipse 19" cx="2.614" cy="2.614" r="2.614" transform="translate(232.827 48.664) rotate(-76.72)"/>
  <path id="Path_79" data-name="Path 79" d="M945.112,223.79a4.57,4.57,0,0,0-4.572,4.572h9.144a4.57,4.57,0,0,0-4.572-4.572Z" transform="translate(-709.132 -174.452)"/>
  <path id="Path_80" data-name="Path 80" d="M1190.828,61.5a.708.708,0,1,1,.47.885A.708.708,0,0,1,1190.828,61.5Z" transform="translate(-896.796 -52.38)" fill="#d5e5fb"/>
  <path id="Path_81" data-name="Path 81" d="M1203.365,65.324a.708.708,0,1,1,.468.885A.708.708,0,0,1,1203.365,65.324Z" transform="translate(-906.197 -55.247)" fill="#d5e5fb"/>
  <path id="Path_82" data-name="Path 82" d="M1216.492,70.1a.706.706,0,1,1,.54-.049.711.711,0,0,1-.54.049Z" transform="translate(-915.687 -58.163)" fill="#d5e5fb"/>
  <path id="Path_83" data-name="Path 83" d="M1228.757,73.142a.708.708,0,1,1,.47.885A.708.708,0,0,1,1228.757,73.142Z" transform="translate(-925.239 -61.109)" fill="#d5e5fb"/>
  <path id="Path_84" data-name="Path 84" d="M1241.295,76.994a.708.708,0,1,1,.468.885.708.708,0,0,1-.468-.885Z" transform="translate(-934.64 -63.998)" fill="#d5e5fb"/>
  <path id="Path_85" data-name="Path 85" d="M1254.492,81.773a.71.71,0,1,1,.885-.468A.71.71,0,0,1,1254.492,81.773Z" transform="translate(-944.183 -66.914)" fill="#636363"/>
  <path id="Path_86" data-name="Path 86" d="M1266.176,84.64a.708.708,0,1,1,.051.54.71.71,0,0,1-.051-.54Z" transform="translate(-953.298 -69.728)" fill="#636363"/>
  <path id="Path_87" data-name="Path 87" d="M1278.715,88.5a.708.708,0,1,1,.468.885A.708.708,0,0,1,1278.715,88.5Z" transform="translate(-962.7 -72.629)" fill="#636363"/>
  <path id="Path_88" data-name="Path 88" d="M1291.884,93.3a.705.705,0,1,1,.54-.049A.708.708,0,0,1,1291.884,93.3Z" transform="translate(-972.225 -75.561)" fill="#636363"/>
  <path id="Path_89" data-name="Path 89" d="M1304.106,96.31a.708.708,0,1,1,.051.54A.71.71,0,0,1,1304.106,96.31Z" transform="translate(-981.741 -78.479)" fill="#636363"/>
  <path id="Path_90" data-name="Path 90" d="M1316.645,100.184a.708.708,0,1,1,.468.885.708.708,0,0,1-.468-.885Z" transform="translate(-991.143 -81.388)" fill="#636363"/>
  <path id="Path_91" data-name="Path 91" d="M1329.8,104.963a.71.71,0,1,1,.885-.47A.71.71,0,0,1,1329.8,104.963Z" transform="translate(-1000.654 -84.303)" fill="#636363"/>
  <path id="Path_92" data-name="Path 92" d="M1342.079,107.986a.708.708,0,1,1,.458.875A.708.708,0,0,1,1342.079,107.986Z" transform="translate(-1010.217 -87.234)" fill="#636363"/>
  <path id="Path_93" data-name="Path 93" d="M1354.6,111.864a.708.708,0,1,1,.468.885A.708.708,0,0,1,1354.6,111.864Z" transform="translate(-1019.609 -90.146)" fill="#636363"/>
  <path id="Path_94" data-name="Path 94" d="M1367.76,116.643a.71.71,0,1,1,.885-.47.71.71,0,0,1-.885.47Z" transform="translate(-1029.12 -93.062)" fill="#636363"/>
  <path id="Path_95" data-name="Path 95" d="M1380,119.66a.707.707,0,1,1,.051.54A.71.71,0,0,1,1380,119.66Z" transform="translate(-1038.65 -95.989)" fill="#636363"/>
  <path id="Path_96" data-name="Path 96" d="M1392.535,123.5a.708.708,0,1,1,.468.885A.708.708,0,0,1,1392.535,123.5Z" transform="translate(-1048.052 -98.875)" fill="#636363"/>
  <path id="Path_97" data-name="Path 97" d="M1405.69,128.313a.707.707,0,1,1,.54-.051A.71.71,0,0,1,1405.69,128.313Z" transform="translate(-1057.563 -101.813)" fill="#636363"/>
  <path id="Path_98" data-name="Path 98" d="M1417.423,131.191a.708.708,0,1,1,.049.541A.708.708,0,0,1,1417.423,131.191Z" transform="translate(-1066.715 -104.641)" fill="#636363"/>
  <path id="Path_99" data-name="Path 99" d="M1429.954,135.032a.706.706,0,1,1,.05.54A.71.71,0,0,1,1429.954,135.032Z" transform="translate(-1076.111 -107.517)" fill="#d5e5fb"/>
  <path id="Path_100" data-name="Path 100" d="M1443.11,139.833a.71.71,0,1,1,.885-.47A.71.71,0,0,1,1443.11,139.833Z" transform="translate(-1085.624 -110.452)" fill="#d5e5fb"/>
  <path id="Path_101" data-name="Path 101" d="M1455.345,142.846a.71.71,0,1,1,.47.888A.711.711,0,0,1,1455.345,142.846Z" transform="translate(-1095.153 -113.377)" fill="#d5e5fb"/>
  <path id="Path_102" data-name="Path 102" d="M1467.9,146.714a.705.705,0,1,1,.05.54A.708.708,0,0,1,1467.9,146.714Z" transform="translate(-1104.569 -116.28)" fill="#d5e5fb"/>
  <path id="Path_103" data-name="Path 103" d="M1481.04,151.493a.71.71,0,1,1,.885-.47A.711.711,0,0,1,1481.04,151.493Z" transform="translate(-1114.067 -119.195)" fill="#d5e5fb"/>
  <path id="Path_104" data-name="Path 104" d="M1348.444,301.592a.708.708,0,1,1,.532.134A.708.708,0,0,1,1348.444,301.592Z" transform="translate(-1014.801 -231.84)" fill="#636363"/>
  <path id="Path_105" data-name="Path 105" d="M1356.154,291.012a.71.71,0,1,1,.532.133A.708.708,0,0,1,1356.154,291.012Z" transform="translate(-1020.583 -223.906)" fill="#636363"/>
  <path id="Path_106" data-name="Path 106" d="M1365.032,280.1a.708.708,0,1,1,.134-.532A.708.708,0,0,1,1365.032,280.1Z" transform="translate(-1026.497 -215.829)" fill="#636363"/>
  <path id="Path_107" data-name="Path 107" d="M1371.894,269.572a.705.705,0,1,1,.533.135A.708.708,0,0,1,1371.894,269.572Z" transform="translate(-1032.386 -207.828)" fill="#636363"/>
  <path id="Path_108" data-name="Path 108" d="M1379.644,258.992a.705.705,0,1,1,.532.135A.708.708,0,0,1,1379.644,258.992Z" transform="translate(-1038.197 -199.895)" fill="#636363"/>
  <path id="Path_109" data-name="Path 109" d="M1388.482,248.092a.71.71,0,1,1,.133-.532A.708.708,0,0,1,1388.482,248.092Z" transform="translate(-1044.082 -191.825)" fill="#636363"/>
  <path id="Path_110" data-name="Path 110" d="M1395.364,237.532a.708.708,0,1,1,.532.134A.708.708,0,0,1,1395.364,237.532Z" transform="translate(-1049.986 -183.802)" fill="#636363"/>
  <path id="Path_111" data-name="Path 111" d="M1403.154,226.952a.708.708,0,1,1,.532.134A.708.708,0,0,1,1403.154,226.952Z" transform="translate(-1055.827 -175.868)" fill="#636363"/>
  <path id="Path_112" data-name="Path 112" d="M1411.952,216.052a.71.71,0,1,1,.133-.532A.708.708,0,0,1,1411.952,216.052Z" transform="translate(-1061.682 -167.799)" fill="#636363"/>
  <path id="Path_113" data-name="Path 113" d="M1418.814,205.522a.708.708,0,1,1,.532.134A.708.708,0,0,1,1418.814,205.522Z" transform="translate(-1067.57 -159.798)" fill="#636363"/>
  <path id="Path_114" data-name="Path 114" d="M1426.564,194.942a.708.708,0,1,1,.532.134A.708.708,0,0,1,1426.564,194.942Z" transform="translate(-1073.382 -151.864)" fill="#636363"/>
  <path id="Path_115" data-name="Path 115" d="M1435.4,184.032a.706.706,0,1,1,.135-.533A.708.708,0,0,1,1435.4,184.032Z" transform="translate(-1079.266 -143.788)" fill="#636363"/>
  <path id="Path_116" data-name="Path 116" d="M1441.941,173.921a.708.708,0,1,1,.533.133.71.71,0,0,1-.533-.133Z" transform="translate(-1084.91 -136.096)" fill="#636363"/>
  <path id="Path_117" data-name="Path 117" d="M1449.7,163.362a.705.705,0,1,1,.533.135A.708.708,0,0,1,1449.7,163.362Z" transform="translate(-1090.734 -128.183)" fill="#d5e5fb"/>
  <path id="Path_118" data-name="Path 118" d="M1458.542,152.452a.71.71,0,1,1,.133-.532.708.708,0,0,1-.133.532Z" transform="translate(-1096.619 -120.107)" fill="#d5e5fb"/>
  <path id="Path_119" data-name="Path 119" d="M1465.4,141.922a.708.708,0,1,1,.532.134.708.708,0,0,1-.532-.134Z" transform="translate(-1102.508 -112.106)" fill="#d5e5fb"/>
  <path id="Path_120" data-name="Path 120" d="M1473.154,131.342a.708.708,0,1,1,.532.134.708.708,0,0,1-.532-.134Z" transform="translate(-1108.319 -104.172)" fill="#d5e5fb"/>
  <path id="Path_121" data-name="Path 121" d="M1481.992,120.442a.71.71,0,1,1,.133-.532.708.708,0,0,1-.133.532Z" transform="translate(-1114.204 -96.103)" fill="#d5e5fb"/>
  <path id="Path_122" data-name="Path 122" d="M1372.712,347.348a.708.708,0,1,1,.285.461A.708.708,0,0,1,1372.712,347.348Z" transform="translate(-1033.204 -266.49)" fill="#636363"/>
  <path id="Path_123" data-name="Path 123" d="M1385.652,345.228a.708.708,0,1,1,.285.461A.708.708,0,0,1,1385.652,345.228Z" transform="translate(-1042.908 -264.901)" fill="#636363"/>
  <path id="Path_124" data-name="Path 124" d="M1399.538,343.663a.705.705,0,1,1,.462-.284A.708.708,0,0,1,1399.538,343.663Z" transform="translate(-1052.712 -263.288)" fill="#636363"/>
  <path id="Path_125" data-name="Path 125" d="M1411.872,340.928a.708.708,0,1,1,.285.461A.708.708,0,0,1,1411.872,340.928Z" transform="translate(-1062.57 -261.676)" fill="#636363"/>
  <path id="Path_126" data-name="Path 126" d="M1424.812,338.808a.708.708,0,1,1,.285.461A.708.708,0,0,1,1424.812,338.808Z" transform="translate(-1072.273 -260.086)" fill="#636363"/>
  <path id="Path_127" data-name="Path 127" d="M1438.741,337.244a.708.708,0,1,1,.583-.813A.708.708,0,0,1,1438.741,337.244Z" transform="translate(-1082.107 -258.475)" fill="#636363"/>
  <path id="Path_128" data-name="Path 128" d="M1451.061,334.523a.71.71,0,1,1,.815.585.71.71,0,0,1-.815-.585Z" transform="translate(-1091.957 -256.869)" fill="#636363"/>
  <path id="Path_129" data-name="Path 129" d="M1463.971,332.373a.71.71,0,1,1,.815.585.71.71,0,0,1-.815-.585Z" transform="translate(-1101.638 -255.257)" fill="#636363"/>
  <path id="Path_130" data-name="Path 130" d="M1477.939,330.783a.708.708,0,1,1,.585-.815A.708.708,0,0,1,1477.939,330.783Z" transform="translate(-1111.503 -253.629)" fill="#636363"/>
  <path id="Path_131" data-name="Path 131" d="M1490.233,328.088a.7.7,0,1,1,.284.462.708.708,0,0,1-.284-.462Z" transform="translate(-1121.331 -252.048)" fill="#636363"/>
  <path id="Path_132" data-name="Path 132" d="M1503.172,325.968a.708.708,0,1,1,.813.585A.708.708,0,0,1,1503.172,325.968Z" transform="translate(-1131.034 -250.458)" fill="#636363"/>
  <path id="Path_133" data-name="Path 133" d="M1517.1,324.4a.708.708,0,1,1,.585-.815.708.708,0,0,1-.585.815Z" transform="translate(-1140.869 -248.845)" fill="#636363"/>
  <path id="Path_134" data-name="Path 134" d="M1528.861,321.743a.71.71,0,1,1,.815.585A.71.71,0,0,1,1528.861,321.743Z" transform="translate(-1150.297 -247.286)" fill="#636363"/>
  <path id="Path_135" data-name="Path 135" d="M1541.8,319.616a.71.71,0,1,1,.816.583.71.71,0,0,1-.816-.583Z" transform="translate(-1160 -245.689)" fill="#636363"/>
  <path id="Path_136" data-name="Path 136" d="M1555.738,318.063a.708.708,0,1,1,.461-.285A.708.708,0,0,1,1555.738,318.063Z" transform="translate(-1169.844 -244.091)" fill="#636363"/>
  <path id="Path_137" data-name="Path 137" d="M1568.021,315.323a.71.71,0,1,1,.815.585.71.71,0,0,1-.815-.585Z" transform="translate(-1179.663 -242.472)" fill="#636363"/>
  <path id="Path_138" data-name="Path 138" d="M1580.97,313.2a.71.71,0,1,1,.815.583A.711.711,0,0,1,1580.97,313.2Z" transform="translate(-1189.373 -240.875)" fill="#636363"/>
  <path id="Path_139" data-name="Path 139" d="M1594.883,311.639a.71.71,0,1,1,.585-.815.71.71,0,0,1-.585.815Z" transform="translate(-1199.194 -239.27)" fill="#636363"/>
  <path id="Path_140" data-name="Path 140" d="M1295.489,293.977a.708.708,0,1,1,.458-.89A.708.708,0,0,1,1295.489,293.977Z" transform="translate(-974.61 -226.047)" fill="#636363"/>
  <path id="Path_141" data-name="Path 141" d="M1291.5,281.484a.708.708,0,1,1,.415-.35A.708.708,0,0,1,1291.5,281.484Z" transform="translate(-971.617 -216.679)" fill="#636363"/>
  <path id="Path_142" data-name="Path 142" d="M1287.9,267.939a.708.708,0,1,1-.35-.415.708.708,0,0,1,.35.415Z" transform="translate(-968.578 -207.188)" fill="#636363"/>
  <path id="Path_143" data-name="Path 143" d="M1283.406,256.174a.708.708,0,1,1,.415-.35A.708.708,0,0,1,1283.406,256.174Z" transform="translate(-965.551 -197.7)" fill="#636363"/>
  <path id="Path_144" data-name="Path 144" d="M1279.409,243.687a.705.705,0,1,1,.414-.35A.708.708,0,0,1,1279.409,243.687Z" transform="translate(-962.552 -188.336)" fill="#636363"/>
  <path id="Path_145" data-name="Path 145" d="M1275.854,230.139a.708.708,0,1,1-.35-.415A.708.708,0,0,1,1275.854,230.139Z" transform="translate(-959.542 -178.843)" fill="#636363"/>
  <path id="Path_146" data-name="Path 146" d="M1271.309,218.347a.708.708,0,1,1,.458-.89A.708.708,0,0,1,1271.309,218.347Z" transform="translate(-956.478 -169.334)" fill="#636363"/>
  <path id="Path_147" data-name="Path 147" d="M1267.316,205.854a.708.708,0,1,1,.415-.35A.708.708,0,0,1,1267.316,205.854Z" transform="translate(-953.485 -159.966)" fill="#636363"/>
  <path id="Path_148" data-name="Path 148" d="M1263.724,192.309a.708.708,0,1,1-.35-.415A.708.708,0,0,1,1263.724,192.309Z" transform="translate(-950.446 -150.475)" fill="#636363"/>
  <path id="Path_149" data-name="Path 149" d="M1259.236,180.544a.708.708,0,1,1,.415-.35A.708.708,0,0,1,1259.236,180.544Z" transform="translate(-947.426 -140.986)" fill="#636363"/>
  <path id="Path_150" data-name="Path 150" d="M1255.236,168.054a.706.706,0,1,1,.416-.349A.708.708,0,0,1,1255.236,168.054Z" transform="translate(-944.426 -131.62)" fill="#636363"/>
  <path id="Path_151" data-name="Path 151" d="M1251.644,154.519a.708.708,0,1,1-.35-.415A.708.708,0,0,1,1251.644,154.519Z" transform="translate(-941.388 -122.137)" fill="#636363"/>
  <path id="Path_152" data-name="Path 152" d="M1247.306,143.254a.708.708,0,1,1,.415-.35A.708.708,0,0,1,1247.306,143.254Z" transform="translate(-938.48 -113.023)" fill="#636363"/>
  <path id="Path_153" data-name="Path 153" d="M1243.293,130.755a.705.705,0,1,1,.414-.35A.71.71,0,0,1,1243.293,130.755Z" transform="translate(-935.464 -103.647)" fill="#636363"/>
  <path id="Path_154" data-name="Path 154" d="M1239.715,117.217a.71.71,0,1,1-.891-.458.71.71,0,0,1,.891.458Z" transform="translate(-932.439 -94.167)" fill="#636363"/>
  <path id="Path_155" data-name="Path 155" d="M1235.213,105.445a.71.71,0,1,1,.458-.89A.71.71,0,0,1,1235.213,105.445Z" transform="translate(-929.405 -84.668)" fill="#636363"/>
  <path id="Path_156" data-name="Path 156" d="M1231.236,92.964a.708.708,0,1,1,.415-.35A.708.708,0,0,1,1231.236,92.964Z" transform="translate(-926.429 -75.311)" fill="#d5e5fb"/>
  <path id="Path_157" data-name="Path 157" d="M1227.637,79.416a.708.708,0,1,1-.891-.458.708.708,0,0,1,.891.458Z" transform="translate(-923.385 -65.819)" fill="#d5e5fb"/>
  <path id="Path_158" data-name="Path 158" d="M976.624,207.183a.708.708,0,1,1,.455.294A.708.708,0,0,1,976.624,207.183Z" transform="translate(-736.098 -161.166)" fill="#636363"/>
  <path id="Path_159" data-name="Path 159" d="M987.364,199.733a.708.708,0,1,1,.455.294A.708.708,0,0,1,987.364,199.733Z" transform="translate(-744.151 -155.579)" fill="#636363"/>
  <path id="Path_160" data-name="Path 160" d="M999.309,192.353a.708.708,0,1,1,.3-.462A.708.708,0,0,1,999.309,192.353Z" transform="translate(-752.377 -149.906)" fill="#636363"/>
  <path id="Path_161" data-name="Path 161" d="M1009.234,184.673a.708.708,0,1,1,.455.294A.708.708,0,0,1,1009.234,184.673Z" transform="translate(-760.551 -144.286)" fill="#636363"/>
  <path id="Path_162" data-name="Path 162" d="M1020.025,177.193a.708.708,0,1,1,.455.294.708.708,0,0,1-.455-.294Z" transform="translate(-768.643 -138.677)" fill="#636363"/>
  <path id="Path_163" data-name="Path 163" d="M1031.948,169.817a.708.708,0,1,1,.3-.455A.708.708,0,0,1,1031.948,169.817Z" transform="translate(-776.847 -133.01)" fill="#636363"/>
  <path id="Path_164" data-name="Path 164" d="M1041.924,162.086a.713.713,0,1,1,.463.3A.71.71,0,0,1,1041.924,162.086Z" transform="translate(-785.067 -127.35)" fill="#636363"/>
  <path id="Path_165" data-name="Path 165" d="M1052.715,154.673a.708.708,0,1,1,.985.18.708.708,0,0,1-.985-.18Z" transform="translate(-793.156 -121.79)" fill="#636363"/>
  <path id="Path_166" data-name="Path 166" d="M1064.672,147.261a.708.708,0,1,1,.294-.455A.708.708,0,0,1,1064.672,147.261Z" transform="translate(-801.385 -116.096)" fill="#636363"/>
  <path id="Path_167" data-name="Path 167" d="M1074.637,139.541a.71.71,0,1,1,.462.3A.71.71,0,0,1,1074.637,139.541Z" transform="translate(-809.599 -110.445)" fill="#636363"/>
  <path id="Path_168" data-name="Path 168" d="M1085.378,132.088a.708.708,0,1,1,.455.3A.708.708,0,0,1,1085.378,132.088Z" transform="translate(-817.651 -104.855)" fill="#636363"/>
  <path id="Path_169" data-name="Path 169" d="M1097.292,124.721a.708.708,0,1,1,.294-.455A.708.708,0,0,1,1097.292,124.721Z" transform="translate(-825.846 -99.194)" fill="#636363"/>
  <path id="Path_170" data-name="Path 170" d="M1106.808,117.3a.708.708,0,1,1,.455.3A.708.708,0,0,1,1106.808,117.3Z" transform="translate(-833.721 -93.764)" fill="#636363"/>
  <path id="Path_171" data-name="Path 171" d="M1117.628,109.848a.708.708,0,1,1,.455.3A.708.708,0,0,1,1117.628,109.848Z" transform="translate(-841.835 -88.178)" fill="#636363"/>
  <path id="Path_172" data-name="Path 172" d="M1129.518,102.477a.708.708,0,1,1,.3-.455A.708.708,0,0,1,1129.518,102.477Z" transform="translate(-850.013 -82.513)" fill="#636363"/>
  <path id="Path_173" data-name="Path 173" d="M1139.465,94.753a.708.708,0,1,1,.455.294.708.708,0,0,1-.455-.294Z" transform="translate(-858.209 -76.857)" fill="#636363"/>
  <path id="Path_174" data-name="Path 174" d="M1150.255,87.3a.708.708,0,1,1,.455.294A.708.708,0,0,1,1150.255,87.3Z" transform="translate(-866.3 -71.27)" fill="#636363"/>
  <path id="Path_175" data-name="Path 175" d="M1162.16,79.928a.71.71,0,1,1,.183-.985A.71.71,0,0,1,1162.16,79.928Z" transform="translate(-874.486 -65.601)" fill="#636363"/>
  <path id="Path_176" data-name="Path 176" d="M1518.095,171.171a.708.708,0,1,1-.023,1A.708.708,0,0,1,1518.095,171.171Z" transform="translate(-1142.068 -134.847)" fill="#d5e5fb"/>
  <path id="Path_177" data-name="Path 177" d="M1527.172,180.62a.71.71,0,1,1-.02,1,.71.71,0,0,1,.02-1Z" transform="translate(-1148.876 -141.93)" fill="#d5e5fb"/>
  <path id="Path_178" data-name="Path 178" d="M1536.342,191.231a.708.708,0,1,1,1,.023A.708.708,0,0,1,1536.342,191.231Z" transform="translate(-1155.767 -149.139)" fill="#636363"/>
  <path id="Path_179" data-name="Path 179" d="M1545.552,199.81a.71.71,0,1,1-.02,1,.71.71,0,0,1,.02-1Z" transform="translate(-1162.659 -156.32)" fill="#636363"/>
  <path id="Path_180" data-name="Path 180" d="M1554.625,209.291a.708.708,0,1,1-.022,1A.708.708,0,0,1,1554.625,209.291Z" transform="translate(-1169.461 -163.433)" fill="#636363"/>
  <path id="Path_181" data-name="Path 181" d="M1563.792,219.891a.708.708,0,1,1,1,.023A.708.708,0,0,1,1563.792,219.891Z" transform="translate(-1176.351 -170.63)" fill="#636363"/>
  <path id="Path_182" data-name="Path 182" d="M1573.032,228.5a.708.708,0,1,1-.02,1A.708.708,0,0,1,1573.032,228.5Z" transform="translate(-1183.266 -177.834)" fill="#636363"/>
  <path id="Path_183" data-name="Path 183" d="M1582.1,237.968a.708.708,0,1,1-.02,1,.708.708,0,0,1,.02-1Z" transform="translate(-1190.067 -184.935)" fill="#636363"/>
  <path id="Path_184" data-name="Path 184" d="M1591.268,248.567a.708.708,0,1,1,1,.02A.708.708,0,0,1,1591.268,248.567Z" transform="translate(-1196.954 -192.133)" fill="#636363"/>
  <path id="Path_185" data-name="Path 185" d="M1600.482,257.161a.705.705,0,1,1-.219.5A.708.708,0,0,1,1600.482,257.161Z" transform="translate(-1203.847 -199.329)" fill="#636363"/>
  <path id="Path_186" data-name="Path 186" d="M1609.555,266.614a.71.71,0,1,1-.022,1A.71.71,0,0,1,1609.555,266.614Z" transform="translate(-1210.652 -206.416)" fill="#636363"/>
  <path id="Path_187" data-name="Path 187" d="M1618.714,277.2a.71.71,0,1,1,1,.023A.71.71,0,0,1,1618.714,277.2Z" transform="translate(-1217.535 -213.603)" fill="#d5e5fb"/>
  <circle id="Ellipse_20" data-name="Ellipse 20" cx="10.03" cy="10.03" r="10.03" transform="translate(289.74 0)" fill="#636363"/>
  <path id="Path_188" data-name="Path 188" d="M1201,40.882a3.221,3.221,0,1,1,3.221,3.222A3.221,3.221,0,0,1,1201,40.882Z" transform="translate(-904.447 -34.876)"/>
  <path id="Path_189" data-name="Path 189" d="M1196.965,63.42a5.635,5.635,0,0,0-5.635,5.633H1202.6A5.633,5.633,0,0,0,1196.965,63.42Z" transform="translate(-897.196 -54.193)"/>
  <circle id="Ellipse_21" data-name="Ellipse 21" cx="15.457" cy="15.457" r="15.457" transform="translate(353.81 12.266)" fill="#636363"/>
  <circle id="Ellipse_22" data-name="Ellipse 22" cx="4.96" cy="4.96" r="4.96" transform="translate(364.307 16.563)"/>
  <path id="Path_190" data-name="Path 190" d="M1465.684,132.41a8.682,8.682,0,0,0-8.684,8.682h17.363A8.682,8.682,0,0,0,1465.684,132.41Z" transform="translate(-1096.417 -105.928)"/>
  <path id="Path_191" data-name="Path 191" d="M1604.7,275.425a10.435,10.435,0,1,1,10.435,10.435,10.435,10.435,0,0,1-10.435-10.435Z" transform="translate(-1207.175 -205.347)" fill="#636363"/>
  <path id="Path_192" data-name="Path 192" d="M1634.212,286.742a1.648,1.648,0,0,0-.082-.568,1.19,1.19,0,0,0-.29-.445,2.17,2.17,0,0,0-.523-.373,5.783,5.783,0,0,0-.788-.34,15.34,15.34,0,0,1-1.453-.613,4.851,4.851,0,0,1-1.113-.73,2.859,2.859,0,0,1-.713-.955,3.252,3.252,0,0,1,0-2.471,2.7,2.7,0,0,1,.67-.92,3.394,3.394,0,0,1,1.031-.628,4.5,4.5,0,0,1,1.338-.3l.025-1.631,1.313.017-.025,1.656a4.025,4.025,0,0,1,1.276.393,3.11,3.11,0,0,1,.965.75,3.173,3.173,0,0,1,.605,1.073,4.191,4.191,0,0,1,.2,1.378l-2.374-.035a2,2,0,0,0-.385-1.373,1.391,1.391,0,0,0-1.08-.47,1.751,1.751,0,0,0-.638.1,1.191,1.191,0,0,0-.445.275,1.134,1.134,0,0,0-.25.42,1.605,1.605,0,0,0-.09.523,1.5,1.5,0,0,0,.075.513,1.121,1.121,0,0,0,.278.428,2.216,2.216,0,0,0,.528.373,7.7,7.7,0,0,0,.82.368q.793.308,1.441.63a4.941,4.941,0,0,1,1.108.738,2.781,2.781,0,0,1,.953,2.251,3.005,3.005,0,0,1-.25,1.2,2.691,2.691,0,0,1-.675.913,3.251,3.251,0,0,1-1.04.61,4.914,4.914,0,0,1-1.346.288l-.023,1.516-1.3-.018.02-1.5a5.593,5.593,0,0,1-1.313-.315,3.532,3.532,0,0,1-1.118-.678,3.116,3.116,0,0,1-.773-1.1,3.834,3.834,0,0,1-.273-1.573l2.374.033a2.372,2.372,0,0,0,.138.908,1.443,1.443,0,0,0,.973.9,2.557,2.557,0,0,0,.66.1,2.162,2.162,0,0,0,.678-.09,1.415,1.415,0,0,0,.5-.268,1.125,1.125,0,0,0,.3-.41A1.371,1.371,0,0,0,1634.212,286.742Z" transform="translate(-1225.014 -214.181)"/>
  <path id="Path_193" data-name="Path 193" d="M2614.423,1319.631l-18.053,2.574a4.327,4.327,0,0,1-4.882-3.664l-1.113-7.824a4.327,4.327,0,0,1,3.661-4.88l18.054-2.574a4.327,4.327,0,0,1,4.882,3.664l1.113,7.823A4.327,4.327,0,0,1,2614.423,1319.631Z" transform="translate(-1946.285 -983.9)" fill="#233862"/>
  <path id="Path_194" data-name="Path 194" d="M2599.871,1303.341l1.128,7.914a4.338,4.338,0,0,0,2.549,3.351,4.247,4.247,0,0,0,1.408.355h0a4.255,4.255,0,0,0,.941-.03l18.008-2.569a4.344,4.344,0,0,0,3.677-4.9l-1.128-7.916a4.347,4.347,0,0,0-4.9-3.677l-6.175.885-.25-1.688a1.428,1.428,0,0,0-1.616-1.213l-.68.1-3.774.538-.938.135a1.431,1.431,0,0,0-1.213,1.616l.25,1.688-3.594.5c-.143.02-.28.048-.417.08h0a4.339,4.339,0,0,0-3,2.614h0A4.282,4.282,0,0,0,2599.871,1303.341Zm14.607-6.458-6.448.92-.25-1.688a.53.53,0,0,1,.453-.6l1.618-.232,2.971-.423.8-.115a.585.585,0,0,1,.163,0,.54.54,0,0,1,.443.45Z" transform="translate(-1953.405 -976.867)" fill="#2b478b"/>
  <path id="Path_195" data-name="Path 195" d="M2631.76,1271.963a6.08,6.08,0,0,1,.985,1.768c.25,3.419-1.308,3.894,2.751,5.793,0,0,1.728.66,1.75-.68s-1.2-1.363-.973-3.251c.25-2.166.233-2.186-1.188-3.317l-.943-1.556Z" transform="translate(-1977.351 -959.528)" fill="#ffb27d"/>
  <path id="Path_196" data-name="Path 196" d="M2633.464,1281.71s-.913.951-.97,1.346c-.185,1.273-.611,1.821-.4,1.958.442.288,1.028-.653,1.308-1.5A3.851,3.851,0,0,0,2633.464,1281.71Z" transform="translate(-1977.559 -967.769)" fill="#ffb27d"/>
  <path id="Path_197" data-name="Path 197" d="M2466.007,1555.94l.958-6.891-4.02-3.359-1.265,9.122Z" transform="translate(-1845.974 -1159.088)" fill="#ffb27d"/>
  <path id="Path_198" data-name="Path 198" d="M2441,1611.652h16.383a8.97,8.97,0,0,0-.465-4.39c-.818-1.818-2.094-2.941-2.211-4.332a4.948,4.948,0,0,1-4.69,1.443,17.987,17.987,0,0,1-2.844,3.684C2446.095,1608.825,2441.323,1608.553,2441,1611.652Z" transform="translate(-1834.303 -1208.647)" fill="#233862"/>
  <path id="Path_199" data-name="Path 199" d="M2454.037,1214.351c1.071,8.616,1.946,16.743,2.661,24.316,3.809,40.346,3.059,65.008,3.059,65.008s.275.73,2.638.75a13.6,13.6,0,0,0,2.644-.283s8.536-26.35,7.879-41.342a23.182,23.182,0,0,0-.666-4.855c-2.048-7.669,7.576-37.017-2.886-47.932S2453.544,1210.395,2454.037,1214.351Z" transform="translate(-1844.055 -910.535)" fill="#f99746"/>
  <path id="Path_200" data-name="Path 200" d="M2454.037,1214.328c1.071,8.617,1.946,16.743,2.661,24.316l16.225,24.124a23.168,23.168,0,0,0-.666-4.855c-2.048-7.668,7.576-37.017-2.886-47.932S2453.544,1210.371,2454.037,1214.328Z" transform="translate(-1844.055 -910.512)" fill="#ed7d2b"/>
  <path id="Path_201" data-name="Path 201" d="M2390.2,885.259s.4-1.971.838-3.472c.2-.665-1.173-5.032-2.123-5.57s-3.419,2.4-2.721,4.662c.36,1.158.951,4.935.951,4.935Z" transform="translate(-1793.112 -663.648)" fill="#ffb27d"/>
  <path id="Path_202" data-name="Path 202" d="M2402.58,899.67s.515-1.143.981-1.328.965-2.051,1.308-2.791c0,0-.331-.485-.908.137-.353.38-1.138,1.5-1.138,1.5Z" transform="translate(-1805.492 -678.059)" fill="#ffb27d"/>
  <path id="Path_203" data-name="Path 203" d="M2587.917,1577.754c.23-2.208.288-8.019.288-8.019s-5.92-1.894-5.7-.593a41.885,41.885,0,0,1,.781,9.552l2.394,1.428Z" transform="translate(-1940.409 -1182.967)" fill="#ffb27d"/>
  <path id="Path_204" data-name="Path 204" d="M2473.9,1235.931s22.871,62.694,27.373,89.889a4.564,4.564,0,0,0,2.989.478,3.34,3.34,0,0,0,2.811-1.8s4.132-32.6-4.082-43.91c-5.64-7.774,2.434-41.917-10.707-44.656S2473.9,1235.931,2473.9,1235.931Z" transform="translate(-1858.974 -932.527)" fill="#f99746"/>
  <path id="Path_205" data-name="Path 205" d="M2487.1,973.654a7.081,7.081,0,0,0,.345.766,6.2,6.2,0,0,0,.666,1.023,9.626,9.626,0,0,1-.278-1.183h0c-.037-.21-.07-.433-.1-.675a25.532,25.532,0,0,1-.055-4.5,24.752,24.752,0,0,0,.383,4.467c.035.188.075.38.12.568a10.375,10.375,0,0,0,.565,1.8c.043.108.088.213.138.315a45.9,45.9,0,0,1,5.215,5.848c1.281,1.646,2.579,3.442,3.8,5.252.473.7.935,1.4,1.383,2.086h0c.19.293.375.58.555.868h0c.225.358.445.71.66,1.063.6.973,1.158,1.916,1.656,2.811.115.205.228.405.333.6,1.546,2.834,2.466,5.085,2.251,5.945l.282-.2.173-.118c.633-.44,1.878-1.3,3.457-2.364l.1-.32.788-2.439a5.672,5.672,0,0,1-.06,2.2c2.471-1.673,5.557-3.732,8.354-5.52h0c2.089-1.338,4-2.526,5.4-3.292a35.192,35.192,0,0,0-.875-3.539c.818.36,1.6,2.073,1.963,2.976.093-.045.183-.085.265-.12,0,0,.153-7-8.974-13.584-4.785-3.456-8.176-5.1-7.461-8.474s1.333-18.279-9.2-15.925a6.594,6.594,0,0,0-2.224-.945,1.961,1.961,0,0,1,.82.548,7.735,7.735,0,0,0-4.3.18,6.566,6.566,0,0,0-2.611,2.829h0l-.167.293a22.237,22.237,0,0,0-1.1,2.186,36.983,36.983,0,0,0-1.663,4.6h0c-.158.538-.3,1.081-.436,1.633a.506.506,0,0,0-.02.083h0C2486.2,965.813,2485.867,970.508,2487.1,973.654Z" transform="translate(-1868.28 -718.313)" fill="#163560"/>
  <path id="Path_206" data-name="Path 206" d="M2498.049,1033.031c-.035,0,2.949,2.171,5.48,1.866,2.381-.282,4.319-3.026,4.287-3.039-.94-.335-1.021-1.708-.15-7.428l-.45.02-7.583.363s-.177,2.344-.5,4.53C2498.867,1031.176,2498.5,1032.9,2498.049,1033.031Z" transform="translate(-1877.083 -774.839)" fill="#ffb27d"/>
  <path id="Path_207" data-name="Path 207" d="M2502.88,1024.913s-.178,2.344-.5,4.53c4.137.5,6.876-2.939,8.079-4.892Z" transform="translate(-1880.33 -774.929)" fill="#ed975d"/>
  <path id="Path_208" data-name="Path 208" d="M2503.358,974.133a21.854,21.854,0,0,0,3.619-5.933c.68-2.028.768-9.91-7.159-9.952a10.673,10.673,0,0,0-4.619,1c-1.853.888-4.65,2.981-2.934,10.127l.368,2.381Z" transform="translate(-1872.344 -725.21)" fill="#163560"/>
  <path id="Path_209" data-name="Path 209" d="M2447.87,1101.594s13.451,4.487,25.839,1.471c.148-.035,7.229-6.3,7.229-6.3-.173-.473-1.473-8.239-1.643-8.674-2.2-5.673-6.213-36.457-9.569-37.975-.858.933-3.307,1.573-5.4,1.386-2.413-.213-3.221-1.251-3.021-2.379-2.671,1.263-4.725,2.439-4.725,2.439C2454.136,1055.215,2447.87,1101.594,2447.87,1101.594Z" transform="translate(-1839.455 -793.354)" fill="#fff"/>
  <path id="Path_210" data-name="Path 210" d="M2491.947,985.1s9.727,1.613,10.637-4.462,2.781-9.957-3.391-11.255-7.731.853-8.529,2.8S2489.44,984.527,2491.947,985.1Z" transform="translate(-1871.08 -733.265)" fill="#ffb27d"/>
  <path id="Path_211" data-name="Path 211" d="M2509,964.622s1.608,7.524,5.55,9.187,5.883.83,5.883.83a11.727,11.727,0,0,1-2.776-7.421S2511.5,961.523,2509,964.622Z" transform="translate(-1885.295 -729.297)" fill="#163560"/>
  <path id="Path_212" data-name="Path 212" d="M2494.519,965.785a8.722,8.722,0,0,0-2.949,2.771c-.718,1.476-1.408,4.625-2.319,4.379,0,0-1.293-5.145,1.376-7.548C2493.456,962.839,2494.519,965.785,2494.519,965.785Z" transform="translate(-1870.25 -729.786)" fill="#163560"/>
  <path id="Path_213" data-name="Path 213" d="M2389.906,911.5a6.174,6.174,0,0,1,1.751-.538,5.419,5.419,0,0,1,1.528.16s2.751,17.06,2.949,17.966,11.773,13.937,14.892,13.884c2.816-.047,6.153,2.126,6.773,2.544,0,0-5.647,10.185-6.921,20.777-1.075,8.939-3.717,42.192-3.717,42.192s.2,2.031-3.594.938-4.752-2-4.752-2,3.487-34.371,4.219-45.061c.1-1.433.733-6.43,0-7.421-4.8-6.585-12.376-17.258-12.8-19.524C2389.634,932.088,2389.906,911.5,2389.906,911.5Z" transform="translate(-1795.943 -689.746)" fill="#2b478b"/>
  <path id="Path_214" data-name="Path 214" d="M2549.59,1611.652h16.383a8.989,8.989,0,0,0-.463-4.39c-.821-1.818-2.1-2.941-2.211-4.332a4.955,4.955,0,0,1-4.692,1.443,18.032,18.032,0,0,1-2.841,3.684C2554.7,1608.825,2549.92,1608.553,2549.59,1611.652Z" transform="translate(-1915.733 -1208.647)" fill="#233862"/>
  <path id="Path_215" data-name="Path 215" d="M2517.953,1114.612s1.106,5.34,6.17,5,12.408-2.876,12.408-2.876-.343-5.57-.9-13.369c-.538-7.568-1.273-17.231-2.1-25.942-1.12-11.893-2.393-22.01-3.526-22.546a40.681,40.681,0,0,0-8.519-2.641s-3.717,15.882-4.354,23.726C2516.545,1083.309,2517.953,1114.612,2517.953,1114.612Z" transform="translate(-1891.289 -795.693)" fill="#2b478b"/>
  <path id="Path_216" data-name="Path 216" d="M2499.152,1018.732a4.348,4.348,0,0,1-2.579.483c-.955-.143-1.173-1.276-1.173-1.276a3.766,3.766,0,0,1,1.726,0A7.328,7.328,0,0,1,2499.152,1018.732Z" transform="translate(-1875.097 -769.897)" fill="#fff"/>
  <path id="Path_217" data-name="Path 217" d="M2558.56,1127s.072,17.421,6.135,29.764c.958,1.956,1.641,2.736,2.111,2.669-.538-7.568-1.273-17.23-2.1-25.942Z" transform="translate(-1922.459 -851.755)" fill="#233862"/>
  <path id="Path_218" data-name="Path 218" d="M2555.746,1058.72s5.587,1.643,8.116,5.252,10.713,23.954,12.881,31.417,3.129,18.479,3.129,18.479a11.346,11.346,0,0,1-6.661,0s-4.655-16.633-6.421-18.479-12.131-20.462-12.131-20.462Z" transform="translate(-1919.535 -800.553)" fill="#2b478b"/>
  <path id="Path_219" data-name="Path 219" d="M1239.006,752.282s-44.828-15.557-140.36,3.036c-29.554,5.753-66.531,17.393-106.395,27.263L968.68,700.158l.685-.178c12.053-3.1,52.38-14.322,99.1-31.707,42.182-15.692,89.814-36.134,124.853-75.743l33.846,118.348Z" transform="translate(-730.234 -450.964)" fill="#ed7d2b"/>
  <path id="Path_220" data-name="Path 220" d="M1229.22,710.893c-15.1-3.579-59.878-10.785-137.234,4.17-30.1,5.818-67.744,17.683-108.333,27.708L971.42,700c12.053-3.1,52.379-14.322,99.1-31.707,42.182-15.692,89.814-36.134,124.853-75.743Z" transform="translate(-732.289 -450.979)" fill="#f99746"/>
  <path id="Path_221" data-name="Path 221" d="M1912.1,732.7h0a2.576,2.576,0,0,1-3.184-1.768l-48.215-168.6a2.574,2.574,0,0,1,1.768-3.181h0a2.576,2.576,0,0,1,3.184,1.766l48.215,168.6a2.574,2.574,0,0,1-1.768,3.184Z" transform="translate(-1399.072 -425.859)" fill="#ed7d2b"/>
  <path id="Path_222" data-name="Path 222" d="M790.975,1119.345l48.41-13.844L815.779,1023l-48.41,13.844a3.729,3.729,0,0,0-2.554,4.6l21.56,75.353A3.729,3.729,0,0,0,790.975,1119.345Z" transform="translate(-577.253 -773.767)" fill="#d66316"/>
  <path id="Path_223" data-name="Path 223" d="M1187.124,1333.595l-42.99.185-21.45-45.426-7.924-16.788.015-.007,39.206-12.378.708,1.593,7.281,16.348Z" transform="translate(-835.94 -944.239)" fill="#f99746"/>
  <path id="Path_224" data-name="Path 224" d="M1210.88,1387.384l-42.99.185-21.45-45.426,39.286-11.233Z" transform="translate(-859.697 -998.028)" fill="#ed7d2b"/>
  <path id="Path_225" data-name="Path 225" d="M2084.216,632.382h0a2.794,2.794,0,0,1-.388,3.922L2042.4,670.269a2.8,2.8,0,0,1-3.924-.388h0a2.8,2.8,0,0,1,.387-3.922l41.427-33.966A2.794,2.794,0,0,1,2084.216,632.382Z" transform="translate(-1531.989 -480.086)" fill="#f99746"/>
  <path id="Path_226" data-name="Path 226" d="M2144.5,959.013h0a2.791,2.791,0,0,1-3.046,2.5l-53.31-5.272a2.8,2.8,0,0,1-2.5-3.049h0a2.8,2.8,0,0,1,3.049-2.5L2142,955.966A2.791,2.791,0,0,1,2144.5,959.013Z" transform="translate(-1567.816 -719.534)" fill="#f99746"/>
  <path id="Path_227" data-name="Path 227" d="M2156.157,801.12h0a2.8,2.8,0,0,1-2.251,3.252l-74.69,13.576a2.8,2.8,0,0,1-3.251-2.251h0a2.8,2.8,0,0,1,2.251-3.252l74.7-13.576A2.8,2.8,0,0,1,2156.157,801.12Z" transform="translate(-1560.535 -605.661)" fill="#f99746"/>
  <path id="Path_228" data-name="Path 228" d="M1487.38,1564.769a15.689,15.689,0,0,1,.415-3.862c.415-.965,1.926-4.887,1.926-4.887h5.923a36.443,36.443,0,0,1,1.171,4.752c.07,1.173,0,4,0,4Z" transform="translate(-1119.199 -1173.47)" fill="#233862"/>
  <path id="Path_229" data-name="Path 229" d="M1609.321,1564.769a15.7,15.7,0,0,0-.415-3.862c-.416-.965-1.926-4.887-1.926-4.887h-5.923a36.439,36.439,0,0,0-1.171,4.752c-.07,1.173,0,4,0,4Z" transform="translate(-1203.542 -1173.47)" fill="#233862"/>
  <path id="Path_230" data-name="Path 230" d="M1520.143,930.421s-.208,6.455-1.033,9.347l-6.54,4.562,24.614,3.684-5.87-8.111s-1.771-8.654-.843-11.856S1520.143,930.421,1520.143,930.421Z" transform="translate(-1138.089 -701.819)" fill="#ffb27d"/>
  <path id="Path_231" data-name="Path 231" d="M1542.71,944.08s1.946,4.685,5.613,4.582,4.5-4.252,4.5-4.252Z" transform="translate(-1160.69 -714.586)" fill="#ed985f"/>
  <path id="Path_232" data-name="Path 232" d="M1526.668,873.021a59.849,59.849,0,0,0-2-7.7c-.818-1.791-1.513-9.777,7.644-10.19,0,0,3.5.413,5.44-.75,0,0,0,1.171-.483,1.583a6.09,6.09,0,0,1,5.645,2c2.479,2.751-1.651,12.393-1.446,14.664Z" transform="translate(-1146.826 -647.321)" fill="#2c3a64"/>
  <path id="Path_233" data-name="Path 233" d="M1540.846,902.076c-2.656-.047-7.546-3.584-7.546-7.964v-6.833a2.728,2.728,0,0,1,2.479-2.909h10.135a2.728,2.728,0,0,1,2.479,2.909v6.448C1548.392,898.317,1543.892,902.128,1540.846,902.076Z" transform="translate(-1153.633 -669.81)" fill="#ffb27d"/>
  <path id="Path_234" data-name="Path 234" d="M1532.287,886.206s.015-4.107,3.266-4.752,10.535,2,11.568-1-14.074-2.944-14.834-1.033S1532.287,886.206,1532.287,886.206Z" transform="translate(-1152.62 -665.091)" fill="#2c3a64"/>
  <path id="Path_235" data-name="Path 235" d="M1486.8,1189.65s1.035,31.635-.5,49.683,0,43.17,0,43.17a11.71,11.71,0,0,0,10.322,0s5.89-34.871,5.853-43.17c-.04-8.837,6.411-48.3,6.411-48.3Z" transform="translate(-1117.88 -898.735)" fill="#2b478b"/>
  <path id="Path_236" data-name="Path 236" d="M1569.125,1282.339a11.711,11.711,0,0,1-10.322,0s-5.89-34.871-5.853-43.17c.018-3.732-1.123-12.931-2.448-22.308-1.811-12.829-3.962-26-3.962-26l22.941-1.433s-1.891,31.69-.343,49.738S1569.125,1282.339,1569.125,1282.339Z" transform="translate(-1163.562 -898.57)" fill="#2b478b"/>
  <path id="Path_237" data-name="Path 237" d="M1523.944,1036.109a114.846,114.846,0,0,1-18.7,1.893,90.46,90.46,0,0,1-11.485-.878c-3.722-.5-6.391-1.016-6.391-1.016s-1.983.173-.813-9.6c.89-7.441.613-14.156.413-21.07-.022-.768,0-1.676.043-2.689.38-8.056,2.816-22.563,4.675-23.341a33.763,33.763,0,0,1,7.641-1.528c0,.095,2.831,4.234,6.191,4.7a11.589,11.589,0,0,0,6-4.565,65.205,65.205,0,0,1,9.427,1.818s.35,1.536,1.676,28.2C1523.154,1018.591,1526.76,1036.144,1523.944,1036.109Z" transform="translate(-1118.3 -739.932)" fill="#fff"/>
  <path id="Path_238" data-name="Path 238" d="M1564.829,1288.451c.017-3.732-1.123-12.931-2.449-22.308a44.172,44.172,0,0,1,4.72-10.993C1571.334,1267.028,1564.829,1288.451,1564.829,1288.451Z" transform="translate(-1175.44 -947.852)" fill="#233862"/>
  <path id="Path_239" data-name="Path 239" d="M1417.546,1015.215c-.235.2.58,2.211,1.778,4.837,2.466,5.4,6.561,13.369,6.561,13.369a23.709,23.709,0,0,1-1.25,3.639,86.759,86.759,0,0,1-14.169-13.551c-3.987-4.967-4.8-7.816-4.8-7.816,15.342-31.229,26.147-32.383,26.147-32.383l-1.276,20.64S1418.251,1014.625,1417.546,1015.215Z" transform="translate(-1057.918 -744.004)" fill="#fff"/>
  <path id="Path_240" data-name="Path 240" d="M1481.572,1178.951s3.717-3.441,5.232-1.5,1.788,4.957.618,4.752-3.579-1.308-3.924-.75-1.886,1.6-2.354.768S1481.572,1178.951,1481.572,1178.951Z" transform="translate(-1114.422 -889.142)" fill="#ffb27d"/>
  <path id="Path_241" data-name="Path 241" d="M1440.29,1143.579a23.691,23.691,0,0,1-1.251,3.639,86.758,86.758,0,0,1-14.169-13.551,17.7,17.7,0,0,0,8.852-3.457C1436.2,1135.608,1440.29,1143.579,1440.29,1143.579Z" transform="translate(-1072.323 -854.162)" fill="#ffb27d"/>
  <path id="Path_242" data-name="Path 242" d="M1646.622,1016.615s-.818,2.849-4.8,7.816a86.8,86.8,0,0,1-14.172,13.551,23.657,23.657,0,0,1-1.251-3.639s4.1-7.971,6.563-13.369c1.2-2.626,2-4.642,1.778-4.837-.553-.458-8.051-6.976-11.4-9.88l-1.591-1.386L1621,984.54S1631.28,985.385,1646.622,1016.615Z" transform="translate(-1219.398 -744.926)" fill="#fff"/>
  <path id="Path_243" data-name="Path 243" d="M1626.161,1178.951s-3.719-3.441-5.233-1.5-1.791,4.957-.62,4.752,3.579-1.308,3.924-.75,1.886,1.6,2.354.768S1626.161,1178.951,1626.161,1178.951Z" transform="translate(-1218.336 -889.142)" fill="#ffb27d"/>
  <path id="Path_244" data-name="Path 244" d="M1642.61,1143.579a23.7,23.7,0,0,0,1.25,3.639,86.755,86.755,0,0,0,14.169-13.551,17.688,17.688,0,0,1-8.849-3.457C1646.709,1135.608,1642.61,1143.579,1642.61,1143.579Z" transform="translate(-1235.603 -854.162)" fill="#ffb27d"/>
  <path id="Path_245" data-name="Path 245" d="M1535.883,971.59a2.614,2.614,0,0,0-1.4,1.7s4.382,4.5,7.253,4.577Z" transform="translate(-1154.518 -735.215)" fill="#ed7d2b"/>
  <path id="Path_246" data-name="Path 246" d="M1563.47,977.173l5.66-6.5a2.651,2.651,0,0,1,1.151,2.033S1565.9,977.346,1563.47,977.173Z" transform="translate(-1176.257 -734.525)" fill="#ed7d2b"/>
  <path id="Path_247" data-name="Path 247" d="M1550,994.678s-4.317,37.282-2.814,41.827a31.206,31.206,0,0,0,2.634,5.775,1.531,1.531,0,0,0,2.649,0c1.148-2,2.646-4.872,2.646-6.335,0-2.369-3.276-41.294-3.276-41.294Z" transform="translate(-1163.809 -752.507)" fill="#f99746"/>
  <path id="Path_248" data-name="Path 248" d="M1553.819,986.991a27.065,27.065,0,0,1,4.2-.1.44.44,0,0,1,.338.653c-.445.8-1.353,2.191-2.3,2.191C1554.717,989.735,1552.636,987.083,1553.819,986.991Z" transform="translate(-1168.757 -746.649)" fill="#ed7d2b"/>
  <path id="Path_249" data-name="Path 249" d="M1555,937.04a2.907,2.907,0,0,0,2.271,1.078,2.707,2.707,0,0,0,2.126-1.078A14.758,14.758,0,0,0,1555,937.04Z" transform="translate(-1169.906 -709.177)" fill="#fff"/>
  <path id="Path_250" data-name="Path 250" d="M1523.042,791.744l-2,1.443L1519,791.759a2.476,2.476,0,0,1,4.034-.015Z" transform="translate(-1142.91 -599.577)" fill="#fff"/>
  <path id="Path_251" data-name="Path 251" d="M1512.445,776.65a5.978,5.978,0,0,0-4.895,2.544l1.278.9a4.419,4.419,0,0,1,7.211-.025l1.273-.913A5.988,5.988,0,0,0,1512.445,776.65Z" transform="translate(-1134.324 -589.033)" fill="#fff"/>
  <path id="Path_252" data-name="Path 252" d="M1496.075,749.92a12.648,12.648,0,0,0-10.355,5.378l1.276.9a11.1,11.1,0,0,1,18.108-.07l1.266-.91A12.649,12.649,0,0,0,1496.075,749.92Z" transform="translate(-1117.954 -568.988)" fill="#fff"/>
  <path id="Path_253" data-name="Path 253" d="M1504.984,764.55a9.044,9.044,0,0,0-7.384,3.814l1.276.9a7.5,7.5,0,0,1,12.183-.048l1.266-.905A9.039,9.039,0,0,0,1504.984,764.55Z" transform="translate(-1126.863 -579.959)" fill="#fff"/>
  <path id="Path_254" data-name="Path 254" d="M683.024,907.49s-2.984-5.3,0-6.38,4.332-.083,4.475,1.125-1.135,5.965-1.135,5.965Z" transform="translate(-515.031 -682.017)" fill="#ffb27d"/>
  <path id="Path_255" data-name="Path 255" d="M568.37,957.854a96.671,96.671,0,0,1-14.957,1.536,83.7,83.7,0,0,1-11.505-.518q-1.358-.157-2.606-.348c-8.809-1.336-13.671-3.7-13.671-3.7s8.046-16.845,14.547-16.2c7.629.75,20.552,7.6,21.838,5.685,1.446-2.164,2.656-20.71,2.656-20.71,3.382-2.316,5.4.125,5.4.125S576.686,956.353,568.37,957.854Z" transform="translate(-397.998 -698.478)" fill="#f99746"/>
  <path id="Path_256" data-name="Path 256" d="M611.142,1035.792a96.717,96.717,0,0,1-14.957,1.536,83.7,83.7,0,0,1-11.505-.518c-2.029-6.453-3.5-13.046.593-9.072C592.481,1034.748,611.142,1035.792,611.142,1035.792Z" transform="translate(-440.77 -776.416)" fill="#ed7d2b"/>
  <path id="Path_257" data-name="Path 257" d="M522.877,1599.576s-.58,6.7.835,7.394l18.116-.038s0-2.091-2.909-2.556-8.021-2.169-8.887-5.963S522.877,1599.576,522.877,1599.576Z" transform="translate(-395.845 -1204.187)" fill="#233862"/>
  <path id="Path_258" data-name="Path 258" d="M507.336,1220.36c-.087,4.38-.3,8.9-.71,12.956-1.956,19.259-2.644,42.535-2.926,47.022-.5,7.789-2.026,20.234-2.026,20.234s-3.051,2.9-9,1.5a202.735,202.735,0,0,1-6.03-36.795c-.018-.31-.033-.62-.05-.931-.128-2.5-.25-5.35-.4-8.426-.905-20.6-1.891-51.214-1.891-51.214l22.733-5.338S507.561,1209.442,507.336,1220.36Z" transform="translate(-367.006 -906.024)" fill="#2a4e96"/>
  <path id="Path_259" data-name="Path 259" d="M486.2,1255.971c-.905-20.6-1.891-51.214-1.891-51.214l22.733-5.338S490.6,1248.651,486.2,1255.971Z" transform="translate(-367.013 -906.061)" fill="#233862"/>
  <path id="Path_260" data-name="Path 260" d="M332.078,1206.3s-3.7,4.352-4.032,5.558-.925,5.552-.608,6.858,2.776-3.642,3.672-4.169-.673,1.966-.365,2.384,2.071-1.458,2.751-2.091.62-4.047,1.446-6.063S332.078,1206.3,332.078,1206.3Z" transform="translate(-249.309 -911.22)" fill="#ffb27d"/>
  <path id="Path_261" data-name="Path 261" d="M334.769,1572.721s-3.224,2.941-2.594,5.032,3.539,3.484,3.932,6.04,1.966,3.954,3.382,3.954h6.753s1.043-1.8-1.473-2.341-3.467-3.544-3.309-6.333a49.11,49.11,0,0,0-.235-6.5l-5.35-1.251Z" transform="translate(-252.868 -1184.943)" fill="#233862"/>
  <path id="Path_262" data-name="Path 262" d="M397.338,1201.881s-21.28,45.521-32.605,65.51-14.864,25.554-14.864,25.554-6.488-2.554-7.078-4.3c0,0,4.332-38.57,11.916-47.972,4.285-5.312,9.319-21.26,9.554-26.833s5.207-18.884,5.207-18.884Z" transform="translate(-260.889 -902.716)" fill="#2a4e96"/>
  <path id="Path_263" data-name="Path 263" d="M471.864,1033.2a36.888,36.888,0,0,1-20.442,5.132c-5.252-.23-15.682-1.718-17.366-5.9-.4-.98-.105-2.226.488-4.139,1.538-4.967,5.122-14.432,4.042-35.411a34.182,34.182,0,0,1,.14-5.5c1.128-10.335,7.051-16.455,12.773-18.456,13.961-4.877,18.616,1.881,18.616,1.881s6.17,4.89,7.1,15.092C479.075,1006.3,471.864,1033.2,471.864,1033.2Z" transform="translate(-329.192 -731.885)" fill="#f99746"/>
  <path id="Path_264" data-name="Path 264" d="M520.7,930.776s6.405,3.894,13.354,2.794c0,0,1.373-.35.7-1.961a21.071,21.071,0,0,0,.618-2.153,32.818,32.818,0,0,0,.8-3.5l-3.944-4.144-3.734-3.959C527.456,927.307,520.7,930.776,520.7,930.776Z" transform="translate(-394.301 -694.916)" fill="#ffb27d"/>
  <path id="Path_265" data-name="Path 265" d="M549.44,932.17s2.146,5.735,7.481,8.024c.608-2.224,1-4.552,1-4.552l-4.154-3.1Z" transform="translate(-415.853 -705.655)" fill="#ed985f"/>
  <path id="Path_266" data-name="Path 266" d="M558.176,889.49s-12.226,1.528-13.086-5.985-3-12.376,4.752-13.669,9.617,1.406,10.522,3.847S561.334,888.9,558.176,889.49Z" transform="translate(-411.89 -658.66)" fill="#ffb27d"/>
  <path id="Path_267" data-name="Path 267" d="M529.7,854.754c-.1-.13-.355-.25-.92-.293a2.287,2.287,0,0,1,1.068-.25,2.85,2.85,0,0,1,2-2.449,1.708,1.708,0,0,0-.87,1.2c1.631-1.553,5.04-2.6,14.324-1.5,12.238,1.431,7.894,9.137,6.27,10s-5.528-1.843-8.5-1.721-3.7,4.357-4.73,4.907-.593-.475-1.928-1.141-1.551,1.581-1.213,3.061-1.6,3.339-1.6,3.339l-1.811-2.1c-1.808-2.1-3.251-10.777-2.333-12.581Z" transform="translate(-400.36 -644.789)" fill="#1d2a49"/>
  <path id="Path_268" data-name="Path 268" d="M603.76,873.752,583,873.937l-.143-3.124,20.695-1.6Z" transform="translate(-437.077 -651.806)" fill="#2a4e96"/>
  <path id="Path_269" data-name="Path 269" d="M660.538,868.178l-22.6.325-.258-5.678,22.536-1.746Z" transform="translate(-478.186 -645.71)" fill="#2a4e96"/>
  <path id="Path_270" data-name="Path 270" d="M731.817,863.149l-19.059.022-.348-7.664,18.981-1.728Z" transform="translate(-534.225 -640.236)" fill="#233862"/>
  <path id="Path_271" data-name="Path 271" d="M801.738,887.032h0a1.065,1.065,0,0,0,1.016-1.113l-.445-9.845a1.068,1.068,0,0,0-1.113-1.018h0a1.068,1.068,0,0,0-1.018,1.113l.455,9.847A1.065,1.065,0,0,0,801.738,887.032Z" transform="translate(-603.876 -662.826)" fill="#233862"/>
  <path id="Path_272" data-name="Path 272" d="M595.161,903.936h0a.95.95,0,0,1-1-.905l-.115-2.554a.95.95,0,0,1,.9-1h0a.95.95,0,0,1,1,.905l.115,2.554a.948.948,0,0,1-.9,1Z" transform="translate(-449.301 -681.137)" fill="#2a4e96"/>
  <path id="Path_273" data-name="Path 273" d="M436.55,1088.857c1.538-4.967,5.122-14.432,4.042-35.411a34.17,34.17,0,0,1,.14-5.5h0c4.595-.4,11.618,4.572,11.618,4.572S448.025,1078.88,436.55,1088.857Z" transform="translate(-331.198 -792.454)" fill="#ed7d2b"/>
  <path id="Path_274" data-name="Path 274" d="M385.444,969.53s-11.78,2.024-17.926,9.525-16.027,18.078-18.364,21.783-8.824,28.908-8.824,28.908.428.81,2.219,1.283a4.219,4.219,0,0,0,2.954-.25s8.594-14.709,11.828-22.058c1.346-3.051,24.589-15.145,33.326-13.891C394.088,995.322,385.444,969.53,385.444,969.53Z" transform="translate(-259.045 -733.67)" fill="#f99746"/>
  <path id="Path_275" data-name="Path 275" d="M681.26,889.676s2.536,1.551,4.049.893,1.383-1.251,1.383-1.251S682.113,888.043,681.26,889.676Z" transform="translate(-514.703 -673.165)" fill="#ffb27d"/>
  <path id="Path_276" data-name="Path 276" d="M428.931,1000.648s-5.17,32.64-41.849,42.145l-4,7.884,7.021,1.188s41.769-12.1,41.2-51.794Z" transform="translate(-291.102 -756.572)" fill="#bc3f3f"/>
  <path id="Path_277" data-name="Path 277" d="M542.783,955.02l-1.693.165v2.451l2.5,2.594,2.371-.578v-3.4l-1.706-1.233Z" transform="translate(-405.755 -716.154)" fill="#a02e2e"/>
  <path id="Path_278" data-name="Path 278" d="M520.488,955.6s-1.641.37-5.388,3.484c0,0,3.727,7.909,11.588,8.857a26.358,26.358,0,0,1,.443-5.85S520.9,959.859,520.488,955.6Z" transform="translate(-390.102 -723.224)" fill="#ed7d2b"/>
  <path id="Path_279" data-name="Path 279" d="M563.2,975.034s3.837,2.036,4.119,5.21c0,0,1.468-2.324,1.043-3.932a12.988,12.988,0,0,0-1.751-3.452S566.752,974.8,563.2,975.034Z" transform="translate(-426.171 -736.168)" fill="#ed7d2b"/>
  <path id="Path_280" data-name="Path 280" d="M827.3,677.19a28.978,28.978,0,0,1-8.609,10l-20.732.1S830.205,671.9,827.3,677.19Z" transform="translate(-602.214 -513.618)" fill="#233862"/>
  <path id="Path_281" data-name="Path 281" d="M854.707,842.063a1.908,1.908,0,0,0-.3,2.046c.52,1.351,2.176,2.836,4.094,4.314.25.19.463.363.653.525.05.04.1.083.145.125l.115.1c1.791,1.588,1.135,1.973,4.365,5.2,3.682,3.682,6.165,3.7,6.866,3.344.59-.3-.663-2.269-2.051-4.48l-.2-.323c-.185-.293-.37-.593-.553-.888-1.631-2.661-1.251-3.932-.956-7.946.25-3.252,4.7-18.289,4.7-18.289l-6.933-1.055s-1.843,11.945-4.1,13.821c-1.208,1-2.581,1.041-3.752,1.788-.083.05-.163.105-.25.158A9.152,9.152,0,0,0,854.707,842.063Z" transform="translate(-644.414 -625.095)" fill="#ffb27d"/>
  <path id="Path_282" data-name="Path 282" d="M854.707,888.826a1.908,1.908,0,0,0-.3,2.046c.63,1.348,2.251,2.826,4.1,4.3.25.193.455.37.648.538.05.04.1.083.145.125l.115.1c1.791,1.588,1.135,1.973,4.365,5.2,3.682,3.682,6.165,3.7,6.866,3.344.59-.3-.663-2.269-2.051-4.479a15.362,15.362,0,0,1-6.523-4.61c-2.226-2.729-3.752-6.253-5.265-8.294-.083.05-.163.105-.25.158A9.152,9.152,0,0,0,854.707,888.826Z" transform="translate(-644.414 -671.857)" fill="#233862"/>
  <path id="Path_283" data-name="Path 283" d="M1061.18,827.6c.47,2.126,3.5,1.711,6.886.813s2.591.105,7.419-.525,6.253-2.464,6.385-3.184c.12-.643-2.274-.82-4.842-1.063l-.973-.1c-2.9-.305-5.055-2.131-7.714-3.614-2.519-1.4-6.351-7.253-6.351-7.253l-6.62.655s3.584,5.217,4.975,7.489a8.094,8.094,0,0,1,.75,4.5A8.508,8.508,0,0,0,1061.18,827.6Z" transform="translate(-795.242 -616.051)" fill="#ffb27d"/>
  <path id="Path_284" data-name="Path 284" d="M1085.094,861.292c3.382-.9,2.591.105,7.418-.525s6.253-2.464,6.385-3.184c.12-.643-2.274-.82-4.842-1.063l-.022.048a13.644,13.644,0,0,1-6.883,2.291c-3.279.145-6.773-.728-9.037-.645a8.507,8.507,0,0,0,.095,2.266C1078.678,862.605,1081.712,862.19,1085.094,861.292Z" transform="translate(-812.269 -648.926)" fill="#233862"/>
  <path id="Path_285" data-name="Path 285" d="M907.57,673.482l-5.87,16.8-7.664,21.94a13.124,13.124,0,0,1-4.307-.308,18.719,18.719,0,0,1-4.2-1.941s1.786-23.433,5.713-36.94c1-3.467,2.156-6.278,3.454-7.874C901.045,657.357,907.57,673.482,907.57,673.482Z" transform="translate(-667.881 -503.831)" fill="#233862"/>
  <path id="Path_286" data-name="Path 286" d="M767.656,592.659c-4.087-1.231-15.637.68-27.23,3.189l-2.516-3.972-25.172-1.466s-7.931,18.556-3.159,30.187a3.992,3.992,0,0,0,4.2,2.616l1.393-.073s14.044-.078,18.9-.173c12.506-.25,26.285-9.114,28.081-9.5,2.944-.648,4.252,5.237,7.318,11.383s28.316,26.93,28.316,26.93a21.836,21.836,0,0,0,5.38-.66,5.317,5.317,0,0,0,2.284-1.5S776.873,595.432,767.656,592.659Z" transform="translate(-534.793 -449.374)" fill="#2b478b"/>
  <path id="Path_287" data-name="Path 287" d="M690.793,297.432a8.931,8.931,0,0,0-4.857-1.153,14.318,14.318,0,0,1-2.4-.11c-9.549-1.091-15.007,12.861-15.257,17.06-.468,7.754-4.535,9-10.195,13.956-11.348,9.932-7.754,21.145-1.348,25.212,3.837,2.439,10.46-.208,10.46-.208.1.065,18.051-10.5,26.9-15.615C707.471,334.4,696.248,300.536,690.793,297.432Z" transform="translate(-491.803 -228.682)" fill="#233862"/>
  <path id="Path_288" data-name="Path 288" d="M756.744,400.034c.04.025-4.375,1.631-7.371.373-2.819-1.181-5.027-5.735-4.985-5.74,1.271-.083,2.644-1.223,3.574-8.536l.545.183,9.167,3.1s-.6,2.934-.973,5.723C756.389,397.473,756.239,399.714,756.744,400.034Z" transform="translate(-562.041 -296.188)" fill="#ffb27d"/>
  <path id="Path_289" data-name="Path 289" d="M770.027,389.956s-.6,2.934-.973,5.723c-5.252-.838-7.4-6-8.194-8.819Z" transform="translate(-574.393 -296.736)" fill="#ed975d"/>
  <path id="Path_290" data-name="Path 290" d="M768.574,345.3s-12.486-1.431-11.478-9.184.073-13.176,8.089-12.593,9.177,3.752,9.469,6.418S771.848,345.472,768.574,345.3Z" transform="translate(-571.528 -249.207)" fill="#ffb27d"/>
  <path id="Path_291" data-name="Path 291" d="M763.08,323.553s-7.836,7.028-13.256,7.689-7.5-1.038-7.5-1.038a21.2,21.2,0,0,0,4.982-7.038,3.819,3.819,0,0,1,3.1-2.311C754.281,320.444,761.619,320.147,763.08,323.553Z" transform="translate(-560.49 -247.058)" fill="#233862"/>
  <path id="Path_292" data-name="Path 292" d="M805.35,325.661a19.614,19.614,0,0,1,3.6,4.425,15.09,15.09,0,0,1,.565,8s4-8.161,1.566-12.041C808.514,321.935,805.35,325.661,805.35,325.661Z" transform="translate(-607.756 -249.684)" fill="#233862"/>
  <path id="Path_293" data-name="Path 293" d="M736.872,442.857c.122,25.219.293,19.944-2.419,22.39-.653.59-2.5.97-4.97,1.181-7.721.665-21.335-.34-21.88-1.751-1.878-4.907-.65-6.468-2.289-14.006-.17-.8-.38-1.668-.623-2.614-1.343-5.172-2.586-6.916,1.651-15.355,3.839-7.641,7.864-13.864,8.241-13.649,10.653,6.043,11.4.773,11.4.773S736.815,430.557,736.872,442.857Z" transform="translate(-531.322 -320.873)" fill="#9cc4ff"/>
  <path id="Path_294" data-name="Path 294" d="M901.7,720.288l-7.664,21.94a13.124,13.124,0,0,1-4.307-.308,18.721,18.721,0,0,1-4.2-1.941s1.786-23.433,5.713-36.94Z" transform="translate(-667.881 -533.834)" fill="#2b478b"/>
  <path id="Path_295" data-name="Path 295" d="M793.62,422.12s10.87,1.623,12.233,6.253,9.392,31.912,9.392,31.912-5.487,1.1-8.081-1.4-9.319-23.431-9.319-23.431Z" transform="translate(-598.96 -323.176)" fill="#9cc4ff"/>
  <path id="Path_296" data-name="Path 296" d="M735.159,529.54c-7.721.665-21.335-.34-21.88-1.751-1.878-4.907-.65-6.468-2.289-14.007l3.522-10.572s-.385,11.7,3.124,14.7,14.232,5.658,15.96,8.194A9.392,9.392,0,0,1,735.159,529.54Z" transform="translate(-536.997 -383.985)" fill="#7da6ef"/>
  <path id="Path_297" data-name="Path 297" d="M771.82,585.517s7.594-1.848,8.837-1.2,4.3,3.059,4.695,3.907-2.751-.6-3.772-.848c-.66-.163-2.376.473-3.227.773a10.773,10.773,0,0,1-5.793.7Z" transform="translate(-582.612 -444.704)" fill="#ffb27d"/>
  <path id="Path_298" data-name="Path 298" d="M676.322,419s-10.23.833-13.676,5.848c-4.852,7.058-14.167,36.915-8.414,40.769,6.476,4.327,29.1.59,29.1.59s.685-3.544-.4-5.23-18.208-4.107-19.009-4.88,9.547-15.56,9.5-17.923S676.322,419,676.322,419Z" transform="translate(-493.072 -320.837)" fill="#9cc4ff"/>
  <path id="Path_299" data-name="Path 299" d="M808.79,593.2a14.246,14.246,0,0,0,2.169,2.251,1.54,1.54,0,0,0,.865.168l-1.115-1.916Z" transform="translate(-610.335 -451.467)" fill="#ffb27d"/>
  <path id="Path_300" data-name="Path 300" d="M807.15,584.74l4.69,2.164a.825.825,0,0,1-.75.313,11.379,11.379,0,0,1-2.026-.5Z" transform="translate(-609.105 -445.123)" fill="#ffb27d"/>
  <path id="Path_301" data-name="Path 301" d="M802.37,503.1l36.75-.725,10.515-27.71-36.695.725Z" transform="translate(-601.684 -355.94)" fill="#f99746"/>
  <path id="Path_302" data-name="Path 302" d="M805.448,581.13l-48.528.958.02,1.07,48.1-.948Z" transform="translate(-567.602 -435.78)" fill="#ed7d2b"/>
  <path id="Path_303" data-name="Path 303" d="M915.795,552.581a1.274,1.274,0,0,0-1.283-1.723,2.5,2.5,0,0,0-2.219,1.793,1.276,1.276,0,0,0,1.283,1.726A2.5,2.5,0,0,0,915.795,552.581Z" transform="translate(-687.906 -419.714)" fill="#fff"/>
  <path id="Path_304" data-name="Path 304" d="M631.737,1585.52h426.151a5.39,5.39,0,0,1,5.39,5.39v1.178a5.392,5.392,0,0,1-5.4,5.39L631.6,1597a5.39,5.39,0,0,1-5.292-6.373l.128-.7a5.392,5.392,0,0,1,5.3-4.41Z" transform="translate(-473.428 -1195.591)" fill="#233862"/>
</svg>
