<svg xmlns="http://www.w3.org/2000/svg" width="78" height="78" viewBox="0 0 78 78">
  <g id="noun_Community_2088450" transform="translate(-0.1 -0.21)">
    <g id="Group_16" data-name="Group 16" transform="translate(0 0.11)">
      <rect id="Rectangle_72" data-name="Rectangle 72" width="78" height="78" transform="translate(0.1 0.1)" fill="none"/>
      <path id="Path_307" data-name="Path 307" d="M9.3,20.532a2.452,2.452,0,0,1-4.538-1.858A25.983,25.983,0,0,1,15.057,6.48a2.452,2.452,0,0,1,2.591,4.163A21.079,21.079,0,0,0,9.3,20.532ZM31.828,49.374a2.452,2.452,0,1,1,.772,4.842,25.6,25.6,0,0,1-16.51-2.933A2.452,2.452,0,1,1,18.485,47a20.549,20.549,0,0,0,7.7,2.488,20.864,20.864,0,0,0,2.386.136A20.646,20.646,0,0,0,31.828,49.374ZM44.995,15.6a2.452,2.452,0,0,1,3.874-3.007,25.972,25.972,0,0,1,5.438,14.882,2.452,2.452,0,0,1-4.9.2A21.072,21.072,0,0,0,44.995,15.6Z" transform="translate(10.392 13.715)" fill="#636363"/>
      <path id="Path_308" data-name="Path 308" d="M45.542,16.1A9.839,9.839,0,1,0,35.7,26.043,9.892,9.892,0,0,0,45.542,16.1Zm4.9,0A14.742,14.742,0,1,1,35.7,1.25,14.8,14.8,0,0,1,50.446,16.1ZM66.593,50.711a9.839,9.839,0,1,0-9.838,9.945A9.892,9.892,0,0,0,66.593,50.711Zm4.9,0A14.742,14.742,0,1,1,56.755,35.863,14.8,14.8,0,0,1,71.5,50.711ZM25.83,51.57a9.839,9.839,0,1,0-9.838,9.945A9.892,9.892,0,0,0,25.83,51.57Zm4.9,0A14.742,14.742,0,1,1,15.992,36.722,14.8,14.8,0,0,1,30.733,51.57Z" transform="translate(2.836 2.689)" fill="#636363"/>
    </g>
  </g>
</svg>
