<svg xmlns="http://www.w3.org/2000/svg" width="75.2" height="68.364" viewBox="0 0 75.2 68.364">
  <g id="noun_recording_1551973" transform="translate(-6 -10)">
    <g id="Group_15" data-name="Group 15" transform="translate(6 10)">
      <path id="Path_306" data-name="Path 306" d="M22.236,10a13.665,13.665,0,0,0-6.6,25.636H13a7.022,7.022,0,0,0-7,6.97V71.367a7.045,7.045,0,0,0,7,7H58.821a7.045,7.045,0,0,0,7-7v-.614l11.643,5.9a2.564,2.564,0,0,0,3.739-2.27V39.615a2.56,2.56,0,0,0-3.739-2.3L65.818,43.247v-.641a7.022,7.022,0,0,0-7-6.97H56.178a13.673,13.673,0,1,0-13.192,0H28.832A13.665,13.665,0,0,0,22.236,10Zm0,5.127a8.545,8.545,0,1,1-8.545,8.545A8.507,8.507,0,0,1,22.236,15.127Zm27.345,0a8.545,8.545,0,1,1-8.545,8.545A8.507,8.507,0,0,1,49.582,15.127ZM13,40.764H58.821a1.8,1.8,0,0,1,1.869,1.843V71.367a1.818,1.818,0,0,1-1.869,1.869H13a1.818,1.818,0,0,1-1.869-1.869V42.606A1.8,1.8,0,0,1,13,40.764Zm63.076,3.018V70.192L65.818,64.985V49.015Z" transform="translate(-6 -10)" fill="#fff"/>
    </g>
  </g>
</svg>
