<svg id="stripe-seeklogo.com" xmlns="http://www.w3.org/2000/svg" width="91.162" height="37.934" viewBox="0 0 91.162 37.934">
  <path id="Path_396" data-name="Path 396" d="M6.407,14.864c0-.988.81-1.367,2.152-1.367a14.124,14.124,0,0,1,6.28,1.621V9.167A16.7,16.7,0,0,0,8.559,8C3.419,8,0,10.686,0,15.168c0,6.989,9.623,5.875,9.623,8.888,0,1.165-1.013,1.545-2.431,1.545A15.763,15.763,0,0,1,.279,23.576V29.6a17.553,17.553,0,0,0,6.913,1.443c5.267,0,8.888-2.608,8.888-7.141C16.055,16.359,6.407,17.7,6.407,14.864ZM23.525,2.937,17.346,4.254l-.025,20.284a6.363,6.363,0,0,0,6.559,6.508,9.78,9.78,0,0,0,4.431-.836V25.07c-.81.329-4.811,1.494-4.811-2.254v-8.99h4.811V8.432H23.5Zm12.662,7.369-.405-1.874h-5.47V30.59h6.331V15.574a4.466,4.466,0,0,1,4.811-1.317V8.432A4.3,4.3,0,0,0,36.186,10.306ZM43,8.432h6.356V30.59H43Zm0-1.925,6.356-1.367V0L43,1.342ZM62.573,8a7.153,7.153,0,0,0-4.963,1.975l-.329-1.57H51.709V37.934l6.331-1.342.025-7.166a7.131,7.131,0,0,0,4.482,1.6c4.533,0,8.66-3.646,8.66-11.674C71.182,12,67,8,62.573,8ZM61.053,25.449a3.785,3.785,0,0,1-2.988-1.19l-.025-9.395a3.769,3.769,0,0,1,3.014-1.241c2.3,0,3.9,2.583,3.9,5.9C64.953,22.917,63.383,25.449,61.053,25.449ZM91.162,19.6c0-6.483-3.14-11.6-9.142-11.6-6.027,0-9.673,5.115-9.673,11.547,0,7.622,4.3,11.471,10.484,11.471a14.12,14.12,0,0,0,7.014-1.646V24.31a13.445,13.445,0,0,1-6.2,1.393c-2.456,0-4.634-.861-4.913-3.849H91.112C91.112,21.524,91.162,20.208,91.162,19.6Zm-12.51-2.406c0-2.861,1.747-4.052,3.343-4.052,1.545,0,3.191,1.19,3.191,4.052Z" fill="#6772e5"/>
</svg>
