<svg xmlns="http://www.w3.org/2000/svg" xmlns:xlink="http://www.w3.org/1999/xlink" width="741.04" height="291.506" viewBox="0 0 741.04 291.506">
  <defs>
    <clipPath id="clip-path">
      <path id="Path_2202" data-name="Path 2202" d="M1001.71,507.111H855.093L838.487,447.1l-1.272-4.6-1.086-3.925-2.549-9.2H978.087l2.795,9.2,1.192,3.925,1.4,4.6Z" transform="translate(-833.58 -429.37)" fill="none"/>
    </clipPath>
  </defs>
  <g id="student-number-graphics" transform="translate(0 -0.014)">
    <path id="Path_2027" data-name="Path 2027" d="M755.374,318.634s77.015-80.546,13.015-167.749C711.62,73.513,645.425,78.8,596.857,110.2c-20.683,13.374-95.551,74.134-146.312-4.594C381.323-1.759,156.593-9.124,200.352,156.058c21.171,79.933-84.76,82.839-41.13,162.744Z" transform="translate(-114.992 -27.97)" fill="#e8f5fc"/>
    <g id="girl_2" data-name="girl 2" transform="translate(69.458 147.245)">
      <path id="Path_2028" data-name="Path 2028" d="M360,732.94s-21.611,9.416-25.533,9.245-28.1-7.363-28.1-7.363l.615,4.16s18.656,10.729,25.179,11.337c6.419.6,28.377-5.763,30.507-7.1S366.161,734.3,360,732.94Z" transform="translate(-301.45 -697.916)" fill="#ed985f"/>
      <path id="Path_2029" data-name="Path 2029" d="M493.028,597.865s7.973-1.515,11.944,1.383c7.192,5.253,7.578,23.364,10.274,26.06s9.193,1.551,9.773,15.512-2.585,15.127,1.184,21.357-1.6,12.466-1.6,12.466,2.2-3.438,1.257-5.92c0,0-.915,5.478-4.4,6.763s-3.994,2.226-4.55,4.108c0,0-29.7-15.215-29.731-26.008s-5.845-21.484-2.991-26.161a10.376,10.376,0,0,0-1.427,4.227,5.568,5.568,0,0,1,1.256-6.337c2.968-3.053-3.482-9.374-2.526-16.694C482.154,603.581,485.693,598.074,493.028,597.865Z" transform="translate(-431.231 -597.469)"/>
      <path id="Path_2030" data-name="Path 2030" d="M503.65,707.738a20.836,20.836,0,0,0,7.267,3.1c11.2,2.585,15.491-6.877,17.1-13.377a9.6,9.6,0,0,0-3.8-1.163c-.809-.1-1.66-.16-2.366-.194-1.256-.964-3.131-4.912-3.544-11.026l-.517.14-8.826,2.417s.4,2.805.6,5.458c.153,2.068.178,4.059-.215,4.542-.69.15-1.1.259-1.1.259h0A56.7,56.7,0,0,0,503.65,707.738Z" transform="translate(-447.727 -662.43)" fill="#ffb27d"/>
      <path id="Path_2031" data-name="Path 2031" d="M524.19,688s.406,2.805.6,5.458c5-.5,7.322-5.261,8.224-7.872Z" transform="translate(-462.957 -662.808)" fill="#ed985f"/>
      <path id="Path_2032" data-name="Path 2032" d="M504.2,646.673s11.869-.654,11.35-8.04.657-12.443-6.942-12.337-8.873,3.027-9.307,5.535S501.1,646.642,504.2,646.673Z" transform="translate(-444.465 -618.842)" fill="#ffb27d"/>
      <path id="Path_2033" data-name="Path 2033" d="M494.633,623.335c1.673-2.353,3.1-1.965,3.917-1.352a8.307,8.307,0,0,1,10.778.941,14.132,14.132,0,0,0,5.212,8.015s-2.068,1.489-7.141.566a8.478,8.478,0,0,1-4.232-2.495,27.727,27.727,0,0,0,5.171,5.473c-6.148-2.327-9.131-10.429-9.431-11.288a9.181,9.181,0,0,0-2.327,3.632c-.458,1.924-2.425,4.928-3.563,4.878C493.012,631.693,492.12,626.864,494.633,623.335Z" transform="translate(-439.726 -614.477)"/>
      <path id="Path_2034" data-name="Path 2034" d="M510.628,759.894c1.07-5.478,4.566-27.371,1.07-34.416-1.254-2.531-6.179-2.758-11.582-2.536-1.683,1.086-8.09,5.189-10.721,4.677l-.147-.036c-1.238-.31-1.706-1.182-.672-1.931a23.686,23.686,0,0,0-6,.359c-1.877.354-6.942,2.973-6.942,2.973s2.552,4.607,6.311,6.2c-.639,5.719.31,8.242,6.244,21.458,5.013,11.166-.675,21.218-.675,21.218s29.512,23.728,29.677,11.647C517.308,780.411,509.255,766.9,510.628,759.894Z" transform="translate(-426.951 -690.455)" fill="#13a0f0"/>
      <path id="Path_2035" data-name="Path 2035" d="M436.731,849.173a5.488,5.488,0,0,1-3.948-2.4l-.458-.688c-3.361-5.085-4.667-20.659-12.221-37.252-1.841-4.041-8.449-4.765-10.251-9.333,0,0-4.434-14.8,8.488-15.238s34.6,41.182,34.956,45.548C453.621,834.036,461.829,852.006,436.731,849.173Z" transform="translate(-377.636 -735.966)" fill="#343434"/>
      <path id="Path_2036" data-name="Path 2036" d="M317.27,1006.633h18.392s.688-2.934-.517-4.93c-1.07-1.766-.659-2.771.132-4.232a7.188,7.188,0,0,1-3.1.582,6.471,6.471,0,0,1-2.735-.962,65.817,65.817,0,0,1-5.24,5.5C323,1003.468,317.642,1003.16,317.27,1006.633Z" transform="translate(-309.532 -893.775)" fill="#ffb27d"/>
      <path id="Path_2037" data-name="Path 2037" d="M523.736,755.14s2.394,21.776-13.131,26.334-19.928-20.036-7.394-21.8A120.78,120.78,0,0,0,523.736,755.14Z" transform="translate(-442.001 -714.377)" fill="#038fdf"/>
      <path id="Path_2038" data-name="Path 2038" d="M371.621,786.866c-1.109,8.3-5.429,34.506-13.061,47.291-2.459,4.121,6.2,6.432,6.244,6.419,1.161-.3,3.1-2.154,3.987-2.958,6.192-5.582,18.772-21.386,18.772-34.057,0-6.179.109-17.978-4.4-20.977C380.4,780.739,372.051,783.57,371.621,786.866Z" transform="translate(-339.822 -734.293)" fill="#343434"/>
      <path id="Path_2039" data-name="Path 2039" d="M479.2,846.11s-.68-.949-1.869-2.751c-1.414-2.143-2.978-6.357-4.879-11.761-1.993-5.675-4.361-12.653-7.316-19.907-.913-2.242-1.882-4.511-2.914-6.776-1.841-4.038-6.9-3.48-8.7-8.048,0,0-7.03-15.83,5.892-16.267s37.472,42.348,38.883,46.492C499.837,831.632,507.371,850.466,479.2,846.11Z" transform="translate(-409.139 -733.253)"/>
      <path id="Path_2040" data-name="Path 2040" d="M369.49,1006.633h18.392s.688-2.934-.517-4.93c-1.07-1.766-.659-2.771.132-4.232a7.188,7.188,0,0,1-3.1.582,6.459,6.459,0,0,1-2.735-.962,65.817,65.817,0,0,1-5.24,5.5C375.219,1003.468,369.86,1003.16,369.49,1006.633Z" transform="translate(-348.252 -893.775)" fill="#ffb27d"/>
      <path id="Path_2041" data-name="Path 2041" d="M511.246,885.672c-1.993-5.675-4.361-12.653-7.316-19.907.776-5.5,2.438-10.315,5.238-12.255C509.168,853.5,515.965,874.557,511.246,885.672Z" transform="translate(-447.934 -787.315)" fill="#4b4b4b"/>
      <path id="Path_2042" data-name="Path 2042" d="M421.075,787.212c-1.107,8.3-2.668,35.093-10.295,47.878-2.459,4.121,6.2,6.432,6.244,6.419,1.161-.3,3.1-2.154,3.987-2.958,6.192-5.582,18.764-21.386,18.764-34.057,0-6.179-7.252-17.482-11.743-20.481A4.515,4.515,0,0,0,421.075,787.212Z" transform="translate(-378.541 -735.226)"/>
      <path id="Path_2043" data-name="Path 2043" d="M294.734,693.082l18.834-2a1.218,1.218,0,0,1,1.264.776l6.737,17.7a1.215,1.215,0,0,1-1.086,1.649l-18.689.752a1.218,1.218,0,0,1-1.171-.745l-6.893-16.458a1.215,1.215,0,0,1,1-1.678Z" transform="translate(-292.009 -666.874)" fill="#007cc2"/>
      <path id="Path_2044" data-name="Path 2044" d="M288.429,693.742l18.834-2a1.218,1.218,0,0,1,1.264.776l6.737,17.707a1.215,1.215,0,0,1-1.086,1.647l-18.689.752a1.212,1.212,0,0,1-1.169-.745l-6.885-16.456a1.215,1.215,0,0,1,.993-1.681Z" transform="translate(-287.341 -667.364)" fill="#13a0f0"/>
      <path id="Path_2045" data-name="Path 2045" d="M331.718,728.2a.775.775,0,0,1,.729-1.145A1.81,1.81,0,0,1,334,728.2a.775.775,0,0,1-.726,1.145A1.81,1.81,0,0,1,331.718,728.2Z" transform="translate(-320.191 -693.549)" fill="#fff"/>
      <path id="Path_2046" data-name="Path 2046" d="M293.6,704.389a.38.38,0,0,1,.357-.561.892.892,0,0,1,.776.561.38.38,0,0,1-.357.564A.889.889,0,0,1,293.6,704.389Z" transform="translate(-291.946 -676.33)" fill="#9e332e"/>
      <path id="Path_2047" data-name="Path 2047" d="M405.265,725.052s-26.112,9.615-30.023,9.416c-2.536-.127-23.607-7.534-23.607-7.534s-1.564-2.4-3.263-2.906c0,0-3-1.375-3.852-1.631s-.685,0-.427.817a2.977,2.977,0,0,0,1.034,1.163c-1.437.4-2.859.931-3.524,1.06-1.112.215-4.279,1.241-3.338,2.782s5.308,1.882,7.192,1.551a8.862,8.862,0,0,1,4.279.752s20.509,13.185,26.148,13.118c11.13-.129,29.915-6.962,32.032-8.3S411.425,726.412,405.265,725.052Z" transform="translate(-324.972 -690.028)" fill="#ffb27d"/>
      <path id="Path_2048" data-name="Path 2048" d="M298.847,725.255s1.89-2.986,2.508-3.1c1.885-.372,1.885,2.11,1.484,3.71-.427,1.717-1.88,3.338-2.28,3.2S298.4,726.834,298.847,725.255Z" transform="translate(-295.819 -689.89)" fill="#ffb27d"/>
      <path id="Path_2049" data-name="Path 2049" d="M298.649,736.58a4.992,4.992,0,0,0,2.585,5.1Z" transform="translate(-295.691 -700.615)" fill="#ffb27d"/>
      <path id="Path_2050" data-name="Path 2050" d="M509.82,687.927a10.986,10.986,0,0,1,4.279-.186s-.168,1.231-2.495,1.352A1.855,1.855,0,0,1,509.82,687.927Z" transform="translate(-452.302 -664.344)" fill="#fff"/>
      <path id="Path_2051" data-name="Path 2051" d="M545.89,735.953a14.32,14.32,0,0,0,10.354,9.072s13.239-4.08,6.647-13.1C562.891,731.925,556.374,727.091,545.89,735.953Z" transform="translate(-479.046 -696.188)" fill="#038fdf"/>
    </g>
    <path id="Path_2052" data-name="Path 2052" d="M510.54,193.348c0-.747.016-1.512.034-2.257a62.212,62.212,0,0,1,2.821-16.321c-1.394.049-2.738.132-4.033.215a63.653,63.653,0,0,0-2.456,13.806c-.1,1.4-.15,2.79-.165,4.2v.367c0,1.409.049,2.821.132,4.214,1.277.6,2.585,1.161,3.966,1.724-.132-1.326-.233-2.671-.259-4.015C510.556,194.625,510.54,193.994,510.54,193.348Zm121.8-25.44a65.471,65.471,0,0,0-85.678-34.8c-.962.414-1.923.845-2.844,1.293-1.551.745-3.069,1.551-4.53,2.4A64.208,64.208,0,0,0,525.9,147.13c-.845.83-1.66,1.691-2.456,2.585-1,1.1-1.942,2.239-2.844,3.4a65.7,65.7,0,0,0-4.049,5.791c-.7,1.112-1.344,2.257-1.975,3.4-.98,1.81-1.859,3.666-2.671,5.592-.615,1.443-1.163,2.888-1.66,4.364-.315.9-.6,1.792-.864,2.7a63.653,63.653,0,0,0-2.456,13.806c-.1,1.4-.15,2.79-.165,4.2v.367c0,1.409.049,2.821.132,4.214.067,1.145.184,2.291.315,3.436a63.967,63.967,0,0,0,4.7,17.787,65.386,65.386,0,0,0,120.192.615c.083-.2.184-.416.259-.615.365-.861.714-1.724,1.034-2.585a65.51,65.51,0,0,0-1.034-48.289Zm-3.451,49.318c-.018.034-.018.049-.034.083-.416.962-.848,1.926-1.311,2.872a61.619,61.619,0,0,1-112.178-2.872,60.454,60.454,0,0,1-4.116-14.669c-.184-1.112-.315-2.223-.416-3.361-.132-1.326-.233-2.671-.259-4.015-.018-.646-.034-1.277-.034-1.923,0-.747.016-1.512.034-2.257a62.212,62.212,0,0,1,2.815-16.313c.282-.9.579-1.776.913-2.655s.68-1.825,1.063-2.722c.546-1.262,1.112-2.505,1.724-3.718.582-1.161,1.194-2.291,1.843-3.4a61.912,61.912,0,0,1,6.2-8.744q1.443-1.7,3-3.286l.432-.432a61.617,61.617,0,0,1,15.864-11.494c1.213-.613,2.441-1.176,3.7-1.709.334-.15.683-.282,1.013-.414a61.616,61.616,0,0,1,79.737,81.032Z" transform="translate(-380.56 -102.104)" fill="#13a0f0"/>
    <path id="Path_2053" data-name="Path 2053" d="M584.066,333.116,579,333c1.626,2.107,1.991,4.049.98,5.688s-3.436,3.053-7.053,4.1a41.551,41.551,0,0,1-4.48,1.034,100.922,100.922,0,0,1-16.412,1.329c-16.329.2-36.608-2.027-57.087-6.223a275.68,275.68,0,0,1-37.2-10.191c-1.626-.579-3.2-1.176-4.713-1.774-.9-.349-1.776-.714-2.64-1.081-1.375-.564-2.689-1.127-3.966-1.724-.895-.4-1.758-.814-2.6-1.228-11.766-5.742-17.143-11.285-14.736-15.217,1.942-3.185,9.01-5.344,19.83-6.14,1.293-.083,2.64-.165,4.033-.215.282-.9.579-1.776.913-2.655-1.412.034-2.771.1-4.082.165-13.64.812-20.941,3.214-23.6,7.562-3.087,5.06,1.13,11.854,14.62,18.462,1.859.913,3.85,1.81,5.946,2.707,1.311.546,2.673,1.094,4.067,1.642l1.942.747c1.593.6,3.219,1.194,4.894,1.776a290.84,290.84,0,0,0,35.812,9.625,303.7,303.7,0,0,0,52.138,6.337c2.291.067,4.514.067,6.67.052a118.922,118.922,0,0,0,14.827-1c1.608-.217,3.118-.483,4.53-.776,6.655-1.378,11.034-3.534,12.777-6.388C585.625,337.63,585.475,335.44,584.066,333.116Z" transform="translate(-320.119 -228.697)" fill="#13a0f0"/>
    <path id="Path_2054" data-name="Path 2054" d="M617.832,213.925c-.065.119-.132.235-.2.349-2,3.177-6.463,4.819-12.756,4.816a51.805,51.805,0,0,1-10.181-1.138c-12.358-2.505-26.968-8.8-41.135-17.73-13.925-8.775-25.742-19.031-33.351-28.938-.134-.171-.258-.344-.393-.517q-1.081-1.435-2.022-2.828c-5.551-8.242-7.221-15.23-4.56-19.449,2-3.18,6.463-4.819,12.756-4.819a51.851,51.851,0,0,1,10.184,1.138q2.141.434,4.367,1.034,2.531.659,5.171,1.515,1.823-.923,3.713-1.719c.334-.14.67-.279,1.006-.414q-2.712-.98-5.349-1.786c-2.81-.858-5.551-1.551-8.193-2.1-13.335-2.707-22.8-.835-26.644,5.269-3.674,5.794-1.68,14.532,5.584,24.726q.553.776,1.151,1.572c.447.592.907,1.182,1.381,1.776,7.875,9.842,19.612,19.907,33.31,28.542,14.522,9.149,29.553,15.615,42.322,18.206a55.239,55.239,0,0,0,10.879,1.21c7.616,0,13.071-2.2,15.771-6.463a11.339,11.339,0,0,0,1.083-2.242Z" transform="translate(-381.819 -111.124)" fill="#13a0f0"/>
    <path id="Path_2055" data-name="Path 2055" d="M645.957,265.527a6.434,6.434,0,0,1-2.218-.383c-11.213-4.067-6.029-37.229,4.545-66.391,9.778-26.962,25.577-54.253,36.857-54.253a6.508,6.508,0,0,1,2.218.388c6.386,2.327,6.774,13.744,5.977,22.922-1.068,12.267-4.8,27.707-10.522,43.472C673.036,238.236,657.239,265.527,645.957,265.527ZM685.14,147.962c-7.1,0-21.96,19.871-33.609,51.965-5.61,15.494-9.287,30.621-10.321,42.6-1.122,12.88,1.179,18.452,3.707,19.367a2.959,2.959,0,0,0,1.034.176c7.094,0,21.96-19.871,33.609-51.965,5.618-15.489,9.284-30.616,10.326-42.591,1.119-12.88-1.182-18.452-3.707-19.367A2.97,2.97,0,0,0,685.14,147.962Z" transform="translate(-477.476 -114.363)" fill="#13a0f0"/>
    <path id="Path_2056" data-name="Path 2056" d="M689.451,219.372a151.332,151.332,0,0,1-34.1-3.552c-12.187-2.828-22.663-7.345-31.143-13.418-14.592-10.455-18.175-21.82-18.322-22.3l3.312-1.013c.034.109,3.5,10.9,17.27,20.667,12.795,9.08,37.34,19.108,81.609,15.326l.295,3.449Q698.554,219.375,689.451,219.372Z" transform="translate(-454.077 -140.01)" fill="#13a0f0"/>
    <path id="Path_2057" data-name="Path 2057" d="M615.708,492.746a171.7,171.7,0,0,0-63.946-29.706c-17.079-3.878-28.514-3.521-28.627-3.516L523,456.063c.483-.018,12.006-.385,29.522,3.6a175.308,175.308,0,0,1,65.251,30.3Z" transform="translate(-392.616 -345.364)" fill="#13a0f0"/>
    <path id="Path_2058" data-name="Path 2058" d="M2302.511,1058.586a13.674,13.674,0,0,1-13.669,13.669H2177.49v-26.5h112.188a12.983,12.983,0,0,1,2.068.163A12.844,12.844,0,0,1,2302.511,1058.586Z" transform="translate(-1619.365 -782.609)" fill="#0193e6"/>
    <path id="Path_2059" data-name="Path 2059" d="M1856.173,1058.853a13.356,13.356,0,0,1-3.878,9.437l-.041.041a13.358,13.358,0,0,1-9.473,3.925H1716.26V1045.75h126.811a13.1,13.1,0,0,1,13.1,13.1Z" transform="translate(-1277.379 -782.609)" fill="#fff"/>
    <path id="Path_2060" data-name="Path 2060" d="M1848.077,1134.913a1.981,1.981,0,0,1-1.98,1.983H1693.143a1.983,1.983,0,0,1,0-3.966H1846.1A1.983,1.983,0,0,1,1848.077,1134.913Z" transform="translate(-1258.768 -847.25)" fill="#13a0f0"/>
    <path id="Path_2061" data-name="Path 2061" d="M1848.069,1047.73a1.985,1.985,0,0,1-1.98,1.985H1693.135a1.983,1.983,0,1,1,0-3.966h152.954a1.98,1.98,0,0,1,1.98,1.98Z" transform="translate(-1258.76 -782.609)" fill="#13a0f0"/>
    <path id="Path_2062" data-name="Path 2062" d="M1697.58,1069.04l16.962.445-16.962.269Z" transform="translate(-1258.699 -792.647)" fill="#bdcad5"/>
    <path id="Path_2063" data-name="Path 2063" d="M1697.58,1085.12l40.354.445-40.354.269Z" transform="translate(-1258.699 -804.57)" fill="#bdcad5"/>
    <path id="Path_2064" data-name="Path 2064" d="M2291.744,1045.913l-36.614,26.342h-77.64v-26.5h112.188A12.978,12.978,0,0,1,2291.744,1045.913Z" transform="translate(-1619.365 -782.609)" fill="#13a0f0"/>
    <path id="Path_2065" data-name="Path 2065" d="M610.68,999.74H688.1a12.823,12.823,0,0,1,12.823,12.823v4.687a13.656,13.656,0,0,1-13.656,13.656H610.68Z" transform="translate(-452.799 -741.263)" fill="#13a0f0"/>
    <path id="Path_2066" data-name="Path 2066" d="M277.78,999.74H366.3a12.461,12.461,0,0,1,12.461,12.461v5.962a12.746,12.746,0,0,1-12.746,12.746H277.78Z" transform="translate(-205.965 -741.263)" fill="#fff"/>
    <rect id="Rectangle_883" data-name="Rectangle 883" width="113.261" height="4.661" rx="2.331" transform="translate(67.131 284.984)" fill="#13a0f0"/>
    <rect id="Rectangle_884" data-name="Rectangle 884" width="113.261" height="4.661" rx="2.331" transform="translate(67.131 258.477)" fill="#13a0f0"/>
    <path id="Path_2067" data-name="Path 2067" d="M277.78,1060.02l12.244.525-12.244.316Z" transform="translate(-205.965 -785.959)" fill="#bdcad5"/>
    <path id="Path_2068" data-name="Path 2068" d="M277.78,1078.93l29.126.525-29.126.315Z" transform="translate(-205.965 -799.98)" fill="#bdcad5"/>
    <path id="Path_2069" data-name="Path 2069" d="M1059.616,589.947,1048.24,725.127s-1.192,8.193,4.912,8.208c10.021.023,49.879,0,49.879,0s-7.541-1.706-7.451-5.546c.109-4.522,13.289-139.119,13.289-139.119Z" transform="translate(-781.995 -443.7)"/>
    <path id="Path_2070" data-name="Path 2070" d="M1115.729,723.815c-1.97,0-40.042.124-49.8,0-4.256-.052-5-3.782-5.036-6.2a12.334,12.334,0,0,1,.129-2.011l.3-3.514.752-8.956.664-7.911.856-10.168.721-8.581,8.077-96.053,49.253-1.277s-5.551,56.329-9.478,97.33c-.437,4.568-.853,8.951-1.241,13.038q-.186,1.957-.362,3.826c-.362,3.878-.7,7.441-.985,10.587-.152,1.657-.295,3.2-.421,4.61-.5,5.527-.794,9.049-.8,9.731a5.636,5.636,0,0,0,.1,1.094C1109.251,723.676,1114.977,723.815,1115.729,723.815Z" transform="translate(-791.446 -436.634)" fill="#434343"/>
    <path id="Path_2071" data-name="Path 2071" d="M611.17,281.12l27.694,111.234,3.79,15.233,12.9,51.81H895.172L847.633,281.12Z" transform="translate(-453.162 -208.431)" fill="#13a0f0"/>
    <path id="Path_2072" data-name="Path 2072" d="M600.167,281.12l-3.837,1.28,43.118,180.867,5.1-3.87Z" transform="translate(-442.159 -208.431)" fill="#434343"/>
    <path id="Path_2073" data-name="Path 2073" d="M763.11,974.56h238.143l6.577-3.87H768.211Z" transform="translate(-565.821 -719.724)"/>
    <rect id="Rectangle_885" data-name="Rectangle 885" width="51.562" height="2.451" transform="translate(332.479 289.684) rotate(180)" fill="#434343"/>
    <path id="Path_2074" data-name="Path 2074" d="M882.466,426.548l-38.881-143.07H609.69V281.12H846.535l38.752,145.11Z" transform="translate(-452.065 -208.431)" fill="#13a0f0"/>
    <path id="Path_2075" data-name="Path 2075" d="M1095.487,985.66l-.266,1.872-48.491,9.8.664-7.914.318-3.756Z" transform="translate(-776.115 -730.824)"/>
    <path id="Path_2076" data-name="Path 2076" d="M1115.735,1094.9c-1.97,0-40.042.124-49.8,0-4.255-.052-5-3.782-5.036-6.2l48.263-9.08c-.5,5.527-.794,9.049-.8,9.731a5.616,5.616,0,0,0,.1,1.094C1109.256,1094.765,1114.983,1094.9,1115.735,1094.9Z" transform="translate(-791.451 -807.723)"/>
    <path id="Path_2077" data-name="Path 2077" d="M851.11,786.011,745.848,822.1l-12.9-51.81Z" transform="translate(-543.458 -571.134)" fill="#038fdf"/>
    <path id="Path_2078" data-name="Path 2078" d="M611.17,281.12H847.633L886,424.4H645.622Z" transform="translate(-453.162 -208.431)" fill="#13a0f0"/>
    <path id="Path_2079" data-name="Path 2079" d="M1252.671,915.1a8.1,8.1,0,0,0-7.6-6.362,5.091,5.091,0,0,0-5.127,6.362,8.11,8.11,0,0,0,7.6,6.373A5.1,5.1,0,0,0,1252.671,915.1Z" transform="translate(-924.119 -681.021)" fill="#fff"/>
    <path id="Path_2080" data-name="Path 2080" d="M902.94,440.2H681.54l-25.073-99.882-1.921-7.66-1.642-6.533L649.06,310.8H867.27l4.222,15.321,1.8,6.533,2.11,7.66Z" transform="translate(-481.256 -230.438)" fill="#fff"/>
    <path id="Path_2081" data-name="Path 2081" d="M871.492,326.121H652.9L649.06,310.8H867.27Z" transform="translate(-481.256 -230.438)"/>
    <path id="Path_2082" data-name="Path 2082" d="M702.5,360.066a1.449,1.449,0,0,1,1.437-1.916,2.616,2.616,0,0,1,2.391,1.916,1.447,1.447,0,0,1-1.437,1.913A2.614,2.614,0,0,1,702.5,360.066Z" transform="translate(-525.664 -272.777)" fill="#e9f3fe"/>
    <path id="Path_2083" data-name="Path 2083" d="M727.105,360.066a1.449,1.449,0,0,1,1.437-1.916,2.619,2.619,0,0,1,2.394,1.916,1.448,1.448,0,0,1-1.44,1.913A2.614,2.614,0,0,1,727.105,360.066Z" transform="translate(-543.911 -272.777)" fill="#e9f3fe"/>
    <path id="Path_2084" data-name="Path 2084" d="M753.605,360.066a1.449,1.449,0,0,1,1.437-1.916,2.619,2.619,0,0,1,2.394,1.916A1.447,1.447,0,0,1,756,361.979,2.616,2.616,0,0,1,753.605,360.066Z" transform="translate(-563.56 -272.777)" fill="#e9f3fe"/>
    <path id="Path_2085" data-name="Path 2085" d="M811.78,757.275a8.277,8.277,0,1,1,8.273,8.014A8.149,8.149,0,0,1,811.78,757.275Z" transform="translate(-606.737 -562.772)" fill="#13a0f0"/>
    <path id="Path_2086" data-name="Path 2086" d="M836.761,761.362l4.747,4.106a.882.882,0,0,1,0,1.352l-4.654,3.94a.936.936,0,0,1-1.551-.672l-.083-8.043a.936.936,0,0,1,1.541-.683Z" transform="translate(-624.117 -571.581)" fill="#fff"/>
    <path id="Path_2087" data-name="Path 2087" d="M1072.139,779.517a1.51,1.51,0,0,1-1.507,1.507H901.977a1.507,1.507,0,1,1,0-3.014h168.654A1.512,1.512,0,0,1,1072.139,779.517Z" transform="translate(-672.498 -584.089)" fill="#e3e9ec"/>
    <path id="Path_2088" data-name="Path 2088" d="M920.752,778v3.015H901.977a1.507,1.507,0,1,1,0-3.015Z" transform="translate(-672.498 -584.082)" fill="#13a0f0"/>
    <path id="Path_2089" data-name="Path 2089" d="M983.027,479.138H836.413l-16.606-60.011-1.275-4.6-1.083-3.925-2.549-9.2H959.4l2.8,9.2,1.192,3.925,1.4,4.6Z" transform="translate(-604.221 -297.614)" fill="#85d3ff"/>
    <path id="Path_2090" data-name="Path 2090" d="M1219.969,456.879h-48.206l-5.46-19.731-.419-1.512-.357-1.29-.838-3.025H1212.2l.918,3.025.393,1.29.46,1.512Z" transform="translate(-863.579 -319.799)" fill="#e9f3fe"/>
    <path id="Path_2091" data-name="Path 2091" d="M1213.808,485.853h-16.714l-1.9-6.843-.145-.522-.121-.447-.292-1.05h16.474l.318,1.05.137.447.16.522Z" transform="translate(-885.786 -353.662)" fill="#afcdfb" opacity="0.6"/>
    <path id="Path_2092" data-name="Path 2092" d="M1296.115,485.853H1279.4l-1.892-6.843-.145-.522-.124-.447-.29-1.05h16.474l.318,1.05.137.447.158.522Z" transform="translate(-946.816 -353.662)" fill="#afcdfb" opacity="0.6"/>
    <path id="Path_2093" data-name="Path 2093" d="M1234.583,471.321h-30.548a.437.437,0,0,1-.434-.434h0a.437.437,0,0,1,.434-.437h30.548a.437.437,0,0,1,.434.437h0A.434.434,0,0,1,1234.583,471.321Z" transform="translate(-897.258 -356.044)" fill="#afcdfb"/>
    <path id="Path_2094" data-name="Path 2094" d="M1238.963,480.411h-30.548a.434.434,0,0,1-.434-.434h0a.437.437,0,0,1,.434-.437h30.548a.437.437,0,0,1,.434.437h0A.437.437,0,0,1,1238.963,480.411Z" transform="translate(-900.506 -362.784)" fill="#afcdfb"/>
    <path id="Path_2095" data-name="Path 2095" d="M1248.226,493.31h-34.385a.494.494,0,0,1-.491-.491h0a.491.491,0,0,1,.491-.489h34.385a.489.489,0,0,1,.489.489h0a.491.491,0,0,1-.489.491Z" transform="translate(-904.488 -372.267)" fill="#afcdfb"/>
    <path id="Path_2096" data-name="Path 2096" d="M1254.81,576.219H1206.6l-5.46-19.731-.419-1.512-.354-1.29-.84-3.025h47.513l.918,3.025.393,1.29.46,1.512Z" transform="translate(-889.411 -408.286)" fill="#e9f3fe"/>
    <path id="Path_2097" data-name="Path 2097" d="M1248.648,605.193h-16.714l-1.892-6.843-.147-.522-.121-.447-.292-1.05h16.474l.318,1.05.137.447.16.522Z" transform="translate(-911.618 -442.149)" fill="#afcdfb" opacity="0.6"/>
    <path id="Path_2098" data-name="Path 2098" d="M1330.955,605.193h-16.712l-1.9-6.843-.145-.522-.124-.447-.29-1.05h16.474l.318,1.05.137.447.158.522Z" transform="translate(-972.648 -442.149)" fill="#afcdfb" opacity="0.6"/>
    <path id="Path_2099" data-name="Path 2099" d="M1269.423,590.661h-30.548a.437.437,0,0,1-.434-.434h0a.437.437,0,0,1,.434-.437h30.548a.437.437,0,0,1,.434.437h0A.434.434,0,0,1,1269.423,590.661Z" transform="translate(-923.091 -444.53)" fill="#afcdfb"/>
    <path id="Path_2100" data-name="Path 2100" d="M1273.8,599.751h-30.548a.435.435,0,0,1-.434-.434h0a.437.437,0,0,1,.434-.437H1273.8a.437.437,0,0,1,.434.437h0A.437.437,0,0,1,1273.8,599.751Z" transform="translate(-926.339 -451.27)" fill="#afcdfb"/>
    <path id="Path_2101" data-name="Path 2101" d="M1277,608.841h-30.548a.437.437,0,0,1-.437-.434h0a.437.437,0,0,1,.437-.437H1277a.437.437,0,0,1,.434.437h0A.437.437,0,0,1,1277,608.841Z" transform="translate(-928.704 -458.01)" fill="#afcdfb"/>
    <path id="Path_2102" data-name="Path 2102" d="M389,1083.67s-2.663,1.277-3.545,3.379a3.468,3.468,0,0,0-.277,1.176c-.147,2.792,0,9.113,0,9.113l-7.865-3.162-7.841,3.162v-8.568a5.471,5.471,0,0,1,1.921-4.227,3.449,3.449,0,0,1,2.174-.874Z" transform="translate(-278.778 -810.726)" fill="#13a0f0"/>
    <path id="Path_2103" data-name="Path 2103" d="M389.642,1083.67s-2.663,1.277-3.544,3.379l-15.758.127a4.683,4.683,0,0,1,3.878-3.506Z" transform="translate(-279.424 -810.726)" fill="#008bd9"/>
    <path id="Path_2104" data-name="Path 2104" d="M0,.008H94.233A17.265,17.265,0,0,1,111.5,17.273v6.846A16.213,16.213,0,0,1,95.285,40.331H0V.008Z" transform="translate(588.089 263.381) rotate(180)" fill="#292c2e"/>
    <path id="Path_2105" data-name="Path 2105" d="M0,.008H108.664A16.114,16.114,0,0,1,124.779,16.12v8.454a15.758,15.758,0,0,1-15.758,15.758H0V.008Z" transform="translate(694.431 263.381) rotate(180)" fill="#ebf3fa"/>
    <rect id="Rectangle_886" data-name="Rectangle 886" width="139.942" height="6.032" rx="3.016" transform="translate(700.217 263.373) rotate(180)" fill="#292c2e"/>
    <rect id="Rectangle_887" data-name="Rectangle 887" width="139.942" height="6.032" rx="3.016" transform="translate(700.217 229.079) rotate(180)" fill="#292c2e"/>
    <path id="Path_2106" data-name="Path 2106" d="M2642.65,940.69l-15.129.677,15.129.408Z" transform="translate(-1948.218 -697.48)" fill="#fff"/>
    <path id="Path_2107" data-name="Path 2107" d="M2582.821,904.8l-35.99.677,35.99.409Z" transform="translate(-1888.389 -670.869)" fill="#fff"/>
    <path id="Path_2108" data-name="Path 2108" d="M2567,934.87a7.648,7.648,0,0,1,3.159,3.379,3.787,3.787,0,0,1,.259,1.176c.129,2.795,0,9.113,0,9.113l7.011-3.159,7,3.159v-8.565a5.765,5.765,0,0,0-1.717-4.227,2.891,2.891,0,0,0-1.936-.876Z" transform="translate(-1908.174 -700.396)" fill="#13a0f0"/>
    <path id="Path_2109" data-name="Path 2109" d="M2567,934.87a7.648,7.648,0,0,1,3.159,3.379l14.054.127a4.484,4.484,0,0,0-3.452-3.506Z" transform="translate(-1908.174 -700.396)" fill="#008bd9"/>
    <path id="Path_2110" data-name="Path 2110" d="M1759.434,716.36s-5.008,2.844-6.409,2.844-6.908-1.065-8.441-.282a17.946,17.946,0,0,0-4.832,4.969c-.936,1.854,3.772,1.034,6-.543a1.393,1.393,0,0,1,1.112-.23c1.153.259,3.547.688,4.7.259,1.551-.576,9.747-1.215,9.747-1.215Z" transform="translate(-1294.707 -538.378)" fill="#e49963"/>
    <path id="Path_2111" data-name="Path 2111" d="M1733.092,1106.21s-.538,8.7-2.221,8.821c-.225.018-8.531.018-8.531.018l-10.6-.062a3.45,3.45,0,0,1,3.17-3.1c3.1-.546,8.291-2.72,10.171-6.818C1727.045,1100.76,1733.092,1106.21,1733.092,1106.21Z" transform="translate(-1274.027 -825.363)"/>
    <path id="Path_2112" data-name="Path 2112" d="M1839.129,551.535s-5.191,36.9-13.79,40.21c-4.242,1.631-22.991,5.328-28.537,5.688,0,0-1.357-1.1-1.034-5.587,0,0,19.649-7.213,22.433-11.135,4.152-5.835-2.585-23.845,2.632-29.326S1834.829,543.556,1839.129,551.535Z" transform="translate(-1336.294 -412.343)" fill="#313131"/>
    <path id="Path_2113" data-name="Path 2113" d="M1807.061,804.934a64.514,64.514,0,0,1-5.072,7.254c-5.579,7.045-11.655,12.854-12.712,18.356a24.7,24.7,0,0,1-.982,3.513c-.442,1.259-.988,2.585-1.618,3.948a121.531,121.531,0,0,1-9.444,16.148c-6.112,9.049-11.859,16.613-11.859,16.613l-10.543-.45c.424-1.055,5.021-13.56,11.171-28.845l7.715-19.165q.517-1.277,1.021-2.536c.776-1.947,1.551-3.865,2.306-5.732,5.773-14.349,10.375-25.776,10.375-25.776s23.079-8.744,25.476-3.079C1814.869,789.846,1813.261,794.422,1807.061,804.934Z" transform="translate(-1305.977 -587.993)" fill="#13a0f0"/>
    <path id="Path_2114" data-name="Path 2114" d="M1872.924,1018.13s7.332,4.711,6.618,6.239c-.093.2-4.137,7.461-4.137,7.461l-5.228,9.235a3.445,3.445,0,0,1-1.158-4.279c1.039-2.971,1.668-8.565-1-12.205C1865.217,1020.754,1872.924,1018.13,1872.924,1018.13Z" transform="translate(-1389.451 -762.13)"/>
    <path id="Path_2115" data-name="Path 2115" d="M1763.824,855.374s4.584-4.041,5.391-7c0,0-18.873-22.622-22.976-27.692-.186-.233-.14-.489.109-.776,3.1-3.485,37.443-10.571,41.934-17.557a21.656,21.656,0,0,0,2.9-6.688,15.783,15.783,0,0,0,.212-7.205l-34.307-.993s-28.563,17.785-31.8,29.912S1763.824,855.374,1763.824,855.374Z" transform="translate(-1283.939 -591.096)" fill="#13a0f0"/>
    <path id="Path_2116" data-name="Path 2116" d="M1807.26,824.417c3.1-3.485,37.443-10.571,41.934-17.557a21.657,21.657,0,0,0,2.9-6.688v-4.349l-14.581-2.293s-4.137,12.722-16.381,17.495C1809.662,815.492,1807.49,823.422,1807.26,824.417Z" transform="translate(-1344.852 -595.597)" fill="#038fdf"/>
    <path id="Path_2117" data-name="Path 2117" d="M1885.12,511.374c6.939,1.794,18.444-4.636,18.444-4.636a17.035,17.035,0,0,1-6.122-9.6c-.085-.333-.158-.672-.227-1.034l-3.565-.755-5.3,4.749a45.864,45.864,0,0,0,.776,5.362c.116.592.258,1.225.4,1.9A16.289,16.289,0,0,0,1885.12,511.374Z" transform="translate(-1402.583 -374.506)" fill="#e49963"/>
    <path id="Path_2118" data-name="Path 2118" d="M1882.514,564.936c-1,13.371.313,33.708-.814,37.229-.975,3.038-12.063,1.231-16.489.217-1.639-.375-3.619-.913-5.672-1.551-5.719-1.771-11.947-4.3-12.616-6.174a1.966,1.966,0,0,1-.06-.217,1.716,1.716,0,0,1,0-.776c.223-.957,1.081-1.991,1.184-4.359.111-2.645.1-5.76.194-9.108a8.713,8.713,0,0,1,.052-1.163v-.352c.1-3.733.289-7.66.517-11.554.145-2.446.31-4.866.5-7.187a94.944,94.944,0,0,1,2.068-14.682,23.538,23.538,0,0,1,7.575-11.693l2.11-1.81a12.187,12.187,0,0,0,7.655-1.019c2.725-1.293,3.666-2.223,4.136-1.872C1879.161,533.715,1883.688,548.591,1882.514,564.936Z" transform="translate(-1374.183 -399.301)"/>
    <path id="Path_2119" data-name="Path 2119" d="M1859.646,659.463c-5.719-1.771-11.947-4.3-12.616-6.174a1.991,1.991,0,0,1-.06-.217q0-.388,0-.776c.222-.957,1.081-1.991,1.184-4.359.111-2.645.1-5.76.194-9.108a8.733,8.733,0,0,1,.052-1.163v-.352l23.139-29.455S1887.071,640.213,1859.646,659.463Z" transform="translate(-1374.296 -457.929)" fill="#313131"/>
    <path id="Path_2120" data-name="Path 2120" d="M1897.61,500.11a45.841,45.841,0,0,0,.776,5.362c5.171-1.673,7.526-6.35,8.309-8.333-.085-.333-.158-.672-.227-1.034l-3.565-.755Z" transform="translate(-1411.844 -374.506)" fill="#d68d5d"/>
    <path id="Path_2121" data-name="Path 2121" d="M1876.972,467.75s11.288-1.885,10.008-8.9-.688-11.978-7.95-11.07-8.17,3.837-8.312,6.282S1874,468.06,1876.972,467.75Z" transform="translate(-1391.901 -339.158)" fill="#e49963"/>
    <rect id="Rectangle_888" data-name="Rectangle 888" width="1.047" height="27.41" transform="translate(431.169 162.848) rotate(-18)" fill="#13a0f0"/>
    <rect id="Rectangle_889" data-name="Rectangle 889" width="28.762" height="1.722" transform="translate(439.587 187.222) rotate(-1.22)" fill="#13a0f0"/>
    <path id="Path_2122" data-name="Path 2122" d="M1770.705,746.573s-9.24,2.435-12.717,2.177-6.344-1.9-6.781-2.764-1.352-2.386,1.008-2.1,5.579.776,5.688.331-1.923-.411-1.923-.411-.61-.889.16-.92,3.015-.641,3.85-.225,1.6,1.957,2.213,1.892,7.733-3.208,7.733-3.208Z" transform="translate(-1302.886 -556.9)" fill="#e49963"/>
    <path id="Path_2123" data-name="Path 2123" d="M1843.936,559.859s-1.094,37.249-9.274,41.484c-4.036,2.089-22.262,7.828-27.735,8.811,0,0-1.471-.946-1.636-5.442,0,0,18.728-9.333,21.071-13.539,3.482-6.259-5.191-23.415-.618-29.437S1838.783,552.4,1843.936,559.859Z" transform="translate(-1343.392 -419.152)"/>
    <path id="Path_2124" data-name="Path 2124" d="M1874.612,448.218a5.343,5.343,0,0,0-1.355-3.785s.517-2.412-.437-2.81-1.153,1.631-1.59,1.313a9.761,9.761,0,0,1-3.221-4.056c-.835-2.226-8.477.471-9.369.871s-3.751-1.07-4.31-2.262a16.782,16.782,0,0,0,2.306-2.226c.716-.954,5.726-7.4,12.725-5.566s7.953,5.171,7.554,8.03S1877.479,447.256,1874.612,448.218Z" transform="translate(-1379.753 -325.585)"/>
    <path id="Path_2125" data-name="Path 2125" d="M2206.918,621.85s3.583,5.3,5.625,16.448c1.792,9.765,3.361,13.369,5.946,15.37s16.986,7.914,16.986,7.914L2234.4,664.1s-21.109-2.875-23.482-6.4-11.409-24.372-10.708-29.173S2206.918,621.85,2206.918,621.85Z" transform="translate(-1636.182 -468.302)" fill="#f4a269"/>
    <path id="Path_2126" data-name="Path 2126" d="M2422.933,1030.446c-.189,2.068,2.678,2.56,6,2.725s2.327.846,6.864,1.67,6.373-.422,6.7-1.034c.292-.546-1.81-1.4-4.077-2.363-.284-.119-.569-.243-.851-.367-2.539-1.117-3.961-3.392-5.946-5.5-1.875-2-3.653-8.395-3.653-8.395l-6.181-1.321s1.735,5.758,2.327,8.216a7.617,7.617,0,0,1-.634,4.294,8.174,8.174,0,0,0-.551,2.076Z" transform="translate(-1800.506 -760.447)" fill="#ffb27d"/>
    <path id="Path_2127" data-name="Path 2127" d="M2432.183,1069.051c3.32.166,2.327.846,6.864,1.67s6.373-.422,6.7-1.034c.292-.546-1.81-1.4-4.077-2.363l-.036.039a12.959,12.959,0,0,1-6.89.083c-3.009-.817-5.92-2.616-7.994-3.2a8.177,8.177,0,0,0-.569,2.068C2426,1068.384,2428.864,1068.885,2432.183,1069.051Z" transform="translate(-1803.758 -796.327)" fill="#fff"/>
    <path id="Path_2128" data-name="Path 2128" d="M2164.972,775.381s41.081-3.1,48.816,1.789,20.137,61.735,20.137,61.735a5.12,5.12,0,0,1-2.477.8,20.64,20.64,0,0,1-5.091-.776s-17.839-25.44-19.082-31.849-.949-12.125-3.808-12.28-38.5,4.333-43.891-5.171-.936-18.9-.936-18.9Z" transform="translate(-1604.107 -578.691)" fill="#313131"/>
    <path id="Path_2129" data-name="Path 2129" d="M2362.125,1055.974c-.189,2.068,2.676,2.559,6,2.725s2.327.845,6.867,1.67,6.373-.421,6.7-1.034c.295-.546-1.81-1.4-4.075-2.36l-.853-.37c-2.536-1.114-3.958-3.392-5.946-5.5-1.872-2-3.651-8.4-3.651-8.4l-6.184-1.319s1.737,5.758,2.327,8.214a7.607,7.607,0,0,1-.634,4.294A8.137,8.137,0,0,0,2362.125,1055.974Z" transform="translate(-1755.417 -779.377)" fill="#ffb27d"/>
    <path id="Path_2130" data-name="Path 2130" d="M2371.38,1094.571c3.322.166,2.327.846,6.867,1.67s6.373-.422,6.7-1.034c.294-.546-1.81-1.4-4.075-2.36l-.036.036a12.925,12.925,0,0,1-6.89.083c-3.01-.817-5.92-2.614-7.994-3.2a8.133,8.133,0,0,0-.569,2.068C2365.2,1093.906,2368.061,1094.405,2371.38,1094.571Z" transform="translate(-1758.677 -815.249)" fill="#fff"/>
    <path id="Path_2131" data-name="Path 2131" d="M2123.66,798.57s36.495,1.727,44.031,6.905,17.72,62.472,17.72,62.472a5.057,5.057,0,0,1-2.505.7,20.707,20.707,0,0,1-5.057-.959s-16.823-26.112-17.839-32.575-.476-12.151-3.327-12.41-38.64,2.844-43.656-6.869S2123.66,798.57,2123.66,798.57Z" transform="translate(-1570.833 -599.334)"/>
    <path id="Path_2132" data-name="Path 2132" d="M2107.092,481.48a9.449,9.449,0,0,0-5.047-1.319,2.412,2.412,0,0,1,1.112-.44,7.93,7.93,0,0,0-2.877.551c-11.856-5.5-14.975,12.291-14.975,16.476s-.312,8.971-6.636,12.3c-12.443,6.549-3.214,20.047-3.214,20.047.091.062,8.294,10.923,8.294,10.923-.083-3.384,13.271-21.326,21.717-26.112,2.164-2.769,3.208-7.852,3.286-8.25a22.213,22.213,0,0,1-2.164,7.518C2113.86,507.326,2111.384,484.314,2107.092,481.48Z" transform="translate(-1541.268 -362.552)"/>
    <path id="Path_2133" data-name="Path 2133" d="M2150.847,597.816a41.055,41.055,0,0,1,6.8,0,21.888,21.888,0,0,1,5.9,1.479c3.216,1.344,2.88,7.04-3.878,5.985S2150.385,599.5,2150.847,597.816Z" transform="translate(-1599.571 -450.377)" fill="#ffb27d"/>
    <path id="Path_2134" data-name="Path 2134" d="M2164.312,577.993c.039.021.962,4.912-3.457,4.705-2.9-.129-9.157-3.64-8.6-6.122.259-1.181,2.453-4.245,2.9-11.236l.517.14,8.878,2.381s-.393,2.818-.576,5.486C2163.831,575.594,2163.826,577.721,2164.312,577.993Z" transform="translate(-1600.626 -426.402)" fill="#ffb27d"/>
    <path id="Path_2135" data-name="Path 2135" d="M2174.538,568.261s-.393,2.818-.576,5.486c-5.026-.478-7.381-5.248-8.3-7.867Z" transform="translate(-1610.594 -426.802)" fill="#f4a269"/>
    <path id="Path_2136" data-name="Path 2136" d="M2154.311,509.769a26.5,26.5,0,0,1-2.756-7.952c-.285-2.585,1.642-11.924,11.031-9.93a12.881,12.881,0,0,1,5.207,2.373c1.965,1.528,4.736,4.729.866,12.738l-1.047,2.725Z" transform="translate(-1600.116 -371.733)"/>
    <path id="Path_2137" data-name="Path 2137" d="M2172.979,526.67s-11.926-.6-11.44-8.015-.727-12.5,6.91-12.428,8.927,3,9.367,5.512S2176.094,526.634,2172.979,526.67Z" transform="translate(-1607.527 -382.571)" fill="#ffb27d"/>
    <path id="Path_2138" data-name="Path 2138" d="M2163.147,501.983s-3.842,8.49-8.932,9.442-7.174-.517-7.174-.517a14.2,14.2,0,0,0,5.194-8.066S2160.962,497.676,2163.147,501.983Z" transform="translate(-1596.788 -378.153)"/>
    <path id="Path_2139" data-name="Path 2139" d="M2206,505.75s2.306,2.107,2.774,4.036.476,5.838,1.618,5.781c0,0,2.844-5.755.313-9.286C2208.022,502.536,2206,505.75,2206,505.75Z" transform="translate(-1640.505 -381.266)"/>
    <path id="Path_2140" data-name="Path 2140" d="M2143.376,648.136c-.964,1.153-3.979,1.507-7.2,2.037a21.348,21.348,0,0,0-7.092,2.068c-4.3,2.523-18.356,11.055-22.461,10.667-1.6-.15-1.293-3.2-.331-7.239,1.522-6.383,4.708-15.253,4.708-19.106a112.187,112.187,0,0,1,1.634-12.774q.116-.69.233-1.391c1.848-11.068,4.41-24.119,4.41-24.119s2.844,6.233,8.423,6.233,4.266-4.754,4.266-4.754,5.078.6,6.277,1.89a49.625,49.625,0,0,1,4.847,8.4s.124,1.939-4.677,2.859a63.185,63.185,0,0,1,1.308,8.772c.1,2.585-1.769,10.7-2.306,15.747a9.256,9.256,0,0,0,.075,3.824,7.425,7.425,0,0,0,2.937,2.422C2141.145,645.243,2144.516,646.763,2143.376,648.136Z" transform="translate(-1565.988 -450.826)" fill="#13a0f0"/>
    <path id="Path_2141" data-name="Path 2141" d="M2138.416,703.136c3.082,5.253-8.353,6.833-10.248,7.945-4.3,2.523-17.446,11.675-21.562,11.288-1.6-.15-1.293-3.2-.331-7.239,1.523-6.383,4.708-15.253,4.708-19.106a112.208,112.208,0,0,1,1.634-12.774l4.956-4.76s5.31,13.726,10.372,15.972a42.528,42.528,0,0,0,7.459,2.43,9.26,9.26,0,0,0,.075,3.824A7.442,7.442,0,0,0,2138.416,703.136Z" transform="translate(-1565.974 -510.298)" fill="#13a0f0"/>
    <rect id="Rectangle_890" data-name="Rectangle 890" width="11.494" height="1.357" transform="translate(578.665 196.731)" fill="#fff"/>
    <path id="Path_2142" data-name="Path 2142" d="M2292,745.054c.114-.45,10.566-16.864,10.566-16.864h23.268l-11.665,16.422Z" transform="translate(-1704.271 -547.149)" fill="#fff"/>
    <path id="Path_2143" data-name="Path 2143" d="M2295.74,745.24c.111-.45,10.6-17.05,10.6-17.05h22.247l-11.1,17.05Z" transform="translate(-1707.044 -547.149)" fill="#85d3ff"/>
    <path id="Path_2144" data-name="Path 2144" d="M2364.481,757.925a1.861,1.861,0,0,1-1.618,1.2.831.831,0,0,1-.791-1.2,1.862,1.862,0,0,1,1.621-1.2A.83.83,0,0,1,2364.481,757.925Z" transform="translate(-1756.175 -568.303)" fill="#fff"/>
    <path id="Path_2145" data-name="Path 2145" d="M2150.049,651.524c-.654-.279-5.688.639-7.128.907-4.563-.892-19.561-3.891-20.292-4.829-.861-1.107-2.741-34.863-4.894-35.419,0,0-4.238-2.585-8.335,2.309s2.911,39.773,8.981,41.564c6.743,1.991,26.22-.318,26.22-.318h0c1.6.545,4.4.853,5.882,1.35,1.96.651,3.7.109,4.136-.654S2150.812,651.852,2150.049,651.524Z" transform="translate(-1567.971 -460.628)" fill="#ffb27d"/>
    <path id="Path_2146" data-name="Path 2146" d="M2109.478,598.22s-8.7.776-11.228,3.648-3.25,10.615-3.25,10.615,7.663,6.187,16.9,3.785Z" transform="translate(-1558.202 -450.781)" fill="#13a0f0"/>
    <rect id="Rectangle_891" data-name="Rectangle 891" width="741.04" height="1.965" rx="0.982" transform="translate(0 289.555)" fill="#2e3552"/>
    <g id="Group_210" data-name="Group 210" transform="translate(210.679 103.786)" clip-path="url(#clip-path)">
      <path id="Path_2147" data-name="Path 2147" d="M1184.31,528.941s.812-3.216,2.167-3.387,3.4-1.034,3.824.052-3.232,6.683-4.7,5.295S1184.31,528.941,1184.31,528.941Z" transform="translate(-1093.63 -500.326)" fill="#ffb27d"/>
      <path id="Path_2148" data-name="Path 2148" d="M1109.8,951.889a10.973,10.973,0,0,1,2.086,3.728.595.595,0,0,1-.587.807h-6.647a1.357,1.357,0,0,1-1.293-1.228,6.273,6.273,0,0,1,1.182-4.173C1106.183,949.242,1109.8,951.889,1109.8,951.889Z" transform="translate(-1033.61 -815.701)" fill="#163560"/>
      <path id="Path_2149" data-name="Path 2149" d="M1167.12,943.612s2.032,6.164,3.25,6.251h13.645a3.69,3.69,0,0,0-2.924-2.239c-2.3-.383-6.391-1.926-8.5-4.832C1170.37,939.752,1167.12,943.612,1167.12,943.612Z" transform="translate(-1080.889 -809.19)" fill="#163560"/>
      <path id="Path_2150" data-name="Path 2150" d="M1077.142,708.907c1.184,3.423,1.942,6.125,1.934,7.407-.031,5.732,11.3,31.613,11.3,31.613,3.656,1.551,7.836-.016,7.836-.016-1.241-3.586-8.136-35.678-11.8-55.262-1.551-8.219-2.585-13.961-2.585-13.961l-20.005-2.26S1073.037,697.014,1077.142,708.907Z" transform="translate(-1004.295 -612.557)" fill="#2c3a64"/>
      <path id="Path_2151" data-name="Path 2151" d="M1063.83,676.39s9.214,20.595,13.32,32.487l9.268-16.257c-1.551-8.219-2.585-13.961-2.585-13.961Z" transform="translate(-1004.303 -612.527)"/>
      <path id="Path_2152" data-name="Path 2152" d="M1055.147,685.85s5.5,57.185,6.781,68.253a12.681,12.681,0,0,1-7.585-.564s-7.606-26.572-8.467-34.579-9.46-32.751-8.015-35.052S1055.147,685.85,1055.147,685.85Z" transform="translate(-984.927 -617.595)"/>
      <path id="Path_2153" data-name="Path 2153" d="M1027.717,503.623s2.115,5.083,2.193,6.6-4.752,2.342-7.2,1.088-2.068-2.371-2.068-2.371-1.117-5.171-.931-5.582S1027.717,503.623,1027.717,503.623Z" transform="translate(-971.574 -484.132)" fill="#ffb27d"/>
      <path id="Path_2154" data-name="Path 2154" d="M1050.616,528.525s-8.643,10.747-9,12.133c-4.964-5.783-12.6-13.038-12.945-13.32a10.37,10.37,0,0,0-4.509-1.572,39.264,39.264,0,0,0-5.471-.455h-.124c.23.858-.7,2.443-2.751,2.585-2.43.155-5.856-1.158-6.238-2.585-.018-.072-5.688.284-4.7,10.892a4.362,4.362,0,0,0,.052.458,60.874,60.874,0,0,0,3.788,14.349c.82,2.2,3.524,18.539,4.328,18.552a13.825,13.825,0,0,0,2.244.8c.8.227,1.859.486,3.154.729a64.394,64.394,0,0,0,11.851.972c9.535,0,11.952-2.717,11.952-2.717.517,0-5.3-13.139-8.348-24.429,3.164,1.846,6.525,3.6,6.885,3.821a8.307,8.307,0,0,0,3.5,1.419h.106a1.492,1.492,0,0,0,1.034-.308,7,7,0,0,0,2.691-3.038c1.311-2.412,2.867-7.3,4.206-10.551.739-1.81,1.311-3.772,2.068-5.4A8.676,8.676,0,0,0,1050.616,528.525Z" transform="translate(-960.507 -500.503)" fill="#13a0f0"/>
      <path id="Path_2155" data-name="Path 2155" d="M1020.1,586.49c1.9,7.9-1.719,12.947-4.331,15.365a13.828,13.828,0,0,1-2.244-.8c-.8-.013-3.508-16.35-4.328-18.552a60.871,60.871,0,0,1-3.788-14.349,3.885,3.885,0,0,1,.328-.372S1017.274,574.768,1020.1,586.49Z" transform="translate(-960.986 -531.996)" fill="#038fdf"/>
      <path id="Path_2156" data-name="Path 2156" d="M1028.143,507s-1.218,2.761-3.281,2.784-4.912-2.74-4.912-2.74Z" transform="translate(-971.767 -486.93)" fill="#e8945b"/>
      <path id="Path_2157" data-name="Path 2157" d="M1018.581,474.882a9.378,9.378,0,0,1-2.368,1.4,3.312,3.312,0,0,1-2.327.049c-1.249-.393-3.144-1.008-3.653-1.272-1.207-.631-1.481-1.9-2.006-3.671a30.789,30.789,0,0,1-1.368-4.946c-.109-1.443.587-2.265,3.1-2.49,4.6-.408,6.872.776,7.379,2.347.134.424.258.83.377,1.213C1019.207,472.439,1019.3,474.179,1018.581,474.882Z" transform="translate(-962.053 -454.955)" fill="#ffb27d"/>
      <path id="Path_2158" data-name="Path 2158" d="M1012.389,454.623a2.5,2.5,0,0,0-2.4-.69c-1.329.445-1.145,1.683-3.674,1.487s-3.436-1.37-3.723-.776.38,4.043.38,4.043-8.015-11.344,2.068-11.344c0,0,10.228-.628,8.322,10.9Z" transform="translate(-956.937 -442.692)"/>
      <path id="Path_2159" data-name="Path 2159" d="M1130.09,517.09Z" transform="translate(-1053.432 -494.411)" fill="#ffb27d"/>
      <path id="Path_2160" data-name="Path 2160" d="M1134.31,453.49c.034-.189.062-.31.062-.31a.8.8,0,0,0-.062.31Z" transform="translate(-1056.561 -447.024)" fill="#d35c2b"/>
      <path id="Path_2161" data-name="Path 2161" d="M1172.952,484.4l-1.652-.251,4.638-26.28h0Z" transform="translate(-1079.159 -443.271)" fill="#2c3a64"/>
      <path id="Path_2162" data-name="Path 2162" d="M1187.378,530.453s1.525,1.512,1.781.685,2.19-1.784,2.327-2.172-2.226-.556-2.572-.566S1187.13,529.92,1187.378,530.453Z" transform="translate(-1095.888 -502.797)" fill="#ffb27d"/>
      <path id="Path_2163" data-name="Path 2163" d="M1036.82,533.35a15.771,15.771,0,0,1,4.343-.158s.181,2.2-.447,2.373a7.813,7.813,0,0,1-2.226,0A12.689,12.689,0,0,1,1036.82,533.35Z" transform="translate(-984.276 -506.282)" fill="#fff"/>
      <path id="Path_2164" data-name="Path 2164" d="M1043.28,542.625s7.353,30.879,9.307,32.834a12.107,12.107,0,0,0,3.493,2.585s1.551-1.864,1.518-2.759-12.092-32.666-12.092-32.666Z" transform="translate(-989.066 -513.341)" fill="#fff"/>
      <path id="Path_2165" data-name="Path 2165" d="M1082.082,651.378a46,46,0,0,0,6.5,1.678c1.5.059,3.273-2.508,2.686-3.265-.171-.22-2.353.776-2.973.445-.944-.517-2.154-.122-2.911-.034s-3.666-1.551-3.666-1.551Z" transform="translate(-1017.568 -591.959)" fill="#ffb27d"/>
      <path id="Path_2166" data-name="Path 2166" d="M1014.739,557.185a112.4,112.4,0,0,0-15.615-9.483c.5-4.242.274-10.993-1.577-22.4,0,0-7.883.874-8.726,3.619-1.215,3.971,1.644,15.029,4.012,23.87l.091.054a3.07,3.07,0,0,0,.76.871c3.361,2.694,21.125,7.87,21.125,7.87C1016.1,559.726,1014.739,557.185,1014.739,557.185Z" transform="translate(-948.471 -500.499)" fill="#13a0f0"/>
      <path id="Path_2167" data-name="Path 2167" d="M1045.811,612.346l-13.33-3.966-.422,1.908,14.279,4.02Z" transform="translate(-975.917 -554.869)" fill="#fcecdb"/>
      <path id="Path_2168" data-name="Path 2168" d="M1091.993,603.83l-6.743,5.142.527,1.962,7.759-5.295Z" transform="translate(-1015.356 -551.495)" fill="#f4d2b8"/>
      <path id="Path_2169" data-name="Path 2169" d="M1044.25,619.054l-15.209-4.641.049-.393,15.01,4.47Z" transform="translate(-973.678 -559.051)" fill="#2c3a64"/>
      <path id="Path_2170" data-name="Path 2170" d="M1087.44,615.317l8.612-5.982-.349-.354-8.413,5.773Z" transform="translate(-1016.868 -555.314)" fill="#2c3a64"/>
      <path id="Path_2171" data-name="Path 2171" d="M1024.522,524.339s-3.485-3.62-3.769-3.382-.644,1.034-.476,1.262,4.669,2.766,4.669,2.766Z" transform="translate(-971.977 -497.271)" fill="#fff"/>
      <path id="Path_2172" data-name="Path 2172" d="M1052.846,523.5a29.041,29.041,0,0,1,.812-3.467c.114.152,1.241,1.132,1.293,1.383a5.66,5.66,0,0,1-2.068,2.44C1052.215,524.016,1052.846,523.5,1052.846,523.5Z" transform="translate(-995.958 -496.593)" fill="#fff"/>
      <path id="Path_2173" data-name="Path 2173" d="M3974.937,545.826s1.929-3.71,3.547-3.906,4.232-1.187,4.395.062-5.8,7.694-7.053,6.1S3974.937,545.826,3974.937,545.826Z" transform="translate(-3162.754 -512.408)" fill="#ffb27d"/>
      <path id="Path_2174" data-name="Path 2174" d="M3834.18,541.65a109.564,109.564,0,0,0,6.375,18.165c1.065,2.179,11.375,8.395,12,8.847,6.492,4.713,6.363-2.213,6.363-2.213.365-4.571-13.263-21.988-13.718-22.461-.879-.915-2.754-1.471-4.711-1.81A42.289,42.289,0,0,0,3834.18,541.65Z" transform="translate(-3058.425 -512.622)" fill="#bc3f3f"/>
      <path id="Path_2175" data-name="Path 2175" d="M3757.592,1033.458a9.4,9.4,0,0,1,1.256,4.3.928.928,0,0,1-.928.933h-7.663a1.14,1.14,0,0,1-1.106-1.419,9.435,9.435,0,0,1,2.65-4.809C3754.257,1030.405,3757.592,1033.458,3757.592,1033.458Z" transform="translate(-2995.352 -876.014)" fill="#163560"/>
      <path id="Path_2176" data-name="Path 2176" d="M3828.8,1023.928s.442,7.1,1.81,7.208c.181.013,6.98.013,6.98.013h8.759a3,3,0,0,0-2.681-2.585c-2.534-.447-6.774-2.223-8.309-5.571C3833.743,1019.476,3828.8,1023.928,3828.8,1023.928Z" transform="translate(-3054.436 -868.518)" fill="#163560"/>
      <path id="Path_2177" data-name="Path 2177" d="M3799.329,753.276c.308,3.945.346,7.063-.057,8.532-1.81,6.608,3.258,36.453,3.258,36.453,3.733,1.786,9.049-.018,9.049-.018-.323-4.137,1.644-41.14,3.472-63.713.776-9.478,1.339-16.109,1.339-16.109L3794,715.82S3798.271,739.566,3799.329,753.276Z" transform="translate(-3028.633 -641.763)" fill="#e58638"/>
      <path id="Path_2178" data-name="Path 2178" d="M3794,715.82s4.263,23.746,5.321,37.456l15.708-18.741c.776-9.478,1.339-16.109,1.339-16.109Z" transform="translate(-3028.633 -641.763)" fill="#e58638"/>
      <path id="Path_2179" data-name="Path 2179" d="M3773.532,726.738s-11.321,65.926-13.27,78.7a14.306,14.306,0,0,1-8.571-.649s-.561-30.639.923-39.868-.791-37.759,1.6-40.414S3773.532,726.738,3773.532,726.738Z" transform="translate(-2997.185 -647.616)" fill="#ee9849"/>
      <path id="Path_2180" data-name="Path 2180" d="M3803.568,516.609s.869,5.861.489,7.611-6.205,2.7-8.638,1.254-1.642-2.735-1.642-2.735.311-5.946.654-6.435S3803.568,516.609,3803.568,516.609Z" transform="translate(-3028.376 -493.711)" fill="#ffb27d"/>
      <path id="Path_2181" data-name="Path 2181" d="M3789.671,592.392s-3.62,3.131-14.618,3.131a68.8,68.8,0,0,1-13.364-1.119,34.963,34.963,0,0,1-3.413-.843,11.955,11.955,0,0,1-2.34-.923c-.923-.016,1.006-18.852.742-21.388a63.667,63.667,0,0,1,.067-16.546,4.7,4.7,0,0,1,.08-.517c2.128-12.226,8.79-12.64,8.79-12.557,0,1.647,3.542,3.164,6.394,2.983,2.407-.165,3.971-1.993,3.971-2.983a19.646,19.646,0,0,1,1.993.3c6.081,1.055,9.625,10.083,9.625,22.149C3787.595,577.123,3790.265,592.392,3789.671,592.392Z" transform="translate(-3000.223 -512.601)" fill="#bc3f3f"/>
      <path id="Path_2182" data-name="Path 2182" d="M3768.016,612.132c-.259,9.113-5.98,14.93-9.739,17.715a11.951,11.951,0,0,1-2.34-.923c-.923-.016,1.006-18.852.742-21.388a63.667,63.667,0,0,1,.067-16.546c.313-.279.494-.429.494-.429S3768.381,598.626,3768.016,612.132Z" transform="translate(-3000.223 -548.887)" fill="#a02e2e"/>
      <path id="Path_2183" data-name="Path 2183" d="M3805.138,520.5s-2.26,3.183-4.654,3.211-4.824-3.162-4.824-3.162Z" transform="translate(-3029.864 -496.94)" fill="#e8945b"/>
      <path id="Path_2184" data-name="Path 2184" d="M3801.5,483.494a15.312,15.312,0,0,1-3.164,1.621,3.9,3.9,0,0,1-2.7.057,35.826,35.826,0,0,1-3.818-1.468c-1.2-.724-1.119-2.192-1.182-4.232a32.006,32.006,0,0,1-.046-5.7c.32-1.665,1.375-2.614,4.33-2.87,5.429-.471,7.686.887,7.782,2.707.023.489.047.954.062,1.393C3802.977,480.681,3802.53,482.684,3801.5,483.494Z" transform="translate(-3026.009 -460.094)" fill="#ffb27d"/>
      <path id="Path_2185" data-name="Path 2185" d="M3799.107,460.075a2.275,2.275,0,0,0-2.557-.8c-1.67.517-1.841,1.942-4.7,1.711s-3.539-1.577-4.051-.9-.812,4.654-.812,4.654-5.737-13.082,5.892-13.082c0,0,11.983-.724,6.223,12.575Z" transform="translate(-3022.387 -445.892)" fill="#2c3a64"/>
      <path id="Path_2186" data-name="Path 2186" d="M3754.147,541.62s-9.359,1.008-11.181,4.186c-2.627,4.579-2.746,17.322-2.746,27.521,0,0,3.974,3.02,6.693-1.44C3749.489,567.662,3752.234,559.733,3754.147,541.62Z" transform="translate(-2988.757 -512.6)" fill="#bc3f3f"/>
      <path id="Path_2187" data-name="Path 2187" d="M3919.6,532.15h-.015C3919.593,532.166,3919.6,532.15,3919.6,532.15Z" transform="translate(-3121.746 -505.578)" fill="#ffb27d"/>
      <path id="Path_2188" data-name="Path 2188" d="M3943.88,458.819c.1-.217.168-.359.168-.359a1.254,1.254,0,0,0-.168.359Z" transform="translate(-3139.763 -450.939)" fill="#d35c2b"/>
      <path id="Path_2189" data-name="Path 2189" d="M3963.066,489.022l-1.626-.274,5.623-30.388.561.1Z" transform="translate(-3147.954 -443.634)" fill="#2c3a64"/>
      <path id="Path_2190" data-name="Path 2190" d="M3978.791,548.145s2.21.662,2.262-.315,2.009-3.027,2.068-3.5-2.74.693-3.144.879S3978.352,547.746,3978.791,548.145Z" transform="translate(-3165.579 -514.53)" fill="#ffb27d"/>
      <path id="Path_2191" data-name="Path 2191" d="M3931.495,558.689a6.844,6.844,0,0,0-3.619-2.7,103.283,103.283,0,0,1-10.005,9.119,14.749,14.749,0,0,0-5.564,9c-1.055,5.292,1.585,6.828,1.585,6.828s2.1.259,5.445-3.857c2.257-2.779,5.558-8.41,8.108-12.151C3928.847,562.836,3930.122,560.564,3931.495,558.689Z" transform="translate(-3116.168 -523.254)" fill="#bc3f3f"/>
      <path id="Path_2192" data-name="Path 2192" d="M3806.86,550.9a18.875,18.875,0,0,1,5.054-.181s-.471,2.531-1.249,2.735a8.993,8.993,0,0,1-2.565,0C3807.791,553.418,3806.86,550.9,3806.86,550.9Z" transform="translate(-3038.168 -519.266)" fill="#1c468a"/>
      <path id="Path_2193" data-name="Path 2193" d="M3810.69,561.61s-1.065,35.6.584,37.87a9.249,9.249,0,0,0,3.229,2.973s2.355-2.151,2.6-3.18-3.85-37.663-3.85-37.663Z" transform="translate(-3040.756 -527.422)" fill="#1c468a"/>
      <path id="Path_2194" data-name="Path 2194" d="M3821.58,687.021s5.264,1.867,6.98,1.936,4.548-2.9,4.105-3.767c-.129-.259-2.955.907-3.568.517-.928-.595-2.443-.14-3.345-.036S3822,683.89,3822,683.89Z" transform="translate(-3049.082 -618.088)" fill="#ffb27d"/>
      <path id="Path_2195" data-name="Path 2195" d="M3748.384,640.145s6.422,3.19,15.675,11.254a5.73,5.73,0,0,1-1.292,5.085s-18.888-5.967-21.924-9.077S3745.558,639.553,3748.384,640.145Z" transform="translate(-2988.704 -585.615)" fill="#bc3f3f"/>
      <path id="Path_2196" data-name="Path 2196" d="M3785.57,646.253l-14.147-4.573-1.073,2.2,15.22,4.633Z" transform="translate(-3006.267 -579.56)" fill="#fcecdb"/>
      <path id="Path_2197" data-name="Path 2197" d="M3838.582,636.44l-9.361,5.928v2.262l10.582-6.1Z" transform="translate(-3049.918 -575.674)" fill="#f4d2b8"/>
      <path id="Path_2198" data-name="Path 2198" d="M3783.034,653.994l-16.1-5.349.178-.455,15.926,5.153Z" transform="translate(-3003.732 -584.387)" fill="#2c3a64"/>
      <path id="Path_2199" data-name="Path 2199" d="M3829.22,649.679l11.776-6.9-.295-.411-11.481,6.657Z" transform="translate(-3049.918 -580.071)" fill="#2c3a64"/>
      <path id="Path_2200" data-name="Path 2200" d="M3794.656,540.512s-2.9-4.173-3.3-3.9-1.063,1.194-.939,1.456,4.535,3.188,4.535,3.188Z" transform="translate(-3025.964 -508.878)" fill="#1c468a"/>
      <path id="Path_2201" data-name="Path 2201" d="M3825.175,539.517a44.014,44.014,0,0,1,2.009-4c.091.158,1.081,1.308,1.05,1.6a9.793,9.793,0,0,1-3.146,2.813C3824.268,540.106,3825.175,539.517,3825.175,539.517Z" transform="translate(-3051.428 -508.072)" fill="#1c468a"/>
    </g>
  </g>
</svg>
