<svg xmlns="http://www.w3.org/2000/svg" width="31.409" height="22.29" viewBox="0 0 31.409 22.29">
  <g id="noun_users_1308448" transform="translate(-19 -28)">
    <g id="Group_226" data-name="Group 226" transform="translate(19 28)">
      <g id="Group_225" data-name="Group 225">
        <path id="Path_2968" data-name="Path 2968" d="M63.238,49.277a1.013,1.013,0,0,1-2.026,0,7.092,7.092,0,1,0-14.185,0,1.013,1.013,0,0,1-2.026,0,9.119,9.119,0,1,1,18.238,0ZM54.119,39.145a5.573,5.573,0,1,1,5.573-5.573A5.573,5.573,0,0,1,54.119,39.145Zm0-2.026a3.546,3.546,0,1,0-3.546-3.546A3.546,3.546,0,0,0,54.119,37.119Z" transform="translate(-31.828 -28)"/>
        <path id="Path_2969" data-name="Path 2969" d="M37.238,49.277a1.013,1.013,0,0,1-2.026,0,7.092,7.092,0,1,0-14.185,0,1.013,1.013,0,0,1-2.026,0,9.119,9.119,0,1,1,18.238,0ZM28.119,39.145a5.573,5.573,0,1,1,5.573-5.573A5.573,5.573,0,0,1,28.119,39.145Zm0-2.026a3.546,3.546,0,1,0-3.546-3.546A3.546,3.546,0,0,0,28.119,37.119Z" transform="translate(-19 -28)"/>
      </g>
    </g>
  </g>
</svg>
