<svg xmlns="http://www.w3.org/2000/svg" width="30.091" height="24.333" viewBox="0 0 30.091 24.333">
  <g id="noun_Teacher_62983" transform="translate(-21 -19)">
    <g id="Group_44" data-name="Group 44" transform="translate(21 19)">
      <g id="Group_43" data-name="Group 43">
        <g id="Group_42" data-name="Group 42">
          <path id="Path_377" data-name="Path 377" d="M45.631,29.74a1.461,1.461,0,0,1-.057,1.806l-4.892,5.826a1.46,1.46,0,0,1-2.474-.4l-2.15-5.393a1.14,1.14,0,0,0-.224-.339l1.344,10.145H25.672l1.307-10.168h0a1.091,1.091,0,0,0-.21.342L23.836,39.8a1.46,1.46,0,0,1-2.751-.98l2.934-8.239A4.421,4.421,0,0,1,28,27.76h6.734A4.577,4.577,0,0,1,38.769,30.5l1.282,3.216,3.286-4.047a1.46,1.46,0,0,1,1.858-.32l5.256-6.616.182-.229.457.363-.182.229ZM31.707,26.787a3.893,3.893,0,1,0-3.893-3.893A3.893,3.893,0,0,0,31.707,26.787Zm-8.76,14.6v1.947h17.52V41.387Z" transform="translate(-21 -19)" fill="#a3a6a8"/>
          <path id="Path_378" data-name="Path 378" d="M45.631,29.74a1.461,1.461,0,0,1-.057,1.806l-4.892,5.826a1.46,1.46,0,0,1-2.474-.4l-2.15-5.393a1.14,1.14,0,0,0-.224-.339l1.344,10.145H25.672l1.307-10.168h0a1.091,1.091,0,0,0-.21.342L23.836,39.8a1.46,1.46,0,0,1-2.751-.98l2.934-8.239A4.421,4.421,0,0,1,28,27.76h6.734A4.577,4.577,0,0,1,38.769,30.5l1.282,3.216,3.286-4.047a1.46,1.46,0,0,1,1.858-.32l5.256-6.616.182-.229.457.363-.182.229ZM31.707,26.787a3.893,3.893,0,1,0-3.893-3.893A3.893,3.893,0,0,0,31.707,26.787Zm-8.76,14.6v1.947h17.52V41.387Z" transform="translate(-21 -19)" fill="none"/>
        </g>
      </g>
    </g>
  </g>
</svg>
