<svg xmlns="http://www.w3.org/2000/svg" width="61" height="61" viewBox="0 0 61 61">
  <g id="iconfinder_telegram_3069742" transform="translate(-0.445)">
    <circle id="ellipse" cx="30.5" cy="30.5" r="30.5" transform="translate(0.445)" fill="#08c"/>
    <path id="logo" d="M96.485,147.147c-1.483,1.435-2.942,2.858-4.4,4.28a2.308,2.308,0,0,1-1.809.736.92.92,0,0,1-.928-.711c-1.109-3.448-2.243-6.9-3.352-10.357a.809.809,0,0,0-.6-.6c-2.616-.8-5.245-1.616-7.849-2.448a4.573,4.573,0,0,1-1.158-.531.822.822,0,0,1-.133-1.387,5.179,5.179,0,0,1,1.531-.953c3.207-1.266,6.427-2.5,9.646-3.738q12.244-4.72,24.489-9.453c1.555-.6,2.749.241,2.58,1.929a32.385,32.385,0,0,1-.6,3.2q-2.659,12.552-5.329,25.115c-.422,1.989-1.821,2.508-3.448,1.3q-4.106-3.02-8.211-6.065C96.774,147.352,96.642,147.256,96.485,147.147Zm-6.149,2.544c.036-.012.06-.012.1-.024.012-.084.036-.157.048-.229.181-1.893.362-3.8.518-5.691a1.435,1.435,0,0,1,.494-1.013c2.52-2.255,5.04-4.534,7.548-6.8q4.178-3.762,8.344-7.536a2.519,2.519,0,0,0,.362-.639,2.536,2.536,0,0,0-.784-.072,3.433,3.433,0,0,0-.916.458q-9.206,5.806-18.424,11.611a.547.547,0,0,0-.277.784c.458,1.3.868,2.616,1.29,3.931C89.2,146.207,89.769,147.955,90.336,149.691Z" transform="translate(-67.422 -107.105)" fill="#fff"/>
  </g>
</svg>
