<svg xmlns="http://www.w3.org/2000/svg" width="19.25" height="16.5" viewBox="0 0 19.25 16.5">
  <g id="black" transform="translate(-13.846 -16.154)">
    <g id="twitter" transform="translate(13.846 16.154)">
      <path id="Path_329" data-name="Path 329" d="M17.057,1.514A3.927,3.927,0,0,0,14.174.154a3.99,3.99,0,0,0-3.95,4.116,4.447,4.447,0,0,0,.1.954,11.133,11.133,0,0,1-8.14-4.5,4.369,4.369,0,0,0-.535,2.112A4.347,4.347,0,0,0,3.409,6.367,3.775,3.775,0,0,1,1.62,5.821c0,.018,0,.035,0,.053a4.2,4.2,0,0,0,3.168,4.157A3.718,3.718,0,0,1,3,10.091a4.013,4.013,0,0,0,3.689,2.939,7.623,7.623,0,0,1-4.905,1.786,7.525,7.525,0,0,1-.942-.061,10.657,10.657,0,0,0,6.054,1.9c7.264,0,11.237-6.32,11.237-11.8q0-.27-.011-.537A8.123,8.123,0,0,0,20.1,2.195a7.537,7.537,0,0,1-2.268.62A4.05,4.05,0,0,0,19.565.547,7.582,7.582,0,0,1,17.057,1.514Z" transform="translate(-0.846 -0.154)" fill="#818181" fill-rule="evenodd"/>
    </g>
  </g>
</svg>
