<svg xmlns="http://www.w3.org/2000/svg" width="48" height="48" viewBox="0 0 48 48">
  <g id="Group_381" data-name="Group 381" transform="translate(-505 -542)">
    <g id="Ellipse_277" data-name="Ellipse 277" transform="translate(505 542)" fill="#fff" stroke="#000" stroke-width="2">
      <circle cx="24" cy="24" r="24" stroke="none"/>
      <circle cx="24" cy="24" r="23" fill="none"/>
    </g>
    <path id="iconfinder_icon-social-twitter_211920" d="M50.1,66.892a12.443,12.443,0,0,1-3.534.973,6.176,6.176,0,0,0,2.708-3.407,12.229,12.229,0,0,1-3.91,1.494A6.153,6.153,0,0,0,34.715,70.16a6.025,6.025,0,0,0,.159,1.4,17.442,17.442,0,0,1-12.688-6.44,6.172,6.172,0,0,0,1.907,8.226,6.007,6.007,0,0,1-2.791-.769v.076A6.16,6.16,0,0,0,26.241,78.7a6.2,6.2,0,0,1-1.621.216,5.806,5.806,0,0,1-1.157-.114,6.164,6.164,0,0,0,5.753,4.278,12.34,12.34,0,0,1-7.647,2.638,12.475,12.475,0,0,1-1.468-.089,17.24,17.24,0,0,0,9.427,2.784c11.328,0,17.52-9.389,17.52-17.532,0-.267-.006-.534-.019-.795A12.633,12.633,0,0,0,50.1,66.892Z" transform="translate(493.9 490)"/>
  </g>
</svg>
