<svg xmlns="http://www.w3.org/2000/svg" width="64" height="61" viewBox="0 0 64 61">
  <g id="iconfinder_social-twitter-circle_771365" transform="translate(0.218)">
    <g id="Group_142" data-name="Group 142" transform="translate(0)">
      <ellipse id="Ellipse_88" data-name="Ellipse 88" cx="32" cy="30.5" rx="32" ry="30.5" transform="translate(-0.218)" fill="#55acee"/>
    </g>
    <g id="Group_143" data-name="Group 143" transform="translate(12.94 15.671)">
      <path id="Path_971" data-name="Path 971" d="M63.584,36.2a15.8,15.8,0,0,1-4.547,1.246,7.94,7.94,0,0,0,3.481-4.379,15.847,15.847,0,0,1-5.026,1.921A7.922,7.922,0,0,0,44,42.212a22.475,22.475,0,0,1-16.316-8.27,7.923,7.923,0,0,0,2.45,10.568,7.878,7.878,0,0,1-3.585-.991c0,.033,0,.067,0,.1A7.92,7.92,0,0,0,32.9,51.38a7.932,7.932,0,0,1-3.575.135,7.923,7.923,0,0,0,7.395,5.5A15.993,15.993,0,0,1,25,60.29a22.406,22.406,0,0,0,12.135,3.556c14.56,0,22.522-12.062,22.522-22.522,0-.343-.009-.685-.024-1.024a16.041,16.041,0,0,0,3.951-4.1" transform="translate(-25 -32.492)" fill="#fff"/>
    </g>
  </g>
</svg>
