<svg xmlns="http://www.w3.org/2000/svg" width="76" height="76" viewBox="0 0 76 76">
  <g id="user-heart" transform="translate(-1436 -1784)">
    <circle id="Ellipse_267" data-name="Ellipse 267" cx="38" cy="38" r="38" transform="translate(1436 1784)" fill="#dfdfdf"/>
    <g id="noun_following_2712011" transform="translate(1451 1798)">
      <g id="Layer_2" data-name="Layer 2" transform="translate(3 3)">
        <path id="Path_3572" data-name="Path 3572" d="M33.227,21.871A5.039,5.039,0,0,0,29.7,20a4.931,4.931,0,0,0-2.924.731A4.868,4.868,0,0,0,23.848,20a5.039,5.039,0,0,0-3.531,1.851,6.222,6.222,0,0,0,.233,7.917L24.921,34.7a2.473,2.473,0,0,0,3.749,0l4.324-4.931A6.222,6.222,0,0,0,33.227,21.871Z" transform="translate(5.891 6.438)" fill="#fff"/>
        <circle id="Ellipse_268" data-name="Ellipse 268" cx="11" cy="11" r="11" transform="translate(6)" fill="#fff"/>
        <path id="Path_3573" data-name="Path 3573" d="M27.093,33.642l3.313,3.717H7.666A4.666,4.666,0,0,1,3,32.693V31.137A17.109,17.109,0,0,1,10.777,16.75a14,14,0,0,0,18.509,0,16.021,16.021,0,0,1,2.629,1.944,8.2,8.2,0,0,0-5.1,2.909,9.239,9.239,0,0,0,.28,12.039Z" transform="translate(-3 4.637)" fill="#fff"/>
      </g>
    </g>
  </g>
</svg>
