<svg xmlns="http://www.w3.org/2000/svg" width="57.326" height="43.608" viewBox="0 0 57.326 43.608">
  <g id="noun_users_305973" transform="translate(-5 -15.769)">
    <g id="Group_144" data-name="Group 144" transform="translate(5 15.769)">
      <path id="Path_936" data-name="Path 936" d="M45.58,46.565c4.619,0,7.757-3.745,7.757-8.365S50.2,29.836,45.58,29.836s-7.759,3.745-7.759,8.364S40.961,46.565,45.58,46.565Z" transform="translate(-16.915 -20.876)" fill="#fff"/>
      <path id="Path_937" data-name="Path 937" d="M53.642,72.788A10.365,10.365,0,0,0,55.656,66.9,13.17,13.17,0,0,0,49.01,55.461a9.761,9.761,0,0,1-13.014,0A13.169,13.169,0,0,0,29.35,66.9a10.364,10.364,0,0,0,2.014,5.892C32.5,74.17,53.212,74.068,53.642,72.788Z" transform="translate(-13.84 -30.179)" fill="#fff"/>
      <path id="Path_938" data-name="Path 938" d="M69.93,32.5c4.619,0,7.758-3.746,7.758-8.365s-3.14-8.365-7.758-8.365-7.76,3.745-7.76,8.365S65.31,32.5,69.93,32.5Z" transform="translate(-25.755 -15.769)" fill="#13a0f0"/>
      <path id="Path_939" data-name="Path 939" d="M21.228,32.5c4.619,0,7.759-3.746,7.759-8.365s-3.14-8.365-7.759-8.365-7.759,3.745-7.759,8.365S16.609,32.5,21.228,32.5Z" transform="translate(-8.075 -15.769)" fill="#13a0f0"/>
      <path id="Path_940" data-name="Path 940" d="M76.387,41.394a9.776,9.776,0,0,1-12.349.553c.005.149.01.3.01.448a10.811,10.811,0,0,1-2.01,6.422,15.181,15.181,0,0,1,7.258,10.9c5.652.024,11.5-.323,11.724-1a10.355,10.355,0,0,0,2.014-5.892A13.171,13.171,0,0,0,76.387,41.394Z" transform="translate(-25.707 -25.072)" fill="#13a0f0"/>
      <path id="Path_941" data-name="Path 941" d="M18.738,59.718A15.176,15.176,0,0,1,26,48.816a10.806,10.806,0,0,1-2.01-6.421c0-.15,0-.3.01-.448a9.776,9.776,0,0,1-12.349-.553A13.171,13.171,0,0,0,5,52.83a10.365,10.365,0,0,0,2.015,5.892C7.594,59.426,13.264,59.745,18.738,59.718Z" transform="translate(-5 -25.072)" fill="#13a0f0"/>
    </g>
  </g>
</svg>
