<svg xmlns="http://www.w3.org/2000/svg" width="37.604" height="32.481" viewBox="0 0 37.604 32.481">
  <g id="noun_Video_Lesson_935832" data-name="noun_Video Lesson_935832" transform="translate(-0.8 -7.3)">
    <path id="Path_23" data-name="Path 23" d="M38.3,7.4H.9V31.675H11.7L8.915,38.927l1.908.725,1.336-3.473H27.045l1.336,3.473,1.908-.725L27.5,31.675H38.3ZM26.243,34.156H12.923l.954-2.481H25.289Zm10-4.542H2.961V9.461H36.243Z" transform="translate(0 0)" fill="#fff" stroke="#fff" stroke-width="0.2"/>
    <path id="Path_24" data-name="Path 24" d="M37.719,34.538A7.519,7.519,0,1,0,30.2,27.019,7.509,7.509,0,0,0,37.719,34.538Zm0-13.053a5.534,5.534,0,1,1-5.534,5.534A5.538,5.538,0,0,1,37.719,21.485Z" transform="translate(-18.117 -7.482)" fill="#fff" stroke="#fff" stroke-width="0.2"/>
    <path id="Path_25" data-name="Path 25" d="M45.444,37.313a.719.719,0,0,0,.305.076.533.533,0,0,0,.344-.115l3.435-2.328a.578.578,0,0,0,.267-.534.668.668,0,0,0-.267-.534l-3.435-2.252a.659.659,0,0,0-.649-.038.709.709,0,0,0-.344.573v4.618A.576.576,0,0,0,45.444,37.313Z" transform="translate(-27.33 -14.913)" fill="#fff" stroke="#fff" stroke-width="0.2"/>
  </g>
</svg>
