<svg xmlns="http://www.w3.org/2000/svg" xmlns:xlink="http://www.w3.org/1999/xlink" width="599.7" height="448.155" viewBox="0 0 599.7 448.155">
  <defs>
    <clipPath id="clip-path">
      <path id="Path_541" data-name="Path 541" d="M1962.795,1289.43v16c0-.62-14.235,2.939-14.235,3.6v-16a1.2,1.2,0,0,1,1.2-1.2h.157l11.817-3.589A1.2,1.2,0,0,1,1962.795,1289.43Z" transform="translate(-1948.56 -1288.24)" fill="none"/>
    </clipPath>
    <clipPath id="clip-path-2">
      <rect id="Rectangle_187" data-name="Rectangle 187" width="27.249" height="20.312" fill="#5d5d91"/>
    </clipPath>
  </defs>
  <g id="video" transform="translate(0 0.004)">
    <rect id="Rectangle_139" data-name="Rectangle 139" width="116.549" height="1.446" transform="translate(0 383.028)" fill="#8a8a8a"/>
    <rect id="Rectangle_140" data-name="Rectangle 140" width="283.152" height="1.446" transform="translate(316.548 390.281)"/>
    <rect id="Rectangle_141" data-name="Rectangle 141" width="169.267" height="1.446" transform="translate(85.152 446.705)" fill="#f0dcc1"/>
    <path id="Path_472" data-name="Path 472" d="M912.611,562.273v244.4a13.569,13.569,0,0,1-13.568,13.569H504.574A13.565,13.565,0,0,1,491,806.674v-244.4a13.562,13.562,0,0,1,13.568-13.563H899.044a13.566,13.566,0,0,1,13.568,13.566Z" transform="translate(-417.778 -471.806)"/>
    <path id="Path_473" data-name="Path 473" d="M912.611,1598.61v41.151a13.57,13.57,0,0,1-13.568,13.57H504.574A13.566,13.566,0,0,1,491,1639.761V1598.61Z" transform="translate(-417.778 -1304.893)" fill="#5d5d5d"/>
    <rect id="Rectangle_142" data-name="Rectangle 142" width="421.603" height="7.637" transform="translate(73.23 316.217)" fill="#fff"/>
    <path id="Path_474" data-name="Path 474" d="M953.172,1715.2H570.408a3.818,3.818,0,0,1-3.818-3.818h0a3.818,3.818,0,0,1,3.818-3.818H953.172a3.818,3.818,0,0,1,3.818,3.818h0A3.819,3.819,0,0,1,953.172,1715.2Z" transform="translate(-477.758 -1391.344)" fill="#fff"/>
    <path id="Path_475" data-name="Path 475" d="M1828.155,1707.56H1669.29v7.641h158.865a3.82,3.82,0,1,0,0-7.641Z" transform="translate(-1352.741 -1391.344)"/>
    <circle id="Ellipse_44" data-name="Ellipse 44" cx="8.518" cy="8.518" r="8.518" transform="translate(308.03 311.518)" fill="#fff"/>
    <path id="Path_476" data-name="Path 476" d="M1315.257,912.4a51.156,51.156,0,1,1,36.174-14.982A51.156,51.156,0,0,1,1315.257,912.4Zm0-94.261a43.105,43.105,0,1,0,43.1,43.1A43.153,43.153,0,0,0,1315.257,818.142Z" transform="translate(-1031.225 -679.204)" fill="#fff"/>
    <path id="Path_477" data-name="Path 477" d="M1466.49,952.355a5.332,5.332,0,0,1,0,9.237l-18.113,10.458-18.117,10.458a5.334,5.334,0,0,1-8-4.62v-41.83a5.332,5.332,0,0,1,8-4.618l18.113,10.458Z" transform="translate(-1156.726 -774.931)" fill="#fff"/>
    <path id="Path_478" data-name="Path 478" d="M2532.48,1707.707h-3.358l-25.083-47.156,7.5-1.171Z" transform="translate(-1986.935 -1316.708)" fill="#444"/>
    <path id="Path_479" data-name="Path 479" d="M2437,1707.707h-3.356l-25.084-47.156,7.5-1.171Z" transform="translate(-1911.172 -1316.708)" fill="#444"/>
    <path id="Path_480" data-name="Path 480" d="M2269.18,1707.707h3.358l25.082-47.156-7.5-1.171Z" transform="translate(-1800.576 -1316.708)" fill="#444"/>
    <path id="Path_481" data-name="Path 481" d="M2364.65,1707.707h3.358l25.084-47.156-7.5-1.171Z" transform="translate(-1876.33 -1316.708)" fill="#444"/>
    <path id="Path_482" data-name="Path 482" d="M2447.408,1559.675h0a35.414,35.414,0,0,1-20.841-45.543l2.513-6.761a35.417,35.417,0,0,1,45.543-20.841h0a35.416,35.416,0,0,1,20.843,45.543l-2.515,6.759a35.416,35.416,0,0,1-45.543,20.843Z" transform="translate(-1951.863 -1214.186)" fill="#444"/>
    <path id="Path_483" data-name="Path 483" d="M2452.1,1553.586h0a33.079,33.079,0,0,1-19.468-42.541l2.348-6.313a33.081,33.081,0,0,1,42.541-19.468h0a33.079,33.079,0,0,1,19.468,42.541l-2.348,6.313A33.081,33.081,0,0,1,2452.1,1553.586Z" transform="translate(-1956.792 -1213.299)"/>
    <path id="Path_484" data-name="Path 484" d="M2454.919,1568.458h0a30.786,30.786,0,0,1-18.12-39.592l2.187-5.877a30.788,30.788,0,0,1,39.594-18.119h0a30.79,30.79,0,0,1,18.12,39.594l-2.187,5.875A30.788,30.788,0,0,1,2454.919,1568.458Z" transform="translate(-1960.214 -1228.97)" fill="#444"/>
    <path id="Path_485" data-name="Path 485" d="M2298.266,1608.458a18.2,18.2,0,0,0-6.321-.913c-2.94.25-10.811,7.74-8.82,7.74s8.345-4.75,8.867-3.887-2.7,2.654-1.9,3.271,8.17-1.375,8.17-1.375Z" transform="translate(-1839.562 -1311.954)" fill="#ff9b77"/>
    <path id="Path_486" data-name="Path 486" d="M2214.962,1432.487l-2.592-1.1v6.509l1.9-.665Z" transform="translate(-1755.497 -1135.8)" fill="#fff"/>
    <path id="Path_487" data-name="Path 487" d="M2502.781,1224.27s-9.776,8.7-4.008,29.157c11.823,0,16.572-1.14,16.572-1.14l-5.456-28.017Z" transform="translate(-2009.484 -1007.857)" fill="#3c3c5e"/>
    <path id="Path_488" data-name="Path 488" d="M2354.893,1441.9l19.961-.857,9.844-32.027a11.99,11.99,0,0,1,1.284-2.786,11.5,11.5,0,0,1,19.412,12.324l-19.943,31.4-.658,1.032a5.838,5.838,0,0,1-5.177,2.685l-24.713-1.06C2353.94,1448.16,2353.914,1445.571,2354.893,1441.9Z" transform="translate(-1896.188 -1148.004)" fill="#13a0f0"/>
    <path id="Path_489" data-name="Path 489" d="M2345.267,1958.287,2341.578,1969s-3.475,2.556-6.4,1.012-2.148-6.224-2.148-6.224l2.871-11.113Z" transform="translate(-1879.338 -1585.844)" fill="#f9a17b"/>
    <path id="Path_490" data-name="Path 490" d="M2273.981,2009.272l-2.641,7.674-23.98-8.26s1.858-5.7,7.622-3.717a14.585,14.585,0,0,0,10.144-.025s-.644,3.95,3.031,5.214S2272.647,2008.814,2273.981,2009.272Z" transform="translate(-1811.436 -1627.002)" fill="#30212b"/>
    <rect id="Rectangle_143" data-name="Rectangle 143" width="0.816" height="25.233" transform="translate(436.302 380.968) rotate(-71.01)" fill="#fff"/>
    <path id="Path_491" data-name="Path 491" d="M2271.34,2007.757l-.8-.153c.033-.176.779-4.337-2.18-4.925l.161-.8C2271.52,2002.481,2271.677,2005.988,2271.34,2007.757Z" transform="translate(-1828.099 -1624.884)" fill="#fff"/>
    <rect id="Rectangle_144" data-name="Rectangle 144" width="2.168" height="0.816" transform="translate(447.677 380.488) rotate(-84.29)" fill="#fff"/>
    <rect id="Rectangle_145" data-name="Rectangle 145" width="2.168" height="0.816" transform="translate(446.856 380.532) rotate(-84.29)" fill="#fff"/>
    <rect id="Rectangle_146" data-name="Rectangle 146" width="2.168" height="0.816" transform="translate(446.035 380.578) rotate(-84.29)" fill="#fff"/>
    <rect id="Rectangle_147" data-name="Rectangle 147" width="2.168" height="0.816" transform="translate(445.216 380.626) rotate(-84.29)" fill="#fff"/>
    <path id="Path_492" data-name="Path 492" d="M2481.437,1973.06l5.5,9.912s-.413,4.3-3.525,5.438-6.068-2.563-6.068-2.563l-6.348-9.57Z" transform="translate(-1988.892 -1602.016)" fill="#f9a17b"/>
    <path id="Path_493" data-name="Path 493" d="M2472.745,2017.06l3.943,7.094-22.169,12.316s-2.992-5.2,2.329-8.155a14.6,14.6,0,0,0,6.761-7.561s2.507,3.12,5.908,1.24S2471.506,2017.745,2472.745,2017.06Z" transform="translate(-1975.149 -1636.929)" fill="#30212b"/>
    <rect id="Rectangle_148" data-name="Rectangle 148" width="25.233" height="0.816" transform="translate(478.692 398.091) rotate(-29.05)" fill="#fff"/>
    <path id="Path_494" data-name="Path 494" d="M2460.976,2079.329c-.11-.145-2.7-3.477-5.119-1.673l-.488-.655c2.451-1.827,5.163.4,6.255,1.832Z" transform="translate(-1976.489 -1683.946)" fill="#fff"/>
    <rect id="Rectangle_149" data-name="Rectangle 149" width="0.816" height="2.168" transform="translate(484.845 388.391) rotate(-42.35)" fill="#fff"/>
    <rect id="Rectangle_150" data-name="Rectangle 150" width="0.816" height="2.168" transform="translate(484.332 389.039) rotate(-42.35)" fill="#fff"/>
    <rect id="Rectangle_151" data-name="Rectangle 151" width="0.816" height="2.168" transform="translate(483.818 389.67) rotate(-42.35)" fill="#fff"/>
    <rect id="Rectangle_152" data-name="Rectangle 152" width="0.816" height="2.168" transform="translate(483.303 390.319) rotate(-42.35)" fill="#fff"/>
    <path id="Path_495" data-name="Path 495" d="M2314.148,1677.064l2.361-.539,43.243-9.913a17.815,17.815,0,0,1,5.072-.392,17.258,17.258,0,1,1-2.433,34.429l-26.829-1.9,19.81,36.8c-2.575,4.258-5.745,5.032-11.564,4.543l-35.342-47.371a10.107,10.107,0,0,1-1.763-3.775A9.912,9.912,0,0,1,2314.148,1677.064Z" transform="translate(-1858.321 -1358.51)"/>
    <path id="Path_496" data-name="Path 496" d="M2334.27,1730.154,2347,1681.334a7.208,7.208,0,0,1,3.521-3.923l3.581-1.795,25.157-12.6a17.812,17.812,0,0,1,7.945-1.859,17.553,17.553,0,0,1-.172,35.106l-24.42-.12-18.02,37.312C2340.333,1733.655,2337.987,1732.785,2334.27,1730.154Z" transform="translate(-1880.398 -1354.526)"/>
    <path id="Path_497" data-name="Path 497" d="M2498.89,1457.207c21.991-7.587,32.308,21.064,38.1,14.412-5.4-19.806-3.263-35.323,0-58.235,1.553-10.887-8.915-19.914-19.913-19.914l-14.78,5.51c-.583,2.114-2.832,8.694-2.206,14.72Z" transform="translate(-2011.022 -1142.116)" fill="#13a0f0"/>
    <path id="Path_498" data-name="Path 498" d="M2548.821,1342.275V1323.72l-11.347,4.543-3.793,14S2535.708,1355.392,2548.821,1342.275Z" transform="translate(-2038.628 -1086.77)" fill="#ff9b77"/>
    <ellipse id="Ellipse_45" data-name="Ellipse 45" cx="11.821" cy="13.535" rx="11.821" ry="13.535" transform="translate(489.29 218.503)" fill="#ff9b77"/>
    <path id="Path_499" data-name="Path 499" d="M2522.364,1218.925l-11.255,3.51s-1.507-11.81,9.962-12.547S2522.364,1218.925,2522.364,1218.925Z" transform="translate(-2020.666 -996.413)" fill="#3c3c5e"/>
    <path id="Path_500" data-name="Path 500" d="M2560.9,1218.612s3.063,3.717,6.109,4.172,1.786,19,1.786,19,7.68-.861,11.654-5.1.919-28.864-15.4-27.143C2556.081,1212.123,2560.9,1218.612,2560.9,1218.612Z" transform="translate(-2059.2 -996.1)" fill="#3c3c5e"/>
    <path id="Path_501" data-name="Path 501" d="M2350.852,1432.41h0a6.814,6.814,0,0,0,7.195-6.437l.207-3.645-13.63-.758-.207,3.645a6.815,6.815,0,0,0,6.435,7.195Z" transform="translate(-1888.441 -1164.413)" fill="#fff"/>
    <path id="Path_502" data-name="Path 502" d="M2330.4,1428.45h-.083a4.02,4.02,0,0,1-3.814-4.264h0a2.8,2.8,0,0,1,4.886-1.712,2.77,2.77,0,0,1,.708,2.024c0,.128-.012.265-.018.413-.05,1.15-.114,2.579-.826,3.222A1.257,1.257,0,0,1,2330.4,1428.45Zm-3.081-4.221a3.229,3.229,0,0,0,3.046,3.405.45.45,0,0,0,.347-.115c.456-.413.516-1.759.555-2.651,0-.147.013-.287.019-.413a1.987,1.987,0,1,0-3.967-.221Z" transform="translate(-1874.228 -1164.389)" fill="#fff"/>
    <path id="Path_503" data-name="Path 503" d="M2364.84,1437.677l-2.428-6.815s-1.134,2.367-2.478,2.311-2.854-8.818-4.481-8.853,1.76,7.734,1.369,7.746c-.826.027-1.73-7.5-3.333-7.069s2.026,7.542,1.4,7.453-1.673-6.757-2.844-6.476,1.526,6.9,1.2,6.918-1.3-5.3-2.115-4.987-.254,7.188,5.357,8.411,5.665,7.021,5.665,7.021Z" transform="translate(-1893.541 -1166.595)" fill="#ff9b77"/>
    <path id="Path_504" data-name="Path 504" d="M2263.854,1306.7l-.869-2.263-4.8,4.368,1.832,2.78Z" transform="translate(-1791.855 -1035.066)" fill="#fff"/>
    <rect id="Rectangle_153" data-name="Rectangle 153" width="0.816" height="24.859" transform="translate(483.59 282.024) rotate(-6.64)" fill="#fff"/>
    <path id="Path_505" data-name="Path 505" d="M2394.942,1421.277c.084.066.172.128.254.207l17.113,14.953c23.073-30.929,21.735-29.341,23.2-30.563.706-.584,1.995-.066,3.523,1.117a16.386,16.386,0,0,1,.279,25.533l-21.372,17.7-.849.7a6.084,6.084,0,0,1-8.242-.477l-21.016-21.989C2391.933,1427.823,2393.689,1425.791,2394.942,1421.277Z" transform="translate(-1922.897 -1151.766)" fill="#13a0f0"/>
    <path id="Path_506" data-name="Path 506" d="M2303.216,1278.541,2285.77,1263.3l.537-.613,16.781,14.662,19.075-25.568.655.487Z" transform="translate(-1813.74 -993.28)" fill="#fff"/>
    <path id="Path_507" data-name="Path 507" d="M2409.606,1512.505a6.483,6.483,0,0,1-4.679-1.976l-21.667-22.668h.94c5.029-.056,6.7-6.815,6.72-6.881l.793.19c-.068.287-1.652,6.693-6.622,7.434l20.419,21.361a5.7,5.7,0,0,0,7.686.444l.849-.7,29.427-24.368.521.62-30.276,25.08A6.459,6.459,0,0,1,2409.606,1512.505Z" transform="translate(-1919.271 -1211.554)" fill="#fff"/>
    <path id="Path_508" data-name="Path 508" d="M2279.637,1640.4h11.191a1.239,1.239,0,0,0,1.239-1.239H2278.41A1.239,1.239,0,0,0,2279.637,1640.4Z" transform="translate(-1836.073 -1337.069)" fill="#30212b"/>
    <path id="Path_509" data-name="Path 509" d="M2549.924,1362.52a8.392,8.392,0,0,1-3.354-.64l.347-.737a8.712,8.712,0,0,0,6.174-.012l.281.764A9.931,9.931,0,0,1,2549.924,1362.52Z" transform="translate(-2048.857 -1116.454)" fill="#bf7459"/>
    <rect id="Rectangle_154" data-name="Rectangle 154" width="158.892" height="5.935" transform="translate(353.16 303.673)" fill="#8a8a8a"/>
    <rect id="Rectangle_155" data-name="Rectangle 155" width="147.895" height="2.585" transform="translate(358.657 309.61)"/>
    <path id="Path_510" data-name="Path 510" d="M1871.432,1590.608h3.7l-12.655-78.808h-9.392Z" transform="translate(-1470.412 -1199.604)" fill="#8a8a8a"/>
    <path id="Path_511" data-name="Path 511" d="M1695.813,1590.608h-3.7l11.156-78.808h9.39Z" transform="translate(-1342.675 -1199.604)" fill="#8a8a8a"/>
    <path id="Path_512" data-name="Path 512" d="M2413.962,1590.608h3.7l-12.655-78.808h-9.392Z" transform="translate(-1900.905 -1199.604)" fill="#8a8a8a"/>
    <path id="Path_513" data-name="Path 513" d="M2238.342,1590.608h-3.7L2245.8,1511.8h9.39Z" transform="translate(-1773.168 -1199.604)" fill="#8a8a8a"/>
    <rect id="Rectangle_156" data-name="Rectangle 156" width="6.513" height="5.344" transform="translate(379.279 262.458)" fill="#8a8a8a"/>
    <rect id="Rectangle_157" data-name="Rectangle 157" width="2.571" height="14.018" transform="translate(387.723 239.67)" fill="#757575"/>
    <path id="Path_514" data-name="Path 514" d="M1957.51,1317.1l-11.839,3.6a2.271,2.271,0,0,1-2.261-2.261v-29.518a2.272,2.272,0,0,1,2.261-2.272l11.839-3.6a2.272,2.272,0,0,1,2.272,2.271v29.531A2.272,2.272,0,0,1,1957.51,1317.1Z" transform="translate(-1570.254 -1054.498)" fill="#5d5d5d"/>
    <path id="Path_515" data-name="Path 515" d="M1949.624,1323.777a1.2,1.2,0,0,1-1.064-1.19v-29.518a1.2,1.2,0,0,1,1.2-1.2h.157l11.816-3.591a1.2,1.2,0,0,1,1.063,1.189V1319a1.2,1.2,0,0,1-1.2,1.2h-.157Z" transform="translate(-1574.34 -1058.648)" fill="#8a8a8a"/>
    <g id="Group_78" data-name="Group 78" transform="translate(374.22 229.623)" clip-path="url(#clip-path)">
      <path id="Path_516" data-name="Path 516" d="M2033.528,1398.2a4.3,4.3,0,0,1,1.485-.206c.692.058,2.54,1.819,2.065,1.819s-1.962-1.115-2.084-.915.634.62.446.768a7.122,7.122,0,0,1-1.92-.322Z" transform="translate(-2015.975 -1375.323)" fill="#ff9b77"/>
      <path id="Path_517" data-name="Path 517" d="M1896.27,1221.958l.609-.258v1.53l-.446-.157Z" transform="translate(-1878.894 -1199.036)" fill="#fff"/>
      <path id="Path_518" data-name="Path 518" d="M1982.881,1307.94s2.3,2.042.942,6.848a19.1,19.1,0,0,1-3.893-.268l1.282-6.579Z" transform="translate(-1973.452 -1303.872)"/>
      <path id="Path_519" data-name="Path 519" d="M1986.382,1359.026l-4.688-.207-2.311-7.523a2.755,2.755,0,0,0-.3-.655,2.7,2.7,0,1,0-4.558,2.891l4.684,7.376.155.244a1.373,1.373,0,0,0,1.216.634l5.8-.25A4.682,4.682,0,0,0,1986.382,1359.026Z" transform="translate(-1968.828 -1336.761)" fill="#13a0f0"/>
      <path id="Path_520" data-name="Path 520" d="M2025.35,1480.322l.865,2.517a1.615,1.615,0,0,0,1.5.238c.677-.364.506-1.462.506-1.462l-.675-2.614Z" transform="translate(-2009.492 -1439.606)" fill="#f9a17b"/>
      <path id="Path_521" data-name="Path 521" d="M2029.2,1492.323l.62,1.8,5.632-1.939a1.363,1.363,0,0,0-1.791-.873,3.421,3.421,0,0,1-2.381,0,1.112,1.112,0,0,1-.712,1.224C2029.7,1492.833,2029.512,1492.216,2029.2,1492.323Z" transform="translate(-2012.547 -1449.299)" fill="#30212b"/>
      <rect id="Rectangle_158" data-name="Rectangle 158" width="5.941" height="0.193" transform="matrix(0.948, -0.319, 0.319, 0.948, 17.486, 47.61)" fill="#fff"/>
      <path id="Path_522" data-name="Path 522" d="M2051.038,1491.96c-.078-.413-.041-1.239.663-1.38l.038.188c-.7.14-.514,1.146-.512,1.156Z" transform="translate(-2029.852 -1448.795)" fill="#fff"/>
      <rect id="Rectangle_159" data-name="Rectangle 159" width="0.192" height="0.51" transform="matrix(0.995, -0.099, 0.099, 0.995, 19.894, 42.136)" fill="#fff"/>
      <rect id="Rectangle_160" data-name="Rectangle 160" width="0.192" height="0.51" transform="translate(20.12 42.093) rotate(-5.71)" fill="#fff"/>
      <rect id="Rectangle_161" data-name="Rectangle 161" width="0.193" height="0.513" transform="translate(22.671 43.236) rotate(-5.711)" fill="#fff"/>
      <rect id="Rectangle_162" data-name="Rectangle 162" width="0.192" height="0.51" transform="translate(20.506 42.116) rotate(-5.71)" fill="#fff"/>
      <path id="Path_523" data-name="Path 523" d="M1990.113,1483.81l-1.293,2.327s.1,1.008.826,1.276,1.425-.6,1.425-.6l1.489-2.247Z" transform="translate(-1980.505 -1443.423)" fill="#f9a17b"/>
      <path id="Path_524" data-name="Path 524" d="M1985.775,1494.15l-.925,1.664,5.208,2.891a1.362,1.362,0,0,0-.547-1.914,3.43,3.43,0,0,1-1.588-1.776,1.114,1.114,0,0,1-1.387.289C1985.738,1494.86,1986.067,1494.309,1985.775,1494.15Z" transform="translate(-1977.356 -1451.628)" fill="#30212b"/>
      <rect id="Rectangle_163" data-name="Rectangle 163" width="0.192" height="5.927" transform="translate(7.598 44.05) rotate(-60.94)" fill="#fff"/>
      <path id="Path_525" data-name="Path 525" d="M2003.653,1508.772l-.153-.116c.256-.336.894-.859,1.47-.429l-.116.153C2004.287,1507.957,2003.68,1508.739,2003.653,1508.772Z" transform="translate(-1992.155 -1462.669)" fill="#fff"/>
      <rect id="Rectangle_164" data-name="Rectangle 164" width="0.51" height="0.192" transform="translate(10.925 44.689) rotate(-47.65)" fill="#fff"/>
      <rect id="Rectangle_165" data-name="Rectangle 165" width="0.509" height="0.192" transform="translate(9.824 43.269) rotate(-47.842)" fill="#fff"/>
      <rect id="Rectangle_166" data-name="Rectangle 166" width="0.51" height="0.192" transform="translate(11.168 44.99) rotate(-47.65)" fill="#fff"/>
      <rect id="Rectangle_167" data-name="Rectangle 167" width="0.51" height="0.192" transform="translate(11.301 45.19) rotate(-47.64)" fill="#fff"/>
      <path id="Path_526" data-name="Path 526" d="M1976.649,1414.285l-.556-.126-10.149-2.329a4.218,4.218,0,0,0-1.192-.093,4.054,4.054,0,1,0,.572,8.087l6.3-.444-4.648,8.642c.6,1,1.348,1.181,2.716,1.066l8.3-11.126a2.39,2.39,0,0,0,.413-.886,2.329,2.329,0,0,0-1.757-2.79Z" transform="translate(-1958.418 -1386.226)" fill="#30212b"/>
      <path id="Path_527" data-name="Path 527" d="M1974.534,1426.748l-2.99-11.465a1.7,1.7,0,0,0-.826-.921l-.84-.413-5.908-2.959a4.192,4.192,0,0,0-1.859-.436,4.13,4.13,0,1,0,.042,8.244l5.734-.027,4.233,8.762A3.352,3.352,0,0,0,1974.534,1426.748Z" transform="translate(-1955.845 -1385.289)" fill="#382632"/>
      <path id="Path_528" data-name="Path 528" d="M1965.869,1362.658c-5.163-1.782-7.587,4.956-8.948,3.385,1.268-4.651.766-8.3,0-13.675-.365-2.557,2.094-4.678,4.677-4.678l3.471,1.295a9.531,9.531,0,0,1,.518,3.457Z" transform="translate(-1955.165 -1335.413)" fill="#13a0f0"/>
      <path id="Path_529" data-name="Path 529" d="M1975,1335.657V1331.3l2.664,1.068.892,3.29S1978.081,1338.738,1975,1335.657Z" transform="translate(-1969.54 -1322.408)" fill="#ff9b77"/>
      <ellipse id="Ellipse_46" data-name="Ellipse 46" cx="2.778" cy="3.178" rx="2.778" ry="3.178" transform="translate(4.818 4.56)" fill="#ff9b77"/>
      <path id="Path_530" data-name="Path 530" d="M1980.914,1306.685l2.644.826s.353-2.774-2.34-2.947S1980.914,1306.685,1980.914,1306.685Z" transform="translate(-1973.458 -1301.185)"/>
      <path id="Path_531" data-name="Path 531" d="M1965.6,1306.611a3.025,3.025,0,0,1-1.445.981c-.725.11-.413,4.463-.413,4.463a5.146,5.146,0,0,1-2.738-1.2c-.934-.991-.207-6.78,3.616-6.375C1966.729,1305.087,1965.6,1306.611,1965.6,1306.611Z" transform="translate(-1958.142 -1301.112)"/>
      <path id="Path_532" data-name="Path 532" d="M2022.677,1356.826h0a1.6,1.6,0,0,1-1.689-1.514l-.047-.855,3.2-.177.048.855a1.6,1.6,0,0,1-1.512,1.691Z" transform="translate(-2005.993 -1340.642)" fill="#30212b"/>
      <path id="Path_533" data-name="Path 533" d="M2034.907,1355.927a.292.292,0,0,1-.207-.076c-.167-.151-.182-.485-.194-.756v-.1a.666.666,0,0,1,.167-.477.664.664,0,0,1,1.148.413h0a.889.889,0,0,1-.308.756,1.032,1.032,0,0,1-.589.246Zm.258-1.431h-.027a.467.467,0,0,0-.44.491v.1c0,.206.023.525.13.619a.1.1,0,0,0,.083.027.827.827,0,0,0,.475-.206.7.7,0,0,0,.24-.6h0A.467.467,0,0,0,2035.165,1354.5Z" transform="translate(-2016.757 -1340.67)" fill="#30212b"/>
      <path id="Path_534" data-name="Path 534" d="M2019.24,1358.059l.57-1.6s.266.555.58.543.671-2.065,1.053-2.08-.413,1.818-.322,1.82c.194,0,.413-1.762.783-1.652s-.475,1.772-.331,1.751.395-1.588.669-1.522-.359,1.621-.283,1.625.305-1.239.5-1.171.06,1.689-1.257,1.976a1.734,1.734,0,0,0-1.332,1.652Z" transform="translate(-2004.644 -1341.15)" fill="#ff9b77"/>
      <path id="Path_535" data-name="Path 535" d="M1882.02,1192.421l.2-.531,1.128,1.024-.429.655Z" transform="translate(-1867.587 -1175.382)" fill="#fff"/>
      <rect id="Rectangle_168" data-name="Rectangle 168" width="5.838" height="0.192" transform="translate(10.846 25.256) rotate(-83.34)" fill="#fff"/>
      <path id="Path_536" data-name="Path 536" d="M1972.963,1354.213c-.019.014-.039.029-.06.048l-4.019,3.51c-5.418-7.263-5.1-6.891-5.448-7.176-.167-.136-.469-.015-.826.262a3.85,3.85,0,0,0-.066,6l5.021,4.157.207.165a1.429,1.429,0,0,0,1.937-.112l4.936-5.163C1973.671,1355.751,1973.258,1355.272,1972.963,1354.213Z" transform="translate(-1958.543 -1337.674)" fill="#13a0f0"/>
      <path id="Path_537" data-name="Path 537" d="M1844.453,1185.806l-4.6-6.172.153-.114,4.479,6.005,3.942-3.445.126.145Z" transform="translate(-1834.125 -1165.566)" fill="#fff"/>
      <path id="Path_538" data-name="Path 538" d="M1966.548,1375.627a1.515,1.515,0,0,1-.966-.345l-7.112-5.892.124-.146,7.11,5.89a1.336,1.336,0,0,0,1.8-.1l4.8-5.02c-1.167-.174-1.539-1.679-1.555-1.745l.186-.046c0,.017.4,1.6,1.58,1.617h.219l-5.088,5.324A1.523,1.523,0,0,1,1966.548,1375.627Z" transform="translate(-1956.423 -1351.703)" fill="#fff"/>
      <path id="Path_539" data-name="Path 539" d="M2039.578,1405.681h-2.629a.289.289,0,0,1-.289-.291h3.207A.291.291,0,0,1,2039.578,1405.681Z" transform="translate(-2018.467 -1381.197)" fill="#30212b"/>
      <path id="Path_540" data-name="Path 540" d="M1982.27,1340.406a2.343,2.343,0,0,1-.809-.147l.066-.18a2.031,2.031,0,0,0,1.446,0l.083.174A2.015,2.015,0,0,1,1982.27,1340.406Z" transform="translate(-1974.666 -1329.375)" fill="#bf7459"/>
    </g>
    <path id="Path_542" data-name="Path 542" d="M1830.49,1216.477l-12.24,3.193v-8.847l12.24-3.193Z" transform="translate(-1442.767 -958.248)" fill="#fff"/>
    <circle id="Ellipse_47" data-name="Ellipse 47" cx="1.613" cy="1.613" r="1.613" transform="translate(379.326 255.399) rotate(-45)" fill="#fff"/>
    <path id="Path_543" data-name="Path 543" d="M1844.79,1233.68l.173,1.522,1.4-.762Z" transform="translate(-1463.826 -978.918)"/>
    <rect id="Rectangle_169" data-name="Rectangle 169" width="2.571" height="14.018" transform="translate(371.649 242.264)" fill="#757575"/>
    <rect id="Rectangle_170" data-name="Rectangle 170" width="2.683" height="16.812" transform="translate(381.338 267.803)" fill="#8a8a8a"/>
    <path id="Path_544" data-name="Path 544" d="M1846.6,1389.07h2.685v17.865a1.183,1.183,0,0,1-1.183,1.183h-.316a1.183,1.183,0,0,1-1.184-1.183V1389.07Z" transform="translate(-1465.262 -1102.219)" fill="#8a8a8a"/>
    <path id="Path_545" data-name="Path 545" d="M1933.058,1575.807h0a1.183,1.183,0,0,1-1.045-1.741l10.425-19.546h2.685l-11.019,20.651A1.181,1.181,0,0,1,1933.058,1575.807Z" transform="translate(-1561.1 -1269.907)" fill="#8a8a8a"/>
    <path id="Path_546" data-name="Path 546" d="M1995.068,1575.807h0a1.183,1.183,0,0,0,1.045-1.741l-10.429-19.546H1983l11.017,20.651A1.184,1.184,0,0,0,1995.068,1575.807Z" transform="translate(-1601.668 -1269.907)" fill="#8a8a8a"/>
    <path id="Path_547" data-name="Path 547" d="M192.52,242.91H317.045v78.535a8.306,8.306,0,0,1-8.306,8.306H200.826a8.306,8.306,0,0,1-8.306-8.306Z" transform="translate(-152.763 -192.75)" fill="#5d5d5d"/>
    <rect id="Rectangle_171" data-name="Rectangle 171" width="124.522" height="20.213" transform="translate(39.757 50.16)" fill="#5d5d5d"/>
    <path id="Path_548" data-name="Path 548" d="M706.679,248.465v9.1l-8.756,5.057-.869.5H683.56l.869-.5,16.63-9.609-16.63-9.6-.867-.5h13.493l.867.5Z" transform="translate(-542.399 -192.75)" fill="#fff"/>
    <path id="Path_549" data-name="Path 549" d="M585.007,253.012l-16.632,9.609-.869.5h-13.5l.869-.5,16.632-9.609-16.632-9.6-.867-.5h13.5l.867.5Z" transform="translate(-439.602 -192.75)" fill="#fff"/>
    <path id="Path_550" data-name="Path 550" d="M455.459,253.012l-16.634,9.609-.869.5h-13.5l.871-.5,16.63-9.609-16.63-9.6-.867-.5h13.493l.867.5Z" transform="translate(-336.805 -192.75)" fill="#fff"/>
    <path id="Path_551" data-name="Path 551" d="M325.917,253.012l-16.634,9.609-.871.5H294.92l.869-.5,16.63-9.609-16.63-9.6-.867-.5h13.493l.867.5Z" transform="translate(-234.017 -192.75)" fill="#fff"/>
    <path id="Path_552" data-name="Path 552" d="M217.918,253.012l-16.632,9.609-.871.5H192.53v-3.242l11.893-6.871-11.893-6.866V242.91h7.889l.867.5Z" transform="translate(-152.771 -192.75)" fill="#fff"/>
    <circle id="Ellipse_48" data-name="Ellipse 48" cx="2.04" cy="2.04" r="2.04" transform="translate(42.241 52.522)" fill="#f0dcc1"/>
    <circle id="Ellipse_49" data-name="Ellipse 49" cx="1.441" cy="1.441" r="1.441" transform="translate(42.84 53.121)" fill="#3c3c5e"/>
    <circle id="Ellipse_50" data-name="Ellipse 50" cx="2.04" cy="2.04" r="2.04" transform="translate(41.853 67.296) rotate(-77.78)" fill="#f0dcc1"/>
    <path id="Path_553" data-name="Path 553" d="M346.731,489.076a1.446,1.446,0,1,1-1.446-1.446A1.446,1.446,0,0,1,346.731,489.076Z" transform="translate(-301.008 -423.339)" fill="#3c3c5e"/>
    <rect id="Rectangle_172" data-name="Rectangle 172" width="110.575" height="0.533" transform="translate(46.733 79.085)" fill="#fff"/>
    <rect id="Rectangle_173" data-name="Rectangle 173" width="110.575" height="0.533" transform="translate(46.733 90.66)" fill="#fff"/>
    <rect id="Rectangle_174" data-name="Rectangle 174" width="110.575" height="0.533" transform="translate(46.733 102.235)" fill="#fff"/>
    <rect id="Rectangle_175" data-name="Rectangle 175" width="110.575" height="0.533" transform="translate(46.733 113.807)" fill="#fff"/>
    <rect id="Rectangle_176" data-name="Rectangle 176" width="110.575" height="0.533" transform="translate(46.733 125.382)" fill="#fff"/>
    <path id="Path_554" data-name="Path 554" d="M638.68,1746.424s3.542,5.369,10.621.979A9.651,9.651,0,0,0,638.68,1746.424Z" transform="translate(-534.961 -1421.265)" fill="#21546f"/>
    <path id="Path_555" data-name="Path 555" d="M649.3,1419.2l-10.621-.979,9.578-74.826a14.973,14.973,0,0,1,3.374-7.792c3.769-4.461,8.013-4.073,10.9-3.806,0,0,2.106,4.021,1.766,7.721Z" transform="translate(-534.961 -1093.067)" fill="#13a0f0"/>
    <path id="Path_556" data-name="Path 556" d="M656.21,1092.62h15.883v12.63a7.94,7.94,0,0,1-7.94,7.94h0a7.94,7.94,0,0,1-7.94-7.94v-12.63Z" transform="translate(-520.697 -866.988)" fill="#f9a17b"/>
    <ellipse id="Ellipse_51" data-name="Ellipse 51" cx="13.386" cy="16.17" rx="13.386" ry="16.17" transform="translate(132.498 200.465)" fill="#f9a17b"/>
    <path id="Path_557" data-name="Path 557" d="M809.88,1123.423s16.646,5.933,16.481-2.309-7.087-17.14-18.792-9.724S809.88,1123.423,809.88,1123.423Z" transform="translate(-665.273 -916.086)" fill="#5d5d5d"/>
    <path id="Path_558" data-name="Path 558" d="M766.951,1139.349s-11.678-2.662-12.667,8.547,7.86,19.205,7.86,19.205c7.2,5.782,16.7,5.555,19.313-17.454Z" transform="translate(-626.63 -940.254)" fill="#5d5d5d"/>
    <ellipse id="Ellipse_52" data-name="Ellipse 52" cx="2.61" cy="3.544" rx="2.61" ry="3.544" transform="translate(149.363 215.917)" fill="#f9a17b"/>
    <path id="Path_559" data-name="Path 559" d="M1021.485,1336.635s-2.6-4.081-9.165-1.743A9.393,9.393,0,0,0,1021.485,1336.635Z" transform="translate(-831.441 -1095.061)" fill="#21546f"/>
    <path id="Path_560" data-name="Path 560" d="M1046.319,1294.977h0a.892.892,0,0,0,1.121-.578l.826-2.592a.892.892,0,0,0-.58-1.121h0a.892.892,0,0,0-1.121.578l-.826,2.592A.894.894,0,0,0,1046.319,1294.977Z" transform="translate(-857.926 -1060.524)" fill="#f9a17b"/>
    <path id="Path_561" data-name="Path 561" d="M1046.259,1294.781a.963.963,0,0,1-.3-.045h0a.975.975,0,0,1-.632-1.225l.826-2.592a.975.975,0,0,1,1.859.593l-.826,2.592A.976.976,0,0,1,1046.259,1294.781Zm-.246-.206a.809.809,0,0,0,1.018-.525l.826-2.592a.81.81,0,1,0-1.542-.494l-.826,2.592a.811.811,0,0,0,.527,1.018Z" transform="translate(-857.599 -1060.204)" fill="#bf7c5e"/>
    <path id="Path_562" data-name="Path 562" d="M1037.609,1292.2h0a.892.892,0,0,0,1.121-.578l.826-2.592a.894.894,0,0,0-.58-1.121h0a.892.892,0,0,0-1.121.578l-.826,2.592a.892.892,0,0,0,.58,1.121Z" transform="translate(-851.014 -1058.318)" fill="#f9a17b"/>
    <path id="Path_563" data-name="Path 563" d="M1037.579,1292a.967.967,0,0,1-.3-.048h0a.974.974,0,0,1-.632-1.224l.826-2.592a.975.975,0,0,1,1.859.593l-.826,2.592A.979.979,0,0,1,1037.579,1292Zm-.246-.206a.81.81,0,0,0,1.018-.525l.826-2.592a.81.81,0,1,0-1.542-.493l-.826,2.592a.812.812,0,0,0,.527,1.018Z" transform="translate(-850.712 -1057.998)" fill="#bf7c5e"/>
    <path id="Path_564" data-name="Path 564" d="M1028.8,1289.342h0a.892.892,0,0,0,1.121-.58l.826-2.59a.894.894,0,0,0-.58-1.123h0a.894.894,0,0,0-1.121.58l-.826,2.59A.894.894,0,0,0,1028.8,1289.342Z" transform="translate(-844.022 -1056.051)" fill="#f9a17b"/>
    <path id="Path_565" data-name="Path 565" d="M1028.756,1289.19a.978.978,0,0,1-.3-.045h0a.981.981,0,0,1-.634-1.227l.826-2.59a.956.956,0,0,1,.481-.57.975.975,0,0,1,1.377,1.163l-.826,2.59A.977.977,0,0,1,1028.756,1289.19Zm-.246-.207a.814.814,0,0,0,1.018-.527l.826-2.59a.812.812,0,1,0-1.545-.493l-.826,2.59A.816.816,0,0,0,1028.51,1288.984Z" transform="translate(-843.71 -1055.767)" fill="#bf7c5e"/>
    <path id="Path_566" data-name="Path 566" d="M997.857,1246.839a.682.682,0,0,1,.946-.875,7.48,7.48,0,0,1,3.246,2.873.266.266,0,0,0,.5-.091c.413-3.116,2.185-9.739,3.143-9.706,1.212.039-1.611,9.64-.878,9.937a.383.383,0,0,0,.169.031.574.574,0,0,0,.258.161c1.592.5,3.864,1.493,5.026,1.413a63.738,63.738,0,0,1-1.524,7.416,58.567,58.567,0,0,0,.19,10.437l-9.5-2.209s4.306-5.929,3.323-8.24C1002.018,1256.238,999.2,1249.865,997.857,1246.839Z" transform="translate(-819.919 -1019.576)" fill="#f9a17b"/>
    <path id="Path_567" data-name="Path 567" d="M933.149,1340.22s17.471,23.129,9.231,51.627c-10.55,3.428-10.55-4.337-10.55-4.337Z" transform="translate(-767.573 -1099.862)" fill="#066fab"/>
    <path id="Path_568" data-name="Path 568" d="M653.447,2242.2,650.81,2253.5s2.325,3.362,5.423,2.881,3.845-4.915,3.845-4.915l2.728-11.234Z" transform="translate(-544.586 -1814.013)" fill="#f9a17b"/>
    <path id="Path_569" data-name="Path 569" d="M642.018,2295.774l-2.288,8.26,26.379.572s.023-6.827-5.745-6.825a13.861,13.861,0,0,1-9.086-3.151s-.64,3.738-4.337,3.738S643.356,2295.774,642.018,2295.774Z" transform="translate(-535.794 -1857.179)" fill="#775843"/>
    <path id="Path_570" data-name="Path 570" d="M666.348,2333.976h0l-25.9-.694a.267.267,0,0,1,.014-.533l25.9.7a.266.266,0,0,1,0,.531Z" transform="translate(-536.155 -1887.426)" fill="#fff"/>
    <path id="Path_571" data-name="Path 571" d="M735.206,2317.343l-.207-.035c0-.044.739-4.19,4.058-3.746l-.029.206C735.919,2313.347,735.24,2317.172,735.206,2317.343Z" transform="translate(-611.39 -1872.175)" fill="#fff"/>
    <rect id="Rectangle_177" data-name="Rectangle 177" width="1.596" height="0.213" transform="matrix(0.23, -0.973, 0.973, 0.23, 119.635, 441.493)" fill="#fff"/>
    <rect id="Rectangle_178" data-name="Rectangle 178" width="1.683" height="0.213" transform="matrix(0.23, -0.973, 0.973, 0.23, 120.357, 441.799)" fill="#fff"/>
    <rect id="Rectangle_179" data-name="Rectangle 179" width="1.753" height="0.213" transform="matrix(0.23, -0.973, 0.973, 0.23, 121.078, 442.092)" fill="#fff"/>
    <rect id="Rectangle_180" data-name="Rectangle 180" width="2.055" height="0.213" transform="matrix(0.23, -0.973, 0.973, 0.23, 121.798, 442.375)" fill="#fff"/>
    <path id="Path_572" data-name="Path 572" d="M950.22,2247.247v10.739s2.325,3.362,5.421,2.881,3.845-4.915,3.845-4.915l-2.164-10.2Z" transform="translate(-782.166 -1818.393)" fill="#f9a17b"/>
    <path id="Path_573" data-name="Path 573" d="M941.42,2296.364l-2.29,8.26,26.379.572s.025-6.828-5.743-6.815a13.8,13.8,0,0,1-9.086-3.151s-.64,3.738-4.324,3.738S942.756,2296.364,941.42,2296.364Z" transform="translate(-773.366 -1857.655)" fill="#775843"/>
    <path id="Path_574" data-name="Path 574" d="M965.737,2334.526h0l-25.906-.694a.271.271,0,0,1-.26-.275.266.266,0,0,1,.275-.258l25.9.7a.267.267,0,0,1,0,.531Z" transform="translate(-773.715 -1887.862)" fill="#fff"/>
    <path id="Path_575" data-name="Path 575" d="M1034.627,2317.853l-.207-.035c0-.041.739-4.186,4.058-3.744l-.029.206C1035.333,2313.869,1034.635,2317.813,1034.627,2317.853Z" transform="translate(-848.978 -1872.581)" fill="#fff"/>
    <rect id="Rectangle_181" data-name="Rectangle 181" width="1.596" height="0.213" transform="translate(181.461 441.567) rotate(-76.69)" fill="#fff"/>
    <rect id="Rectangle_182" data-name="Rectangle 182" width="1.683" height="0.213" transform="matrix(0.23, -0.973, 0.973, 0.23, 182.188, 441.902)" fill="#fff"/>
    <rect id="Rectangle_183" data-name="Rectangle 183" width="1.753" height="0.213" transform="matrix(0.23, -0.973, 0.973, 0.23, 182.909, 442.195)" fill="#fff"/>
    <rect id="Rectangle_184" data-name="Rectangle 184" width="2.055" height="0.213" transform="translate(183.623 442.445) rotate(-76.69)" fill="#fff"/>
    <path id="Path_576" data-name="Path 576" d="M523.854,1586.765H508.69L525.062,1453.4h33.407Z" transform="translate(-403.641 -1153.264)"/>
    <path id="Path_577" data-name="Path 577" d="M696.122,1586.765h15.164L696.011,1453.4H668.32Z" transform="translate(-530.306 -1153.264)"/>
    <path id="Path_578" data-name="Path 578" d="M811.212,1752.67a.26.26,0,0,1-.229-.134l-7.488-13.068a.266.266,0,0,1,.463-.264l7.488,13.072a.265.265,0,0,1-.1.364A.255.255,0,0,1,811.212,1752.67Z" transform="translate(-665.713 -1416.346)" fill="#fff"/>
    <path id="Path_579" data-name="Path 579" d="M945.781,1394.264h0c4.8.913,9.586-3.071,10.695-8.9l6.73-45.952a11.722,11.722,0,0,1-9.165-1.743l-14.935,44.389C937.993,1387.887,940.984,1393.351,945.781,1394.264Z" transform="translate(-773.163 -1097.839)" fill="#13a0f0"/>
    <path id="Path_580" data-name="Path 580" d="M943.76,1466.888a.25.25,0,0,1-.085-.014c-4.391-1.485-6.914-6.751-5.869-12.246a.24.24,0,0,1,0-.035l8.488-25.223a.267.267,0,1,1,.506.169l-8.473,25.217c-.987,5.229,1.384,10.224,5.52,11.624a.266.266,0,0,1-.087.518Z" transform="translate(-772.129 -1170.457)" fill="#fff"/>
    <rect id="Rectangle_185" data-name="Rectangle 185" width="0.178" height="17.526" transform="translate(167.156 259.333) rotate(-3.66)" fill="#21546f"/>
    <path id="Path_581" data-name="Path 581" d="M757.125,1400.833H703.6l1.446-58.291a11.372,11.372,0,0,1,11.372-11.373H745.75a11.375,11.375,0,0,1,11.375,11.373Z" transform="translate(-586.475 -1092.681)" fill="#13a0f0"/>
    <path id="Path_582" data-name="Path 582" d="M702.573,1480.112h-.023a.267.267,0,0,1-.244-.287l4.108-48.837a.265.265,0,1,1,.529.046l-4.105,48.837A.264.264,0,0,1,702.573,1480.112Z" transform="translate(-585.448 -1171.693)" fill="#fff"/>
    <path id="Path_583" data-name="Path 583" d="M643.988,1752l-.95,2.559a15.883,15.883,0,0,0-.359,10.011c.785,2.672,1.733,5.357,2.367,5.357,1.262,0,1.262-10.457,1.262-10.457s.541,5.229,1.446,5.229,2.253-4.256.9-12.269Z" transform="translate(-537.626 -1426.606)" fill="#f9a17b"/>
    <path id="Path_584" data-name="Path 584" d="M2537.62,796.29h54.489a7.99,7.99,0,0,1,7.99,7.994v18.885a7.99,7.99,0,0,1-7.99,7.99H2529.63V804.284A7.989,7.989,0,0,1,2537.62,796.29Z" transform="translate(-2007.24 -631.853)"/>
    <path id="Path_585" data-name="Path 585" d="M2531.121,977.13l12.011-12.01h-13.5Z" transform="translate(-2007.24 -765.818)"/>
    <path id="Path_586" data-name="Path 586" d="M2561.133,825.17l2.891,5.857,6.462.94-4.675,4.56,1.1,6.437-5.781-3.04-5.78,3.04,1.1-6.437-4.676-4.56,6.462-.94Z" transform="translate(-2024.816 -654.769)" fill="#fff"/>
    <path id="Path_587" data-name="Path 587" d="M2664.3,825.17l2.889,5.857,6.464.94-4.678,4.56,1.1,6.437-5.78-3.04-5.782,3.04,1.105-6.437-4.677-4.56,6.463-.94Z" transform="translate(-2106.681 -654.769)" fill="#fff"/>
    <path id="Path_588" data-name="Path 588" d="M2767.485,825.17l2.889,5.857,6.463.94-4.677,4.56,1.1,6.437-5.78-3.04-5.782,3.04,1.1-6.437-4.677-4.56,6.464-.94Z" transform="translate(-2188.553 -654.769)" fill="#fff"/>
    <ellipse id="Ellipse_53" data-name="Ellipse 53" cx="34.194" cy="9.795" rx="34.194" ry="9.795" transform="translate(46.691 301.321) rotate(-84.96)" fill="#5d5d5d"/>
    <path id="Path_589" data-name="Path 589" d="M432.192,1653.193c-7.228,6.54-12.039,12.719-13.912,10.65s.514-11.445,7.736-17.985,16.543-7.763,18.416-5.693S439.42,1646.655,432.192,1653.193Z" transform="translate(-359.59 -1337.135)" fill="#757575"/>
    <path id="Path_590" data-name="Path 590" d="M251.712,1559.854c6.889,6.887,8.033,15.488,6.059,17.466s-7.108-4.06-14-10.945-13.3-9.692-11.327-11.664S244.822,1552.965,251.712,1559.854Z" transform="translate(-212.33 -1269.208)" fill="#5d5d5d"/>
    <path id="Path_591" data-name="Path 591" d="M302.924,1639.788H302.9a.266.266,0,0,1-.246-.285,143.434,143.434,0,0,0-.843-26.627,72.555,72.555,0,0,0-5.392-20.432c-3.116-6.8-7.315-11.43-12.479-13.753a.266.266,0,0,1,.219-.485c5.287,2.377,9.576,7.1,12.748,14.022a73.06,73.06,0,0,1,5.433,20.587,144.02,144.02,0,0,1,.845,26.73A.266.266,0,0,1,302.924,1639.788Z" transform="translate(-253.364 -1288.686)" fill="#a1a1a1"/>
    <path id="Path_592" data-name="Path 592" d="M390.574,1472.309h-.021a.267.267,0,0,1-.246-.285l7.932-101.875a.262.262,0,0,1,.285-.244.267.267,0,0,1,.246.285l-7.932,101.872A.266.266,0,0,1,390.574,1472.309Z" transform="translate(-337.879 -1123.417)" fill="#a1a1a1"/>
    <path id="Path_593" data-name="Path 593" d="M403.976,1709.918a.266.266,0,0,1-.266-.26,66.211,66.211,0,0,1,2.152-16.013c2.092-7.967,6.691-18.706,16.727-24.609a.266.266,0,1,1,.271.458c-9.881,5.811-14.416,16.407-16.483,24.273a65.528,65.528,0,0,0-2.137,15.88.265.265,0,0,1-.26.271Z" transform="translate(-348.515 -1360.74)" fill="#a1a1a1"/>
    <path id="Path_594" data-name="Path 594" d="M271.561,1724.7c5.322,4.818,8.87,9.371,10.251,7.847s-.38-8.434-5.7-13.251-12.184-5.72-13.572-4.2S266.239,1719.878,271.561,1724.7Z" transform="translate(-236.314 -1396.787)" fill="#5d5d5d"/>
    <path id="Path_595" data-name="Path 595" d="M314.127,1766.283h0a.269.269,0,0,1-.26-.273,48.236,48.236,0,0,0-1.574-11.686c-1.52-5.782-4.855-13.572-12.114-17.84a.266.266,0,1,1,.271-.458c7.42,4.364,10.817,12.294,12.362,18.173a48.915,48.915,0,0,1,1.588,11.818.269.269,0,0,1-.273.266Z" transform="translate(-266.252 -1413.896)" fill="#a1a1a1"/>
    <rect id="Rectangle_186" data-name="Rectangle 186" width="27.249" height="20.312" transform="translate(38.351 349.879)"/>
    <g id="Group_79" data-name="Group 79" transform="translate(38.351 349.877)" clip-path="url(#clip-path-2)">
      <path id="Path_596" data-name="Path 596" d="M308.891,1901.039a.288.288,0,0,1-.085-.013l-3.118-1.032-3.118,1.032a.268.268,0,0,1-.169,0l-3.116-1.032-3.12,1.032a.262.262,0,0,1-.167,0l-3.118-1.032-3.118,1.032a.262.262,0,0,1-.167,0l-3.118-1.032-3.118,1.032a.268.268,0,0,1-.169,0l-3.2-1.066a.266.266,0,1,1,.167-.5l3.118,1.033,3.118-1.033a.258.258,0,0,1,.167,0l3.118,1.033,3.118-1.033a.264.264,0,0,1,.169,0l3.118,1.033,3.118-1.033a.258.258,0,0,1,.167,0l3.118,1.033,3.118-1.033a.258.258,0,0,1,.167,0l3.12,1.033,3.118-1.033a.258.258,0,0,1,.167,0l3.12,1.033,3.122-1.033a.266.266,0,1,1,.167.5l-3.2,1.066a.262.262,0,0,1-.167,0l-3.12-1.032-3.118,1.032A.306.306,0,0,1,308.891,1901.039Z" transform="translate(-288.529 -1893.472)" fill="#3c3c5e"/>
      <path id="Path_597" data-name="Path 597" d="M315.3,1914.839a.227.227,0,0,1-.083-.014l-3.12-1.032-3.118,1.033a.266.266,0,0,1-.169,0l-3.118-1.032-3.118,1.033a.266.266,0,0,1-.169,0l-3.116-1.032-3.12,1.033a.262.262,0,0,1-.167,0l-3.118-1.033-3.118,1.033a.262.262,0,0,1-.167,0l-3.118-1.033-3.118,1.033a.266.266,0,0,1-.169,0l-3.2-1.063a.267.267,0,1,1,.167-.5l3.118,1.032,3.118-1.032a.262.262,0,0,1,.167,0l3.118,1.032,3.118-1.032a.264.264,0,0,1,.169,0l3.118,1.032,3.118-1.032a.262.262,0,0,1,.167,0l3.118,1.032,3.118-1.032a.262.262,0,0,1,.167,0l3.12,1.032,3.118-1.032a.261.261,0,0,1,.167,0l3.12,1.032,3.122-1.032a.267.267,0,1,1,.167.5l-3.205,1.078A.235.235,0,0,1,315.3,1914.839Z" transform="translate(-288.53 -1904.423)" fill="#3c3c5e"/>
      <path id="Path_598" data-name="Path 598" d="M308.972,1928.722a.233.233,0,0,1-.085-.014l-3.118-1.032-3.118,1.032a.265.265,0,0,1-.169,0l-3.116-1.032-3.12,1.032a.258.258,0,0,1-.167,0l-3.118-1.032-3.118,1.032a.258.258,0,0,1-.167,0l-3.118-1.032-3.118,1.032a.265.265,0,0,1-.169,0l-3.2-1.063a.267.267,0,0,1,.167-.506l3.118,1.032,3.118-1.032a.291.291,0,0,1,.167,0l3.118,1.032,3.118-1.032a.294.294,0,0,1,.169,0l3.118,1.032,3.118-1.032a.291.291,0,0,1,.167,0l3.118,1.032,3.118-1.032a.291.291,0,0,1,.167,0l3.12,1.032,3.118-1.032a.291.291,0,0,1,.167,0l3.12,1.032,3.122-1.032a.267.267,0,0,1,.167.506l-3.205,1.063a.258.258,0,0,1-.167,0l-3.12-1.032-3.118,1.032A.238.238,0,0,1,308.972,1928.722Z" transform="translate(-288.611 -1915.444)" fill="#3c3c5e"/>
      <path id="Path_599" data-name="Path 599" d="M308.972,1942.55a.294.294,0,0,1-.085-.015l-3.118-1.032-3.118,1.032a.265.265,0,0,1-.169,0l-3.116-1.032-3.12,1.032a.258.258,0,0,1-.167,0l-3.118-1.032-3.118,1.032a.258.258,0,0,1-.167,0l-3.118-1.032-3.118,1.032a.265.265,0,0,1-.169,0l-3.2-1.063a.267.267,0,0,1,.167-.506l3.118,1.033,3.118-1.033a.258.258,0,0,1,.167,0l3.118,1.033,3.118-1.033a.264.264,0,0,1,.169,0l3.118,1.033,3.118-1.033a.258.258,0,0,1,.167,0l3.118,1.033,3.118-1.033a.258.258,0,0,1,.167,0l3.12,1.033,3.118-1.033a.258.258,0,0,1,.167,0l3.12,1.033,3.122-1.033a.267.267,0,0,1,.167.506l-3.205,1.063a.258.258,0,0,1-.167,0l-3.12-1.032-3.118,1.032A.3.3,0,0,1,308.972,1942.55Z" transform="translate(-288.611 -1926.416)" fill="#3c3c5e"/>
    </g>
    <path id="Path_600" data-name="Path 600" d="M204,1680.737H173.724l-1.214-3.537h32.7Z" transform="translate(-136.885 -1330.848)"/>
    <rect id="Rectangle_188" data-name="Rectangle 188" width="32.331" height="1.34" transform="translate(35.809 349.908)" fill="#888"/>
    <rect id="Rectangle_189" data-name="Rectangle 189" width="1.439" height="33.219" transform="translate(51.253 350.579)" fill="#8a8a8a"/>
    <path id="Path_601" data-name="Path 601" d="M308.967,1728.31,294.9,1694.42l-1.332.553,13.838,33.337Z" transform="translate(-232.945 -1344.512)" fill="#8a8a8a"/>
    <path id="Path_602" data-name="Path 602" d="M136.789,1728.31l13.838-33.337-1.33-.553-14.067,33.89Z" transform="translate(-107.304 -1344.512)" fill="#8a8a8a"/>
    <path id="Path_603" data-name="Path 603" d="M2059.743,426.663l-3.355,10.639-14.773,46.83a.414.414,0,0,1-.4.293H1954.8a.4.4,0,0,1-.337-.171.413.413,0,0,1-.062-.374l14.693-46.568,3.437-10.889a.413.413,0,0,1,.4-.293h86.414a.413.413,0,0,1,.4.543Z" transform="translate(-1578.961 -374.539)"/>
    <path id="Path_604" data-name="Path 604" d="M2056.388,480.23l-14.773,46.83a.414.414,0,0,1-.4.293H1954.8a.4.4,0,0,1-.337-.171.413.413,0,0,1-.062-.374L1969.1,480.24Z" transform="translate(-1578.961 -417.467)" fill="#5d5d5d"/>
    <path id="Path_605" data-name="Path 605" d="M1855.64,367.59l11.193-35.48h75.094l-11.195,35.48Z" transform="translate(-1472.435 -263.53)"/>
    <path id="Path_606" data-name="Path 606" d="M2073.1,506.776l5.059,12.632,10.408-14.228Z" transform="translate(-1644.988 -400.859)" fill="#5d5d5d"/>
    <circle id="Ellipse_54" data-name="Ellipse 54" cx="1.582" cy="1.582" r="1.582" transform="translate(396.156 57.369) rotate(-45)" fill="#fff"/>
    <circle id="Ellipse_55" data-name="Ellipse 55" cx="1.582" cy="1.582" r="1.582" transform="translate(401.769 57.367) rotate(-45)" fill="#fff"/>
    <circle id="Ellipse_56" data-name="Ellipse 56" cx="1.582" cy="1.582" r="1.582" transform="translate(407.55 56.516) rotate(-22.5)" fill="#fff"/>
    <circle id="Ellipse_57" data-name="Ellipse 57" cx="7.682" cy="7.682" r="7.682" transform="translate(418.667 75.415)" fill="#fff"/>
    <path id="Path_607" data-name="Path 607" d="M2198.158,563.558c-1.8,1.425-3.172,2.513-4.968,3.94V559.62Z" transform="translate(-1768.452 -480.462)" fill="#b8cacf"/>
    <path id="Path_608" data-name="Path 608" d="M2032.386,639.9l-1.966,1.559V638.34Z" transform="translate(-1639.295 -542.926)" fill="#b8cacf"/>
    <rect id="Rectangle_190" data-name="Rectangle 190" width="59.483" height="1.006" transform="translate(396.064 96.469)" fill="#787878"/>
    <path id="Path_609" data-name="Path 609" d="M2060.047,643.777c-2.749,0-5.547-.012-8.49-.037a.756.756,0,0,1,0-1.51h16.676a.756.756,0,0,1,0,1.51C2065.5,643.764,2062.8,643.777,2060.047,643.777Z" transform="translate(-1655.5 -546.013)" fill="#b8cacf"/>
    <path id="Path_610" data-name="Path 610" d="M1919.863,371.261l-3.356,10.639-14.774,46.82a.413.413,0,0,1-.394.285h-86.418a.42.42,0,0,1-.4-.545l14.693-46.568L1832.655,371a.413.413,0,0,1,.4-.293h86.413a.412.412,0,0,1,.338.171A.4.4,0,0,1,1919.863,371.261Z" transform="translate(-1467.967 -330.564)"/>
    <path id="Path_611" data-name="Path 611" d="M1829.216,424.9l-14.693,46.568a.42.42,0,0,0,.4.545h53.858l3.474,8.673,6.344-8.673h22.743a.413.413,0,0,0,.4-.293l14.774-46.82Z" transform="translate(-1467.967 -373.563)" fill="#5d5d5d"/>
    <path id="Path_612" data-name="Path 612" d="M1870.224,479.181a.366.366,0,0,1-.066,0,.527.527,0,0,1-.426-.328l-3.339-8.343h-53.5a.93.93,0,0,1-.762-.386.942.942,0,0,1-.14-.845l14.693-46.57a.533.533,0,0,1,.5-.37h87.291a.529.529,0,0,1,.5.688l-14.771,46.82a.946.946,0,0,1-.9.663h-22.47l-6.2,8.454A.529.529,0,0,1,1870.224,479.181Zm-57.178-9.729h53.7a.529.529,0,0,1,.491.331l3.118,7.787,5.782-7.9a.525.525,0,0,1,.426-.207h22.658l14.532-46.051h-86.182Z" transform="translate(-1465.939 -371.532)"/>
    <path id="Path_613" data-name="Path 613" d="M1715.76,312.26l11.195-35.48h75.095l-11.2,35.48Z" transform="translate(-1361.441 -219.626)"/>
    <circle id="Ellipse_58" data-name="Ellipse 58" cx="1.582" cy="1.582" r="1.582" transform="translate(367.587 47.11) rotate(-76.72)" fill="#fff"/>
    <circle id="Ellipse_59" data-name="Ellipse 59" cx="1.582" cy="1.582" r="1.582" transform="translate(373.201 47.112) rotate(-76.72)" fill="#fff"/>
    <circle id="Ellipse_60" data-name="Ellipse 60" cx="1.582" cy="1.582" r="1.582" transform="translate(378.812 47.111) rotate(-76.72)" fill="#fff"/>
    <circle id="Ellipse_61" data-name="Ellipse 61" cx="7.682" cy="7.682" r="7.682" transform="translate(389.78 63.987)" fill="#fff"/>
    <path id="Path_614" data-name="Path 614" d="M2058.281,508.228l-4.971,3.938V504.29Z" transform="translate(-1657.458 -436.559)"/>
    <path id="Path_615" data-name="Path 615" d="M1892.508,584.559l-1.968,1.559V583Z" transform="translate(-1528.302 -499.014)" fill="#fff"/>
    <rect id="Rectangle_191" data-name="Rectangle 191" width="59.483" height="1.006" transform="translate(367.18 85.043)" fill="#787878"/>
    <path id="Path_616" data-name="Path 616" d="M1920.175,588.447c-2.749,0-5.544-.012-8.487-.037a.756.756,0,0,1,0-1.509h16.676a.756.756,0,0,1,0,1.509C1925.625,588.434,1922.924,588.447,1920.175,588.447Z" transform="translate(-1544.514 -502.109)" fill="#fff"/>
    <path id="Path_617" data-name="Path 617" d="M1069.992,333.5a5.352,5.352,0,1,1-3.787-1.57A5.355,5.355,0,0,1,1069.992,333.5Z" transform="translate(-869.95 -299.79)" fill="#ffeacd"/>
    <path id="Path_618" data-name="Path 618" d="M1054.5,284.755l-3.785,3.787h0a10.7,10.7,0,0,0-15.145,0l-3.787-3.787a16.054,16.054,0,0,1,22.718,0Z" transform="translate(-846.883 -258.623)" fill="#ffeacd"/>
    <path id="Path_619" data-name="Path 619" d="M1032.959,236.014l-3.787,3.785a21.411,21.411,0,0,0-30.295,0l-3.787-3.787a26.761,26.761,0,0,1,37.868,0Z" transform="translate(-817.77 -217.454)" fill="#ffeacd"/>
    <path id="Path_620" data-name="Path 620" d="M1011.437,187.275l-3.787,3.787a32.112,32.112,0,0,0-45.432,0h0l-3.8-3.787a37.467,37.467,0,0,1,53.017,0Z" transform="translate(-788.672 -176.29)" fill="#13a0f0"/>
    <path id="Path_621" data-name="Path 621" d="M1069.992,333.5a5.352,5.352,0,1,1-3.787-1.57A5.355,5.355,0,0,1,1069.992,333.5Z" transform="translate(-869.95 -299.79)" fill="#ffeacd"/>
    <path id="Path_622" data-name="Path 622" d="M1054.5,284.755l-3.785,3.787h0a10.7,10.7,0,0,0-15.145,0l-3.787-3.787a16.054,16.054,0,0,1,22.718,0Z" transform="translate(-846.883 -258.623)" fill="#ffeacd"/>
    <path id="Path_623" data-name="Path 623" d="M1032.959,236.014l-3.787,3.785a21.411,21.411,0,0,0-30.295,0l-3.787-3.787a26.761,26.761,0,0,1,37.868,0Z" transform="translate(-817.77 -217.454)" fill="#ffeacd"/>
    <path id="Path_624" data-name="Path 624" d="M1069.992,333.5a5.352,5.352,0,1,1-3.787-1.57A5.355,5.355,0,0,1,1069.992,333.5Z" transform="translate(-869.95 -299.79)" fill="#ffeacd"/>
    <path id="Path_625" data-name="Path 625" d="M1054.5,284.755l-3.785,3.787h0a10.7,10.7,0,0,0-15.145,0l-3.787-3.787a16.054,16.054,0,0,1,22.718,0Z" transform="translate(-846.883 -258.623)" fill="#ffeacd"/>
    <path id="Path_626" data-name="Path 626" d="M1032.959,236.014l-3.787,3.785a21.411,21.411,0,0,0-30.295,0l-3.787-3.787a26.761,26.761,0,0,1,37.868,0Z" transform="translate(-817.77 -217.454)" fill="#13a0f0"/>
    <path id="Path_627" data-name="Path 627" d="M1069.992,333.5a5.352,5.352,0,1,1-3.787-1.57A5.355,5.355,0,0,1,1069.992,333.5Z" transform="translate(-869.95 -299.79)" fill="#ffeacd"/>
    <path id="Path_628" data-name="Path 628" d="M1054.5,284.755l-3.785,3.787h0a10.7,10.7,0,0,0-15.145,0l-3.787-3.787a16.054,16.054,0,0,1,22.718,0Z" transform="translate(-846.883 -258.623)" fill="#ffeacd"/>
    <path id="Path_629" data-name="Path 629" d="M1069.992,333.5a5.352,5.352,0,1,1-3.787-1.57A5.355,5.355,0,0,1,1069.992,333.5Z" transform="translate(-869.95 -299.79)" fill="#ffeacd"/>
    <path id="Path_630" data-name="Path 630" d="M1054.5,284.755l-3.785,3.787h0a10.7,10.7,0,0,0-15.145,0l-3.787-3.787a16.054,16.054,0,0,1,22.718,0Z" transform="translate(-846.883 -258.623)" fill="#13a0f0"/>
    <path id="Path_631" data-name="Path 631" d="M1069.976,341.068a5.349,5.349,0,1,1,1.571-3.786A5.357,5.357,0,0,1,1069.976,341.068Z" transform="translate(-869.934 -299.789)" fill="#ffeacd"/>
    <path id="Path_632" data-name="Path 632" d="M1069.976,341.068a5.349,5.349,0,1,1,1.571-3.786A5.357,5.357,0,0,1,1069.976,341.068Z" transform="translate(-869.934 -299.789)" fill="#13a0f0"/>
  </g>
</svg>
