<svg xmlns="http://www.w3.org/2000/svg" xmlns:xlink="http://www.w3.org/1999/xlink" width="500.676" height="300.05" viewBox="0 0 500.676 300.05">
  <defs>
    <clipPath id="clip-path">
      <rect id="Rectangle_187" data-name="Rectangle 187" width="22.749" height="16.958" fill="#5d5d91"/>
    </clipPath>
  </defs>
  <g id="video2" transform="translate(0 -33.516)">
    <rect id="Rectangle_139" data-name="Rectangle 139" width="97.304" height="1.207" transform="translate(0 319.781)" fill="#8a8a8a"/>
    <rect id="Rectangle_140" data-name="Rectangle 140" width="236.397" height="1.207" transform="translate(264.279 325.836)"/>
    <path id="Path_472" data-name="Path 472" d="M842.994,560.034V764.078a11.329,11.329,0,0,1-11.327,11.329H502.332A11.325,11.325,0,0,1,491,764.078V560.034a11.323,11.323,0,0,1,11.327-11.324H831.667a11.326,11.326,0,0,1,11.327,11.326Z" transform="translate(-429.869 -484.505)" fill="#13a0f0"/>
    <path id="Path_473" data-name="Path 473" d="M842.994,1598.61v34.356a11.329,11.329,0,0,1-11.327,11.329H502.332A11.326,11.326,0,0,1,491,1632.966V1598.61Z" transform="translate(-429.869 -1353.393)"/>
    <rect id="Rectangle_142" data-name="Rectangle 142" width="351.987" height="6.376" transform="translate(61.138 264.001)" fill="#fff"/>
    <path id="Path_474" data-name="Path 474" d="M889.338,1713.936H569.778a3.188,3.188,0,0,1-3.188-3.188h0a3.188,3.188,0,0,1,3.188-3.188h319.56a3.188,3.188,0,0,1,3.188,3.188h0A3.188,3.188,0,0,1,889.338,1713.936Z" transform="translate(-492.427 -1443.559)" fill="#fff"/>
    <path id="Path_475" data-name="Path 475" d="M1801.923,1707.56H1669.29v6.379h132.633a3.19,3.19,0,1,0,0-6.379Z" transform="translate(-1405.011 -1443.559)" fill="#515151"/>
    <circle id="Ellipse_44" data-name="Ellipse 44" cx="7.112" cy="7.112" r="7.112" transform="translate(257.167 260.079)" fill="#fff"/>
    <path id="Path_476" data-name="Path 476" d="M1306.809,895.508A42.709,42.709,0,1,1,1337.01,883,42.709,42.709,0,0,1,1306.809,895.508Zm0-78.7A35.988,35.988,0,1,0,1342.8,852.8,36.027,36.027,0,0,0,1306.809,816.811Z" transform="translate(-1069.678 -716.816)" fill="#fff"/>
    <path id="Path_477" data-name="Path 477" d="M1459.187,948.784a4.452,4.452,0,0,1,0,7.712l-15.122,8.731-15.125,8.731a4.453,4.453,0,0,1-6.679-3.857V935.177a4.452,4.452,0,0,1,6.679-3.855l15.122,8.731Z" transform="translate(-1200.571 -816.657)" fill="#fff"/>
    <path id="Path_478" data-name="Path 478" d="M2527.784,1699.727h-2.8l-20.941-39.37,6.265-.977Z" transform="translate(-2072.321 -1373.291)" fill="#444"/>
    <path id="Path_479" data-name="Path 479" d="M2432.3,1699.727h-2.8l-20.943-39.37,6.265-.977Z" transform="translate(-1993.302 -1373.291)" fill="#444"/>
    <path id="Path_480" data-name="Path 480" d="M2269.18,1699.727h2.8l20.941-39.37-6.265-.977Z" transform="translate(-1877.953 -1373.291)" fill="#444"/>
    <path id="Path_481" data-name="Path 481" d="M2364.65,1699.727h2.8l20.942-39.37-6.265-.977Z" transform="translate(-1956.963 -1373.291)" fill="#444"/>
    <path id="Path_482" data-name="Path 482" d="M2443.6,1547.228h0a29.566,29.566,0,0,1-17.4-38.023l2.1-5.645a29.568,29.568,0,0,1,38.023-17.4h0a29.568,29.568,0,0,1,17.4,38.023l-2.1,5.643a29.568,29.568,0,0,1-38.023,17.4Z" transform="translate(-2029.878 -1258.788)"/>
    <path id="Path_483" data-name="Path 483" d="M2448.541,1541.96h0a27.617,27.617,0,0,1-16.253-35.516l1.961-5.271a27.618,27.618,0,0,1,35.516-16.253h0a27.617,27.617,0,0,1,16.253,35.516l-1.96,5.27A27.618,27.618,0,0,1,2448.541,1541.96Z" transform="translate(-2035.02 -1257.863)" fill="#656565"/>
    <path id="Path_484" data-name="Path 484" d="M2451.607,1557.637h0a25.7,25.7,0,0,1-15.128-33.054l1.826-4.907a25.7,25.7,0,0,1,33.056-15.127h0a25.706,25.706,0,0,1,15.128,33.056l-1.826,4.905A25.7,25.7,0,0,1,2451.607,1557.637Z" transform="translate(-2038.588 -1274.207)" fill="#515151"/>
    <path id="Path_485" data-name="Path 485" d="M2295.714,1608.3a15.2,15.2,0,0,0-5.277-.762c-2.455.209-9.026,6.462-7.364,6.462s6.967-3.965,7.4-3.245-2.257,2.216-1.583,2.731,6.821-1.148,6.821-1.148Z" transform="translate(-1912.752 -1360.758)" fill="#ff9b77"/>
    <path id="Path_486" data-name="Path 486" d="M2214.534,1432.306l-2.164-.916v5.434l1.583-.555Z" transform="translate(-1830.937 -1184.609)" fill="#fff"/>
    <path id="Path_487" data-name="Path 487" d="M2501.818,1224.27s-8.162,7.262-3.346,24.342c9.87,0,13.836-.952,13.836-.952l-4.555-23.391Z" transform="translate(-2089.976 -1043.592)" fill="#3c3c5e"/>
    <path id="Path_488" data-name="Path 488" d="M2354.773,1435.125l16.665-.715,8.219-26.739a10.006,10.006,0,0,1,1.072-2.326,9.6,9.6,0,0,1,16.207,10.289l-16.65,26.218-.55.862a4.873,4.873,0,0,1-4.322,2.241l-20.633-.885A16.725,16.725,0,0,1,2354.773,1435.125Z" transform="translate(-1971.811 -1189.761)"/>
    <path id="Path_489" data-name="Path 489" d="M2343.23,1957.361l-3.08,8.948s-2.9,2.134-5.345.845-1.793-5.2-1.793-5.2l2.4-9.278Z" transform="translate(-1954.237 -1646.417)" fill="#f9a17b"/>
    <path id="Path_490" data-name="Path 490" d="M2269.585,2008.492l-2.2,6.407-20.02-6.9s1.552-4.76,6.364-3.1a12.177,12.177,0,0,0,8.469-.021s-.538,3.3,2.531,4.353S2268.472,2008.11,2269.585,2008.492Z" transform="translate(-1883.416 -1689.344)" fill="#30212b"/>
    <rect id="Rectangle_143" data-name="Rectangle 143" width="0.681" height="21.067" transform="translate(364.259 318.061) rotate(-71.01)" fill="#fff"/>
    <path id="Path_491" data-name="Path 491" d="M2270.848,2006.787l-.667-.128c.028-.146.65-3.621-1.82-4.112l.134-.667C2271,2002.382,2271.129,2005.309,2270.848,2006.787Z" transform="translate(-1900.796 -1687.135)" fill="#fff"/>
    <rect id="Rectangle_144" data-name="Rectangle 144" width="1.81" height="0.681" transform="translate(373.756 317.66) rotate(-84.29)" fill="#fff"/>
    <rect id="Rectangle_145" data-name="Rectangle 145" width="1.81" height="0.681" transform="translate(373.07 317.697) rotate(-84.29)" fill="#fff"/>
    <rect id="Rectangle_146" data-name="Rectangle 146" width="1.81" height="0.681" transform="translate(372.385 317.735) rotate(-84.29)" fill="#fff"/>
    <rect id="Rectangle_147" data-name="Rectangle 147" width="1.81" height="0.681" transform="translate(371.701 317.775) rotate(-84.29)" fill="#fff"/>
    <path id="Path_492" data-name="Path 492" d="M2479.713,1973.06l4.594,8.275s-.344,3.586-2.942,4.54-5.066-2.14-5.066-2.14l-5.3-7.99Z" transform="translate(-2068.499 -1663.284)" fill="#f9a17b"/>
    <path id="Path_493" data-name="Path 493" d="M2469.6,2017.06l3.292,5.922-18.508,10.282s-2.5-4.342,1.945-6.808a12.193,12.193,0,0,0,5.645-6.312s2.093,2.605,4.933,1.035S2468.563,2017.632,2469.6,2017.06Z" transform="translate(-2054.165 -1699.698)" fill="#30212b"/>
    <rect id="Rectangle_148" data-name="Rectangle 148" width="21.067" height="0.681" transform="translate(399.649 332.357) rotate(-29.05)" fill="#fff"/>
    <path id="Path_494" data-name="Path 494" d="M2460.051,2078.831c-.092-.121-2.255-2.9-4.274-1.4l-.407-.547c2.047-1.525,4.31.333,5.222,1.53Z" transform="translate(-2055.563 -1748.735)" fill="#fff"/>
    <rect id="Rectangle_149" data-name="Rectangle 149" width="0.681" height="1.81" transform="translate(404.786 324.258) rotate(-42.35)" fill="#fff"/>
    <rect id="Rectangle_150" data-name="Rectangle 150" width="0.681" height="1.81" transform="translate(404.358 324.799) rotate(-42.35)" fill="#fff"/>
    <rect id="Rectangle_151" data-name="Rectangle 151" width="0.681" height="1.81" transform="translate(403.929 325.326) rotate(-42.35)" fill="#fff"/>
    <rect id="Rectangle_152" data-name="Rectangle 152" width="0.681" height="1.81" transform="translate(403.499 325.867) rotate(-42.35)" fill="#fff"/>
    <path id="Path_495" data-name="Path 495" d="M2312.876,1675.267l1.971-.45,36.1-8.276a14.877,14.877,0,0,1,4.234-.328,14.408,14.408,0,1,1-2.031,28.744l-22.4-1.583,16.539,30.722c-2.15,3.555-4.8,4.2-9.655,3.793l-29.507-39.549a8.439,8.439,0,0,1-1.472-3.152A8.275,8.275,0,0,1,2312.876,1675.267Z" transform="translate(-1932.316 -1409.314)" fill="#43bbff"/>
    <path id="Path_496" data-name="Path 496" d="M2334.27,1718.762,2344.9,1678a6.018,6.018,0,0,1,2.94-3.276l2.989-1.5,21-10.517a14.868,14.868,0,0,1,6.633-1.552,14.655,14.655,0,0,1-.143,29.309l-20.387-.1-15.044,31.151C2339.332,1721.684,2337.374,1720.958,2334.27,1718.762Z" transform="translate(-1955.343 -1405.159)" fill="#13a0f0"/>
    <path id="Path_497" data-name="Path 497" d="M2498.89,1446.682c18.36-6.334,26.973,17.586,31.811,12.032-4.509-16.536-2.724-29.491,0-48.619,1.3-9.089-7.443-16.625-16.625-16.625l-12.339,4.6c-.486,1.765-2.364,7.258-1.842,12.289Z" transform="translate(-2091.58 -1183.621)"/>
    <path id="Path_498" data-name="Path 498" d="M2546.321,1339.211V1323.72l-9.474,3.793-3.167,11.691S2535.373,1350.162,2546.321,1339.211Z" transform="translate(-2120.372 -1125.896)" fill="#ff9b77"/>
    <ellipse id="Ellipse_45" data-name="Ellipse 45" cx="9.869" cy="11.3" rx="9.869" ry="11.3" transform="translate(408.498 182.423)" fill="#ff9b77"/>
    <path id="Path_499" data-name="Path 499" d="M2520.494,1217.426l-9.4,2.931s-1.259-9.86,8.317-10.476S2520.494,1217.426,2520.494,1217.426Z" transform="translate(-2101.638 -1031.656)" fill="#3c3c5e"/>
    <path id="Path_500" data-name="Path 500" d="M2560.684,1217.1s2.557,3.1,5.1,3.483,1.491,15.862,1.491,15.862,6.412-.719,9.729-4.257.767-24.1-12.855-22.661C2556.663,1211.682,2560.684,1217.1,2560.684,1217.1Z" transform="translate(-2141.828 -1031.331)" fill="#3c3c5e"/>
    <path id="Path_501" data-name="Path 501" d="M2349.788,1430.62h0a5.689,5.689,0,0,0,6.006-5.374l.173-3.043-11.379-.633-.173,3.043a5.69,5.69,0,0,0,5.373,6.007Z" transform="translate(-1963.731 -1206.876)" fill="#fff"/>
    <path id="Path_502" data-name="Path 502" d="M2329.753,1427.309h-.069a3.357,3.357,0,0,1-3.184-3.56h0a2.34,2.34,0,0,1,4.079-1.429,2.313,2.313,0,0,1,.591,1.689c0,.107-.01.221-.015.345-.042.96-.095,2.153-.689,2.69A1.049,1.049,0,0,1,2329.753,1427.309Zm-2.572-3.524a2.7,2.7,0,0,0,2.543,2.843.376.376,0,0,0,.29-.1c.381-.345.431-1.469.463-2.214,0-.122.011-.24.016-.345a1.659,1.659,0,1,0-3.312-.184Z" transform="translate(-1948.907 -1206.851)" fill="#fff"/>
    <path id="Path_503" data-name="Path 503" d="M2362.528,1435.471l-2.028-5.69s-.946,1.976-2.069,1.93-2.383-7.362-3.741-7.391,1.469,6.457,1.143,6.467c-.69.022-1.445-6.26-2.783-5.9s1.691,6.3,1.171,6.222-1.4-5.641-2.375-5.407,1.274,5.764,1,5.776-1.086-4.427-1.765-4.164-.212,6,4.472,7.022,4.729,5.862,4.729,5.862Z" transform="translate(-1969.05 -1209.151)" fill="#ff9b77"/>
    <path id="Path_504" data-name="Path 504" d="M2262.919,1306.33l-.726-1.89-4,3.646,1.529,2.321Z" transform="translate(-1868.857 -1079.546)"/>
    <rect id="Rectangle_153" data-name="Rectangle 153" width="0.681" height="20.755" transform="translate(403.738 235.455) rotate(-6.64)" fill="#fff"/>
    <path id="Path_505" data-name="Path 505" d="M2393.768,1418.694c.071.055.143.107.212.172l14.288,12.484c19.263-25.822,18.146-24.5,19.367-25.517.59-.488,1.666-.055,2.941.933a13.68,13.68,0,0,1,.233,21.317l-17.843,14.781-.708.588a5.079,5.079,0,0,1-6.881-.4L2387.83,1424.7C2391.256,1424.159,2392.722,1422.463,2393.768,1418.694Z" transform="translate(-1999.668 -1193.686)"/>
    <path id="Path_506" data-name="Path 506" d="M2300.335,1274.122,2285.77,1261.4l.448-.512,14.01,12.241,15.926-21.346.546.407Z" transform="translate(-1891.683 -1035.965)" fill="#717171"/>
    <path id="Path_507" data-name="Path 507" d="M2405.256,1507.3a5.413,5.413,0,0,1-3.907-1.65l-18.089-18.925h.785c4.2-.046,5.6-5.689,5.61-5.745l.662.159c-.057.24-1.379,5.588-5.529,6.207l17.048,17.834a4.757,4.757,0,0,0,6.417.371l.709-.588,24.568-20.344.435.517-25.277,20.939A5.392,5.392,0,0,1,2405.256,1507.3Z" transform="translate(-1995.886 -1256.043)" fill="#717171"/>
    <path id="Path_508" data-name="Path 508" d="M2279.434,1640.195h9.343a1.034,1.034,0,0,0,1.034-1.034h-11.4A1.035,1.035,0,0,0,2279.434,1640.195Z" transform="translate(-1909.113 -1386.952)" fill="#30212b"/>
    <path id="Path_509" data-name="Path 509" d="M2549.37,1362.29a7.009,7.009,0,0,1-2.8-.534l.29-.616a7.274,7.274,0,0,0,5.155-.01l.235.638A8.29,8.29,0,0,1,2549.37,1362.29Z" transform="translate(-2131.04 -1156.856)" fill="#bf7459"/>
    <rect id="Rectangle_154" data-name="Rectangle 154" width="132.655" height="4.955" transform="translate(294.845 253.529)" fill="#8a8a8a"/>
    <rect id="Rectangle_155" data-name="Rectangle 155" width="123.474" height="2.159" transform="translate(299.435 258.486)"/>
    <path id="Path_510" data-name="Path 510" d="M1868.4,1577.595h3.093l-10.565-65.795h-7.841Z" transform="translate(-1533.6 -1251.155)" fill="#8a8a8a"/>
    <path id="Path_511" data-name="Path 511" d="M1695.2,1577.595h-3.091l9.313-65.795h7.839Z" transform="translate(-1400.375 -1251.155)" fill="#8a8a8a"/>
    <path id="Path_512" data-name="Path 512" d="M2410.934,1577.595h3.093l-10.565-65.795h-7.841Z" transform="translate(-1982.594 -1251.155)" fill="#8a8a8a"/>
    <path id="Path_513" data-name="Path 513" d="M2237.731,1577.595h-3.091l9.314-65.795h7.839Z" transform="translate(-1849.367 -1251.155)" fill="#8a8a8a"/>
    <path id="Path_584" data-name="Path 584" d="M2536.3,796.29h45.491a6.671,6.671,0,0,1,6.671,6.674v15.767a6.67,6.67,0,0,1-6.671,6.671H2529.63V802.964A6.67,6.67,0,0,1,2536.3,796.29Z" transform="translate(-2093.499 -659.006)"/>
    <path id="Path_585" data-name="Path 585" d="M2530.875,975.147,2540.9,965.12H2529.63Z" transform="translate(-2093.499 -798.728)"/>
    <path id="Path_586" data-name="Path 586" d="M2559.588,825.17l2.414,4.89,5.4.784-3.9,3.807.92,5.374-4.826-2.538-4.826,2.538.921-5.374-3.9-3.807,5.4-.784Z" transform="translate(-2111.83 -682.907)" fill="#fff"/>
    <path id="Path_587" data-name="Path 587" d="M2662.76,825.17l2.412,4.89,5.4.784-3.905,3.807.922,5.374-4.825-2.538-4.828,2.538.923-5.374-3.905-3.807,5.4-.784Z" transform="translate(-2197.212 -682.907)" fill="#fff"/>
    <path id="Path_588" data-name="Path 588" d="M2765.94,825.17l2.412,4.89,5.4.784-3.905,3.807.923,5.374-4.826-2.538-4.828,2.538.923-5.374-3.905-3.807,5.4-.784Z" transform="translate(-2282.603 -682.907)" fill="#fff"/>
    <ellipse id="Ellipse_53" data-name="Ellipse 53" cx="28.548" cy="8.177" rx="28.548" ry="8.177" transform="translate(38.981 251.565) rotate(-84.96)" fill="#13a0f0"/>
    <path id="Path_589" data-name="Path 589" d="M429.794,1650.889c-6.034,5.46-10.051,10.619-11.615,8.891s.429-9.555,6.458-15.015,13.812-6.481,15.375-4.753S435.828,1645.431,429.794,1650.889Z" transform="translate(-369.18 -1387.021)" fill="#13a0f0"/>
    <path id="Path_590" data-name="Path 590" d="M248.471,1558.828c5.752,5.75,6.707,12.93,5.058,14.582s-5.934-3.389-11.686-9.138-11.1-8.091-9.457-9.738S242.719,1553.076,248.471,1558.828Z" transform="translate(-215.592 -1316.174)" fill="#13a0f0"/>
    <path id="Path_591" data-name="Path 591" d="M299.766,1629.616h-.017a.222.222,0,0,1-.205-.238,119.749,119.749,0,0,0-.7-22.23,60.572,60.572,0,0,0-4.5-17.058c-2.6-5.679-6.107-9.543-10.419-11.482a.222.222,0,0,1,.183-.405c4.414,1.984,7.995,5.924,10.643,11.707a61,61,0,0,1,4.536,17.188,120.239,120.239,0,0,1,.705,22.317A.222.222,0,0,1,299.766,1629.616Z" transform="translate(-258.389 -1336.49)"/>
    <path id="Path_592" data-name="Path 592" d="M390.53,1455.4h-.017a.222.222,0,0,1-.205-.238l6.622-85.053a.219.219,0,0,1,.238-.2.223.223,0,0,1,.205.238l-6.622,85.051A.222.222,0,0,1,390.53,1455.4Z" transform="translate(-346.536 -1164.118)"/>
    <path id="Path_593" data-name="Path 593" d="M403.932,1703.16a.222.222,0,0,1-.222-.217,55.275,55.275,0,0,1,1.8-13.369c1.746-6.651,5.586-15.617,13.965-20.546a.222.222,0,1,1,.226.383c-8.25,4.851-12.036,13.7-13.762,20.265a54.708,54.708,0,0,0-1.784,13.258.221.221,0,0,1-.217.226Z" transform="translate(-357.629 -1411.64)"/>
    <path id="Path_594" data-name="Path 594" d="M270.033,1723c4.443,4.022,7.4,7.824,8.558,6.552s-.317-7.041-4.759-11.063-10.172-4.776-11.331-3.5S265.59,1718.976,270.033,1723Z" transform="translate(-240.607 -1449.236)" fill="#13a0f0"/>
    <path id="Path_595" data-name="Path 595" d="M311.8,1761.28h0a.224.224,0,0,1-.217-.228,40.273,40.273,0,0,0-1.314-9.757c-1.269-4.827-4.053-11.331-10.114-14.894a.222.222,0,1,1,.226-.383c6.195,3.643,9.031,10.264,10.32,15.172a40.834,40.834,0,0,1,1.326,9.867.224.224,0,0,1-.228.222Z" transform="translate(-271.831 -1467.081)"/>
    <rect id="Rectangle_186" data-name="Rectangle 186" width="22.749" height="16.958" transform="translate(32.018 292.106)"/>
    <g id="Group_79" data-name="Group 79" transform="translate(32.018 292.104)" clip-path="url(#clip-path)">
      <path id="Path_596" data-name="Path 596" d="M304.084,1900.774a.243.243,0,0,1-.071-.01l-2.6-.862-2.6.862a.224.224,0,0,1-.141,0l-2.6-.862-2.605.862a.219.219,0,0,1-.14,0l-2.6-.862-2.6.862a.219.219,0,0,1-.14,0l-2.6-.862-2.6.862a.224.224,0,0,1-.141,0l-2.672-.89a.222.222,0,1,1,.14-.421l2.6.862,2.6-.862a.216.216,0,0,1,.14,0l2.6.862,2.6-.862a.221.221,0,0,1,.141,0l2.6.862,2.6-.862a.216.216,0,0,1,.14,0l2.6.862,2.6-.862a.216.216,0,0,1,.14,0l2.605.862,2.6-.862a.215.215,0,0,1,.14,0l2.605.862,2.607-.862a.222.222,0,1,1,.14.421l-2.676.89a.219.219,0,0,1-.14,0l-2.605-.862-2.6.862A.257.257,0,0,1,304.084,1900.774Z" transform="translate(-287.085 -1894.457)" fill="#3c3c5e"/>
      <path id="Path_597" data-name="Path 597" d="M309.433,1914.574a.19.19,0,0,1-.069-.012l-2.605-.862-2.6.862a.223.223,0,0,1-.141,0l-2.6-.862-2.6.862a.222.222,0,0,1-.141,0l-2.6-.862-2.605.862a.219.219,0,0,1-.14,0l-2.6-.862-2.6.862a.219.219,0,0,1-.14,0l-2.6-.862-2.6.862a.222.222,0,0,1-.141,0l-2.672-.888a.223.223,0,1,1,.14-.421l2.6.862,2.6-.862a.219.219,0,0,1,.14,0l2.6.862,2.6-.862a.221.221,0,0,1,.141,0l2.6.862,2.6-.862a.219.219,0,0,1,.14,0l2.6.862,2.6-.862a.219.219,0,0,1,.14,0l2.605.862,2.6-.862a.219.219,0,0,1,.14,0l2.605.862,2.607-.862a.222.222,0,1,1,.14.421l-2.676.9A.2.2,0,0,1,309.433,1914.574Z" transform="translate(-287.085 -1905.878)" fill="#3c3c5e"/>
      <path id="Path_598" data-name="Path 598" d="M304.169,1928.458a.194.194,0,0,1-.071-.012l-2.6-.862-2.6.862a.221.221,0,0,1-.141,0l-2.6-.862-2.605.862a.215.215,0,0,1-.14,0l-2.6-.862-2.6.862a.215.215,0,0,1-.14,0l-2.6-.862-2.6.862a.221.221,0,0,1-.141,0l-2.672-.888a.222.222,0,1,1,.14-.422l2.6.862,2.6-.862a.243.243,0,0,1,.14,0l2.6.862,2.6-.862a.245.245,0,0,1,.141,0l2.6.862,2.6-.862a.243.243,0,0,1,.14,0l2.6.862,2.6-.862a.243.243,0,0,1,.14,0l2.605.862,2.6-.862a.243.243,0,0,1,.14,0l2.605.862,2.607-.862a.222.222,0,1,1,.14.422l-2.676.888a.216.216,0,0,1-.14,0l-2.605-.862-2.6.862A.2.2,0,0,1,304.169,1928.458Z" transform="translate(-287.17 -1917.373)" fill="#3c3c5e"/>
      <path id="Path_599" data-name="Path 599" d="M304.169,1942.286a.245.245,0,0,1-.071-.012l-2.6-.862-2.6.862a.221.221,0,0,1-.141,0l-2.6-.862-2.605.862a.215.215,0,0,1-.14,0l-2.6-.862-2.6.862a.215.215,0,0,1-.14,0l-2.6-.862-2.6.862a.221.221,0,0,1-.141,0l-2.672-.888a.222.222,0,1,1,.14-.422l2.6.862,2.6-.862a.215.215,0,0,1,.14,0l2.6.862,2.6-.862a.221.221,0,0,1,.141,0l2.6.862,2.6-.862a.215.215,0,0,1,.14,0l2.6.862,2.6-.862a.216.216,0,0,1,.14,0l2.605.862,2.6-.862a.215.215,0,0,1,.14,0l2.605.862,2.607-.862a.222.222,0,1,1,.14.422l-2.676.888a.216.216,0,0,1-.14,0l-2.605-.862-2.6.862A.253.253,0,0,1,304.169,1942.286Z" transform="translate(-287.17 -1928.816)" fill="#3c3c5e"/>
    </g>
    <path id="Path_600" data-name="Path 600" d="M198.8,1680.153H173.524l-1.014-2.953h27.3Z" transform="translate(-142.768 -1388.039)"/>
    <rect id="Rectangle_188" data-name="Rectangle 188" width="26.992" height="1.119" transform="translate(29.896 292.13)" fill="#888"/>
    <rect id="Rectangle_189" data-name="Rectangle 189" width="1.202" height="27.734" transform="translate(42.79 292.69)" fill="#8a8a8a"/>
    <path id="Path_601" data-name="Path 601" d="M306.425,1722.714l-11.743-28.294-1.112.462,11.553,27.832Z" transform="translate(-242.956 -1402.29)" fill="#8a8a8a"/>
    <path id="Path_602" data-name="Path 602" d="M136.532,1722.714l11.553-27.832-1.11-.462-11.745,28.294Z" transform="translate(-111.915 -1402.29)" fill="#8a8a8a"/>
    <path id="Path_603" data-name="Path 603" d="M2042.346,426.575l-2.8,8.883-12.334,39.1a.346.346,0,0,1-.333.245h-72.144a.333.333,0,0,1-.281-.143.345.345,0,0,1-.052-.312l12.267-38.878,2.869-9.091a.345.345,0,0,1,.332-.245h72.145a.345.345,0,0,1,.333.453Z" transform="translate(-1640.952 -383.059)"/>
    <path id="Path_604" data-name="Path 604" d="M2039.545,480.23l-12.334,39.1a.346.346,0,0,1-.333.245h-72.144a.333.333,0,0,1-.281-.143.345.345,0,0,1-.052-.312l12.267-38.878Z" transform="translate(-1640.952 -427.831)" fill="#5d5d5d"/>
    <path id="Path_605" data-name="Path 605" d="M1855.64,361.732l9.345-29.622h62.695l-9.346,29.622Z" transform="translate(-1535.711 -274.855)"/>
    <path id="Path_606" data-name="Path 606" d="M2073.1,506.513l4.224,10.546,8.689-11.879Z" transform="translate(-1715.679 -418.086)" fill="#5d5d5d"/>
    <circle id="Ellipse_54" data-name="Ellipse 54" cx="1.321" cy="1.321" r="1.321" transform="translate(330.742 47.896) rotate(-45)" fill="#fff"/>
    <circle id="Ellipse_55" data-name="Ellipse 55" cx="1.321" cy="1.321" r="1.321" transform="translate(335.428 47.894) rotate(-45)" fill="#fff"/>
    <circle id="Ellipse_56" data-name="Ellipse 56" cx="1.321" cy="1.321" r="1.321" transform="translate(340.254 47.183) rotate(-22.5)" fill="#fff"/>
    <circle id="Ellipse_57" data-name="Ellipse 57" cx="6.414" cy="6.414" r="6.414" transform="translate(349.535 62.962)" fill="#fff"/>
    <path id="Path_607" data-name="Path 607" d="M2197.338,562.908c-1.5,1.19-2.648,2.1-4.148,3.29V559.62Z" transform="translate(-1838.586 -493.534)" fill="#b8cacf"/>
    <path id="Path_608" data-name="Path 608" d="M2032.061,639.64l-1.641,1.3v-2.6Z" transform="translate(-1703.879 -558.682)" fill="#b8cacf"/>
    <rect id="Rectangle_190" data-name="Rectangle 190" width="49.661" height="0.84" transform="translate(330.665 80.539)" fill="#787878"/>
    <path id="Path_609" data-name="Path 609" d="M2058.527,643.521c-2.295,0-4.631-.01-7.088-.031a.631.631,0,0,1,0-1.26h13.922a.631.631,0,0,1,0,1.26C2063.077,643.511,2060.822,643.521,2058.527,643.521Z" transform="translate(-1720.779 -561.901)" fill="#b8cacf"/>
    <path id="Path_610" data-name="Path 610" d="M1902.466,371.17l-2.8,8.883-12.334,39.089a.345.345,0,0,1-.329.238h-72.148a.35.35,0,0,1-.333-.455l12.267-38.878,2.871-9.091a.344.344,0,0,1,.331-.245h72.145a.344.344,0,0,1,.282.143A.334.334,0,0,1,1902.466,371.17Z" transform="translate(-1525.188 -337.194)"/>
    <path id="Path_611" data-name="Path 611" d="M1826.787,424.9l-12.267,38.878a.35.35,0,0,0,.333.455h44.964l2.9,7.241,5.3-7.241H1887a.345.345,0,0,0,.333-.245l12.334-39.089Z" transform="translate(-1525.188 -382.041)" fill="#5d5d5d"/>
    <path id="Path_612" data-name="Path 612" d="M1860.6,469.8a.306.306,0,0,1-.055,0,.44.44,0,0,1-.355-.274l-2.788-6.965h-44.666a.776.776,0,0,1-.636-.322.787.787,0,0,1-.117-.705l12.267-38.88a.445.445,0,0,1,.421-.309h72.877a.441.441,0,0,1,.421.574L1885.637,462a.789.789,0,0,1-.755.553h-18.76l-5.172,7.058A.441.441,0,0,1,1860.6,469.8Zm-47.736-8.122H1857.7a.442.442,0,0,1,.41.276l2.6,6.5,4.827-6.6a.438.438,0,0,1,.355-.173h18.917l12.132-38.447H1825Z" transform="translate(-1523.072 -379.922)"/>
    <path id="Path_613" data-name="Path 613" d="M1715.76,306.4l9.346-29.622H1787.8l-9.348,29.622Z" transform="translate(-1419.947 -229.064)"/>
    <circle id="Ellipse_58" data-name="Ellipse 58" cx="1.321" cy="1.321" r="1.321" transform="translate(306.891 39.331) rotate(-76.72)" fill="#fff"/>
    <circle id="Ellipse_59" data-name="Ellipse 59" cx="1.321" cy="1.321" r="1.321" transform="translate(311.577 39.332) rotate(-76.72)" fill="#fff"/>
    <circle id="Ellipse_60" data-name="Ellipse 60" cx="1.321" cy="1.321" r="1.321" transform="translate(316.262 39.331) rotate(-76.72)" fill="#fff"/>
    <circle id="Ellipse_61" data-name="Ellipse 61" cx="6.414" cy="6.414" r="6.414" transform="translate(325.419 53.421)" fill="#fff"/>
    <path id="Path_614" data-name="Path 614" d="M2057.46,507.578l-4.15,3.288V504.29Z" transform="translate(-1722.822 -447.743)"/>
    <path id="Path_615" data-name="Path 615" d="M1892.183,584.3l-1.643,1.3V583Z" transform="translate(-1588.115 -512.883)" fill="#fff"/>
    <rect id="Rectangle_191" data-name="Rectangle 191" width="49.661" height="0.84" transform="translate(306.55 71)" fill="#787878"/>
    <path id="Path_616" data-name="Path 616" d="M1918.656,588.191c-2.295,0-4.629-.01-7.086-.031a.631.631,0,0,1,0-1.26h13.922a.631.631,0,0,1,0,1.26C1923.205,588.181,1920.95,588.191,1918.656,588.191Z" transform="translate(-1605.025 -516.111)" fill="#fff"/>
    <text id="_15_26_878" data-name="15,26,878" transform="translate(237.555 207.996)" fill="#fff" font-size="18" font-family="Roboto-Medium, Roboto" font-weight="500"><tspan x="-39.867" y="0">15,26,878</tspan></text>
  </g>
</svg>
