<svg xmlns="http://www.w3.org/2000/svg" width="39.549" height="28.038" viewBox="0 0 39.549 28.038">
  <g id="noun_Video_1185345" transform="translate(0.3 0.3)">
    <g id="Group_109" data-name="Group 109" transform="translate(0)">
      <path id="Path_666" data-name="Path 666" d="M11.052,971.362a5.1,5.1,0,0,0-5.062,5.117v17.2a5.1,5.1,0,0,0,5.062,5.117H28.076a5.116,5.116,0,0,0,5.075-5.117v-2.31l7.855,3.167a3.515,3.515,0,0,0,2.157.277,2.152,2.152,0,0,0,1.383-1.134,6.048,6.048,0,0,0,.387-2.821V979.314a5.912,5.912,0,0,0-.415-2.821,2.179,2.179,0,0,0-1.4-1.134,2.355,2.355,0,0,0-.484-.055,4.208,4.208,0,0,0-1.66.36l-7.827,3.153v-2.337a5.116,5.116,0,0,0-5.075-5.117Zm0,1.77H28.076a3.327,3.327,0,0,1,3.305,3.347v17.2a3.327,3.327,0,0,1-3.305,3.347H11.052a3.315,3.315,0,0,1-3.291-3.347v-17.2A3.315,3.315,0,0,1,11.052,973.132Zm31.531,3.941a.389.389,0,0,1,.36.208,6.4,6.4,0,0,1,.221,2.033v11.547a6.551,6.551,0,0,1-.207,2.033c-.258.509-.957.13-1.286,0l-8.519-3.444v-8.74l8.491-3.416a2.555,2.555,0,0,1,.94-.221Z" transform="translate(-5.99 -971.362)" fill="#a3a6a8" stroke="#a3a6a8" stroke-width="0.6" fill-rule="evenodd"/>
    </g>
  </g>
</svg>
