<svg xmlns="http://www.w3.org/2000/svg" width="63" height="19.1" viewBox="0 0 63 19.1">
  <g id="iconfinder__Visa_1156753" transform="translate(-0.5 -22.4)">
    <g id="Group_235" data-name="Group 235">
      <g id="Group_214" data-name="Group 214">
        <g id="Group_213" data-name="Group 213">
          <path id="Path_2216" data-name="Path 2216" d="M23.6,41l3.2-18h5L28.7,41Z" fill="#3c58bf"/>
        </g>
      </g>
      <g id="Group_216" data-name="Group 216">
        <g id="Group_215" data-name="Group 215">
          <path id="Path_2217" data-name="Path 2217" d="M23.6,41l4.1-18h4.1L28.7,41Z" fill="#293688"/>
        </g>
      </g>
      <g id="Group_218" data-name="Group 218">
        <g id="Group_217" data-name="Group 217">
          <path id="Path_2218" data-name="Path 2218" d="M46.8,23.2a12.684,12.684,0,0,0-4.6-.8c-5,0-8.6,2.5-8.6,6.1,0,2.7,2.5,4.1,4.5,5s2.6,1.5,2.6,2.3c0,1.2-1.6,1.8-3,1.8a10.869,10.869,0,0,1-4.8-1l-.7-.3-.7,4.1a16.214,16.214,0,0,0,5.7,1c5.3,0,8.8-2.5,8.8-6.3,0-2.1-1.3-3.7-4.3-5-1.8-.9-2.9-1.4-2.9-2.3,0-.8.9-1.6,2.9-1.6a9.172,9.172,0,0,1,3.8.7l.5.2.8-3.9Z" fill="#3c58bf"/>
        </g>
      </g>
      <g id="Group_220" data-name="Group 220">
        <g id="Group_219" data-name="Group 219">
          <path id="Path_2219" data-name="Path 2219" d="M46.8,23.2a12.684,12.684,0,0,0-4.6-.8c-5,0-7.7,2.5-7.7,6.1,0,2.7,1.6,4.1,3.6,5s2.6,1.5,2.6,2.3c0,1.2-1.6,1.8-3,1.8a10.869,10.869,0,0,1-4.8-1l-.7-.3-.7,4.1a16.214,16.214,0,0,0,5.7,1c5.3,0,8.8-2.5,8.8-6.3,0-2.1-1.3-3.7-4.3-5-1.8-.9-2.9-1.4-2.9-2.3,0-.8.9-1.6,2.9-1.6a9.172,9.172,0,0,1,3.8.7l.5.2.8-3.9Z" fill="#293688"/>
        </g>
      </g>
      <g id="Group_222" data-name="Group 222">
        <g id="Group_221" data-name="Group 221">
          <path id="Path_2220" data-name="Path 2220" d="M55.4,23c-1.2,0-2.1.1-2.6,1.3L45.3,41h5.4l1-3h6.4l.6,3h4.8L59.3,23ZM53.1,35c.3-.9,2-5.3,2-5.3s.4-1.1.7-1.8l.3,1.7s1,4.5,1.2,5.5H53.1Z" fill="#3c58bf"/>
        </g>
      </g>
      <g id="Group_224" data-name="Group 224">
        <g id="Group_223" data-name="Group 223">
          <path id="Path_2221" data-name="Path 2221" d="M56.6,23c-1.2,0-2.1.1-2.6,1.3L45.3,41h5.4l1-3h6.4l.6,3h4.8L59.3,23ZM53.1,35c.4-1,2-5.3,2-5.3s.4-1.1.7-1.8l.3,1.7s1,4.5,1.2,5.5H53.1Z" fill="#293688"/>
        </g>
      </g>
      <g id="Group_226" data-name="Group 226">
        <g id="Group_225" data-name="Group 225">
          <path id="Path_2222" data-name="Path 2222" d="M14.4,35.6,13.9,33a14.5,14.5,0,0,0-7-7.9l4.5,16h5.4l8.1-18H19.5Z" fill="#3c58bf"/>
        </g>
      </g>
      <g id="Group_228" data-name="Group 228">
        <g id="Group_227" data-name="Group 227">
          <path id="Path_2223" data-name="Path 2223" d="M14.4,35.6,13.9,33a14.5,14.5,0,0,0-7-7.9l4.5,16h5.4l8.1-18H20.5Z" fill="#293688"/>
        </g>
      </g>
      <g id="Group_230" data-name="Group 230">
        <g id="Group_229" data-name="Group 229">
          <path id="Path_2224" data-name="Path 2224" d="M.5,23l.9.2c6.4,1.5,10.8,5.3,12.5,9.8l-1.8-8.5c-.3-1.2-1.2-1.5-2.3-1.5Z" fill="#ffbc00"/>
        </g>
      </g>
      <g id="Group_232" data-name="Group 232">
        <g id="Group_231" data-name="Group 231">
          <path id="Path_2225" data-name="Path 2225" d="M.5,23h0c6.4,1.5,11.7,5.4,13.4,9.9l-1.7-7.1a2.441,2.441,0,0,0-2.4-1.9Z" fill="#f7981d"/>
        </g>
      </g>
      <g id="Group_234" data-name="Group 234">
        <g id="Group_233" data-name="Group 233">
          <path id="Path_2226" data-name="Path 2226" d="M.5,23h0c6.4,1.5,11.7,5.4,13.4,9.9L12.7,29c-.3-1.2-.7-2.4-2.1-2.9Z" fill="#ed7c00"/>
        </g>
      </g>
    </g>
    <g id="Group_236" data-name="Group 236">
      <path id="Path_2227" data-name="Path 2227" d="M19.4,35,16,31.6l-1.6,3.8L14,32.9A14.5,14.5,0,0,0,7,25l4.5,16h5.4Z" fill="#051244"/>
    </g>
    <g id="Group_237" data-name="Group 237">
      <path id="Path_2228" data-name="Path 2228" d="M28.7,41l-4.3-4.4L23.6,41Z" fill="#051244"/>
    </g>
    <g id="Group_238" data-name="Group 238">
      <path id="Path_2229" data-name="Path 2229" d="M40.2,34.8h0c.4.4.6.7.5,1.1,0,1.2-1.6,1.8-3,1.8a10.869,10.869,0,0,1-4.8-1l-.7-.3-.7,4.1a16.214,16.214,0,0,0,5.7,1c3.2,0,5.8-.9,7.3-2.5Z" fill="#051244"/>
    </g>
    <g id="Group_239" data-name="Group 239">
      <path id="Path_2230" data-name="Path 2230" d="M46,41h4.7l1-3h6.4l.6,3h4.8l-1.7-7.3-6-5.8.3,1.6s1,4.5,1.2,5.5H53.1c.4-1,2-5.3,2-5.3s.4-1.1.7-1.8" fill="#051244"/>
    </g>
  </g>
</svg>
