<svg xmlns="http://www.w3.org/2000/svg" width="561.13" height="283.826" viewBox="0 0 561.13 283.826">
  <g id="web-visit-graphics" transform="translate(0.003 0.02)">
    <path id="Path_1473" data-name="Path 1473" d="M252.931,133.882l-7.05-.162c2.265,2.936,2.774,5.64,1.364,7.928-1.41,2.336-4.785,4.255-9.824,5.711A91.106,91.106,0,0,0,116.634,31.616c-1.339.577-2.68,1.179-3.975,1.8h-.011c-3.912-1.194-7.732-2.174-11.411-2.919-18.575-3.765-31.76-1.16-37.115,7.341C59.025,45.927,61.8,58.1,71.914,72.3h0c-1.365,2.52-2.589,5.109-3.725,7.79-.855,2.012-1.619,4.024-2.312,6.08C46.877,87.3,36.7,90.642,33,96.706c-4.3,7.05,1.572,16.511,20.365,25.706,2.589,1.272,5.363,2.52,8.276,3.768a89,89,0,0,0,6.542,24.774,91.088,91.088,0,0,0,167.429.857c9.269-1.919,15.373-4.925,17.8-8.9C255.105,140.169,254.9,137.118,252.931,133.882Zm-21.753,14.9a139.541,139.541,0,0,1-22.861,1.85,334.988,334.988,0,0,1-46.865-3.157q2.133-4.642,4.173-9.524a128.793,128.793,0,0,0,15.176,4.126,76.77,76.77,0,0,0,15.153,1.676c10.618,0,18.212-3.064,21.965-9.023a15.608,15.608,0,0,0,1.509-3.12h-5.4c-.089.164-.186.326-.285.484-2.794,4.428-9.019,6.706-17.769,6.706a72.182,72.182,0,0,1-14.185-1.585,123.694,123.694,0,0,1-14.284-3.863q1.954-4.888,3.791-9.951c3.3-9.088,6.119-18.1,8.4-26.753a229.564,229.564,0,0,0,33.438,2.3q11.081,0,22.962-.894a86.319,86.319,0,0,1,1.768,17.445,85.228,85.228,0,0,1-6.687,33.287ZM118.5,193.932c-2.63-.954-3.964-4.73-4.621-7.729-1.038-4.739-1.226-11.4-.542-19.251.345-3.971.9-8.2,1.647-12.613a234.007,234.007,0,0,1,31.853,11.022c-2.341,4.037-4.709,7.781-7.078,11.176C135.249,183,130.838,187.993,127,190.966,124.579,192.844,121.14,194.885,118.5,193.932Zm30.72-32.8a239.138,239.138,0,0,0-33.371-11.549q.6-3.075,1.3-6.255,4.713,1.071,9.556,2.071c9.448,1.924,18.868,3.565,28.088,4.892C152.975,154.069,151.11,157.692,149.223,161.132ZM128.8,141.972q-5.475-1.118-10.778-2.349c1.663-6.922,3.707-14.138,6.093-21.491a211.03,211.03,0,0,0,36.953,18.225q-2.246,5.365-4.608,10.431C147.388,145.495,138.108,143.882,128.8,141.972ZM98.512,48.541a56.53,56.53,0,0,0,3.353,5.9,80.108,80.108,0,0,0,20.391,20.9,99.552,99.552,0,0,0,10.729,6.68c-3.463,7.548-6.764,15.6-9.8,23.964q-.846,2.34-1.652,4.668C103.422,98.857,88.082,85.326,78.022,72.231h0a86.212,86.212,0,0,1,8.641-12.177c1.341-1.572,2.727-3.1,4.184-4.577l.6-.6a86.469,86.469,0,0,1,7.064-6.335Zm77.462-13.067c2.63.954,3.966,4.73,4.623,7.729,1.038,4.739,1.226,11.4.542,19.251a192.087,192.087,0,0,1-5.029,28.761q-4.642-.8-9.06-1.811a130.384,130.384,0,0,1-27.721-9.556A195.786,195.786,0,0,1,154.716,52.87c4.512-6.467,8.923-11.456,12.758-14.429,2-1.55,4.694-3.21,7.052-3.21a4.221,4.221,0,0,1,1.447.242ZM165.636,94.029q4.521,1.049,9.273,1.872c-2.224,8.367-4.962,17.081-8.153,25.879q-1.848,5.089-3.815,10a206.429,206.429,0,0,1-37.219-18.473q.969-2.833,2-5.685c2.964-8.176,6.182-16.044,9.556-23.411A134.539,134.539,0,0,0,165.636,94.029Zm47.1-39.159a85.425,85.425,0,0,1,22.234,38.455c-19.769,1.445-37.886.993-54.081-1.352a195.994,195.994,0,0,0,5.059-29.1c.838-9.634.745-21.049-3.167-27.468q1.354.529,2.7,1.088a85.169,85.169,0,0,1,27.254,18.38ZM152.1,29.744a85.872,85.872,0,0,1,17.5,1.785c-6.73,2.932-13.622,11.1-18.838,18.581a200.425,200.425,0,0,0-15.722,27.533,95.205,95.205,0,0,1-9.638-5.989,74.191,74.191,0,0,1-19.3-19.559,50.92,50.92,0,0,1-3.655-6.533,85.918,85.918,0,0,1,11.087-6.689h0q2.362-1.194,4.81-2.235l.354-.153.082-.035q.523-.22,1.047-.432l.281-.112a85.21,85.21,0,0,1,32-6.162ZM68.306,40.479c2.794-4.428,9.019-6.706,17.769-6.706a72.182,72.182,0,0,1,14.185,1.585q2.98.6,6.082,1.421h0a89.6,89.6,0,0,0-18.65,14.375c-1.177,1.157-2.31,2.358-3.42,3.606-1.388,1.526-2.7,3.122-3.977,4.739a91.97,91.97,0,0,0-5.64,8.068h0C66.935,56.089,64.6,46.363,68.306,40.479Zm4.737,41.67c.762-1.757,1.548-3.491,2.4-5.178h0c10.593,13.242,26.209,26.779,44.454,38.52-2.587,7.874-4.793,15.612-6.575,23.029A352.064,352.064,0,0,1,76.971,127.78c-2.265-.81-4.461-1.643-6.564-2.474-1.248-.486-2.474-.995-3.675-1.5-.186-1.85-.324-3.725-.373-5.588-.022-.9-.045-1.781-.045-2.682,0-1.039.022-2.1.045-3.142a86.8,86.8,0,0,1,3.929-22.752c.393-1.25.808-2.474,1.272-3.7.466-1.272.95-2.543,1.483-3.791Zm-15.461,37.54c-16.392-8-23.879-15.718-20.527-21.2,2.7-4.441,12.557-7.442,27.621-8.552a88.556,88.556,0,0,0-3.422,19.233c-.14,1.941-.209,3.884-.231,5.847v.509c0,1.965.069,3.93.186,5.871-1.25-.553-2.451-1.133-3.63-1.71Zm12.436,9.824c2.219.833,4.485,1.665,6.82,2.474,10.733,3.725,22.763,7.175,35.632,10.245q-.7,3.128-1.295,6.162-1.576-.384-3.167-.745a191.726,191.726,0,0,0-37.326-5.015,83.824,83.824,0,0,1-3.373-14.157Zm3.025,19.395q-.291-.687-.559-1.38a193.08,193.08,0,0,1,34.461,4.823q1.676.384,3.353.794c-.8,4.692-1.4,9.178-1.764,13.391-.695,7.986-.745,17.191,1.49,23.765a86.279,86.279,0,0,1-36.981-41.392ZM185.48,194.561a86.059,86.059,0,0,1-59.39,2.736c6.344-3.325,12.721-10.964,17.631-18,2.531-3.63,5.063-7.637,7.561-11.983a242.437,242.437,0,0,1,41.265,23.873Q189.1,193.026,185.48,194.561Zm27.254-18.378A85.175,85.175,0,0,1,197.14,188.55a247.471,247.471,0,0,0-43.491-25.46c2.092-3.832,4.152-7.879,6.166-12.108a370.493,370.493,0,0,0,39.533,3.239c3.191.093,6.289.093,9.293.069a166.264,166.264,0,0,0,20.665-1.386A85.178,85.178,0,0,1,212.733,176.183Z" transform="translate(-31.67 -24.49)" fill="#13a0f0"/>
    <path id="Path_1474" data-name="Path 1474" d="M2154.55,551.14s17.148,16.876,17.933,23.24-7.779,16.32-7.779,16.32Z" transform="translate(-1759.115 -453.054)" fill="#3a3a3a"/>
    <path id="Path_1475" data-name="Path 1475" d="M2025.04,1479.546s-.559,8.973-2.291,9.1c-.231.017-8.805.017-8.805.017L2003,1488.6a3.552,3.552,0,0,1,3.271-3.195c3.2-.557,8.553-2.805,10.491-7.034C2018.8,1473.932,2025.04,1479.546,2025.04,1479.546Z" transform="translate(-1635.794 -1206.176)"/>
    <path id="Path_1476" data-name="Path 1476" d="M2155.9,1479.546s-.559,8.973-2.291,9.1c-.231.017-8.8.017-8.8.017l-10.944-.063a3.55,3.55,0,0,1,3.271-3.195c3.2-.557,8.552-2.805,10.491-7.034C2149.66,1473.932,2155.9,1479.546,2155.9,1479.546Z" transform="translate(-1742.278 -1206.176)"/>
    <path id="Path_1477" data-name="Path 1477" d="M2056.26,914.6s2.861,18.305,13.538,50.8,12.132,46.569,12.132,46.569l11.454-.32s.1-35.515-4.823-51.855-1.062-58.909-1.062-58.909Z" transform="translate(-1679.134 -737.647)" fill="#53c1ff"/>
    <path id="Path_1478" data-name="Path 1478" d="M2026.293,906.25a444.432,444.432,0,0,0,4.368,61.456c4.772,33.87,3.156,48.245,3.156,48.245l11.43.373s6.833-33.883,4.873-50.836,9.354-58.166,9.354-58.166Z" transform="translate(-1654.742 -742.017)" fill="#13a0f0"/>
    <path id="Path_1479" data-name="Path 1479" d="M2087.542,500.086l-5.391,3.994-7.792-1.641c.106-.712.622-3.655,1.09-6.333l.084-.468.745-4.219,7.278-3.627,2.714-1.352c0,.047-.211,2.518-.239,2.878A23.32,23.32,0,0,0,2087.542,500.086Z" transform="translate(-1693.862 -400.406)" fill="#ebaf7d"/>
    <path id="Path_1480" data-name="Path 1480" d="M2061.909,536.619c.171-.071,10.6-3.148,11.735-2.775s1.8,2.567,1.8,2.567l-17.057,3.856S2059.729,537.537,2061.909,536.619Z" transform="translate(-1680.866 -438.954)" fill="#13a0f0"/>
    <path id="Path_1481" data-name="Path 1481" d="M2055.281,617.531c-1.768,8.064-31.188,9.021-38.771,1.7-.862-.834-.905-4.716-.579-9.951.637-10.226,2.681-25.609,2.759-33.468a62.05,62.05,0,0,1,1.256-11.2,91.064,91.064,0,0,1,3.725-13.412s14.369-4.646,17.057-3.856C2053.7,551.154,2057.056,609.468,2055.281,617.531Z" transform="translate(-1646.163 -449.893)"/>
    <path id="Path_1482" data-name="Path 1482" d="M2016.79,678.444c.637-10.227,2.681-25.609,2.759-33.468a62.071,62.071,0,0,1,1.255-11.2l8.645-1.526S2037.9,666.768,2016.79,678.444Z" transform="translate(-1647.016 -519.056)" fill="#3a3a3a"/>
    <path id="Path_1483" data-name="Path 1483" d="M2031.154,797.854a2.035,2.035,0,0,1-.648,2.355c-1.237.946-2.049,2.477-1.756,3.6s3,2.947,3.938,2.653,2.858-1.77,2.651-2.36,1.287-5.182-1.006-6.95S2031.154,797.854,2031.154,797.854Z" transform="translate(-1656.699 -652.72)" fill="#ebaf7d"/>
    <path id="Path_1484" data-name="Path 1484" d="M1983.473,558.85s-8.414,1.3-15.131,11.2-11.135,17.258-9.9,20.827,12.516,15.941,14.46,15.941,5.083-1.414,5.26-4.6c0,0-7.943-11.9-6.378-13.686.668-.762,10.31-8.589,11.687-5.054C1985.75,589.332,1983.473,558.85,1983.473,558.85Z" transform="translate(-1599.369 -459.328)"/>
    <path id="Path_1485" data-name="Path 1485" d="M2090.247,495.384c-1.6,3.059-7.553,5.7-10.037,6.674l.084-.468c.4-2.269.745-4.219.745-4.219l7.278-3.627C2089.928,493.719,2090.906,494.127,2090.247,495.384Z" transform="translate(-1698.622 -406.35)" fill="#e8a36b"/>
    <path id="Path_1486" data-name="Path 1486" d="M2058.521,416.544s13.128,4.1,15.554-4.12,5.752-13.226-2.528-16.182-10.843-.311-12.318,2.235S2055.168,415.268,2058.521,416.544Z" transform="translate(-1679.638 -325.949)" fill="#ebaf7d"/>
    <path id="Path_1487" data-name="Path 1487" d="M2075.258,378.5s.758,9.863,2.744,9.418,3.783-.779,3.47,2.2-3.092,6.436,3.01,6.911,15.016-15.824,13.363-18.881C2093.079,369.331,2068.351,367.753,2075.258,378.5Z" transform="translate(-1693.609 -306.455)"/>
    <path id="Path_1488" data-name="Path 1488" d="M2497.9,895.32s-5.03,1.293-8.237.328-8.712.62-9.6,1.786-.559,1.632,1.021,2.034,7.194,2.794,10.88,1.412a29.492,29.492,0,0,1,8.494-1.436Z" transform="translate(-2023.602 -733.123)" fill="#e29763"/>
    <path id="Path_1489" data-name="Path 1489" d="M2604.983,635.955s-5.657,40.207-15.023,43.81c-4.623,1.777-25.05,5.8-31.093,6.21,0,0-1.481-1.2-1.117-6.089,0,0,21.4-7.857,24.443-12.13,4.524-6.359-2.809-25.98,2.869-31.952S2600.3,627.262,2604.983,635.955Z" transform="translate(-2087.162 -517.504)" fill="#13a0f0"/>
    <path id="Path_1490" data-name="Path 1490" d="M2685.145,1212.77v-8.842h13.8a.678.678,0,0,0,.676-.676v-1.4a.678.678,0,0,0-.676-.678h-13.8v-49.9a2.554,2.554,0,0,0-2.546-2.546h-2.731a2.554,2.554,0,0,0-2.546,2.546v49.9h-13.8a.678.678,0,0,0-.676.678v1.4a.678.678,0,0,0,.676.676h13.8v8.842c-9.988.745-17.986,4.351-20.231,9h48.285C2703.129,1217.122,2695.131,1213.525,2685.145,1212.77Z" transform="translate(-2168.044 -939.321)" fill="#13a0f0"/>
    <path id="Path_1491" data-name="Path 1491" d="M2552.739,1012.1a70.433,70.433,0,0,1-5.527,7.905c-6.08,7.676-12.7,14.006-13.851,19.987a26.942,26.942,0,0,1-1.069,3.83c-.481,1.369-1.077,2.811-1.764,4.3a132.534,132.534,0,0,1-10.29,17.592c-6.659,9.873-12.922,18.1-12.922,18.1l-11.486-.488c.46-1.151,5.469-14.777,12.169-31.428,2.722-6.76,5.614-13.95,8.406-20.883l1.118-2.762c.853-2.122,1.693-4.212,2.513-6.244l11.3-28.086s25.147-9.526,27.755-3.353C2561.244,995.661,2559.493,1000.644,2552.739,1012.1Z" transform="translate(-2036.823 -808.935)" fill="#333"/>
    <path id="Path_1492" data-name="Path 1492" d="M2453.47,1475.7s-.559,9.522-2.4,9.658c-.244.019-20.974,0-20.974,0a3.956,3.956,0,0,1,3.539-3.468c3.373-.589,9.034-2.964,11.081-7.429C2446.88,1469.766,2453.47,1475.7,2453.47,1475.7Z" transform="translate(-1983.337 -1202.912)" fill="#13a0f0"/>
    <path id="Path_1493" data-name="Path 1493" d="M2672.054,1343.69s7.99,5.134,7.213,6.8c-.1.222-4.518,8.127-4.518,8.127l-5.692,10.059a3.746,3.746,0,0,1-1.263-4.657c1.132-3.234,1.816-9.332-1.084-13.3C2663.657,1346.542,2672.054,1343.69,2672.054,1343.69Z" transform="translate(-2175.329 -1097.973)" fill="#13a0f0"/>
    <path id="Path_1494" data-name="Path 1494" d="M2486.377,992.8s-31.763,19.771-35.286,32.984,41.986,41.4,41.986,41.4,4.992-4.405,5.874-7.637c0,0-20.572-24.646-25.033-30.177-2.742-3.377,40.518-11.737,45.807-19.956s3.394-15.139,3.394-15.139Z" transform="translate(-2000.259 -812.445)"/>
    <rect id="Rectangle_519" data-name="Rectangle 519" width="69.298" height="17.618" rx="8.809" transform="translate(478.54 205.713)" fill="#13a0f0"/>
    <path id="Path_1495" data-name="Path 1495" d="M2712.937,565.6s-12.534,7.008-20.1,5.052a17.851,17.851,0,0,1,4.81-4.357c-.166-.745-.311-1.429-.436-2.073a49.45,49.45,0,0,1-.853-5.84l5.774-5.175,3.882.823c.075.372.157.745.25,1.118A18.551,18.551,0,0,0,2712.937,565.6Z" transform="translate(-2197.135 -454.739)" fill="#e29763"/>
    <path id="Path_1496" data-name="Path 1496" d="M2673.841,643.021c-1.082,14.568.343,36.724-.886,40.561-1.062,3.31-13.144,1.341-17.967.239-1.786-.41-3.947-.995-6.18-1.686-6.229-1.93-13.017-4.683-13.745-6.728a1.7,1.7,0,0,1-.065-.235h0c-.013-.052-.022-.1-.03-.153a1.961,1.961,0,0,1,.041-.7c.242-1.041,1.179-2.168,1.289-4.75.123-2.88.1-6.274.213-9.921a12.008,12.008,0,0,1,.056-1.269V658c.1-4.068.319-8.347.559-12.588.156-2.664.339-5.3.548-7.823a104.389,104.389,0,0,1,2.244-16,25.726,25.726,0,0,1,8.254-12.741l2.31-1.987a13.278,13.278,0,0,0,8.342-1.118c2.967-1.41,3.994-2.422,4.51-2.038C2670.188,609,2675.12,625.213,2673.841,643.021Z" transform="translate(-2150.031 -495.759)" fill="#13a0f0"/>
    <path id="Path_1497" data-name="Path 1497" d="M2648.807,873.035c-6.229-1.93-13.017-4.683-13.745-6.728a1.7,1.7,0,0,1-.065-.235h0a.448.448,0,0,0-.03-.153,1.961,1.961,0,0,1,.041-.7c.242-1.041,1.179-2.168,1.289-4.75.123-2.88.1-6.274.213-9.921a12,12,0,0,1,.056-1.268V848.9l23.543-10.675S2661.459,857.179,2648.807,873.035Z" transform="translate(-2150.031 -686.659)" fill="#13a0f0"/>
    <path id="Path_1498" data-name="Path 1498" d="M2721.647,555.147c-.855,2.161-3.414,7.255-9.054,9.077a49.469,49.469,0,0,1-.854-5.84l5.775-5.175,3.882.823C2721.474,554.413,2721.554,554.784,2721.647,555.147Z" transform="translate(-2212.514 -454.739)" fill="#d48b5d"/>
    <path id="Path_1499" data-name="Path 1499" d="M2686.662,490.714s12.391,1.4,13.143-6.333,2.857-12.756-5.029-13.971-9.707,1.581-10.586,4.1S2683.458,490.15,2686.662,490.714Z" transform="translate(-2189.72 -387.125)" fill="#e29763"/>
    <path id="Path_1500" data-name="Path 1500" d="M2697.238,463.222a12.731,12.731,0,0,0-12.065-11.324c-7.727-.728-3.418-7.378-2.595-8.438,0,0,5.92.812,11.987,1.814C2707.3,447.379,2698.49,461.629,2697.238,463.222Z" transform="translate(-2187.207 -365.433)"/>
    <path id="Path_1501" data-name="Path 1501" d="M2401.23,798.661l-30.705.656-8.731-26.866-1.084.352,9.228,28.4,31.333-.671Z" transform="translate(-1920.973 -628.578)" fill="#da711d"/>
    <path id="Path_1502" data-name="Path 1502" d="M2513.8,928.5s-4.864,1.84-8.151,1.235-8.589,1.576-9.342,2.835-.373,1.677,1.239,1.907,7.451,1.986,10.968.2a29.414,29.414,0,0,1,8.285-2.362Z" transform="translate(-2036.909 -760.122)" fill="#e29763"/>
    <path id="Path_1503" data-name="Path 1503" d="M2614.235,648.887s-1.19,40.585-10.1,45.2c-4.4,2.276-24.257,8.531-30.218,9.6,0,0-1.6-1.03-1.785-5.929,0,0,20.407-10.169,22.957-14.751,3.8-6.82-5.657-25.52-.671-32.075S2608.615,640.764,2614.235,648.887Z" transform="translate(-2098.91 -528.786)" fill="#53c1ff"/>
    <path id="Path_1504" data-name="Path 1504" d="M937.8,681.9l-12.592,149.72s-1.319,9.077,5.432,9.092c11.1.028,55.247,0,55.247,0s-8.354-1.889-8.252-6.147c.119-5.011,14.716-154.09,14.716-154.09Z" transform="translate(-758.681 -558.302)"/>
    <path id="Path_1505" data-name="Path 1505" d="M1005.314,826.186c-2.183,0-44.35.14-55.158,0-4.713-.058-5.538-4.189-5.577-6.86a13.48,13.48,0,0,1,.143-2.235l.328-3.891.835-9.919.736-8.755.948-11.26.8-9.5,8.941-106.389,54.55-1.416s-6.147,62.391-10.5,107.8c-.486,5.059-.948,9.912-1.375,14.44q-.207,2.168-.4,4.236c-.4,4.3-.771,8.243-1.093,11.735-.17,1.835-.324,3.539-.466,5.1-.559,6.125-.881,10.036-.885,10.78a6.393,6.393,0,0,0,.106,1.213C998.152,826.029,1004.495,826.186,1005.314,826.186Z" transform="translate(-774.528 -546.487)"/>
    <path id="Path_1506" data-name="Path 1506" d="M250.37,226.26l30.672,123.2,4.2,16.873,14.285,57.384h265.4L512.274,226.26Z" transform="translate(-203.735 -184.13)"/>
    <path id="Path_1507" data-name="Path 1507" d="M231.8,226.26l-4.251,1.416,47.757,200.331,5.652-4.286Z" transform="translate(-185.166 -184.13)" fill="#585858"/>
    <path id="Path_1508" data-name="Path 1508" d="M483.93,1290.6H747.7l7.285-4.286h-265.4Z" transform="translate(-393.789 -1046.719)" fill="#585858"/>
    <rect id="Rectangle_520" data-name="Rectangle 520" width="57.11" height="2.714" transform="translate(182.768 279.761)"/>
    <path id="Path_1509" data-name="Path 1509" d="M550.216,387.333,507.151,228.87H248.09v-2.61H510.418L553.34,386.981Z" transform="translate(-201.88 -184.13)" fill="#13a0f0"/>
    <path id="Path_1510" data-name="Path 1510" d="M973.933,1309.31l-.294,2.075-53.709,10.85.738-8.764.35-4.161Z" transform="translate(-748.573 -1065.435)" fill="#585858"/>
    <path id="Path_1511" data-name="Path 1511" d="M1005.325,1452.209c-2.183,0-44.35.14-55.158,0-4.713-.057-5.538-4.189-5.577-6.86l53.461-10.059c-.559,6.125-.881,10.036-.885,10.78a6.381,6.381,0,0,0,.106,1.213C998.163,1452.053,1004.505,1452.209,1005.325,1452.209Z" transform="translate(-774.539 -1172.51)" fill="#585858"/>
    <path id="Path_1512" data-name="Path 1512" d="M568.451,995.651l-116.585,39.974L437.58,978.24Z" transform="translate(-356.073 -796.035)"/>
    <path id="Path_1513" data-name="Path 1513" d="M250.37,226.26h261.9l42.495,158.695H288.528Z" transform="translate(-203.735 -184.13)"/>
    <path id="Path_1514" data-name="Path 1514" d="M1233.952,1179.6a8.975,8.975,0,0,0-8.416-7.047,5.64,5.64,0,0,0-5.677,7.047,8.976,8.976,0,0,0,8.416,7.048A5.641,5.641,0,0,0,1233.952,1179.6Z" transform="translate(-998.424 -958.712)" fill="#13a0f0"/>
    <path id="Path_1515" data-name="Path 1515" d="M589.808,415.208H344.587L316.815,304.579l-2.129-8.485-1.816-7.237-4.26-16.968H550.3l4.677,16.968,1.995,7.237,2.34,8.485Z" transform="translate(-251.127 -221.26)" fill="#13a0f0"/>
    <path id="Path_1516" data-name="Path 1516" d="M554.975,288.858H312.87l-4.26-16.968H550.3Z" transform="translate(-251.127 -221.26)" fill="#53c1ff"/>
    <ellipse id="Ellipse_111" data-name="Ellipse 111" cx="1.874" cy="2.401" rx="1.874" ry="2.401" transform="translate(66.562 58.112) rotate(-48.55)" fill="#d5f5ff"/>
    <path id="Path_1517" data-name="Path 1517" d="M433.1,326.16a1.6,1.6,0,0,0-1.593,2.12,2.9,2.9,0,0,0,2.651,2.122,1.6,1.6,0,0,0,1.593-2.122A2.9,2.9,0,0,0,433.1,326.16Z" transform="translate(-356.974 -269.983)" fill="#d5f5ff"/>
    <path id="Path_1518" data-name="Path 1518" d="M476.487,328.28a2.9,2.9,0,0,0-2.651-2.12,1.6,1.6,0,0,0-1.593,2.12,2.9,2.9,0,0,0,2.651,2.122A1.6,1.6,0,0,0,476.487,328.28Z" transform="translate(-390.125 -269.983)" fill="#d5f5ff"/>
    <path id="Path_1519" data-name="Path 1519" d="M1322.138,597.289c-1.772-7.1-8.993-12.879-16.1-12.879a10.124,10.124,0,0,0-8.224,3.726,10.733,10.733,0,0,0-1.65,9.407c1.77,7.1,8.992,12.877,16.1,12.877a10.124,10.124,0,0,0,8.224-3.725A10.731,10.731,0,0,0,1322.138,597.289Zm-2.472,8.764a9.113,9.113,0,0,1-7.4,3.325c-6.659,0-13.428-5.424-15.088-12.089a9.72,9.72,0,0,1,1.464-8.515,9.114,9.114,0,0,1,7.4-3.323c6.659,0,13.429,5.422,15.088,12.089A9.721,9.721,0,0,1,1319.666,606.053Z" transform="translate(-1060.293 -480.127)" fill="#fff"/>
    <path id="Path_1520" data-name="Path 1520" d="M1322.731,604.013l-1.293-9.053-.1-.41h-3.645l.1.41,3.219,9.053Z" transform="translate(-1072.241 -483.816)" fill="#fff"/>
    <path id="Path_1521" data-name="Path 1521" d="M1333.37,653.92l.818,3.277h3.318l-.818-3.277Z" transform="translate(-1085 -532.127)" fill="#fff"/>
    <path id="Path_1522" data-name="Path 1522" d="M1364.629,762.377c-1.77-7.1-8.993-12.877-16.1-12.877a10.124,10.124,0,0,0-8.224,3.725,10.73,10.73,0,0,0-1.652,9.405c1.772,7.1,8.993,12.879,16.1,12.879a10.123,10.123,0,0,0,8.222-3.726A10.732,10.732,0,0,0,1364.629,762.377Zm-2.472,8.766a9.109,9.109,0,0,1-7.4,3.323c-6.659,0-13.43-5.422-15.088-12.089a9.717,9.717,0,0,1,1.462-8.513,9.113,9.113,0,0,1,7.4-3.323c6.659,0,13.428,5.422,15.088,12.087A9.726,9.726,0,0,1,1362.158,771.143Z" transform="translate(-1094.87 -614.465)" fill="#fff"/>
    <path id="Path_1523" data-name="Path 1523" d="M1365.231,769.1l-1.295-9.051-.1-.41h-3.645l.1.41,3.221,9.051Z" transform="translate(-1106.824 -618.154)" fill="#fff"/>
    <path id="Path_1524" data-name="Path 1524" d="M1375.87,819.01l.816,3.276H1380l-.816-3.276Z" transform="translate(-1119.583 -666.465)" fill="#fff"/>
    <path id="Path_1525" data-name="Path 1525" d="M1503.355,619.52a1.109,1.109,0,0,0,1.1-1.464,2.008,2.008,0,0,0-1.831-1.466h-26.1a1.108,1.108,0,0,0-1.1,1.466,2.008,2.008,0,0,0,1.831,1.464Z" transform="translate(-1206.459 -506.313)" fill="#fff"/>
    <path id="Path_1526" data-name="Path 1526" d="M1481.209,514.166a2.008,2.008,0,0,0-1.831-1.466h-26.095a1.109,1.109,0,0,0-1.1,1.466,2.008,2.008,0,0,0,1.831,1.464h26.1A1.109,1.109,0,0,0,1481.209,514.166Z" transform="translate(-1187.542 -421.775)" fill="#fff"/>
    <path id="Path_1527" data-name="Path 1527" d="M1510.821,649.49a1.108,1.108,0,0,0,1.1-1.466,2.008,2.008,0,0,0-1.831-1.464H1484a1.108,1.108,0,0,0-1.1,1.464,2.008,2.008,0,0,0,1.831,1.466Z" transform="translate(-1212.537 -530.7)" fill="#fff"/>
    <path id="Path_1528" data-name="Path 1528" d="M1519.4,677.986a2.008,2.008,0,0,0-1.829-1.466h-26.1a1.11,1.11,0,0,0-1.1,1.466,2.008,2.008,0,0,0,1.831,1.466h26.1A1.11,1.11,0,0,0,1519.4,677.986Z" transform="translate(-1218.619 -555.079)" fill="#fff"/>
    <path id="Path_1529" data-name="Path 1529" d="M1545.83,784.61a1.109,1.109,0,0,0,1.1-1.466,2.008,2.008,0,0,0-1.831-1.464H1519a1.107,1.107,0,0,0-1.1,1.464,2.006,2.006,0,0,0,1.829,1.466Z" transform="translate(-1241.017 -640.651)" fill="#fff"/>
    <path id="Path_1530" data-name="Path 1530" d="M1553.325,814.572a1.109,1.109,0,0,0,1.1-1.466,2.008,2.008,0,0,0-1.831-1.466h-26.1a1.109,1.109,0,0,0-1.1,1.466,2.008,2.008,0,0,0,1.829,1.466Z" transform="translate(-1247.121 -665.03)" fill="#fff"/>
    <path id="Path_1531" data-name="Path 1531" d="M1561.921,843.076a2.008,2.008,0,0,0-1.831-1.466H1534a1.108,1.108,0,0,0-1.1,1.466,2.008,2.008,0,0,0,1.831,1.464h26.092A1.108,1.108,0,0,0,1561.921,843.076Z" transform="translate(-1253.224 -689.417)" fill="#fff"/>
    <path id="Path_1532" data-name="Path 1532" d="M659.008,444.942l-1.82-7.306a3.34,3.34,0,0,0-3.044-2.436H444.975a1.845,1.845,0,0,0-1.829,2.436l1.822,7.306a3.336,3.336,0,0,0,3.042,2.435H657.181A1.843,1.843,0,0,0,659.008,444.942Z" transform="translate(-366.441 -358.711)" fill="#53c1ff"/>
    <path id="Path_1533" data-name="Path 1533" d="M593.268,435.2l3.036,12.177H448.029a3.336,3.336,0,0,1-3.042-2.435l-1.822-7.306a1.845,1.845,0,0,1,1.829-2.436Z" transform="translate(-366.457 -358.711)" fill="#fff"/>
    <path id="Path_1534" data-name="Path 1534" d="M1360.63,431.38l.233.935h2.314l-1.207,3.988h1.224l1.185-4.107-.2-.816Z" transform="translate(-1107.182 -351.041)" fill="#d5f5ff"/>
    <path id="Path_1535" data-name="Path 1535" d="M1418.952,455.41c-1.3,0-1.915,1.118-1.559,2.546a3.133,3.133,0,0,0,2.814,2.546c1.315,0,1.917-1.118,1.561-2.546A3.148,3.148,0,0,0,1418.952,455.41Zm1.026,4.115c-.654,0-1.25-.667-1.475-1.568s.032-1.568.678-1.568,1.252.676,1.475,1.568S1420.633,459.525,1419.979,459.525Z" transform="translate(-1159.19 -375.157)" fill="#d5f5ff"/>
    <path id="Path_1536" data-name="Path 1536" d="M1465.359,470.339a1.615,1.615,0,0,0-1.5-1.259.912.912,0,0,0-.889,1.259,1.617,1.617,0,0,0,1.5,1.259A.923.923,0,0,0,1465.359,470.339Zm-1.034.618c-.281,0-.536-.287-.618-.618s0-.618.3-.618.535.289.618.618-.007.618-.3.618Z" transform="translate(-1196.32 -386.28)" fill="#d5f5ff"/>
    <path id="Path_1537" data-name="Path 1537" d="M1421.837,431.38l-2.367,4.923h.836l2.368-4.923Z" transform="translate(-1155.062 -351.041)" fill="#d5f5ff"/>
    <path id="Path_1538" data-name="Path 1538" d="M1445.712,456.819a1.617,1.617,0,0,0-1.5-1.259.915.915,0,0,0-.89,1.259,1.619,1.619,0,0,0,1.5,1.259A.918.918,0,0,0,1445.712,456.819Zm-1.652,0c-.084-.337,0-.618.3-.618s.536.289.618.618,0,.62-.3.62S1444.142,457.151,1444.06,456.819Z" transform="translate(-1180.333 -375.279)" fill="#d5f5ff"/>
    <path id="Path_1539" data-name="Path 1539" d="M648.5,759.872a2.078,2.078,0,0,0,2.066-2.751h0a3.75,3.75,0,0,0-3.437-2.751H525.166a2.079,2.079,0,0,0-2.066,2.751h0a3.752,3.752,0,0,0,3.437,2.751Z" transform="translate(-431.493 -618.428)" fill="#fff"/>
    <path id="Path_1540" data-name="Path 1540" d="M660.731,808.963a2.079,2.079,0,0,0,2.066-2.751,3.758,3.758,0,0,0-3.439-2.751H537.391a2.078,2.078,0,0,0-2.064,2.751,3.759,3.759,0,0,0,3.437,2.751Z" transform="translate(-441.442 -658.374)" fill="#fff"/>
    <path id="Path_1541" data-name="Path 1541" d="M675.567,857.381a3.753,3.753,0,0,0-3.439-2.751H550.161a2.078,2.078,0,0,0-2.064,2.751,3.758,3.758,0,0,0,3.437,2.751H673.5A2.079,2.079,0,0,0,675.567,857.381Z" transform="translate(-451.834 -700.012)" fill="#fff"/>
    <path id="Path_1542" data-name="Path 1542" d="M809.182,573.882a4.722,4.722,0,0,0,4.32,3.459h13.6a2.613,2.613,0,0,0,2.6-3.459l-6.576-26.373a4.726,4.726,0,0,0-4.322-3.459H805.2a2.613,2.613,0,0,0-2.595,3.459Z" transform="translate(-658.913 -447.285)" fill="#fff"/>
    <path id="Path_1543" data-name="Path 1543" d="M935.606,573.882a4.723,4.723,0,0,0,4.32,3.459h13.6a2.613,2.613,0,0,0,2.6-3.459l-6.575-26.373a4.726,4.726,0,0,0-4.32-3.459h-13.6a2.613,2.613,0,0,0-2.595,3.459Z" transform="translate(-761.793 -447.285)" fill="#fff"/>
    <path id="Path_1544" data-name="Path 1544" d="M1059.638,573.882a4.724,4.724,0,0,0,4.32,3.459h13.6a2.613,2.613,0,0,0,2.6-3.459l-6.576-26.373a4.726,4.726,0,0,0-4.32-3.459h-13.6a2.613,2.613,0,0,0-2.6,3.459Z" transform="translate(-862.719 -447.285)" fill="#fff"/>
    <path id="Path_1545" data-name="Path 1545" d="M537.385,571.544l-5.4-21.7a7.919,7.919,0,0,0-7.242-5.8H478.678c-3.2,0-5.15,2.6-4.351,5.8l5.4,21.7a7.916,7.916,0,0,0,7.242,5.8h46.062C536.235,577.341,538.184,574.746,537.385,571.544Z" transform="translate(-391.728 -447.285)" fill="#fff"/>
    <path id="Path_1546" data-name="Path 1546" d="M547.193,577.208a1,1,0,0,0,.991-1.319h0a1.807,1.807,0,0,0-1.648-1.319H503.5a1,1,0,0,0-.991,1.319h0a1.811,1.811,0,0,0,1.649,1.319Z" transform="translate(-414.77 -472.12)" fill="#53c1ff"/>
    <path id="Path_1547" data-name="Path 1547" d="M554.048,604.469a1,1,0,0,0,.991-1.321h0a1.812,1.812,0,0,0-1.648-1.319H510.361a1,1,0,0,0-.989,1.319h0a1.807,1.807,0,0,0,1.648,1.321Z" transform="translate(-420.358 -494.302)" fill="#53c1ff"/>
    <path id="Path_1548" data-name="Path 1548" d="M561.823,630.371a1.809,1.809,0,0,0-1.649-1.321H517.145a1,1,0,0,0-.991,1.321,1.809,1.809,0,0,0,1.649,1.319h43.029A1,1,0,0,0,561.823,630.371Z" transform="translate(-425.877 -516.452)" fill="#53c1ff"/>
    <path id="Path_1549" data-name="Path 1549" d="M534.885,659.56H524.731a1,1,0,0,0-.989,1.321,1.809,1.809,0,0,0,1.648,1.319h10.152a1,1,0,0,0,.991-1.319A1.81,1.81,0,0,0,534.885,659.56Z" transform="translate(-432.051 -541.279)" fill="#53c1ff"/>
    <path id="Path_1550" data-name="Path 1550" d="M1632.037,939.651,1629.2,928.27a4.153,4.153,0,0,0-3.8-3.04h-24.158a2.3,2.3,0,0,0-2.282,3.04l2.837,11.381a4.157,4.157,0,0,0,3.8,3.04h24.156A2.3,2.3,0,0,0,1632.037,939.651Z" transform="translate(-1306.94 -757.461)" fill="#53c1ff"/>
    <path id="Path_1551" data-name="Path 1551" d="M1637.176,942.622a.523.523,0,0,0,.518-.693.944.944,0,0,0-.864-.691h-22.573a.523.523,0,0,0-.518.691.944.944,0,0,0,.865.693Z" transform="translate(-1319.02 -770.487)" fill="#fff"/>
    <path id="Path_1552" data-name="Path 1552" d="M1640.735,956.952a.525.525,0,0,0,.52-.693.948.948,0,0,0-.864-.691h-22.573a.523.523,0,0,0-.52.691.95.95,0,0,0,.865.693Z" transform="translate(-1321.917 -782.147)" fill="#fff"/>
    <path id="Path_1553" data-name="Path 1553" d="M1644.815,970.509a.948.948,0,0,0-.865-.691h-22.573a.523.523,0,0,0-.52.691.95.95,0,0,0,.864.693H1644.3a.525.525,0,0,0,.52-.693Z" transform="translate(-1324.813 -793.743)" fill="#fff"/>
    <path id="Path_1554" data-name="Path 1554" d="M1630.694,985.818h-5.325a.525.525,0,0,0-.52.693h0a.948.948,0,0,0,.864.691h5.326a.523.523,0,0,0,.52-.691.948.948,0,0,0-.865-.693Z" transform="translate(-1328.061 -806.763)" fill="#fff"/>
    <path id="Path_1555" data-name="Path 1555" d="M670.808,948.875a.78.78,0,0,0,.779-1.037h0a1.419,1.419,0,0,0-1.3-1.038h-46.01a.785.785,0,0,0-.781,1.038h0a1.418,1.418,0,0,0,1.3,1.037Z" transform="translate(-513.228 -775.013)" fill="#53c1ff"/>
    <path id="Path_1556" data-name="Path 1556" d="M675.4,967.375a.78.78,0,0,0,.779-1.037h0a1.414,1.414,0,0,0-1.3-1.038h-46.01a.781.781,0,0,0-.781,1.038h0a1.42,1.42,0,0,0,1.3,1.037Z" transform="translate(-516.966 -790.067)" fill="#53c1ff"/>
    <path id="Path_1557" data-name="Path 1557" d="M679.758,984.62h-46.01a.784.784,0,0,0-.779,1.038,1.419,1.419,0,0,0,1.3,1.037h46.01a.784.784,0,0,0,.779-1.037A1.416,1.416,0,0,0,679.758,984.62Z" transform="translate(-520.939 -805.788)" fill="#53c1ff"/>
    <path id="Path_1558" data-name="Path 1558" d="M989.525,948.875a.78.78,0,0,0,.779-1.037h0A1.419,1.419,0,0,0,989,946.8h-46.01a.782.782,0,0,0-.78,1.038h0a1.417,1.417,0,0,0,1.3,1.037Z" transform="translate(-772.573 -775.013)" fill="#53c1ff"/>
    <path id="Path_1559" data-name="Path 1559" d="M994.154,967.375a.78.78,0,0,0,.779-1.037h0a1.414,1.414,0,0,0-1.3-1.038H947.62a.781.781,0,0,0-.781,1.038h0a1.419,1.419,0,0,0,1.3,1.037Z" transform="translate(-776.341 -790.067)" fill="#53c1ff"/>
    <path id="Path_1560" data-name="Path 1560" d="M998.468,984.62h-46.01a.784.784,0,0,0-.779,1.038,1.421,1.421,0,0,0,1.3,1.038h46.01a.781.781,0,0,0,.779-1.037A1.416,1.416,0,0,0,998.468,984.62Z" transform="translate(-780.282 -805.788)" fill="#53c1ff"/>
    <path id="Path_1561" data-name="Path 1561" d="M1298.45,948.875a.78.78,0,0,0,.779-1.037h0a1.418,1.418,0,0,0-1.3-1.038h-46.01a.78.78,0,0,0-.779,1.038h0a1.414,1.414,0,0,0,1.3,1.037Z" transform="translate(-1023.954 -775.013)" fill="#53c1ff"/>
    <path id="Path_1562" data-name="Path 1562" d="M1303.067,967.375a.785.785,0,0,0,.781-1.037h0a1.418,1.418,0,0,0-1.3-1.038h-46.01a.78.78,0,0,0-.779,1.038h0a1.416,1.416,0,0,0,1.3,1.037Z" transform="translate(-1027.714 -790.067)" fill="#53c1ff"/>
    <path id="Path_1563" data-name="Path 1563" d="M1308.739,985.658a1.414,1.414,0,0,0-1.3-1.038h-45.991a.78.78,0,0,0-.779,1.038,1.418,1.418,0,0,0,1.3,1.037h46.01A.78.78,0,0,0,1308.739,985.658Z" transform="translate(-1031.709 -805.788)" fill="#53c1ff"/>
    <path id="Path_1564" data-name="Path 1564" d="M760.338,939.516H582.927a3.851,3.851,0,0,1-3.539-2.831l-3.539-14.209a2.536,2.536,0,0,1,.4-2.192,2.38,2.38,0,0,1,1.932-.889H755.594a3.85,3.85,0,0,1,3.539,2.83l3.539,14.209a2.532,2.532,0,0,1-.4,2.193A2.38,2.38,0,0,1,760.338,939.516ZM578.169,920.438a1.367,1.367,0,0,0-1.118.49,1.49,1.49,0,0,0-.212,1.3l3.539,14.209a2.831,2.831,0,0,0,2.539,2.049H760.329a1.362,1.362,0,0,0,1.118-.49,1.49,1.49,0,0,0,.212-1.3l-3.539-14.209a2.831,2.831,0,0,0-2.539-2.049Z" transform="translate(-474.408 -752.712)" fill="#53c1ff"/>
    <path id="Path_1565" data-name="Path 1565" d="M538.1,104.956a.373.373,0,0,0-.412-.311l-3.979.559a4.148,4.148,0,0,0-2.034-3.133l-.24-.14a4.152,4.152,0,0,0-3.884-.142l-1.572-3.943a.373.373,0,0,0-.676.268l1.615,4.05a4.064,4.064,0,0,0-.7.639,4,4,0,0,0-.449.628l-.438.745-3.657-2.124a.373.373,0,1,0-.373.631l3.66,2.137-.248.428a4.072,4.072,0,0,0-.481,1.283l-5,.7a.373.373,0,0,0,.048.726h.052l4.823-.674a4.156,4.156,0,0,0,2.06,3.64l.24.14a4.15,4.15,0,0,0,4.033.071l1.716,4.3a.373.373,0,0,0,.339.229.337.337,0,0,0,.134-.026.373.373,0,0,0,.2-.475l-1.77-4.435a4.109,4.109,0,0,0,1.015-1.168l.248-.427,3.656,2.124a.367.367,0,0,0,.373-.631l-3.657-2.124.438-.745a4.237,4.237,0,0,0,.324-.7,4.144,4.144,0,0,0,.224-1.1l4.061-.559a.372.372,0,0,0,.305-.436Z" transform="translate(-428.196 -84.064)" fill="#13a0f0"/>
    <path id="Path_1566" data-name="Path 1566" d="M555.862,130.116l-1.052,1.811a4.16,4.16,0,0,1-5.672,1.5l-.24-.14a4.16,4.16,0,0,1-1.5-5.67l1.052-1.812a4,4,0,0,1,.449-.628l7.285,4.236A4.233,4.233,0,0,1,555.862,130.116Z" transform="translate(-450.877 -106.44)"/>
    <path id="Path_1567" data-name="Path 1567" d="M93.294,347.411l-4.594-1.3a4.113,4.113,0,0,0-.307-1.516l-.186-.456,3.912-1.6a.373.373,0,0,0-.276-.676l-3.912,1.6-.33-.8a4.189,4.189,0,0,0-.358-.686,4.143,4.143,0,0,0-.745-.849l2.025-3.565a.373.373,0,0,0-.633-.361L85.9,340.685a4.148,4.148,0,0,0-3.725-.3l-.259.1a4.154,4.154,0,0,0-2.481,2.992l-4.076-1.157a.373.373,0,1,0-.2.7l4.195,1.188a4.077,4.077,0,0,0,.078.948,4.155,4.155,0,0,0,.224.745l.33.8-3.912,1.6a.373.373,0,0,0,.138.7.357.357,0,0,0,.138-.028l3.912-1.6.186.456a4.126,4.126,0,0,0,.723,1.164l-2.49,4.383a.373.373,0,0,0,.136.5.356.356,0,0,0,.186.048.373.373,0,0,0,.317-.186l2.407-4.234a4.158,4.158,0,0,0,4.143.587L86.13,350a4.148,4.148,0,0,0,2.507-3.15l4.454,1.263a.367.367,0,0,0,.2-.7Z" transform="translate(-66.785 -278.858)" fill="#13a0f0"/>
    <path id="Path_1568" data-name="Path 1568" d="M107.811,364.041l.794,1.937a4.159,4.159,0,0,1-2.267,5.411l-.257.106a4.161,4.161,0,0,1-5.4-2.267l-.8-1.937a4.155,4.155,0,0,1-.224-.745l7.8-3.2A4.186,4.186,0,0,1,107.811,364.041Z" transform="translate(-86.998 -300.245)"/>
    <path id="Path_1569" data-name="Path 1569" d="M256.956,1096.62c-.028.019-.061.047-.1.077-1.531,1.172-11.935,8.267-35.306,5.124-.158.9-.307,1.79-.447,2.667q-.106.663-.2,1.313c-.065.43-.129.857-.186,1.283v.022c-.06.429-.119.851-.175,1.276s-.114.846-.166,1.269-.1.833-.153,1.246v.021c-.047.412-.1.821-.138,1.229s-.088.818-.129,1.228-.08.81-.115,1.213-.073.8-.1,1.2c-.024.291-.048.579-.071.868-.019.238-.037.477-.052.713-.015.2-.028.4-.041.605,0,.106-.015.21-.02.316-.021.337-.041.673-.06,1.01s-.039.717-.058,1.075v.2c-.009.266-.022.533-.034.8,0,.21-.017.417-.022.626-.022.669-.039,1.328-.05,1.984,0,.3-.011.6-.013.9v2.141c0,.279,0,.559.011.831,0,.236,0,.473.015.706v.248l.022.732c0,.261.019.518.028.775s.024.559.037.829c.015.324.032.642.05.963v.086c.019.315.039.626.06.931s.045.652.071.972.052.645.08.961.056.635.088.946.06.6.093.892a.345.345,0,0,0,.011.106c.032.291.063.576.1.859s.075.6.114.9v.024c.039.294.076.589.119.883s.084.587.129.877v.024l.134.849v.013c.045.287.1.57.143.853s.1.559.151.849c.063.346.127.687.186,1.028.043.21.084.423.129.633.054.265.108.525.164.784.009.033.017.069.024.1.05.244.106.488.162.728s.119.527.186.79c.129.54.261,1.069.4,1.593.061.238.127.473.186.708s.136.488.207.73c.048.186.1.356.153.533s.1.348.156.523c.039.136.082.272.125.41.075.239.147.475.222.71.153.468.309.932.466,1.386.076.227.156.455.238.678s.16.447.242.665q.335.905.687,1.77c.069.173.14.343.212.514.1.246.2.49.309.732.082.186.164.373.248.559q.678,1.522,1.393,2.919c.1.186.186.363.285.542.224.427.451.844.682,1.255.078.144.162.287.242.428l.229.4c.089.153.186.3.264.453.207.341.412.674.618,1,.071.116.143.229.214.339.224.352.451.695.678,1.03.08.121.162.24.242.358q.8,1.166,1.6,2.194l.3.373q.775.974,1.529,1.837c.16.186.32.361.479.536a.5.5,0,0,1,.041.045c.1.1.186.209.285.309.57.617,1.129,1.181,1.667,1.7l.268.255q.263.252.525.486l.486.436.024.021c.158.138.313.274.464.4q.393.333.762.63l.207.162c.447.356.864.667,1.246.931l.337.237c.32.222.611.414.864.572.078.052.151.1.222.14.156.1.3.186.417.251l.08.045c.028.017.052.034.078.047.281.164.436.237.436.237q2.235-.73,4.338-1.609a56.4,56.4,0,0,0,21.364-15.833.506.506,0,0,0,.041-.054c11.91-14.037,17.031-32.2,19.218-44.233.24-1.332.447-2.587.622-3.755C264.722,1108.476,257.692,1097.836,256.956,1096.62Z" transform="translate(-184.36 -896.926)"/>
    <path id="Path_1570" data-name="Path 1570" d="M295.977,1135.3c-1.993,10.966-6.663,27.528-17.51,40.327a.449.449,0,0,1-.039.048,51.521,51.521,0,0,1-19.475,14.429q-1.915.8-3.956,1.466s-.14-.067-.4-.214l-.071-.043-.074-.041-.373-.229-.2-.129c-.231-.145-.5-.32-.788-.52-.1-.069-.2-.143-.307-.216-.348-.25-.73-.535-1.138-.859l-.186-.147c-.224-.186-.456-.373-.695-.574l-.425-.373-.02-.019-.443-.4c-.158-.144-.319-.291-.479-.445l-.244-.233c-.492-.471-1-.987-1.52-1.548-.088-.091-.173-.186-.261-.283a.358.358,0,0,0-.037-.039c-.145-.16-.291-.324-.438-.49q-.687-.786-1.391-1.677l-.27-.344c-.486-.628-.972-1.293-1.46-2-.073-.106-.147-.214-.22-.326q-.311-.458-.618-.931-.1-.151-.2-.307c-.186-.3-.373-.6-.559-.915-.08-.136-.162-.274-.242-.414s-.14-.238-.209-.359-.149-.259-.222-.391c-.211-.373-.417-.745-.622-1.144-.088-.164-.171-.328-.257-.5q-.654-1.269-1.27-2.66c-.078-.17-.153-.343-.227-.514-.1-.222-.186-.443-.283-.669-.065-.155-.13-.311-.186-.468-.216-.525-.423-1.064-.628-1.613-.075-.2-.147-.4-.22-.607s-.147-.41-.218-.617c-.143-.415-.285-.838-.425-1.265-.067-.214-.134-.429-.2-.646-.039-.127-.078-.25-.116-.373-.048-.16-.1-.317-.142-.477s-.1-.322-.14-.484c-.063-.222-.127-.443-.186-.667s-.119-.428-.175-.646c-.127-.475-.246-.959-.363-1.451-.06-.238-.116-.477-.17-.721s-.1-.442-.147-.663a.42.42,0,0,0-.02-.093c-.05-.235-.1-.473-.151-.715-.039-.186-.076-.384-.115-.577-.061-.309-.119-.622-.177-.931-.048-.255-.095-.514-.138-.775s-.089-.516-.132-.777a.017.017,0,0,0,0-.013c-.039-.257-.08-.514-.121-.773v-.022c-.041-.266-.08-.533-.117-.8s-.073-.536-.108-.8v-.022c-.037-.272-.069-.546-.1-.82s-.061-.52-.091-.784a.348.348,0,0,0-.009-.1c-.03-.27-.058-.54-.084-.814s-.056-.572-.08-.862-.05-.581-.073-.875-.045-.589-.065-.887-.037-.559-.054-.853v-.078q-.026-.436-.045-.877c-.011-.25-.024-.5-.035-.756s-.017-.469-.024-.708-.015-.442-.02-.665v-.225c0-.214-.013-.428-.013-.645,0-.251-.009-.5-.009-.758v-1.959c0-.27,0-.544.013-.818,0-.6.024-1.2.045-1.809,0-.187.015-.373.02-.57.009-.24.022-.482.032-.725v-.186c.017-.326.034-.652.052-.98s.035-.611.056-.92c0-.095.011-.186.019-.289.011-.186.022-.373.037-.559.013-.216.03-.434.047-.65.02-.265.043-.527.065-.792q.045-.546.1-1.093c.032-.372.069-.734.106-1.1s.075-.745.116-1.118.084-.745.127-1.118v-.019c.045-.373.089-.756.138-1.136s.1-.769.151-1.157.106-.773.162-1.164v-.021q.08-.581.171-1.168c.06-.4.123-.8.186-1.2q.186-1.2.408-2.433c21.286,2.863,30.763-3.6,32.158-4.668l.093-.071c.671,1.118,7.078,10.8,28.5,15.684C296.385,1132.938,296.2,1134.083,295.977,1135.3Z" transform="translate(-196.11 -912.85)" fill="#53c1ff"/>
    <path id="Path_1571" data-name="Path 1571" d="M268.067,1115.78l-13.55,75.24c-.14-.08-.317-.186-.525-.313l-.2-.129c-.231-.145-.5-.32-.788-.52-.1-.069-.2-.143-.307-.216-.348-.25-.73-.535-1.138-.859l-.186-.147c-.224-.186-.456-.373-.695-.574l-.425-.372-.02-.019-.443-.4c-.158-.143-.319-.29-.479-.445l-.244-.233c-.492-.471-1-.987-1.52-1.548-.088-.091-.173-.186-.261-.283a.361.361,0,0,0-.037-.039c-.145-.16-.291-.324-.438-.49q-.687-.786-1.392-1.677l-.27-.344c-.486-.628-.972-1.293-1.46-2-.073-.106-.147-.214-.22-.326q-.311-.458-.618-.931-.1-.151-.2-.307c-.186-.3-.373-.6-.559-.915-.08-.136-.162-.274-.242-.413s-.14-.239-.209-.36-.149-.259-.222-.391c-.21-.373-.417-.745-.622-1.144-.088-.164-.171-.328-.257-.5q-.654-1.269-1.27-2.66c-.078-.169-.153-.343-.227-.514-.1-.222-.186-.443-.283-.669-.065-.155-.13-.311-.186-.468-.216-.525-.423-1.064-.628-1.613-.075-.2-.147-.4-.22-.607s-.147-.41-.218-.616c-.143-.415-.285-.838-.425-1.265-.067-.214-.134-.428-.2-.646-.039-.127-.078-.25-.116-.373-.048-.16-.1-.317-.142-.477s-.1-.322-.14-.484c-.063-.222-.127-.443-.186-.667s-.119-.428-.175-.646c-.127-.475-.246-.959-.363-1.451-.06-.239-.116-.477-.169-.721s-.1-.441-.147-.663a.42.42,0,0,0-.02-.093c-.05-.235-.1-.473-.151-.715-.039-.186-.076-.384-.116-.578-.061-.309-.119-.622-.177-.931-.048-.255-.1-.514-.138-.775s-.089-.516-.132-.777a.017.017,0,0,0,0-.013c-.039-.257-.08-.514-.121-.773v-.022c-.041-.266-.08-.533-.117-.8s-.073-.536-.108-.8v-.022c-.037-.272-.069-.546-.1-.82s-.061-.52-.091-.784a.35.35,0,0,0-.009-.1c-.03-.27-.058-.54-.084-.814s-.056-.572-.08-.862-.05-.581-.073-.876-.045-.589-.065-.887-.037-.559-.054-.853v-.078q-.026-.436-.045-.877c-.011-.25-.024-.5-.035-.756s-.017-.469-.024-.708-.015-.442-.02-.665v-.225c0-.214-.013-.429-.013-.645,0-.252-.009-.5-.009-.758v-1.96c0-.27,0-.544.013-.818,0-.6.024-1.2.045-1.809,0-.186.015-.373.02-.57.009-.24.022-.482.032-.724v-.186c.017-.326.034-.652.052-.98s.035-.611.056-.92c0-.095.011-.186.019-.289.011-.186.022-.373.037-.559.013-.216.03-.434.047-.65.02-.265.043-.527.065-.792q.045-.546.1-1.094c.032-.373.069-.734.106-1.1s.074-.745.115-1.118.084-.745.127-1.118v-.019c.045-.373.089-.756.138-1.136s.1-.769.151-1.157.106-.773.162-1.164v-.02q.08-.581.171-1.168c.06-.4.123-.8.186-1.2q.186-1.2.408-2.433C258.882,1123.719,268.067,1115.78,268.067,1115.78Z" transform="translate(-196.037 -912.517)" fill="#13a0f0"/>
    <rect id="Rectangle_521" data-name="Rectangle 521" width="547.112" height="1.84" transform="translate(14.014 281.966)" fill="#373c4a"/>
  </g>
</svg>
