<svg id="iconfinder_social-whatsapp-circle_4017334" xmlns="http://www.w3.org/2000/svg" width="61" height="61" viewBox="0 0 61 61">
  <circle id="Ellipse_89" data-name="Ellipse 89" cx="30.5" cy="30.5" r="30.5" fill="#25d366"/>
  <g id="Group_144" data-name="Group 144" transform="translate(11.693 11.482)">
    <path id="Path_972" data-name="Path 972" d="M56.963,29.442a19.216,19.216,0,0,0-30.238,23.18L24,62.577l10.184-2.671a19.213,19.213,0,0,0,9.181,2.338h.008a19.22,19.22,0,0,0,13.59-32.8M43.373,59h-.006a15.946,15.946,0,0,1-8.128-2.225l-.583-.346-6.043,1.585,1.612-5.892-.38-.606A15.967,15.967,0,1,1,43.373,59M52.131,47.04c-.48-.241-2.84-1.4-3.281-1.562s-.759-.24-1.079.241-1.24,1.562-1.521,1.882-.559.361-1.04.12a13.093,13.093,0,0,1-3.859-2.383,14.432,14.432,0,0,1-2.671-3.325c-.28-.48-.03-.739.211-.979.216-.215.48-.56.72-.841a3.3,3.3,0,0,0,.48-.8.881.881,0,0,0-.04-.841c-.121-.241-1.08-2.6-1.48-3.565-.39-.936-.786-.809-1.08-.824s-.6-.017-.92-.017a1.763,1.763,0,0,0-1.28.6,5.385,5.385,0,0,0-1.68,4,9.333,9.333,0,0,0,1.96,4.965c.24.32,3.385,5.169,8.2,7.248a27.945,27.945,0,0,0,2.737,1.011,6.573,6.573,0,0,0,3.024.19c.922-.137,2.84-1.161,3.241-2.282a4,4,0,0,0,.279-2.282c-.121-.2-.441-.321-.921-.562" transform="translate(-24 -23.807)" fill="#fff"/>
  </g>
</svg>
