<svg xmlns="http://www.w3.org/2000/svg" width="25.1" height="28.626" viewBox="0 0 25.1 28.626">
  <g id="noun_write_1971274" transform="translate(-8.838 -51.923)">
    <g id="Group_105" data-name="Group 105" transform="translate(8.838 51.923)">
      <g id="Group_100" data-name="Group 100" transform="translate(0 4.138)">
        <g id="Group_99" data-name="Group 99">
          <path id="Path_661" data-name="Path 661" d="M127.679,191.041l-1.328,1.328-3.185,3.185-3.841,3.841-3.319,3.319c-.538.538-1.089,1.064-1.614,1.614a.144.144,0,0,1-.022.022c.221-.09.439-.184.659-.274q-.975,0-1.95,0c-1.042,0-2.084,0-3.126,0h-.715l.933.933q0-.975,0-1.95c0-1.042,0-2.084,0-3.126v-.715c-.09.221-.184.439-.274.659l1.328-1.328,3.185-3.185,3.841-3.841,3.319-3.319c.538-.538,1.089-1.064,1.614-1.614a.143.143,0,0,1,.022-.022h-1.319l1.969,1.969,3.11,3.11.715.715a.933.933,0,1,0,1.319-1.319l-1.969-1.969-3.11-3.11-.715-.715a.945.945,0,0,0-1.319,0l-.6.6-1.571,1.571-2.218,2.218-2.51,2.51-2.488,2.488-2.112,2.112-1.415,1.415-.336.336a1.1,1.1,0,0,0-.333.8c0,.893,0,1.785,0,2.681,0,.955,0,1.913,0,2.868v.168a.946.946,0,0,0,.933.933q1.087,0,2.174,0c1.058,0,2.118,0,3.176,0a1.424,1.424,0,0,0,1.107-.277c.068-.062.131-.131.2-.2l1.188-1.188,1.978-1.978,2.42-2.42,2.544-2.544,2.311-2.311,1.764-1.764c.289-.289.579-.575.865-.865l.037-.037a.935.935,0,0,0-1.322-1.322Z" transform="translate(-108.298 -184.975)" fill="#a3a6a8"/>
        </g>
      </g>
      <g id="Group_102" data-name="Group 102" transform="translate(13.311 0)">
        <g id="Group_101" data-name="Group 101">
          <path id="Path_662" data-name="Path 662" d="M546.151,58.32l-1.288,1.288-2.044,2.043-.476.476h1.319l-1.969-1.969-3.11-3.11-.715-.715v1.319l1.362-1.362,2.078-2.078.3-.3.065-.065.037-.037c.022-.025.093-.075-.028.016s-.022.019.012,0a1.4,1.4,0,0,1,.152-.078l-.224.093a1.32,1.32,0,0,1,.283-.078l-.249.034a1.517,1.517,0,0,1,.336,0l-.249-.034a1.273,1.273,0,0,1,.283.078l-.224-.093a1.083,1.083,0,0,1,.134.068l.071.047c.072.04-.1-.081-.1-.081,0,.019.053.047.072.065l.059.059.28.28,1.026,1.026,2.373,2.373.361.361c.025.025.053.05.078.078l.009.009a.632.632,0,0,1,.062.065c0-.022-.143-.205-.056-.065a1.511,1.511,0,0,1,.09.174l-.093-.224a1.318,1.318,0,0,1,.075.289c-.013-.084-.022-.165-.034-.249a1.378,1.378,0,0,1,0,.3c.012-.084.022-.165.034-.249a1.324,1.324,0,0,1-.078.289l.093-.224a1.844,1.844,0,0,1-.09.174c-.019.031-.087.121.009-.006s0-.012-.022.012a.932.932,0,0,0,1.319,1.319,2.106,2.106,0,0,0-.025-2.958l-.731-.731-2.572-2.572-.8-.8a2.167,2.167,0,0,0-.6-.445,2.1,2.1,0,0,0-2.05.109,6.292,6.292,0,0,0-.809.74l-1.2,1.2c-.7.7-1.4,1.39-2.1,2.1l-.04.04a.945.945,0,0,0,0,1.319l1.969,1.969,3.11,3.11.715.715a.944.944,0,0,0,1.319,0l1.288-1.288,2.043-2.043.476-.476a.928.928,0,1,0-1.312-1.313Z" transform="translate(-536.275 -51.923)" fill="#a3a6a8"/>
        </g>
      </g>
      <g id="Group_104" data-name="Group 104" transform="translate(0.002 26.749)">
        <g id="Group_103" data-name="Group 103">
          <path id="Path_663" data-name="Path 663" d="M126.607,911.928H111.438c-.7,0-1.4-.012-2.1,0h-.028a.933.933,0,0,0,0,1.866h15.169c.7,0,1.4.012,2.1,0h.028a.933.933,0,0,0,0-1.866Z" transform="translate(-108.376 -911.922)" fill="#a3a6a8"/>
        </g>
      </g>
    </g>
  </g>
</svg>
