<svg xmlns="http://www.w3.org/2000/svg" width="19.25" height="19.245" viewBox="0 0 19.25 19.245">
  <path id="iconfinder_you_tube1_1521985" d="M19,16.926a2.589,2.589,0,0,1-2.779,2.34q-3.286.116-6.718.108t-6.718-.108A2.589,2.589,0,0,1,0,16.926c-.092-1.024-.132-2.047-.128-3.07s.036-2.047.128-3.07a2.59,2.59,0,0,1,2.779-2.34Q6.068,8.328,9.5,8.337t6.718.108A2.589,2.589,0,0,1,19,10.785c.092,1.023.132,2.047.128,3.07S19.089,15.9,19,16.926ZM5.4,10.048H1.366V11.1H2.727v6.2H4.042V11.1H5.4Zm3.318,1.9H7.553v4.062a1.575,1.575,0,0,1-.361.288.711.711,0,0,1-.326.112.3.3,0,0,1-.238-.085.421.421,0,0,1-.073-.275v-4.1H5.387v4.472a1.073,1.073,0,0,0,.206.717.757.757,0,0,0,.61.239,1.54,1.54,0,0,0,.677-.171,2.523,2.523,0,0,0,.673-.5V17.3H8.721Zm4.5,1.274a1.5,1.5,0,0,0-.293-1,1.047,1.047,0,0,0-.846-.343,1.218,1.218,0,0,0-.537.128,1.734,1.734,0,0,0-.5.371V10.048H9.861V17.3H11.04v-.412a1.428,1.428,0,0,0,1.11.48,1.016,1.016,0,0,0,.793-.3,1.263,1.263,0,0,0,.274-.874Zm4.317,2.164h-1.2v.372a1.047,1.047,0,0,1-.116.611.506.506,0,0,1-.405.139.449.449,0,0,1-.395-.164,1.062,1.062,0,0,1-.115-.585V14.751h2.234V13.389a1.527,1.527,0,0,0-.431-1.168,1.724,1.724,0,0,0-1.231-.406,1.857,1.857,0,0,0-1.279.439,1.447,1.447,0,0,0-.495,1.135v2.4A1.621,1.621,0,0,0,14.549,17a1.686,1.686,0,0,0,1.234.442,1.844,1.844,0,0,0,1.312-.416,1.631,1.631,0,0,0,.439-1.239ZM15.3,13.379a.749.749,0,0,1,.121-.481.5.5,0,0,1,.4-.145.481.481,0,0,1,.39.145.754.754,0,0,1,.121.481v.542H15.3Zm-3.7,3.149a.692.692,0,0,1-.282-.057,1,1,0,0,1-.277-.188V12.948a.84.84,0,0,1,.241-.163.612.612,0,0,1,.247-.053.458.458,0,0,1,.362.141.6.6,0,0,1,.125.412v2.762a.547.547,0,0,1-.1.369A.4.4,0,0,1,11.6,16.528Zm2.716-9.736a2.467,2.467,0,0,1-.672.5,1.53,1.53,0,0,1-.678.171.764.764,0,0,1-.611-.238,1.074,1.074,0,0,1-.2-.717V2.033h1.167v4.1a.416.416,0,0,0,.074.275.3.3,0,0,0,.237.085.691.691,0,0,0,.326-.113,1.5,1.5,0,0,0,.361-.288V2.033h1.167v5.35H14.315Zm-4.861.726a1.792,1.792,0,0,1-1.226-.4A1.372,1.372,0,0,1,7.768,6.03V3.256a1.192,1.192,0,0,1,.472-.99A2.008,2.008,0,0,1,9.508,1.9a1.786,1.786,0,0,1,1.189.389,1.249,1.249,0,0,1,.462,1V6.049A1.35,1.35,0,0,1,10.7,7.127,1.853,1.853,0,0,1,9.454,7.519Zm.514-4.3a.337.337,0,0,0-.143-.282.6.6,0,0,0-.373-.108.532.532,0,0,0-.348.108.342.342,0,0,0-.134.282V6.13a.448.448,0,0,0,.125.341.49.49,0,0,0,.357.12.551.551,0,0,0,.377-.122.429.429,0,0,0,.14-.339ZM6.3,7.383H4.982V4.509L3.416.13H4.741l.853,2.9h.083L6.491.13H7.828L6.3,4.373Z" transform="translate(0.125 -0.13)" fill="#818181" fill-rule="evenodd"/>
</svg>
