<svg xmlns="http://www.w3.org/2000/svg" xmlns:xlink="http://www.w3.org/1999/xlink" width="57" height="57" viewBox="0 0 57 57">
  <defs>
    <clipPath id="clip-path">
      <path id="Path_469" data-name="Path 469" d="M-522.041-45.808l8.264-6.037c.717-.594,1.274-.445,1.274.631v18.409c0,1.225-.68,1.076-1.274.631l-8.264-6.025ZM-550-51.165v13.732a5.62,5.62,0,0,0,5.641,5.592h20.017a1.022,1.022,0,0,0,1.027-1.014V-46.587a5.62,5.62,0,0,0-5.641-5.592h-20.017A1.022,1.022,0,0,0-550-51.165Z" transform="translate(550 52.191)" stroke="#fff" stroke-width="2"/>
    </clipPath>
  </defs>
  <g id="zoom-icon-seeklogo.com-1" transform="translate(647.5 221.5)">
    <g id="Ellipse_62" data-name="Ellipse 62" transform="translate(-647.5 -221.5)" fill="#13a0f0" stroke="#fff" stroke-width="2">
      <circle cx="28.5" cy="28.5" r="28.5" stroke="none"/>
      <circle cx="28.5" cy="28.5" r="27.5" fill="none"/>
    </g>
    <g id="Group_76" data-name="Group 76" transform="translate(-637.895 -203.011)">
      <g id="Group_75" data-name="Group 75" transform="translate(0 0)" clip-path="url(#clip-path)">
        <path id="Path_468" data-name="Path 468" d="M-562.8-64.9h40.665v23.506H-562.8Z" transform="translate(561.216 63.328)" fill="#fff" stroke="#fff" stroke-width="2"/>
      </g>
    </g>
  </g>
</svg>
